<svg id="Слой_1" enable-background="new 0 0 113.4 113.4" xmlns="http://www.w3.org/2000/svg" viewBox="6.7 6.7 100 100"><g id="crossbrowser"><circle cx="56.7" cy="56.7" fill="#4c70ab" r="50"></circle><path d="m106.7 56.7c0-3-.3-6-.8-8.9l-15.8-15.8-66.4 46.9 27.5 27.5c1.8.2 3.6.3 5.4.3 27.7 0 50.1-22.4 50.1-50z" fill="#0d0f0f" opacity=".3"></path><path d="m90.9 72.9h-68v-38.8c0-1.8 1.4-3.2 3.2-3.2h61.6c1.8 0 3.2 1.4 3.2 3.2z" fill="#353535"></path><path d="m22.9 72.9h68v3.8c0 1.8-1.4 3.2-3.2 3.2h-61.6c-1.8 0-3.2-1.4-3.2-3.2z" fill="#cbcbcb"></path><path d="m26.9 34.9h60v35h-60z" fill="#446a73"></path><path d="m66.9 87.9h-20l2-8h16z" fill="#979898"></path><path d="m46.9 87.9h20v1h-20z" fill="#cbcbcb"></path><g><circle cx="36.9" cy="45.4" fill="#9bbe59" r="6.2"></circle><path d="m36.9 39.2c-1.9 0-3.6.8-4.7 2.2l2.7 5 2-3.5h5.8c-1.1-2.2-3.2-3.7-5.8-3.7z" fill="#ca6145"></path><path d="m42.5 48.3c.9-1.7.9-3.8.1-5.4h-5.2l2.2 3.4-3.1 5.4c2.4.1 4.7-.9 6-3.4z" fill="#f0e753"></path><circle cx="36.9" cy="45.4" fill="#fff" r="2.8"></circle><circle cx="36.9" cy="45.4" fill="#69a4d3" r="2.2"></circle></g><path d="m57.4 39.2c-2.9 0-5.3 2.8-5.3 6.2s2.4 6.2 5.3 6.2 5.3-2.8 5.3-6.2-2.4-6.2-5.3-6.2zm0 10.8c-1.4 0-2.6-2.1-2.6-4.6s1.2-4.6 2.6-4.6 2.6 2.1 2.6 4.6-1.1 4.6-2.6 4.6z" fill="#ca6145"></path><g><path d="m76.4 39.7c-3.2 0-5.8 2.6-5.8 5.8s2.6 5.8 5.8 5.8c2.3 0 4.3-1.4 5.2-3.3h-2.4c-.7.8-1.7 1.3-2.8 1.3-1.9 0-3.5-1.5-3.7-3.3h9.4c0-.1 0-.3 0-.4 0-3.3-2.6-5.9-5.7-5.9zm-3.4 4.2c.6-1.3 1.9-2.2 3.4-2.2s2.8.9 3.4 2.2z" fill="#69a4d3"></path><path d="m74.8 39.2c-.1 0-.2 0-.3 0 2.1.3 2.8 2.9 2.8 6.2s-.7 6-2.8 6.2h.3c2.3 0 4.2-2.8 4.2-6.3-.1-3.3-1.9-6.1-4.2-6.1z" fill="#f0e753"></path></g><g><path d="m64.1 54.8h1.7v1.2h-1.7z" fill="#979898" transform="matrix(.914 -.406 .406 .914 -16.905 31.198)"></path><path d="m62.6 53.9h4v1h-4z" fill="#cbcbcb" transform="matrix(.914 -.406 .406 .914 -16.536 30.963)"></path><circle cx="67" cy="60.1" fill="#cbcbcb" r="5.1"></circle><circle cx="67" cy="60.1" fill="#69a4d3" r="4.3"></circle><path d="m66.6 59.5 3.2-2.4-2.6 3.1z" fill="#ca6145"></path><path d="m67.2 60.2-3.2 2.4 2.6-3.1z" fill="#fff"></path></g><g><circle cx="48.1" cy="60.1" fill="#69a4d3" r="5.6"></circle><path d="m44.2 55.2v.8c0 .6.5 1.1 1.1 1.1h.1c.4 0 .8-.2 1.1-.6l.7-1s-.4 2.7.8 2.9 1.1.2.9.7c-.2.4-2.1.5-2.3 1-.3.6-.3 1.3.4 1.6s2-.2 2.3-.6.8.9-.5 1.5c-1.4.5-2.2 1.2-.5 1.2s3-.1 3.9-1.2.5-2.9.5-2.9l.7.3s.3-1.5-.4-2.6c.7 0 .9.5.9.5s1.1 3.8-1.3 6.3c-2.1 2.3-7 3-9.2-.4-2.5-3.7.8-8.6.8-8.6z" fill="#e2ad4f"></path></g><path d="m73.3 58.1 7.8 13.3 16.8-28.7-17.2 21.3z" fill="#9bbe59"></path></g></svg>