<svg xmlns="http://www.w3.org/2000/svg" viewBox="0 0 24 24"><path d="M20 2h-1V1a1 1 0 0 0-2 0v1H7V1a1 1 0 0 0-2 0v1H4a4 4 0 0 0-4 4v14a4 4 0 0 0 4 4h16a4 4 0 0 0 4-4V6a4 4 0 0 0-4-4m2 18a2 2 0 0 1-2 2H4a2 2 0 0 1-2-2V6a2 2 0 0 1 2-2h1v1a1 1 0 0 0 2 0V4h10v1a1 1 0 0 0 2 0V4h1a2 2 0 0 1 2 2Z"></path><path d="M19 7H5a1 1 0 0 0 0 2h14a1 1 0 0 0 0-2M7 12H5a1 1 0 0 0 0 2h2a1 1 0 0 0 0-2m0 5H5a1 1 0 0 0 0 2h2a1 1 0 0 0 0-2m6-5h-2a1 1 0 0 0 0 2h2a1 1 0 0 0 0-2m0 5h-2a1 1 0 0 0 0 2h2a1 1 0 0 0 0-2m6-5h-2a1 1 0 0 0 0 2h2a1 1 0 0 0 0-2m0 5h-2a1 1 0 0 0 0 2h2a1 1 0 0 0 0-2"></path></svg>