<svg xmlns="http://www.w3.org/2000/svg" viewBox="0 0 32 32"><path d="M17.935 21.088c1.24.737 2.274-.656 3.15-1.313a3.139 3.139 0 0 1 3.893-.1l3.5 2.626a3.405 3.405 0 0 1 .365 5.132c-5.194 5.1-13.516 1.35-19.63-4.593-4.649-4.65-6.343-9.142-6.9-12.377-1.025-4.054 3.26-11.37 7.44-6.888l2.625 3.5a3.139 3.139 0 0 1-.1 3.893l-1.152 1.383a1.563 1.563 0 0 0-.16 1.767 18.348 18.348 0 0 0 6.969 6.97zm11.633-8.107A10.508 10.508 0 0 0 19.072 2.485a.999.999 0 1 0 0 1.998 8.508 8.508 0 0 1 8.498 8.498.999.999 0 0 0 1.998 0zm-4.924 0a5.578 5.578 0 0 0-5.572-5.571.999.999 0 1 0 0 1.997 3.578 3.578 0 0 1 3.574 3.574.999.999 0 0 0 1.998 0zm-5.572.994a1 1 0 0 0 0-1.997 1 1 0 0 0 0 1.997z" data-name="call" fill="#90e954"/></svg>