<svg xmlns="http://www.w3.org/2000/svg" xml:space="preserve" width="255" height="75"><path fill="#FFF" fill-rule="evenodd" d="M103.754 11.419H240.66v32.18H103.754z" clip-rule="evenodd"/><path fill="#4285F4" fill-rule="evenodd" d="M98.987 7.229v42.405h36.147V7.229H98.987zm27.326 25.978a13.557 13.557 0 0 1-1.031 1.929 8.305 8.305 0 0 1-3.11 2.925c-1.293.705-2.823 1.058-4.588 1.058-1.95 0-3.644-.425-5.08-1.275-1.643-.871-2.843-2.084-3.603-3.64-.842-1.701-1.262-4.003-1.262-6.907 0-1.68.247-3.193.739-4.542.492-1.349 1.185-2.515 2.078-3.5.893-.985 1.919-1.722 3.079-2.209 1.159-.487 2.509-.731 4.048-.731 1.683 0 3.207.338 4.572 1.011 1.365.675 2.468 1.613 3.31 2.816.759 1.141 1.262 2.842 1.509 5.102l-5.419-.373c-.308-1.244-.775-2.151-1.401-2.723-.626-.569-1.432-.855-2.417-.855-1.458 0-2.597.597-3.418 1.789-.821 1.193-1.231 2.765-1.231 4.714 0 1.846.375 3.359 1.124 4.542.749 1.183 1.811 1.773 3.187 1.773 1.128 0 2.027-.306 2.694-.918.667-.611 1.154-1.581 1.462-2.909l5.48.405c-.204 1.036-.446 1.875-.722 2.518z" clip-rule="evenodd"/><path fill="#FBBC05" fill-rule="evenodd" d="M169.063 7.229v42.405h36.146V7.229h-36.146zM197.82 38.62h-5.203V26.394l-2.679 12.227h-5.142l-2.617-12.319V38.62h-5.234V16.967h7.359l3.078 14.031 3.232-14.031h7.205V38.62z" clip-rule="evenodd"/><path fill="#EA4335" fill-rule="evenodd" d="M134.025 7.229v42.405h36.146V7.229h-36.146zm27.341 31.391h-5.758c-.246-.787-.4-1.462-.462-2.021a13.052 13.052 0 0 1-.169-1.867c-.011-.602-.016-1.213-.016-1.835 0-.892-.149-1.488-.446-1.789-.298-.301-.98-.451-2.048-.451h-3.91v7.964h-5.327V16.967h10.87c1.457 0 2.74.312 3.849.934a5.767 5.767 0 0 1 2.278 2.333c.533.996.801 2.054.801 3.174a6.13 6.13 0 0 1-.4 2.24c-.185.519-.441.995-.77 1.431s-.708.819-1.139 1.151c.492.311.893.768 1.2 1.369.205.394.344.86.415 1.399.072.54.108 1.162.108 1.867-.021.332-.03.648-.03.948v.855c0 .747.051 1.281.153 1.603.103.322.37.524.801.606v1.743zm-6.973-16.722c-.258-.073-.621-.109-1.094-.109h-4.741v4.169h4.681c.861 0 1.467-.176 1.816-.528.369-.415.554-.923.554-1.525 0-.622-.185-1.15-.554-1.586a1.387 1.387 0 0 0-.662-.421z" clip-rule="evenodd"/><path fill="#34A853" fill-rule="evenodd" d="M225.054 25.198c-.843 0-1.575.27-2.199.81-.624.539-1.067 1.158-1.328 1.858l-.175.568v.874l-.129.219c0 1.137.331 1.909.995 2.317.663.35 1.399.524 2.206.524.953 0 1.695-.27 2.229-.809s.916-1.129 1.147-1.771l.173-.569.13-.568v-.918c-.087-.612-.399-1.188-.937-1.727-.537-.538-1.241-.808-2.112-.808zM205.148 7.097v42.461h38.12V7.097h-38.12zm32.388 24.901c-1.212 1.705-2.567 2.995-4.067 3.869-.346.176-.736.365-1.168.568-.318.117-.723.263-1.213.438-.404.088-.771.161-1.104.219a5.321 5.321 0 0 1-.93.088c-.664 0-1.184-.124-1.558-.372-.376-.247-.606-.561-.692-.94v-.131l.086-.438-.218.219-.218.175a8.639 8.639 0 0 1-1.702 1.137 5.317 5.317 0 0 1-1.919.351c-1.949 0-3.462-.656-4.538-1.968-1.076-1.313-1.745-2.784-2.007-4.417V29.57c0-2.594.822-4.75 2.467-6.471.894-.903 1.773-1.574 2.64-2.012a6.057 6.057 0 0 1 2.77-.655h.259c1.039 0 2.006.262 2.9.787.894.524 1.572 1.122 2.033 1.792l.303-2.317h3.809l-1.861 10.101-.043.132-.043.306v.481l.043.175c0 .175.051.365.154.568a.53.53 0 0 0 .51.306c.824 0 1.487-.394 1.988-1.181.502-.787.885-1.69 1.15-2.711l.266-1.486v-1.269c0-1.486-.281-2.791-.844-3.913-.563-1.122-1.407-2.092-2.532-2.908-2.106-1.545-4.414-2.317-6.924-2.317-3.521 0-6.217 1.108-8.092 3.323-1.876 2.216-2.813 4.883-2.813 8.002 0 3.615 1.082 6.384 3.246 8.309a13.423 13.423 0 0 0 3.678 2.252c1.327.539 2.756.809 4.285.809 1.441 0 2.783-.189 4.023-.568a8.499 8.499 0 0 0 3.506-1.924l4.023-.044a10.08 10.08 0 0 1-3.31 3.629 15.41 15.41 0 0 1-4.479 2.056l-2.076.394-1.991.175c-4.212 0-7.854-1.443-10.927-4.329s-4.607-6.384-4.607-10.494v-.612c0-1.778.267-3.396.799-4.854.533-1.457 1.274-2.739 2.225-3.849 1.729-2.039 3.673-3.556 5.834-4.547.49-.203 1.065-.415 1.729-.634a15.588 15.588 0 0 1 1.879-.503 22.376 22.376 0 0 1 1.621-.263c.489-.058.979-.087 1.469-.087h.734c1.556 0 3.104.313 4.646.939 1.541.628 3.032 1.524 4.472 2.689 2.766 2.187 4.148 4.971 4.148 8.352-.001 2.827-.607 5.094-1.819 6.799z" clip-rule="evenodd"/><path fill="#052149" fill-rule="evenodd" d="m117.88 67.929-3.934-12.674h-2.778l-4.208 12.674-4.346-12.674H98.68l6.327 17.455h3.741l3.741-11.118 3.631 11.118h3.576l6.602-17.455h-3.823l-4.595 12.674zm16.972-2.196h10.287v-3.475h-10.287v-3.502h10.342v-3.475h-13.781V72.71h13.809v-3.475h-10.369v-3.502zm31.699-1.64c.582-.165.986-.424 1.215-.775.227-.351.341-.887.341-1.607v-2.937c0-1.164-.265-2.036-.792-2.618s-1.382-.873-2.564-.873h-13.78V72.71h13.78c1.256 0 2.129-.307 2.62-.918s.746-1.528.765-2.751l.055-2.529c0-.741-.128-1.297-.383-1.668-.256-.37-.675-.621-1.257-.751zm-1.801 5.142h-10.342V65.51h10.342v3.725zm0-6.949h-10.342v-3.529h10.342v3.529zm12.956-7.031h-3.438V72.71h13.781v-3.475h-10.343v-13.98zM193.33 72.71h3.438V55.255h-3.438V72.71zm23.6-6.088-10.92-11.367h-2.916V72.71h3.494V60.869l11.658 11.841h2.122V55.255h-3.438v11.367zm16.779-2.891 9.984-8.477h-5.226l-8.362 7.198v-7.198h-3.438V72.71h3.438v-7.616l8.582 7.616h5.281l-10.259-8.979z" clip-rule="evenodd"/><ellipse cx="49.988" cy="58.635" fill="#052149" fill-rule="evenodd" clip-rule="evenodd" opacity=".102" rx="39.755" ry="16.268"/><path fill="#DFA600" fill-rule="evenodd" d="M50.392 37.684 17.847 50.891l32.545 20.961 32.546-20.961z" clip-rule="evenodd"/><path fill="#EA4335" fill-rule="evenodd" d="M50.392 37.683 17.847 50.908l32.545 13.04 32.546-13.04z" clip-rule="evenodd"/><path fill="#FF8075" fill-rule="evenodd" d="M50.142 63.627v8.183l32.756-12.927V50.7z" clip-rule="evenodd"/><path fill="#FF8075" fill-rule="evenodd" d="M17.665 50.679v8.191l32.727 12.94v-8.192z" clip-rule="evenodd"/><path fill="#1B8ECB" fill-rule="evenodd" d="M50.392 23.995 17.847 37.201l32.545 20.962 32.546-20.962z" clip-rule="evenodd"/><path fill="#017CBA" fill-rule="evenodd" d="M50.392 23.994 17.847 37.22l32.545 13.04 32.546-13.04z" clip-rule="evenodd"/><path fill="#1D9ADD" fill-rule="evenodd" d="M50.142 49.938v8.182l32.756-12.926v-8.182z" clip-rule="evenodd"/><path fill="#1D9ADD" fill-rule="evenodd" d="M17.665 36.99v8.191L50.392 58.12v-8.19z" clip-rule="evenodd"/><path fill="#FBBC05" fill-rule="evenodd" d="M46.656 12.283h-3.473c-1.668 0-3.02 1.366-3.02 3.051v19.408c0 1.685 1.352 3.051 3.02 3.051h3.473c1.668 0 3.02-1.366 3.02-3.051V15.334c0-1.685-1.352-3.051-3.02-3.051z" clip-rule="evenodd"/><path fill="#32B7FF" fill-rule="evenodd" d="M35.93 22.444h-3.473c-1.668 0-3.02 1.366-3.02 3.051v9.247c0 1.685 1.352 3.051 3.02 3.051h3.473c1.668 0 3.02-1.366 3.02-3.051v-9.247c0-1.684-1.352-3.051-3.02-3.051z" clip-rule="evenodd"/><path fill="#69BE43" fill-rule="evenodd" d="M57.236 7.354h-3.474c-1.667 0-3.02 1.366-3.02 3.052v24.337c0 1.685 1.352 3.051 3.02 3.051h3.474c1.667 0 3.02-1.366 3.02-3.051V10.405c0-1.685-1.352-3.051-3.02-3.051z" clip-rule="evenodd"/><path fill="#EA4335" fill-rule="evenodd" d="M67.962.579h-3.474c-1.667 0-3.02 1.366-3.02 3.052v31.111c0 1.685 1.352 3.051 3.02 3.051h3.474c1.667 0 3.02-1.366 3.02-3.051V3.631c0-1.686-1.352-3.052-3.02-3.052z" clip-rule="evenodd"/><ellipse cx="66.123" cy="3.039" fill="#E0392B" fill-rule="evenodd" clip-rule="evenodd" rx="4.441" ry="2.969"/><ellipse cx="55.497" cy="9.813" fill="#34A853" fill-rule="evenodd" clip-rule="evenodd" rx="4.441" ry="2.969"/><ellipse cx="45.006" cy="14.657" fill="#DCA400" fill-rule="evenodd" clip-rule="evenodd" rx="4.441" ry="2.969"/><ellipse cx="34.279" cy="24.614" fill="#2699D3" fill-rule="evenodd" clip-rule="evenodd" rx="4.441" ry="2.969"/></svg>