<svg version="1.1" xmlns="http://www.w3.org/2000/svg" xmlns:xlink="http://www.w3.org/1999/xlink" xml:space="preserve" viewBox="3.99 4.98 71 71.01"> <path fill-rule="evenodd" clip-rule="evenodd" fill="#0047BC" d="M63.488,28.908c0,0-3.131,9.762-5.149,12.325 c0,0-2.945,6.222-6.354,10.94c0,0-3.705,5.659-9.374,10.823c0,0-8.019,7.908-16.45,7.752c0,0-6.206,0.229-9.329-6.359 c0,0-2.255-4.169-2.326-10.193c0,0-0.535-7.242,0.784-12.231c0,0,0.846-5.236,3.675-10.894c0,0,5.051-10.654,11.287-9.864 c0,0,4.301-0.138,4.665,7.68c0,0,0.251,4.479-1.714,9.055c0,0-1.1,3.208-4.566,7.481c0,0-2.851,4.096-9.354,8.029l-2.04,1.286 c0,0-0.11,1.901,0.499,3.433c0,0,5.531-3.115,10.346-7c0,0,6.889-5.435,10.27-10.005c0,0,3.4-4.032,5.196-9.771 c0,0,1.54-4.577-0.883-9.168c0,0-1.591-2.505-3.856-3.681c0,0-4.225-2.811-10.889-1.01c0,0-3.857,0.962-8.18,4.18 c0,0-4.934,3.567-8.493,9.397c0,0-2.479,3.537-5.046,10.538c0,0-1.78,4.652-2.179,11.026c0,0-0.353,4.428,1.179,9.821 c0,0,1.31,5.124,5.031,8.832c0,0,2.115,2.288,6.409,3.86c0,0,2.336,1.247,8.07,0.627c0,0,5.419-0.929,7.508-1.968 c0,0,6.077-2.056,11.757-7.308c0,0,5.8-5.22,9.683-11.712c0,0,3.274-5.546,4.701-8.961c0,0,2.361-5.451,3.842-9.901 c0,0,1.855-6.149,2.463-8.69l1.081-5.34C65.751,21.939,63.801,28.334,63.488,28.908z"></path> <ellipse fill-rule="evenodd" clip-rule="evenodd" fill="#C13A3B" cx="67.166" cy="12.86" rx="7.822" ry="7.876"></ellipse> </svg>