<svg id="Layer_1" enable-background="new 0 0 256 256" xmlns="http://www.w3.org/2000/svg" viewBox="2 15.7 252 224.7"><g id="XMLID_5533_"><g id="XMLID_5562_"><g id="XMLID_5571_"><path d="m197.7 56.5h-169.3c-3.9 0-7-3.1-7-7v-11c0-3.9 3.1-7 7-7h169.3c3.9 0 7 3.1 7 7v11c0 3.9-3.1 7-7 7zm-169.3-21c-1.7 0-3 1.3-3 3v11c0 1.7 1.3 3 3 3h169.3c1.7 0 3-1.3 3-3v-11c0-1.7-1.3-3-3-3z" fill="#491352"></path></g><g id="XMLID_5570_"><path d="m225.1 56.3c-6.8 0-12.3-5.5-12.3-12.3s5.5-12.3 12.3-12.3 12.3 5.5 12.3 12.3-5.5 12.3-12.3 12.3zm0-20.6c-4.6 0-8.3 3.7-8.3 8.3s3.7 8.3 8.3 8.3 8.3-3.7 8.3-8.3-3.7-8.3-8.3-8.3z" fill="#491352"></path></g><g id="XMLID_5569_"><path d="m252 22.7v210.7c0 2.8-2.2 5-5 5h-238c-2.8 0-5-2.2-5-5v-210.7c0-2.8 2.2-5 5-5h238c2.8 0 5 2.2 5 5z" fill="#56c1b3"></path></g><g id="XMLID_5568_"><path d="m252 22.7v210.7c0 2.8-2.2 5-5 5h-228.9v-220.7h228.9c2.8 0 5 2.2 5 5z" fill="#7befe4"></path></g><g id="XMLID_5567_"><path d="m197.7 54.5h-169.3c-2.8 0-5-2.2-5-5v-11c0-2.8 2.2-5 5-5h169.3c2.8 0 5 2.2 5 5v11c0 2.8-2.2 5-5 5z" fill="#40c4df"></path></g><g id="XMLID_5566_"><circle cx="225.1" cy="44" fill="#f85252" r="10.3"></circle></g><g id="XMLID_5565_"><path d="m252 70.1v163.2c0 2.8-2.2 5-5 5h-238c-2.8 0-5-2.2-5-5v-163.2z" fill="#d8d6d7"></path></g><g id="XMLID_5564_"><path d="m252 70.1v163.2c0 2.8-2.2 5-5 5h-228.9v-168.2z" fill="#fff"></path></g><g id="XMLID_5563_"><path d="m252 70.1v163.2c0 2.8-2.2 5-5 5h-228.9v-168.2z" fill="#fff"></path></g></g><g id="XMLID_5597_"><g id="XMLID_5596_"><circle cx="128" cy="154.8" fill="#7befe4" r="68"></circle></g><g id="XMLID_5595_"><path d="m128 207.3c-28.9 0-52.5-23.6-52.5-52.5s23.5-52.5 52.5-52.5 52.5 23.5 52.5 52.5-23.6 52.5-52.5 52.5z" fill="#fff"></path></g><g id="XMLID_5593_"><g id="XMLID_5594_"><path d="m153.8 133.1c0-1.1-.4-2.2-1.2-3-1.6-1.6-4.3-1.6-6 0l-13.3 13.3c-.6.6-1.4.7-2.1.5-1.3-.4-2.8-.5-4.2-.4-5.5.5-10 5.1-10.3 10.6-.1 1.8.2 3.5.8 5 1.1 2.7 3.2 4.9 5.9 6.1 1.6.7 3.3 1 5.2.9 5.7-.3 10.5-5 10.8-10.8.1-1.6-.2-3.1-.6-4.4-.2-.5-.1-1 .3-1.3l13.6-13.6c.7-.8 1.1-1.9 1.1-2.9z" fill="#f85252"></path></g></g></g><g id="XMLID_5530_"><g id="XMLID_5598_"><path d="m247 15.7h-238c-3.9 0-7 3.1-7 7v210.7c0 3.9 3.1 7 7 7h238c3.9 0 7-3.1 7-7v-210.7c0-3.9-3.1-7-7-7zm3 217.6c0 1.7-1.3 3-3 3h-238c-1.7 0-3-1.3-3-3v-161.2h244zm0-165.2h-244v-45.4c0-1.7 1.3-3 3-3h238c1.7 0 3 1.3 3 3z" fill="#491352"></path></g><g id="XMLID_5629_"><path d="m197.7 31.5h-169.3c-3.9 0-7 3.1-7 7v11c0 3.9 3.1 7 7 7h169.3c3.9 0 7-3.1 7-7v-11c0-3.9-3.1-7-7-7zm3 18c0 1.7-1.3 3-3 3h-169.3c-1.7 0-3-1.3-3-3v-11c0-1.7 1.3-3 3-3h169.3c1.7 0 3 1.3 3 3z" fill="#491352"></path></g><g id="XMLID_5632_"><path d="m225.1 31.7c-6.8 0-12.3 5.5-12.3 12.3s5.5 12.3 12.3 12.3 12.3-5.5 12.3-12.3-5.5-12.3-12.3-12.3zm0 20.6c-4.6 0-8.3-3.7-8.3-8.3s3.7-8.3 8.3-8.3 8.3 3.7 8.3 8.3c.1 4.6-3.7 8.3-8.3 8.3z" fill="#491352"></path></g><g id="XMLID_5633_"><path d="m192.7 42h-159.3c-1.1 0-2 .9-2 2s.9 2 2 2h159.2c1.1 0 2-.9 2-2s-.8-2-1.9-2z" fill="#491352"></path></g><g id="XMLID_5636_"><path d="m128 224.6c38.6 0 70-31.4 70-70s-31.4-70-70-70-70 31.4-70 70 31.4 70 70 70zm0-136c36.4 0 66 29.6 66 66s-29.6 66-66 66-66-29.6-66-66 29.6-66 66-66z" fill="#491352"></path></g><g id="XMLID_5664_"><path d="m128 209.1c30.1 0 54.5-24.4 54.5-54.5 0-38.1-38.3-64.1-72.9-51.3-21.9 8-36.1 28.5-36.1 51.3 0 30.1 24.4 54.5 54.5 54.5zm-49.9-62.1 9.9 1.7h.3c1 0 1.8-.7 2-1.7.2-1.1-.5-2.1-1.6-2.3l-9.8-1.7c1-4.4 2.7-8.7 4.8-12.6l8.5 4.9c.3.2.7.3 1 .3.7 0 1.4-.4 1.7-1 .6-1 .2-2.2-.7-2.7l-8.4-4.9c2.5-3.8 5.4-7.2 8.7-10.1l6.2 7.4c.4.5 1 .7 1.5.7s.9-.2 1.3-.5c.8-.7 1-2 .2-2.8l-6.2-7.3c3.5-2.7 7.4-4.9 11.6-6.6l3.3 9c.3.8 1.1 1.3 1.9 1.3.2 0 .5 0 .7-.1 1-.4 1.6-1.5 1.2-2.6l-3.3-9c4.2-1.3 8.6-2.1 13.1-2.3v9.6c0 1.1.9 2 2 2s2-.9 2-2v-9.6c4.6.2 9 1 13.2 2.3l-3.3 9.1c-.4 1 .2 2.2 1.2 2.6.2.1.5.1.7.1.8 0 1.6-.5 1.9-1.3l3.3-9.1c4.2 1.7 8.1 3.9 11.6 6.6l-6.3 7.5c-.7.8-.6 2.1.2 2.8.4.3.8.5 1.3.5.6 0 1.1-.2 1.5-.7l6.3-7.5c3.4 3 6.3 6.4 8.8 10.2l-8.7 5c-1 .6-1.3 1.8-.7 2.7.4.6 1 1 1.7 1 .3 0 .7-.1 1-.3l8.7-5.1c2.1 3.9 3.7 8.2 4.8 12.7l-10.2 1.8c-1.1.2-1.8 1.2-1.6 2.3.2 1 1 1.7 2 1.7h.4l10.2-1.8c4.5 30.6-19.4 57.8-50 57.8-30.7.1-54.6-27.3-49.9-58z" fill="#491352"></path></g><g id="XMLID_5667_"><path d="m122.6 166.9c1.7.8 3.5 1.1 5.4 1.1h.7c6.8-.3 12.3-5.9 12.7-12.7.1-1.6-.1-3.2-.6-4.8l13.3-13.3c1.2-1.2 1.8-2.7 1.8-4.4s-.6-3.2-1.8-4.4c-2.4-2.4-6.4-2.4-8.8 0l-13.3 13.3h-.1c-1.6-.5-3.3-.6-5-.5-6.5.6-11.7 6-12.1 12.5-.1 2 .2 4 1 5.9 1.2 3.3 3.6 5.8 6.8 7.3zm-3.9-12.8c.3-4.6 3.9-8.3 8.5-8.8h.9c.9 0 1.8.1 2.6.4 1.5.4 3 0 4.1-1l13.3-13.3c.9-.9 2.3-.9 3.2 0 .4.4.6 1 .6 1.6s-.2 1.2-.6 1.6l-13.7 13.4c-.9.9-1.2 2.2-.7 3.4.4 1.2.6 2.4.5 3.7-.2 4.7-4.1 8.6-8.9 8.9-1.5.1-2.9-.2-4.3-.8-2.2-1-4-2.8-4.9-5-.5-1.3-.7-2.7-.6-4.1z" fill="#491352"></path></g></g></g></svg>