<svg xmlns="http://www.w3.org/2000/svg" viewBox="0.01 0 249.71 64.01"><path fill="#666" fill-rule="evenodd" d="M246.257 41.1v-9.061c0-1.25-.252-2.183-.755-2.798-.503-.615-1.301-.923-2.395-.923-1.455 0-2.519.43-3.193 1.289-.674.86-1.011 2.3-1.011 4.322V41.1h-3.442V25.799h2.695l.484 2.124h.175c.489-.771 1.182-1.367 2.081-1.787.898-.42 1.894-.63 2.988-.63 3.886 0 5.83 1.977 5.83 5.932V41.1h-3.457Zm-19.43-20.516h3.501V41.1h-3.501V20.584Zm-6.711 21.841c-.703 0-1.24-.2-1.611-.601-.371-.4-.557-.952-.557-1.655 0-.713.186-1.26.557-1.641.371-.381.908-.571 1.611-.571.713 0 1.255.198 1.626.593.371.396.557.936.557 1.619 0 .693-.188 1.243-.564 1.648-.376.405-.916.608-1.619.608Zm-7.854 14.839c-.47.575-1.123.863-1.961.863-.796 0-1.444-.326-1.946-.978-.501-.651-.752-1.502-.752-2.551v-.089c0-1.054.25-1.901.749-2.542.499-.642 1.153-.962 1.961-.962.804 0 1.441.275 1.911.825v-3.58h1.174v8.85h-1.079l-.057.164Zm-.038-4.291c-.351-.648-.891-.972-1.619-.972-.575 0-1.024.223-1.345.667-.322.444-.483 1.102-.483 1.974 0 .779.161 1.388.483 1.828.321.44.766.66 1.333.66.745 0 1.288-.334 1.631-1.003v-3.154Zm-8.26-11.873-5.2-6.204-1.89 1.552V41.1h-3.413V19.207h3.413v11.118l-.176 3.12h.088l1.948-2.431 4.893-5.215h3.97l-6.519 6.958 6.929 8.343h-4.043Zm-12.627 12.368c0-.491-.112-.858-.336-1.102-.224-.243-.601-.365-1.13-.365-.436 0-.798.131-1.085.391-.288.26-.455.61-.502 1.05V57.1h-1.18v-3.6c0-.999-.489-1.499-1.467-1.499-.77 0-1.297.328-1.58.984V57.1h-1.175v-5.968h1.111l.032.762c.503-.593 1.183-.889 2.038-.889.96 0 1.614.368 1.961 1.104.228-.33.526-.596.892-.799.366-.204.798-.305 1.298-.305 1.506 0 2.272.798 2.298 2.393V57.1h-1.175v-3.632Zm-6.08-21.429c0-1.25-.252-2.183-.755-2.798-.503-.615-1.301-.923-2.395-.923-1.455 0-2.519.43-3.193 1.289-.674.86-1.011 2.3-1.011 4.322V41.1h-3.442V25.799h2.695l.484 2.124h.175c.489-.771 1.182-1.367 2.081-1.787.898-.42 1.894-.63 2.988-.63 3.886 0 5.83 1.977 5.83 5.932V41.1h-3.457v-9.061ZM178.678 57.1h-5.605v-8.342h1.225v8.245h4.38v.097Zm-10.474-33.704c-.625 0-1.106-.168-1.443-.505-.337-.337-.505-.798-.505-1.384 0-.615.168-1.089.505-1.421.337-.332.818-.498 1.443-.498.605 0 1.077.166 1.414.498.337.332.505.806.505 1.421 0 .586-.168 1.047-.505 1.384-.337.337-.809.505-1.414.505Zm-1.743 2.403h3.442V41.1h-3.442V25.799Zm1.956 28.615v.488h-4.652c.017.677.214 1.224.593 1.641.379.417.86.625 1.444.625.415 0 .766-.084 1.054-.253.288-.17.54-.394.755-.673l.718.558c-.576.885-1.439 1.327-2.59 1.327-.931 0-1.689-.306-2.273-.917-.584-.612-.876-1.429-.876-2.454v-.215c0-.682.13-1.29.391-1.825.26-.536.624-.955 1.092-1.257a2.74 2.74 0 0 1 1.52-.454c.893 0 1.587.294 2.082.882.495.588.742 1.431.742 2.527Zm-1.174-.565c-.034-.597-.195-1.059-.482-1.387-.288-.328-.677-.492-1.168-.492-.474 0-.872.172-1.194.517-.321.345-.52.828-.596 1.45h3.44v-.088Zm-8.782-34.642h3.442V41.1h-3.442V19.207Zm.847 30.262h1.174v1.663h1.282v.908h-1.282v4.264c0 .276.057.482.171.62.115.138.309.206.584.206.136 0 .322-.025.559-.076v.947a3.426 3.426 0 0 1-.901.126c-.525 0-.921-.159-1.187-.476-.267-.318-.4-.768-.4-1.352V52.04h-1.251v-.908h1.251v-1.663Zm-3.344 7.807c-.546.567-1.198.851-1.955.851-.677 0-1.233-.191-1.666-.575a1.855 1.855 0 0 1-.651-1.456c0-.715.272-1.271.816-1.667.543-.395 1.308-.593 2.294-.593h1.143v-.54c0-.41-.123-.737-.368-.98-.246-.244-.608-.365-1.086-.365-.419 0-.77.106-1.053.317-.284.212-.426.468-.426.768h-1.18c0-.343.121-.674.365-.993.243-.32.573-.573.99-.759a3.335 3.335 0 0 1 1.374-.279c.791 0 1.411.198 1.86.593.448.396.681.941.698 1.635v3.161c0 .631.08 1.132.241 1.504V57.1h-1.231c-.068.765-.123.523-.165.176Zm-.019-2.609h-.921c-1.438 0-2.158.422-2.158 1.264 0 .368.123.656.368.863.246.207.561.311.946.311.368 0 .717-.095 1.048-.286.33-.19.569-.438.717-.742v-1.41Zm-8.266-12.374c-2.051 0-3.643-.737-4.776-2.212h-.234l-.63 1.019h-2.578V19.207h3.442v5.42c0 .4-.019.996-.058 1.787a51.55 51.55 0 0 1-.088 1.509h.146c1.094-1.611 2.705-2.417 4.834-2.417 2.022 0 3.596.732 4.724 2.197 1.128 1.465 1.692 3.521 1.692 6.167 0 2.657-.571 4.724-1.714 6.204-1.142 1.479-2.729 2.219-4.76 2.219Zm-.835-13.975c-1.387 0-2.386.408-2.996 1.224-.61.815-.925 2.18-.945 4.094v.234c0 1.973.313 3.401.938 4.285.625.884 1.645 1.325 3.061 1.325 1.221 0 2.146-.483 2.776-1.45.63-.967.945-2.363.945-4.189 0-3.682-1.26-5.523-3.779-5.523Zm-6.794 23.607c.385-.613.931-.92 1.638-.92.229 0 .402.03.52.089v1.092a3.465 3.465 0 0 0-.577-.045c-.77 0-1.293.328-1.568.984V57.1h-1.174v-5.968h1.142l.019.793Zm-5.581 2.457h-2.177V57.1h-1.219v-8.342h3.408c1.012 0 1.804.258 2.378.774.573.517.86 1.2.86 2.051 0 .897-.281 1.588-.841 2.072-.561.485-1.364.727-2.409.727Zm1.51-4.113c-.347-.33-.823-.502-1.428-.515h-2.259v3.631h2.189c.652 0 1.151-.153 1.498-.461.347-.307.521-.751.521-1.332 0-.551-.174-.992-.521-1.323Zm-9.666-11.968c.801.845 1.929 1.267 3.384 1.267.957 0 1.848-.09 2.674-.271.825-.18 1.711-.481 2.658-.901v2.798c-.84.401-1.689.684-2.549.85-.859.166-1.84.249-2.944.249-2.519 0-4.49-.735-5.911-2.205-1.42-1.469-2.131-3.493-2.131-6.071 0-2.647.659-4.727 1.978-6.241 1.318-1.513 3.129-2.27 5.434-2.27 2.139 0 3.828.649 5.069 1.948 1.24 1.299 1.86 3.086 1.86 5.361v1.861h-10.796c.049 1.572.474 2.781 1.274 3.625Zm6.138-6.115c-.02-1.338-.342-2.352-.967-3.04-.625-.688-2.384-1.033-2.578-1.033-1.094 0-1.97.347-2.629 1.04-.659.694-1.053 1.705-1.179 3.033h7.353ZM110.779 41.1l-3.633-11.873a49.49 49.49 0 0 1-.585-2.41c-.235-1.05-.377-1.78-.425-2.19a42.526 42.526 0 0 1-.476 2.432c-.22.996-.403 1.738-.55 2.226L101.565 41.1h-3.808l-2.769-9.823-2.812-10.693h3.574l3.062 12.48c.478 2.002.82 3.77 1.025 5.303.107-.83.268-1.758.483-2.783.215-1.025.41-1.855.586-2.49l3.487-12.51h3.471l3.574 12.568c.342 1.163.704 2.901 1.084 5.215.147-1.396.499-3.173 1.055-5.332l3.047-12.451h3.545L114.588 41.1h-3.809Zm32.808 7.531c.228 0 .402.066.52.197a.69.69 0 0 1 .178.482.67.67 0 0 1-.178.476c-.118.127-.292.191-.52.191-.229 0-.401-.064-.517-.191a.676.676 0 0 1-.175-.476c0-.19.058-.351.175-.482.116-.131.288-.197.517-.197Zm.578 8.469h-1.175v-5.968h1.175V57.1Zm3.99-.693 1.701-5.275h1.2l-2.463 5.968h-.895l-2.489-5.968h1.2l1.746 5.275Zm32.432-7.776c.228 0 .402.066.52.197a.69.69 0 0 1 .178.482.67.67 0 0 1-.178.476c-.118.127-.292.191-.52.191-.229 0-.401-.064-.517-.191a.676.676 0 0 1-.175-.476c0-.19.058-.351.175-.482.116-.131.288-.197.517-.197Zm.578 8.469h-1.175v-5.968h1.175V57.1Zm13.422-8.469c.228 0 .402.066.52.197a.69.69 0 0 1 .178.482.67.67 0 0 1-.178.476c-.118.127-.292.191-.52.191-.229 0-.401-.064-.517-.191a.676.676 0 0 1-.175-.476c0-.19.058-.351.175-.482.116-.131.288-.197.517-.197Zm.578 8.469h-1.175v-5.968h1.175V57.1Zm2.143-7.631h1.174v1.663h1.282v.908h-1.282v4.264c0 .276.057.482.171.62.115.138.309.206.584.206.136 0 .322-.025.559-.076v.947a3.426 3.426 0 0 1-.901.126c-.525 0-.921-.159-1.187-.476-.267-.318-.4-.768-.4-1.352V52.04h-1.251v-.908h1.251v-1.663Zm4.765 1.99a2.74 2.74 0 0 1 1.52-.454c.893 0 1.587.294 2.082.882.495.588.742 1.431.742 2.527v.488h-4.652c.017.677.214 1.224.593 1.641.379.417.86.625 1.444.625.415 0 .766-.084 1.054-.253.288-.17.54-.394.755-.673l.718.558c-.576.885-1.439 1.327-2.59 1.327-.931 0-1.689-.306-2.273-.917-.584-.612-.876-1.429-.876-2.454v-.215c0-.682.13-1.29.391-1.825.26-.536.624-.955 1.092-1.257Zm3.17 2.478v-.088c-.034-.597-.195-1.059-.482-1.387-.288-.328-.677-.492-1.168-.492-.474 0-.872.172-1.194.517-.321.345-.52.828-.596 1.45h3.44ZM58.096 36.105c2.369-.988 4.8-1.581 7.4-1.409.84.056 1.006.184.584.966-2.73 5.052-5.432 10.12-8.136 15.186-2.188 4.097-4.366 8.2-6.549 12.3-.091.171-.191.337-.289.504-.229.393-.388.549-.697.005-3.992-7-7.902-14.052-12.411-20.739-2.124-3.15-4.77-5.825-7.648-8.278a2.002 2.002 0 0 0-.965-.452c-.004.596.463.89.714 1.297 2.674 4.34 5.187 8.771 7.45 13.343.252.509.278.92.044 1.449-1.721 3.893-3.41 7.801-5.109 11.704-.064.148-.12.304-.414.324l-.732-2.625c-2.548-9.128-7.133-17.245-12.315-25.064-2.551-3.849-5.327-7.522-8.494-10.887-.15-.159-.405-.31-.267-.556.131-.232.415-.126.618-.084 1.727.356 3.451.725 5.175 1.096 1.7.366 3.418.561 5.203.444-1.143-.399-2.266-.877-3.433-1.184-7.247-1.907-12.754-6.334-17.382-12.05-.192-.237-.558-.478-.398-.812.142-.298.531-.159.792-.109 9.442 1.831 18.708 4.307 27.686 7.794 3.365 1.308 6.562 2.954 9.285 5.41 2.615 2.358 4.611 5.198 6.445 8.176 2.486 4.038 4.991 8.065 7.493 12.094.267.429.571.836.928 1.355.502-.845.996-1.545 1.182-2.408.107-.134.219.499.344-.01.076-.307.202-.613.363-.885 1.169-1.97 2.353-3.931 3.533-5.895Z"></path><path fill="#666" fill-rule="evenodd" d="M36.42 29.298c-6.751-4.498-11.168-4.166-18.595-5.853-7.247-1.907-12.754-6.334-17.382-12.05-.192-.237-.558-.478-.398-.812.142-.298.531-.159.792-.109 9.442 1.831 18.708 4.307 27.686 7.794 3.365 1.308 6.562 2.954 9.285 5.41 2.615 2.358 4.611 5.198 6.445 8.176 2.486 4.038 4.991 8.065 7.493 12.094.267.429.571.836.928 1.355-1.691-2.004-10.664-12.087-16.254-16.005ZM82.165 18.984c-3.75 2.566-8.066 3.877-12.256 5.512 3.828.261 7.474-.754 11.322-1.617-2.386 2.309-4.505 4.652-7.266 6.27-3.133 1.838-6.497 3.045-10.016 3.856-1.251.288-2.488.616-3.662 1.149-.933.423-1.65 1.086-2.191 1.951-1.18 1.964-2.364 3.925-3.533 5.895a3.335 3.335 0 0 0-.363.885c-.125.509-.237-.124-.344.01l-3.377-7.778c-.161-.371-.221-.744-.018-1.118 1.624-3.899 3.076-6.096 4.899-8.982 2.376-3.759 5.793-6.235 9.836-7.917 5.016-2.086 10.265-3.416 15.484-4.84a234.366 234.366 0 0 1 11.315-2.805c-2.854 3.849-6.083 6.964-9.83 9.529Zm-35.861-.551c-5.124.007-9.199-4.126-9.17-9.301.028-5.134 4.018-9.14 9.099-9.136 5.091.005 9.141 4.142 9.145 9.344.004 4.992-4.081 9.086-9.074 9.093Z"></path></svg>