<svg version="1.1" id="Capa_1" xmlns="http://www.w3.org/2000/svg" xmlns:xlink="http://www.w3.org/1999/xlink" x="0px" y="0px" viewBox="0 0 512 512" style="enable-background:new 0 0 512 512;" xml:space="preserve">
<g>
	<g>
		<g>
			<path style="fill:#B2E5FB;" d="M29.432,399.019l0.13-284.397c0.004-8.284,6.723-14.997,15.007-14.993l424,0.195&#10;&#9;&#9;&#9;&#9;c8.284,0.004,14.997,6.723,14.993,15.007l-0.13,284.397L29.432,399.019z"/>
			<path style="fill:#90D8F9;" d="M484.032,114.828l-0.125,284.399l-28.883-0.01l0.122-279.245&#10;&#9;&#9;&#9;&#9;c0.004-11.128-9.014-20.151-20.141-20.154h0l34.596,0.01C477.572,99.828,484.042,106.548,484.032,114.828z"/>
			<path style="fill:#E6EDF4;" d="M488.642,396.041c5.523,0,9.412,2.007,9.412,7.529l0,0c0,16.569-19.949,23.153-36.518,23.153&#10;&#9;&#9;&#9;&#9;l-21.378,3.323L39.5,430.045c-16.569,0-30-13.431-30-30v0c0-5.523,4.477-10,10-10l435.062,0.001L488.642,396.041z"/>
			<path style="fill:#CEE0EA;" d="M503.5,399.927c0.032,8.337-3.334,15.883-8.79,21.329c-5.43,5.43-12.93,8.79-21.21,8.79h-42.753h0&#10;&#9;&#9;&#9;&#9;c12.594,0,22.804-10.207,22.809-22.8l0.006-17.2H493.5C498.974,390.047,503.478,394.453,503.5,399.927z"/>
		</g>
		<path style="fill:#6499F9;" d="M22.612,318.943c-8.346,0-15.112-6.766-15.112-15.112V48.151c0-8.346,6.766-15.112,15.112-15.112&#10;&#9;&#9;&#9;H308.28l36.09,6.411c8.345,0,15.109,6.765,15.109,15.109l1.838,249.271c0,8.346-6.766,15.112-15.112,15.112H22.612z"/>
		<path style="fill:#4A81F6;" d="M367.16,48.151v255.68c0,8.35-6.77,15.11-15.11,15.11h-50c8.34,0,15.11-6.76,15.11-15.11V48.151&#10;&#9;&#9;&#9;c0-8.35-6.77-15.11-15.11-15.11h50C360.39,33.041,367.16,39.801,367.16,48.151z"/>
		<path style="fill:#F5F8F9;" d="M334.605,67.924v217.035c0,1.657-1.343,3-3,3l-14.445,1.984H39.5c-1.657,0-3-1.343-3-3V65.039&#10;&#9;&#9;&#9;c0-1.657,1.343-3,3-3h277.66l14.445,2.886C333.262,64.924,334.605,66.267,334.605,67.924z"/>
		<path style="fill:#E6EDF4;" d="M338.16,65.041v221.9c0,1.66-1.35,3-3,3h-18v-227.9h18C336.81,62.041,338.16,63.381,338.16,65.041z&#10;&#9;&#9;&#9;"/>
		<g>
			<path style="fill:#66C6A6;" d="M251.48,173.991c0,37.027-27.209,61.651-64.235,61.651c-24.194,0-40.512-11.58-57.095-26.641&#10;&#9;&#9;&#9;&#9;c-6.253-10.191-9.864-22.178-9.864-35.01c0-37.027,30.016-67.043,67.043-67.043c12.828,0,24.813,3.604,35.002,9.853&#10;&#9;&#9;&#9;&#9;C238.706,130.924,251.48,149.792,251.48,173.991z"/>
			<path style="fill:#50B29F;" d="M254.37,173.991c0,37.03-30.01,67.04-67.04,67.04c-24.2,0-45.39-12.81-57.18-32.03&#10;&#9;&#9;&#9;&#9;c10.19,6.26,22.19,9.87,35.02,9.87c37.02,0,67.04-30.02,67.04-67.04c0-12.84-3.61-24.84-9.88-35.03&#10;&#9;&#9;&#9;&#9;C241.55,128.591,254.37,149.791,254.37,173.991z"/>
		</g>
		<path style="fill:#F5F8F9;" d="M284.429,232.217c0-11.121,9.016-20.137,20.139-20.137h125.128&#10;&#9;&#9;&#9;c11.122,0,20.139,9.016,20.139,20.137v226.609c0,11.121-9.016,20.137-20.139,20.137H304.568c-11.122,0-20.139-9.016-20.139-20.137&#10;&#9;&#9;&#9;V232.217z"/>
		<path style="fill:#E6EDF4;" d="M449.83,232.221v226.6c0,11.13-9.01,20.14-20.13,20.14h-30.66c11.13,0,20.14-9.01,20.14-20.14&#10;&#9;&#9;&#9;v-226.6c0-11.13-9.01-20.14-20.14-20.14h30.66C440.82,212.081,449.83,221.091,449.83,232.221z"/>
		<g>
			<path style="fill:#66C6A6;" d="M417.131,345.522c0,28.858-21.206,48.05-50.064,48.05c-18.857,0-31.574-9.025-44.499-20.763&#10;&#9;&#9;&#9;&#9;c-4.874-7.942-7.688-17.285-7.688-27.286c0-28.858,23.394-52.252,52.252-52.252c9.998,0,19.339,2.809,27.28,7.679&#10;&#9;&#9;&#9;&#9;C407.175,311.956,417.131,326.662,417.131,345.522z"/>
			<path style="fill:#50B29F;" d="M419.384,345.522c0,28.861-23.389,52.25-52.25,52.25c-18.861,0-35.376-9.984-44.565-24.964&#10;&#9;&#9;&#9;&#9;c7.942,4.879,17.295,7.693,27.294,7.693c28.853,0,52.25-23.397,52.25-52.25c0-10.007-2.814-19.36-7.7-27.302&#10;&#9;&#9;&#9;&#9;C409.392,310.138,419.384,326.661,419.384,345.522z"/>
		</g>
	</g>
	<g>
		<path style="fill:none;stroke:#000000;stroke-width:15;stroke-linecap:round;stroke-linejoin:round;stroke-miterlimit:10;" d="&#10;&#9;&#9;&#9;M436.88,100.131l32.69,0.02c8.28,0,15,6.72,14.99,15l-0.13,274"/>
		
			<line style="fill:none;stroke:#000000;stroke-width:15;stroke-linecap:round;stroke-linejoin:round;stroke-miterlimit:10;" x1="401.88" y1="100.121" x2="368.66" y2="100.101"/>
		
			<line style="fill:none;stroke:#000000;stroke-width:15;stroke-linecap:round;stroke-linejoin:round;stroke-miterlimit:10;" x1="27.432" y1="388.942" x2="27.464" y2="320.788"/>
		<path style="fill:none;stroke:#000000;stroke-width:15;stroke-linecap:round;stroke-linejoin:round;stroke-miterlimit:10;" d="&#10;&#9;&#9;&#9;M64.79,430.051H37.5c-16.57,0-30-13.44-30-30c0-2.77,1.12-5.27,2.93-7.07c1.81-1.81,4.31-2.93,7.07-2.93h265.03"/>
		
			<line style="fill:none;stroke:#000000;stroke-width:15;stroke-linecap:round;stroke-linejoin:round;stroke-miterlimit:10;" x1="282.53" y1="430.051" x2="99.79" y2="430.051"/>
		<path style="fill:none;stroke:#000000;stroke-width:15;stroke-linecap:round;stroke-linejoin:round;stroke-miterlimit:10;" d="&#10;&#9;&#9;&#9;M452.064,390.047H494.5c5.523,0,10,4.477,10,10v0c0,16.569-13.431,30-30,30h-22.181"/>
		<path style="fill:none;stroke:#000000;stroke-width:15;stroke-linecap:round;stroke-linejoin:round;stroke-miterlimit:10;" d="&#10;&#9;&#9;&#9;M282.532,318.943H22.612c-8.346,0-15.112-6.766-15.112-15.112V48.151c0-8.346,6.766-15.112,15.112-15.112h329.436&#10;&#9;&#9;&#9;c8.345,0,15.109,6.765,15.109,15.109v162.22"/>
		
			<polyline style="fill:none;stroke:#000000;stroke-width:15;stroke-linecap:round;stroke-linejoin:round;stroke-miterlimit:10;" points="&#10;&#9;&#9;&#9;111.88,62.041 338.16,62.041 338.16,210.371 &#9;&#9;"/>
		
			<polyline style="fill:none;stroke:#000000;stroke-width:15;stroke-linecap:round;stroke-linejoin:round;stroke-miterlimit:10;" points="&#10;&#9;&#9;&#9;76.88,62.041 36.5,62.041 36.5,289.941 282.53,289.941 &#9;&#9;"/>
		
			<circle style="fill:none;stroke:#000000;stroke-width:15;stroke-linecap:round;stroke-linejoin:round;stroke-miterlimit:10;" cx="187.328" cy="173.991" r="67.043"/>
		
			<polyline style="fill:none;stroke:#000000;stroke-width:15;stroke-linecap:round;stroke-linejoin:round;stroke-miterlimit:10;" points="&#10;&#9;&#9;&#9;161.591,173.867 182.654,197.585 217.066,153.421 &#9;&#9;"/>
		<path style="fill:none;stroke:#000000;stroke-width:15;stroke-linecap:round;stroke-linejoin:round;stroke-miterlimit:10;" d="&#10;&#9;&#9;&#9;M284.43,375.711v83.11c0,11.13,9.02,20.14,20.14,20.14H429.7c11.12,0,20.13-9.01,20.13-20.14v-226.6&#10;&#9;&#9;&#9;c0-11.13-9.01-20.14-20.13-20.14H304.57c-11.12,0-20.14,9.01-20.14,20.14v108.49"/>
		
			<line style="fill:none;stroke:#000000;stroke-width:15;stroke-linecap:round;stroke-linejoin:round;stroke-miterlimit:10;" x1="353.706" y1="238.189" x2="380.558" y2="238.189"/>
		
			<circle style="fill:none;stroke:#000000;stroke-width:15;stroke-linecap:round;stroke-linejoin:round;stroke-miterlimit:10;" cx="367.132" cy="345.521" r="52.251"/>
		
			<polyline style="fill:none;stroke:#000000;stroke-width:15;stroke-linecap:round;stroke-linejoin:round;stroke-miterlimit:10;" points="&#10;&#9;&#9;&#9;348.637,345.517 363.865,362.664 388.745,330.735 &#9;&#9;"/>
	</g>
</g>
<g>
</g>
<g>
</g>
<g>
</g>
<g>
</g>
<g>
</g>
<g>
</g>
<g>
</g>
<g>
</g>
<g>
</g>
<g>
</g>
<g>
</g>
<g>
</g>
<g>
</g>
<g>
</g>
<g>
</g>
</svg>