<svg id="Layer_1" xmlns="http://www.w3.org/2000/svg" data-name="Layer 1" viewBox="0.03 0 127.95 128"><path d="m102 56v64a3.99891 3.99891 0 0 1 -4 4h-68a3.99891 3.99891 0 0 1 -4-4v-64z" fill="#c5edf1"></path><path d="m32 119.5h24a2 2 0 0 0 0-4h-24a2 2 0 0 0 0 4z" fill="#829d9e" opacity=".3"></path><path d="m72 119.5h10.26862l.0683-.41992-.81934-.836a5.18119 5.18119 0 0 1 -1.44049-2.74408h-8.07709a2 2 0 0 0 0 4z" fill="#829d9e" opacity=".3"></path><path d="m98 120h-4.17816l-.43317-2.418 2.2392-2.09271c.63483-.59479.43854-1.17578-.44038-1.29687l-3.09179-.4317-1.38379-2.6875c-.39264-.76459-1.03033-.76459-1.42194 0l-1.38281 2.6875-3.09369.4317c-.87891.12109-1.07617.70209-.44049 1.29688l2.23932 2.0927-.4323 2.418h-56.18a3.99891 3.99891 0 0 1 -4-4v4a3.99891 3.99891 0 0 0 4 4h68a3.99891 3.99891 0 0 0 4-4v-4a3.99891 3.99891 0 0 1 -4 4zm-8-.05573.11053.05573h-.22107z" fill="#829d9e" opacity=".3"></path><path d="m56 99.5h-24a2 2 0 0 0 0 4h24a2 2 0 0 0 0-4z" fill="#829d9e" opacity=".3"></path><path d="m56 107.5h-24a2 2 0 0 0 0 4h24a2 2 0 0 0 0-4z" fill="#829d9e" opacity=".3"></path><path d="m96 99.5h-24a2 2 0 0 0 0 4h24a2 2 0 0 0 0-4z" fill="#829d9e" opacity=".3"></path><path d="m96 107.5h-2.63571a5.51385 5.51385 0 0 1 .9668 1.4229l.4726 1.0009.9854.1504a5.33848 5.33848 0 0 1 1.8105.6153 1.99171 1.99171 0 0 0 -1.59959-3.1895z" fill="#829d9e" opacity=".3"></path><path d="m70 109.5a2.00008 2.00008 0 0 0 2 2h9.32619a5.08858 5.08858 0 0 1 2.8896-1.4268l.9824-.1494.4737-1.0039a5.50254 5.50254 0 0 1 .9638-1.4199h-14.63569a2.00008 2.00008 0 0 0 -2 2z" fill="#829d9e" opacity=".3"></path><path d="m119.51 18.2.83 5.08-4.34-2.39-4.34 2.39.83-5.08-3.62-3.7 5-.75 2.13-4.54 2.14 4.54 4.99.75z" fill="#ffdb80"></path><path d="m72.9 25.72-4.13 1.08-1.56 3.94-2.07-3.52-4.07-.14 2.73-3.22-1.01-4.15 3.88 1.58 3.41-2.29-.4 4.08z" fill="#ffdb80"></path><path d="m34 65h60v22h-60z" fill="#ffdb80"></path><path d="m98 40h-68a8.02349 8.02349 0 0 0 -8 8v5.69a1.61509 1.61509 0 0 0 0 .62v65.69a8.02353 8.02353 0 0 0 8 8h68a8.02353 8.02353 0 0 0 8-8v-72a8.02349 8.02349 0 0 0 -8-8zm4 80a3.99891 3.99891 0 0 1 -4 4h-68a3.99891 3.99891 0 0 1 -4-4v-64h76zm0-68h-76v-4a3.99887 3.99887 0 0 1 4-4h68a3.99887 3.99887 0 0 1 4 4z" fill="#2d4356"></path><path d="m102 48v4h-76v-4a3.99887 3.99887 0 0 1 4-4h68a3.99887 3.99887 0 0 1 4 4z" fill="#fc785e"></path><g fill="#2d4356"><path d="m64 95a2.00008 2.00008 0 0 0 -2 2v21a2 2 0 0 0 4 0v-21a2.00009 2.00009 0 0 0 -2-2z"></path><path d="m56 97.5h-24a2 2 0 0 0 0 4h24a2 2 0 0 0 0-4z"></path><path d="m56 105.5h-24a2 2 0 0 0 0 4h24a2 2 0 0 0 0-4z"></path><path d="m56 113.5h-24a2 2 0 0 0 0 4h24a2 2 0 0 0 0-4z"></path><path d="m96 97.5h-24a2 2 0 0 0 0 4h24a2 2 0 0 0 0-4z"></path><path d="m96 105.5h-2.63571a5.51385 5.51385 0 0 1 .9668 1.4229l.4726 1.0009.9854.1504a5.33848 5.33848 0 0 1 1.8105.6153 1.99171 1.99171 0 0 0 -1.59959-3.1895z"></path><path d="m70 107.5a2.00008 2.00008 0 0 0 2 2h9.32619a5.08858 5.08858 0 0 1 2.8896-1.4268l.9824-.1494.4737-1.0039a5.50254 5.50254 0 0 1 .9638-1.4199h-14.63569a2.00008 2.00008 0 0 0 -2 2z"></path><path d="m80.07709 113.5h-8.07709a2 2 0 0 0 0 4h10.26859l.0683-.4199-.8193-.836a5.18143 5.18143 0 0 1 -1.4405-2.7441z"></path><path d="m93.38869 115.582 2.2392-2.0927c.6348-.5948.4385-1.1758-.4404-1.2969l-3.0918-.4317-1.3838-2.6875c-.3926-.7646-1.0303-.7646-1.42189 0l-1.38281 2.6875-3.0937.4317c-.8789.1211-1.0762.7021-.44049 1.2969l2.23929 2.0927-.52829 2.9551c-.15141.8379.36419 1.1973 1.15039.8018l2.76561-1.3946 2.76659 1.3946c.7861.3955 1.2998.0361 1.15141-.8018z"></path></g><path d="m21.77 19.35 1.37 8.33-7.14-3.92-7.13 3.92 1.36-8.33-5.88-6 8.12-1.23 3.53-7.49 3.53 7.49 8.12 1.23z" fill="#ffdb80"></path><path d="m26 56h76v4h-76z" fill="#829d9e" opacity=".3"></path><path d="m102 48v4a3.99887 3.99887 0 0 0 -4-4h-68a3.99887 3.99887 0 0 0 -4 4v-4a3.99887 3.99887 0 0 1 4-4h68a3.99887 3.99887 0 0 1 4 4z" fill="#f9dbd7" opacity=".3"></path><path d="m33 63h62v4h-62z" fill="#937d4a" opacity=".5"></path><path d="m33 85h62v4h-62z" fill="#937d4a" opacity=".5"></path><path d="m94 61h-60a4.01174 4.01174 0 0 0 -4 4v22a4.01174 4.01174 0 0 0 4 4h60a4.01174 4.01174 0 0 0 4-4v-22a4.01174 4.01174 0 0 0 -4-4zm0 26h-60v-22h60z" fill="#2d4356"></path><path d="m120.347 25.28-4.34-2.39-4.34 2.39-1.261-3.311 5.601-3.079 5.037 2.769z" fill="#937d4a" opacity=".5"></path><path d="m72.907 27.72-4.13 1.08-1.56 3.94-2.07-3.52-4.07-.14-1.483-3.22 1.476-.69 4.077.05 2.07 3.52 1.56-3.94 4.556-1.036z" fill="#937d4a" opacity=".5"></path><path d="m23.147 29.68-7.14-3.92-7.13 3.92-2.049-2.865 9.179-5.055 8.627 4.73z" fill="#937d4a" opacity=".5"></path><path d="m127.85 12.92a3.42073 3.42073 0 0 0 -2.9-2.19l-4.1-.62-1.85-3.93a3.14513 3.14513 0 0 0 -5.99.01l-1.85 3.92-4.11.62a3.42073 3.42073 0 0 0 -2.9 2.19 3.4833 3.4833 0 0 0 1.04 3.55l3.02 3.08-.71 4.37a3.60881 3.60881 0 0 0 .69 3.07 3.249 3.249 0 0 0 4.16.47l3.65-2.01 3.65 2.01a3.979 3.979 0 0 0 1.93.54 2.856 2.856 0 0 0 2.23-1.02 3.57438 3.57438 0 0 0 .69-3.06l-.71-4.37 3.01-3.08a3.46947 3.46947 0 0 0 1.05-3.55zm-8.34 5.28.83 5.08-4.34-2.39-4.34 2.39.83-5.08-3.62-3.7 5-.75 2.13-4.54 2.14 4.54 4.99.75z" fill="#2d4356"></path><path d="m76.63 23.6-2.76-2.26.37-3.71a3.37914 3.37914 0 0 0 -.78-2.73 3.10825 3.10825 0 0 0 -4.14-.2l-3.11 2.08-3.32-1.34a3.18876 3.18876 0 0 0 -3.82.78 3.43847 3.43847 0 0 0 -.52 3.01l.88 3.6-2.47 2.91a3.22742 3.22742 0 0 0 -.72 3.49 3.15192 3.15192 0 0 0 2.98 1.79l3.59.12006 1.81 3.08a3.04521 3.04521 0 0 0 5.72-.51l1.4-3.55 3.61-.95a3.30818 3.30818 0 0 0 2.59-2.41 3.23171 3.23171 0 0 0 -1.31-3.20006zm-7.86 3.2-1.56 3.94-2.07-3.52-4.07-.14 2.73-3.22-1.01-4.15 3.88 1.58 3.41-2.29-.4 4.08 3.22 2.64z" fill="#2d4356"></path><path d="m31.83 11.94a3.97113 3.97113 0 0 0 -3.42-2.52l-6.17-.94-2.77-5.88c-1.11-2.35-2.8-2.6-3.47-2.6s-2.36.25-3.47 2.6l-2.77 5.88-6.16.94a3.99894 3.99894 0 0 0 -3.43 2.52 4.09536 4.09536 0 0 0 1.27 4.16l4.52 4.6-1.07 6.52a4.28538 4.28538 0 0 0 .78 3.64c1.09 1.28 2.97 1.51 4.84.48l5.49-3.02 5.49 3.02a4.79978 4.79978 0 0 0 2.32.66 3.22468 3.22468 0 0 0 2.52-1.14 4.28538 4.28538 0 0 0 .78-3.64l-1.07-6.52 4.51-4.6a4.082 4.082 0 0 0 1.28-4.16zm-10.06 7.41 1.37 8.33-7.14-3.92-7.13 3.92 1.36-8.33-5.88-6 8.12-1.23 3.53-7.49 3.53 7.49 8.12 1.23z" fill="#2d4356"></path><circle cx="86.003" cy="48" fill="#2d4356" r="2"></circle><circle cx="94.003" cy="48" fill="#2d4356" r="2"></circle></svg>