<svg xmlns="http://www.w3.org/2000/svg" xmlns:xlink="http://www.w3.org/1999/xlink" version="1.1" id="Capa_1" x="0px" y="0px" style="enable-background:new 0 0 512 512;" xml:space="preserve" viewBox="0 20.8 512 470.4"> <g> 	<path style="fill:#685E68;" d="M251.993,403.843c-8.284,0-15-6.716-15-15V272.77c0-8.284,6.716-15,15-15c8.284,0,15,6.716,15,15		v116.073C266.993,397.127,260.277,403.843,251.993,403.843z"></path> 	<g> 		<path style="fill:#685E68;" d="M43.373,402.079c-8.284,0-15-6.716-15-15V235.218c0-17.507,14.244-31.751,31.752-31.751h76.478			c8.284,0,15,6.716,15,15s-6.716,15-15,15H60.125c-0.966,0-1.752,0.786-1.752,1.751v151.861			C58.373,395.363,51.657,402.079,43.373,402.079z"></path> 		<path style="fill:#685E68;" d="M468.627,402.079c-8.284,0-15-6.716-15-15V235.218c0-0.965-0.785-1.751-1.751-1.751h-76.479			c-8.284,0-15-6.716-15-15s6.716-15,15-15h76.479c17.508,0,31.751,14.244,31.751,31.751v151.861			C483.627,395.363,476.911,402.079,468.627,402.079z"></path> 	</g> 	<g> 		 			<line style="fill:none;stroke:#000000;stroke-width:15;stroke-linecap:round;stroke-linejoin:round;stroke-miterlimit:10;" x1="236.993" y1="367.249" x2="236.993" y2="293.798"></line> 		 			<line style="fill:none;stroke:#000000;stroke-width:15;stroke-linecap:round;stroke-linejoin:round;stroke-miterlimit:10;" x1="266.993" y1="367.249" x2="266.993" y2="293.798"></line> 	</g> 	<g> 		<path style="fill:none;stroke:#000000;stroke-width:15;stroke-linecap:round;stroke-linejoin:round;stroke-miterlimit:10;" d="			M28.37,344.128v-108.91c0-17.51,14.25-31.75,31.75-31.75h32.33"></path> 		<path style="fill:none;stroke:#000000;stroke-width:15;stroke-linecap:round;stroke-linejoin:round;stroke-miterlimit:10;" d="			M58.37,277.212v-41.99c0-0.97,0.79-1.75,1.75-1.75h32.33"></path> 		 			<line style="fill:none;stroke:#000000;stroke-width:15;stroke-linecap:round;stroke-linejoin:round;stroke-miterlimit:10;" x1="58.37" y1="344.132" x2="58.37" y2="311.972"></line> 		<path style="fill:none;stroke:#000000;stroke-width:15;stroke-linecap:round;stroke-linejoin:round;stroke-miterlimit:10;" d="			M419.55,233.468h32.33c0.96,0,1.75,0.78,1.75,1.75v108.91"></path> 		<path style="fill:none;stroke:#000000;stroke-width:15;stroke-linecap:round;stroke-linejoin:round;stroke-miterlimit:10;" d="			M419.55,203.468h32.33c17.5,0,31.75,14.24,31.75,31.75v108.91"></path> 	</g> 	<g> 		<path style="fill:#F5F8F9;" d="M419.551,87.545v178.528c0,15.315-12.415,27.73-27.73,27.73H120.179			c-15.315,0-27.73-12.415-27.73-27.73V120.345l228.454-54.77h26.654L419.551,87.545z"></path> 		<path style="fill:#DEDBEE;" d="M147.119,293.803h-26.94c-15.31,0-27.73-12.41-27.73-27.73V120.348l26.94-54.766v200.491			C119.389,281.393,131.809,293.803,147.119,293.803z"></path> 		<path style="fill:#8AC9FE;" d="M391.821,28.298H120.179c-15.315,0-27.73,12.415-27.73,27.73v64.317h174.328			c6.801,0,13.455-1.98,19.149-5.698l32.785-21.405c5.695-3.718,12.349-5.698,19.149-5.698h81.691V56.028			C419.551,40.713,407.136,28.298,391.821,28.298z"></path> 		<path style="fill:#60B7FF;" d="M147.119,28.298c-15.31,0-27.73,12.42-27.73,27.73v64.32h-26.94v-64.32			c0-15.31,12.42-27.73,27.73-27.73H147.119z"></path> 		<path style="fill:none;stroke:#000000;stroke-width:15;stroke-linecap:round;stroke-linejoin:round;stroke-miterlimit:10;" d="			M391.821,28.298H120.179c-15.315,0-27.73,12.415-27.73,27.73v64.317h174.328c6.801,0,13.455-1.98,19.149-5.698l32.785-21.405			c5.695-3.718,12.349-5.698,19.149-5.698h81.691V56.028C419.551,40.713,407.136,28.298,391.821,28.298z"></path> 		 			<line style="fill:none;stroke:#000000;stroke-width:15;stroke-linecap:round;stroke-linejoin:round;stroke-miterlimit:10;" x1="419.55" y1="123.462" x2="419.55" y2="65.572"></line> 		<path style="fill:none;stroke:#000000;stroke-width:15;stroke-linecap:round;stroke-linejoin:round;stroke-miterlimit:10;" d="			M419.55,158.462v107.61c0,15.32-12.41,27.73-27.73,27.73H120.18c-15.32,0-27.73-12.41-27.73-27.73v-200.5"></path> 		<circle style="fill:#FEF056;" cx="140.929" cy="76.111" r="19.288"></circle> 		<circle style="fill:#FEF056;" cx="202.503" cy="76.111" r="19.288"></circle> 		 			<circle style="fill:none;stroke:#000000;stroke-width:15;stroke-linecap:round;stroke-linejoin:round;stroke-miterlimit:10;" cx="140.929" cy="76.111" r="19.288"></circle> 		 			<circle style="fill:none;stroke:#000000;stroke-width:15;stroke-linecap:round;stroke-linejoin:round;stroke-miterlimit:10;" cx="202.503" cy="76.111" r="19.288"></circle> 	</g> 	<g> 		 			<polyline style="fill:none;stroke:#000000;stroke-width:15;stroke-linecap:round;stroke-linejoin:round;stroke-miterlimit:10;" points="			216.83,169.495 191.106,195.219 216.83,220.943 		"></polyline> 		 			<polyline style="fill:none;stroke:#000000;stroke-width:15;stroke-linecap:round;stroke-linejoin:round;stroke-miterlimit:10;" points="			277.156,169.495 302.88,195.219 277.156,220.943 		"></polyline> 		 			<line style="fill:none;stroke:#000000;stroke-width:15;stroke-linecap:round;stroke-linejoin:round;stroke-miterlimit:10;" x1="255.766" y1="151.379" x2="239.331" y2="239.059"></line> 	</g> 	<g> 		<path style="fill:#FE76A8;" d="M120.324,460.583H25.081c-9.709,0-17.581-7.871-17.581-17.581V361.71			c0-9.71,7.871-17.581,17.581-17.581h95.243c9.709,0,17.581,7.871,17.581,17.581v81.292			C137.904,452.712,130.033,460.583,120.324,460.583z"></path> 		<path style="fill:#FE5694;" d="M46.06,460.583H25.08c-9.71,0-17.58-7.87-17.58-17.58V361.71c0-9.71,7.87-17.58,17.58-17.58h20.98			c-9.71,0-17.58,7.87-17.58,17.58v81.293C28.48,452.713,36.35,460.583,46.06,460.583z"></path> 		<path style="fill:none;stroke:#000000;stroke-width:15;stroke-linecap:round;stroke-linejoin:round;stroke-miterlimit:10;" d="			M120.324,460.583H25.081c-9.709,0-17.581-7.871-17.581-17.581V361.71c0-9.71,7.871-17.581,17.581-17.581h95.243			c9.709,0,17.581,7.871,17.581,17.581v81.292C137.904,452.712,130.033,460.583,120.324,460.583z"></path> 		 			<polyline style="fill:none;stroke:#000000;stroke-width:15;stroke-linecap:round;stroke-linejoin:round;stroke-miterlimit:10;" points="			42.978,376.632 68.702,402.357 42.978,428.081 		"></polyline> 		 			<line style="fill:none;stroke:#000000;stroke-width:15;stroke-linecap:round;stroke-linejoin:round;stroke-miterlimit:10;" x1="90.404" y1="402.357" x2="112.105" y2="402.357"></line> 	</g> 	<g> 		<path style="fill:#8AC9FE;" d="M486.919,460.583h-95.243c-9.709,0-17.581-7.871-17.581-17.581V361.71			c0-9.71,7.871-17.581,17.581-17.581h95.243c9.709,0,17.581,7.871,17.581,17.581v81.292			C504.5,452.712,496.629,460.583,486.919,460.583z"></path> 		<path style="fill:#60B7FF;" d="M412.656,460.583h-20.98c-9.71,0-17.58-7.87-17.58-17.58V361.71c0-9.71,7.87-17.58,17.58-17.58			h20.98c-9.71,0-17.58,7.87-17.58,17.58v81.293C395.076,452.713,402.946,460.583,412.656,460.583z"></path> 		<path style="fill:none;stroke:#000000;stroke-width:15;stroke-linecap:round;stroke-linejoin:round;stroke-miterlimit:10;" d="			M486.919,460.583h-95.243c-9.709,0-17.581-7.871-17.581-17.581V361.71c0-9.71,7.871-17.581,17.581-17.581h95.243			c9.709,0,17.581,7.871,17.581,17.581v81.292C504.5,452.712,496.629,460.583,486.919,460.583z"></path> 		 			<polyline style="fill:none;stroke:#000000;stroke-width:15;stroke-linecap:round;stroke-linejoin:round;stroke-miterlimit:10;" points="			409.574,376.632 435.298,402.357 409.574,428.081 		"></polyline> 		 			<line style="fill:none;stroke:#000000;stroke-width:15;stroke-linecap:round;stroke-linejoin:round;stroke-miterlimit:10;" x1="456.999" y1="402.357" x2="478.701" y2="402.357"></line> 	</g> 	<g> 		<path style="fill:#FEF056;" d="M299.615,483.705h-95.243c-9.709,0-17.581-7.871-17.581-17.581v-81.292			c0-9.709,7.871-17.581,17.581-17.581h95.243c9.709,0,17.581,7.871,17.581,17.581v81.292			C317.195,475.834,309.324,483.705,299.615,483.705z"></path> 		<path style="fill:#FFE177;" d="M225.351,483.705h-20.98c-9.71,0-17.58-7.87-17.58-17.58v-81.293c0-9.71,7.87-17.58,17.58-17.58			h20.98c-9.71,0-17.58,7.87-17.58,17.58v81.293C207.771,475.836,215.641,483.705,225.351,483.705z"></path> 		<path style="fill:none;stroke:#000000;stroke-width:15;stroke-linecap:round;stroke-linejoin:round;stroke-miterlimit:10;" d="			M294.66,483.702h4.95c9.71,0,17.59-7.87,17.59-17.58v-81.29c0-9.71-7.88-17.58-17.59-17.58h-95.24c-9.71,0-17.58,7.87-17.58,17.58			v81.29c0,9.71,7.87,17.58,17.58,17.58h55.29"></path> 		 			<polyline style="fill:none;stroke:#000000;stroke-width:15;stroke-linecap:round;stroke-linejoin:round;stroke-miterlimit:10;" points="			222.269,399.755 247.993,425.479 222.269,451.203 		"></polyline> 		 			<line style="fill:none;stroke:#000000;stroke-width:15;stroke-linecap:round;stroke-linejoin:round;stroke-miterlimit:10;" x1="269.695" y1="425.479" x2="291.396" y2="425.479"></line> 	</g> </g>                </svg>