<svg height="512" viewBox="0 0 60 60" width="512" xmlns="http://www.w3.org/2000/svg"><g id="Page-1" fill="none" fill-rule="evenodd"><g id="010---Instant-Messaging" fill-rule="nonzero"><g id="Icons" transform="translate(1 1)"><path id="Shape" d="m46 50v5c0 1.6568542-1.3431458 3-3 3h-28c-1.6568542 0-3-1.3431458-3-3v-5c0 1.6568542 1.3431458 3 3 3h28c1.6568542 0 3-1.3431458 3-3z" fill="#3f51b5"/><path id="Shape" d="m43 53v2c0 1.6568542-1.3431458 3-3 3h3c1.6568542 0 3-1.3431458 3-3v-5c0 1.6568542-1.3431458 3-3 3z" fill="#283593"/><rect id="Rectangle-path" fill="#02a9f4" height="53" rx="3" width="34" x="12"/><path id="Shape" d="m43 0h-3c1.6568542 0 3 1.34314575 3 3v47c0 1.6568542-1.3431458 3-3 3h3c1.6568542 0 3-1.3431458 3-3v-47c0-1.65685425-1.3431458-3-3-3z" fill="#0377bc"/><path id="Shape" d="m39 0-2.861 3.052c-.5672653.60498515-1.3596648.94815313-2.189.948h-9.9c-.8293352.00015313-1.6217347-.34301485-2.189-.948l-2.861-3.052z" fill="#3f51b5"/><path id="Shape" d="m30 25v18c-.0032948 1.1032019-.8967981 1.9967052-2 2h-4v3c.0007291.3638839-.1962627.6994429-.5143551.8761609s-.707072.1666987-1.0156449-.0261609l-6.15-3.85h-14.32c-1.10320187-.0032948-1.9967052-.8967981-2-2v-18c.0032948-1.1032019.89679813-1.9967052 2-2h26c1.1032019.0032948 1.9967052.8967981 2 2z" fill="#e91e63"/><path id="Shape" d="m28 23h-3c1.1032019.0032948 1.9967052.8967981 2 2v18c-.0032948 1.1032019-.8967981 1.9967052-2 2h3c1.1032019-.0032948 1.9967052-.8967981 2-2v-18c-.0032948-1.1032019-.8967981-1.9967052-2-2z" fill="#ad1457"/><path id="Shape" d="m58 10v18c-.0032948 1.1032019-.8967981 1.9967052-2 2h-14.32l-6.15 3.85c-.3085729.1928596-.6975525.2028789-1.0156449.0261609s-.5150842-.512277-.5143551-.8761609v-3h-4v-5c-.0032948-1.1032019-.8967981-1.9967052-2-2v-13c.0032948-1.10320187.8967981-1.9967052 2-2h26c1.1032019.0032948 1.9967052.89679813 2 2z" fill="#ffdc00"/><path id="Shape" d="m56 8h-3c1.1032019.0032948 1.9967052.89679813 2 2v18c-.0032948 1.1032019-.8967981 1.9967052-2 2h3c1.1032019-.0032948 1.9967052-.8967981 2-2v-18c-.0032948-1.10320187-.8967981-1.9967052-2-2z" fill="#fec108"/><g fill="#f5f5f5"><path id="Shape" d="m49.838 24.329 3.123-7.684c.1986355-.453779.0601686-.9845678-.3348234-1.2834871s-.9434352-.2879655-1.3261766.0264871l-2.49 2.128c-.3348532.2895993-.8162401.3357322-1.2.115l-7.889-4.494c-.2659128-.1505717-.5841209-.1782007-.8720061-.0757136-.2878851.1024871-.5170495.3249807-.6279939.6097136l-3.133 7.729c-.2012275.4563661-.0604607.9912329.3393501 1.2894171s.9526111.2805891 1.3326499-.0424171l3.4-2.99c.3746111-.3324574.9327586-.3513563 1.329-.045l6.727 5.174c.2630777.202279.6062359.2684268.9256531.1784307s.577567-.325563.6963469-.6354307z"/><path id="Shape" d="m20.79 39.329 3.123-7.684c.1994892-.4541047.0610841-.9857707-.3345059-1.2849624-.3955899-.2991917-.9448538-.287622-1.3274941.0279624l-2.49 2.128c-.3348532.2895993-.8162401.3357322-1.2.115l-7.889-4.494c-.2659128-.1505717-.5841209-.1782007-.87200605-.0757136-.28788514.1024871-.51704956.3249807-.62799395.6097136l-3.133 7.729c-.19981225.4564541-.0584409.9904098.34106352 1.2881874.39950442.2977777.95159412.2807054 1.33193648-.0411874l3.4-2.99c.3749351-.3326124.9334404-.3515092 1.33-.045l6.727 5.174c.2630403.2018626.6059136.2677622.9250436.1777915.3191301-.0899706.5770907-.3252601.6959564-.6347915z"/></g></g><g id="Icons_copy" fill="#000"><path id="Shape" d="m57 8h-9v-4c0-2.209139-1.790861-4-4-4h-28c-2.209139 0-4 1.790861-4 4v19h-9c-1.6548028.0049422-2.9950578 1.3451972-3 3v18c.0049422 1.6548028 1.3451972 2.9950578 3 3h9v9c0 2.209139 1.790861 4 4 4h28c2.209139 0 4-1.790861 4-4v-24h9c1.6548028-.0049422 2.9950578-1.3451972 3-3v-18c-.0049422-1.6548028-1.3451972-2.9950578-3-3zm-19.31-6-1.28 1.37c-.3801369.40067595-.9076935.62832021-1.46.63h-9.9c-.5523065-.00167979-1.0798631-.22932405-1.46-.63l-1.28-1.37zm-23.69 2c.0032948-1.10320187.8967981-1.9967052 2-2h3.57l2.56 2.74c.7602055.8014498 1.8153626 1.25675732 2.92 1.26h9.9c1.1050277-.00136294 2.1608943-.45697663 2.92-1.26l2.56-2.74h3.57c1.1032019.0032948 1.9967052.89679813 2 2v4h-15c-1.6548028.0049422-2.9950578 1.3451972-3 3v12h-14zm-11 41c-.55228475 0-1-.4477153-1-1v-18c0-.5522847.44771525-1 1-1h26c.5522847 0 1 .4477153 1 1v18c0 .5522847-.4477153 1-1 1h-5c-.5522847 0-1 .4477153-1 1s.4477153 1 1 1v2l-3.47-2.17c.2886855-.1777124.466102-.4910224.47-.83 0-.5522847-.4477153-1-1-1zm43 11c-.0032948 1.1032019-.8967981 1.9967052-2 2h-28c-1.1032019-.0032948-1.9967052-.8967981-2-2v-1.56c.6039133.3637359 1.2950124.5572436 2 .56h28c.7049876-.0027564 1.3960867-.1962641 2-.56zm0-5c-.0032948 1.1032019-.8967981 1.9967052-2 2h-28c-1.1032019-.0032948-1.9967052-.8967981-2-2v-4h3.03l5.92 3.7c.3146925.1970472.6787079.3010516 1.05.3.3432665-.0033705.6802082-.0927632.98-.26.6300484-.3524529 1.0202373-1.0180693 1.02-1.74v-2h3c1.6548028-.0049422 2.9950578-1.3451972 3-3v-12h2v2c-.0002373.7219307.3899516 1.3875471 1.02 1.74.6361757.3606209 1.4184499.3452822 2.04-.04l5.91-3.7h3.03zm12-22c0 .5522847-.4477153 1-1 1h-17c-.5522847 0-1 .4477153-1 1 .003898.3389776.1813145.6522876.47.83l-3.47 2.17v-2c.5522847 0 1-.4477153 1-1s-.4477153-1-1-1h-4v-4c-.0065276-1.2673043-.8061483-2.3947695-2-2.82v-12.18c0-.5522847.4477153-1 1-1h26c.5522847 0 1 .4477153 1 1z"/><path id="Shape" d="m54.18 15.52c-.7642549-.5628959-1.8174842-.5171033-2.53.11l-2.54 2.13-7.89-4.49c-.5113781-.2910442-1.1228766-.3492821-1.68-.16-.5607451.2016754-1.010784.6299382-1.24 1.18l-3.14 7.73c-.3749263.902183-.0761519 1.9437438.72 2.51.7735329.5588701 1.832574.5004978 2.54-.14l3.46-2.99 6.73 5.17c.3542823.2767473.7904436.4279967 1.24.43.1823495.0013937.3640329-.0221579.54-.07.6239928-.166963 1.1321178-.6194538 1.37-1.22l3.13-7.69c.3735926-.8970396.0793156-1.9332263-.71-2.5zm-4.27 9.43-6.81-5.13c-.3535391-.27811-.7901836-.429527-1.24-.43-.5003006-.0012178-.983862.1801177-1.36.51l-3.42 3.01-.07-.14 3.22-7.76 7.89 4.49c.7492267.4233706 1.682813.3355975 2.34-.22l2.51-2.15.06.14z"/><path id="Shape" d="m25.13 30.52c-.7642549-.5628959-1.8174842-.5171033-2.53.11l-2.54 2.13-7.89-4.49c-.5113781-.2910442-1.1228766-.3492821-1.68-.16-.56074506.2016754-1.01078396.6299382-1.24 1.18l-3.14 7.73c-.37645613.9042722-.0727065 1.9486716.73 2.51.76839517.5640383 1.82852887.5053747 2.53-.14l3.46-2.99 6.73 5.17c.3550789.2752806.790726.4263518 1.24.43.1823495.0013937.3640329-.0221579.54-.07.6249561-.1694462 1.1352048-.6205357 1.38-1.22l3.12-7.69c.3787201-.8967306.0835152-1.9361842-.71-2.5zm-4.27 9.43-6.81-5.13c-.3519951-.2809232-.7896544-.4326921-1.24-.43-.5003006-.0012178-.983862.1801177-1.36.51l-3.42 3.01-.06-.14 3.21-7.76 7.89 4.49c.749035.4242678 1.6831687.3364433 2.34-.22l2.51-2.15.07.14z"/></g></g></g></svg>