<svg id="Layer_1" enable-background="new 0 0 512 512" xmlns="http://www.w3.org/2000/svg" viewBox="1.01 16.03 509.99 479.93"><g clip-rule="evenodd" fill-rule="evenodd"><g><g><path d="m341.165 414.309-171.611 2.2-38.126 65.425c-1.675 2.874.59 6.026 3.463 6.026h242.219c2.873 0 5.138-3.152 3.463-6.026z" fill="#004960"></path><path d="m477.21 65.87c14.184 0 25.79 11.605 25.79 25.789v300.437c0 14.183-11.607 25.789-25.789 25.789h-442.421c-14.182 0-25.79-11.604-25.79-25.789v-300.437c0-14.185 11.606-25.789 25.79-25.789z" fill="#e6f8ff"></path><path d="m503 384.717h-494v17.393c0 14.185 11.606 25.789 25.789 25.789h442.421c14.184 0 25.79-11.604 25.79-25.789z" fill="#003748"></path></g><ellipse cx="139.912" cy="182.445" fill="#64b5f6" rx="82.616" ry="82.616" transform="matrix(.987 -.16 .16 .987 -27.418 24.767)"></ellipse><g><path d="m337.533 259.305c12.352 7.234 18.528 10.851 18.528 10.851 13.053-8.033 35.588-35.717 54.282-63.204l83.022-143.798c7.175-12.427 2.877-28.464-9.55-35.639-12.427-7.174-28.464-2.877-35.639 9.549l-83.142 144.006c-14.402 29.86-27.021 62.968-27.501 78.235z" fill="#da8c36"></path><path d="m354.39 204.539c-9.477 22.332-16.502 43.45-16.858 54.766 12.352 7.234 18.528 10.851 18.528 10.851 9.656-5.943 24.501-22.639 39.142-42.054z" fill="#c97629"></path><path d="m439.215 52.586 45.188 26.09 8.961-15.521c7.175-12.427 2.877-28.464-9.55-35.639-12.427-7.174-28.464-2.877-35.639 9.549z" fill="#c97629"></path><path d="m290.754 338.954c102.097-15.589 82.968-72.27 56.972-83.328-22.686-9.651-38.064 2.358-43.635 15.064-10.733 24.484 21.811 25.55-13.337 68.264z" fill="#ffda2d"></path></g></g><path d="m279.7 178.112c0-4.415 3.584-7.999 7.971-7.999h13.065c4.433 0 8.018 3.584 8.018 7.999v13.06c0 4.419-3.584 8.004-8.018 8.004s-8.018-3.585-8.018-8.004v-5.056h-5.046c-4.388-.001-7.972-3.58-7.972-8.004zm-36.977 0c0-4.415 3.584-7.999 8.018-7.999h13.065c4.386 0 7.971 3.584 7.971 7.999 0 4.424-3.584 8.004-7.971 8.004h-13.065c-4.433-.001-8.018-3.58-8.018-8.004zm66.03 36.948v13.06c0 4.415-3.584 7.999-8.018 7.999s-8.018-3.584-8.018-7.999v-13.06c0-4.419 3.584-7.999 8.018-7.999s8.018 3.58 8.018 7.999zm-73.906 123.896c0 4.419-3.585 8.004-8.018 8.004h-13.065c-4.386 0-7.971-3.584-7.971-8.004 0-4.419 3.585-7.999 7.971-7.999h13.065c4.433 0 8.018 3.58 8.018 7.999zm7.876 0c0-4.419 3.584-7.999 8.018-7.999h13.065c4.386 0 7.971 3.58 7.971 7.999s-3.584 8.004-7.971 8.004h-13.065c-4.433 0-8.018-3.584-8.018-8.004zm-110.836-147.784v-13.06c0-4.415 3.584-7.999 8.018-7.999h13.065c4.386 0 7.971 3.584 7.971 7.999 0 4.424-3.584 8.004-7.971 8.004h-5.094v5.056c0 4.419-3.584 8.004-7.971 8.004-4.433 0-8.018-3.585-8.018-8.004zm36.977-13.06c0-4.415 3.537-7.999 7.971-7.999h13.065c4.433 0 8.018 3.584 8.018 7.999 0 4.424-3.584 8.004-8.018 8.004h-13.065c-4.434-.001-7.971-3.58-7.971-8.004zm-36.977 50.008v-13.06c0-4.419 3.584-7.999 8.018-7.999 4.386 0 7.971 3.58 7.971 7.999v13.06c0 4.415-3.584 7.999-7.971 7.999-4.433 0-8.018-3.584-8.018-7.999zm66.03 110.836c0 4.419-3.584 8.004-8.018 8.004h-13.065c-4.433 0-7.971-3.584-7.971-8.004 0-4.419 3.537-7.999 7.971-7.999h13.065c4.434 0 8.018 3.58 8.018 7.999zm-66.03-36.943v-13.06c0-4.419 3.584-7.999 8.018-7.999 4.386 0 7.971 3.58 7.971 7.999v13.06c0 4.419-3.584 7.999-7.971 7.999-4.433 0-8.018-3.58-8.018-7.999zm29.053 36.943c0 4.419-3.584 8.004-7.971 8.004h-13.065c-4.433 0-8.018-3.584-8.018-8.004v-13.06c0-4.414 3.584-7.999 8.018-7.999 4.386 0 7.971 3.585 7.971 7.999v5.061h5.094c4.387 0 7.971 3.58 7.971 7.999zm-21.035-231.124c-41.127 0-74.614 33.473-74.614 74.619 0 38.439 29.195 70.176 66.596 74.18v-4.622c0-4.419 3.584-7.999 8.018-7.999 4.386 0 7.971 3.58 7.971 7.999v4.622c36.222-3.877 64.757-33.741 66.549-70.516h-.66c-4.386 0-7.971-3.58-7.971-8.004 0-4.311 3.396-7.815 7.688-7.98-5.896-35.302-36.647-62.299-73.577-62.299zm0 165.231c49.051-.005 89.093-39.146 90.556-87.82 2.594-1.32 4.386-4.014 4.386-7.131 0-3.391-2.123-6.282-5.094-7.447-5.801-44.42-43.91-78.83-89.848-78.83-49.994 0-90.603 40.646-90.603 90.617 0 49.96 40.609 90.606 90.603 90.611zm337.272 146.841h-442.401c-9.81 0-17.781-7.985-17.781-17.79v-9.395h478.01v9.395c0 9.805-8.018 17.79-17.828 17.79zm-107.016 60.059h-228.322l25.658-44.061h176.96zm-335.385-406.089c-9.81 0-17.781 7.98-17.781 17.791v285.056h478.01v-285.056c0-3.608-1.132-7.07-3.113-9.975l-74.661 129.268c-.094.17-.189.335-.283.5-12.876 18.955-30.893 42.599-45.467 56.46 3.726 7.079 5.707 15.432 4.575 24.36-2.028 15.899-15.612 44.127-84.094 54.588-.424.061-.849.094-1.226.094-2.83 0-5.518-1.523-6.933-4.051-1.651-2.877-1.368-6.475.755-9.037 18.677-22.696 15.847-30.147 12.546-38.774-2.594-6.773-5.801-15.201-.377-27.619 5.613-12.763 18.205-23.398 35.184-23.361 4.151-16.724 13.536-40.83 25.893-66.521.094-.179.189-.354.283-.524l59.569-103.2h-382.88zm431.317-41.203c4.669-1.255 9.527-.627 13.725 1.773 8.631 4.99 11.602 16.074 6.603 24.714l-4.952 8.593-31.364-18.091 4.999-8.593c2.405-4.16 6.273-7.141 10.989-8.396zm-73.057 184.946-28.487-16.442c2.358-5.344 4.905-10.824 7.546-16.361l70.039-121.297 31.317 18.092-69.897 121.09c-3.491 5.15-7.028 10.145-10.518 14.918zm-31.412 37.627c-3.396-3.014-7.075-5.395-10.8-6.975-1.038-.453-2.075-.854-3.16-1.226 2.17-8.442 5.848-19.135 10.612-31.01l24.997 14.442c-7.924 10.115-15.376 18.657-21.649 24.769zm-49.569 34.152c-2.17-5.66-3.443-9.079-.66-15.489 3.16-7.159 10.046-13.758 20.516-13.758 3.773 0 7.971.854 12.687 2.844 3.537 1.514 7.027 4.24 9.763 7.749.189.274.377.538.613.793.047.071.094.127.141.193 3.726 5.103 5.943 11.664 5.046 18.55-2.028 16.291-20.469 29.369-51.409 36.991 9.67-16.97 7.312-27.398 3.303-37.873zm188.28-222.309c4.48-7.843 5.66-16.998 3.302-25.789-2.358-8.815-7.971-16.168-15.847-20.705-7.829-4.542-17.026-5.735-25.846-3.377-8.82 2.363-16.177 7.994-20.705 15.852l-14.339 24.803h-392.124c-18.63 0-33.77 15.159-33.77 33.793v310.45c0 18.63 15.14 33.788 33.77 33.788h114.232l-24.526 42.009c-2.169 3.764-2.217 8.24-.047 11.975 2.122 3.75 6.131 6.08 10.423 6.08h242.236c4.292 0 8.301-2.33 10.471-6.075 2.122-3.74 2.122-8.216-.094-11.98l-24.478-42.009h114.185c18.63 0 33.817-15.159 33.817-33.788v-310.449c-.001-9.391-3.963-18.258-10.66-24.578z"></path></g></svg>