<svg id="Layer_1" enable-background="new 0 0 512 512" viewBox="0 0 512 512" xmlns="http://www.w3.org/2000/svg"><g clip-rule="evenodd" fill-rule="evenodd"><path d="m169.44 430.7h154.77c5.19 0 9.44 4.25 9.44 9.47v25.82c0 5.19-4.25 9.44-9.44 9.44h-154.77c-5.19 0-9.44-4.25-9.44-9.44v-25.82c0-5.22 4.25-9.47 9.44-9.47z" fill="#76ffd9"/><path d="m67.05 33.85h236.41c17.06 0 31.01 13.97 31.01 31.04v171.98c0 17.06-13.95 31.04-31.01 31.04h-236.41c-17.06 0-31.01-13.97-31.01-31.04v-171.98c0-17.07 13.95-31.04 31.01-31.04z" fill="#fdcb89"/><path d="m334.47 76.96v159.9c0 17.06-13.95 31.04-31.01 31.04h-227.48v-159.93c0-17.06 13.97-31.01 31.04-31.01z" fill="#ffe0b7"/><path d="m93.13 159.14h46.06v64.06h-46.06z" fill="#76ffd9"/><path d="m139.19 130.62h46.06v92.58h-46.06z" fill="#76ffd9"/><path d="m185.26 102.33h46.06v120.87h-46.06z" fill="#76ffd9"/><path d="m231.32 78.55h46.06v144.65h-46.06z" fill="#76ffd9"/><path d="m486.01 430.04c3.54-295.99-449.15-296.22-428.77 0 15.99-86.15 95.87-145.28 182.92-135.38 75.69 8.59 134.48 63.64 146.1 135.38z" fill="#ffc843"/><path d="m57.24 430.04c15.99-86.15 95.87-145.28 182.92-135.38 75.69 8.59 134.48 63.64 146.1 135.38h78.69c-16.92-255-414.82-258.29-407.71 0z" fill="#fb8500"/><path d="m369.05 262.89c-72.02 334.46-317.02 128.57 0 0z" fill="#b92025"/><path d="m362.14 291.37c-32.48 120.44-88.87 158.26-122.91 152.39-18.03-29.84 4.48-96.15 122.91-152.39z" fill="#ed2024"/><path d="m259.64 373.83c12.1 0 21.94 9.84 21.94 21.94s-9.84 21.91-21.94 21.91-21.91-9.81-21.91-21.91 9.8-21.94 21.91-21.94z" fill="#fff"/></g><path d="m456.7 228.95c0 3.88-3.12 7-7 7-3.86 0-7-3.12-7-7v-100.68c0-3.86 3.15-6.97 7-6.97h23.27l-42.01-62.87-42.01 62.87h23.27c3.86 0 6.97 3.12 6.97 6.97v72.23c0 3.86-3.12 7-6.97 7-3.88 0-7-3.15-7-7v-65.23h-29.34c-5.44 0-8.93-6.15-5.78-10.86l54.99-82.32c2.81-4.31 8.9-4.25 11.65-.11l54.77 81.95c3.83 5.24-.11 11.34-5.47 11.34h-29.34zm-197.06 137.94c25.68 0 38.64 31.18 20.47 49.38-18.2 18.17-49.38 5.22-49.38-20.47-.01-15.96 12.95-28.91 28.91-28.91zm10.54 18.37c-9.35-9.38-25.46-2.72-25.46 10.54s16.1 19.93 25.46 10.54c5.84-5.8 5.84-15.27 0-21.08zm105.65-120.62c-6.63 30.67-14.71 56.89-23.73 79.17 9.69 10.69 18 22.59 24.66 35.43l82.71-47.59c-42.77-92.95-149.81-132.01-244.26-111.32l17.89 66.7c17.69 1.22 35.29 5.07 51.76 11.28 21.86-14.4 48.78-28.6 81.55-41.9 5.39-2.17 10.81 2.85 9.42 8.23zm-29.85 93.4c-13.44 29.37-28.52 50.83-43.57 65.71h21.8c9.04 0 16.44 7.37 16.44 16.44v25.82c0 9.04-7.4 16.44-16.44 16.44h-154.77c-9.07 0-16.44-7.37-16.44-16.44v-25.82c0-9.07 7.37-16.44 16.44-16.44h36.96c-3.69-10.72-3.71-23.95 1.05-38.69 7.4-22.9 26.82-49.97 63.21-76.88-50.23-15.59-103.1-6.8-144.45 23.78-31.41 23.24-54.31 57.91-62.05 99.01-1.36 8.53-13.35 7.71-13.89-.45-4.56-66.13 13.8-118.01 45.35-155.59h-28.57c-20.92 0-38.01-17.09-38.01-38.04v-171.98c0-20.92 17.09-38.01 38.01-38.01h236.41c20.92 0 38.01 17.09 38.01 38.01v147.91c6.41 2.04 12.73 4.37 18.94 6.94 49.15 20.47 91.3 57.57 114.21 111.32.26.48.45.96.6 1.47 11.65 27.89 18.11 60.18 17.77 96.92.17 4.39-2.95 7.6-6.97 7.6h-99.75v-.03c-3.37 0-6.35-2.44-6.89-5.9-4.34-26.98-16.05-52.32-33.4-73.1zm-60.43 79.71c-23.19 15.79-49.32 18.88-66.87 4.14-1.53-1.28-2.95-2.66-4.25-4.14h-44.99c-1.33 0-2.44 1.11-2.44 2.44v25.82c0 1.33 1.11 2.44 2.44 2.44h154.77c1.3 0 2.44-1.11 2.44-2.44v-25.82c0-1.33-1.13-2.44-2.44-2.44zm-15.45-6.94c4.42-2.35 5.78-3.49 9.78-6.09 19.42-13.95 39.97-39.83 57.4-81.38.14-.48.34-.91.57-1.36 7.91-19.08 15.17-41.41 21.37-67.38-27.52 11.93-50.37 24.35-69.05 36.85-.37.31-.79.6-1.25.85-40.17 27.1-60.89 54.4-68.2 77.02-4.99 15.51-3.49 28.4 2.41 36.94 1.62 2.1 2.3 3.12 4.51 4.99 9.38 7.87 24.85 8.83 42.46-.44zm194.79-86.2-82.23 47.34c4.11 9.89 7.29 20.3 9.41 31.12h86.94c-.37-29.22-5.41-55.39-14.12-78.46zm-260.59-136.04c2.92-.99 16.55-3.63 20.01-4.2v-95.02h-32.06v102.65c3.98-1.24 8-2.38 12.05-3.43zm14.21 78.07-16.84-62.87c-35.18 10.03-67.35 28.72-91.87 56.27l19.16 33.19c26.31-16.53 57.12-26.08 89.55-26.59zm-101.12 34.5-17.01-29.51c-18.54 24.83-31.21 55.7-35.35 92.66 12.31-25.25 30.42-46.8 52.36-63.15zm-8.75-60.21c12.42-12.05 26.31-22.28 41.27-30.7h-80.93c-3.88 0-7-3.15-7-7 0-3.88 3.12-7 7-7h17.15v-57.06c0-3.85 3.15-7 7-7h39.06v-21.51c0-3.86 3.15-7 7-7h39.06v-21.29c0-3.86 3.15-7 7-7h39.06v-16.77c0-3.88 3.15-7 7-7h46.06c3.86 0 7 3.12 7 7v123.14c14.51 1.11 28.97 3.46 43.09 7.06v-143.89c0-13.21-10.83-24.04-24.01-24.04h-236.4c-13.21 0-24.01 10.83-24.01 24.04v171.98c0 13.21 10.8 24.04 24.01 24.04zm129.68-58.45c10.63-1.16 21.34-1.62 32.06-1.42v-115.45h-32.06zm-138.19 13.75h32.06v-50.06h-32.06zm46.06 0h32.06v-78.58h-32.06z"/></svg>