<svg id="Layer_1" height="512" viewBox="0 0 256 256" width="512" xmlns="http://www.w3.org/2000/svg"><g><path d="m47.777 25.641s3.41 12.659 13.229 13.246c0 0-13.107 4.525-13.328 14.202 0 0-2.58-13.572-12.932-14.059 0 .001 12.057-1.825 13.031-13.389z" fill="#d6df58"/><path d="m47.677 54.589c-.713 0-1.335-.506-1.473-1.217-.023-.124-2.495-12.418-11.528-12.844-.771-.036-1.388-.65-1.428-1.421-.04-.77.511-1.444 1.273-1.56.441-.068 10.9-1.816 11.761-12.031.062-.726.635-1.301 1.359-1.367.738-.06 1.393.399 1.584 1.102.031.116 3.261 11.626 11.87 12.141.714.042 1.298.583 1.396 1.292.098.708-.318 1.388-.994 1.622-.121.043-12.125 4.312-12.319 12.819-.018.767-.61 1.396-1.375 1.46-.042.002-.084.004-.126.004zm-7.745-15.73c3.881 1.97 6.233 5.747 7.591 8.878 2.027-4.021 5.945-6.788 8.954-8.428-4.137-1.843-6.787-5.653-8.339-8.725-1.794 4.362-5.274 6.87-8.206 8.275z" fill="#3a312a"/><path d="m26.067 42.622s2.412 8.954 9.357 9.369c0 0-9.271 3.201-9.427 10.045 0 0-1.825-9.6-9.147-9.944 0 0 8.528-1.291 9.217-9.47z" fill="#d6df58"/><path d="m25.996 63.536c-.714 0-1.337-.507-1.473-1.22-.016-.082-1.705-8.442-7.743-8.727-.771-.036-1.388-.65-1.428-1.421-.04-.77.511-1.444 1.273-1.561.296-.047 7.367-1.242 7.946-8.112.062-.726.636-1.303 1.361-1.368.723-.063 1.392.399 1.581 1.102.022.079 2.229 7.919 7.999 8.265.714.043 1.299.584 1.396 1.293s-.32 1.389-.997 1.622c-.08.028-8.286 2.953-8.416 8.661-.018.768-.611 1.397-1.376 1.461-.04.003-.082.005-.123.005zm-4.521-11.527c2.108 1.333 3.525 3.395 4.449 5.281 1.377-2.233 3.518-3.873 5.368-4.974-2.289-1.269-3.887-3.351-4.944-5.225-1.174 2.287-3.017 3.877-4.873 4.918z" fill="#3a312a"/><path d="m26.067 15.964s2.412 8.954 9.357 9.37c0 0-9.271 3.201-9.427 10.045 0 0-1.825-9.6-9.147-9.944 0 0 8.528-1.292 9.217-9.471z" fill="#d6df58"/><path d="m25.996 36.879c-.714 0-1.337-.507-1.473-1.22-.016-.082-1.705-8.442-7.743-8.727-.771-.036-1.388-.65-1.428-1.421-.04-.769.511-1.444 1.273-1.56.296-.047 7.367-1.242 7.946-8.113.062-.726.636-1.303 1.361-1.368.723-.061 1.392.399 1.581 1.102.022.079 2.229 7.92 7.999 8.266.714.043 1.299.584 1.396 1.293s-.32 1.389-.997 1.622c-.081.028-8.286 2.952-8.416 8.661-.018.768-.611 1.397-1.376 1.461-.04.002-.082.004-.123.004zm-4.521-11.527c2.108 1.333 3.525 3.394 4.449 5.281 1.377-2.233 3.518-3.873 5.368-4.974-2.288-1.271-3.887-3.352-4.944-5.226-1.174 2.288-3.017 3.877-4.873 4.919z" fill="#3a312a"/><path d="m140.124 231.65c4.06-3.962 6.431-9.37 6.463-15.043 0-.056 0-.111 0-.167 0-.623 1.257-2.509 2.844 5.643 5.199-6.141 9.367-13.002 9.367-19.015 0-16.011-9.76-20.962-21.798-20.962-12.037 0-21.798 4.951-21.798 20.962 0 5.651 1.918 9.71 4.346 13.359 1.84-2.621 4.232-4.797 4.18-4.492-1.295 7.665 1.459 10.409 4.248 17.665 1.079 2.807 1.67 6.028 1.385 9.986-.019.247.743-.125 2.035-.991 1.76-1.181 3.395-2.311 4.894-3.441.725-.547 1.412-1.139 2.062-1.774z" fill="#f16c7a"/><path d="m129.422 241.166c-.276 0-.531-.072-.787-.221-.496-.289-.812-.899-.769-1.472.243-3.389-.179-6.444-1.29-9.336-.659-1.715-1.333-3.21-1.928-4.528-1.459-3.235-2.687-5.957-2.743-9.795-.379.458-.765.955-1.13 1.475-.285.405-.782.634-1.246.638-.495-.006-.956-.257-1.23-.669-2.272-3.415-4.597-7.771-4.597-14.189 0-14.694 8.057-22.462 23.298-22.462s23.298 7.768 23.298 22.462c0 5.641-3.271 12.364-9.722 19.983-.373.441-.965.629-1.523.482-.558-.145-.983-.599-1.094-1.164-.108-.558-.213-1.058-.314-1.506-.902 4.448-3.154 8.62-6.473 11.859l-1.771 1.729c-.697.681-1.439 1.319-2.206 1.898-1.337 1.008-2.867 2.083-4.962 3.489-1.29.866-2.116 1.327-2.811 1.327zm-5.559-30.727c.149 0 .292.025.427.081.648.267 1.035.974.917 1.665-.905 5.359.255 7.931 2.176 12.191.611 1.355 1.304 2.891 1.994 4.685.98 2.552 1.493 5.201 1.551 8.041 1.861-1.254 3.248-2.232 4.459-3.146.666-.502 1.311-1.058 1.918-1.65l1.771-1.729c3.791-3.701 5.982-8.796 6.011-13.978v-.159c0-.962.673-2.02 1.799-2.13 1.454-.143 2.436 1.104 3.328 4.426 4.646-6.006 7.084-11.384 7.084-15.668 0-13.096-6.64-19.462-20.298-19.462s-20.298 6.366-20.298 19.462c0 4.559 1.362 7.965 2.958 10.712 1.286-1.594 2.975-3.341 4.203-3.341z" fill="#3a312a"/><path d="m121.35 197.156c0-11.495 7.008-15.05 15.65-15.05 8.643 0 15.65 3.555 15.65 15.05 0 4.317-2.992 9.243-6.725 13.652-1.14-5.853-2.042-4.499-2.042-4.052-.002 8.013-4.253 11.44-10.906 15.906-.927.621-1.474.889-1.461.711.204-2.842-.22-5.154-.995-7.17-2.003-5.21-3.98-7.18-3.05-12.683.037-.219-1.68 1.344-3.001 3.225-1.743-2.617-3.12-5.531-3.12-9.589z" fill="#d7e057"/><path d="m131.558 224.931c-.261 0-.521-.064-.778-.215-.496-.29-.803-.883-.758-1.456.169-2.366-.125-4.5-.9-6.517-.469-1.22-.93-2.241-1.375-3.229-.92-2.039-1.714-3.801-1.943-6.052-.035.048-.07.097-.104.146-.284.403-.764.595-1.246.638-.495-.006-.955-.257-1.229-.669-1.57-2.357-3.373-5.673-3.373-10.422 0-10.827 5.931-16.55 17.15-16.55s17.15 5.723 17.15 16.55c0 4.152-2.382 9.072-7.08 14.621-.373.441-.964.629-1.523.482-.32-.083-.597-.269-.796-.518-1.512 5.423-5.613 8.592-10.938 12.166-.781.525-1.528 1.025-2.257 1.025zm-4.019-22.924c.231 0 .392.065.496.109.648.267 1.032.966.915 1.657-.628 3.721.185 5.522 1.531 8.508.441.978.941 2.086 1.441 3.386.632 1.646 1 3.347 1.11 5.147 6.35-4.337 9.35-7.346 9.352-14.058 0-.879.626-1.849 1.674-1.95 1.257-.108 2.015.845 2.604 2.67 2.946-3.963 4.489-7.495 4.489-10.32 0-9.117-4.629-13.55-14.15-13.55s-14.15 4.433-14.15 13.55c0 2.886.785 5.113 1.766 6.938 1.486-1.743 2.392-2.087 2.922-2.087z" fill="#3a312a"/><path d="m142.554 194.876h14.006c4.99 0 9.05-4.06 9.05-9.05v-2.5h-57.22v2.5c0 4.99 4.06 9.05 9.05 9.05h10.673z" fill="#87796f"/><path d="m156.561 196.376h-14.007c-.828 0-1.5-.672-1.5-1.5s.672-1.5 1.5-1.5h14.007c4.163 0 7.55-3.387 7.55-7.55v-1h-54.221v1c0 4.163 3.387 7.55 7.55 7.55h10.674c.828 0 1.5.672 1.5 1.5s-.672 1.5-1.5 1.5h-10.674c-5.817 0-10.55-4.732-10.55-10.55v-2.5c0-.828.672-1.5 1.5-1.5h57.221c.828 0 1.5.672 1.5 1.5v2.5c-.001 5.818-4.733 10.55-10.55 10.55z" fill="#3a312a"/><path d="m173.118 183.325h-72.236v-88.635c0-26.685 8.975-52.595 25.481-73.563 5.42-6.885 15.853-6.885 21.273 0 16.506 20.968 25.481 46.877 25.481 73.563v88.635z" fill="#fae6ca"/><path d="m173.118 184.825h-72.236c-.828 0-1.5-.672-1.5-1.5v-88.635c0-26.898 9.164-53.354 25.803-74.49 2.87-3.645 7.176-5.736 11.815-5.736s8.945 2.091 11.815 5.736c16.639 21.137 25.803 47.592 25.803 74.49v88.635c0 .828-.672 1.5-1.5 1.5zm-70.736-3h69.236v-87.135c0-26.229-8.936-52.024-25.16-72.635-2.297-2.918-5.744-4.592-9.458-4.592s-7.161 1.674-9.458 4.592c-16.225 20.61-25.16 46.406-25.16 72.635z" fill="#3a312a"/><path d="m78.919 155.404v43.536c0 2.801 3.428 4.156 5.343 2.113l16.621-17.729v-83.461c-14.112 15.052-21.964 34.91-21.964 55.541z" fill="#d6df58"/><path d="m82.019 203.534c-.568 0-1.144-.106-1.697-.326-1.764-.696-2.902-2.372-2.902-4.268v-43.536c0-21.091 7.944-41.18 22.368-56.567.423-.448 1.074-.595 1.646-.368.572.225.948.779.948 1.394v83.462c0 .381-.146.748-.405 1.026l-16.62 17.729c-.889.947-2.098 1.454-3.338 1.454zm17.363-99.74c-12.256 14.408-18.963 32.587-18.963 51.61v43.536c0 1.003.77 1.385 1.005 1.479.237.093 1.059.34 1.743-.391l16.215-17.296z" fill="#3a312a"/><path d="m195.081 155.404v43.536c0 2.801-3.428 4.156-5.343 2.113l-16.62-17.729v-83.461c14.111 15.052 21.963 34.91 21.963 55.541z" fill="#d6df58"/><path d="m191.981 203.534c-1.24 0-2.449-.507-3.338-1.455l-16.62-17.728c-.26-.278-.405-.645-.405-1.026v-83.462c0-.615.376-1.169.948-1.394.573-.227 1.224-.08 1.646.368 14.424 15.388 22.368 35.477 22.368 56.567v43.536c0 1.896-1.139 3.571-2.902 4.268-.553.22-1.128.326-1.697.326zm-17.363-20.802 16.215 17.295c.686.733 1.507.485 1.743.392.235-.094 1.005-.475 1.005-1.479v-43.536c0-19.023-6.707-37.202-18.963-51.61z" fill="#3a312a"/><path d="m166.232 54.96c-4.298-12.13-10.524-23.579-18.596-33.832-5.42-6.885-15.853-6.885-21.273 0-8.071 10.253-14.298 21.702-18.596 33.832z" fill="#ef6d7a"/><path d="m166.232 56.46h-58.465c-.487 0-.944-.236-1.225-.635-.281-.397-.352-.907-.189-1.366 4.42-12.475 10.756-24.001 18.831-34.259 2.87-3.645 7.176-5.736 11.815-5.736s8.945 2.091 11.815 5.736c8.075 10.258 14.411 21.784 18.831 34.259.162.459.092.969-.189 1.366-.279.399-.736.635-1.224.635zm-56.322-3h54.18c-4.268-11.398-10.192-21.954-17.632-31.404-2.297-2.918-5.744-4.592-9.458-4.592s-7.161 1.674-9.458 4.592c-7.439 9.45-13.364 20.006-17.632 31.404z" fill="#3a312a"/><circle cx="137" cy="106.245" fill="#d6df58" r="25"/><path d="m137 132.745c-14.612 0-26.5-11.888-26.5-26.5s11.888-26.5 26.5-26.5 26.5 11.888 26.5 26.5-11.888 26.5-26.5 26.5zm0-50c-12.958 0-23.5 10.542-23.5 23.5s10.542 23.5 23.5 23.5 23.5-10.542 23.5-23.5-10.542-23.5-23.5-23.5z" fill="#3a312a"/><circle cx="137" cy="106.245" fill="#87796f" r="15.92"/><path d="m137 123.665c-9.605 0-17.42-7.814-17.42-17.42s7.814-17.421 17.42-17.421 17.42 7.815 17.42 17.421-7.815 17.42-17.42 17.42zm0-31.841c-7.951 0-14.42 6.469-14.42 14.421 0 7.951 6.469 14.42 14.42 14.42s14.42-6.469 14.42-14.42c0-7.952-6.469-14.421-14.42-14.421z" fill="#3a312a"/><path d="m234 16.036h-50.702c-3.313 0-6 2.687-6 6s2.687 6 6 6h36.218l-28.674 28.674c-2.344 2.343-2.344 6.142 0 8.484 1.171 1.172 2.707 1.758 4.242 1.758s3.071-.586 4.242-1.758l28.674-28.673v36.218c0 3.313 2.686 6 6 6s6-2.687 6-6v-50.703c0-3.314-2.686-6-6-6z" fill="#8ac5dc"/><path d="m234 80.238c-4.136 0-7.5-3.364-7.5-7.5v-32.596l-26.113 26.113c-1.415 1.417-3.299 2.197-5.303 2.197s-3.888-.78-5.304-2.197c-1.416-1.416-2.196-3.3-2.196-5.303s.78-3.887 2.197-5.303l26.113-26.113h-32.597c-4.136 0-7.5-3.364-7.5-7.5s3.364-7.5 7.5-7.5h50.703c4.136 0 7.5 3.364 7.5 7.5v50.702c0 4.136-3.364 7.5-7.5 7.5zm-6-45.217c.193 0 .389.037.574.114.561.232.926.779.926 1.386v36.218c0 2.481 2.019 4.5 4.5 4.5s4.5-2.019 4.5-4.5v-50.703c0-2.481-2.019-4.5-4.5-4.5h-50.702c-2.481 0-4.5 2.019-4.5 4.5s2.019 4.5 4.5 4.5h36.218c.607 0 1.153.365 1.386.926.232.561.104 1.206-.325 1.635l-28.674 28.674c-.85.85-1.318 1.979-1.318 3.182 0 1.202.468 2.332 1.318 3.182.85.851 1.98 1.318 3.182 1.318s2.332-.468 3.181-1.318l28.675-28.674c.286-.288.669-.44 1.059-.44z" fill="#3a312a"/><path d="m52.843 240.036h19.859c3.313 0 6-2.686 6-6 0-3.313-2.687-6-6-6h-36.218l28.674-28.674c2.344-2.343 2.344-6.142 0-8.484-2.342-2.344-6.142-2.344-8.484 0l-28.674 28.674v-36.218c0-3.314-2.687-6-6-6s-6 2.686-6 6v50.702c0 3.314 2.687 6 6 6h16.492z" fill="#8ac5dc"/><path d="m72.702 241.536h-19.859c-.828 0-1.5-.672-1.5-1.5s.672-1.5 1.5-1.5h19.859c2.481 0 4.5-2.019 4.5-4.5s-2.019-4.5-4.5-4.5h-36.218c-.607 0-1.153-.365-1.386-.926-.232-.561-.104-1.206.325-1.635l28.674-28.674c.85-.85 1.318-1.98 1.318-3.182s-.468-2.332-1.318-3.182c-.85-.851-1.98-1.318-3.182-1.318s-2.332.468-3.181 1.318l-28.674 28.675c-.43.43-1.075.559-1.635.325-.561-.232-.926-.779-.926-1.386v-36.218c0-2.482-2.019-4.5-4.5-4.5s-4.5 2.018-4.5 4.5v50.702c0 2.481 2.019 4.5 4.5 4.5h16.491c.828 0 1.5.672 1.5 1.5s-.672 1.5-1.5 1.5h-16.49c-4.136 0-7.5-3.364-7.5-7.5v-50.702c0-4.136 3.364-7.5 7.5-7.5s7.5 3.364 7.5 7.5v32.597l26.113-26.113c1.415-1.417 3.299-2.197 5.303-2.197s3.888.78 5.304 2.197c1.416 1.416 2.196 3.3 2.196 5.303s-.78 3.887-2.197 5.303l-26.113 26.113h32.597c4.136 0 7.5 3.364 7.5 7.5-.001 4.136-3.365 7.5-7.501 7.5z" fill="#3a312a"/><path d="m165.19 56.456h-15c3.52 10.23 5.64 20.95 6.25 31.8 4.38 4.73 7.06 11.05 7.06 17.99 0 6.85-2.61 13.09-6.88 17.8v57.78h15v-87.14c0-13.04-2.22-25.98-6.43-38.23z" fill="#dbc7aa"/><path d="m164.09 53.456h-15c-4.27-11.39-10.19-21.95-17.63-31.4-.58-.74-1.24-1.4-1.96-1.97 2.11-1.69 4.73-2.62 7.5-2.62 3.71 0 7.16 1.67 9.46 4.59 7.44 9.45 13.36 20.01 17.63 31.4z" fill="#d34e5c"/></g></svg>