<svg id="Layer_1" height="512" viewBox="0 0 48 48" width="512" xmlns="http://www.w3.org/2000/svg"><circle cx="24" cy="23" fill="#0588e2" r="21"/><path d="m11 26c-3.012 0-5.578 1.916-6.563 4.59 3.045 7.842 10.646 13.41 19.563 13.41s16.518-5.568 19.563-13.41c-.985-2.674-3.551-4.59-6.563-4.59z" fill="#0075d3"/><circle cx="24" cy="23" fill="#eff3f9" r="17"/><path d="m37 26h-26c-1.286 0-2.479.365-3.514.973 1.792 7.469 8.496 13.027 16.514 13.027s14.722-5.558 16.514-13.027c-1.035-.608-2.228-.973-3.514-.973z" fill="#cfe0f3"/><path d="m24 6c-5.46 0-10.305 2.584-13.416 6.584 2.879-2.238 6.486-3.584 10.416-3.584 9.389 0 17 7.611 17 17 0 3.929-1.346 7.537-3.584 10.416 4-3.11 6.584-7.956 6.584-13.416 0-9.389-7.611-17-17-17z" fill="#cfe0f3"/><circle cx="24" cy="23" fill="#47caf0" r="2"/><rect fill="#ffc343" height="16" rx="4" width="34" x="7" y="29"/><path d="m37 42h-26c-2.209 0-4-1.791-4-4v3c0 2.209 1.791 4 4 4h26c2.209 0 4-1.791 4-4v-3c0 2.209-1.791 4-4 4z" fill="#ffa221"/><g fill="#08105e"><path d="m24 12c-.552 0-1 .448-1 1v7.184c-.847.302-1.514.969-1.816 1.816h-5.184c-.552 0-1 .448-1 1s.448 1 1 1h5.184c.414 1.161 1.514 2 2.816 2 1.654 0 3-1.346 3-3 0-1.302-.839-2.402-2-2.816v-7.184c0-.552-.448-1-1-1zm0 12c-.551 0-1-.449-1-1s.449-1 1-1 1 .449 1 1-.449 1-1 1z"/><path d="m24 1c-12.131 0-22 9.869-22 22 0 2.222.331 4.424.984 6.544.162.528.72.823 1.25.661.528-.163.824-.722.661-1.25-.594-1.929-.896-3.933-.896-5.956.001-11.027 8.973-19.999 20.001-19.999s20 8.972 20 20c0 2.022-.301 4.026-.896 5.956-.163.528.133 1.087.661 1.25.098.03.197.045.295.045.427 0 .823-.276.955-.706.653-2.121.984-4.322.984-6.544.001-12.132-9.868-22.001-21.999-22.001z"/><path d="m24 5c-9.925 0-18 8.075-18 18 0 1.046.093 2.095.275 3.116.097.543.614.909 1.161.808.543-.097.905-.617.808-1.161-.104-.58-.162-1.171-.2-1.764h1.956c.552 0 1-.448 1-1s-.448-1-1-1h-1.949c.136-2.184.708-4.247 1.637-6.109l.823.475c.158.091.33.134.499.134.346 0 .682-.179.867-.5.276-.479.112-1.09-.366-1.366l-.831-.479c1.18-1.772 2.703-3.295 4.475-4.475l.479.831c.186.321.521.5.867.5.169 0 .341-.043.499-.134.478-.276.642-.888.366-1.366l-.475-.823c1.862-.929 3.925-1.5 6.109-1.637v1.949c0 .552.448 1 1 1s1-.448 1-1v-1.949c2.184.136 4.247.708 6.109 1.637l-.475.823c-.276.479-.112 1.09.366 1.366.158.091.33.134.499.134.346 0 .682-.179.867-.5l.479-.831c1.772 1.18 3.295 2.703 4.475 4.475l-.831.479c-.478.276-.642.888-.366 1.366.186.321.521.5.867.5.169 0 .341-.043.499-.134l.823-.475c.929 1.862 1.5 3.925 1.637 6.109h-1.949c-.552 0-1 .448-1 1s.448 1 1 1h1.956c-.038.593-.096 1.184-.2 1.764-.097.544.265 1.063.808 1.161.06.011.119.016.177.016.475 0 .897-.34.983-.824.183-1.021.275-2.07.275-3.116 0-9.925-8.075-18-18-18z"/><path d="m14 32h-3c-.552 0-1 .448-1 1s.448 1 1 1h3v2h-2c-1.103 0-2 .897-2 2v2c0 1.103.897 2 2 2h3c.552 0 1-.448 1-1s-.448-1-1-1h-3v-2h2c1.103 0 2-.897 2-2v-2c0-1.103-.897-2-2-2z"/><path d="m23 32c-.552 0-1 .448-1 1v3h-2v-3c0-.552-.448-1-1-1s-1 .448-1 1v3c0 1.103.897 2 2 2h2v3c0 .552.448 1 1 1s1-.448 1-1v-8c0-.552-.448-1-1-1z"/><path d="m35.557 32h-2.557c-.552 0-1 .448-1 1s.448 1 1 1h2.557l-2.493 6.649c-.194.517.068 1.093.585 1.288.116.043.234.064.351.064.405 0 .786-.248.937-.649l2.493-6.649c.23-.614.145-1.303-.229-1.842s-.988-.86-1.644-.86z"/><path d="m29.196 31.02c-.544-.108-1.069.243-1.177.784l-2 10c-.108.542.243 1.068.784 1.177.066.013.132.02.197.02.467 0 .885-.329.979-.804l2-10c.108-.542-.243-1.068-.784-1.177z"/><path d="m37 28h-26c-2.757 0-5 2.243-5 5v8c0 2.757 2.243 5 5 5h26c2.757 0 5-2.243 5-5v-8c0-2.757-2.243-5-5-5zm3 13c0 1.654-1.346 3-3 3h-26c-1.654 0-3-1.346-3-3v-8c0-1.654 1.346-3 3-3h26c1.654 0 3 1.346 3 3z"/></g></svg>