<svg id="Filled_Expand" xmlns="http://www.w3.org/2000/svg" data-name="Filled Expand" viewBox="0.25 0.25 63.5 63.5"><path d="m58 5h-52a4 4 0 0 0 -4 4v33h60v-33a4 4 0 0 0 -4-4z" fill="#5abefc"></path><path d="m6 51h52a4 4 0 0 0 4-4v-5h-60v5a4 4 0 0 0 4 4z" fill="#8e868c"></path><path d="m42 62-3-11h-14l-3 11z" fill="#a59ea3"></path><path d="m25 2h14v15h-14z" fill="#f6725f"></path><path d="m32 2h7v15h-7z" fill="#e6613c"></path><path d="m32 33 7-16h-14z" fill="#ffdacc"></path><path d="m58 3.25h-17.25v-1.25a1.751 1.751 0 0 0 -1.75-1.75h-14a1.751 1.751 0 0 0 -1.75 1.75v1.25h-17.25a5.757 5.757 0 0 0 -5.75 5.75v38a5.757 5.757 0 0 0 5.75 5.75h16.709l-2.046 7.5h-1.663a1.75 1.75 0 0 0 0 3.5h26a1.75 1.75 0 0 0 0-3.5h-1.663l-2.046-7.5h16.709a5.757 5.757 0 0 0 5.75-5.75v-38a5.757 5.757 0 0 0 -5.75-5.75zm-24.25.5h3.5v11.5h-3.5zm2.574 15-4.324 9.884-4.324-9.884zm-9.574-15h3.5v11.5h-3.5zm-2.459 56.5 2.046-7.5h11.326l2.046 7.5zm35.959-13.25a2.253 2.253 0 0 1 -2.25 2.25h-52a2.253 2.253 0 0 1 -2.25-2.25v-3.25h56.5zm0-6.75h-56.5v-31.25a2.253 2.253 0 0 1 2.25-2.25h17.25v10.25a1.75 1.75 0 0 0 .147.7l7 16a1.75 1.75 0 0 0 3.206 0l7-16a1.75 1.75 0 0 0 .147-.7v-10.25h17.25a2.253 2.253 0 0 1 2.25 2.25z"></path></svg>