<?xml version="1.0" encoding="UTF-8"?>
<svg xmlns="http://www.w3.org/2000/svg" id="Layer_1" data-name="Layer 1" viewBox="0 0 512 512" width="512" height="512"><defs><style>.cls-1{fill:#1865c1;}.cls-2{fill:#83dbf2;}</style></defs><path class="cls-1" d="M347.76,220.18a91.322,91.322,0,0,0-91.24-91.2,92.45,92.45,0,0,0-65.14,26.39,90.056,90.056,0,0,0-27.14,64.81V267.1a7.009,7.009,0,0,0,.08,1.02c-.05.68-.08,1.37-.08,2.07v20.1c0,13.54,9.71,24.56,21.64,24.56h12.47a18.482,18.482,0,0,0,35.17-7.95V253.55a18.479,18.479,0,0,0-35.18-7.93H185.88a19.211,19.211,0,0,0-7.66,1.6V220.18c0-42.58,35.13-77.23,78.3-77.23a77.336,77.336,0,0,1,77.26,77.23v27.05a19.363,19.363,0,0,0-7.69-1.61H313.66a18.479,18.479,0,0,0-35.18,7.93V306.9a18.482,18.482,0,0,0,35.17,7.95h12.44c11.95,0,21.67-11.02,21.67-24.56v-20.1c0-.7-.03-1.39-.08-2.07a8.758,8.758,0,0,0,.08-1.02ZM210.5,253.55a4.525,4.525,0,0,1,9.05,0V306.9a4.525,4.525,0,0,1-9.05,0Zm-24.62,6.05h10.65v41.27H185.88c-4.08,0-7.66-4.94-7.66-10.58v-20.1C178.22,264.55,181.8,259.6,185.88,259.6ZM301.5,306.9a4.525,4.525,0,0,1-9.05,0V253.55a4.525,4.525,0,0,1,9.05,0Zm32.28-16.61c0,5.73-3.52,10.58-7.69,10.58H315.47V259.6h10.62c4.17,0,7.69,4.85,7.69,10.59Zm13.98-70.11a91.322,91.322,0,0,0-91.24-91.2,92.45,92.45,0,0,0-65.14,26.39,90.056,90.056,0,0,0-27.14,64.81V267.1a7.009,7.009,0,0,0,.08,1.02c-.05.68-.08,1.37-.08,2.07v20.1c0,13.54,9.71,24.56,21.64,24.56h12.47a18.482,18.482,0,0,0,35.17-7.95V253.55a18.479,18.479,0,0,0-35.18-7.93H185.88a19.211,19.211,0,0,0-7.66,1.6V220.18c0-42.58,35.13-77.23,78.3-77.23a77.336,77.336,0,0,1,77.26,77.23v27.05a19.363,19.363,0,0,0-7.69-1.61H313.66a18.479,18.479,0,0,0-35.18,7.93V306.9a18.482,18.482,0,0,0,35.17,7.95h12.44c11.95,0,21.67-11.02,21.67-24.56v-20.1c0-.7-.03-1.39-.08-2.07a8.758,8.758,0,0,0,.08-1.02ZM210.5,253.55a4.525,4.525,0,0,1,9.05,0V306.9a4.525,4.525,0,0,1-9.05,0Zm-24.62,6.05h10.65v41.27H185.88c-4.08,0-7.66-4.94-7.66-10.58v-20.1C178.22,264.55,181.8,259.6,185.88,259.6ZM301.5,306.9a4.525,4.525,0,0,1-9.05,0V253.55a4.525,4.525,0,0,1,9.05,0Zm32.28-16.61c0,5.73-3.52,10.58-7.69,10.58H315.47V259.6h10.62c4.17,0,7.69,4.85,7.69,10.59Zm13.98-70.11a91.322,91.322,0,0,0-91.24-91.2,92.45,92.45,0,0,0-65.14,26.39,90.056,90.056,0,0,0-27.14,64.81V267.1a7.009,7.009,0,0,0,.08,1.02c-.05.68-.08,1.37-.08,2.07v20.1c0,13.54,9.71,24.56,21.64,24.56h12.47a18.482,18.482,0,0,0,35.17-7.95V253.55a18.479,18.479,0,0,0-35.18-7.93H185.88a19.211,19.211,0,0,0-7.66,1.6V220.18c0-42.58,35.13-77.23,78.3-77.23a77.336,77.336,0,0,1,77.26,77.23v27.05a19.363,19.363,0,0,0-7.69-1.61H313.66a18.479,18.479,0,0,0-35.18,7.93V306.9a18.482,18.482,0,0,0,35.17,7.95h12.44c11.95,0,21.67-11.02,21.67-24.56v-20.1c0-.7-.03-1.39-.08-2.07a8.758,8.758,0,0,0,.08-1.02ZM210.5,253.55a4.525,4.525,0,0,1,9.05,0V306.9a4.525,4.525,0,0,1-9.05,0Zm-24.62,6.05h10.65v41.27H185.88c-4.08,0-7.66-4.94-7.66-10.58v-20.1C178.22,264.55,181.8,259.6,185.88,259.6ZM301.5,306.9a4.525,4.525,0,0,1-9.05,0V253.55a4.525,4.525,0,0,1,9.05,0Zm32.28-16.61c0,5.73-3.52,10.58-7.69,10.58H315.47V259.6h10.62c4.17,0,7.69,4.85,7.69,10.59Zm13.98-70.11a91.322,91.322,0,0,0-91.24-91.2,92.45,92.45,0,0,0-65.14,26.39,90.056,90.056,0,0,0-27.14,64.81V267.1a7.009,7.009,0,0,0,.08,1.02c-.05.68-.08,1.37-.08,2.07v20.1c0,13.54,9.71,24.56,21.64,24.56h12.47a18.482,18.482,0,0,0,35.17-7.95V253.55a18.479,18.479,0,0,0-35.18-7.93H185.88a19.211,19.211,0,0,0-7.66,1.6V220.18c0-42.58,35.13-77.23,78.3-77.23a77.336,77.336,0,0,1,77.26,77.23v27.05a19.363,19.363,0,0,0-7.69-1.61H313.66a18.479,18.479,0,0,0-35.18,7.93V306.9a18.482,18.482,0,0,0,35.17,7.95h12.44c11.95,0,21.67-11.02,21.67-24.56v-20.1c0-.7-.03-1.39-.08-2.07a8.758,8.758,0,0,0,.08-1.02ZM210.5,253.55a4.525,4.525,0,0,1,9.05,0V306.9a4.525,4.525,0,0,1-9.05,0Zm-24.62,6.05h10.65v41.27H185.88c-4.08,0-7.66-4.94-7.66-10.58v-20.1C178.22,264.55,181.8,259.6,185.88,259.6ZM301.5,306.9a4.525,4.525,0,0,1-9.05,0V253.55a4.525,4.525,0,0,1,9.05,0Zm32.28-16.61c0,5.73-3.52,10.58-7.69,10.58H315.47V259.6h10.62c4.17,0,7.69,4.85,7.69,10.59Zm13.98-70.11a91.322,91.322,0,0,0-91.24-91.2,92.45,92.45,0,0,0-65.14,26.39,90.056,90.056,0,0,0-27.14,64.81V267.1a7.009,7.009,0,0,0,.08,1.02c-.05.68-.08,1.37-.08,2.07v20.1c0,13.54,9.71,24.56,21.64,24.56h12.47a18.482,18.482,0,0,0,35.17-7.95V253.55a18.479,18.479,0,0,0-35.18-7.93H185.88a19.211,19.211,0,0,0-7.66,1.6V220.18c0-42.58,35.13-77.23,78.3-77.23a77.336,77.336,0,0,1,77.26,77.23v27.05a19.363,19.363,0,0,0-7.69-1.61H313.66a18.479,18.479,0,0,0-35.18,7.93V306.9a18.482,18.482,0,0,0,35.17,7.95h12.44c11.95,0,21.67-11.02,21.67-24.56v-20.1c0-.7-.03-1.39-.08-2.07a8.758,8.758,0,0,0,.08-1.02ZM210.5,253.55a4.525,4.525,0,0,1,9.05,0V306.9a4.525,4.525,0,0,1-9.05,0Zm-24.62,6.05h10.65v41.27H185.88c-4.08,0-7.66-4.94-7.66-10.58v-20.1C178.22,264.55,181.8,259.6,185.88,259.6ZM301.5,306.9a4.525,4.525,0,0,1-9.05,0V253.55a4.525,4.525,0,0,1,9.05,0Zm32.28-16.61c0,5.73-3.52,10.58-7.69,10.58H315.47V259.6h10.62c4.17,0,7.69,4.85,7.69,10.59Zm13.98-70.11a91.322,91.322,0,0,0-91.24-91.2,92.45,92.45,0,0,0-65.14,26.39,90.056,90.056,0,0,0-27.14,64.81V267.1a7.009,7.009,0,0,0,.08,1.02c-.05.68-.08,1.37-.08,2.07v20.1c0,13.54,9.71,24.56,21.64,24.56h12.47a18.482,18.482,0,0,0,35.17-7.95V253.55a18.479,18.479,0,0,0-35.18-7.93H185.88a19.211,19.211,0,0,0-7.66,1.6V220.18c0-42.58,35.13-77.23,78.3-77.23a77.336,77.336,0,0,1,77.26,77.23v27.05a19.363,19.363,0,0,0-7.69-1.61H313.66a18.479,18.479,0,0,0-35.18,7.93V306.9a18.482,18.482,0,0,0,35.17,7.95h12.44c11.95,0,21.67-11.02,21.67-24.56v-20.1c0-.7-.03-1.39-.08-2.07a8.758,8.758,0,0,0,.08-1.02ZM210.5,253.55a4.525,4.525,0,0,1,9.05,0V306.9a4.525,4.525,0,0,1-9.05,0Zm-24.62,6.05h10.65v41.27H185.88c-4.08,0-7.66-4.94-7.66-10.58v-20.1C178.22,264.55,181.8,259.6,185.88,259.6ZM301.5,306.9a4.525,4.525,0,0,1-9.05,0V253.55a4.525,4.525,0,0,1,9.05,0Zm32.28-16.61c0,5.73-3.52,10.58-7.69,10.58H315.47V259.6h10.62c4.17,0,7.69,4.85,7.69,10.59ZM449,100.89H63a6.982,6.982,0,0,0-6.99,6.98V346.5A6.982,6.982,0,0,0,63,353.48H449a6.982,6.982,0,0,0,6.99-6.98V107.87A6.982,6.982,0,0,0,449,100.89Zm-6.99,238.62H69.99V114.86H442.01ZM185.88,314.85h12.47a18.482,18.482,0,0,0,35.17-7.95V253.55a18.479,18.479,0,0,0-35.18-7.93H185.88a19.211,19.211,0,0,0-7.66,1.6V220.18c0-42.58,35.13-77.23,78.3-77.23a77.336,77.336,0,0,1,77.26,77.23v27.05a19.363,19.363,0,0,0-7.69-1.61H313.66a18.479,18.479,0,0,0-35.18,7.93V306.9a18.482,18.482,0,0,0,35.17,7.95h12.44c11.95,0,21.67-11.02,21.67-24.56v-20.1c0-.7-.03-1.39-.08-2.07a8.758,8.758,0,0,0,.08-1.02V220.18a91.322,91.322,0,0,0-91.24-91.2,92.45,92.45,0,0,0-65.14,26.39,90.056,90.056,0,0,0-27.14,64.81V267.1a7.009,7.009,0,0,0,.08,1.02c-.05.68-.08,1.37-.08,2.07v20.1C164.24,303.83,173.95,314.85,185.88,314.85Zm24.62-61.3a4.525,4.525,0,0,1,9.05,0V306.9a4.525,4.525,0,0,1-9.05,0Zm91,53.35a4.525,4.525,0,0,1-9.05,0V253.55a4.525,4.525,0,0,1,9.05,0Zm32.28-16.61c0,5.73-3.52,10.58-7.69,10.58H315.47V259.6h10.62c4.17,0,7.69,4.85,7.69,10.59Zm-155.56-20.1c0-5.64,3.58-10.59,7.66-10.59h10.65v41.27H185.88c-4.08,0-7.66-4.94-7.66-10.58Zm169.54-50.01a91.322,91.322,0,0,0-91.24-91.2,92.45,92.45,0,0,0-65.14,26.39,90.056,90.056,0,0,0-27.14,64.81V267.1a7.009,7.009,0,0,0,.08,1.02c-.05.68-.08,1.37-.08,2.07v20.1c0,13.54,9.71,24.56,21.64,24.56h12.47a18.482,18.482,0,0,0,35.17-7.95V253.55a18.479,18.479,0,0,0-35.18-7.93H185.88a19.211,19.211,0,0,0-7.66,1.6V220.18c0-42.58,35.13-77.23,78.3-77.23a77.336,77.336,0,0,1,77.26,77.23v27.05a19.363,19.363,0,0,0-7.69-1.61H313.66a18.479,18.479,0,0,0-35.18,7.93V306.9a18.482,18.482,0,0,0,35.17,7.95h12.44c11.95,0,21.67-11.02,21.67-24.56v-20.1c0-.7-.03-1.39-.08-2.07a8.758,8.758,0,0,0,.08-1.02ZM210.5,253.55a4.525,4.525,0,0,1,9.05,0V306.9a4.525,4.525,0,0,1-9.05,0Zm-24.62,6.05h10.65v41.27H185.88c-4.08,0-7.66-4.94-7.66-10.58v-20.1C178.22,264.55,181.8,259.6,185.88,259.6ZM301.5,306.9a4.525,4.525,0,0,1-9.05,0V253.55a4.525,4.525,0,0,1,9.05,0Zm32.28-16.61c0,5.73-3.52,10.58-7.69,10.58H315.47V259.6h10.62c4.17,0,7.69,4.85,7.69,10.59Zm13.98-70.11a91.322,91.322,0,0,0-91.24-91.2,92.45,92.45,0,0,0-65.14,26.39,90.056,90.056,0,0,0-27.14,64.81V267.1a7.009,7.009,0,0,0,.08,1.02c-.05.68-.08,1.37-.08,2.07v20.1c0,13.54,9.71,24.56,21.64,24.56h12.47a18.482,18.482,0,0,0,35.17-7.95V253.55a18.479,18.479,0,0,0-35.18-7.93H185.88a19.211,19.211,0,0,0-7.66,1.6V220.18c0-42.58,35.13-77.23,78.3-77.23a77.336,77.336,0,0,1,77.26,77.23v27.05a19.363,19.363,0,0,0-7.69-1.61H313.66a18.479,18.479,0,0,0-35.18,7.93V306.9a18.482,18.482,0,0,0,35.17,7.95h12.44c11.95,0,21.67-11.02,21.67-24.56v-20.1c0-.7-.03-1.39-.08-2.07a8.758,8.758,0,0,0,.08-1.02ZM210.5,253.55a4.525,4.525,0,0,1,9.05,0V306.9a4.525,4.525,0,0,1-9.05,0Zm-24.62,6.05h10.65v41.27H185.88c-4.08,0-7.66-4.94-7.66-10.58v-20.1C178.22,264.55,181.8,259.6,185.88,259.6ZM301.5,306.9a4.525,4.525,0,0,1-9.05,0V253.55a4.525,4.525,0,0,1,9.05,0Zm32.28-16.61c0,5.73-3.52,10.58-7.69,10.58H315.47V259.6h10.62c4.17,0,7.69,4.85,7.69,10.59Zm13.98-70.11a91.322,91.322,0,0,0-91.24-91.2,92.45,92.45,0,0,0-65.14,26.39,90.056,90.056,0,0,0-27.14,64.81V267.1a7.009,7.009,0,0,0,.08,1.02c-.05.68-.08,1.37-.08,2.07v20.1c0,13.54,9.71,24.56,21.64,24.56h12.47a18.482,18.482,0,0,0,35.17-7.95V253.55a18.479,18.479,0,0,0-35.18-7.93H185.88a19.211,19.211,0,0,0-7.66,1.6V220.18c0-42.58,35.13-77.23,78.3-77.23a77.336,77.336,0,0,1,77.26,77.23v27.05a19.363,19.363,0,0,0-7.69-1.61H313.66a18.479,18.479,0,0,0-35.18,7.93V306.9a18.482,18.482,0,0,0,35.17,7.95h12.44c11.95,0,21.67-11.02,21.67-24.56v-20.1c0-.7-.03-1.39-.08-2.07a8.758,8.758,0,0,0,.08-1.02ZM210.5,253.55a4.525,4.525,0,0,1,9.05,0V306.9a4.525,4.525,0,0,1-9.05,0Zm-24.62,6.05h10.65v41.27H185.88c-4.08,0-7.66-4.94-7.66-10.58v-20.1C178.22,264.55,181.8,259.6,185.88,259.6ZM301.5,306.9a4.525,4.525,0,0,1-9.05,0V253.55a4.525,4.525,0,0,1,9.05,0Zm32.28-16.61c0,5.73-3.52,10.58-7.69,10.58H315.47V259.6h10.62c4.17,0,7.69,4.85,7.69,10.59Zm13.98-70.11a91.322,91.322,0,0,0-91.24-91.2,92.45,92.45,0,0,0-65.14,26.39,90.056,90.056,0,0,0-27.14,64.81V267.1a7.009,7.009,0,0,0,.08,1.02c-.05.68-.08,1.37-.08,2.07v20.1c0,13.54,9.71,24.56,21.64,24.56h12.47a18.482,18.482,0,0,0,35.17-7.95V253.55a18.479,18.479,0,0,0-35.18-7.93H185.88a19.211,19.211,0,0,0-7.66,1.6V220.18c0-42.58,35.13-77.23,78.3-77.23a77.336,77.336,0,0,1,77.26,77.23v27.05a19.363,19.363,0,0,0-7.69-1.61H313.66a18.479,18.479,0,0,0-35.18,7.93V306.9a18.482,18.482,0,0,0,35.17,7.95h12.44c11.95,0,21.67-11.02,21.67-24.56v-20.1c0-.7-.03-1.39-.08-2.07a8.758,8.758,0,0,0,.08-1.02ZM210.5,253.55a4.525,4.525,0,0,1,9.05,0V306.9a4.525,4.525,0,0,1-9.05,0Zm-24.62,6.05h10.65v41.27H185.88c-4.08,0-7.66-4.94-7.66-10.58v-20.1C178.22,264.55,181.8,259.6,185.88,259.6ZM301.5,306.9a4.525,4.525,0,0,1-9.05,0V253.55a4.525,4.525,0,0,1,9.05,0Zm32.28-16.61c0,5.73-3.52,10.58-7.69,10.58H315.47V259.6h10.62c4.17,0,7.69,4.85,7.69,10.59Zm13.98-70.11a91.322,91.322,0,0,0-91.24-91.2,92.45,92.45,0,0,0-65.14,26.39,90.056,90.056,0,0,0-27.14,64.81V267.1a7.009,7.009,0,0,0,.08,1.02c-.05.68-.08,1.37-.08,2.07v20.1c0,13.54,9.71,24.56,21.64,24.56h12.47a18.482,18.482,0,0,0,35.17-7.95V253.55a18.479,18.479,0,0,0-35.18-7.93H185.88a19.211,19.211,0,0,0-7.66,1.6V220.18c0-42.58,35.13-77.23,78.3-77.23a77.336,77.336,0,0,1,77.26,77.23v27.05a19.363,19.363,0,0,0-7.69-1.61H313.66a18.479,18.479,0,0,0-35.18,7.93V306.9a18.482,18.482,0,0,0,35.17,7.95h12.44c11.95,0,21.67-11.02,21.67-24.56v-20.1c0-.7-.03-1.39-.08-2.07a8.758,8.758,0,0,0,.08-1.02ZM210.5,253.55a4.525,4.525,0,0,1,9.05,0V306.9a4.525,4.525,0,0,1-9.05,0Zm-24.62,6.05h10.65v41.27H185.88c-4.08,0-7.66-4.94-7.66-10.58v-20.1C178.22,264.55,181.8,259.6,185.88,259.6ZM301.5,306.9a4.525,4.525,0,0,1-9.05,0V253.55a4.525,4.525,0,0,1,9.05,0Zm32.28-16.61c0,5.73-3.52,10.58-7.69,10.58H315.47V259.6h10.62c4.17,0,7.69,4.85,7.69,10.59Zm13.98-70.11a91.322,91.322,0,0,0-91.24-91.2,92.45,92.45,0,0,0-65.14,26.39,90.056,90.056,0,0,0-27.14,64.81V267.1a7.009,7.009,0,0,0,.08,1.02c-.05.68-.08,1.37-.08,2.07v20.1c0,13.54,9.71,24.56,21.64,24.56h12.47a18.482,18.482,0,0,0,35.17-7.95V253.55a18.479,18.479,0,0,0-35.18-7.93H185.88a19.211,19.211,0,0,0-7.66,1.6V220.18c0-42.58,35.13-77.23,78.3-77.23a77.336,77.336,0,0,1,77.26,77.23v27.05a19.363,19.363,0,0,0-7.69-1.61H313.66a18.479,18.479,0,0,0-35.18,7.93V306.9a18.482,18.482,0,0,0,35.17,7.95h12.44c11.95,0,21.67-11.02,21.67-24.56v-20.1c0-.7-.03-1.39-.08-2.07a8.758,8.758,0,0,0,.08-1.02ZM210.5,253.55a4.525,4.525,0,0,1,9.05,0V306.9a4.525,4.525,0,0,1-9.05,0Zm-24.62,6.05h10.65v41.27H185.88c-4.08,0-7.66-4.94-7.66-10.58v-20.1C178.22,264.55,181.8,259.6,185.88,259.6ZM301.5,306.9a4.525,4.525,0,0,1-9.05,0V253.55a4.525,4.525,0,0,1,9.05,0Zm32.28-16.61c0,5.73-3.52,10.58-7.69,10.58H315.47V259.6h10.62c4.17,0,7.69,4.85,7.69,10.59Zm13.98-70.11a91.322,91.322,0,0,0-91.24-91.2,92.45,92.45,0,0,0-65.14,26.39,90.056,90.056,0,0,0-27.14,64.81V267.1a7.009,7.009,0,0,0,.08,1.02c-.05.68-.08,1.37-.08,2.07v20.1c0,13.54,9.71,24.56,21.64,24.56h12.47a18.482,18.482,0,0,0,35.17-7.95V253.55a18.479,18.479,0,0,0-35.18-7.93H185.88a19.211,19.211,0,0,0-7.66,1.6V220.18c0-42.58,35.13-77.23,78.3-77.23a77.336,77.336,0,0,1,77.26,77.23v27.05a19.363,19.363,0,0,0-7.69-1.61H313.66a18.479,18.479,0,0,0-35.18,7.93V306.9a18.482,18.482,0,0,0,35.17,7.95h12.44c11.95,0,21.67-11.02,21.67-24.56v-20.1c0-.7-.03-1.39-.08-2.07a8.758,8.758,0,0,0,.08-1.02ZM210.5,253.55a4.525,4.525,0,0,1,9.05,0V306.9a4.525,4.525,0,0,1-9.05,0Zm-24.62,6.05h10.65v41.27H185.88c-4.08,0-7.66-4.94-7.66-10.58v-20.1C178.22,264.55,181.8,259.6,185.88,259.6ZM301.5,306.9a4.525,4.525,0,0,1-9.05,0V253.55a4.525,4.525,0,0,1,9.05,0Zm32.28-16.61c0,5.73-3.52,10.58-7.69,10.58H315.47V259.6h10.62c4.17,0,7.69,4.85,7.69,10.59Zm13.98-70.11a91.322,91.322,0,0,0-91.24-91.2,92.45,92.45,0,0,0-65.14,26.39,90.056,90.056,0,0,0-27.14,64.81V267.1a7.009,7.009,0,0,0,.08,1.02c-.05.68-.08,1.37-.08,2.07v20.1c0,13.54,9.71,24.56,21.64,24.56h12.47a18.482,18.482,0,0,0,35.17-7.95V253.55a18.479,18.479,0,0,0-35.18-7.93H185.88a19.211,19.211,0,0,0-7.66,1.6V220.18c0-42.58,35.13-77.23,78.3-77.23a77.336,77.336,0,0,1,77.26,77.23v27.05a19.363,19.363,0,0,0-7.69-1.61H313.66a18.479,18.479,0,0,0-35.18,7.93V306.9a18.482,18.482,0,0,0,35.17,7.95h12.44c11.95,0,21.67-11.02,21.67-24.56v-20.1c0-.7-.03-1.39-.08-2.07a8.758,8.758,0,0,0,.08-1.02ZM210.5,253.55a4.525,4.525,0,0,1,9.05,0V306.9a4.525,4.525,0,0,1-9.05,0Zm-24.62,6.05h10.65v41.27H185.88c-4.08,0-7.66-4.94-7.66-10.58v-20.1C178.22,264.55,181.8,259.6,185.88,259.6ZM301.5,306.9a4.525,4.525,0,0,1-9.05,0V253.55a4.525,4.525,0,0,1,9.05,0Zm32.28-16.61c0,5.73-3.52,10.58-7.69,10.58H315.47V259.6h10.62c4.17,0,7.69,4.85,7.69,10.59Zm13.98-70.11a91.322,91.322,0,0,0-91.24-91.2,92.45,92.45,0,0,0-65.14,26.39,90.056,90.056,0,0,0-27.14,64.81V267.1a7.009,7.009,0,0,0,.08,1.02c-.05.68-.08,1.37-.08,2.07v20.1c0,13.54,9.71,24.56,21.64,24.56h12.47a18.482,18.482,0,0,0,35.17-7.95V253.55a18.479,18.479,0,0,0-35.18-7.93H185.88a19.211,19.211,0,0,0-7.66,1.6V220.18c0-42.58,35.13-77.23,78.3-77.23a77.336,77.336,0,0,1,77.26,77.23v27.05a19.363,19.363,0,0,0-7.69-1.61H313.66a18.479,18.479,0,0,0-35.18,7.93V306.9a18.482,18.482,0,0,0,35.17,7.95h12.44c11.95,0,21.67-11.02,21.67-24.56v-20.1c0-.7-.03-1.39-.08-2.07a8.758,8.758,0,0,0,.08-1.02ZM210.5,253.55a4.525,4.525,0,0,1,9.05,0V306.9a4.525,4.525,0,0,1-9.05,0Zm-24.62,6.05h10.65v41.27H185.88c-4.08,0-7.66-4.94-7.66-10.58v-20.1C178.22,264.55,181.8,259.6,185.88,259.6ZM301.5,306.9a4.525,4.525,0,0,1-9.05,0V253.55a4.525,4.525,0,0,1,9.05,0Zm32.28-16.61c0,5.73-3.52,10.58-7.69,10.58H315.47V259.6h10.62c4.17,0,7.69,4.85,7.69,10.59Zm13.98-70.11a91.322,91.322,0,0,0-91.24-91.2,92.45,92.45,0,0,0-65.14,26.39,90.056,90.056,0,0,0-27.14,64.81V267.1a7.009,7.009,0,0,0,.08,1.02c-.05.68-.08,1.37-.08,2.07v20.1c0,13.54,9.71,24.56,21.64,24.56h12.47a18.482,18.482,0,0,0,35.17-7.95V253.55a18.479,18.479,0,0,0-35.18-7.93H185.88a19.211,19.211,0,0,0-7.66,1.6V220.18c0-42.58,35.13-77.23,78.3-77.23a77.336,77.336,0,0,1,77.26,77.23v27.05a19.363,19.363,0,0,0-7.69-1.61H313.66a18.479,18.479,0,0,0-35.18,7.93V306.9a18.482,18.482,0,0,0,35.17,7.95h12.44c11.95,0,21.67-11.02,21.67-24.56v-20.1c0-.7-.03-1.39-.08-2.07a8.758,8.758,0,0,0,.08-1.02ZM210.5,253.55a4.525,4.525,0,0,1,9.05,0V306.9a4.525,4.525,0,0,1-9.05,0Zm-24.62,6.05h10.65v41.27H185.88c-4.08,0-7.66-4.94-7.66-10.58v-20.1C178.22,264.55,181.8,259.6,185.88,259.6ZM301.5,306.9a4.525,4.525,0,0,1-9.05,0V253.55a4.525,4.525,0,0,1,9.05,0Zm32.28-16.61c0,5.73-3.52,10.58-7.69,10.58H315.47V259.6h10.62c4.17,0,7.69,4.85,7.69,10.59Zm13.98-70.11a91.322,91.322,0,0,0-91.24-91.2,92.45,92.45,0,0,0-65.14,26.39,90.056,90.056,0,0,0-27.14,64.81V267.1a7.009,7.009,0,0,0,.08,1.02c-.05.68-.08,1.37-.08,2.07v20.1c0,13.54,9.71,24.56,21.64,24.56h12.47a18.482,18.482,0,0,0,35.17-7.95V253.55a18.479,18.479,0,0,0-35.18-7.93H185.88a19.211,19.211,0,0,0-7.66,1.6V220.18c0-42.58,35.13-77.23,78.3-77.23a77.336,77.336,0,0,1,77.26,77.23v27.05a19.363,19.363,0,0,0-7.69-1.61H313.66a18.479,18.479,0,0,0-35.18,7.93V306.9a18.482,18.482,0,0,0,35.17,7.95h12.44c11.95,0,21.67-11.02,21.67-24.56v-20.1c0-.7-.03-1.39-.08-2.07a8.758,8.758,0,0,0,.08-1.02ZM210.5,253.55a4.525,4.525,0,0,1,9.05,0V306.9a4.525,4.525,0,0,1-9.05,0Zm-24.62,6.05h10.65v41.27H185.88c-4.08,0-7.66-4.94-7.66-10.58v-20.1C178.22,264.55,181.8,259.6,185.88,259.6ZM301.5,306.9a4.525,4.525,0,0,1-9.05,0V253.55a4.525,4.525,0,0,1,9.05,0Zm32.28-16.61c0,5.73-3.52,10.58-7.69,10.58H315.47V259.6h10.62c4.17,0,7.69,4.85,7.69,10.59ZM449,100.89H63a6.982,6.982,0,0,0-6.99,6.98V346.5A6.982,6.982,0,0,0,63,353.48H449a6.982,6.982,0,0,0,6.99-6.98V107.87A6.982,6.982,0,0,0,449,100.89Zm-6.99,238.62H69.99V114.86H442.01ZM185.88,314.85h12.47a18.482,18.482,0,0,0,35.17-7.95V253.55a18.479,18.479,0,0,0-35.18-7.93H185.88a19.211,19.211,0,0,0-7.66,1.6V220.18c0-42.58,35.13-77.23,78.3-77.23a77.336,77.336,0,0,1,77.26,77.23v27.05a19.363,19.363,0,0,0-7.69-1.61H313.66a18.479,18.479,0,0,0-35.18,7.93V306.9a18.482,18.482,0,0,0,35.17,7.95h12.44c11.95,0,21.67-11.02,21.67-24.56v-20.1c0-.7-.03-1.39-.08-2.07a8.758,8.758,0,0,0,.08-1.02V220.18a91.322,91.322,0,0,0-91.24-91.2,92.45,92.45,0,0,0-65.14,26.39,90.056,90.056,0,0,0-27.14,64.81V267.1a7.009,7.009,0,0,0,.08,1.02c-.05.68-.08,1.37-.08,2.07v20.1C164.24,303.83,173.95,314.85,185.88,314.85Zm24.62-61.3a4.525,4.525,0,0,1,9.05,0V306.9a4.525,4.525,0,0,1-9.05,0Zm91,53.35a4.525,4.525,0,0,1-9.05,0V253.55a4.525,4.525,0,0,1,9.05,0Zm32.28-16.61c0,5.73-3.52,10.58-7.69,10.58H315.47V259.6h10.62c4.17,0,7.69,4.85,7.69,10.59Zm-155.56-20.1c0-5.64,3.58-10.59,7.66-10.59h10.65v41.27H185.88c-4.08,0-7.66-4.94-7.66-10.58Zm169.54-50.01a91.322,91.322,0,0,0-91.24-91.2,92.45,92.45,0,0,0-65.14,26.39,90.056,90.056,0,0,0-27.14,64.81V267.1a7.009,7.009,0,0,0,.08,1.02c-.05.68-.08,1.37-.08,2.07v20.1c0,13.54,9.71,24.56,21.64,24.56h12.47a18.482,18.482,0,0,0,35.17-7.95V253.55a18.479,18.479,0,0,0-35.18-7.93H185.88a19.211,19.211,0,0,0-7.66,1.6V220.18c0-42.58,35.13-77.23,78.3-77.23a77.336,77.336,0,0,1,77.26,77.23v27.05a19.363,19.363,0,0,0-7.69-1.61H313.66a18.479,18.479,0,0,0-35.18,7.93V306.9a18.482,18.482,0,0,0,35.17,7.95h12.44c11.95,0,21.67-11.02,21.67-24.56v-20.1c0-.7-.03-1.39-.08-2.07a8.758,8.758,0,0,0,.08-1.02ZM210.5,253.55a4.525,4.525,0,0,1,9.05,0V306.9a4.525,4.525,0,0,1-9.05,0Zm-24.62,6.05h10.65v41.27H185.88c-4.08,0-7.66-4.94-7.66-10.58v-20.1C178.22,264.55,181.8,259.6,185.88,259.6ZM301.5,306.9a4.525,4.525,0,0,1-9.05,0V253.55a4.525,4.525,0,0,1,9.05,0Zm32.28-16.61c0,5.73-3.52,10.58-7.69,10.58H315.47V259.6h10.62c4.17,0,7.69,4.85,7.69,10.59Zm13.98-70.11a91.322,91.322,0,0,0-91.24-91.2,92.45,92.45,0,0,0-65.14,26.39,90.056,90.056,0,0,0-27.14,64.81V267.1a7.009,7.009,0,0,0,.08,1.02c-.05.68-.08,1.37-.08,2.07v20.1c0,13.54,9.71,24.56,21.64,24.56h12.47a18.482,18.482,0,0,0,35.17-7.95V253.55a18.479,18.479,0,0,0-35.18-7.93H185.88a19.211,19.211,0,0,0-7.66,1.6V220.18c0-42.58,35.13-77.23,78.3-77.23a77.336,77.336,0,0,1,77.26,77.23v27.05a19.363,19.363,0,0,0-7.69-1.61H313.66a18.479,18.479,0,0,0-35.18,7.93V306.9a18.482,18.482,0,0,0,35.17,7.95h12.44c11.95,0,21.67-11.02,21.67-24.56v-20.1c0-.7-.03-1.39-.08-2.07a8.758,8.758,0,0,0,.08-1.02ZM210.5,253.55a4.525,4.525,0,0,1,9.05,0V306.9a4.525,4.525,0,0,1-9.05,0Zm-24.62,6.05h10.65v41.27H185.88c-4.08,0-7.66-4.94-7.66-10.58v-20.1C178.22,264.55,181.8,259.6,185.88,259.6ZM301.5,306.9a4.525,4.525,0,0,1-9.05,0V253.55a4.525,4.525,0,0,1,9.05,0Zm32.28-16.61c0,5.73-3.52,10.58-7.69,10.58H315.47V259.6h10.62c4.17,0,7.69,4.85,7.69,10.59Zm13.98-70.11a91.322,91.322,0,0,0-91.24-91.2,92.45,92.45,0,0,0-65.14,26.39,90.056,90.056,0,0,0-27.14,64.81V267.1a7.009,7.009,0,0,0,.08,1.02c-.05.68-.08,1.37-.08,2.07v20.1c0,13.54,9.71,24.56,21.64,24.56h12.47a18.482,18.482,0,0,0,35.17-7.95V253.55a18.479,18.479,0,0,0-35.18-7.93H185.88a19.211,19.211,0,0,0-7.66,1.6V220.18c0-42.58,35.13-77.23,78.3-77.23a77.336,77.336,0,0,1,77.26,77.23v27.05a19.363,19.363,0,0,0-7.69-1.61H313.66a18.479,18.479,0,0,0-35.18,7.93V306.9a18.482,18.482,0,0,0,35.17,7.95h12.44c11.95,0,21.67-11.02,21.67-24.56v-20.1c0-.7-.03-1.39-.08-2.07a8.758,8.758,0,0,0,.08-1.02ZM210.5,253.55a4.525,4.525,0,0,1,9.05,0V306.9a4.525,4.525,0,0,1-9.05,0Zm-24.62,6.05h10.65v41.27H185.88c-4.08,0-7.66-4.94-7.66-10.58v-20.1C178.22,264.55,181.8,259.6,185.88,259.6ZM301.5,306.9a4.525,4.525,0,0,1-9.05,0V253.55a4.525,4.525,0,0,1,9.05,0Zm32.28-16.61c0,5.73-3.52,10.58-7.69,10.58H315.47V259.6h10.62c4.17,0,7.69,4.85,7.69,10.59Zm13.98-70.11a91.322,91.322,0,0,0-91.24-91.2,92.45,92.45,0,0,0-65.14,26.39,90.056,90.056,0,0,0-27.14,64.81V267.1a7.009,7.009,0,0,0,.08,1.02c-.05.68-.08,1.37-.08,2.07v20.1c0,13.54,9.71,24.56,21.64,24.56h12.47a18.482,18.482,0,0,0,35.17-7.95V253.55a18.479,18.479,0,0,0-35.18-7.93H185.88a19.211,19.211,0,0,0-7.66,1.6V220.18c0-42.58,35.13-77.23,78.3-77.23a77.336,77.336,0,0,1,77.26,77.23v27.05a19.363,19.363,0,0,0-7.69-1.61H313.66a18.479,18.479,0,0,0-35.18,7.93V306.9a18.482,18.482,0,0,0,35.17,7.95h12.44c11.95,0,21.67-11.02,21.67-24.56v-20.1c0-.7-.03-1.39-.08-2.07a8.758,8.758,0,0,0,.08-1.02ZM210.5,253.55a4.525,4.525,0,0,1,9.05,0V306.9a4.525,4.525,0,0,1-9.05,0Zm-24.62,6.05h10.65v41.27H185.88c-4.08,0-7.66-4.94-7.66-10.58v-20.1C178.22,264.55,181.8,259.6,185.88,259.6ZM301.5,306.9a4.525,4.525,0,0,1-9.05,0V253.55a4.525,4.525,0,0,1,9.05,0Zm32.28-16.61c0,5.73-3.52,10.58-7.69,10.58H315.47V259.6h10.62c4.17,0,7.69,4.85,7.69,10.59Zm13.98-70.11a91.322,91.322,0,0,0-91.24-91.2,92.45,92.45,0,0,0-65.14,26.39,90.056,90.056,0,0,0-27.14,64.81V267.1a7.009,7.009,0,0,0,.08,1.02c-.05.68-.08,1.37-.08,2.07v20.1c0,13.54,9.71,24.56,21.64,24.56h12.47a18.482,18.482,0,0,0,35.17-7.95V253.55a18.479,18.479,0,0,0-35.18-7.93H185.88a19.211,19.211,0,0,0-7.66,1.6V220.18c0-42.58,35.13-77.23,78.3-77.23a77.336,77.336,0,0,1,77.26,77.23v27.05a19.363,19.363,0,0,0-7.69-1.61H313.66a18.479,18.479,0,0,0-35.18,7.93V306.9a18.482,18.482,0,0,0,35.17,7.95h12.44c11.95,0,21.67-11.02,21.67-24.56v-20.1c0-.7-.03-1.39-.08-2.07a8.758,8.758,0,0,0,.08-1.02ZM210.5,253.55a4.525,4.525,0,0,1,9.05,0V306.9a4.525,4.525,0,0,1-9.05,0Zm-24.62,6.05h10.65v41.27H185.88c-4.08,0-7.66-4.94-7.66-10.58v-20.1C178.22,264.55,181.8,259.6,185.88,259.6ZM301.5,306.9a4.525,4.525,0,0,1-9.05,0V253.55a4.525,4.525,0,0,1,9.05,0Zm32.28-16.61c0,5.73-3.52,10.58-7.69,10.58H315.47V259.6h10.62c4.17,0,7.69,4.85,7.69,10.59Zm13.98-70.11a91.322,91.322,0,0,0-91.24-91.2,92.45,92.45,0,0,0-65.14,26.39,90.056,90.056,0,0,0-27.14,64.81V267.1a7.009,7.009,0,0,0,.08,1.02c-.05.68-.08,1.37-.08,2.07v20.1c0,13.54,9.71,24.56,21.64,24.56h12.47a18.482,18.482,0,0,0,35.17-7.95V253.55a18.479,18.479,0,0,0-35.18-7.93H185.88a19.211,19.211,0,0,0-7.66,1.6V220.18c0-42.58,35.13-77.23,78.3-77.23a77.336,77.336,0,0,1,77.26,77.23v27.05a19.363,19.363,0,0,0-7.69-1.61H313.66a18.479,18.479,0,0,0-35.18,7.93V306.9a18.482,18.482,0,0,0,35.17,7.95h12.44c11.95,0,21.67-11.02,21.67-24.56v-20.1c0-.7-.03-1.39-.08-2.07a8.758,8.758,0,0,0,.08-1.02ZM210.5,253.55a4.525,4.525,0,0,1,9.05,0V306.9a4.525,4.525,0,0,1-9.05,0Zm-24.62,6.05h10.65v41.27H185.88c-4.08,0-7.66-4.94-7.66-10.58v-20.1C178.22,264.55,181.8,259.6,185.88,259.6ZM301.5,306.9a4.525,4.525,0,0,1-9.05,0V253.55a4.525,4.525,0,0,1,9.05,0Zm32.28-16.61c0,5.73-3.52,10.58-7.69,10.58H315.47V259.6h10.62c4.17,0,7.69,4.85,7.69,10.59Zm13.98-70.11a91.322,91.322,0,0,0-91.24-91.2,92.45,92.45,0,0,0-65.14,26.39,90.056,90.056,0,0,0-27.14,64.81V267.1a7.009,7.009,0,0,0,.08,1.02c-.05.68-.08,1.37-.08,2.07v20.1c0,13.54,9.71,24.56,21.64,24.56h12.47a18.482,18.482,0,0,0,35.17-7.95V253.55a18.479,18.479,0,0,0-35.18-7.93H185.88a19.211,19.211,0,0,0-7.66,1.6V220.18c0-42.58,35.13-77.23,78.3-77.23a77.336,77.336,0,0,1,77.26,77.23v27.05a19.363,19.363,0,0,0-7.69-1.61H313.66a18.479,18.479,0,0,0-35.18,7.93V306.9a18.482,18.482,0,0,0,35.17,7.95h12.44c11.95,0,21.67-11.02,21.67-24.56v-20.1c0-.7-.03-1.39-.08-2.07a8.758,8.758,0,0,0,.08-1.02ZM210.5,253.55a4.525,4.525,0,0,1,9.05,0V306.9a4.525,4.525,0,0,1-9.05,0Zm-24.62,6.05h10.65v41.27H185.88c-4.08,0-7.66-4.94-7.66-10.58v-20.1C178.22,264.55,181.8,259.6,185.88,259.6ZM301.5,306.9a4.525,4.525,0,0,1-9.05,0V253.55a4.525,4.525,0,0,1,9.05,0Zm32.28-16.61c0,5.73-3.52,10.58-7.69,10.58H315.47V259.6h10.62c4.17,0,7.69,4.85,7.69,10.59Zm13.98-70.11a91.322,91.322,0,0,0-91.24-91.2,92.45,92.45,0,0,0-65.14,26.39,90.056,90.056,0,0,0-27.14,64.81V267.1a7.009,7.009,0,0,0,.08,1.02c-.05.68-.08,1.37-.08,2.07v20.1c0,13.54,9.71,24.56,21.64,24.56h12.47a18.482,18.482,0,0,0,35.17-7.95V253.55a18.479,18.479,0,0,0-35.18-7.93H185.88a19.211,19.211,0,0,0-7.66,1.6V220.18c0-42.58,35.13-77.23,78.3-77.23a77.336,77.336,0,0,1,77.26,77.23v27.05a19.363,19.363,0,0,0-7.69-1.61H313.66a18.479,18.479,0,0,0-35.18,7.93V306.9a18.482,18.482,0,0,0,35.17,7.95h12.44c11.95,0,21.67-11.02,21.67-24.56v-20.1c0-.7-.03-1.39-.08-2.07a8.758,8.758,0,0,0,.08-1.02ZM210.5,253.55a4.525,4.525,0,0,1,9.05,0V306.9a4.525,4.525,0,0,1-9.05,0Zm-24.62,6.05h10.65v41.27H185.88c-4.08,0-7.66-4.94-7.66-10.58v-20.1C178.22,264.55,181.8,259.6,185.88,259.6ZM301.5,306.9a4.525,4.525,0,0,1-9.05,0V253.55a4.525,4.525,0,0,1,9.05,0Zm32.28-16.61c0,5.73-3.52,10.58-7.69,10.58H315.47V259.6h10.62c4.17,0,7.69,4.85,7.69,10.59ZM449,100.89H63a6.982,6.982,0,0,0-6.99,6.98V346.5A6.982,6.982,0,0,0,63,353.48H449a6.982,6.982,0,0,0,6.99-6.98V107.87A6.982,6.982,0,0,0,449,100.89Zm-6.99,238.62H69.99V114.86H442.01ZM185.88,314.85h12.47a18.482,18.482,0,0,0,35.17-7.95V253.55a18.479,18.479,0,0,0-35.18-7.93H185.88a19.211,19.211,0,0,0-7.66,1.6V220.18c0-42.58,35.13-77.23,78.3-77.23a77.336,77.336,0,0,1,77.26,77.23v27.05a19.363,19.363,0,0,0-7.69-1.61H313.66a18.479,18.479,0,0,0-35.18,7.93V306.9a18.482,18.482,0,0,0,35.17,7.95h12.44c11.95,0,21.67-11.02,21.67-24.56v-20.1c0-.7-.03-1.39-.08-2.07a8.758,8.758,0,0,0,.08-1.02V220.18a91.322,91.322,0,0,0-91.24-91.2,92.45,92.45,0,0,0-65.14,26.39,90.056,90.056,0,0,0-27.14,64.81V267.1a7.009,7.009,0,0,0,.08,1.02c-.05.68-.08,1.37-.08,2.07v20.1C164.24,303.83,173.95,314.85,185.88,314.85Zm24.62-61.3a4.525,4.525,0,0,1,9.05,0V306.9a4.525,4.525,0,0,1-9.05,0Zm91,53.35a4.525,4.525,0,0,1-9.05,0V253.55a4.525,4.525,0,0,1,9.05,0Zm32.28-16.61c0,5.73-3.52,10.58-7.69,10.58H315.47V259.6h10.62c4.17,0,7.69,4.85,7.69,10.59Zm-155.56-20.1c0-5.64,3.58-10.59,7.66-10.59h10.65v41.27H185.88c-4.08,0-7.66-4.94-7.66-10.58Zm169.54-50.01a91.322,91.322,0,0,0-91.24-91.2,92.45,92.45,0,0,0-65.14,26.39,90.056,90.056,0,0,0-27.14,64.81V267.1a7.009,7.009,0,0,0,.08,1.02c-.05.68-.08,1.37-.08,2.07v20.1c0,13.54,9.71,24.56,21.64,24.56h12.47a18.482,18.482,0,0,0,35.17-7.95V253.55a18.479,18.479,0,0,0-35.18-7.93H185.88a19.211,19.211,0,0,0-7.66,1.6V220.18c0-42.58,35.13-77.23,78.3-77.23a77.336,77.336,0,0,1,77.26,77.23v27.05a19.363,19.363,0,0,0-7.69-1.61H313.66a18.479,18.479,0,0,0-35.18,7.93V306.9a18.482,18.482,0,0,0,35.17,7.95h12.44c11.95,0,21.67-11.02,21.67-24.56v-20.1c0-.7-.03-1.39-.08-2.07a8.758,8.758,0,0,0,.08-1.02ZM210.5,253.55a4.525,4.525,0,0,1,9.05,0V306.9a4.525,4.525,0,0,1-9.05,0Zm-24.62,6.05h10.65v41.27H185.88c-4.08,0-7.66-4.94-7.66-10.58v-20.1C178.22,264.55,181.8,259.6,185.88,259.6ZM301.5,306.9a4.525,4.525,0,0,1-9.05,0V253.55a4.525,4.525,0,0,1,9.05,0Zm32.28-16.61c0,5.73-3.52,10.58-7.69,10.58H315.47V259.6h10.62c4.17,0,7.69,4.85,7.69,10.59Zm13.98-70.11a91.322,91.322,0,0,0-91.24-91.2,92.45,92.45,0,0,0-65.14,26.39,90.056,90.056,0,0,0-27.14,64.81V267.1a7.009,7.009,0,0,0,.08,1.02c-.05.68-.08,1.37-.08,2.07v20.1c0,13.54,9.71,24.56,21.64,24.56h12.47a18.482,18.482,0,0,0,35.17-7.95V253.55a18.479,18.479,0,0,0-35.18-7.93H185.88a19.211,19.211,0,0,0-7.66,1.6V220.18c0-42.58,35.13-77.23,78.3-77.23a77.336,77.336,0,0,1,77.26,77.23v27.05a19.363,19.363,0,0,0-7.69-1.61H313.66a18.479,18.479,0,0,0-35.18,7.93V306.9a18.482,18.482,0,0,0,35.17,7.95h12.44c11.95,0,21.67-11.02,21.67-24.56v-20.1c0-.7-.03-1.39-.08-2.07a8.758,8.758,0,0,0,.08-1.02ZM210.5,253.55a4.525,4.525,0,0,1,9.05,0V306.9a4.525,4.525,0,0,1-9.05,0Zm-24.62,6.05h10.65v41.27H185.88c-4.08,0-7.66-4.94-7.66-10.58v-20.1C178.22,264.55,181.8,259.6,185.88,259.6ZM301.5,306.9a4.525,4.525,0,0,1-9.05,0V253.55a4.525,4.525,0,0,1,9.05,0Zm32.28-16.61c0,5.73-3.52,10.58-7.69,10.58H315.47V259.6h10.62c4.17,0,7.69,4.85,7.69,10.59Zm13.98-70.11a91.322,91.322,0,0,0-91.24-91.2,92.45,92.45,0,0,0-65.14,26.39,90.056,90.056,0,0,0-27.14,64.81V267.1a7.009,7.009,0,0,0,.08,1.02c-.05.68-.08,1.37-.08,2.07v20.1c0,13.54,9.71,24.56,21.64,24.56h12.47a18.482,18.482,0,0,0,35.17-7.95V253.55a18.479,18.479,0,0,0-35.18-7.93H185.88a19.211,19.211,0,0,0-7.66,1.6V220.18c0-42.58,35.13-77.23,78.3-77.23a77.336,77.336,0,0,1,77.26,77.23v27.05a19.363,19.363,0,0,0-7.69-1.61H313.66a18.479,18.479,0,0,0-35.18,7.93V306.9a18.482,18.482,0,0,0,35.17,7.95h12.44c11.95,0,21.67-11.02,21.67-24.56v-20.1c0-.7-.03-1.39-.08-2.07a8.758,8.758,0,0,0,.08-1.02ZM210.5,253.55a4.525,4.525,0,0,1,9.05,0V306.9a4.525,4.525,0,0,1-9.05,0Zm-24.62,6.05h10.65v41.27H185.88c-4.08,0-7.66-4.94-7.66-10.58v-20.1C178.22,264.55,181.8,259.6,185.88,259.6ZM301.5,306.9a4.525,4.525,0,0,1-9.05,0V253.55a4.525,4.525,0,0,1,9.05,0Zm32.28-16.61c0,5.73-3.52,10.58-7.69,10.58H315.47V259.6h10.62c4.17,0,7.69,4.85,7.69,10.59Zm13.98-70.11a91.322,91.322,0,0,0-91.24-91.2,92.45,92.45,0,0,0-65.14,26.39,90.056,90.056,0,0,0-27.14,64.81V267.1a7.009,7.009,0,0,0,.08,1.02c-.05.68-.08,1.37-.08,2.07v20.1c0,13.54,9.71,24.56,21.64,24.56h12.47a18.482,18.482,0,0,0,35.17-7.95V253.55a18.479,18.479,0,0,0-35.18-7.93H185.88a19.211,19.211,0,0,0-7.66,1.6V220.18c0-42.58,35.13-77.23,78.3-77.23a77.336,77.336,0,0,1,77.26,77.23v27.05a19.363,19.363,0,0,0-7.69-1.61H313.66a18.479,18.479,0,0,0-35.18,7.93V306.9a18.482,18.482,0,0,0,35.17,7.95h12.44c11.95,0,21.67-11.02,21.67-24.56v-20.1c0-.7-.03-1.39-.08-2.07a8.758,8.758,0,0,0,.08-1.02ZM210.5,253.55a4.525,4.525,0,0,1,9.05,0V306.9a4.525,4.525,0,0,1-9.05,0Zm-24.62,6.05h10.65v41.27H185.88c-4.08,0-7.66-4.94-7.66-10.58v-20.1C178.22,264.55,181.8,259.6,185.88,259.6ZM301.5,306.9a4.525,4.525,0,0,1-9.05,0V253.55a4.525,4.525,0,0,1,9.05,0Zm32.28-16.61c0,5.73-3.52,10.58-7.69,10.58H315.47V259.6h10.62c4.17,0,7.69,4.85,7.69,10.59Zm13.98-70.11a91.322,91.322,0,0,0-91.24-91.2,92.45,92.45,0,0,0-65.14,26.39,90.056,90.056,0,0,0-27.14,64.81V267.1a7.009,7.009,0,0,0,.08,1.02c-.05.68-.08,1.37-.08,2.07v20.1c0,13.54,9.71,24.56,21.64,24.56h12.47a18.482,18.482,0,0,0,35.17-7.95V253.55a18.479,18.479,0,0,0-35.18-7.93H185.88a19.211,19.211,0,0,0-7.66,1.6V220.18c0-42.58,35.13-77.23,78.3-77.23a77.336,77.336,0,0,1,77.26,77.23v27.05a19.363,19.363,0,0,0-7.69-1.61H313.66a18.479,18.479,0,0,0-35.18,7.93V306.9a18.482,18.482,0,0,0,35.17,7.95h12.44c11.95,0,21.67-11.02,21.67-24.56v-20.1c0-.7-.03-1.39-.08-2.07a8.758,8.758,0,0,0,.08-1.02ZM210.5,253.55a4.525,4.525,0,0,1,9.05,0V306.9a4.525,4.525,0,0,1-9.05,0Zm-24.62,6.05h10.65v41.27H185.88c-4.08,0-7.66-4.94-7.66-10.58v-20.1C178.22,264.55,181.8,259.6,185.88,259.6ZM301.5,306.9a4.525,4.525,0,0,1-9.05,0V253.55a4.525,4.525,0,0,1,9.05,0Zm32.28-16.61c0,5.73-3.52,10.58-7.69,10.58H315.47V259.6h10.62c4.17,0,7.69,4.85,7.69,10.59Zm13.98-70.11a91.322,91.322,0,0,0-91.24-91.2,92.45,92.45,0,0,0-65.14,26.39,90.056,90.056,0,0,0-27.14,64.81V267.1a7.009,7.009,0,0,0,.08,1.02c-.05.68-.08,1.37-.08,2.07v20.1c0,13.54,9.71,24.56,21.64,24.56h12.47a18.482,18.482,0,0,0,35.17-7.95V253.55a18.479,18.479,0,0,0-35.18-7.93H185.88a19.211,19.211,0,0,0-7.66,1.6V220.18c0-42.58,35.13-77.23,78.3-77.23a77.336,77.336,0,0,1,77.26,77.23v27.05a19.363,19.363,0,0,0-7.69-1.61H313.66a18.479,18.479,0,0,0-35.18,7.93V306.9a18.482,18.482,0,0,0,35.17,7.95h12.44c11.95,0,21.67-11.02,21.67-24.56v-20.1c0-.7-.03-1.39-.08-2.07a8.758,8.758,0,0,0,.08-1.02ZM210.5,253.55a4.525,4.525,0,0,1,9.05,0V306.9a4.525,4.525,0,0,1-9.05,0Zm-24.62,6.05h10.65v41.27H185.88c-4.08,0-7.66-4.94-7.66-10.58v-20.1C178.22,264.55,181.8,259.6,185.88,259.6ZM301.5,306.9a4.525,4.525,0,0,1-9.05,0V253.55a4.525,4.525,0,0,1,9.05,0Zm32.28-16.61c0,5.73-3.52,10.58-7.69,10.58H315.47V259.6h10.62c4.17,0,7.69,4.85,7.69,10.59Zm13.98-70.11a91.322,91.322,0,0,0-91.24-91.2,92.45,92.45,0,0,0-65.14,26.39,90.056,90.056,0,0,0-27.14,64.81V267.1a7.009,7.009,0,0,0,.08,1.02c-.05.68-.08,1.37-.08,2.07v20.1c0,13.54,9.71,24.56,21.64,24.56h12.47a18.482,18.482,0,0,0,35.17-7.95V253.55a18.479,18.479,0,0,0-35.18-7.93H185.88a19.211,19.211,0,0,0-7.66,1.6V220.18c0-42.58,35.13-77.23,78.3-77.23a77.336,77.336,0,0,1,77.26,77.23v27.05a19.363,19.363,0,0,0-7.69-1.61H313.66a18.479,18.479,0,0,0-35.18,7.93V306.9a18.482,18.482,0,0,0,35.17,7.95h12.44c11.95,0,21.67-11.02,21.67-24.56v-20.1c0-.7-.03-1.39-.08-2.07a8.758,8.758,0,0,0,.08-1.02ZM210.5,253.55a4.525,4.525,0,0,1,9.05,0V306.9a4.525,4.525,0,0,1-9.05,0Zm-24.62,6.05h10.65v41.27H185.88c-4.08,0-7.66-4.94-7.66-10.58v-20.1C178.22,264.55,181.8,259.6,185.88,259.6ZM301.5,306.9a4.525,4.525,0,0,1-9.05,0V253.55a4.525,4.525,0,0,1,9.05,0Zm32.28-16.61c0,5.73-3.52,10.58-7.69,10.58H315.47V259.6h10.62c4.17,0,7.69,4.85,7.69,10.59Zm13.98-70.11a91.322,91.322,0,0,0-91.24-91.2,92.45,92.45,0,0,0-65.14,26.39,90.056,90.056,0,0,0-27.14,64.81V267.1a7.009,7.009,0,0,0,.08,1.02c-.05.68-.08,1.37-.08,2.07v20.1c0,13.54,9.71,24.56,21.64,24.56h12.47a18.482,18.482,0,0,0,35.17-7.95V253.55a18.479,18.479,0,0,0-35.18-7.93H185.88a19.211,19.211,0,0,0-7.66,1.6V220.18c0-42.58,35.13-77.23,78.3-77.23a77.336,77.336,0,0,1,77.26,77.23v27.05a19.363,19.363,0,0,0-7.69-1.61H313.66a18.479,18.479,0,0,0-35.18,7.93V306.9a18.482,18.482,0,0,0,35.17,7.95h12.44c11.95,0,21.67-11.02,21.67-24.56v-20.1c0-.7-.03-1.39-.08-2.07a8.758,8.758,0,0,0,.08-1.02ZM210.5,253.55a4.525,4.525,0,0,1,9.05,0V306.9a4.525,4.525,0,0,1-9.05,0Zm-24.62,6.05h10.65v41.27H185.88c-4.08,0-7.66-4.94-7.66-10.58v-20.1C178.22,264.55,181.8,259.6,185.88,259.6ZM301.5,306.9a4.525,4.525,0,0,1-9.05,0V253.55a4.525,4.525,0,0,1,9.05,0Zm32.28-16.61c0,5.73-3.52,10.58-7.69,10.58H315.47V259.6h10.62c4.17,0,7.69,4.85,7.69,10.59ZM449,100.89H63a6.982,6.982,0,0,0-6.99,6.98V346.5A6.982,6.982,0,0,0,63,353.48H449a6.982,6.982,0,0,0,6.99-6.98V107.87A6.982,6.982,0,0,0,449,100.89Zm-6.99,238.62H69.99V114.86H442.01ZM185.88,314.85h12.47a18.482,18.482,0,0,0,35.17-7.95V253.55a18.479,18.479,0,0,0-35.18-7.93H185.88a19.211,19.211,0,0,0-7.66,1.6V220.18c0-42.58,35.13-77.23,78.3-77.23a77.336,77.336,0,0,1,77.26,77.23v27.05a19.363,19.363,0,0,0-7.69-1.61H313.66a18.479,18.479,0,0,0-35.18,7.93V306.9a18.482,18.482,0,0,0,35.17,7.95h12.44c11.95,0,21.67-11.02,21.67-24.56v-20.1c0-.7-.03-1.39-.08-2.07a8.758,8.758,0,0,0,.08-1.02V220.18a91.322,91.322,0,0,0-91.24-91.2,92.45,92.45,0,0,0-65.14,26.39,90.056,90.056,0,0,0-27.14,64.81V267.1a7.009,7.009,0,0,0,.08,1.02c-.05.68-.08,1.37-.08,2.07v20.1C164.24,303.83,173.95,314.85,185.88,314.85Zm24.62-61.3a4.525,4.525,0,0,1,9.05,0V306.9a4.525,4.525,0,0,1-9.05,0Zm91,53.35a4.525,4.525,0,0,1-9.05,0V253.55a4.525,4.525,0,0,1,9.05,0Zm32.28-16.61c0,5.73-3.52,10.58-7.69,10.58H315.47V259.6h10.62c4.17,0,7.69,4.85,7.69,10.59Zm-155.56-20.1c0-5.64,3.58-10.59,7.66-10.59h10.65v41.27H185.88c-4.08,0-7.66-4.94-7.66-10.58Zm169.54-50.01a91.322,91.322,0,0,0-91.24-91.2,92.45,92.45,0,0,0-65.14,26.39,90.056,90.056,0,0,0-27.14,64.81V267.1a7.009,7.009,0,0,0,.08,1.02c-.05.68-.08,1.37-.08,2.07v20.1c0,13.54,9.71,24.56,21.64,24.56h12.47a18.482,18.482,0,0,0,35.17-7.95V253.55a18.479,18.479,0,0,0-35.18-7.93H185.88a19.211,19.211,0,0,0-7.66,1.6V220.18c0-42.58,35.13-77.23,78.3-77.23a77.336,77.336,0,0,1,77.26,77.23v27.05a19.363,19.363,0,0,0-7.69-1.61H313.66a18.479,18.479,0,0,0-35.18,7.93V306.9a18.482,18.482,0,0,0,35.17,7.95h12.44c11.95,0,21.67-11.02,21.67-24.56v-20.1c0-.7-.03-1.39-.08-2.07a8.758,8.758,0,0,0,.08-1.02ZM210.5,253.55a4.525,4.525,0,0,1,9.05,0V306.9a4.525,4.525,0,0,1-9.05,0Zm-24.62,6.05h10.65v41.27H185.88c-4.08,0-7.66-4.94-7.66-10.58v-20.1C178.22,264.55,181.8,259.6,185.88,259.6ZM301.5,306.9a4.525,4.525,0,0,1-9.05,0V253.55a4.525,4.525,0,0,1,9.05,0Zm32.28-16.61c0,5.73-3.52,10.58-7.69,10.58H315.47V259.6h10.62c4.17,0,7.69,4.85,7.69,10.59Zm13.98-70.11a91.322,91.322,0,0,0-91.24-91.2,92.45,92.45,0,0,0-65.14,26.39,90.056,90.056,0,0,0-27.14,64.81V267.1a7.009,7.009,0,0,0,.08,1.02c-.05.68-.08,1.37-.08,2.07v20.1c0,13.54,9.71,24.56,21.64,24.56h12.47a18.482,18.482,0,0,0,35.17-7.95V253.55a18.479,18.479,0,0,0-35.18-7.93H185.88a19.211,19.211,0,0,0-7.66,1.6V220.18c0-42.58,35.13-77.23,78.3-77.23a77.336,77.336,0,0,1,77.26,77.23v27.05a19.363,19.363,0,0,0-7.69-1.61H313.66a18.479,18.479,0,0,0-35.18,7.93V306.9a18.482,18.482,0,0,0,35.17,7.95h12.44c11.95,0,21.67-11.02,21.67-24.56v-20.1c0-.7-.03-1.39-.08-2.07a8.758,8.758,0,0,0,.08-1.02ZM210.5,253.55a4.525,4.525,0,0,1,9.05,0V306.9a4.525,4.525,0,0,1-9.05,0Zm-24.62,6.05h10.65v41.27H185.88c-4.08,0-7.66-4.94-7.66-10.58v-20.1C178.22,264.55,181.8,259.6,185.88,259.6ZM301.5,306.9a4.525,4.525,0,0,1-9.05,0V253.55a4.525,4.525,0,0,1,9.05,0Zm32.28-16.61c0,5.73-3.52,10.58-7.69,10.58H315.47V259.6h10.62c4.17,0,7.69,4.85,7.69,10.59Zm13.98-70.11a91.322,91.322,0,0,0-91.24-91.2,92.45,92.45,0,0,0-65.14,26.39,90.056,90.056,0,0,0-27.14,64.81V267.1a7.009,7.009,0,0,0,.08,1.02c-.05.68-.08,1.37-.08,2.07v20.1c0,13.54,9.71,24.56,21.64,24.56h12.47a18.482,18.482,0,0,0,35.17-7.95V253.55a18.479,18.479,0,0,0-35.18-7.93H185.88a19.211,19.211,0,0,0-7.66,1.6V220.18c0-42.58,35.13-77.23,78.3-77.23a77.336,77.336,0,0,1,77.26,77.23v27.05a19.363,19.363,0,0,0-7.69-1.61H313.66a18.479,18.479,0,0,0-35.18,7.93V306.9a18.482,18.482,0,0,0,35.17,7.95h12.44c11.95,0,21.67-11.02,21.67-24.56v-20.1c0-.7-.03-1.39-.08-2.07a8.758,8.758,0,0,0,.08-1.02ZM210.5,253.55a4.525,4.525,0,0,1,9.05,0V306.9a4.525,4.525,0,0,1-9.05,0Zm-24.62,6.05h10.65v41.27H185.88c-4.08,0-7.66-4.94-7.66-10.58v-20.1C178.22,264.55,181.8,259.6,185.88,259.6ZM301.5,306.9a4.525,4.525,0,0,1-9.05,0V253.55a4.525,4.525,0,0,1,9.05,0Zm32.28-16.61c0,5.73-3.52,10.58-7.69,10.58H315.47V259.6h10.62c4.17,0,7.69,4.85,7.69,10.59Zm13.98-70.11a91.322,91.322,0,0,0-91.24-91.2,92.45,92.45,0,0,0-65.14,26.39,90.056,90.056,0,0,0-27.14,64.81V267.1a7.009,7.009,0,0,0,.08,1.02c-.05.68-.08,1.37-.08,2.07v20.1c0,13.54,9.71,24.56,21.64,24.56h12.47a18.482,18.482,0,0,0,35.17-7.95V253.55a18.479,18.479,0,0,0-35.18-7.93H185.88a19.211,19.211,0,0,0-7.66,1.6V220.18c0-42.58,35.13-77.23,78.3-77.23a77.336,77.336,0,0,1,77.26,77.23v27.05a19.363,19.363,0,0,0-7.69-1.61H313.66a18.479,18.479,0,0,0-35.18,7.93V306.9a18.482,18.482,0,0,0,35.17,7.95h12.44c11.95,0,21.67-11.02,21.67-24.56v-20.1c0-.7-.03-1.39-.08-2.07a8.758,8.758,0,0,0,.08-1.02ZM210.5,253.55a4.525,4.525,0,0,1,9.05,0V306.9a4.525,4.525,0,0,1-9.05,0Zm-24.62,6.05h10.65v41.27H185.88c-4.08,0-7.66-4.94-7.66-10.58v-20.1C178.22,264.55,181.8,259.6,185.88,259.6ZM301.5,306.9a4.525,4.525,0,0,1-9.05,0V253.55a4.525,4.525,0,0,1,9.05,0Zm32.28-16.61c0,5.73-3.52,10.58-7.69,10.58H315.47V259.6h10.62c4.17,0,7.69,4.85,7.69,10.59ZM449,100.89H63a6.982,6.982,0,0,0-6.99,6.98V346.5A6.982,6.982,0,0,0,63,353.48H449a6.982,6.982,0,0,0,6.99-6.98V107.87A6.982,6.982,0,0,0,449,100.89Zm-6.99,238.62H69.99V114.86H442.01ZM185.88,314.85h12.47a18.482,18.482,0,0,0,35.17-7.95V253.55a18.479,18.479,0,0,0-35.18-7.93H185.88a19.211,19.211,0,0,0-7.66,1.6V220.18c0-42.58,35.13-77.23,78.3-77.23a77.336,77.336,0,0,1,77.26,77.23v27.05a19.363,19.363,0,0,0-7.69-1.61H313.66a18.479,18.479,0,0,0-35.18,7.93V306.9a18.482,18.482,0,0,0,35.17,7.95h12.44c11.95,0,21.67-11.02,21.67-24.56v-20.1c0-.7-.03-1.39-.08-2.07a8.758,8.758,0,0,0,.08-1.02V220.18a91.322,91.322,0,0,0-91.24-91.2,92.45,92.45,0,0,0-65.14,26.39,90.056,90.056,0,0,0-27.14,64.81V267.1a7.009,7.009,0,0,0,.08,1.02c-.05.68-.08,1.37-.08,2.07v20.1C164.24,303.83,173.95,314.85,185.88,314.85Zm24.62-61.3a4.525,4.525,0,0,1,9.05,0V306.9a4.525,4.525,0,0,1-9.05,0Zm91,53.35a4.525,4.525,0,0,1-9.05,0V253.55a4.525,4.525,0,0,1,9.05,0Zm32.28-16.61c0,5.73-3.52,10.58-7.69,10.58H315.47V259.6h10.62c4.17,0,7.69,4.85,7.69,10.59Zm-155.56-20.1c0-5.64,3.58-10.59,7.66-10.59h10.65v41.27H185.88c-4.08,0-7.66-4.94-7.66-10.58Zm169.54-50.01a91.322,91.322,0,0,0-91.24-91.2,92.45,92.45,0,0,0-65.14,26.39,90.056,90.056,0,0,0-27.14,64.81V267.1a7.009,7.009,0,0,0,.08,1.02c-.05.68-.08,1.37-.08,2.07v20.1c0,13.54,9.71,24.56,21.64,24.56h12.47a18.482,18.482,0,0,0,35.17-7.95V253.55a18.479,18.479,0,0,0-35.18-7.93H185.88a19.211,19.211,0,0,0-7.66,1.6V220.18c0-42.58,35.13-77.23,78.3-77.23a77.336,77.336,0,0,1,77.26,77.23v27.05a19.363,19.363,0,0,0-7.69-1.61H313.66a18.479,18.479,0,0,0-35.18,7.93V306.9a18.482,18.482,0,0,0,35.17,7.95h12.44c11.95,0,21.67-11.02,21.67-24.56v-20.1c0-.7-.03-1.39-.08-2.07a8.758,8.758,0,0,0,.08-1.02ZM210.5,253.55a4.525,4.525,0,0,1,9.05,0V306.9a4.525,4.525,0,0,1-9.05,0Zm-24.62,6.05h10.65v41.27H185.88c-4.08,0-7.66-4.94-7.66-10.58v-20.1C178.22,264.55,181.8,259.6,185.88,259.6ZM301.5,306.9a4.525,4.525,0,0,1-9.05,0V253.55a4.525,4.525,0,0,1,9.05,0Zm32.28-16.61c0,5.73-3.52,10.58-7.69,10.58H315.47V259.6h10.62c4.17,0,7.69,4.85,7.69,10.59Zm13.98-70.11a91.322,91.322,0,0,0-91.24-91.2,92.45,92.45,0,0,0-65.14,26.39,90.056,90.056,0,0,0-27.14,64.81V267.1a7.009,7.009,0,0,0,.08,1.02c-.05.68-.08,1.37-.08,2.07v20.1c0,13.54,9.71,24.56,21.64,24.56h12.47a18.482,18.482,0,0,0,35.17-7.95V253.55a18.479,18.479,0,0,0-35.18-7.93H185.88a19.211,19.211,0,0,0-7.66,1.6V220.18c0-42.58,35.13-77.23,78.3-77.23a77.336,77.336,0,0,1,77.26,77.23v27.05a19.363,19.363,0,0,0-7.69-1.61H313.66a18.479,18.479,0,0,0-35.18,7.93V306.9a18.482,18.482,0,0,0,35.17,7.95h12.44c11.95,0,21.67-11.02,21.67-24.56v-20.1c0-.7-.03-1.39-.08-2.07a8.758,8.758,0,0,0,.08-1.02ZM210.5,253.55a4.525,4.525,0,0,1,9.05,0V306.9a4.525,4.525,0,0,1-9.05,0Zm-24.62,6.05h10.65v41.27H185.88c-4.08,0-7.66-4.94-7.66-10.58v-20.1C178.22,264.55,181.8,259.6,185.88,259.6ZM301.5,306.9a4.525,4.525,0,0,1-9.05,0V253.55a4.525,4.525,0,0,1,9.05,0Zm32.28-16.61c0,5.73-3.52,10.58-7.69,10.58H315.47V259.6h10.62c4.17,0,7.69,4.85,7.69,10.59Zm13.98-70.11a91.322,91.322,0,0,0-91.24-91.2,92.45,92.45,0,0,0-65.14,26.39,90.056,90.056,0,0,0-27.14,64.81V267.1a7.009,7.009,0,0,0,.08,1.02c-.05.68-.08,1.37-.08,2.07v20.1c0,13.54,9.71,24.56,21.64,24.56h12.47a18.482,18.482,0,0,0,35.17-7.95V253.55a18.479,18.479,0,0,0-35.18-7.93H185.88a19.211,19.211,0,0,0-7.66,1.6V220.18c0-42.58,35.13-77.23,78.3-77.23a77.336,77.336,0,0,1,77.26,77.23v27.05a19.363,19.363,0,0,0-7.69-1.61H313.66a18.479,18.479,0,0,0-35.18,7.93V306.9a18.482,18.482,0,0,0,35.17,7.95h12.44c11.95,0,21.67-11.02,21.67-24.56v-20.1c0-.7-.03-1.39-.08-2.07a8.758,8.758,0,0,0,.08-1.02ZM210.5,253.55a4.525,4.525,0,0,1,9.05,0V306.9a4.525,4.525,0,0,1-9.05,0Zm-24.62,6.05h10.65v41.27H185.88c-4.08,0-7.66-4.94-7.66-10.58v-20.1C178.22,264.55,181.8,259.6,185.88,259.6ZM301.5,306.9a4.525,4.525,0,0,1-9.05,0V253.55a4.525,4.525,0,0,1,9.05,0Zm32.28-16.61c0,5.73-3.52,10.58-7.69,10.58H315.47V259.6h10.62c4.17,0,7.69,4.85,7.69,10.59Zm13.98-70.11a91.322,91.322,0,0,0-91.24-91.2,92.45,92.45,0,0,0-65.14,26.39,90.056,90.056,0,0,0-27.14,64.81V267.1a7.009,7.009,0,0,0,.08,1.02c-.05.68-.08,1.37-.08,2.07v20.1c0,13.54,9.71,24.56,21.64,24.56h12.47a18.482,18.482,0,0,0,35.17-7.95V253.55a18.479,18.479,0,0,0-35.18-7.93H185.88a19.211,19.211,0,0,0-7.66,1.6V220.18c0-42.58,35.13-77.23,78.3-77.23a77.336,77.336,0,0,1,77.26,77.23v27.05a19.363,19.363,0,0,0-7.69-1.61H313.66a18.479,18.479,0,0,0-35.18,7.93V306.9a18.482,18.482,0,0,0,35.17,7.95h12.44c11.95,0,21.67-11.02,21.67-24.56v-20.1c0-.7-.03-1.39-.08-2.07a8.758,8.758,0,0,0,.08-1.02ZM210.5,253.55a4.525,4.525,0,0,1,9.05,0V306.9a4.525,4.525,0,0,1-9.05,0Zm-24.62,6.05h10.65v41.27H185.88c-4.08,0-7.66-4.94-7.66-10.58v-20.1C178.22,264.55,181.8,259.6,185.88,259.6ZM301.5,306.9a4.525,4.525,0,0,1-9.05,0V253.55a4.525,4.525,0,0,1,9.05,0Zm32.28-16.61c0,5.73-3.52,10.58-7.69,10.58H315.47V259.6h10.62c4.17,0,7.69,4.85,7.69,10.59ZM449,100.89H63a6.982,6.982,0,0,0-6.99,6.98V346.5A6.982,6.982,0,0,0,63,353.48H449a6.982,6.982,0,0,0,6.99-6.98V107.87A6.982,6.982,0,0,0,449,100.89Zm-6.99,238.62H69.99V114.86H442.01ZM185.88,314.85h12.47a18.482,18.482,0,0,0,35.17-7.95V253.55a18.479,18.479,0,0,0-35.18-7.93H185.88a19.211,19.211,0,0,0-7.66,1.6V220.18c0-42.58,35.13-77.23,78.3-77.23a77.336,77.336,0,0,1,77.26,77.23v27.05a19.363,19.363,0,0,0-7.69-1.61H313.66a18.479,18.479,0,0,0-35.18,7.93V306.9a18.482,18.482,0,0,0,35.17,7.95h12.44c11.95,0,21.67-11.02,21.67-24.56v-20.1c0-.7-.03-1.39-.08-2.07a8.758,8.758,0,0,0,.08-1.02V220.18a91.322,91.322,0,0,0-91.24-91.2,92.45,92.45,0,0,0-65.14,26.39,90.056,90.056,0,0,0-27.14,64.81V267.1a7.009,7.009,0,0,0,.08,1.02c-.05.68-.08,1.37-.08,2.07v20.1C164.24,303.83,173.95,314.85,185.88,314.85Zm24.62-61.3a4.525,4.525,0,0,1,9.05,0V306.9a4.525,4.525,0,0,1-9.05,0Zm91,53.35a4.525,4.525,0,0,1-9.05,0V253.55a4.525,4.525,0,0,1,9.05,0Zm32.28-16.61c0,5.73-3.52,10.58-7.69,10.58H315.47V259.6h10.62c4.17,0,7.69,4.85,7.69,10.59Zm-155.56-20.1c0-5.64,3.58-10.59,7.66-10.59h10.65v41.27H185.88c-4.08,0-7.66-4.94-7.66-10.58ZM449,100.89H63a6.982,6.982,0,0,0-6.99,6.98V346.5A6.982,6.982,0,0,0,63,353.48H449a6.982,6.982,0,0,0,6.99-6.98V107.87A6.982,6.982,0,0,0,449,100.89Zm-6.99,238.62H69.99V114.86H442.01ZM185.88,314.85h12.47a18.482,18.482,0,0,0,35.17-7.95V253.55a18.479,18.479,0,0,0-35.18-7.93H185.88a19.211,19.211,0,0,0-7.66,1.6V220.18c0-42.58,35.13-77.23,78.3-77.23a77.336,77.336,0,0,1,77.26,77.23v27.05a19.363,19.363,0,0,0-7.69-1.61H313.66a18.479,18.479,0,0,0-35.18,7.93V306.9a18.482,18.482,0,0,0,35.17,7.95h12.44c11.95,0,21.67-11.02,21.67-24.56v-20.1c0-.7-.03-1.39-.08-2.07a8.758,8.758,0,0,0,.08-1.02V220.18a91.322,91.322,0,0,0-91.24-91.2,92.45,92.45,0,0,0-65.14,26.39,90.056,90.056,0,0,0-27.14,64.81V267.1a7.009,7.009,0,0,0,.08,1.02c-.05.68-.08,1.37-.08,2.07v20.1C164.24,303.83,173.95,314.85,185.88,314.85Zm24.62-61.3a4.525,4.525,0,0,1,9.05,0V306.9a4.525,4.525,0,0,1-9.05,0Zm91,53.35a4.525,4.525,0,0,1-9.05,0V253.55a4.525,4.525,0,0,1,9.05,0Zm32.28-16.61c0,5.73-3.52,10.58-7.69,10.58H315.47V259.6h10.62c4.17,0,7.69,4.85,7.69,10.59Zm-155.56-20.1c0-5.64,3.58-10.59,7.66-10.59h10.65v41.27H185.88c-4.08,0-7.66-4.94-7.66-10.58ZM505.01,371.17H487.62V95.12a25.9,25.9,0,0,0-25.86-25.87H50.24A25.9,25.9,0,0,0,24.38,95.12V371.17H6.99A6.991,6.991,0,0,0,0,378.16v28.8a35.849,35.849,0,0,0,35.82,35.79H476.18A35.849,35.849,0,0,0,512,406.96v-28.8A6.991,6.991,0,0,0,505.01,371.17ZM38.35,95.12A11.9,11.9,0,0,1,50.24,83.23H461.76a11.9,11.9,0,0,1,11.89,11.89V371.17H38.35ZM300.73,385.15v7.16a7.187,7.187,0,0,1-7.18,7.18h-75.1a7.187,7.187,0,0,1-7.18-7.18v-7.16Zm197.3,21.81a21.851,21.851,0,0,1-21.85,21.81H35.82a21.851,21.851,0,0,1-21.85-21.81V385.15H197.29v7.16a21.194,21.194,0,0,0,21.16,21.16h75.1a21.194,21.194,0,0,0,21.16-21.16v-7.16H498.03ZM449,100.89H63a6.982,6.982,0,0,0-6.99,6.98V346.5A6.982,6.982,0,0,0,63,353.48H449a6.982,6.982,0,0,0,6.99-6.98V107.87A6.982,6.982,0,0,0,449,100.89Zm-6.99,238.62H69.99V114.86H442.01ZM185.88,314.85h12.47a18.482,18.482,0,0,0,35.17-7.95V253.55a18.479,18.479,0,0,0-35.18-7.93H185.88a19.211,19.211,0,0,0-7.66,1.6V220.18c0-42.58,35.13-77.23,78.3-77.23a77.336,77.336,0,0,1,77.26,77.23v27.05a19.363,19.363,0,0,0-7.69-1.61H313.66a18.479,18.479,0,0,0-35.18,7.93V306.9a18.482,18.482,0,0,0,35.17,7.95h12.44c11.95,0,21.67-11.02,21.67-24.56v-20.1c0-.7-.03-1.39-.08-2.07a8.758,8.758,0,0,0,.08-1.02V220.18a91.322,91.322,0,0,0-91.24-91.2,92.45,92.45,0,0,0-65.14,26.39,90.056,90.056,0,0,0-27.14,64.81V267.1a7.009,7.009,0,0,0,.08,1.02c-.05.68-.08,1.37-.08,2.07v20.1C164.24,303.83,173.95,314.85,185.88,314.85Zm24.62-61.3a4.525,4.525,0,0,1,9.05,0V306.9a4.525,4.525,0,0,1-9.05,0Zm91,53.35a4.525,4.525,0,0,1-9.05,0V253.55a4.525,4.525,0,0,1,9.05,0Zm32.28-16.61c0,5.73-3.52,10.58-7.69,10.58H315.47V259.6h10.62c4.17,0,7.69,4.85,7.69,10.59Zm-155.56-20.1c0-5.64,3.58-10.59,7.66-10.59h10.65v41.27H185.88c-4.08,0-7.66-4.94-7.66-10.58Zm169.54-50.01a91.322,91.322,0,0,0-91.24-91.2,92.45,92.45,0,0,0-65.14,26.39,90.056,90.056,0,0,0-27.14,64.81V267.1a7.009,7.009,0,0,0,.08,1.02c-.05.68-.08,1.37-.08,2.07v20.1c0,13.54,9.71,24.56,21.64,24.56h12.47a18.482,18.482,0,0,0,35.17-7.95V253.55a18.479,18.479,0,0,0-35.18-7.93H185.88a19.211,19.211,0,0,0-7.66,1.6V220.18c0-42.58,35.13-77.23,78.3-77.23a77.336,77.336,0,0,1,77.26,77.23v27.05a19.363,19.363,0,0,0-7.69-1.61H313.66a18.479,18.479,0,0,0-35.18,7.93V306.9a18.482,18.482,0,0,0,35.17,7.95h12.44c11.95,0,21.67-11.02,21.67-24.56v-20.1c0-.7-.03-1.39-.08-2.07a8.758,8.758,0,0,0,.08-1.02ZM210.5,253.55a4.525,4.525,0,0,1,9.05,0V306.9a4.525,4.525,0,0,1-9.05,0Zm-24.62,6.05h10.65v41.27H185.88c-4.08,0-7.66-4.94-7.66-10.58v-20.1C178.22,264.55,181.8,259.6,185.88,259.6ZM301.5,306.9a4.525,4.525,0,0,1-9.05,0V253.55a4.525,4.525,0,0,1,9.05,0Zm32.28-16.61c0,5.73-3.52,10.58-7.69,10.58H315.47V259.6h10.62c4.17,0,7.69,4.85,7.69,10.59Zm13.98-70.11a91.322,91.322,0,0,0-91.24-91.2,92.45,92.45,0,0,0-65.14,26.39,90.056,90.056,0,0,0-27.14,64.81V267.1a7.009,7.009,0,0,0,.08,1.02c-.05.68-.08,1.37-.08,2.07v20.1c0,13.54,9.71,24.56,21.64,24.56h12.47a18.482,18.482,0,0,0,35.17-7.95V253.55a18.479,18.479,0,0,0-35.18-7.93H185.88a19.211,19.211,0,0,0-7.66,1.6V220.18c0-42.58,35.13-77.23,78.3-77.23a77.336,77.336,0,0,1,77.26,77.23v27.05a19.363,19.363,0,0,0-7.69-1.61H313.66a18.479,18.479,0,0,0-35.18,7.93V306.9a18.482,18.482,0,0,0,35.17,7.95h12.44c11.95,0,21.67-11.02,21.67-24.56v-20.1c0-.7-.03-1.39-.08-2.07a8.758,8.758,0,0,0,.08-1.02ZM210.5,253.55a4.525,4.525,0,0,1,9.05,0V306.9a4.525,4.525,0,0,1-9.05,0Zm-24.62,6.05h10.65v41.27H185.88c-4.08,0-7.66-4.94-7.66-10.58v-20.1C178.22,264.55,181.8,259.6,185.88,259.6ZM301.5,306.9a4.525,4.525,0,0,1-9.05,0V253.55a4.525,4.525,0,0,1,9.05,0Zm32.28-16.61c0,5.73-3.52,10.58-7.69,10.58H315.47V259.6h10.62c4.17,0,7.69,4.85,7.69,10.59ZM449,100.89H63a6.982,6.982,0,0,0-6.99,6.98V346.5A6.982,6.982,0,0,0,63,353.48H449a6.982,6.982,0,0,0,6.99-6.98V107.87A6.982,6.982,0,0,0,449,100.89Zm-6.99,238.62H69.99V114.86H442.01ZM185.88,314.85h12.47a18.482,18.482,0,0,0,35.17-7.95V253.55a18.479,18.479,0,0,0-35.18-7.93H185.88a19.211,19.211,0,0,0-7.66,1.6V220.18c0-42.58,35.13-77.23,78.3-77.23a77.336,77.336,0,0,1,77.26,77.23v27.05a19.363,19.363,0,0,0-7.69-1.61H313.66a18.479,18.479,0,0,0-35.18,7.93V306.9a18.482,18.482,0,0,0,35.17,7.95h12.44c11.95,0,21.67-11.02,21.67-24.56v-20.1c0-.7-.03-1.39-.08-2.07a8.758,8.758,0,0,0,.08-1.02V220.18a91.322,91.322,0,0,0-91.24-91.2,92.45,92.45,0,0,0-65.14,26.39,90.056,90.056,0,0,0-27.14,64.81V267.1a7.009,7.009,0,0,0,.08,1.02c-.05.68-.08,1.37-.08,2.07v20.1C164.24,303.83,173.95,314.85,185.88,314.85Zm24.62-61.3a4.525,4.525,0,0,1,9.05,0V306.9a4.525,4.525,0,0,1-9.05,0Zm91,53.35a4.525,4.525,0,0,1-9.05,0V253.55a4.525,4.525,0,0,1,9.05,0Zm32.28-16.61c0,5.73-3.52,10.58-7.69,10.58H315.47V259.6h10.62c4.17,0,7.69,4.85,7.69,10.59Zm-155.56-20.1c0-5.64,3.58-10.59,7.66-10.59h10.65v41.27H185.88c-4.08,0-7.66-4.94-7.66-10.58Zm169.54-50.01a91.322,91.322,0,0,0-91.24-91.2,92.45,92.45,0,0,0-65.14,26.39,90.056,90.056,0,0,0-27.14,64.81V267.1a7.009,7.009,0,0,0,.08,1.02c-.05.68-.08,1.37-.08,2.07v20.1c0,13.54,9.71,24.56,21.64,24.56h12.47a18.482,18.482,0,0,0,35.17-7.95V253.55a18.479,18.479,0,0,0-35.18-7.93H185.88a19.211,19.211,0,0,0-7.66,1.6V220.18c0-42.58,35.13-77.23,78.3-77.23a77.336,77.336,0,0,1,77.26,77.23v27.05a19.363,19.363,0,0,0-7.69-1.61H313.66a18.479,18.479,0,0,0-35.18,7.93V306.9a18.482,18.482,0,0,0,35.17,7.95h12.44c11.95,0,21.67-11.02,21.67-24.56v-20.1c0-.7-.03-1.39-.08-2.07a8.758,8.758,0,0,0,.08-1.02ZM210.5,253.55a4.525,4.525,0,0,1,9.05,0V306.9a4.525,4.525,0,0,1-9.05,0Zm-24.62,6.05h10.65v41.27H185.88c-4.08,0-7.66-4.94-7.66-10.58v-20.1C178.22,264.55,181.8,259.6,185.88,259.6ZM301.5,306.9a4.525,4.525,0,0,1-9.05,0V253.55a4.525,4.525,0,0,1,9.05,0Zm32.28-16.61c0,5.73-3.52,10.58-7.69,10.58H315.47V259.6h10.62c4.17,0,7.69,4.85,7.69,10.59Zm13.98-70.11a91.322,91.322,0,0,0-91.24-91.2,92.45,92.45,0,0,0-65.14,26.39,90.056,90.056,0,0,0-27.14,64.81V267.1a7.009,7.009,0,0,0,.08,1.02c-.05.68-.08,1.37-.08,2.07v20.1c0,13.54,9.71,24.56,21.64,24.56h12.47a18.482,18.482,0,0,0,35.17-7.95V253.55a18.479,18.479,0,0,0-35.18-7.93H185.88a19.211,19.211,0,0,0-7.66,1.6V220.18c0-42.58,35.13-77.23,78.3-77.23a77.336,77.336,0,0,1,77.26,77.23v27.05a19.363,19.363,0,0,0-7.69-1.61H313.66a18.479,18.479,0,0,0-35.18,7.93V306.9a18.482,18.482,0,0,0,35.17,7.95h12.44c11.95,0,21.67-11.02,21.67-24.56v-20.1c0-.7-.03-1.39-.08-2.07a8.758,8.758,0,0,0,.08-1.02ZM210.5,253.55a4.525,4.525,0,0,1,9.05,0V306.9a4.525,4.525,0,0,1-9.05,0Zm-24.62,6.05h10.65v41.27H185.88c-4.08,0-7.66-4.94-7.66-10.58v-20.1C178.22,264.55,181.8,259.6,185.88,259.6ZM301.5,306.9a4.525,4.525,0,0,1-9.05,0V253.55a4.525,4.525,0,0,1,9.05,0Zm32.28-16.61c0,5.73-3.52,10.58-7.69,10.58H315.47V259.6h10.62c4.17,0,7.69,4.85,7.69,10.59ZM449,100.89H63a6.982,6.982,0,0,0-6.99,6.98V346.5A6.982,6.982,0,0,0,63,353.48H449a6.982,6.982,0,0,0,6.99-6.98V107.87A6.982,6.982,0,0,0,449,100.89Zm-6.99,238.62H69.99V114.86H442.01ZM185.88,314.85h12.47a18.482,18.482,0,0,0,35.17-7.95V253.55a18.479,18.479,0,0,0-35.18-7.93H185.88a19.211,19.211,0,0,0-7.66,1.6V220.18c0-42.58,35.13-77.23,78.3-77.23a77.336,77.336,0,0,1,77.26,77.23v27.05a19.363,19.363,0,0,0-7.69-1.61H313.66a18.479,18.479,0,0,0-35.18,7.93V306.9a18.482,18.482,0,0,0,35.17,7.95h12.44c11.95,0,21.67-11.02,21.67-24.56v-20.1c0-.7-.03-1.39-.08-2.07a8.758,8.758,0,0,0,.08-1.02V220.18a91.322,91.322,0,0,0-91.24-91.2,92.45,92.45,0,0,0-65.14,26.39,90.056,90.056,0,0,0-27.14,64.81V267.1a7.009,7.009,0,0,0,.08,1.02c-.05.68-.08,1.37-.08,2.07v20.1C164.24,303.83,173.95,314.85,185.88,314.85Zm24.62-61.3a4.525,4.525,0,0,1,9.05,0V306.9a4.525,4.525,0,0,1-9.05,0Zm91,53.35a4.525,4.525,0,0,1-9.05,0V253.55a4.525,4.525,0,0,1,9.05,0Zm32.28-16.61c0,5.73-3.52,10.58-7.69,10.58H315.47V259.6h10.62c4.17,0,7.69,4.85,7.69,10.59Zm-155.56-20.1c0-5.64,3.58-10.59,7.66-10.59h10.65v41.27H185.88c-4.08,0-7.66-4.94-7.66-10.58Zm169.54-50.01a91.322,91.322,0,0,0-91.24-91.2,92.45,92.45,0,0,0-65.14,26.39,90.056,90.056,0,0,0-27.14,64.81V267.1a7.009,7.009,0,0,0,.08,1.02c-.05.68-.08,1.37-.08,2.07v20.1c0,13.54,9.71,24.56,21.64,24.56h12.47a18.482,18.482,0,0,0,35.17-7.95V253.55a18.479,18.479,0,0,0-35.18-7.93H185.88a19.211,19.211,0,0,0-7.66,1.6V220.18c0-42.58,35.13-77.23,78.3-77.23a77.336,77.336,0,0,1,77.26,77.23v27.05a19.363,19.363,0,0,0-7.69-1.61H313.66a18.479,18.479,0,0,0-35.18,7.93V306.9a18.482,18.482,0,0,0,35.17,7.95h12.44c11.95,0,21.67-11.02,21.67-24.56v-20.1c0-.7-.03-1.39-.08-2.07a8.758,8.758,0,0,0,.08-1.02ZM210.5,253.55a4.525,4.525,0,0,1,9.05,0V306.9a4.525,4.525,0,0,1-9.05,0Zm-24.62,6.05h10.65v41.27H185.88c-4.08,0-7.66-4.94-7.66-10.58v-20.1C178.22,264.55,181.8,259.6,185.88,259.6ZM301.5,306.9a4.525,4.525,0,0,1-9.05,0V253.55a4.525,4.525,0,0,1,9.05,0Zm32.28-16.61c0,5.73-3.52,10.58-7.69,10.58H315.47V259.6h10.62c4.17,0,7.69,4.85,7.69,10.59Zm13.98-70.11a91.322,91.322,0,0,0-91.24-91.2,92.45,92.45,0,0,0-65.14,26.39,90.056,90.056,0,0,0-27.14,64.81V267.1a7.009,7.009,0,0,0,.08,1.02c-.05.68-.08,1.37-.08,2.07v20.1c0,13.54,9.71,24.56,21.64,24.56h12.47a18.482,18.482,0,0,0,35.17-7.95V253.55a18.479,18.479,0,0,0-35.18-7.93H185.88a19.211,19.211,0,0,0-7.66,1.6V220.18c0-42.58,35.13-77.23,78.3-77.23a77.336,77.336,0,0,1,77.26,77.23v27.05a19.363,19.363,0,0,0-7.69-1.61H313.66a18.479,18.479,0,0,0-35.18,7.93V306.9a18.482,18.482,0,0,0,35.17,7.95h12.44c11.95,0,21.67-11.02,21.67-24.56v-20.1c0-.7-.03-1.39-.08-2.07a8.758,8.758,0,0,0,.08-1.02ZM210.5,253.55a4.525,4.525,0,0,1,9.05,0V306.9a4.525,4.525,0,0,1-9.05,0Zm-24.62,6.05h10.65v41.27H185.88c-4.08,0-7.66-4.94-7.66-10.58v-20.1C178.22,264.55,181.8,259.6,185.88,259.6ZM301.5,306.9a4.525,4.525,0,0,1-9.05,0V253.55a4.525,4.525,0,0,1,9.05,0Zm32.28-16.61c0,5.73-3.52,10.58-7.69,10.58H315.47V259.6h10.62c4.17,0,7.69,4.85,7.69,10.59Zm13.98-70.11a91.322,91.322,0,0,0-91.24-91.2,92.45,92.45,0,0,0-65.14,26.39,90.056,90.056,0,0,0-27.14,64.81V267.1a7.009,7.009,0,0,0,.08,1.02c-.05.68-.08,1.37-.08,2.07v20.1c0,13.54,9.71,24.56,21.64,24.56h12.47a18.482,18.482,0,0,0,35.17-7.95V253.55a18.479,18.479,0,0,0-35.18-7.93H185.88a19.211,19.211,0,0,0-7.66,1.6V220.18c0-42.58,35.13-77.23,78.3-77.23a77.336,77.336,0,0,1,77.26,77.23v27.05a19.363,19.363,0,0,0-7.69-1.61H313.66a18.479,18.479,0,0,0-35.18,7.93V306.9a18.482,18.482,0,0,0,35.17,7.95h12.44c11.95,0,21.67-11.02,21.67-24.56v-20.1c0-.7-.03-1.39-.08-2.07a8.758,8.758,0,0,0,.08-1.02ZM210.5,253.55a4.525,4.525,0,0,1,9.05,0V306.9a4.525,4.525,0,0,1-9.05,0Zm-24.62,6.05h10.65v41.27H185.88c-4.08,0-7.66-4.94-7.66-10.58v-20.1C178.22,264.55,181.8,259.6,185.88,259.6ZM301.5,306.9a4.525,4.525,0,0,1-9.05,0V253.55a4.525,4.525,0,0,1,9.05,0Zm32.28-16.61c0,5.73-3.52,10.58-7.69,10.58H315.47V259.6h10.62c4.17,0,7.69,4.85,7.69,10.59Zm13.98-70.11a91.322,91.322,0,0,0-91.24-91.2,92.45,92.45,0,0,0-65.14,26.39,90.056,90.056,0,0,0-27.14,64.81V267.1a7.009,7.009,0,0,0,.08,1.02c-.05.68-.08,1.37-.08,2.07v20.1c0,13.54,9.71,24.56,21.64,24.56h12.47a18.482,18.482,0,0,0,35.17-7.95V253.55a18.479,18.479,0,0,0-35.18-7.93H185.88a19.211,19.211,0,0,0-7.66,1.6V220.18c0-42.58,35.13-77.23,78.3-77.23a77.336,77.336,0,0,1,77.26,77.23v27.05a19.363,19.363,0,0,0-7.69-1.61H313.66a18.479,18.479,0,0,0-35.18,7.93V306.9a18.482,18.482,0,0,0,35.17,7.95h12.44c11.95,0,21.67-11.02,21.67-24.56v-20.1c0-.7-.03-1.39-.08-2.07a8.758,8.758,0,0,0,.08-1.02ZM210.5,253.55a4.525,4.525,0,0,1,9.05,0V306.9a4.525,4.525,0,0,1-9.05,0Zm-24.62,6.05h10.65v41.27H185.88c-4.08,0-7.66-4.94-7.66-10.58v-20.1C178.22,264.55,181.8,259.6,185.88,259.6ZM301.5,306.9a4.525,4.525,0,0,1-9.05,0V253.55a4.525,4.525,0,0,1,9.05,0Zm32.28-16.61c0,5.73-3.52,10.58-7.69,10.58H315.47V259.6h10.62c4.17,0,7.69,4.85,7.69,10.59Zm13.98-70.11a91.322,91.322,0,0,0-91.24-91.2,92.45,92.45,0,0,0-65.14,26.39,90.056,90.056,0,0,0-27.14,64.81V267.1a7.009,7.009,0,0,0,.08,1.02c-.05.68-.08,1.37-.08,2.07v20.1c0,13.54,9.71,24.56,21.64,24.56h12.47a18.482,18.482,0,0,0,35.17-7.95V253.55a18.479,18.479,0,0,0-35.18-7.93H185.88a19.211,19.211,0,0,0-7.66,1.6V220.18c0-42.58,35.13-77.23,78.3-77.23a77.336,77.336,0,0,1,77.26,77.23v27.05a19.363,19.363,0,0,0-7.69-1.61H313.66a18.479,18.479,0,0,0-35.18,7.93V306.9a18.482,18.482,0,0,0,35.17,7.95h12.44c11.95,0,21.67-11.02,21.67-24.56v-20.1c0-.7-.03-1.39-.08-2.07a8.758,8.758,0,0,0,.08-1.02ZM210.5,253.55a4.525,4.525,0,0,1,9.05,0V306.9a4.525,4.525,0,0,1-9.05,0Zm-24.62,6.05h10.65v41.27H185.88c-4.08,0-7.66-4.94-7.66-10.58v-20.1C178.22,264.55,181.8,259.6,185.88,259.6ZM301.5,306.9a4.525,4.525,0,0,1-9.05,0V253.55a4.525,4.525,0,0,1,9.05,0Zm32.28-16.61c0,5.73-3.52,10.58-7.69,10.58H315.47V259.6h10.62c4.17,0,7.69,4.85,7.69,10.59Zm13.98-70.11a91.322,91.322,0,0,0-91.24-91.2,92.45,92.45,0,0,0-65.14,26.39,90.056,90.056,0,0,0-27.14,64.81V267.1a7.009,7.009,0,0,0,.08,1.02c-.05.68-.08,1.37-.08,2.07v20.1c0,13.54,9.71,24.56,21.64,24.56h12.47a18.482,18.482,0,0,0,35.17-7.95V253.55a18.479,18.479,0,0,0-35.18-7.93H185.88a19.211,19.211,0,0,0-7.66,1.6V220.18c0-42.58,35.13-77.23,78.3-77.23a77.336,77.336,0,0,1,77.26,77.23v27.05a19.363,19.363,0,0,0-7.69-1.61H313.66a18.479,18.479,0,0,0-35.18,7.93V306.9a18.482,18.482,0,0,0,35.17,7.95h12.44c11.95,0,21.67-11.02,21.67-24.56v-20.1c0-.7-.03-1.39-.08-2.07a8.758,8.758,0,0,0,.08-1.02ZM210.5,253.55a4.525,4.525,0,0,1,9.05,0V306.9a4.525,4.525,0,0,1-9.05,0Zm-24.62,6.05h10.65v41.27H185.88c-4.08,0-7.66-4.94-7.66-10.58v-20.1C178.22,264.55,181.8,259.6,185.88,259.6ZM301.5,306.9a4.525,4.525,0,0,1-9.05,0V253.55a4.525,4.525,0,0,1,9.05,0Zm32.28-16.61c0,5.73-3.52,10.58-7.69,10.58H315.47V259.6h10.62c4.17,0,7.69,4.85,7.69,10.59ZM449,100.89H63a6.982,6.982,0,0,0-6.99,6.98V346.5A6.982,6.982,0,0,0,63,353.48H449a6.982,6.982,0,0,0,6.99-6.98V107.87A6.982,6.982,0,0,0,449,100.89Zm-6.99,238.62H69.99V114.86H442.01ZM185.88,314.85h12.47a18.482,18.482,0,0,0,35.17-7.95V253.55a18.479,18.479,0,0,0-35.18-7.93H185.88a19.211,19.211,0,0,0-7.66,1.6V220.18c0-42.58,35.13-77.23,78.3-77.23a77.336,77.336,0,0,1,77.26,77.23v27.05a19.363,19.363,0,0,0-7.69-1.61H313.66a18.479,18.479,0,0,0-35.18,7.93V306.9a18.482,18.482,0,0,0,35.17,7.95h12.44c11.95,0,21.67-11.02,21.67-24.56v-20.1c0-.7-.03-1.39-.08-2.07a8.758,8.758,0,0,0,.08-1.02V220.18a91.322,91.322,0,0,0-91.24-91.2,92.45,92.45,0,0,0-65.14,26.39,90.056,90.056,0,0,0-27.14,64.81V267.1a7.009,7.009,0,0,0,.08,1.02c-.05.68-.08,1.37-.08,2.07v20.1C164.24,303.83,173.95,314.85,185.88,314.85Zm24.62-61.3a4.525,4.525,0,0,1,9.05,0V306.9a4.525,4.525,0,0,1-9.05,0Zm91,53.35a4.525,4.525,0,0,1-9.05,0V253.55a4.525,4.525,0,0,1,9.05,0Zm32.28-16.61c0,5.73-3.52,10.58-7.69,10.58H315.47V259.6h10.62c4.17,0,7.69,4.85,7.69,10.59Zm-155.56-20.1c0-5.64,3.58-10.59,7.66-10.59h10.65v41.27H185.88c-4.08,0-7.66-4.94-7.66-10.58Zm169.54-50.01a91.322,91.322,0,0,0-91.24-91.2,92.45,92.45,0,0,0-65.14,26.39,90.056,90.056,0,0,0-27.14,64.81V267.1a7.009,7.009,0,0,0,.08,1.02c-.05.68-.08,1.37-.08,2.07v20.1c0,13.54,9.71,24.56,21.64,24.56h12.47a18.482,18.482,0,0,0,35.17-7.95V253.55a18.479,18.479,0,0,0-35.18-7.93H185.88a19.211,19.211,0,0,0-7.66,1.6V220.18c0-42.58,35.13-77.23,78.3-77.23a77.336,77.336,0,0,1,77.26,77.23v27.05a19.363,19.363,0,0,0-7.69-1.61H313.66a18.479,18.479,0,0,0-35.18,7.93V306.9a18.482,18.482,0,0,0,35.17,7.95h12.44c11.95,0,21.67-11.02,21.67-24.56v-20.1c0-.7-.03-1.39-.08-2.07a8.758,8.758,0,0,0,.08-1.02ZM210.5,253.55a4.525,4.525,0,0,1,9.05,0V306.9a4.525,4.525,0,0,1-9.05,0Zm-24.62,6.05h10.65v41.27H185.88c-4.08,0-7.66-4.94-7.66-10.58v-20.1C178.22,264.55,181.8,259.6,185.88,259.6ZM301.5,306.9a4.525,4.525,0,0,1-9.05,0V253.55a4.525,4.525,0,0,1,9.05,0Zm32.28-16.61c0,5.73-3.52,10.58-7.69,10.58H315.47V259.6h10.62c4.17,0,7.69,4.85,7.69,10.59Zm13.98-70.11a91.322,91.322,0,0,0-91.24-91.2,92.45,92.45,0,0,0-65.14,26.39,90.056,90.056,0,0,0-27.14,64.81V267.1a7.009,7.009,0,0,0,.08,1.02c-.05.68-.08,1.37-.08,2.07v20.1c0,13.54,9.71,24.56,21.64,24.56h12.47a18.482,18.482,0,0,0,35.17-7.95V253.55a18.479,18.479,0,0,0-35.18-7.93H185.88a19.211,19.211,0,0,0-7.66,1.6V220.18c0-42.58,35.13-77.23,78.3-77.23a77.336,77.336,0,0,1,77.26,77.23v27.05a19.363,19.363,0,0,0-7.69-1.61H313.66a18.479,18.479,0,0,0-35.18,7.93V306.9a18.482,18.482,0,0,0,35.17,7.95h12.44c11.95,0,21.67-11.02,21.67-24.56v-20.1c0-.7-.03-1.39-.08-2.07a8.758,8.758,0,0,0,.08-1.02ZM210.5,253.55a4.525,4.525,0,0,1,9.05,0V306.9a4.525,4.525,0,0,1-9.05,0Zm-24.62,6.05h10.65v41.27H185.88c-4.08,0-7.66-4.94-7.66-10.58v-20.1C178.22,264.55,181.8,259.6,185.88,259.6ZM301.5,306.9a4.525,4.525,0,0,1-9.05,0V253.55a4.525,4.525,0,0,1,9.05,0Zm32.28-16.61c0,5.73-3.52,10.58-7.69,10.58H315.47V259.6h10.62c4.17,0,7.69,4.85,7.69,10.59Zm13.98-70.11a91.322,91.322,0,0,0-91.24-91.2,92.45,92.45,0,0,0-65.14,26.39,90.056,90.056,0,0,0-27.14,64.81V267.1a7.009,7.009,0,0,0,.08,1.02c-.05.68-.08,1.37-.08,2.07v20.1c0,13.54,9.71,24.56,21.64,24.56h12.47a18.482,18.482,0,0,0,35.17-7.95V253.55a18.479,18.479,0,0,0-35.18-7.93H185.88a19.211,19.211,0,0,0-7.66,1.6V220.18c0-42.58,35.13-77.23,78.3-77.23a77.336,77.336,0,0,1,77.26,77.23v27.05a19.363,19.363,0,0,0-7.69-1.61H313.66a18.479,18.479,0,0,0-35.18,7.93V306.9a18.482,18.482,0,0,0,35.17,7.95h12.44c11.95,0,21.67-11.02,21.67-24.56v-20.1c0-.7-.03-1.39-.08-2.07a8.758,8.758,0,0,0,.08-1.02ZM210.5,253.55a4.525,4.525,0,0,1,9.05,0V306.9a4.525,4.525,0,0,1-9.05,0Zm-24.62,6.05h10.65v41.27H185.88c-4.08,0-7.66-4.94-7.66-10.58v-20.1C178.22,264.55,181.8,259.6,185.88,259.6ZM301.5,306.9a4.525,4.525,0,0,1-9.05,0V253.55a4.525,4.525,0,0,1,9.05,0Zm32.28-16.61c0,5.73-3.52,10.58-7.69,10.58H315.47V259.6h10.62c4.17,0,7.69,4.85,7.69,10.59Zm13.98-70.11a91.322,91.322,0,0,0-91.24-91.2,92.45,92.45,0,0,0-65.14,26.39,90.056,90.056,0,0,0-27.14,64.81V267.1a7.009,7.009,0,0,0,.08,1.02c-.05.68-.08,1.37-.08,2.07v20.1c0,13.54,9.71,24.56,21.64,24.56h12.47a18.482,18.482,0,0,0,35.17-7.95V253.55a18.479,18.479,0,0,0-35.18-7.93H185.88a19.211,19.211,0,0,0-7.66,1.6V220.18c0-42.58,35.13-77.23,78.3-77.23a77.336,77.336,0,0,1,77.26,77.23v27.05a19.363,19.363,0,0,0-7.69-1.61H313.66a18.479,18.479,0,0,0-35.18,7.93V306.9a18.482,18.482,0,0,0,35.17,7.95h12.44c11.95,0,21.67-11.02,21.67-24.56v-20.1c0-.7-.03-1.39-.08-2.07a8.758,8.758,0,0,0,.08-1.02ZM210.5,253.55a4.525,4.525,0,0,1,9.05,0V306.9a4.525,4.525,0,0,1-9.05,0Zm-24.62,6.05h10.65v41.27H185.88c-4.08,0-7.66-4.94-7.66-10.58v-20.1C178.22,264.55,181.8,259.6,185.88,259.6ZM301.5,306.9a4.525,4.525,0,0,1-9.05,0V253.55a4.525,4.525,0,0,1,9.05,0Zm32.28-16.61c0,5.73-3.52,10.58-7.69,10.58H315.47V259.6h10.62c4.17,0,7.69,4.85,7.69,10.59Zm13.98-70.11a91.322,91.322,0,0,0-91.24-91.2,92.45,92.45,0,0,0-65.14,26.39,90.056,90.056,0,0,0-27.14,64.81V267.1a7.009,7.009,0,0,0,.08,1.02c-.05.68-.08,1.37-.08,2.07v20.1c0,13.54,9.71,24.56,21.64,24.56h12.47a18.482,18.482,0,0,0,35.17-7.95V253.55a18.479,18.479,0,0,0-35.18-7.93H185.88a19.211,19.211,0,0,0-7.66,1.6V220.18c0-42.58,35.13-77.23,78.3-77.23a77.336,77.336,0,0,1,77.26,77.23v27.05a19.363,19.363,0,0,0-7.69-1.61H313.66a18.479,18.479,0,0,0-35.18,7.93V306.9a18.482,18.482,0,0,0,35.17,7.95h12.44c11.95,0,21.67-11.02,21.67-24.56v-20.1c0-.7-.03-1.39-.08-2.07a8.758,8.758,0,0,0,.08-1.02ZM210.5,253.55a4.525,4.525,0,0,1,9.05,0V306.9a4.525,4.525,0,0,1-9.05,0Zm-24.62,6.05h10.65v41.27H185.88c-4.08,0-7.66-4.94-7.66-10.58v-20.1C178.22,264.55,181.8,259.6,185.88,259.6ZM301.5,306.9a4.525,4.525,0,0,1-9.05,0V253.55a4.525,4.525,0,0,1,9.05,0Zm32.28-16.61c0,5.73-3.52,10.58-7.69,10.58H315.47V259.6h10.62c4.17,0,7.69,4.85,7.69,10.59Zm13.98-70.11a91.322,91.322,0,0,0-91.24-91.2,92.45,92.45,0,0,0-65.14,26.39,90.056,90.056,0,0,0-27.14,64.81V267.1a7.009,7.009,0,0,0,.08,1.02c-.05.68-.08,1.37-.08,2.07v20.1c0,13.54,9.71,24.56,21.64,24.56h12.47a18.482,18.482,0,0,0,35.17-7.95V253.55a18.479,18.479,0,0,0-35.18-7.93H185.88a19.211,19.211,0,0,0-7.66,1.6V220.18c0-42.58,35.13-77.23,78.3-77.23a77.336,77.336,0,0,1,77.26,77.23v27.05a19.363,19.363,0,0,0-7.69-1.61H313.66a18.479,18.479,0,0,0-35.18,7.93V306.9a18.482,18.482,0,0,0,35.17,7.95h12.44c11.95,0,21.67-11.02,21.67-24.56v-20.1c0-.7-.03-1.39-.08-2.07a8.758,8.758,0,0,0,.08-1.02ZM210.5,253.55a4.525,4.525,0,0,1,9.05,0V306.9a4.525,4.525,0,0,1-9.05,0Zm-24.62,6.05h10.65v41.27H185.88c-4.08,0-7.66-4.94-7.66-10.58v-20.1C178.22,264.55,181.8,259.6,185.88,259.6ZM301.5,306.9a4.525,4.525,0,0,1-9.05,0V253.55a4.525,4.525,0,0,1,9.05,0Zm32.28-16.61c0,5.73-3.52,10.58-7.69,10.58H315.47V259.6h10.62c4.17,0,7.69,4.85,7.69,10.59ZM449,100.89H63a6.982,6.982,0,0,0-6.99,6.98V346.5A6.982,6.982,0,0,0,63,353.48H449a6.982,6.982,0,0,0,6.99-6.98V107.87A6.982,6.982,0,0,0,449,100.89Zm-6.99,238.62H69.99V114.86H442.01ZM185.88,314.85h12.47a18.482,18.482,0,0,0,35.17-7.95V253.55a18.479,18.479,0,0,0-35.18-7.93H185.88a19.211,19.211,0,0,0-7.66,1.6V220.18c0-42.58,35.13-77.23,78.3-77.23a77.336,77.336,0,0,1,77.26,77.23v27.05a19.363,19.363,0,0,0-7.69-1.61H313.66a18.479,18.479,0,0,0-35.18,7.93V306.9a18.482,18.482,0,0,0,35.17,7.95h12.44c11.95,0,21.67-11.02,21.67-24.56v-20.1c0-.7-.03-1.39-.08-2.07a8.758,8.758,0,0,0,.08-1.02V220.18a91.322,91.322,0,0,0-91.24-91.2,92.45,92.45,0,0,0-65.14,26.39,90.056,90.056,0,0,0-27.14,64.81V267.1a7.009,7.009,0,0,0,.08,1.02c-.05.68-.08,1.37-.08,2.07v20.1C164.24,303.83,173.95,314.85,185.88,314.85Zm24.62-61.3a4.525,4.525,0,0,1,9.05,0V306.9a4.525,4.525,0,0,1-9.05,0Zm91,53.35a4.525,4.525,0,0,1-9.05,0V253.55a4.525,4.525,0,0,1,9.05,0Zm32.28-16.61c0,5.73-3.52,10.58-7.69,10.58H315.47V259.6h10.62c4.17,0,7.69,4.85,7.69,10.59Zm-155.56-20.1c0-5.64,3.58-10.59,7.66-10.59h10.65v41.27H185.88c-4.08,0-7.66-4.94-7.66-10.58Zm169.54-50.01a91.322,91.322,0,0,0-91.24-91.2,92.45,92.45,0,0,0-65.14,26.39,90.056,90.056,0,0,0-27.14,64.81V267.1a7.009,7.009,0,0,0,.08,1.02c-.05.68-.08,1.37-.08,2.07v20.1c0,13.54,9.71,24.56,21.64,24.56h12.47a18.482,18.482,0,0,0,35.17-7.95V253.55a18.479,18.479,0,0,0-35.18-7.93H185.88a19.211,19.211,0,0,0-7.66,1.6V220.18c0-42.58,35.13-77.23,78.3-77.23a77.336,77.336,0,0,1,77.26,77.23v27.05a19.363,19.363,0,0,0-7.69-1.61H313.66a18.479,18.479,0,0,0-35.18,7.93V306.9a18.482,18.482,0,0,0,35.17,7.95h12.44c11.95,0,21.67-11.02,21.67-24.56v-20.1c0-.7-.03-1.39-.08-2.07a8.758,8.758,0,0,0,.08-1.02ZM210.5,253.55a4.525,4.525,0,0,1,9.05,0V306.9a4.525,4.525,0,0,1-9.05,0Zm-24.62,6.05h10.65v41.27H185.88c-4.08,0-7.66-4.94-7.66-10.58v-20.1C178.22,264.55,181.8,259.6,185.88,259.6ZM301.5,306.9a4.525,4.525,0,0,1-9.05,0V253.55a4.525,4.525,0,0,1,9.05,0Zm32.28-16.61c0,5.73-3.52,10.58-7.69,10.58H315.47V259.6h10.62c4.17,0,7.69,4.85,7.69,10.59Zm13.98-70.11a91.322,91.322,0,0,0-91.24-91.2,92.45,92.45,0,0,0-65.14,26.39,90.056,90.056,0,0,0-27.14,64.81V267.1a7.009,7.009,0,0,0,.08,1.02c-.05.68-.08,1.37-.08,2.07v20.1c0,13.54,9.71,24.56,21.64,24.56h12.47a18.482,18.482,0,0,0,35.17-7.95V253.55a18.479,18.479,0,0,0-35.18-7.93H185.88a19.211,19.211,0,0,0-7.66,1.6V220.18c0-42.58,35.13-77.23,78.3-77.23a77.336,77.336,0,0,1,77.26,77.23v27.05a19.363,19.363,0,0,0-7.69-1.61H313.66a18.479,18.479,0,0,0-35.18,7.93V306.9a18.482,18.482,0,0,0,35.17,7.95h12.44c11.95,0,21.67-11.02,21.67-24.56v-20.1c0-.7-.03-1.39-.08-2.07a8.758,8.758,0,0,0,.08-1.02ZM210.5,253.55a4.525,4.525,0,0,1,9.05,0V306.9a4.525,4.525,0,0,1-9.05,0Zm-24.62,6.05h10.65v41.27H185.88c-4.08,0-7.66-4.94-7.66-10.58v-20.1C178.22,264.55,181.8,259.6,185.88,259.6ZM301.5,306.9a4.525,4.525,0,0,1-9.05,0V253.55a4.525,4.525,0,0,1,9.05,0Zm32.28-16.61c0,5.73-3.52,10.58-7.69,10.58H315.47V259.6h10.62c4.17,0,7.69,4.85,7.69,10.59Zm13.98-70.11a91.322,91.322,0,0,0-91.24-91.2,92.45,92.45,0,0,0-65.14,26.39,90.056,90.056,0,0,0-27.14,64.81V267.1a7.009,7.009,0,0,0,.08,1.02c-.05.68-.08,1.37-.08,2.07v20.1c0,13.54,9.71,24.56,21.64,24.56h12.47a18.482,18.482,0,0,0,35.17-7.95V253.55a18.479,18.479,0,0,0-35.18-7.93H185.88a19.211,19.211,0,0,0-7.66,1.6V220.18c0-42.58,35.13-77.23,78.3-77.23a77.336,77.336,0,0,1,77.26,77.23v27.05a19.363,19.363,0,0,0-7.69-1.61H313.66a18.479,18.479,0,0,0-35.18,7.93V306.9a18.482,18.482,0,0,0,35.17,7.95h12.44c11.95,0,21.67-11.02,21.67-24.56v-20.1c0-.7-.03-1.39-.08-2.07a8.758,8.758,0,0,0,.08-1.02ZM210.5,253.55a4.525,4.525,0,0,1,9.05,0V306.9a4.525,4.525,0,0,1-9.05,0Zm-24.62,6.05h10.65v41.27H185.88c-4.08,0-7.66-4.94-7.66-10.58v-20.1C178.22,264.55,181.8,259.6,185.88,259.6ZM301.5,306.9a4.525,4.525,0,0,1-9.05,0V253.55a4.525,4.525,0,0,1,9.05,0Zm32.28-16.61c0,5.73-3.52,10.58-7.69,10.58H315.47V259.6h10.62c4.17,0,7.69,4.85,7.69,10.59Zm13.98-70.11a91.322,91.322,0,0,0-91.24-91.2,92.45,92.45,0,0,0-65.14,26.39,90.056,90.056,0,0,0-27.14,64.81V267.1a7.009,7.009,0,0,0,.08,1.02c-.05.68-.08,1.37-.08,2.07v20.1c0,13.54,9.71,24.56,21.64,24.56h12.47a18.482,18.482,0,0,0,35.17-7.95V253.55a18.479,18.479,0,0,0-35.18-7.93H185.88a19.211,19.211,0,0,0-7.66,1.6V220.18c0-42.58,35.13-77.23,78.3-77.23a77.336,77.336,0,0,1,77.26,77.23v27.05a19.363,19.363,0,0,0-7.69-1.61H313.66a18.479,18.479,0,0,0-35.18,7.93V306.9a18.482,18.482,0,0,0,35.17,7.95h12.44c11.95,0,21.67-11.02,21.67-24.56v-20.1c0-.7-.03-1.39-.08-2.07a8.758,8.758,0,0,0,.08-1.02ZM210.5,253.55a4.525,4.525,0,0,1,9.05,0V306.9a4.525,4.525,0,0,1-9.05,0Zm-24.62,6.05h10.65v41.27H185.88c-4.08,0-7.66-4.94-7.66-10.58v-20.1C178.22,264.55,181.8,259.6,185.88,259.6ZM301.5,306.9a4.525,4.525,0,0,1-9.05,0V253.55a4.525,4.525,0,0,1,9.05,0Zm32.28-16.61c0,5.73-3.52,10.58-7.69,10.58H315.47V259.6h10.62c4.17,0,7.69,4.85,7.69,10.59Zm13.98-70.11a91.322,91.322,0,0,0-91.24-91.2,92.45,92.45,0,0,0-65.14,26.39,90.056,90.056,0,0,0-27.14,64.81V267.1a7.009,7.009,0,0,0,.08,1.02c-.05.68-.08,1.37-.08,2.07v20.1c0,13.54,9.71,24.56,21.64,24.56h12.47a18.482,18.482,0,0,0,35.17-7.95V253.55a18.479,18.479,0,0,0-35.18-7.93H185.88a19.211,19.211,0,0,0-7.66,1.6V220.18c0-42.58,35.13-77.23,78.3-77.23a77.336,77.336,0,0,1,77.26,77.23v27.05a19.363,19.363,0,0,0-7.69-1.61H313.66a18.479,18.479,0,0,0-35.18,7.93V306.9a18.482,18.482,0,0,0,35.17,7.95h12.44c11.95,0,21.67-11.02,21.67-24.56v-20.1c0-.7-.03-1.39-.08-2.07a8.758,8.758,0,0,0,.08-1.02ZM210.5,253.55a4.525,4.525,0,0,1,9.05,0V306.9a4.525,4.525,0,0,1-9.05,0Zm-24.62,6.05h10.65v41.27H185.88c-4.08,0-7.66-4.94-7.66-10.58v-20.1C178.22,264.55,181.8,259.6,185.88,259.6ZM301.5,306.9a4.525,4.525,0,0,1-9.05,0V253.55a4.525,4.525,0,0,1,9.05,0Zm32.28-16.61c0,5.73-3.52,10.58-7.69,10.58H315.47V259.6h10.62c4.17,0,7.69,4.85,7.69,10.59Zm13.98-70.11a91.322,91.322,0,0,0-91.24-91.2,92.45,92.45,0,0,0-65.14,26.39,90.056,90.056,0,0,0-27.14,64.81V267.1a7.009,7.009,0,0,0,.08,1.02c-.05.68-.08,1.37-.08,2.07v20.1c0,13.54,9.71,24.56,21.64,24.56h12.47a18.482,18.482,0,0,0,35.17-7.95V253.55a18.479,18.479,0,0,0-35.18-7.93H185.88a19.211,19.211,0,0,0-7.66,1.6V220.18c0-42.58,35.13-77.23,78.3-77.23a77.336,77.336,0,0,1,77.26,77.23v27.05a19.363,19.363,0,0,0-7.69-1.61H313.66a18.479,18.479,0,0,0-35.18,7.93V306.9a18.482,18.482,0,0,0,35.17,7.95h12.44c11.95,0,21.67-11.02,21.67-24.56v-20.1c0-.7-.03-1.39-.08-2.07a8.758,8.758,0,0,0,.08-1.02ZM210.5,253.55a4.525,4.525,0,0,1,9.05,0V306.9a4.525,4.525,0,0,1-9.05,0Zm-24.62,6.05h10.65v41.27H185.88c-4.08,0-7.66-4.94-7.66-10.58v-20.1C178.22,264.55,181.8,259.6,185.88,259.6ZM301.5,306.9a4.525,4.525,0,0,1-9.05,0V253.55a4.525,4.525,0,0,1,9.05,0Zm32.28-16.61c0,5.73-3.52,10.58-7.69,10.58H315.47V259.6h10.62c4.17,0,7.69,4.85,7.69,10.59Zm13.98-70.11a91.322,91.322,0,0,0-91.24-91.2,92.45,92.45,0,0,0-65.14,26.39,90.056,90.056,0,0,0-27.14,64.81V267.1a7.009,7.009,0,0,0,.08,1.02c-.05.68-.08,1.37-.08,2.07v20.1c0,13.54,9.71,24.56,21.64,24.56h12.47a18.482,18.482,0,0,0,35.17-7.95V253.55a18.479,18.479,0,0,0-35.18-7.93H185.88a19.211,19.211,0,0,0-7.66,1.6V220.18c0-42.58,35.13-77.23,78.3-77.23a77.336,77.336,0,0,1,77.26,77.23v27.05a19.363,19.363,0,0,0-7.69-1.61H313.66a18.479,18.479,0,0,0-35.18,7.93V306.9a18.482,18.482,0,0,0,35.17,7.95h12.44c11.95,0,21.67-11.02,21.67-24.56v-20.1c0-.7-.03-1.39-.08-2.07a8.758,8.758,0,0,0,.08-1.02ZM210.5,253.55a4.525,4.525,0,0,1,9.05,0V306.9a4.525,4.525,0,0,1-9.05,0Zm-24.62,6.05h10.65v41.27H185.88c-4.08,0-7.66-4.94-7.66-10.58v-20.1C178.22,264.55,181.8,259.6,185.88,259.6ZM301.5,306.9a4.525,4.525,0,0,1-9.05,0V253.55a4.525,4.525,0,0,1,9.05,0Zm32.28-16.61c0,5.73-3.52,10.58-7.69,10.58H315.47V259.6h10.62c4.17,0,7.69,4.85,7.69,10.59Zm13.98-70.11a91.322,91.322,0,0,0-91.24-91.2,92.45,92.45,0,0,0-65.14,26.39,90.056,90.056,0,0,0-27.14,64.81V267.1a7.009,7.009,0,0,0,.08,1.02c-.05.68-.08,1.37-.08,2.07v20.1c0,13.54,9.71,24.56,21.64,24.56h12.47a18.482,18.482,0,0,0,35.17-7.95V253.55a18.479,18.479,0,0,0-35.18-7.93H185.88a19.211,19.211,0,0,0-7.66,1.6V220.18c0-42.58,35.13-77.23,78.3-77.23a77.336,77.336,0,0,1,77.26,77.23v27.05a19.363,19.363,0,0,0-7.69-1.61H313.66a18.479,18.479,0,0,0-35.18,7.93V306.9a18.482,18.482,0,0,0,35.17,7.95h12.44c11.95,0,21.67-11.02,21.67-24.56v-20.1c0-.7-.03-1.39-.08-2.07a8.758,8.758,0,0,0,.08-1.02ZM210.5,253.55a4.525,4.525,0,0,1,9.05,0V306.9a4.525,4.525,0,0,1-9.05,0Zm-24.62,6.05h10.65v41.27H185.88c-4.08,0-7.66-4.94-7.66-10.58v-20.1C178.22,264.55,181.8,259.6,185.88,259.6ZM301.5,306.9a4.525,4.525,0,0,1-9.05,0V253.55a4.525,4.525,0,0,1,9.05,0Zm32.28-16.61c0,5.73-3.52,10.58-7.69,10.58H315.47V259.6h10.62c4.17,0,7.69,4.85,7.69,10.59Zm13.98-70.11a91.322,91.322,0,0,0-91.24-91.2,92.45,92.45,0,0,0-65.14,26.39,90.056,90.056,0,0,0-27.14,64.81V267.1a7.009,7.009,0,0,0,.08,1.02c-.05.68-.08,1.37-.08,2.07v20.1c0,13.54,9.71,24.56,21.64,24.56h12.47a18.482,18.482,0,0,0,35.17-7.95V253.55a18.479,18.479,0,0,0-35.18-7.93H185.88a19.211,19.211,0,0,0-7.66,1.6V220.18c0-42.58,35.13-77.23,78.3-77.23a77.336,77.336,0,0,1,77.26,77.23v27.05a19.363,19.363,0,0,0-7.69-1.61H313.66a18.479,18.479,0,0,0-35.18,7.93V306.9a18.482,18.482,0,0,0,35.17,7.95h12.44c11.95,0,21.67-11.02,21.67-24.56v-20.1c0-.7-.03-1.39-.08-2.07a8.758,8.758,0,0,0,.08-1.02ZM210.5,253.55a4.525,4.525,0,0,1,9.05,0V306.9a4.525,4.525,0,0,1-9.05,0Zm-24.62,6.05h10.65v41.27H185.88c-4.08,0-7.66-4.94-7.66-10.58v-20.1C178.22,264.55,181.8,259.6,185.88,259.6ZM301.5,306.9a4.525,4.525,0,0,1-9.05,0V253.55a4.525,4.525,0,0,1,9.05,0Zm32.28-16.61c0,5.73-3.52,10.58-7.69,10.58H315.47V259.6h10.62c4.17,0,7.69,4.85,7.69,10.59Zm13.98-70.11a91.322,91.322,0,0,0-91.24-91.2,92.45,92.45,0,0,0-65.14,26.39,90.056,90.056,0,0,0-27.14,64.81V267.1a7.009,7.009,0,0,0,.08,1.02c-.05.68-.08,1.37-.08,2.07v20.1c0,13.54,9.71,24.56,21.64,24.56h12.47a18.482,18.482,0,0,0,35.17-7.95V253.55a18.479,18.479,0,0,0-35.18-7.93H185.88a19.211,19.211,0,0,0-7.66,1.6V220.18c0-42.58,35.13-77.23,78.3-77.23a77.336,77.336,0,0,1,77.26,77.23v27.05a19.363,19.363,0,0,0-7.69-1.61H313.66a18.479,18.479,0,0,0-35.18,7.93V306.9a18.482,18.482,0,0,0,35.17,7.95h12.44c11.95,0,21.67-11.02,21.67-24.56v-20.1c0-.7-.03-1.39-.08-2.07a8.758,8.758,0,0,0,.08-1.02ZM210.5,253.55a4.525,4.525,0,0,1,9.05,0V306.9a4.525,4.525,0,0,1-9.05,0Zm-24.62,6.05h10.65v41.27H185.88c-4.08,0-7.66-4.94-7.66-10.58v-20.1C178.22,264.55,181.8,259.6,185.88,259.6ZM301.5,306.9a4.525,4.525,0,0,1-9.05,0V253.55a4.525,4.525,0,0,1,9.05,0Zm32.28-16.61c0,5.73-3.52,10.58-7.69,10.58H315.47V259.6h10.62c4.17,0,7.69,4.85,7.69,10.59ZM449,100.89H63a6.982,6.982,0,0,0-6.99,6.98V346.5A6.982,6.982,0,0,0,63,353.48H449a6.982,6.982,0,0,0,6.99-6.98V107.87A6.982,6.982,0,0,0,449,100.89Zm-6.99,238.62H69.99V114.86H442.01ZM185.88,314.85h12.47a18.482,18.482,0,0,0,35.17-7.95V253.55a18.479,18.479,0,0,0-35.18-7.93H185.88a19.211,19.211,0,0,0-7.66,1.6V220.18c0-42.58,35.13-77.23,78.3-77.23a77.336,77.336,0,0,1,77.26,77.23v27.05a19.363,19.363,0,0,0-7.69-1.61H313.66a18.479,18.479,0,0,0-35.18,7.93V306.9a18.482,18.482,0,0,0,35.17,7.95h12.44c11.95,0,21.67-11.02,21.67-24.56v-20.1c0-.7-.03-1.39-.08-2.07a8.758,8.758,0,0,0,.08-1.02V220.18a91.322,91.322,0,0,0-91.24-91.2,92.45,92.45,0,0,0-65.14,26.39,90.056,90.056,0,0,0-27.14,64.81V267.1a7.009,7.009,0,0,0,.08,1.02c-.05.68-.08,1.37-.08,2.07v20.1C164.24,303.83,173.95,314.85,185.88,314.85Zm24.62-61.3a4.525,4.525,0,0,1,9.05,0V306.9a4.525,4.525,0,0,1-9.05,0Zm91,53.35a4.525,4.525,0,0,1-9.05,0V253.55a4.525,4.525,0,0,1,9.05,0Zm32.28-16.61c0,5.73-3.52,10.58-7.69,10.58H315.47V259.6h10.62c4.17,0,7.69,4.85,7.69,10.59Zm-155.56-20.1c0-5.64,3.58-10.59,7.66-10.59h10.65v41.27H185.88c-4.08,0-7.66-4.94-7.66-10.58Zm169.54-50.01a91.322,91.322,0,0,0-91.24-91.2,92.45,92.45,0,0,0-65.14,26.39,90.056,90.056,0,0,0-27.14,64.81V267.1a7.009,7.009,0,0,0,.08,1.02c-.05.68-.08,1.37-.08,2.07v20.1c0,13.54,9.71,24.56,21.64,24.56h12.47a18.482,18.482,0,0,0,35.17-7.95V253.55a18.479,18.479,0,0,0-35.18-7.93H185.88a19.211,19.211,0,0,0-7.66,1.6V220.18c0-42.58,35.13-77.23,78.3-77.23a77.336,77.336,0,0,1,77.26,77.23v27.05a19.363,19.363,0,0,0-7.69-1.61H313.66a18.479,18.479,0,0,0-35.18,7.93V306.9a18.482,18.482,0,0,0,35.17,7.95h12.44c11.95,0,21.67-11.02,21.67-24.56v-20.1c0-.7-.03-1.39-.08-2.07a8.758,8.758,0,0,0,.08-1.02ZM210.5,253.55a4.525,4.525,0,0,1,9.05,0V306.9a4.525,4.525,0,0,1-9.05,0Zm-24.62,6.05h10.65v41.27H185.88c-4.08,0-7.66-4.94-7.66-10.58v-20.1C178.22,264.55,181.8,259.6,185.88,259.6ZM301.5,306.9a4.525,4.525,0,0,1-9.05,0V253.55a4.525,4.525,0,0,1,9.05,0Zm32.28-16.61c0,5.73-3.52,10.58-7.69,10.58H315.47V259.6h10.62c4.17,0,7.69,4.85,7.69,10.59Zm13.98-70.11a91.322,91.322,0,0,0-91.24-91.2,92.45,92.45,0,0,0-65.14,26.39,90.056,90.056,0,0,0-27.14,64.81V267.1a7.009,7.009,0,0,0,.08,1.02c-.05.68-.08,1.37-.08,2.07v20.1c0,13.54,9.71,24.56,21.64,24.56h12.47a18.482,18.482,0,0,0,35.17-7.95V253.55a18.479,18.479,0,0,0-35.18-7.93H185.88a19.211,19.211,0,0,0-7.66,1.6V220.18c0-42.58,35.13-77.23,78.3-77.23a77.336,77.336,0,0,1,77.26,77.23v27.05a19.363,19.363,0,0,0-7.69-1.61H313.66a18.479,18.479,0,0,0-35.18,7.93V306.9a18.482,18.482,0,0,0,35.17,7.95h12.44c11.95,0,21.67-11.02,21.67-24.56v-20.1c0-.7-.03-1.39-.08-2.07a8.758,8.758,0,0,0,.08-1.02ZM210.5,253.55a4.525,4.525,0,0,1,9.05,0V306.9a4.525,4.525,0,0,1-9.05,0Zm-24.62,6.05h10.65v41.27H185.88c-4.08,0-7.66-4.94-7.66-10.58v-20.1C178.22,264.55,181.8,259.6,185.88,259.6ZM301.5,306.9a4.525,4.525,0,0,1-9.05,0V253.55a4.525,4.525,0,0,1,9.05,0Zm32.28-16.61c0,5.73-3.52,10.58-7.69,10.58H315.47V259.6h10.62c4.17,0,7.69,4.85,7.69,10.59Zm13.98-70.11a91.322,91.322,0,0,0-91.24-91.2,92.45,92.45,0,0,0-65.14,26.39,90.056,90.056,0,0,0-27.14,64.81V267.1a7.009,7.009,0,0,0,.08,1.02c-.05.68-.08,1.37-.08,2.07v20.1c0,13.54,9.71,24.56,21.64,24.56h12.47a18.482,18.482,0,0,0,35.17-7.95V253.55a18.479,18.479,0,0,0-35.18-7.93H185.88a19.211,19.211,0,0,0-7.66,1.6V220.18c0-42.58,35.13-77.23,78.3-77.23a77.336,77.336,0,0,1,77.26,77.23v27.05a19.363,19.363,0,0,0-7.69-1.61H313.66a18.479,18.479,0,0,0-35.18,7.93V306.9a18.482,18.482,0,0,0,35.17,7.95h12.44c11.95,0,21.67-11.02,21.67-24.56v-20.1c0-.7-.03-1.39-.08-2.07a8.758,8.758,0,0,0,.08-1.02ZM210.5,253.55a4.525,4.525,0,0,1,9.05,0V306.9a4.525,4.525,0,0,1-9.05,0Zm-24.62,6.05h10.65v41.27H185.88c-4.08,0-7.66-4.94-7.66-10.58v-20.1C178.22,264.55,181.8,259.6,185.88,259.6ZM301.5,306.9a4.525,4.525,0,0,1-9.05,0V253.55a4.525,4.525,0,0,1,9.05,0Zm32.28-16.61c0,5.73-3.52,10.58-7.69,10.58H315.47V259.6h10.62c4.17,0,7.69,4.85,7.69,10.59Zm13.98-70.11a91.322,91.322,0,0,0-91.24-91.2,92.45,92.45,0,0,0-65.14,26.39,90.056,90.056,0,0,0-27.14,64.81V267.1a7.009,7.009,0,0,0,.08,1.02c-.05.68-.08,1.37-.08,2.07v20.1c0,13.54,9.71,24.56,21.64,24.56h12.47a18.482,18.482,0,0,0,35.17-7.95V253.55a18.479,18.479,0,0,0-35.18-7.93H185.88a19.211,19.211,0,0,0-7.66,1.6V220.18c0-42.58,35.13-77.23,78.3-77.23a77.336,77.336,0,0,1,77.26,77.23v27.05a19.363,19.363,0,0,0-7.69-1.61H313.66a18.479,18.479,0,0,0-35.18,7.93V306.9a18.482,18.482,0,0,0,35.17,7.95h12.44c11.95,0,21.67-11.02,21.67-24.56v-20.1c0-.7-.03-1.39-.08-2.07a8.758,8.758,0,0,0,.08-1.02ZM210.5,253.55a4.525,4.525,0,0,1,9.05,0V306.9a4.525,4.525,0,0,1-9.05,0Zm-24.62,6.05h10.65v41.27H185.88c-4.08,0-7.66-4.94-7.66-10.58v-20.1C178.22,264.55,181.8,259.6,185.88,259.6ZM301.5,306.9a4.525,4.525,0,0,1-9.05,0V253.55a4.525,4.525,0,0,1,9.05,0Zm32.28-16.61c0,5.73-3.52,10.58-7.69,10.58H315.47V259.6h10.62c4.17,0,7.69,4.85,7.69,10.59Zm13.98-70.11a91.322,91.322,0,0,0-91.24-91.2,92.45,92.45,0,0,0-65.14,26.39,90.056,90.056,0,0,0-27.14,64.81V267.1a7.009,7.009,0,0,0,.08,1.02c-.05.68-.08,1.37-.08,2.07v20.1c0,13.54,9.71,24.56,21.64,24.56h12.47a18.482,18.482,0,0,0,35.17-7.95V253.55a18.479,18.479,0,0,0-35.18-7.93H185.88a19.211,19.211,0,0,0-7.66,1.6V220.18c0-42.58,35.13-77.23,78.3-77.23a77.336,77.336,0,0,1,77.26,77.23v27.05a19.363,19.363,0,0,0-7.69-1.61H313.66a18.479,18.479,0,0,0-35.18,7.93V306.9a18.482,18.482,0,0,0,35.17,7.95h12.44c11.95,0,21.67-11.02,21.67-24.56v-20.1c0-.7-.03-1.39-.08-2.07a8.758,8.758,0,0,0,.08-1.02ZM210.5,253.55a4.525,4.525,0,0,1,9.05,0V306.9a4.525,4.525,0,0,1-9.05,0Zm-24.62,6.05h10.65v41.27H185.88c-4.08,0-7.66-4.94-7.66-10.58v-20.1C178.22,264.55,181.8,259.6,185.88,259.6ZM301.5,306.9a4.525,4.525,0,0,1-9.05,0V253.55a4.525,4.525,0,0,1,9.05,0Zm32.28-16.61c0,5.73-3.52,10.58-7.69,10.58H315.47V259.6h10.62c4.17,0,7.69,4.85,7.69,10.59Z"/><path class="cls-2" d="M219.55,253.55V306.9a4.525,4.525,0,0,1-9.05,0V253.55a4.525,4.525,0,0,1,9.05,0Z"/><path class="cls-2" d="M301.5,253.55V306.9a4.525,4.525,0,0,1-9.05,0V253.55a4.525,4.525,0,0,1,9.05,0Z"/><path class="cls-2" d="M498.03,385.15v21.81a21.851,21.851,0,0,1-21.85,21.81H35.82a21.851,21.851,0,0,1-21.85-21.81V385.15H197.29v7.16a21.194,21.194,0,0,0,21.16,21.16h75.1a21.194,21.194,0,0,0,21.16-21.16v-7.16Z"/><path class="cls-2" d="M461.76,83.23H50.24A11.9,11.9,0,0,0,38.35,95.12V371.17h435.3V95.12A11.9,11.9,0,0,0,461.76,83.23ZM455.99,346.5a6.982,6.982,0,0,1-6.99,6.98H63a6.982,6.982,0,0,1-6.99-6.98V107.87A6.982,6.982,0,0,1,63,100.89H449a6.982,6.982,0,0,1,6.99,6.98Z"/></svg>
