<svg id="Layer_1" enable-background="new 0 0 64 64" viewBox="0 0 64 64" xmlns="http://www.w3.org/2000/svg"><g><path d="m53.9 18h-43.8c-3.4 0-6.1 2.7-6.1 6.1v23.9c0 3.3 2.7 6.1 6.1 6.1h43.9c3.3 0 6.1-2.7 6.1-6.1v-23.9c-.1-3.4-2.8-6.1-6.2-6.1z" fill="#3d5df8"/></g><g><path d="m45.9 3h-27.8c-2.8 0-5.1 2.3-5.1 5.1v19.9c0 .2.1.5.2.7l6 7c.2.2.4.3.7.3.3 0 .5-.1.7-.3l11.4-11.3 11.3 10.4c.4.3.9.4 1.3 0l6-5c.2-.2.4-.5.4-.8v-20.9c0-2.8-2.3-5.1-5.1-5.1z" fill="#e3dcff"/></g><g><path d="m13 18v10c0 .2.1.5.2.7l6 7c.2.2.4.3.7.3.3 0 .5-.1.7-.3l11.4-11.3 11.3 10.4c.4.3.9.4 1.3 0l6-5c.2-.2.4-.5.4-.8v-11c-5 3.8-11.7 5-19 5s-14-1.2-19-5z" fill="#c9c1f7"/></g><g><path d="m19 36c-.5 0-1-.2-1.4-.6l-9.5-9.5c-.8-.8-.8-2 0-2.8s2-.8 2.8 0l9.5 9.5c.8.8.8 2 0 2.8-.4.4-.9.6-1.4.6z" fill="#2345c1"/></g><g><path d="m45 36c-.5 0-1-.2-1.4-.6-.8-.8-.8-2 0-2.8l10-10c.8-.8 2-.8 2.8 0s.8 2 0 2.8l-10 10c-.4.4-.9.6-1.4.6z" fill="#2345c1"/></g><g><g><path d="m27 18h-8c-1.1 0-2-.9-2-2s.9-2 2-2h8c1.1 0 2 .9 2 2s-.9 2-2 2z" fill="#3d5df8"/></g><g><path d="m23 12h-4c-1.1 0-2-.9-2-2s.9-2 2-2h4c1.1 0 2 .9 2 2s-.9 2-2 2z" fill="#3d5df8"/></g><g><path d="m34 18h-1c-1.1 0-2-.9-2-2s.9-2 2-2h1c1.1 0 2 .9 2 2s-.9 2-2 2z" fill="#3d5df8"/></g></g><g><path d="m55.8 48.2c-.5 0-1-.2-1.4-.6l-3.1-3.1c-.8-.8-.8-2 0-2.8s2-.8 2.8 0l3.1 3.1c.8.8.8 2 0 2.8-.3.4-.8.6-1.4.6z" fill="#6989ff"/></g><g><path d="m8.2 48.2c-.5 0-1-.2-1.4-.6-.8-.8-.8-2 0-2.8l21-21c2.4-2.4 6.2-2.4 8.6 0l13.3 13.3c.8.8.8 2 0 2.8s-2 .8-2.8 0l-13.4-13.3c-.8-.8-2.1-.8-2.9 0l-21 21c-.4.4-.9.6-1.4.6z" fill="#6989ff"/></g><g><g><path d="m44.7 54.3-6.3-6.3 5.3-5.3c.3-.3.4-.7.2-1.1-.1-.4-.5-.6-.9-.6h-18c-.6 0-1 .4-1 1v18c0 .4.2.8.6.9.4.2.8.1 1.1-.2l5.3-5.3 6.3 6.3c.2.2.5.3.7.3s.5-.1.7-.3l6-6c.4-.4.4-1 0-1.4z" fill="#ff8917"/></g><g><path d="m26 45v9c0 .6-.4 1-1 1-.6 0-1-.4-1-1v-9c0-.6.4-1 1-1 .6 0 1 .4 1 1z" fill="#ffa357"/></g><g><path d="m34 55.6 4.7 4.7c.4.4.4 1 0 1.4-.4.4-1 .4-1.4 0l-4.7-4.7c-.4-.4-.4-1 0-1.4.4-.4 1-.4 1.4 0z" fill="#e86c07"/></g></g><g><path d="m34 5h-13c-.6 0-1-.4-1-1 0-.6.4-1 1-1h13c.6 0 1 .4 1 1 0 .6-.4 1-1 1z" fill="#f5f3ff"/></g><g><path d="m44 5h-5c-.6 0-1-.4-1-1 0-.6.4-1 1-1h5c.6 0 1 .4 1 1 0 .6-.4 1-1 1z" fill="#f5f3ff"/></g></svg>