<svg clip-rule="evenodd" fill-rule="evenodd" stroke-linejoin="round" stroke-miterlimit="2" viewBox="0 0 510 510" xmlns="http://www.w3.org/2000/svg"><g><g><g><path d="m426.198 423.883c-28.111 26.153-70.605 42.83-118.122 42.83-84.558 0-153.208-52.808-153.208-117.852s68.65-117.851 153.208-117.851c84.557 0 153.207 52.807 153.207 117.851 0 9.885-1.586 19.486-4.571 28.663 0 0 19.555 21.006 32.167 34.554 1.821 1.957 2.315 4.804 1.258 7.258-1.057 2.455-3.464 4.054-6.136 4.076-21.438.175-57.803.471-57.803.471z" fill="#fdcd56"/></g><path d="m154.92 284.653s-45.006 58.531-67.616 87.937c-1.842 2.395-5.004 3.352-7.865 2.379s-4.785-3.659-4.785-6.68c0-30.444 0-83.636 0-83.636h-25.262c-16.56 0-30.079-13.758-30.079-30.612v-180.143c0-16.853 13.519-30.611 30.079-30.611h321.315c16.56 0 30.079 13.758 30.079 30.611v180.143c0 16.854-13.519 30.612-30.079 30.612z" fill="#c6ea94"/><g><path d="m87.014 121.84h38.985v49.997h-38.985c-5.064 0-9.207-4.142-9.207-9.206v-31.584c0-5.064 4.143-9.207 9.207-9.207zm156.153 0h38.985c5.063 0 9.206 4.143 9.206 9.207v31.584c0 5.028-4.143 9.206-9.206 9.206h-38.985z" fill="#cad0d7"/><path d="m132.195 92.663h104.81c10.198 0 18.519 8.321 18.519 18.519v104.846c0 10.197-8.321 18.483-18.519 18.483h-104.81c-10.197 0-18.518-8.286-18.518-18.483v-104.846c0-10.198 8.321-18.519 18.518-18.519z" fill="#a9b0bb"/></g><path d="m432.559 148.614c-38.11-4.314-75.575 10.39-98.307 37.57-.711.87-1.919 1.153-2.942.688-1.023-.464-1.606-1.559-1.419-2.667.84-4.859 2.101-9.719 3.801-14.546 14.189-40.301 54.718-66.268 98.867-67.35v-6.83c0-1.92 1.099-3.67 2.828-4.504s3.783-.604 5.285.591c10.831 8.619 29.681 23.619 38.577 30.698 1.192.949 1.887 2.389 1.887 3.912 0 1.524-.695 2.964-1.887 3.913-8.896 7.079-27.746 22.079-38.577 30.698-1.502 1.195-3.556 1.425-5.285.591s-2.828-2.584-2.828-4.504c0-4.28 0-8.26 0-8.26z" fill="#fdcd56"/></g><path d="m161.297 291.653c-4.636 0-7.243 0-7.243 0l-78.164 101.655c-1.827 2.376-4.964 3.325-7.802 2.36s-4.747-3.63-4.747-6.627v-97.388h-18.263c-20.379 0-37.078-16.871-37.078-37.612v-180.143c0-20.74 16.699-37.611 37.078-37.611h321.316c20.38 0 37.078 16.871 37.078 37.611v24.499c5.804-1.33 11.746-2.249 17.773-2.73v-10.557c0-2.687 1.539-5.138 3.96-6.305s5.296-.846 7.399.828l51.607 41.066c1.669 1.328 2.641 3.345 2.641 5.477 0 2.133-.972 4.15-2.641 5.478l-51.607 41.066c-2.103 1.674-4.978 1.995-7.399.828s-3.96-3.618-3.96-6.305v-12.199c-5.983-.337-11.928-.183-17.773.433v95.625c37.05 22.966 60.497 58.34 60.497 97.759 0 9.207-1.277 18.187-3.706 26.838l39.861 42.818c1.891 2.031 2.403 4.988 1.306 7.537-1.098 2.55-3.598 4.21-6.373 4.232 0 0-70.436.575-70.435.575-29.25 26.157-72.536 42.852-120.86 42.852-88.853 0-160.207-56.503-160.207-124.852 0-20.58 6.374-40.033 17.742-57.208zm228.175-189.155v-28.6c0-12.966-10.338-23.611-23.078-23.611h-321.316c-12.74 0-23.078 10.645-23.078 23.611v180.143c0 12.966 10.338 23.612 23.078 23.612h25.263c3.866 0 7 3.134 7 7v83.8l67.716-88.067c1.325-1.724 3.376-2.733 5.549-2.733h215.788c12.483 0 22.662-10.222 23.065-22.831.001-.004.001-.009.001-.013.008-.255.012-.511.012-.768v-96.163c-24.212 5.791-45.623 19.688-59.232 39.465-1.787 2.597-5.089 3.679-8.066 2.643-2.978-1.036-4.895-3.934-4.685-7.079.571-8.512 2.3-17.091 5.286-25.572 10.834-30.771 35.997-53.809 66.697-64.837zm11.921 163.948c-5.079 14.664-18.888 25.207-34.999 25.207 0 0-131.904 0-187.79 0-13.309 16.66-21.049 36.238-21.049 57.208 0 61.743 65.942 110.852 146.207 110.852 45.581 0 86.39-15.868 113.355-40.955 1.28-1.191 2.961-1.86 4.711-1.875 0 0 57.213-.466 57.213-.466l-31.766-34.124c-1.733-1.861-2.32-4.516-1.533-6.935 2.76-8.483 4.227-17.359 4.227-26.497 0-32.843-18.923-62.194-48.576-82.415zm-64.33-97.366c24.201-20.718 57.825-31.287 91.97-27.421 3.539.4 6.212 3.394 6.212 6.955v4.113l33.365-26.551s-33.365-26.55-33.365-26.55v2.683c0 3.799-3.03 6.905-6.828 6.998-40.146.984-77.214 23.819-91.354 59.773zm-32.256 165.781c7.727 0 14 6.274 14 14 0 7.727-6.273 14-14 14s-14-6.273-14-14c0-7.726 6.273-14 14-14zm-64.768 0c7.726 0 14 6.274 14 14 0 7.727-6.274 14-14 14-7.727 0-14-6.273-14-14 0-7.726 6.273-14 14-14zm129.536 0c7.727 0 14 6.274 14 14 0 7.727-6.273 14-14 14s-14-6.273-14-14c0-7.726 6.273-14 14-14zm-267.212-156.024h-19.663c-8.913 0-16.206-7.292-16.206-16.206v-31.584c0-8.914 7.293-16.207 16.206-16.207h19.663v-3.658c0-14.052 11.466-25.519 25.519-25.519h104.81c14.052 0 25.519 11.467 25.519 25.519v3.658h19.627c8.914 0 16.206 7.293 16.206 16.207v31.584c0 8.851-7.292 16.206-16.206 16.206h-19.627v37.191c0 14.056-11.463 25.483-25.519 25.483h-104.81c-14.056 0-25.519-11.427-25.519-25.483zm0-49.997h-19.663c-1.213 0-2.206.993-2.206 2.207v31.584c0 1.214.993 2.206 2.206 2.206h19.663zm155.848 0v35.997h19.627c1.214 0 2.206-1.001 2.206-2.206v-31.584c0-1.214-.992-2.207-2.206-2.207zm-130.329-29.177c-6.343 0-11.519 5.176-11.519 11.519v104.846c0 6.339 5.18 11.483 11.519 11.483h104.81c6.339 0 11.519-5.144 11.519-11.483v-104.846c0-6.343-5.176-11.519-11.519-11.519zm17.881 34.676c6.88 0 12.5 5.59 12.5 12.5s-5.62 12.5-12.5 12.5c-6.91 0-12.5-5.59-12.5-12.5s5.59-12.5 12.5-12.5zm52.936 53.443c3.864 0 7 3.137 7 7 0 3.864-3.136 7-7 7h-36.825c-3.863 0-7-3.136-7-7 0-3.863 3.137-7 7-7zm16.109-53.443c6.88 0 12.469 5.59 12.469 12.5s-5.589 12.5-12.469 12.5c-6.91 0-12.5-5.59-12.5-12.5s5.59-12.5 12.5-12.5z"/></g></svg>