<svg id="Capa_1" enable-background="new 0 0 512 512" xmlns="http://www.w3.org/2000/svg" viewBox="0 0 512 512"><g><path d="m491.187 512h-470.374c-11.495 0-20.813-9.318-20.813-20.813v-14.632c0-3.414 2.767-6.181 6.181-6.181h499.638c3.414 0 6.181 2.767 6.181 6.181v14.632c0 11.495-9.318 20.813-20.813 20.813z" fill="#4a80aa"></path><path d="m484.943 470.374v20.813c0 11.495-9.318 20.813-20.813 20.813h27.057c11.495 0 20.813-9.318 20.813-20.813v-14.632c0-3.414-2.767-6.181-6.181-6.181z" fill="#407093"></path><path d="m484.943 470.374h-457.886v-301.789c0-11.495 9.318-20.813 20.813-20.813h416.26c11.495 0 20.813 9.318 20.813 20.813z" fill="#4a80aa"></path><path d="m27.057 445.398h457.886v24.976h-457.886z" fill="#407093"></path><path d="m60.358 426.771v-235.396c0-5.69 4.612-10.302 10.302-10.302h370.68c5.69 0 10.302 4.612 10.302 10.302v235.396c0 5.69-4.612 10.302-10.302 10.302h-370.68c-5.69 0-10.302-4.612-10.302-10.302z" fill="#80b4fb"></path><path d="m69.724 84.293h372.553v333.008h-372.553z" fill="#e4f6ff" transform="matrix(0 1 -1 0 506.797 -5.203)"></path><path d="m398.569 64.52h23.935v372.553h-23.935z" fill="#b9e4ef"></path><path d="m122.797 245.698v-137.575c0-5.69 4.612-10.302 10.302-10.302h245.803c5.69 0 10.302 4.612 10.302 10.302v137.575c0 5.69-4.612 10.302-10.302 10.302h-245.803c-5.69 0-10.302-4.612-10.302-10.302z" fill="#80b4fb"></path><path d="m289.301 378.901v-87.025c0-5.69 4.612-10.302 10.302-10.302h79.299c5.69 0 10.302 4.612 10.302 10.302v87.025c0 5.69-4.612 10.302-10.302 10.302h-79.299c-5.69 0-10.302-4.612-10.302-10.302z" fill="#e278b1"></path><path d="m89.496 64.52v-43.707c0-11.495 9.318-20.813 20.813-20.813h291.382c11.495 0 20.813 9.318 20.813 20.813v43.707z" fill="#80b4fb"></path><path d="m401.691 0h-23.935c11.495 0 20.813 9.318 20.813 20.813v43.707h23.935v-43.707c0-11.495-9.318-20.813-20.813-20.813z" fill="#61a2f9"></path><path d="m386.184 252.982c-1.865 1.865-4.44 3.018-7.283 3.018h-193.664l49.943-49.953 44.75-44.75c4.023-4.023 10.546-4.023 14.569 0z" fill="#66b49d"></path><path d="m285.134 256h-152.035c-2.843 0-5.419-1.154-7.283-3.018l70.865-70.865c4.023-4.023 10.546-4.023 14.569 0l23.93 23.93z" fill="#a2f4c1"></path><g><path d="m256 297.027h-125.477c-4.267 0-7.726-3.459-7.726-7.726s3.459-7.726 7.726-7.726h125.477c4.267 0 7.726 3.459 7.726 7.726s-3.459 7.726-7.726 7.726z" fill="#93d8e4"></path></g><g><path d="m256 330.328h-125.477c-4.267 0-7.726-3.459-7.726-7.726s3.459-7.726 7.726-7.726h125.477c4.267 0 7.726 3.459 7.726 7.726s-3.459 7.726-7.726 7.726z" fill="#93d8e4"></path></g><g><path d="m256 363.629h-125.477c-4.267 0-7.726-3.459-7.726-7.726s3.459-7.726 7.726-7.726h125.477c4.267 0 7.726 3.459 7.726 7.726s-3.459 7.726-7.726 7.726z" fill="#93d8e4"></path></g><g><path d="m183.154 396.93h-52.631c-4.267 0-7.726-3.459-7.726-7.726s3.459-7.726 7.726-7.726h52.631c4.267 0 7.726 3.459 7.726 7.726.001 4.266-3.458 7.726-7.726 7.726z" fill="#93d8e4"></path></g><circle cx="380.878" cy="32.26" fill="#a2f4c1" r="8.325"></circle><circle cx="347.577" cy="32.26" fill="#ffe07d" r="8.325"></circle><circle cx="314.276" cy="32.26" fill="#e278b1" r="8.325"></circle></g></svg>