<svg id="Layer_1" enable-background="new 0 0 512.012 512.012" viewBox="0 0 512.012 512.012" xmlns="http://www.w3.org/2000/svg"><circle cx="256.006" cy="256.006" fill="#9ea7db" r="256.006"/><path d="m511.839 247.244-122.832-122.832-205.935 270.071 114.197 114.197c121.76-19.727 214.731-125.334 214.731-252.674 0-2.929-.069-5.846-.161-8.762z" fill="#8c95c9"/><path d="m122.993 124.412c69.314-6.479 97.456-17.029 133.001-50.129h.012c35.544 33.1 63.687 43.65 133.001 50.129v155.102c0 34.922-11.472 64.955-34.737 90.988-23.981 26.817-57.104 49.045-98.263 67.238-41.171-18.193-74.294-40.421-98.275-67.238-23.266-26.033-34.737-56.066-34.737-90.988v-155.102z" fill="#efefef"/><path d="m143.342 141.59v130.268c0 40.675 15.841 75.678 46.382 102.529 19.288 16.959 42.151 30.725 66.27 42.07 24.131-11.345 46.993-25.111 66.281-42.07 30.541-26.851 46.382-61.854 46.382-102.529v-130.268c-45.413-5.2-78.076-13.835-112.663-41.332-34.576 27.497-67.238 36.132-112.652 41.332z" fill="#88eb92"/><path d="m143.342 141.59v130.268c0 40.675 15.841 75.678 46.382 102.529 19.288 16.959 42.151 30.725 66.27 42.07-111.614-54.821-103.647-142.247-103.647-142.247v-125.714c74.744-10.757 103.647-48.238 103.647-48.238-34.576 27.497-67.238 36.132-112.652 41.332z" fill="#81d689"/><circle cx="255.994" cy="256.006" fill="#fff" r="58.361"/><g><path d="m255.994 192.192c17.628 0 33.585 7.137 45.137 18.689s18.689 27.509 18.689 45.125c0 17.628-7.137 33.585-18.689 45.137s-27.509 18.689-45.137 18.689c-17.617 0-33.573-7.137-45.125-18.689s-18.689-27.509-18.689-45.137c0-17.617 7.137-33.573 18.689-45.125 11.552-11.553 27.509-18.689 45.125-18.689zm37.412 26.413c-9.569-9.569-22.793-15.495-37.412-15.495-14.607 0-27.831 5.926-37.401 15.495-9.569 9.569-15.495 22.793-15.495 37.401 0 14.619 5.926 27.843 15.495 37.412s22.793 15.495 37.401 15.495c14.619 0 27.843-5.926 37.412-15.495s15.495-22.793 15.495-37.412c.001-14.608-5.925-27.832-15.495-37.401z" fill="#efefef"/><path d="m228.855 251.982 18.446 14.757 29.123-40.167 8.831 6.398-32.466 44.78-3.343 4.623-4.462-3.574-22.909-18.32z" fill="#ff8c8a"/></g><g/><g/><g/><g/><g/><g/><g/><g/><g/><g/><g/><g/><g/><g/><g/></svg>