<svg version="1.1" id="svg4827" xml:space="preserve" xmlns="http://www.w3.org/2000/svg" xmlns:svg="http://www.w3.org/2000/svg" viewBox="2.5 53.05 677.67 576.57"><defs id="defs4831"><clipPath clipPathUnits="userSpaceOnUse" id="clipPath4841"><path d="M 0,512 H 512 V 0 H 0 Z" id="path4839"></path></clipPath></defs><g id="g4833" transform="matrix(1.3333333,0,0,-1.3333333,0,682.66667)"><g id="g4835"><g id="g4837" clip-path="url(#clipPath4841)"><g id="g4843" transform="translate(320.2402,168.3101)"><path d="M 0,0 V -104.47 H -128.48 V 0 h 39.44 v -34.57 c 0,-13.697 11.103,-24.8 24.8,-24.8 13.696,0 24.8,11.103 24.8,24.8 V 0 Z" style="fill:#7a6e79;fill-opacity:1;fill-rule:nonzero;stroke:none" id="path4845"></path></g><path d="M 320.24,63.84 H 286.8 v 104.47 h 33.44 z" style="fill:#685e67;fill-opacity:1;fill-rule:nonzero;stroke:none" id="path4847"></path><path d="M 320.24,168.31 H 280.8 v -33.479 h 39.44 z" style="fill:#685e67;fill-opacity:1;fill-rule:nonzero;stroke:none" id="path4849"></path><path d="M 231.2,168.31 H 191.76 V 134.831 H 231.2 Z" style="fill:#685e67;fill-opacity:1;fill-rule:nonzero;stroke:none" id="path4851"></path><g id="g4853" transform="translate(320.2402,168.3101)"><path d="M 0,0 V -104.47 H -128.48 V 0 h 39.44 v -34.57 c 0,-13.697 11.103,-24.8 24.8,-24.8 13.696,0 24.8,11.103 24.8,24.8 V 0 Z" style="fill:none;stroke:#000000;stroke-width:15;stroke-linecap:round;stroke-linejoin:round;stroke-miterlimit:10;stroke-dasharray:none;stroke-opacity:1" id="path4855"></path></g><g id="g4857" transform="translate(484.5,158.3369)"><path d="m 0,0 h -457 c -11.046,0 -20,8.955 -20,20 v 268.252 c 0,11.045 8.954,20 20,20 H 0 c 11.046,0 20,-8.955 20,-20 V 20 C 20,8.955 11.046,0 0,0" style="fill:#f2eff2;fill-opacity:1;fill-rule:nonzero;stroke:none" id="path4859"></path></g><g id="g4861" transform="translate(151.2119,466.5889)"><path d="m 0,0 h -123.712 c -11.046,0 -20,-8.955 -20,-20 v -268.252 c 0,-11.045 8.954,-20 20,-20 H 0 Z" style="fill:#21c1f8;fill-opacity:1;fill-rule:nonzero;stroke:none" id="path4863"></path></g><path d="m 119.828,158.337 h 31.384 v 308.252 h -31.384 z" style="fill:#1faaee;fill-opacity:1;fill-rule:nonzero;stroke:none" id="path4865"></path><g id="g4867" transform="translate(151.2119,158.3369)"><path d="M 0,0 V 308.252" style="fill:none;stroke:#000000;stroke-width:15;stroke-linecap:round;stroke-linejoin:round;stroke-miterlimit:10;stroke-dasharray:none;stroke-opacity:1" id="path4869"></path></g><g id="g4871" transform="translate(504.5,446.5898)"><path d="m 0,0 v -268.25 c 0,-11.05 -8.95,-20 -20,-20 h -38.42 c 11.05,0 20,8.95 20,20 V 0 c 0,11.04 -8.95,20 -20,20 H -20 C -8.95,20 0,11.04 0,0" style="fill:#e1dde1;fill-opacity:1;fill-rule:nonzero;stroke:none" id="path4873"></path></g><g id="g4875" transform="translate(7.5,279.2534)"><path d="m 0,0 v -100.917 c 0,-11.045 8.954,-20 20,-20 h 457 c 11.046,0 20,8.955 20,20 v 268.252 c 0,11.046 -8.954,20 -20,20 H 232.56" style="fill:none;stroke:#000000;stroke-width:15;stroke-linecap:round;stroke-linejoin:round;stroke-miterlimit:10;stroke-dasharray:none;stroke-opacity:1" id="path4877"></path></g><g id="g4879" transform="translate(203.0332,466.5889)"><path d="m 0,0 h -175.533 c -11.046,0 -20,-8.955 -20,-20 v -130.309" style="fill:none;stroke:#000000;stroke-width:15;stroke-linecap:round;stroke-linejoin:round;stroke-miterlimit:10;stroke-dasharray:none;stroke-opacity:1" id="path4881"></path></g><g id="g4883" transform="translate(504.5,210.7402)"><path d="m 0,0 v -32.4 c 0,-11.05 -8.95,-20 -20,-20 h -457 c -11.05,0 -20,8.95 -20,20 V 0 Z" style="fill:#918291;fill-opacity:1;fill-rule:nonzero;stroke:none" id="path4885"></path></g><g id="g4887" transform="translate(504.5,210.7402)"><path d="m 0,0 v -32.4 c 0,-11.05 -8.95,-20 -20,-20 h -38.42 c 11.05,0 20,8.95 20,20 V 0 Z" style="fill:#7a6e79;fill-opacity:1;fill-rule:nonzero;stroke:none" id="path4889"></path></g><g id="g4891" transform="translate(7.5,210.7368)"><path d="m 0,0 v -32.4 c 0,-11.045 8.954,-20 20,-20 h 457 c 11.046,0 20,8.955 20,20 V 0 Z" style="fill:none;stroke:#000000;stroke-width:15;stroke-linecap:round;stroke-linejoin:round;stroke-miterlimit:10;stroke-dasharray:none;stroke-opacity:1" id="path4893"></path></g><g id="g4895" transform="translate(345.0791,45.415)"><path d="m 0,0 h -178.158 c -5.524,0 -10,4.477 -10,10 v 13.825 c 0,5.523 4.476,10 10,10 H 0 c 5.523,0 10,-4.477 10,-10 V 10 C 10,4.477 5.523,0 0,0" style="fill:#918291;fill-opacity:1;fill-rule:nonzero;stroke:none" id="path4897"></path></g><g id="g4899" transform="translate(355.0801,69.2402)"><path d="m 0,0 v -13.83 c 0,-5.52 -4.48,-10 -10,-10 h -27.44 c 5.52,0 10,4.48 10,10 V 0 c 0,5.52 -4.48,10 -10,10 L -10,10 C -4.48,10 0,5.52 0,0" style="fill:#7a6e79;fill-opacity:1;fill-rule:nonzero;stroke:none" id="path4901"></path></g><g id="g4903" transform="translate(345.0791,45.415)"><path d="m 0,0 h -178.158 c -5.524,0 -10,4.477 -10,10 v 13.825 c 0,5.523 4.476,10 10,10 H 0 c 5.523,0 10,-4.477 10,-10 V 10 C 10,4.477 5.523,0 0,0 Z" style="fill:none;stroke:#000000;stroke-width:15;stroke-linecap:round;stroke-linejoin:round;stroke-miterlimit:10;stroke-dasharray:none;stroke-opacity:1" id="path4905"></path></g><g id="g4907" transform="translate(204.3213,56.1909)"><path d="m 0,0 -13.349,171.43 c -0.405,5.206 -4.748,9.224 -9.969,9.224 h -119.453 c -5.222,0 -9.565,-4.018 -9.97,-9.224 L -166.09,0 c -0.452,-5.811 4.142,-10.776 9.97,-10.776 H -9.97 C -4.142,-10.776 0.452,-5.811 0,0" style="fill:#fde265;fill-opacity:1;fill-rule:nonzero;stroke:none" id="path4909"></path></g><g id="g4911" transform="translate(107.8623,55.457)"><path d="M 0,0 C -0.464,-5.402 3.796,-10.042 9.218,-10.042 H 73.167 V 155.275 H 21.804 c -4.804,0 -8.809,-3.675 -9.219,-8.462" style="fill:#fdd330;fill-opacity:1;fill-rule:nonzero;stroke:none" id="path4913"></path></g><g id="g4915" transform="translate(85.9512,208.6123)"><path d="m 0,0 v -29.292 c 0,-22.252 18.039,-40.291 40.292,-40.291 22.252,0 40.291,18.039 40.291,40.291 V 0" style="fill:none;stroke:#000000;stroke-width:15;stroke-linecap:round;stroke-linejoin:round;stroke-miterlimit:10;stroke-dasharray:none;stroke-opacity:1" id="path4917"></path></g><g id="g4919" transform="translate(194.3496,45.4102)"><path d="m 0,0 h -30.699 c 5.83,0 10.42,4.97 9.97,10.78 L -34.08,182.21 c -0.399,5.21 -4.75,9.22 -9.97,9.22 h 30.7 c 5.231,0 9.571,-4.01 9.97,-9.22 L 9.971,10.78 C 10.42,4.97 5.83,0 0,0" style="fill:#fdd330;fill-opacity:1;fill-rule:nonzero;stroke:none" id="path4921"></path></g><g id="g4923" transform="translate(105.9658,45.4146)"><path d="m 0,0 h 88.386 c 5.828,0 10.422,4.965 9.969,10.776 L 85.007,182.207 c -0.405,5.206 -4.748,9.223 -9.97,9.223 H -44.416 c -5.222,0 -9.564,-4.017 -9.97,-9.223 L -67.734,10.776 C -68.187,4.965 -63.593,0 -57.765,0 h 20.739" style="fill:none;stroke:#000000;stroke-width:15;stroke-linecap:round;stroke-linejoin:round;stroke-miterlimit:10;stroke-dasharray:none;stroke-opacity:1" id="path4925"></path></g><g id="g4927" transform="translate(143.0449,202.2705)"><path d="m 0,0 -12.586,-146.813 c -0.463,-5.402 3.797,-10.043 9.219,-10.043 h 110.772 c 5.422,0 9.682,4.641 9.219,10.043 L 104.038,0 c -0.41,4.786 -4.415,8.462 -9.218,8.462 H 9.218 C 4.415,8.462 0.41,4.786 0,0" style="fill:#fb3a82;fill-opacity:1;fill-rule:nonzero;stroke:none" id="path4929"></path></g><g id="g4931" transform="translate(250.4463,45.4102)"><path d="m 0,0 h -32.28 c 5.422,0 9.687,4.645 9.215,10.048 l -12.583,146.813 c -0.407,4.783 -4.414,8.466 -9.215,8.466 h 32.281 c 4.802,0 8.808,-3.683 9.215,-8.466 L 9.225,10.048 C 9.688,4.645 5.422,0 0,0" style="fill:#fb1466;fill-opacity:1;fill-rule:nonzero;stroke:none" id="path4933"></path></g><g id="g4935" transform="translate(143.0449,202.2705)"><path d="m 0,0 -12.586,-146.813 c -0.463,-5.402 3.797,-10.043 9.219,-10.043 h 110.772 c 5.422,0 9.682,4.641 9.219,10.043 L 104.038,0 c -0.41,4.786 -4.415,8.462 -9.218,8.462 H 9.218 C 4.415,8.462 0.41,4.786 0,0 Z" style="fill:none;stroke:#000000;stroke-width:15;stroke-linecap:round;stroke-linejoin:round;stroke-miterlimit:10;stroke-dasharray:none;stroke-opacity:1" id="path4937"></path></g><g id="g4939" transform="translate(215.9912,87.4321)"><path d="m 0,0 c -3.605,-7.282 -11.108,-12.291 -19.785,-12.291 -12.189,0 -22.069,9.881 -22.069,22.07 0,12.189 9.88,22.07 22.069,22.07 5.972,0 11.388,-2.371 15.36,-6.224 L -19.85,8.202" style="fill:none;stroke:#000000;stroke-width:15;stroke-linecap:round;stroke-linejoin:round;stroke-miterlimit:10;stroke-dasharray:none;stroke-opacity:1" id="path4941"></path></g><g id="g4943" transform="translate(219.8291,184.54)"><path d="M 0,0 V -12.765 C 0,-26.442 -11.088,-37.53 -24.765,-37.53 h -10e-4 c -13.676,0 -24.764,11.088 -24.764,24.765 V 0" style="fill:none;stroke:#000000;stroke-width:15;stroke-linecap:round;stroke-linejoin:round;stroke-miterlimit:10;stroke-dasharray:none;stroke-opacity:1" id="path4945"></path></g><g id="g4947" transform="translate(398.7324,256.0776)"><path d="m 0,0 c 0,-7.406 -6.004,-13.41 -13.409,-13.41 -7.406,0 -13.409,6.004 -13.409,13.41 0,7.406 6.003,13.41 13.409,13.41 C -6.004,13.41 0,7.406 0,0 Z" style="fill:none;stroke:#000000;stroke-width:15;stroke-linecap:round;stroke-linejoin:round;stroke-miterlimit:10;stroke-dasharray:none;stroke-opacity:1" id="path4949"></path></g><g id="g4951" transform="translate(448.4502,256.0776)"><path d="m 0,0 c 0,-7.406 -6.004,-13.41 -13.41,-13.41 -7.405,0 -13.409,6.004 -13.409,13.41 0,7.406 6.004,13.41 13.409,13.41 C -6.004,13.41 0,7.406 0,0 Z" style="fill:none;stroke:#000000;stroke-width:15;stroke-linecap:round;stroke-linejoin:round;stroke-miterlimit:10;stroke-dasharray:none;stroke-opacity:1" id="path4953"></path></g><g id="g4955" transform="translate(450.0098,333.3623)"><path d="m 0,0 -6.838,-32.551 c -1.006,-4.786 -5.226,-8.213 -10.117,-8.213 H -75.169 L -86.902,6.231 H -5.059 C -1.776,6.231 0.675,3.212 0,0" style="fill:#fb3a82;fill-opacity:1;fill-rule:nonzero;stroke:none" id="path4957"></path></g><g id="g4959" transform="translate(450.0059,333.3599)"><path d="m 0,0 -6.833,-32.553 c -1.003,-4.787 -5.231,-8.208 -10.121,-8.208 h -24.149 c 4.89,0 9.108,3.421 10.111,8.208 L -24.148,0 c 0.671,3.215 -1.779,6.234 -5.056,6.234 H -5.055 C -1.768,6.234 0.683,3.215 0,0" style="fill:#fb1466;fill-opacity:1;fill-rule:nonzero;stroke:none" id="path4961"></path></g><g id="g4963" transform="translate(367.7676,339.5903)"><path d="m 0,0 h 77.182 c 3.282,0 5.733,-3.02 5.058,-6.231 l -6.838,-32.544 c -1.006,-4.786 -5.226,-8.212 -10.117,-8.212 H 7.078 L -9.401,19.007 h -29.166" style="fill:none;stroke:#000000;stroke-width:15;stroke-linecap:round;stroke-linejoin:round;stroke-miterlimit:10;stroke-dasharray:none;stroke-opacity:1" id="path4965"></path></g><g id="g4967" transform="translate(374.8457,292.603)"><path d="m 0,0 v -17.077 c 0,-3.287 2.664,-5.951 5.951,-5.951 h 70.924" style="fill:none;stroke:#000000;stroke-width:15;stroke-linecap:round;stroke-linejoin:round;stroke-miterlimit:10;stroke-dasharray:none;stroke-opacity:1" id="path4969"></path></g><g id="g4971" transform="translate(263.498,254.9687)"><path d="M 0,0 H 40.885" style="fill:none;stroke:#000000;stroke-width:15;stroke-linecap:round;stroke-linejoin:round;stroke-miterlimit:10;stroke-dasharray:none;stroke-opacity:1" id="path4973"></path></g><g id="g4975" transform="translate(299.8037,267.2695)"><path d="M 0,0 12.301,-12.301 0,-24.602" style="fill:none;stroke:#000000;stroke-width:15;stroke-linecap:round;stroke-linejoin:round;stroke-miterlimit:10;stroke-dasharray:none;stroke-opacity:1" id="path4977"></path></g><g id="g4979" transform="translate(302.0996,290.6929)"><path d="m 0,0 h -93.54 c -5.523,0 -10,4.478 -10,10 v 25.906 c 0,5.523 4.477,10 10,10 H 0 c 5.522,0 10,-4.477 10,-10 V 10 C 10,4.478 5.522,0 0,0" style="fill:#23f1a8;fill-opacity:1;fill-rule:nonzero;stroke:none" id="path4981"></path></g><g id="g4983" transform="translate(312.1045,326.604)"><path d="m 0,0 v -25.91 c 0,-5.52 -4.48,-10 -10,-10 h -25.91 c 5.529,0 10,4.48 10,10 V 0 c 0,5.52 -4.471,10 -10,10 L -10,10 C -4.48,10 0,5.52 0,0" style="fill:#26d192;fill-opacity:1;fill-rule:nonzero;stroke:none" id="path4985"></path></g><g id="g4987" transform="translate(302.0996,290.6929)"><path d="m 0,0 h -93.54 c -5.523,0 -10,4.478 -10,10 v 25.906 c 0,5.523 4.477,10 10,10 H 0 c 5.522,0 10,-4.477 10,-10 V 10 C 10,4.478 5.522,0 0,0 Z" style="fill:none;stroke:#000000;stroke-width:15;stroke-linecap:round;stroke-linejoin:round;stroke-miterlimit:10;stroke-dasharray:none;stroke-opacity:1" id="path4989"></path></g><g id="g4991" transform="translate(47.3525,334.6001)"><path d="M 0,0 H 61.099" style="fill:none;stroke:#000000;stroke-width:15;stroke-linecap:round;stroke-linejoin:round;stroke-miterlimit:10;stroke-dasharray:none;stroke-opacity:1" id="path4993"></path></g><g id="g4995" transform="translate(47.3525,306.4175)"><path d="M 0,0 H 61.099" style="fill:none;stroke:#000000;stroke-width:15;stroke-linecap:round;stroke-linejoin:round;stroke-miterlimit:10;stroke-dasharray:none;stroke-opacity:1" id="path4997"></path></g><g id="g4999" transform="translate(47.3525,278.2354)"><path d="M 0,0 H 61.099" style="fill:none;stroke:#000000;stroke-width:15;stroke-linecap:round;stroke-linejoin:round;stroke-miterlimit:10;stroke-dasharray:none;stroke-opacity:1" id="path5001"></path></g><g id="g5003" transform="translate(100.4971,387.6602)"><path d="m 0,0 c -3.894,-7.862 -11.994,-13.27 -21.362,-13.27 -13.159,0 -23.828,10.668 -23.828,23.829 0,13.16 10.669,23.828 23.828,23.828 6.447,0 12.296,-2.56 16.585,-6.72 L -21.431,8.855" style="fill:none;stroke:#000000;stroke-width:15;stroke-linecap:round;stroke-linejoin:round;stroke-miterlimit:10;stroke-dasharray:none;stroke-opacity:1" id="path5005"></path></g><g id="g5007" transform="translate(199.1436,432.125)"><path d="M 0,0 H 19.359" style="fill:none;stroke:#000000;stroke-width:15;stroke-linecap:round;stroke-linejoin:round;stroke-miterlimit:10;stroke-dasharray:none;stroke-opacity:1" id="path5009"></path></g><g id="g5011" transform="translate(199.1436,402.7187)"><path d="M 0,0 H 88.359" style="fill:none;stroke:#000000;stroke-width:15;stroke-linecap:round;stroke-linejoin:round;stroke-miterlimit:10;stroke-dasharray:none;stroke-opacity:1" id="path5013"></path></g><g id="g5015" transform="translate(199.1436,379.3125)"><path d="M 0,0 H 88.359" style="fill:none;stroke:#000000;stroke-width:15;stroke-linecap:round;stroke-linejoin:round;stroke-miterlimit:10;stroke-dasharray:none;stroke-opacity:1" id="path5017"></path></g><g id="g5019" transform="translate(445.7979,402.8057)"><path d="m 0,0 c 0,-19.984 -16.199,-36.184 -36.184,-36.184 -19.983,0 -36.183,16.2 -36.183,36.184 0,19.983 16.2,36.184 36.183,36.184 C -16.199,36.184 0,19.983 0,0" style="fill:#23f1a8;fill-opacity:1;fill-rule:nonzero;stroke:none" id="path5021"></path></g><g id="g5023" transform="translate(445.7979,402.8042)"><path d="m 0,0 c 0,-19.978 -16.2,-36.179 -36.188,-36.179 -4.786,0 -9.361,0.936 -13.55,2.632 16.375,2.393 28.954,16.503 28.954,33.547 0,17.053 -12.589,31.164 -28.973,33.557 4.191,1.696 8.775,2.631 13.569,2.631 C -16.2,36.188 0,19.987 0,0" style="fill:#26d192;fill-opacity:1;fill-rule:nonzero;stroke:none" id="path5025"></path></g><g id="g5027" transform="translate(445.7979,402.8057)"><path d="m 0,0 c 0,-19.984 -16.199,-36.184 -36.184,-36.184 -19.983,0 -36.183,16.2 -36.183,36.184 0,19.983 16.2,36.184 36.183,36.184 C -16.199,36.184 0,19.983 0,0 Z" style="fill:none;stroke:#000000;stroke-width:15;stroke-linecap:round;stroke-linejoin:round;stroke-miterlimit:10;stroke-dasharray:none;stroke-opacity:1" id="path5029"></path></g><g id="g5031" transform="translate(397.6279,401.3218)"><path d="M 0,0 7.001,-7.001 23.974,9.972" style="fill:none;stroke:#000000;stroke-width:15;stroke-linecap:round;stroke-linejoin:round;stroke-miterlimit:10;stroke-dasharray:none;stroke-opacity:1" id="path5033"></path></g></g></g></g></svg>