<svg version="1.1" id="Capa_1" xmlns="http://www.w3.org/2000/svg" xmlns:xlink="http://www.w3.org/1999/xlink" x="0px" y="0px" style="enable-background:new 0 0 512 512;" xml:space="preserve" viewBox="20.09 0 471.82 512"> <g> 	<g> 		<path style="fill:#FFFFFF;" d="M463.024,461.816H48.976c-10.429,0-18.884-8.455-18.884-18.884V28.884			C30.092,18.455,38.546,10,48.976,10h414.049c10.429,0,18.884,8.455,18.884,18.884v414.049			C481.908,453.362,473.454,461.816,463.024,461.816z"></path> 		<path style="fill:#BC9AF4;" d="M481.908,28.957v85.467H30.092V28.957C30.092,18.484,38.576,10,49.049,10h413.903			C473.424,10,481.908,18.484,481.908,28.957z"></path> 		<path style="fill:#D2DCFD;" d="M330.272,197.111v264.706H51.378V197.111c0-34.862,28.365-63.217,63.217-63.217h152.46			C301.917,133.894,330.272,162.249,330.272,197.111z"></path> 		<path style="fill:#FDCB50;" d="M267.172,502H114.486c-15.378,0-27.96-12.582-27.96-27.96V196.997			c0-15.378,12.582-27.96,27.96-27.96h152.686c15.378,0,27.96,12.582,27.96,27.96V474.04C295.133,489.418,282.551,502,267.172,502z"></path> 	</g> 	<g> 		<g> 			<path style="fill:none;stroke:#052A75;stroke-width:20;stroke-linecap:round;stroke-linejoin:round;stroke-miterlimit:10;" d="				M83.56,461.816H49.053c-10.472,0-18.961-8.489-18.961-18.961V28.961C30.092,18.489,38.581,10,49.053,10h413.895				c10.472,0,18.961,8.489,18.961,18.961v413.895c0,10.472-8.489,18.961-18.961,18.961H298.37"></path> 			<g> 				 					<line style="fill:none;stroke:#FFFFFF;stroke-width:20;stroke-linecap:round;stroke-linejoin:round;stroke-miterlimit:10;" x1="342.405" y1="62.086" x2="342.405" y2="62.086"></line> 				 					<line style="fill:none;stroke:#FFFFFF;stroke-width:20;stroke-linecap:round;stroke-linejoin:round;stroke-miterlimit:10;" x1="386.944" y1="62.086" x2="386.944" y2="62.086"></line> 				 					<line style="fill:none;stroke:#FFFFFF;stroke-width:20;stroke-linecap:round;stroke-linejoin:round;stroke-miterlimit:10;" x1="431.483" y1="62.086" x2="431.484" y2="62.086"></line> 			</g> 			<g> 				<path style="fill:none;stroke:#052A75;stroke-width:20;stroke-linecap:round;stroke-linejoin:round;stroke-miterlimit:10;" d="					M267.172,502H114.486c-15.378,0-27.96-12.582-27.96-27.96V196.997c0-15.378,12.582-27.961,27.96-27.961h152.686					c15.378,0,27.96,12.582,27.96,27.96V474.04C295.133,489.418,282.551,502,267.172,502z"></path> 				<g> 					 						<line style="fill:none;stroke:#FFFFFF;stroke-width:20;stroke-linecap:round;stroke-linejoin:round;stroke-miterlimit:10;" x1="154.011" y1="215.998" x2="184.487" y2="215.998"></line> 					 						<line style="fill:none;stroke:#FFFFFF;stroke-width:20;stroke-linecap:round;stroke-linejoin:round;stroke-miterlimit:10;" x1="227.647" y1="215.998" x2="227.647" y2="215.998"></line> 				</g> 			</g> 		</g> 		 			<line style="fill:none;stroke:#6864F7;stroke-width:20;stroke-linecap:round;stroke-linejoin:round;stroke-miterlimit:10;" x1="189.643" y1="335.519" x2="396.083" y2="335.519"></line> 		 			<polyline style="fill:none;stroke:#6864F7;stroke-width:20;stroke-linecap:round;stroke-linejoin:round;stroke-miterlimit:10;" points="			367.597,296.987 406.128,335.518 367.597,374.05 		"></polyline> 		 			<polyline style="fill:none;stroke:#6864F7;stroke-width:20;stroke-linecap:round;stroke-linejoin:round;stroke-miterlimit:10;" points="			222.669,374.05 184.138,335.519 222.669,296.987 		"></polyline> 	</g> </g> <g> </g> <g> </g> <g> </g> <g> </g> <g> </g> <g> </g> <g> </g> <g> </g> <g> </g> <g> </g> <g> </g> <g> </g> <g> </g> <g> </g> <g> </g> </svg>