<svg id="Capa_1" enable-background="new 0 0 512 512" xmlns="http://www.w3.org/2000/svg" viewBox="0 0 512 512"><g><path d="m60.967 403.167c-4.032 4.738-11.401 4.385-14.964-.715-28.995-41.497-46.003-91.988-46.003-146.452 0-141.385 114.615-256 256-256s256 114.615 256 256c0 54.381-16.957 104.802-45.871 146.264-3.625 5.198-11.133 5.551-15.245.729-46.955-55.071-116.841-89.993-194.884-89.993-78.125 0-148.077 34.996-195.033 90.167z" fill="#f29500"></path><path d="m466 124v278.449c-14.289 20.452-31.489 38.719-51 54.2-43.672 34.654-282.913 31.301-328-8.356-15.425-13.567-29.204-28.961-41-45.844v-278.449c0-5.523 4.477-10 10-10h400c5.523 0 10 4.477 10 10z" fill="#e9f3fe"></path><path d="m86 114c-5.523 0-10 3.06-10 6.835v317.197c-11.036-10.914-21.085-22.823-30-35.584v-281.613c0-3.775 4.477-6.835 10-6.835z" fill="#c8e2fd"></path><path d="m466 74v50h-420v-50c0-11.046 8.954-20 20-20h380c11.046 0 20 8.954 20 20z" fill="#76b6fa"></path><path d="m96 54c-11.046 0-20 8.954-20 20v50h-30v-50c0-11.046 8.954-20 20-20z" fill="#55a4f9"></path><path d="m80 89c0 5.523-4.477 10-10 10s-10-4.477-10-10 4.477-10 10-10 10 4.477 10 10zm60-10c-5.523 0-10 4.477-10 10s4.477 10 10 10 10-4.477 10-10-4.477-10-10-10zm-35 0c-5.523 0-10 4.477-10 10s4.477 10 10 10 10-4.477 10-10-4.477-10-10-10z" fill="#1380e2"></path><path d="m450 89c0 5.523-4.477 10-10 10h-260c-5.523 0-10-4.477-10-10s4.477-10 10-10h260c5.523 0 10 4.477 10 10z" fill="#fff5f5"></path><path d="m122 255h268c16.569 0 30 13.431 30 30 0 16.569-13.431 30-30 30h-268c-16.569 0-30-13.431-30-30 0-16.569 13.431-30 30-30zm-30-73c0 16.569 13.431 30 30 30h268c16.569 0 30-13.431 30-30 0-16.569-13.431-30-30-30h-268c-16.569 0-30 13.431-30 30zm298 168h-268c-16.569 0-30 13.431-30 30v66.565c0 3.858 1.76 7.508 4.779 9.909 43.707 34.759 99.039 55.526 159.221 55.526 62.398 0 119.582-22.324 164-59.421v-72.579c0-16.569-13.431-30-30-30z" fill="#c8e2fd"></path><path d="m122 250h268c19.299 0 35 15.701 35 35s-15.701 35-35 35h-268c-19.299 0-35-15.701-35-35s15.701-35 35-35zm268 60c13.785 0 25-11.215 25-25s-11.215-25-25-25h-268c-13.785 0-25 11.215-25 25s11.215 25 25 25zm0-93h-268c-19.299 0-35-15.701-35-35s15.701-35 35-35h268c19.299 0 35 15.701 35 35s-15.701 35-35 35zm-268-60c-13.785 0-25 11.215-25 25s11.215 25 25 25h268c13.785 0 25-11.215 25-25s-11.215-25-25-25zm268 188h-268c-19.299 0-35 15.701-35 35v68.293c3.261 2.868 6.595 5.655 10 8.356v-76.649c0-13.785 11.215-25 25-25h268c13.785 0 25 11.215 25 25v76.649c3.405-2.702 6.739-5.488 10-8.356v-68.293c0-19.299-15.701-35-35-35z" fill="#fff"></path><path d="m242.5 392.125h-115c-4.142 0-7.5-3.358-7.5-7.5 0-4.142 3.358-7.5 7.5-7.5h115c4.142 0 7.5 3.358 7.5 7.5 0 4.142-3.358 7.5-7.5 7.5zm-62.5 20c0-4.142-3.358-7.5-7.5-7.5h-45c-4.142 0-7.5 3.358-7.5 7.5 0 4.142 3.358 7.5 7.5 7.5h45c4.142 0 7.5-3.358 7.5-7.5zm70-127.125c0-4.142-3.358-7.5-7.5-7.5h-115c-4.142 0-7.5 3.358-7.5 7.5 0 4.142 3.358 7.5 7.5 7.5h115c4.142 0 7.5-3.358 7.5-7.5zm-40-102.5c0-4.142-3.358-7.5-7.5-7.5h-75c-4.142 0-7.5 3.358-7.5 7.5 0 4.142 3.358 7.5 7.5 7.5h75c4.142 0 7.5-3.358 7.5-7.5z" fill="#a7d0fc"></path><path d="m135.556 448.222c0 4.296-3.482 7.778-7.778 7.778s-7.778-3.482-7.778-7.778 3.482-7.778 7.778-7.778c4.295 0 7.778 3.483 7.778 7.778zm19.444-7.778c-4.295 0-7.778 3.482-7.778 7.778s3.482 7.778 7.778 7.778 7.778-3.482 7.778-7.778c0-4.295-3.483-7.778-7.778-7.778zm27.222 0c-4.295 0-7.778 3.482-7.778 7.778s3.482 7.778 7.778 7.778 7.778-3.482 7.778-7.778c0-4.295-3.482-7.778-7.778-7.778z" fill="#76b6fa"></path><path d="m364.154 215.829-40.943 152.8c-.902 3.368-4.364 5.366-7.731 4.464s-5.366-4.364-4.464-7.732l40.943-152.8c.902-3.368 4.364-5.366 7.731-4.464 3.367.903 5.366 4.365 4.464 7.732z" fill="#958fca"></path><path d="m352.875 311.58-7.779 29.032c-1.429 5.335-6.913 8.5-12.247 7.071l-19.706-5.28c-5.335-1.429-8.5-6.913-7.071-12.247l7.779-29.032c1.429-5.335 6.913-8.5 12.248-7.071l19.706 5.28c5.334 1.429 8.499 6.913 7.07 12.247z" fill="#8078bf"></path><path d="m440.907 31.821-26.142 97.562-1.104 4.12-63.108-18.14 1.328-4.956 25.61-95.579c2.859-10.669 13.826-17.001 24.495-14.142l24.778 6.639c10.67 2.86 17.002 13.826 14.143 24.496z" fill="#453d83"></path><path d="m440.907 31.821-26.142 97.562-40.062-13.457 25.461-95.022c2.859-10.669 13.825-17.001 24.495-14.142l2.105.564c10.67 2.859 17.002 13.825 14.143 24.495z" fill="#51489a"></path><path d="m414.766 129.383-48.351 180.448c-2.859 10.669-13.826 17.001-24.495 14.142l-24.779-6.639c-10.669-2.859-17.001-13.826-14.142-24.495l48.351-180.448c2.859-10.669 13.825-17.001 24.495-14.142l24.778 6.639c10.67 2.859 17.001 13.826 14.143 24.495z" fill="#5f55af"></path><path d="m414.766 129.383-48.351 180.448c-2.859 10.669-13.826 17.001-24.495 14.142l-2.105-.564c-10.669-2.859-17.001-13.826-14.142-24.495l53.527-199.766 21.423 5.74c10.67 2.859 17.001 13.826 14.143 24.495z" fill="#6a61b4"></path><path d="m343.262 420.072h54.25c22.091 0 40 17.909 40 40 0 22.091-17.909 40-40 40h-54.25c-22.091 0-40-17.909-40-40 0-22.091 17.909-40 40-40z" fill="#5db33a"></path><path d="m374.012 420.072h39.641c22.091 0 40 17.909 40 40 0 22.091-17.909 40-40 40h-39.641c-22.091 0-40-17.909-40-40 0-22.091 17.908-40 40-40z" fill="#6dc54a"></path><path d="m426.86 460.073c0 1.326-.526 2.598-1.465 3.536l-16.928 16.927c-.976.976-2.256 1.464-3.535 1.464s-2.56-.488-3.535-1.464c-1.953-1.953-1.953-5.119 0-7.071l8.392-8.392h-74.735c-2.762 0-5-2.239-5-5s2.238-5 5-5h74.736l-8.392-8.392c-1.953-1.953-1.953-5.119 0-7.071 1.951-1.952 5.119-1.952 7.07 0l16.928 16.928c.938.937 1.464 2.209 1.464 3.535z" fill="#fff"></path></g></svg>