<?xml version="1.0" encoding="UTF-8"?>
<svg xmlns="http://www.w3.org/2000/svg" xmlns:xlink="http://www.w3.org/1999/xlink" version="1.1" id="Capa_1" x="0px" y="0px" viewBox="0 0 512 512" style="enable-background:new 0 0 512 512;" xml:space="preserve" width="512" height="512">
<g>
	<g>
		<polygon style="fill:#BDD3DD;" points="345.169,465.872 345.169,498.542 166.839,498.542 166.839,465.872 215.419,449.672 &#10;&#9;&#9;&#9;215.419,407.832 295.579,407.832 295.579,449.672 &#9;&#9;"/>
		
			<polygon style="fill:none;stroke:#000000;stroke-width:20;stroke-linecap:round;stroke-linejoin:round;stroke-miterlimit:10;" points="&#10;&#9;&#9;&#9;345.169,465.872 345.169,498.542 166.839,498.542 166.839,465.872 215.419,449.672 215.419,407.832 295.579,407.832 &#10;&#9;&#9;&#9;295.579,449.672 &#9;&#9;"/>
		<g>
			<path style="fill:#FFFFFF;" d="M502,88.922v263.744H10V88.922c0-14.02,11.36-25.38,25.38-25.38H78.7l-0.17,0.08l106.98,50.16&#10;&#9;&#9;&#9;&#9;l106.98-50.16l-0.17-0.08h184.3C490.64,63.542,502,74.902,502,88.922z"/>
			<path style="fill:none;stroke:#000000;stroke-width:20;stroke-linecap:round;stroke-linejoin:round;stroke-miterlimit:10;" d="&#10;&#9;&#9;&#9;&#9;M502,88.922v263.744H10V88.922c0-14.02,11.36-25.38,25.38-25.38H78.7l-0.17,0.08l106.98,50.16l106.98-50.16l-0.17-0.08h184.3&#10;&#9;&#9;&#9;&#9;C490.64,63.542,502,74.902,502,88.922z"/>
			<path style="fill:#E0E7EF;" d="M163.574,407.831h313.05c14.015,0,25.376-11.361,25.376-25.376v-29.789H10v29.789&#10;&#9;&#9;&#9;&#9;c0,14.015,11.361,25.376,25.376,25.376h40.227"/>
			<path style="fill:none;stroke:#000000;stroke-width:20;stroke-linecap:round;stroke-linejoin:round;stroke-miterlimit:10;" d="&#10;&#9;&#9;&#9;&#9;M163.574,407.831h313.05c14.015,0,25.376-11.361,25.376-25.376v-29.789H10v29.789c0,14.015,11.361,25.376,25.376,25.376h40.227"/>
		</g>
		
			<line style="fill:none;stroke:#000000;stroke-width:20;stroke-linecap:round;stroke-linejoin:round;stroke-miterlimit:10;" x1="119.609" y1="407.832" x2="119.609" y2="407.832"/>
	</g>
	<polygon style="fill:#FF7E96;" points="279.673,241.239 226.153,308.603 257.22,308.581 257.22,352.666 303.436,352.666 &#10;&#9;&#9;303.436,308.581 333.193,308.604 &#9;"/>
	<polygon style="fill:#FF7E96;" points="405.806,195.774 352.286,263.138 383.353,263.115 383.353,352.666 429.57,352.666 &#10;&#9;&#9;429.57,263.115 459.327,263.138 &#9;"/>
	
		<polygon style="fill:none;stroke:#000000;stroke-width:20;stroke-linecap:round;stroke-linejoin:round;stroke-miterlimit:10;" points="&#10;&#9;&#9;279.673,241.239 226.153,308.603 257.22,308.581 257.22,352.666 303.436,352.666 303.436,308.581 333.193,308.604 &#9;"/>
	
		<polygon style="fill:none;stroke:#000000;stroke-width:20;stroke-linecap:round;stroke-linejoin:round;stroke-miterlimit:10;" points="&#10;&#9;&#9;405.806,195.774 352.286,263.138 383.353,263.115 383.353,352.666 429.57,352.666 429.57,263.115 459.327,263.138 &#9;"/>
	<polygon style="fill:#61EAF9;" points="185.509,113.782 78.53,63.62 185.509,13.459 292.488,63.62 &#9;"/>
	<polygon style="fill:#00DFF6;" points="292.488,189.688 185.509,239.849 78.53,189.687 78.53,63.62 185.509,113.782 292.488,63.62 &#10;&#9;&#9;&#9;"/>
	
		<polygon style="fill:none;stroke:#000000;stroke-width:20;stroke-linecap:round;stroke-linejoin:round;stroke-miterlimit:10;" points="&#10;&#9;&#9;185.509,113.782 78.53,63.62 185.509,13.459 292.488,63.62 &#9;"/>
	
		<polygon style="fill:none;stroke:#000000;stroke-width:20;stroke-linecap:round;stroke-linejoin:round;stroke-miterlimit:10;" points="&#10;&#9;&#9;292.488,189.688 185.509,239.849 78.53,189.687 78.53,63.62 185.509,113.782 292.488,63.62 &#9;"/>
	
		<line style="fill:none;stroke:#000000;stroke-width:20;stroke-linecap:round;stroke-linejoin:round;stroke-miterlimit:10;" x1="185.509" y1="113.782" x2="185.509" y2="239.849"/>
</g>















</svg>
