<svg id="Layer_1" enable-background="new 0 0 512 512" viewBox="0 0 512 512" xmlns="http://www.w3.org/2000/svg"><g><g><path clip-rule="evenodd" d="m61.31 74.119h337.26v428.622h-337.26z" fill="#e8f0fe" fill-rule="evenodd"/></g><g><path clip-rule="evenodd" d="m134.87 42.937h61.3c.587-17.746 15.142-31.937 33.028-31.937s32.441 14.191 33.029 31.937h61.3v69.809h-188.657z" fill="#31a7fb" fill-rule="evenodd"/></g><g><path clip-rule="evenodd" d="m156.506 203.744h36.724v29.558h-36.724z" fill="#fd4755" fill-rule="evenodd"/></g><g><path clip-rule="evenodd" d="m193.23 181.799h36.724v51.503h-36.724z" fill="#05e39c" fill-rule="evenodd"/></g><g><path clip-rule="evenodd" d="m229.954 162.122h36.724v71.18h-36.724z" fill="#ffca28" fill-rule="evenodd"/></g><g><path clip-rule="evenodd" d="m266.678 147.791h36.724v85.512h-36.724z" fill="#64b9fc" fill-rule="evenodd"/></g><g><path clip-rule="evenodd" d="m99.881 378.882h119.66v89.738h-119.66z" fill="#c97628" fill-rule="evenodd"/></g><g><path clip-rule="evenodd" d="m381.636 378.546 4.982-2.827c5.346-2.995 12.148-1.12 15.171 4.227l43.694 77.422c3.023 5.318 1.12 12.148-4.199 15.143l-5.011 2.827c-5.318 2.995-12.148 1.12-15.143-4.227l-43.721-77.422c-2.995-5.318-1.119-12.148 4.227-15.143z" fill="#fd4755" fill-rule="evenodd"/></g><g fill="#407093"><path clip-rule="evenodd" d="m326.998 269.354c38.459-21.721 87.275-8.117 108.996 30.342 21.721 38.487 8.145 87.303-30.342 109.024s-87.275 8.146-108.996-30.342c-21.749-38.487-8.145-87.275 30.342-109.024z" fill-rule="evenodd"/><path d="m366.436 419.19c-7.21 0-14.462-.982-21.596-2.968-20.61-5.736-37.752-19.159-48.269-37.795-10.53-18.634-13.168-40.249-7.427-60.864 5.739-20.609 19.166-37.76 37.806-48.294 18.622-10.517 40.233-13.146 60.849-7.405 20.615 5.741 37.761 19.159 48.28 37.784 10.52 18.639 13.153 40.257 7.416 60.874-5.737 20.619-19.16 37.767-37.795 48.284-12.186 6.876-25.647 10.383-39.264 10.384zm-39.39-149.751c-38.383 21.69-51.978 70.538-30.305 108.891 10.493 18.591 27.593 31.981 48.152 37.703 20.556 5.722 42.118 3.095 60.711-7.398 38.374-21.657 51.968-70.505 30.305-108.891-21.672-38.37-70.506-51.968-108.863-30.305z"/></g><g><path clip-rule="evenodd" d="m339.986 292.391c25.751-14.555 58.445-5.458 73 20.321 14.555 25.752 5.458 58.445-20.321 73-25.779 14.527-58.445 5.43-73-20.321-14.556-25.78-5.459-58.473 20.321-73z" fill="#c4f0f6" fill-rule="evenodd"/></g><g><path clip-rule="evenodd" d="m99.881 378.882h119.66v18.698c0 10.273-8.397 18.698-18.698 18.698h-82.265c-10.273 0-18.698-8.425-18.698-18.698v-18.698z" fill="#d49051" fill-rule="evenodd"/></g><g><path clip-rule="evenodd" d="m147.354 403.766h24.744v25.024h-24.744z" fill="#ffc328" fill-rule="evenodd"/></g><g><path clip-rule="evenodd" d="m174.868 203.744h18.362v29.558h-18.362z" fill="#e41f2d" fill-rule="evenodd"/></g><g><path clip-rule="evenodd" d="m211.592 181.799h18.362v51.503h-18.362z" fill="#0ed290" fill-rule="evenodd"/></g><g><path clip-rule="evenodd" d="m248.316 162.122h18.362v71.18h-18.362z" fill="#ffc328" fill-rule="evenodd"/></g><g><path clip-rule="evenodd" d="m285.04 147.791h18.362v85.512h-18.362z" fill="#31a7fb" fill-rule="evenodd"/></g><g><path clip-rule="evenodd" d="m361.09 285.701c20.462-1.987 41.147 7.949 51.895 27.011 14.555 25.752 5.458 58.445-20.321 73-9.937 5.598-20.909 7.698-31.489 6.662 7.221-.7 14.415-2.883 21.133-6.662 25.751-14.555 34.849-47.248 20.321-73-8.957-15.843-24.716-25.388-41.539-27.011z" fill="#abe1fa" fill-rule="evenodd"/></g></g><path d="m157.338 239.167h37.119 37.118 37.118 37.09c3.86 0 6.988-3.129 6.988-6.988v-86.431c0-3.859-3.129-6.988-6.988-6.988h-37.09c-3.86 0-6.988 3.129-6.988 6.988v7.469h-30.13c-3.86 0-6.988 3.129-6.988 6.988v12.929h-30.13c-3.86 0-6.988 3.129-6.988 6.988v15.193h-30.131c-3.86 0-6.988 3.129-6.988 6.988v29.876c0 3.859 3.129 6.988 6.988 6.988zm118.344-86.431h23.113v72.455h-23.113zm-37.118 14.457h23.142v57.998h-23.142zm-37.118 19.918h23.142v38.08h-23.142zm-37.119 22.18h23.143v15.9h-23.143zm56.724 163.044h-21.727v-9.704c0-7.254-5.889-13.156-13.128-13.156h-51.632c-7.254 0-13.156 5.902-13.156 13.156v9.704h-21.302c-3.86 0-6.988 3.129-6.988 6.988v90.703c0 3.859 3.129 6.988 6.988 6.988h120.945c3.86 0 6.988-3.129 6.988-6.988v-90.703c.001-3.86-3.128-6.988-6.988-6.988zm-85.666-8.884h49.962v8.884h-49.962zm-28.291 22.859h106.969v11.911c0 6.568-5.343 11.911-11.91 11.911h-22.067v-5.658c0-3.859-3.129-6.988-6.988-6.988h-25.009c-3.86 0-6.988 3.129-6.988 6.988v5.658h-22.095c-6.567 0-11.91-5.343-11.91-11.911v-11.911zm47.982 25.152h11.032v11.317h-11.032zm-47.982 51.575v-41.843c3.568 1.858 7.617 2.914 11.91 2.914h22.095v5.658c0 3.859 3.129 6.988 6.988 6.988h25.009c3.86 0 6.988-3.129 6.988-6.988v-5.658h22.067c4.293 0 8.342-1.057 11.91-2.914v41.843zm155.008-140.835c0 3.859-3.129 6.988-6.988 6.988h-155.008c-3.86 0-6.988-3.129-6.988-6.988s3.129-6.988 6.988-6.988h155.008c3.86 0 6.988 3.129 6.988 6.988zm193.405 133.016-28.225-50.036c12.81-11.165 22.106-25.818 26.767-42.57 6.29-22.61 3.403-46.32-8.134-66.76-8.681-15.382-21.483-27.522-36.923-35.272v-189.294c0-3.859-3.129-6.988-6.988-6.988h-68.86v-24.529c0-3.859-3.129-6.988-6.988-6.988h-55.757c-3.733-18.561-19.989-32.281-39.587-32.281-19.6 0-35.854 13.719-39.585 32.281h-55.757c-3.86 0-6.988 3.129-6.988 6.988v24.529h-67.363c-3.86 0-6.988 3.129-6.988 6.988v433.226c0 3.859 3.129 6.988 6.988 6.988h340.884c3.86 0 6.988-3.129 6.988-6.988v-45.762l9.726 17.222c3.342 5.933 9.533 9.273 15.907 9.273 3.028 0 6.098-.755 8.921-2.345l5.06-2.855c4.234-2.384 7.284-6.29 8.59-10.998 1.305-4.706.702-9.624-1.688-13.829zm-21.764-152.497c9.702 17.19 12.131 37.129 6.84 56.145-5.29 19.016-17.67 34.831-34.857 44.53-4.719 2.663-9.651 4.758-14.708 6.316-.033.01-.066.019-.098.03-13.334 4.087-27.568 4.323-41.324.494-19.007-5.29-34.816-17.669-44.518-34.86-20.037-35.457-7.467-80.62 28.021-100.673l-.001.001c17.177-9.701 37.108-12.131 56.118-6.839 3.447.959 6.786 2.159 10.005 3.571.048.021.096.04.144.06 14.475 6.381 26.464 17.2 34.378 31.225zm-291.285-255.964h54.97c3.769 0 6.86-2.989 6.984-6.757.474-14.313 12.069-25.524 26.399-25.524s25.926 11.212 26.4 25.525c.125 3.767 3.215 6.756 6.984 6.756h54.97v56.583h-176.707zm252.557 450.767h-326.907v-419.25h60.374v32.054c0 3.859 3.129 6.988 6.988 6.988h190.685c3.86 0 6.988-3.129 6.988-6.988v-32.054h61.872v176.751c-.684-.208-1.361-.433-2.052-.625-21.272-5.919-43.509-3.707-63.08 6.184h-229.777c-3.86 0-6.988 3.129-6.988 6.988s3.129 6.988 6.988 6.988h209.636c-4.401 4.073-8.318 8.545-11.733 13.325h-197.903c-3.86 0-6.988 3.129-6.988 6.988s3.129 6.988 6.988 6.988h189.748c-11.583 24.861-11.428 54.757 3.055 80.388 11.535 20.439 30.336 35.16 52.94 41.452 7.825 2.178 15.779 3.255 23.686 3.255 6.793 0 13.549-.805 20.155-2.382l5.325 9.428zm48.712-32.21c-.305 1.1-1.008 2.008-1.984 2.558l-5.059 2.854c-2.009 1.131-4.658.393-5.791-1.619l-27.653-48.965c3.181-1.335 6.307-2.853 9.357-4.575 1.141-.644 2.259-1.319 3.364-2.008l27.385 48.546c.55.97.686 2.109.381 3.209zm-104.369-179.5c-14.229 8.018-24.478 21.102-28.859 36.841-4.38 15.736-2.367 32.238 5.667 46.469 11.232 19.871 32.008 31.054 53.371 31.054 10.167 0 20.466-2.533 29.933-7.867 29.368-16.582 39.77-53.964 23.187-83.336-16.59-29.352-53.956-39.743-83.299-23.161zm53.246 94.324c-22.648 12.762-51.48 4.738-64.269-17.888-6.198-10.977-7.75-23.708-4.371-35.847s11.283-22.229 22.257-28.413c.002-.001.005-.003.008-.004 7.31-4.132 15.262-6.093 23.115-6.093 16.464 0 32.481 8.626 41.146 23.956 12.791 22.658 4.766 51.499-17.886 64.289z"/></svg>