<svg id="icons" xmlns="http://www.w3.org/2000/svg" viewBox="0 0 60 60"><path d="m55 33v23a3 3 0 0 1 -3 3h-48a3 3 0 0 1 -3-3v-23z" fill="#a3bdce"></path><path d="m1 33v-24l1-1h52l1 1v24l-1 1h-52z" fill="#c4ddf0"></path><path d="m55 4v5h-54v-5a3 3 0 0 1 3-3h48a3 3 0 0 1 3 3z" fill="#4b88a9"></path><path d="m55.826 51h-47.415a3.171 3.171 0 0 1 -3.056-2.323l-4.355-15.677h54l3.882 13.979a3.172 3.172 0 0 1 -3.056 4.021z" fill="#e4f1ff"></path><g fill="#373737"><path d="m4 60h48a4 4 0 0 0 4-4v-4.02a4.151 4.151 0 0 0 3.847-5.268l-3.883-13.98a1 1 0 0 0 -.964-.732h-53v-22h52v19a1 1 0 0 0 2 0v-25a4 4 0 0 0 -4-4h-48a4 4 0 0 0 -4 4v52a4 4 0 0 0 4 4zm50.24-26 3.679 13.247a2.172 2.172 0 0 1 -2.093 2.753h-47.415a2.178 2.178 0 0 1 -2.093-1.591l-4.003-14.409zm-49.849 14.944a4.187 4.187 0 0 0 4.02 3.056h45.589v4a2 2 0 0 1 -2 2h-48a2 2 0 0 1 -2-2v-15.662zm-.391-46.944h48a2 2 0 0 1 2 2v4h-52v-4a2 2 0 0 1 2-2z"></path><path d="m5 6h1a1 1 0 0 0 0-2h-1a1 1 0 0 0 0 2z"></path><path d="m10 6h1a1 1 0 0 0 0-2h-1a1 1 0 0 0 0 2z"></path><path d="m15 6h1a1 1 0 0 0 0-2h-1a1 1 0 0 0 0 2z"></path><path d="m45 6h6a1 1 0 0 0 0-2h-6a1 1 0 0 0 0 2z"></path><path d="m28 29a1 1 0 0 0 1-1v-9.585l2.293 2.293a1 1 0 0 0 1.414-1.414l-4-4a1 1 0 0 0 -1.414 0l-4 4a1 1 0 0 0 1.414 1.414l2.293-2.293v9.585a1 1 0 0 0 1 1z"></path><path d="m15 29a1 1 0 0 0 1-1v-7.585l2.293 2.293a1 1 0 0 0 1.414-1.414l-4-4a1 1 0 0 0 -1.414 0l-4 4a1 1 0 0 0 1.414 1.414l2.293-2.293v7.585a1 1 0 0 0 1 1z"></path><path d="m41 29a1 1 0 0 0 1-1v-7.585l2.293 2.293a1 1 0 0 0 1.414-1.414l-4-4a1 1 0 0 0 -1.414 0l-4 4a1 1 0 0 0 1.414 1.414l2.293-2.293v7.585a1 1 0 0 0 1 1z"></path></g></svg>