<svg id="Layer_1" enable-background="new 0 0 66 66" xmlns="http://www.w3.org/2000/svg" viewBox="1.53 2.2 62.94 61.6"><g><g><path d="m16.91 6.71v4.74h-6.92c-.36 0-.65-.29-.65-.65v-4.09c0-2.09 1.7-3.79 3.79-3.79 2.08 0 3.78 1.7 3.78 3.79z" fill="#f92f4a"></path></g><g><path d="m16.91 6.71v4.74h-2.59v-2.77c0-1.05-.42-1.99-1.11-2.68-.68-.68-1.63-1.11-2.68-1.11-.27 0-.54.03-.79.09.63-1.22 1.9-2.06 3.37-2.06 1.05 0 1.99.42 2.68 1.11.7.68 1.12 1.63 1.12 2.68z" fill="#e31f34"></path></g><g><path d="m63.75 57.96v.82c0 2.37-1.92 4.29-4.29 4.29h-52.92c-2.37 0-4.29-1.92-4.29-4.29v-.82c0-.63.51-1.14 1.14-1.14h59.22c.63 0 1.14.51 1.14 1.14z" fill="#f6304a"></path></g><g><path d="m63.74 59.06c-.15 2.24-2 4.02-4.29 4.02h-52.91c-2.37 0-4.29-1.92-4.29-4.29v-.83c0-.63.51-1.14 1.14-1.14h4.6c5.08 2.09 17.92 3.56 32.94 3.56 8.71 0 16.67-.49 22.81-1.32z" fill="#e31f34"></path></g><g><path d="m60.14 26.03v30.8h-54.28v-30.8c0-2.9 2.35-5.24 5.24-5.24h43.8c2.9-.01 5.24 2.34 5.24 5.24z" fill="#97d146"></path></g><g><path d="m60.14 49.87v6.95h-54.29v-30.8c0-2.9 2.35-5.24 5.25-5.24h2.68c-2.21 2.62-3.44 5.53-3.44 8.58 0 11.68 17.93 21.13 40.06 21.13 3.36.01 6.62-.21 9.74-.62z" fill="#7ebd2d"></path></g><g><path d="m55.66 27.89v21.83c0 1.41-1.15 2.56-2.56 2.56h-40.2c-1.41 0-2.56-1.15-2.56-2.56v-21.83c0-1.41 1.15-2.56 2.56-2.56h40.2c1.41 0 2.56 1.14 2.56 2.56z" fill="#f9f9fc"></path></g><g><path d="m55.66 47.06v2.66c0 1.41-1.15 2.55-2.56 2.55h-40.19c-1.41 0-2.56-1.14-2.56-2.55v-21.84c0-1.41 1.15-2.55 2.56-2.55h8.93c-2.84 2.13-4.45 4.58-4.45 7.18 0 8.08 15.52 14.63 34.67 14.63 1.21 0 2.41-.03 3.6-.08z" fill="#eaebef"></path></g><g><path d="m59.46 63.8h-52.92c-2.76 0-5.01-2.25-5.01-5.01v-.82c0-1.03.84-1.86 1.86-1.86h59.22c1.03 0 1.86.84 1.86 1.86v.82c0 2.76-2.25 5.01-5.01 5.01zm-56.07-6.26c-.23 0-.42.19-.42.42v.82c0 1.97 1.6 3.57 3.57 3.57h52.92c1.97 0 3.57-1.6 3.57-3.57v-.82c0-.23-.19-.42-.42-.42z" fill="#2f2c39"></path></g><g><path d="m60.14 57.54h-54.28c-.4 0-.72-.32-.72-.72v-30.8c0-3.29 2.68-5.96 5.96-5.96h43.8c3.29 0 5.96 2.68 5.96 5.96v30.8c0 .4-.32.72-.72.72zm-53.56-1.44h52.85v-30.07c0-2.49-2.03-4.52-4.52-4.52h-43.81c-2.49 0-4.52 2.03-4.52 4.52z" fill="#2f2c39"></path></g><g><g><path d="m37.44 56.82v2.63c0 .51-.41.93-.93.93h-7.03c-.51 0-.93-.41-.93-.93v-2.63z" fill="#f9f9fc"></path></g><g><path d="m37.44 59.01v.44c0 .51-.41.92-.92.92h-7.03c-.51 0-.92-.41-.92-.92v-2.63h2.2c.29 1.14 3.1 2.04 6.67 2.19z" fill="#eaebef"></path></g><g><path d="m36.52 61.1h-7.03c-.91 0-1.65-.74-1.65-1.65v-2.63c0-.4.32-.72.72-.72h8.88c.4 0 .72.32.72.72v2.63c0 .91-.74 1.65-1.64 1.65zm-7.24-3.56v1.91c0 .11.09.2.2.2h7.03c.11 0 .2-.09.2-.2v-1.91z" fill="#2f2c39"></path></g></g><g><path d="m53.1 53h-40.2c-1.81 0-3.28-1.47-3.28-3.28v-21.83c0-1.81 1.47-3.28 3.28-3.28h40.2c1.81 0 3.28 1.47 3.28 3.28v21.83c0 1.81-1.47 3.28-3.28 3.28zm-40.2-26.95c-1.01 0-1.84.82-1.84 1.84v21.83c0 1.01.82 1.84 1.84 1.84h40.2c1.01 0 1.84-.82 1.84-1.84v-21.83c0-1.01-.82-1.84-1.84-1.84z" fill="#2f2c39"></path></g><g><path d="m50.2 6.71v35.89c0 .86-.7 1.56-1.56 1.56h-30.17c-.86 0-1.56-.7-1.56-1.56v-35.89c0-1.05-.42-2-1.11-2.68-.68-.68-1.63-1.11-2.68-1.11h33.29c1.05 0 2 .42 2.68 1.11.68.68 1.11 1.63 1.11 2.68z" fill="#fece36"></path></g><g><path d="m50.2 36.34v6.26c0 .86-.7 1.57-1.57 1.57h-30.15c-.86 0-1.57-.7-1.57-1.57v-35.89c0-1.05-.42-2-1.11-2.68-.68-.68-1.63-1.11-2.68-1.11h13.51c-.2 1.38-.31 2.81-.31 4.26.01 14.42 10.26 26.44 23.88 29.16z" fill="#f6b623"></path></g><g><path d="m16.91 12.17h-6.92c-.76 0-1.37-.62-1.37-1.37v-4.09c0-2.48 2.02-4.51 4.51-4.51s4.51 2.02 4.51 4.51v4.74c-.01.4-.33.72-.73.72zm-6.85-1.44h6.13v-4.02c0-1.69-1.37-3.07-3.06-3.07s-3.07 1.38-3.07 3.07z" fill="#2f2c39"></path></g><g><path d="m48.63 44.88h-30.16c-1.26 0-2.29-1.02-2.29-2.28v-35.89c0-.82-.32-1.59-.89-2.17-.58-.58-1.35-.89-2.17-.89-.4 0-.72-.32-.72-.72s.32-.72.72-.72h33.29c1.21 0 2.34.47 3.19 1.32s1.32 1.98 1.32 3.19v35.88c0 1.26-1.03 2.28-2.29 2.28zm-32.2-41.23c.77.83 1.2 1.91 1.2 3.07v35.88c0 .46.38.84.84.84h30.16c.47 0 .84-.38.84-.84v-35.89c0-.82-.32-1.59-.89-2.17-.58-.58-1.35-.89-2.17-.89z" fill="#2f2c39"></path></g><g><g><path d="m29.17 10.8v4c0 .9-.73 1.63-1.63 1.63h-4c-.9 0-1.63-.73-1.63-1.63v-4c0-.9.73-1.63 1.63-1.63h4c.9 0 1.63.73 1.63 1.63z" fill="#f9f9fc"></path></g><g><path d="m29.18 14.73v.07c0 .89-.73 1.63-1.63 1.63h-4c-.9 0-1.63-.73-1.63-1.63v-4c0-.84.62-1.52 1.43-1.62 0 3.08 2.5 5.57 5.58 5.57.09 0 .17 0 .25-.02z" fill="#eaebef"></path></g><g><path d="m27.55 17.15h-4c-1.3 0-2.35-1.05-2.35-2.35v-4c0-1.29 1.05-2.35 2.35-2.35h4c1.3 0 2.35 1.05 2.35 2.35v4c-.01 1.3-1.06 2.35-2.35 2.35zm-4.01-7.26c-.5 0-.91.41-.91.91v4c0 .5.41.91.91.91h4c.5 0 .91-.41.91-.91v-4c0-.5-.41-.91-.91-.91z" fill="#2f2c39"></path></g><g><g><path d="m44.62 11.51h-10.52c-.4 0-.72-.32-.72-.72s.32-.72.72-.72h10.52c.4 0 .72.32.72.72s-.32.72-.72.72z" fill="#2f2c39"></path></g><g><path d="m44.62 15.53h-10.52c-.4 0-.72-.32-.72-.72s.32-.72.72-.72h10.52c.4 0 .72.32.72.72s-.32.72-.72.72z" fill="#2f2c39"></path></g></g></g><g><g><path d="m29.17 22.27v4c0 .9-.73 1.63-1.63 1.63h-4c-.9 0-1.63-.73-1.63-1.63v-4c0-.9.73-1.63 1.63-1.63h4c.9 0 1.63.73 1.63 1.63z" fill="#f9f9fc"></path></g><g><path d="m29.18 26.2v.07c0 .89-.73 1.63-1.63 1.63h-4c-.9 0-1.63-.73-1.63-1.63v-4.01c0-.84.62-1.52 1.43-1.62 0 3.08 2.5 5.57 5.58 5.57.09.01.17.01.25-.01z" fill="#eaebef"></path></g><g><path d="m27.55 28.62h-4c-1.3 0-2.35-1.05-2.35-2.35v-4c0-1.29 1.05-2.35 2.35-2.35h4c1.3 0 2.35 1.05 2.35 2.35v4c-.01 1.3-1.06 2.35-2.35 2.35zm-4.01-7.26c-.5 0-.91.41-.91.91v4c0 .5.41.91.91.91h4c.5 0 .91-.41.91-.91v-4c0-.5-.41-.91-.91-.91z" fill="#2f2c39"></path></g><g><g><path d="m44.62 22.98h-10.52c-.4 0-.72-.32-.72-.72s.32-.72.72-.72h10.52c.4 0 .72.32.72.72s-.32.72-.72.72z" fill="#2f2c39"></path></g><g><path d="m44.62 27h-10.52c-.4 0-.72-.32-.72-.72s.32-.72.72-.72h10.52c.4 0 .72.32.72.72s-.32.72-.72.72z" fill="#2f2c39"></path></g></g></g><g><g><path d="m29.17 33.74v4c0 .9-.73 1.63-1.63 1.63h-4c-.9 0-1.63-.73-1.63-1.63v-4c0-.9.73-1.63 1.63-1.63h4c.9 0 1.63.73 1.63 1.63z" fill="#f9f9fc"></path></g><g><path d="m29.18 37.67v.07c0 .89-.73 1.63-1.63 1.63h-4c-.9 0-1.63-.73-1.63-1.63v-4.01c0-.84.62-1.52 1.43-1.62 0 3.08 2.5 5.57 5.58 5.57.09.01.17.01.25-.01z" fill="#eaebef"></path></g><g><path d="m27.55 40.09h-4c-1.3 0-2.35-1.05-2.35-2.35v-4c0-1.29 1.05-2.35 2.35-2.35h4c1.3 0 2.35 1.05 2.35 2.35v4c-.01 1.3-1.06 2.35-2.35 2.35zm-4.01-7.26c-.5 0-.91.41-.91.91v4c0 .5.41.91.91.91h4c.5 0 .91-.41.91-.91v-4c0-.5-.41-.91-.91-.91z" fill="#2f2c39"></path></g><g><g><path d="m44.62 34.45h-10.52c-.4 0-.72-.32-.72-.72s.32-.72.72-.72h10.52c.4 0 .72.32.72.72s-.32.72-.72.72z" fill="#2f2c39"></path></g><g><path d="m44.62 38.47h-10.52c-.4 0-.72-.32-.72-.72s.32-.72.72-.72h10.52c.4 0 .72.32.72.72s-.32.72-.72.72z" fill="#2f2c39"></path></g></g></g></g></svg>