<svg id="Filled" height="512" viewBox="0 0 512 512" width="512" xmlns="http://www.w3.org/2000/svg"><path d="m328 88 32 32-120 120-32 32 24 24 32-32 120-120 32 32v-88z" fill="#eb423f"/><path d="m32 264h208v224h-208z" fill="#e9eef2"/><g fill="#eb423f"><path d="m304 24h32v32h-32z"/><path d="m448 200h32v32h-32z"/><path d="m160 200h32v32h-32z"/><path d="m448 24h32v32h-32z"/><path d="m160 24h32v32h-32z"/></g><path d="m120 424a16 16 0 0 1 -16-16v-2.362a16.065 16.065 0 0 0 -5.373-11.951 55.834 55.834 0 0 1 -18.627-41.687c0-30.582 25.545-55.991 56-55.991s56 25.409 56 55.991a55.834 55.834 0 0 1 -18.627 41.687 16.062 16.062 0 0 0 -5.373 11.951v2.362a16 16 0 0 1 -16 16z" fill="#ffe76c"/><path d="m304 376h32v32h-32z" fill="#eb423f"/><path d="m448 376h32v32h-32z" fill="#eb423f"/><path d="m104 424h64a0 0 0 0 1 0 0v16a16 16 0 0 1 -16 16h-32a16 16 0 0 1 -16-16v-16a0 0 0 0 1 0 0z" fill="#3397e8"/><path d="m112 344h48l-24 32z" fill="#ffd33a"/><path d="m480 64a8 8 0 0 0 8-8v-32a8 8 0 0 0 -8-8h-32a8 8 0 0 0 -8 8v8h-96v-8a8 8 0 0 0 -8-8h-32a8 8 0 0 0 -8 8v8h-96v-8a8 8 0 0 0 -8-8h-32a8 8 0 0 0 -8 8v32a8 8 0 0 0 8 8h8v128h-8a8 8 0 0 0 -8 8v32a8 8 0 0 0 8 8h8v16h-136a8 8 0 0 0 -8 8v224a8 8 0 0 0 8 8h208a8 8 0 0 0 8-8v-88h48v8a8 8 0 0 0 8 8h32a8 8 0 0 0 8-8v-8h96v8a8 8 0 0 0 8 8h32a8 8 0 0 0 8-8v-32a8 8 0 0 0 -8-8h-8v-128h8a8 8 0 0 0 8-8v-32a8 8 0 0 0 -8-8h-8v-128zm-24-32h16v16h-16zm-144 0h16v16h-16zm-144 0h16v16h-16zm0 176h16v16h-16zm64 272h-192v-208h192zm133.657-365.657-18.344-18.343h60.687v60.686l-18.343-18.343a8 8 0 0 0 -11.314 0l-130.343 130.343v-4.686a8 8 0 0 0 -8-8h-4.686l130.343-130.343a8 8 0 0 0 0-11.314zm-37.657 285.657h-16v-16h16zm144 0h-16v-16h16zm0-176h-16v-16h16zm-16-32h-8a8 8 0 0 0 -8 8v32a8 8 0 0 0 8 8h8v128h-8a8 8 0 0 0 -8 8v8h-96v-8a8 8 0 0 0 -8-8h-32a8 8 0 0 0 -8 8v8h-48v-92.686l136-136 26.343 26.343a8 8 0 0 0 13.657-5.657v-88a8 8 0 0 0 -8-8h-88a8 8 0 0 0 -5.657 13.657l26.343 26.343-136 136h-28.686v-16h8a8 8 0 0 0 8-8v-32a8 8 0 0 0 -8-8h-8v-128h8a8 8 0 0 0 8-8v-8h96v8a8 8 0 0 0 8 8h32a8 8 0 0 0 8-8v-8h96v8a8 8 0 0 0 8 8h8z"/><path d="m181.086 306.872a63.469 63.469 0 0 0 -45.063-18.862c-.013 0-.027 0-.041 0a63.982 63.982 0 0 0 -42.7 111.633 8.079 8.079 0 0 1 2.715 6v2.357a23.844 23.844 0 0 0 2.346 10.341 7.972 7.972 0 0 0 -2.343 5.659v16a24.028 24.028 0 0 0 24 24h32a24.028 24.028 0 0 0 24-24v-16a7.972 7.972 0 0 0 -2.346-5.659 23.844 23.844 0 0 0 2.346-10.341v-2.361a8.081 8.081 0 0 1 2.714-6 63.638 63.638 0 0 0 2.372-92.771zm-21.086 133.128a8.009 8.009 0 0 1 -8 8h-32a8.009 8.009 0 0 1 -8-8v-8h48zm-32-88h16l-8 10.667zm40.032 35.73a24.11 24.11 0 0 0 -8.032 17.909v2.361a8.009 8.009 0 0 1 -8 8h-8v-37.334l22.4-29.866a8 8 0 0 0 -6.4-12.8h-48a8 8 0 0 0 -6.4 12.8l22.4 29.866v37.334h-8a8.009 8.009 0 0 1 -8-8v-2.361a24.108 24.108 0 0 0 -8.033-17.909 48.062 48.062 0 0 1 -15.967-35.73 48.5 48.5 0 0 1 47.987-47.99h.031a47.98 47.98 0 0 1 32.014 83.72z"/></svg>