<svg id="Capa_1" enable-background="new 0 0 512 512" xmlns="http://www.w3.org/2000/svg" viewBox="27.45 0 457.09 512"><g><g><path clip-rule="evenodd" d="m241.185 6.921c-51.588 48.33-115.678 77.562-195.549 77.883-9.837.058-18.182 7.184-18.182 18.544v96.193c0 119.613 22.369 222.552 211.359 307.006 16.249 7.271 18.123 7.271 34.373 0 188.99-84.454 211.359-187.392 211.359-307.006v-96.193c0-11.36-8.344-18.485-18.182-18.544-79.842-.321-143.961-29.553-195.549-77.883-9.866-9.228-19.762-9.228-29.629 0z" fill="#6fd7a3" fill-rule="evenodd"></path></g><g><path clip-rule="evenodd" d="m256 51.63c-53.52 44.943-115.678 70.349-185.214 75.459v72.451c0 32.094 1.552 65.18 9.574 96.397 22.603 87.87 97.028 135.733 175.64 170.922 78.612-35.189 153.037-83.052 175.64-170.922 8.022-31.217 9.574-64.304 9.574-96.397v-72.451c-69.536-5.11-131.694-30.516-185.214-75.459z" fill="#f4eafa" fill-rule="evenodd"></path></g><g><path clip-rule="evenodd" d="m400.956 275.379c-23.1 89.885-99.194 138.799-179.592 174.806-.234-.117-.468-.204-.703-.321 11.565 6.016 23.423 11.652 35.339 16.996 78.612-35.189 153.037-83.052 175.64-170.922 8.022-31.217 9.574-64.304 9.574-96.397v-72.451c-10.306-.759-20.465-1.986-30.449-3.621v53.353c-.001 32.823-1.582 66.668-9.809 98.557z" fill="#dedbee" fill-rule="evenodd"></path></g><g><path clip-rule="evenodd" d="m466.364 84.804c-14.288-.058-28.078-1.051-41.37-2.891v43.599c5.358.642 10.774 1.168 16.22 1.577v72.451c0 32.094-1.552 65.18-9.574 96.397-22.603 87.871-97.028 135.734-175.64 170.923-4.509-2.015-8.988-4.059-13.468-6.191-9.193 4.643-18.826 9.199-28.927 13.725-16.249 7.271-18.123 7.271-34.373 0-4.304-1.927-8.52-3.855-12.648-5.811 20.846 13.054 44.796 25.698 72.229 37.963 16.249 7.271 18.123 7.271 34.373 0 188.99-84.454 211.359-187.392 211.359-307.006v-96.193c0-11.359-8.344-18.485-18.181-18.543z" fill="#3ec3a4" fill-rule="evenodd"></path></g><g><path d="m301.879 315.93c-4.268 0-7.726-3.459-7.726-7.726v-18.954c0-20.956-17.116-38.005-38.153-38.005s-38.153 17.049-38.153 38.005v18.953c0 4.267-3.459 7.726-7.726 7.726s-7.726-3.459-7.726-7.726v-18.953c0-29.476 24.047-53.457 53.606-53.457s53.606 23.981 53.606 53.457v18.953c-.001 4.267-3.46 7.727-7.728 7.727z" fill="#024c67"></path></g><g><path d="m329.581 216.156c-10.506 0-10.966-.089-11.595-.209-3.638-.699-6.268-3.883-6.268-7.588v-69.794c0-4.267 3.459-7.726 7.726-7.726s7.726 3.459 7.726 7.726v62.132c7.256-.001 18.406-.031 26.231-.065h.035c4.252 0 7.706 3.437 7.725 7.692.019 4.267-3.426 7.741-7.692 7.761-11.175.05-18.739.071-23.888.071z" fill="#024c67"></path></g><g><path d="m257.611 216.144c-11.528 0-22.785-4.823-30.113-12.902-2.866-3.161-2.628-8.047.533-10.914 3.159-2.867 8.045-2.629 10.913.533 4.447 4.903 11.425 7.831 18.666 7.831 7.316 0 12.483-4.465 13.253-8.782 1.055-5.925-6.523-9.395-9.831-10.612-10.829-3.984-20.443-8.245-20.847-8.425-.372-.166-.731-.361-1.073-.583-7.044-4.579-10.676-12.618-9.477-20.98 1.283-8.95 7.852-16.243 17.146-19.034 18.588-5.605 33.92 7.016 34.563 7.556 3.269 2.743 3.694 7.617.952 10.885-2.732 3.257-7.582 3.692-10.85.98-.238-.191-9.791-7.77-20.211-4.624-5.077 1.525-6.1 5.004-6.304 6.429-.315 2.199.499 4.234 2.191 5.539 2.329 1.017 10.479 4.529 19.245 7.754 17.067 6.28 21.371 18.49 19.709 27.824-2.186 12.272-14.423 21.525-28.465 21.525z" fill="#024c67"></path></g><g><path d="m181.751 216.144c-11.547 0-22.815-4.823-30.141-12.903-2.866-3.161-2.628-8.047.533-10.914 3.16-2.866 8.046-2.627 10.913.534 4.447 4.903 11.435 7.83 18.694 7.83 7.307 0 12.467-4.459 13.234-8.769 1.057-5.932-6.531-9.406-9.842-10.625-10.828-3.983-20.443-8.245-20.846-8.425-.373-.165-.732-.361-1.074-.583-7.044-4.579-10.675-12.619-9.477-20.981 1.283-8.949 7.853-16.242 17.146-19.033 18.592-5.609 33.921 7.016 34.564 7.556 3.269 2.743 3.694 7.617.952 10.885-2.733 3.259-7.585 3.692-10.851.98-.262-.21-9.797-7.764-20.212-4.623-5.075 1.524-6.098 5.004-6.302 6.429-.316 2.2.499 4.234 2.19 5.54 2.33 1.018 10.48 4.529 19.246 7.755 17.076 6.283 21.383 18.499 19.719 27.837-2.219 12.463-14.183 21.51-28.446 21.51z" fill="#024c67"></path></g><g><path clip-rule="evenodd" d="m301.879 308.203h-91.758-1.932c-9.545 0-17.333 7.797-17.333 17.288v18.631c0 35.744 29.307 64.976 65.144 64.976s65.144-29.232 65.144-64.976v-18.631c0-9.491-7.788-17.288-17.333-17.288z" fill="#fdb441" fill-rule="evenodd"></path></g><g><path clip-rule="evenodd" d="m321.144 325.491c0-9.491-7.788-17.288-17.333-17.288h-1.932-28.81c9.545 0 17.333 7.797 17.333 17.288v18.631c0 30.458-21.285 56.186-49.773 63.136 4.948 1.197 10.072 1.84 15.371 1.84 35.836 0 65.144-29.232 65.144-64.976z" fill="#fe9901" fill-rule="evenodd"></path></g><g><path d="m256 372.67c-4.268 0-7.726-3.459-7.726-7.726v-12.557c0-4.267 3.459-7.726 7.726-7.726s7.726 3.459 7.726 7.726v12.557c0 4.267-3.458 7.726-7.726 7.726z" fill="#024c67"></path></g></g></svg>