<svg id="Icons" xmlns="http://www.w3.org/2000/svg" viewBox="0 0 60 60"><path d="m59 9v47a3 3 0 0 1 -3 3h-52a3 3 0 0 1 -3-3v-47l1-1h56z" fill="#d7e6e7"></path><path d="m59 4v5h-58v-5a3 3 0 0 1 3-3h52a3 3 0 0 1 3 3z" fill="#78c584"></path><rect fill="#78c584" height="9" rx="2" width="9" x="43" y="15"></rect><rect fill="#78c584" height="9" rx="2" width="9" x="43" y="30"></rect><rect fill="#78c584" height="9" rx="2" width="9" x="43" y="45"></rect><path d="m24.23 21h10.77a2.006 2.006 0 0 1 2 2 2.015 2.015 0 0 1 -2 2h-10.77z" fill="#eab979"></path><path d="m19.77 25h-10.77a2.006 2.006 0 0 1 -2-2 2.015 2.015 0 0 1 2-2h10.77z" fill="#eab979"></path><path d="m20 24h4v20h-4z" fill="#eab979"></path><path d="m20 20.77v-2.77a2 2 0 0 1 2-2 2 2 0 0 1 2 2v2.77z" fill="#eab979"></path><circle cx="22" cy="23" fill="#fccf8e" r="3"></circle><path d="m17 43h10a2 2 0 0 1 2 2v3a0 0 0 0 1 0 0h-14a0 0 0 0 1 0 0v-3a2 2 0 0 1 2-2z" fill="#d3a26b"></path><path d="m15 47h14a2 2 0 0 1 2 2v1a1 1 0 0 1 -1 1h-16a1 1 0 0 1 -1-1v-1a2 2 0 0 1 2-2z" fill="#eab979"></path><path d="m7 32h9a0 0 0 0 1 0 0v2a3 3 0 0 1 -3 3h-3a3 3 0 0 1 -3-3v-2a0 0 0 0 1 0 0z" fill="#eab979"></path><path d="m28 32h9a0 0 0 0 1 0 0v2a3 3 0 0 1 -3 3h-3a3 3 0 0 1 -3-3v-2a0 0 0 0 1 0 0z" fill="#eab979"></path><g fill="#373737"><path d="m42 37a3 3 0 0 0 3 3h5a3 3 0 0 0 3-3v-5a3.008 3.008 0 0 0 -.054-.532l1.761-1.761a1 1 0 0 0 -1.414-1.414l-1.4 1.4a2.972 2.972 0 0 0 -1.893-.693h-5a3 3 0 0 0 -3 3zm2-5a1 1 0 0 1 1-1h5a.974.974 0 0 1 .46.126l-2.46 2.46-.293-.293a1 1 0 0 0 -1.414 1.414l1 1a1 1 0 0 0 1.414 0l2.293-2.293v3.586a1 1 0 0 1 -1 1h-5a1 1 0 0 1 -1-1z"></path><path d="m42 52a3 3 0 0 0 3 3h5a3 3 0 0 0 3-3v-5a3.008 3.008 0 0 0 -.054-.532l1.761-1.761a1 1 0 0 0 -1.414-1.414l-1.4 1.4a2.972 2.972 0 0 0 -1.893-.693h-5a3 3 0 0 0 -3 3zm2-5a1 1 0 0 1 1-1h5a.974.974 0 0 1 .46.126l-2.46 2.46-.293-.293a1 1 0 0 0 -1.414 1.414l1 1a1 1 0 0 0 1.414 0l2.293-2.293v3.586a1 1 0 0 1 -1 1h-5a1 1 0 0 1 -1-1z"></path><path d="m6 34a4 4 0 0 0 4 4h3a4 4 0 0 0 4-4v-2a.969.969 0 0 0 -.174-.531l.015-.01-3.51-5.459h5.669v16h-2a3 3 0 0 0 -3 3v1.184a3 3 0 0 0 -2 2.816v1a2 2 0 0 0 2 2h16a2 2 0 0 0 2-2v-1a3 3 0 0 0 -2-2.816v-1.184a3 3 0 0 0 -3-3h-2v-16h5.669l-3.51 5.459.015.01a.969.969 0 0 0 -.174.531v2a4 4 0 0 0 4 4h3a4 4 0 0 0 4-4v-2a.969.969 0 0 0 -.174-.531l.015-.01-3.51-5.459h.669a3.015 3.015 0 0 0 3-3 3 3 0 0 0 -3-3h-10v-2a3 3 0 0 0 -6 0v2h-10a3.015 3.015 0 0 0 -3 3 3 3 0 0 0 3 3h.669l-3.51 5.459.015.01a.969.969 0 0 0 -.174.531zm26.5-7.15 2.668 4.15h-5.336zm3.5 7.15a2 2 0 0 1 -2 2h-3a2 2 0 0 1 -2-2v-1h7zm-12-11a2 2 0 1 1 -2-2 2 2 0 0 1 2 2zm-10 27v-1a1 1 0 0 1 1-1h14a1 1 0 0 1 1 1v1zm14-5v1h-12v-1a1 1 0 0 1 1-1h10a1 1 0 0 1 1 1zm-7-3v-15.142a3.592 3.592 0 0 0 2 0v15.142zm15-19a.977.977 0 0 1 -.307.713.959.959 0 0 1 -.693.287h-9.142a3.592 3.592 0 0 0 0-2h9.142a1 1 0 0 1 1 1zm-14-6a1 1 0 0 1 1 1v1.142a3.592 3.592 0 0 0 -2 0v-1.142a1 1 0 0 1 1-1zm-14 6a.977.977 0 0 1 .307-.713.959.959 0 0 1 .693-.287h9.142a3.592 3.592 0 0 0 0 2h-9.142a1 1 0 0 1 -1-1zm7 11a2 2 0 0 1 -2 2h-3a2 2 0 0 1 -2-2v-1h7zm-6.168-3 2.668-4.15 2.668 4.15z"></path><path d="m56 0h-52a4 4 0 0 0 -4 4v8a1 1 0 0 0 2 0v-2h56v46a2 2 0 0 1 -2 2h-52a2 2 0 0 1 -2-2v-40a1 1 0 0 0 -2 0v40a4 4 0 0 0 4 4h52a4 4 0 0 0 4-4v-52a4 4 0 0 0 -4-4zm-54 8v-4a2 2 0 0 1 2-2h52a2 2 0 0 1 2 2v4z"></path><path d="m6 4h-1a1 1 0 0 0 0 2h1a1 1 0 0 0 0-2z"></path><path d="m11 4h-1a1 1 0 0 0 0 2h1a1 1 0 0 0 0-2z"></path><path d="m16 4h-1a1 1 0 0 0 0 2h1a1 1 0 0 0 0-2z"></path><path d="m55 4h-6a1 1 0 0 0 0 2h6a1 1 0 0 0 0-2z"></path><path d="m54.707 13.293a1 1 0 0 0 -1.414 0l-1.4 1.4a2.972 2.972 0 0 0 -1.893-.693h-5a3 3 0 0 0 -3 3v5a3 3 0 0 0 3 3h5a3 3 0 0 0 3-3v-5a3.008 3.008 0 0 0 -.054-.532l1.761-1.761a1 1 0 0 0 0-1.414zm-3.707 8.707a1 1 0 0 1 -1 1h-5a1 1 0 0 1 -1-1v-5a1 1 0 0 1 1-1h5a.974.974 0 0 1 .46.126l-2.46 2.46-.293-.293a1 1 0 0 0 -1.414 1.414l1 1a1 1 0 0 0 1.414 0l2.293-2.293z"></path></g></svg>