<svg version="1.1" id="Capa_1" xmlns="http://www.w3.org/2000/svg" xmlns:xlink="http://www.w3.org/1999/xlink" x="0px" y="0px" style="enable-background:new 0 0 510 510;" xml:space="preserve" viewBox="0 44 510 422"> <g> 	<g> 		<g> 			<path style="fill:#67CCD1;" d="M478,400H32c-12.15,0-22-9.85-22-22V76c0-12.15,9.85-22,22-22h446c12.15,0,22,9.85,22,22v302				C500,390.15,490.15,400,478,400z"></path> 			<path style="fill:#27A2CC;" d="M260.54,227c0-62.821,16.335-121.825,44.989-173H32c-12.15,0-22,9.85-22,22v302				c0,12.15,9.85,22,22,22h273.529C276.875,348.825,260.54,289.821,260.54,227z"></path> 			<path style="fill:#D2DCFD;" d="M10,344v34c0,12.15,9.85,22,22,22h446c12.15,0,22-9.85,22-22v-34H10z"></path> 			<path style="fill:#93B2F4;" d="M280.299,344H10v34c0,12.15,9.85,22,22,22h273.529C295.575,382.223,287.111,363.499,280.299,344z"></path> 		</g> 		<g> 			<path style="fill:#67CCD1;" d="M112.781,400l-18.459,56H45.677L54,400H112.781z"></path> 			<path style="fill:#67CCD1;" d="M456.25,400l8.323,56h-48.645l-18.459-56H456.25z"></path> 		</g> 		<g> 			<g> 				<rect x="298" y="186" style="fill:#FFFFFF;" width="158" height="158"></rect> 				<path style="fill:#FD7DA0;" d="M382.426,287h-10.852C355.241,287,342,300.241,342,316.574V344h70v-27.426					C412,300.241,398.759,287,382.426,287z"></path> 				<circle style="fill:#FDBEB9;" cx="377" cy="261" r="26"></circle> 			</g> 			<g> 				<path style="fill:#FDCB50;" d="M177.894,209.8h-63.789C80.91,209.8,54,236.71,54,269.906V344h184v-74.094					C238,236.71,211.09,209.8,177.894,209.8z"></path> 				<polygon style="fill:#FFFFFF;" points="177.894,209.8 146,301.055 114.106,209.8 				"></polygon> 				<circle style="fill:#FDE0BE;" cx="146" cy="165.719" r="44.081"></circle> 			</g> 			<rect x="380" y="98" style="fill:#FFFFFF;" width="76" height="44"></rect> 		</g> 	</g> 	<g> 		<g> 			<g> 				<path style="fill:none;stroke:#052A75;stroke-width:20;stroke-linejoin:round;stroke-miterlimit:10;" d="M112.781,400					l-18.459,56H45.677L54,400"></path> 				<path style="fill:none;stroke:#052A75;stroke-width:20;stroke-linejoin:round;stroke-miterlimit:10;" d="M456.25,400l8.323,56					h-48.645l-18.459-56"></path> 			</g> 			<g> 				<path style="fill:none;stroke:#052A75;stroke-width:20;stroke-linejoin:round;stroke-miterlimit:10;" d="M478,400H32					c-12.15,0-22-9.85-22-22V76c0-12.15,9.85-22,22-22h446c12.15,0,22,9.85,22,22v302C500,390.15,490.15,400,478,400z"></path> 				 					<line style="fill:none;stroke:#052A75;stroke-width:20;stroke-linejoin:round;stroke-miterlimit:10;" x1="500" y1="344" x2="10" y2="344"></line> 			</g> 		</g> 		<g> 			<path style="fill:none;stroke:#052A75;stroke-width:20;stroke-linejoin:round;stroke-miterlimit:10;" d="M412,344v-27.426				C412,300.241,398.759,287,382.426,287h-10.852C355.241,287,342,300.241,342,316.574V344"></path> 			 				<circle style="fill:none;stroke:#052A75;stroke-width:20;stroke-linejoin:round;stroke-miterlimit:10;" cx="377" cy="261" r="26"></circle> 			<polyline style="fill:none;stroke:#052A75;stroke-width:20;stroke-linejoin:round;stroke-miterlimit:10;" points="298,344 				298,186 456,186 456,344 			"></polyline> 		</g> 		<g> 			<path style="fill:none;stroke:#052A75;stroke-width:20;stroke-linejoin:round;stroke-miterlimit:10;" d="M238,344v-74.094				c0-33.195-26.91-60.106-60.106-60.106h-63.789C80.91,209.8,54,236.71,54,269.906V344"></path> 			 				<circle style="fill:none;stroke:#052A75;stroke-width:20;stroke-linejoin:round;stroke-miterlimit:10;" cx="146" cy="165.719" r="44.081"></circle> 			 				<line style="fill:none;stroke:#052A75;stroke-width:20;stroke-linejoin:round;stroke-miterlimit:10;" x1="114.106" y1="209.8" x2="146" y2="301.055"></line> 			 				<line style="fill:none;stroke:#052A75;stroke-width:20;stroke-linejoin:round;stroke-miterlimit:10;" x1="177.894" y1="209.8" x2="146" y2="301.055"></line> 			 				<line style="fill:none;stroke:#052A75;stroke-width:20;stroke-linejoin:round;stroke-miterlimit:10;" x1="146" y1="301.055" x2="146" y2="344"></line> 		</g> 	</g> </g> <g> </g> <g> </g> <g> </g> <g> </g> <g> </g> <g> </g> <g> </g> <g> </g> <g> </g> <g> </g> <g> </g> <g> </g> <g> </g> <g> </g> <g> </g> </svg>