<svg id="Layer_1" xmlns="http://www.w3.org/2000/svg" data-name="Layer 1" viewBox="10.49 0 491.02 512"><g fill="#2196f3"><circle cx="255.999" cy="163.702" r="50.35" transform="matrix(.082 -.997 .997 .082 71.74 405.326)"></circle><path d="m233.14 455.702h45.722v34.3h-45.722z"></path><path d="m479.51 397.082v24.7a13.939 13.939 0 0 1 -13.93 13.92h-419.157a13.943 13.943 0 0 1 -13.935-13.92v-24.7z" fill-rule="evenodd"></path></g><path d="m256 115.351a48.351 48.351 0 1 1 -48.35 48.351 48.4 48.4 0 0 1 48.35-48.351zm0 120.7a72.35 72.35 0 1 0 -72.352-72.351 72.439 72.439 0 0 0 72.352 72.351zm209.58 197.649h-419.157a11.942 11.942 0 0 1 -11.935-11.92v-22.7h443.022v22.7a11.938 11.938 0 0 1 -11.93 11.92zm-188.717 54.3h-41.723v-30.3h41.723zm-230.44-369.2a11.943 11.943 0 0 0 -11.935 11.92v244.362h443.022v-244.361a11.94 11.94 0 0 0 -11.93-11.92h-81.431c.278.79.57 1.581.839 2.38l25.543 6.2a12.01 12.01 0 0 1 9.17 11.66v49.309a12.015 12.015 0 0 1 -9.17 11.671l-25.543 6.2a136.844 136.844 0 0 1 -7.707 18.622l13.67 22.448a12.012 12.012 0 0 1 -1.76 14.73l-34.869 34.861a12 12 0 0 1 -14.731 1.771l-22.449-13.68a135.781 135.781 0 0 1 -18.623 7.719l-6.2 25.54a12.012 12.012 0 0 1 -11.659 9.168h-49.317a12 12 0 0 1 -11.661-9.169l-6.2-25.54a135.719 135.719 0 0 1 -18.618-7.719l-22.449 13.68a12 12 0 0 1 -14.732-1.771l-34.871-34.861a12.005 12.005 0 0 1 -1.76-14.73l13.67-22.448a136.742 136.742 0 0 1 -7.712-18.622l-25.539-6.2a12.011 12.011 0 0 1 -9.17-11.671v-49.307a12.005 12.005 0 0 1 9.17-11.66l25.539-6.2c.269-.8.561-1.59.839-2.38zm121.555-64.65-21.529 21.532 12.351 20.259a12.016 12.016 0 0 1 .161 12.221 111.011 111.011 0 0 0 -10.85 26.2 12.025 12.025 0 0 1 -8.759 8.52l-23.048 5.6v30.44l23.048 5.6a12.021 12.021 0 0 1 8.759 8.52 111.028 111.028 0 0 0 10.85 26.2 11.994 11.994 0 0 1 -.161 12.209l-12.349 20.271 21.529 21.52 20.274-12.34a11.974 11.974 0 0 1 12.208-.16 110.7 110.7 0 0 0 26.2 10.849 12.036 12.036 0 0 1 8.524 8.751l5.6 23.06h30.439l5.6-23.06a12.028 12.028 0 0 1 8.519-8.751 110.609 110.609 0 0 0 26.2-10.849 11.983 11.983 0 0 1 12.213.16l20.269 12.34 21.529-21.52-12.355-20.271a12.005 12.005 0 0 1 -.161-12.209 110.819 110.819 0 0 0 10.85-26.2 12.021 12.021 0 0 1 8.759-8.52l23.053-5.6v-30.44l-23.053-5.6a12.025 12.025 0 0 1 -8.759-8.52 110.8 110.8 0 0 0 -10.85-26.2 12.028 12.028 0 0 1 .161-12.221l12.349-20.259-21.529-21.531-20.269 12.349a12.034 12.034 0 0 1 -12.213.16 110.933 110.933 0 0 0 -26.2-10.86 12 12 0 0 1 -8.519-8.74l-5.598-23.06h-30.439l-5.6 23.06a12.01 12.01 0 0 1 -8.524 8.74 111.02 111.02 0 0 0 -26.2 10.86 12.025 12.025 0 0 1 -12.208-.16l-20.272-12.349zm297.602 40.65h-83.58l8.949-14.69a12.012 12.012 0 0 0 -1.76-14.73l-34.867-34.868a12.008 12.008 0 0 0 -14.731-1.76l-22.449 13.669a135.366 135.366 0 0 0 -18.623-7.711l-6.2-25.538a12.012 12.012 0 0 0 -11.659-9.172h-49.317a12 12 0 0 0 -11.661 9.17l-6.2 25.538a135.3 135.3 0 0 0 -18.618 7.711l-22.452-13.667a12.008 12.008 0 0 0 -14.732 1.76l-34.868 34.869a12.006 12.006 0 0 0 -1.76 14.73l8.948 14.689h-83.577a35.968 35.968 0 0 0 -35.935 35.92v291.06a35.968 35.968 0 0 0 35.935 35.92h164.716v30.3h-22.17a12 12 0 0 0 0 24h134.06a12 12 0 0 0 0-24h-22.17v-30.3h164.721a35.963 35.963 0 0 0 35.93-35.92v-291.059a35.963 35.963 0 0 0 -35.93-35.921z" fill-rule="evenodd"></path></svg>