<svg id="Layer_1" enable-background="new 0 0 68 68" xmlns="http://www.w3.org/2000/svg" viewBox="2.7 2 62.6 64"><g><g><path d="m65.2935104 13.3480501v2.8373327h-62.5917477v-2.8373327c0-6.2703972 5.0789385-11.3493357 11.3493347-11.3493357h39.8930817c6.2703976 0 11.3493313 5.0789385 11.3493313 11.3493357z" fill="#33527d"></path><path d="m65.2982407 16.1893539v31.6573715c0 6.278656-5.0857735 11.3548775-11.3546448 11.3548775h-39.892498c-6.2688689 0-11.3446121-5.0762215-11.3446121-11.3548775v-31.6573715z" fill="#e5e8ef"></path><path d="m65.2935104 47.8504715v3.347168c0 6.2703972-5.0789337 11.3493347-11.3493309 11.3493347h-39.8930816c-6.2703967 0-11.3493347-5.0789375-11.3493347-11.3493347v-3.347168c0 6.2703972 5.0789385 11.3493385 11.3493347 11.3493385h39.8930817c6.2703971 0 11.3493308-5.0789413 11.3493308-11.3493385z" fill="#cdd4df"></path><path d="m14.1233044 9.0920486c0 1.2001715-.950491 2.1756916-2.1506615 2.1756916s-2.1750803-.9755201-2.1750803-2.1756916c0-1.20017.9749098-2.1756902 2.1750803-2.1756902s2.1506615.9755202 2.1506615 2.1756902z" fill="#4cc66e"></path><path d="m20.8865318 9.0920486c0 1.2001715-.9755211 2.1756916-2.1506634 2.1756916-1.2001705 0-2.1756897-.9755201-2.1756897-2.1756916 0-1.20017.9755192-2.1756902 2.1756897-2.1756902 1.1751423.0000001 2.1506634.9755202 2.1506634 2.1756902z" fill="#ffa300"></path><path d="m27.649147 9.0920486c0 1.2001715-.9755211 2.1756916-2.1500511 2.1756916-1.2007809 0-2.1756916-.9755201-2.1756916-2.1756916 0-1.20017.9749107-2.1756902 2.1756916-2.1756902 1.17453.0000001 2.1500511.9755202 2.1500511 2.1756902z" fill="#b244f1"></path><g fill="#adb9ca"><path d="m20.3101273 23.9561825v7.1815624c0 .9206619-.744545 1.6654015-1.6654034 1.6654015h-7.1817579c-.9206638 0-1.6654034-.7447395-1.6654034-1.6654015v-7.1815624c0-.9128437.7447395-1.6654034 1.6654034-1.6654034h7.1817579c.9208584 0 1.6654034.7525597 1.6654034 1.6654034z"></path><path d="m58.8129272 24.9490471v11.4629974c0 1.4695358-1.1884193 2.658268-2.6582642 2.658268h-28.0101203c-1.4695339 0-2.658268-1.1887321-2.658268-2.658268v-11.4629974c0-1.457056 1.1887341-2.658268 2.658268-2.658268h28.0101204c1.4698448 0 2.6582641 1.2012119 2.6582641 2.658268z"></path><path d="m20.3101273 44.2596931v7.1815605c0 .9206619-.744545 1.6654053-1.6654034 1.6654053h-7.1817579c-.9206638 0-1.6654034-.7447433-1.6654034-1.6654053v-7.1815605c0-.9128456.7447395-1.6654053 1.6654034-1.6654053h7.1817579c.9208584.0000001 1.6654034.7525597 1.6654034 1.6654053z"></path><path d="m20.3115921 37.6942177v.0078583c0 .7564201-.6114216 1.3682365-1.3680363 1.3682365h-7.7792253c-.7564192 0-1.3682346-.6118164-1.3682346-1.3682365v-.0078583c0-.7564201.6118155-1.3760948 1.3682346-1.3760948h7.7792253c.7566147 0 1.3680363.6196746 1.3680363 1.3760948z"></path><path d="m36.0017738 45.3464737v.0078583c0 .7564201-.6114235 1.3682365-1.3680382 1.3682365h-7.7792263c-.7564182 0-1.3682346-.6118164-1.3682346-1.3682365v-.0078583c0-.7564163.6118164-1.376091 1.3682346-1.376091h7.7792263c.7566147 0 1.3680382.6196747 1.3680382 1.376091z"></path><path d="m49.4007339 45.3464737v.0078583c0 .7564201-.6114197 1.3682365-1.3680344 1.3682365h-7.7792244c-.7564201 0-1.3682365-.6118164-1.3682365-1.3682365v-.0078583c0-.7564163.6118164-1.376091 1.3682365-1.376091h7.7792244c.7566148 0 1.3680344.6196747 1.3680344 1.376091z"></path><path d="m58.8129272 45.3464737v.0078583c0 .7564201-.6114197 1.3682365-1.3680344 1.3682365h-3.7924576c-.7564163 0-1.3682327-.6118164-1.3682327-1.3682365v-.0078583c0-.7564163.6118164-1.376091 1.3682327-1.376091h3.7924576c.7566148 0 1.3680344.6196747 1.3680344 1.376091z"></path><path d="m32.0150032 51.7305641v.0078583c0 .7564201-.6114235 1.3682365-1.3680382 1.3682365h-3.7924557c-.7564182 0-1.3682346-.6118164-1.3682346-1.3682365v-.0078583c0-.7564201.6118164-1.3760948 1.3682346-1.3760948h3.7924557c.7566147 0 1.3680382.6196747 1.3680382 1.3760948z"></path><path d="m41.3868332 51.7305641v.0078583c0 .7564201-.6114197 1.3682365-1.3680344 1.3682365h-3.7924576c-.7564163 0-1.3682327-.6118164-1.3682327-1.3682365v-.0078583c0-.7564201.6118164-1.3760948 1.3682327-1.3760948h3.7924576c.7566147 0 1.3680344.6196747 1.3680344 1.3760948z"></path><path d="m50.758667 51.7305641v.0078583c0 .7564201-.6114235 1.3682365-1.3680382 1.3682365h-3.7924538c-.7564201 0-1.3682327-.6118164-1.3682327-1.3682365v-.0078583c0-.7564201.6118126-1.3760948 1.3682327-1.3760948h3.7924538c.7566147 0 1.3680382.6196747 1.3680382 1.3760948z"></path></g></g><g><g><g fill="#079cff"><path d="m34.6072578 40.4679871.0008049.0008049c-.0102119.0196953-.0204201.0393906-.030632.0590897.0100518-.0195351.0197792-.0403596.0298271-.0598946z"></path><path d="m40.4490166 46.309742c-.0191345.0098076-.0393105.0192146-.0583649.0291023.0192947-.0099678.038269-.0199356.05756-.0299034z"></path><path d="m40.4482117 46.3089409-5.8401489-5.8401489c7.329113-14.1617985 17.4905052-21.8562298 25.1278114-22.4814968 1.8276062-.1481571 3.342392 1.3666286 3.1942177 3.1942177-.6253281 7.6372375-8.3199044 17.7984828-22.4818802 25.127428z"></path></g><path d="m40.4490166 46.309742c-1.8177185.9417229-3.7409172 1.8374634-5.772644 2.6770821l-2.1963692-2.1963654c2.0317307-.8396225 3.9549255-1.7353592 5.7725677-2.6771622 14.1597214-7.3299103 21.8553429-17.4885006 22.4810753-25.1282291.0262871-.3226204 0-.6322174-.0692177-.9252529 1.3831825.322628 2.3873863 1.61689 2.2656631 3.1216984-.6258125 7.6396503-8.321434 17.7982425-22.4810752 25.1282291z" fill="#005eee"></path><path d="m26.3484325 64.7105103c-2.0021439.8232193-4.1589661 1.2711182-6.3257542 1.2907257h-9.1247625c-.3983545.0032959-.7540989-.1546783-1.0109577-.4115448-.3555832-.3555756-.5268221-.9088517-.3358831-1.4620362.2041225-.5927429.7969522-.9549942 1.4225006-.9549103l1.0142555.0000038c1.6399651-.0000725 3.0164814-1.3106422 3.0065975-2.9538116-.00667-1.0009804.1119146-2.0153084.3490009-2.9899178 3.2566548-13.2671966 16.5866795-10.9884567 16.5866795-10.9884567l2.7462635 2.7462616s1.9823304 11.4726754-8.32794 15.7236863z" fill="#ffd80c"></path><path d="m26.3484325 64.7105103c-2.0021439.8232193-4.1589661 1.2711182-6.3257542 1.2907257h-9.1247625c-.3983545.0032959-.7540989-.1546783-1.0109577-.4115448-.3555832-.3555756-.5268221-.9088517-.3358831-1.4620362.2041225-.5927429.7969522-.9549942 1.4225006-.9549103l1.0142555.0000038c.7706604-.0001564 1.4786139-.2865143 2.0120325-.7605934l2.4828997-.019928c2.1667881-.0196037 4.3236103-.3984108 6.3257542-1.2216301 8.7625961-3.6122894 8.6440411-12.4439392 8.4134769-15.0123596.451334.0361786.7081146.082325.7081146.082325l2.7462635 2.7462616s1.9823304 11.4726754-8.32794 15.7236863z" fill="#ffbe00"></path><path d="m40.4490166 46.309742c-1.8177185.9417229-3.7409172 1.8374634-5.772644 2.6770821l-2.7462635-2.7462616c.8396435-2.0317039 1.7354031-3.9548798 2.6771488-5.7725754z" fill="#435e88"></path><path d="m40.4490166 46.309742c-1.8177185.9417229-3.7409172 1.8374634-5.772644 2.6770821l-2.1963692-2.1963654c2.0317307-.8396225 3.9549255-1.7353592 5.7725677-2.6771622z" fill="#33527d"></path></g></g></g></svg>