<svg id="Layer_1" enable-background="new 0 0 68 68" xmlns="http://www.w3.org/2000/svg" viewBox="2 4.08 64 59.84"><g><g><path d="m66 14.0610657v45.7750893c0 2.2566605-1.8260956 4.0830345-4.0830345 4.0830345h-55.8339329c-2.2569373 0-4.0830326-1.8263741-4.0830326-4.0830346v-45.7750892z" fill="#e9e9ff"></path><path d="m66 14.057374v-5.8824539c0-2.2566605-1.8260956-4.0830326-4.0830345-4.0830326l-55.8339329-.0110755c-2.2569373 0-4.0830326 1.8374476-4.0830326 4.082479v5.894083z" fill="#4f5d99"></path><g><g><path d="m16.5379601 9.0690928c0 .9836159-.7872524 1.7708683-1.7708683 1.7708683-.9842157 0-1.7711687-.7872524-1.7711687-1.7708683 0-.9842157.786953-1.7708678 1.7711687-1.7708678.9836158-.0000001 1.7708683.786652 1.7708683 1.7708678z" fill="#fdc72e"></path><path d="m10.2903805 9.0690928c0 .9836159-.799263 1.7708683-1.7708683 1.7708683-.9839158 0-1.7834787-.7872524-1.7834787-1.7708683 0-.9842157.7995629-1.7708678 1.7834787-1.7708678.9716053-.0000001 1.7708683.786652 1.7708683 1.7708678z" fill="#ed524e"></path><path d="m22.7975502 9.0690928c0 .9836159-.799263 1.7708683-1.7831783 1.7708683-.9716053 0-1.7708683-.7872524-1.7708683-1.7708683 0-.9842157.799263-1.7708678 1.7708683-1.7708678.9839153-.0000001 1.7831783.786652 1.7831783 1.7708678z" fill="#7bd681"></path></g><path d="m37.8376732 7.7928123c-.7002449 0-1.2762794.566947-1.2762794 1.2762804 0 .7089005.5760345 1.2762814 1.2762794 1.2762814h22.14114c.7091179 0 1.2851524-.5673809 1.2851524-1.2762814 0-.7093334-.5760345-1.2762804-1.2851524-1.2762804z" fill="#e9e9ff"></path></g></g><path d="m61.2613297 19.2432995v20.1900387c0 .5909843-.479084 1.0700684-1.0700684 1.0700684h-52.3901358c-.5909824 0-1.0700684-.479084-1.0700684-1.0700684v-20.1900387c0-.5909824.4790859-1.0700684 1.0700684-1.0700684h52.3901367c.5909834 0 1.0700675.4790859 1.0700675 1.0700684z" fill="#ed524e"></path><g fill="#fff"><path d="m20.6313953 35.2220497c-.1384449-.1438484-.2073288-.3207855-.2073288-.5311546 0-.0884705.027689-.1992264.0830669-.3319283l4.2323551-9.9916573c.0884705-.1988869.2127323-.3623199.3734646-.4896221.1600552-.1269627.3565788-.1907825.5888958-.1907825h.1661339c.232317 0 .4281654.0638199.5888958.1907825.1600552.1273022.2849941.2907352.3734627.4896221l4.232357 9.9916573c.055378.1327019.0830669.2434578.0830669.3319283 0 .2103691-.069561.3873062-.2073288.5311546-.1384449.1435089-.3180866.2157707-.5395985.2157707-.1553268 0-.2964725-.0415306-.4234371-.1245995-.1269646-.083065-.2235374-.1961861-.2903957-.3400345l-1.0785179-2.5892525h-5.6431427l-1.0791931 2.5892525c-.0661831.1438484-.1627579.2569695-.2903957.3400345-.1269646.0830688-.2681103.1245995-.4227638.1245995-.2215118 0-.4011517-.0722618-.5395966-.2157707zm2.9127427-4.2158089h4.4815559l-2.240778-5.3939419z"></path><path d="m33.6723671 34.9978371c-.613884-.3484764-1.1116066-.8573418-1.4931755-1.5269432-.3822422-.6692619-.5726891-1.4523201-.5726891-2.3484955s.1904469-1.678896.5726891-2.3484955c.3815689-.6692619.8792915-1.1784668 1.4931755-1.5269432.6145592-.3484764 1.2642365-.5227127 1.9503822-.5227127 1.0845985 0 2.0300751.4207363 2.8384552 1.2615356v-4.0665607c0-.2211742.0742874-.4038544.2235374-.5477009.14925-.1435108.329567-.2157707.5395966-.2157707s.3869705.074625.5308189.2242126c.1438446.14925.2161064.3292274.2161064.539259v10.7716732c0 .2103691-.0722618.3873062-.2161064.5311546-.1438484.1435089-.3207893.2157707-.5308189.2157707s-.3903465-.0722618-.5395966-.2157707c-.14925-.1438484-.2235374-.3207855-.2235374-.5311546v-.4315414c-.8083801.8411369-1.7538567 1.2615356-2.8384552 1.2615356-.6861458 0-1.335823-.1745758-1.9503822-.5230522zm3.6015892-1.2281037c.4484253-.2265778.8441772-.5281181 1.1872482-.9046211v-3.4854279c-.343071-.3758278-.7388229-.6777039-1.1872482-.9046192-.4477501-.2265759-.9265671-.3400326-1.4350967-.3400326-.8191872 0-1.4776459.260006-1.9753685.7800179-.4977264.5203495-.7469292 1.2557945-.7469292 2.2073479 0 .9518929.2492027 1.6876755.7469292 2.2073479.4977226.5203514 1.1561813.7803574 1.9753685.7803574.5085296-.0000001.9873466-.1134568 1.4350967-.3403703z"></path><path d="m41.3443871 34.7739639c-.1884193-.1330452-.2822914-.3153839-.2822914-.5477028 0-.1769371.0607796-.3319283.1823425-.4649696.1215591-.1327057.2768898-.1988907.4646339-.1988907.0999489 0 .1992264.0222893.2991753.066185.353878.1549911.707756.2768898 1.0623093.3653603.353878.0884666.7523308.1327019 1.1946754.1327019 1.2284431 0 1.8423309-.3927078 1.8423309-1.1784668 0-.2542648-.1411476-.4480896-.423439-.5807915-.2816162-.1330452-.7442245-.2822952-1.3857994-.4480896-.6530533-.1549911-1.1919746-.3153839-1.6181145-.4815178-.4261398-.1657963-.7915001-.4173603-1.0954018-.7550297-.3045769-.3373318-.4565277-.7827187-.4565277-1.3361607 0-.7742767.2795906-1.4050446.8380966-1.8919659.558506-.4869194 1.3581085-.7303791 2.3988075-.7303791.8516045 0 1.6539078.1384449 2.4062347.4149952.1546555.0442352.274189.1273022.3565788.2488632.0830688.1218987.124939.2488632.124939.3819046 0 .176939-.0641556.3319302-.1911201.4646339-.1269646.1327057-.2849922.1992264-.4727402.1992264-.055378 0-.127636-.0111427-.2161064-.0334301-.6415749-.1992245-1.2723427-.2985001-1.8916283-.2985001-.5976753 0-1.0656853.1077175-1.4026794.3234882-.3376732.2157707-.5065079.4953613-.5065079.8380966 0 .3319302.1553307.5753899.4646339.730381.3099823.1549892.7915001.3045769 1.4445534.4480877.6523781.1661339 1.1838722.3292274 1.5931282.4896221.409256.1603928.7604332.4122944 1.0535278.7550297.2930984.343071.4403229.8026428.4403229 1.3776932 0 .7080956-.2795906 1.2946281-.8380966 1.7592621-.5591812.4646339-1.3473015.6972885-2.3650398.6972885-1.1068839.0000002-2.1138152-.2492025-3.0207976-.7469252z"></path></g><g><path d="m22.0378609 44.5840912v14.5863762c0 .3737602-.3066006.6803627-.6876602.6803627h-14.4496351c-.3737602 0-.6803608-.3066025-.6803608-.6803627v-14.5863762c0-.3810616.3066006-.687664.6803608-.687664h14.4496346c.3810601 0 .6876607.3066024.6876607.687664z" fill="#7bd681"></path><g fill="#fff"><path d="m7.8866987 54.6217613c-.0646634-.0671883-.096838-.1498299-.096838-.2480888 0-.0413208.0129328-.0930519.0387983-.1550369l1.976819-4.6668282c.0413218-.0928955.0993614-.1692314.1744337-.2286911.0747576-.0592995.1665487-.0891075.2750578-.0891075h.0775967c.1085091 0 .1999846.029808.2750578.0891075.0747576.0594597.133112.1357956.1744337.2286911l1.976819 4.6668282c.0258656.061985.0387983.1137161.0387983.1550369 0 .098259-.0324898.1809006-.096838.2480888-.0646639.067028-.1485691.1007805-.2520313.1007805-.0725489 0-.1384745-.0194016-.1977758-.058197-.0593014-.0387993-.1044083-.0916328-.1356363-.1588211l-.503747-1.2093697h-2.6357574l-.5040627 1.2093697c-.0309124.0671883-.0760193.1200218-.1356354.1588211-.0593014.0387955-.125227.058197-.1974611.058197-.1034622 0-.1873674-.0337524-.2520313-.1007805zm1.3604622-1.9690933h2.093214l-1.046607-2.5193596z"></path><path d="m13.9777822 54.5170364c-.2867279-.1627617-.5192022-.4004402-.697422-.713192-.1785345-.3125954-.2674866-.6783409-.2674866-1.09692s.0889521-.7841682.2674866-1.09692c.1782198-.3125916.4106941-.5504303.697422-.713192.2870445-.1627655.5904913-.2441444.9109707-.2441444.5065851 0 .9481916.1965141 1.3257647.5892296v-1.8993797c0-.1033058.0346985-.1886292.1044083-.2558174.0697117-.067028.1539326-.1007805.2520313-.1007805.0981007 0 .1807423.0348549.2479305.1047211.0671864.0697136.1009388.1537743.1009388.2518768v5.0311546c0 .098259-.0337524.1809006-.1009388.2480888-.0671883.067028-.1498299.1007805-.2479305.1007805-.0980988 0-.1823196-.0337524-.2520313-.1007805-.0697098-.0671883-.1044083-.1498299-.1044083-.2480888v-.201561c-.377573.3928719-.8191795.5892296-1.3257647.5892296-.3204794 0-.6239261-.081543-.9109707-.2443047zm1.6822043-.573616c.2094479-.1058273.3942909-.246666.5545311-.4225197v-1.6279526c-.1602402-.1755371-.3450832-.3165359-.5545311-.4225197-.2091322-.1058273-.4327736-.1588211-.6702948-.1588211-.3826199 0-.6901674.1214409-.9226418.3643227-.2324743.243042-.3488684.5865479-.3488684 1.0309944 0 .444603.116394.7882652.3488684 1.0309944.2324743.2430382.5400219.3644829.9226418.3644829.2375212 0 .4611626-.0529937.6702948-.1589813z"></path><path d="m17.5611744 54.4124718c-.0880051-.0621414-.1318512-.1473083-.1318512-.2558174 0-.0826416.028389-.1550369.0851669-.2171745.056778-.061985.1293278-.0928955.2170181-.0928955.0466843 0 .0930519.0104103.1397362.0309105.165287.0723915.330574.1293297.4961758.1706505.165287.0413208.3513927.0619812.5580025.0619812.5737724 0 .8605003-.1834221.8605003-.5504303 0-.1187592-.0659256-.2092896-.1977768-.2712708-.1315346-.0621414-.3476067-.1318512-.6472683-.2092896-.3050232-.0723915-.5567398-.1473083-.7557774-.2249031-.1990376-.0774384-.369688-.1949387-.5116329-.3526535-.1422596-.1575623-.213232-.3655891-.213232-.6240845 0-.3616447.1305885-.6562614.3914528-.8836861.2608624-.2274284.6343346-.3411407 1.1204185-.3411407.3977604 0 .7724953.0646629 1.1238861.1938324.0722351.0206604.128067.0594597.1665497.1162376.0387974.0569344.0583553.1162376.0583553.1783752 0 .0826454-.0299664.1550369-.0892677.2170181-.0593014.061985-.1331139.0930557-.2208042.0930557-.0258656 0-.0596161-.0052071-.1009369-.0156136-.2996616-.0930557-.5942764-.1394234-.8835278-.1394234-.2791595 0-.4977551.050312-.6551552.1510925-.1577168.1007805-.2365742.231369-.2365742.3914528 0 .1550331.0725498.2687492.2170181.3411407.144783.0723915.3696861.1422615.6747112.2092896.3047066.0775948.5529537.1537743.7441063.2286873.1911507.0749168.3551769.1925735.492075.3526573.136898.1602364.2056618.3748894.2056618.6434822 0 .3307304-.1305885.6046829-.3914528.821701-.2611771.2170181-.6292877.3256874-1.1046448.3256874-.5169963.0000003-.9873065-.1163976-1.4109324-.348869z"></path></g></g><g><path d="m41.9050217 44.5840912v14.5863762c0 .3737602-.3065987.6803627-.6876602.6803627h-14.4496346c-.3737602 0-.6803608-.3066025-.6803608-.6803627v-14.5863762c0-.3810616.3066006-.687664.6803608-.687664h14.4496346c.3810615 0 .6876602.3066024.6876602.687664z" fill="#fdc72e"></path><g fill="#fff"><path d="m27.7538605 54.6217613c-.0646648-.0671883-.096838-.1498299-.096838-.2480888 0-.0413208.0129318-.0930519.0387974-.1550369l1.9768181-4.6668282c.0413227-.0928955.0993614-.1692314.1744347-.2286911.0747585-.0592995.1665497-.0891075.2750587-.0891075h.0775967c.1085091 0 .1999836.029808.2750568.0891075.0747585.0594597.133112.1357956.1744347.2286911l1.9768181 4.6668282c.0258675.061985.0387993.1137161.0387993.1550369 0 .098259-.0324898.1809006-.0968399.2480888-.0646629.067028-.1485672.1007805-.2520294.1007805-.0725517 0-.1384735-.0194016-.1977768-.058197-.0593033-.0387993-.1044083-.0916328-.1356354-.1588211l-.5037479-1.2093697h-2.6357576l-.5040627 1.2093697c-.0309124.0671883-.0760193.1200218-.1356354.1588211-.0593014.0387955-.125227.058197-.1974602.058197-.1034621 0-.1873683-.0337524-.2520312-.1007805zm1.3604622-1.9690933h2.0932121l-1.0466061-2.5193596z"></path><path d="m33.844944 54.5170364c-.2867279-.1627617-.5192032-.4004402-.697422-.713192-.1785355-.3125954-.2674866-.6783409-.2674866-1.09692s.0889511-.7841682.2674866-1.09692c.1782188-.3125916.4106941-.5504303.697422-.713192.2870445-.1627655.5904922-.2441444.9109688-.2441444.506588 0 .9481926.1965141 1.3257675.5892296v-1.8993797c0-.1033058.0346947-.1886292.1044083-.2558174.0697098-.067028.1539307-.1007805.2520294-.1007805s.1807442.0348549.2479324.1047211c.0671844.0697136.1009369.1537743.1009369.2518768v5.0311546c0 .098259-.0337524.1809006-.1009369.2480888-.0671883.067028-.1498337.1007805-.2479324.1007805s-.1823196-.0337524-.2520294-.1007805c-.0697136-.0671883-.1044083-.1498299-.1044083-.2480888v-.201561c-.3775749.3928719-.8191795.5892296-1.3257675.5892296-.3204766 0-.6239243-.081543-.9109688-.2443047zm1.6822052-.573616c.209446-.1058273.3942909-.246666.5545311-.4225197v-1.6279526c-.1602402-.1755371-.3450851-.3165359-.5545311-.4225197-.2091331-.1058273-.4327736-.1588211-.6702957-.1588211-.3826218 0-.6901665.1214409-.9226418.3643227-.2324753.243042-.3488693.5865479-.3488693 1.0309944 0 .444603.116394.7882652.3488693 1.0309944.2324753.2430382.54002.3644829.9226418.3644829.2375221 0 .4611626-.0529937.6702957-.1589813z"></path><path d="m37.4283371 54.4124718c-.0880089-.0621414-.1318512-.1473083-.1318512-.2558174 0-.0826416.028389-.1550369.0851669-.2171745.056778-.061985.1293259-.0928955.2170181-.0928955.0466843 0 .0930519.0104103.1397362.0309105.165287.0723915.330574.1293297.4961739.1706505.165287.0413208.3513947.0619812.5580025.0619812.5737724 0 .8605003-.1834221.8605003-.5504303 0-.1187592-.0659256-.2092896-.1977768-.2712708-.1315346-.0621414-.3476067-.1318512-.6472664-.2092896-.3050232-.0723915-.5567398-.1473083-.7557793-.2249031-.1990395-.0774384-.3696861-.1949387-.511631-.3526535-.1422615-.1575623-.2132339-.3655891-.2132339-.6240845 0-.3616447.1305885-.6562614.3914528-.8836861.2608643-.2274284.6343346-.3411407 1.1204185-.3411407.3977623 0 .7724953.0646629 1.1238861.1938324.0722351.0206604.128067.0594597.1665497.1162376.0387993.0569344.0583534.1162376.0583534.1783752 0 .0826454-.0299644.1550369-.0892677.2170181-.0592995.061985-.13311.0930557-.2208023.0930557-.0258636 0-.0596161-.0052071-.1009369-.0156136-.2996635-.0930557-.5942764-.1394234-.8835297-.1394234-.2791557 0-.4977531.050312-.6551514.1510925-.1577187.1007805-.2365761.231369-.2365761.3914528 0 .1550331.0725479.2687492.2170181.3411407.144783.0723915.3696861.1422615.6747093.2092896.3047104.0775948.5529556.1537743.7441063.2286873.1911545.0749168.3551788.1925735.4920769.3526573.136898.1602364.2056618.3748894.2056618.6434822 0 .3307304-.1305885.6046829-.3914528.821701-.2611771.2170181-.6292877.3256874-1.1046448.3256874-.5169943.0000003-.9873046-.1163976-1.4109305-.348869z"></path></g></g><g><path d="m61.2613297 44.5840912v14.5863762c0 .3737602-.3065987.6803627-.6876602.6803627h-14.4496346c-.3737602 0-.6803589-.3066025-.6803589-.6803627v-14.5863762c0-.3810616.3065987-.687664.6803589-.687664h14.4496346c.3810615 0 .6876602.3066024.6876602.687664z" fill="#70c1f9"></path><g fill="#fff"><path d="m47.1101685 54.6217613c-.0646629-.0671883-.0968361-.1498299-.0968361-.2480888 0-.0413208.0129318-.0930519.0387955-.1550369l1.9768181-4.6668282c.0413246-.0928955.0993614-.1692314.1744347-.2286911.0747604-.0592995.1665497-.0891075.2750587-.0891075h.0775986c.1085091 0 .1999817.029808.2750549.0891075.0747604.0594597.1331139.1357956.1744347.2286911l1.9768181 4.6668282c.0258675.061985.0387993.1137161.0387993.1550369 0 .098259-.0324898.1809006-.0968361.2480888-.0646667.067028-.148571.1007805-.2520332.1007805-.0725479 0-.1384735-.0194016-.1977768-.058197-.0592995-.0387993-.1044083-.0916328-.1356354-.1588211l-.503746-1.2093697h-2.6357574l-.5040627 1.2093697c-.0309143.0671883-.0760193.1200218-.1356354.1588211-.0593033.0387955-.1252289.058197-.1974602.058197-.1034623 0-.1873704-.0337524-.2520333-.1007805zm1.3604621-1.9690933h2.0932121l-1.0466042-2.5193596z"></path><path d="m53.201252 54.5170364c-.2867279-.1627617-.5192032-.4004402-.697422-.713192-.1785355-.3125954-.2674866-.6783409-.2674866-1.09692s.0889511-.7841682.2674866-1.09692c.1782188-.3125916.4106941-.5504303.697422-.713192.2870445-.1627655.5904922-.2441444.9109726-.2441444.5065842 0 .9481888.1965141 1.3257637.5892296v-1.8993797c0-.1033058.0346985-.1886292.1044083-.2558174.0697098-.067028.1539307-.1007805.2520294-.1007805.0981026 0 .1807442.0348549.2479324.1047211.0671883.0697136.1009369.1537743.1009369.2518768v5.0311546c0 .098259-.0337486.1809006-.1009369.2480888-.0671883.067028-.1498299.1007805-.2479324.1007805-.0980988 0-.1823196-.0337524-.2520294-.1007805-.0697098-.0671883-.1044083-.1498299-.1044083-.2480888v-.201561c-.3775749.3928719-.8191795.5892296-1.3257637.5892296-.3204804 0-.6239281-.081543-.9109726-.2443047zm1.6822052-.573616c.209446-.1058273.3942909-.246666.5545311-.4225197v-1.6279526c-.1602402-.1755371-.3450851-.3165359-.5545311-.4225197-.2091331-.1058273-.4327736-.1588211-.6702957-.1588211-.3826218 0-.6901665.1214409-.9226418.3643227-.2324753.243042-.3488693.5865479-.3488693 1.0309944 0 .444603.116394.7882652.3488693 1.0309944.2324753.2430382.54002.3644829.9226418.3644829.2375221 0 .4611625-.0529937.6702957-.1589813z"></path><path d="m56.7846451 54.4124718c-.0880051-.0621414-.1318512-.1473083-.1318512-.2558174 0-.0826416.028389-.1550369.0851669-.2171745.056778-.061985.1293259-.0928955.2170181-.0928955.0466843 0 .0930519.0104103.1397362.0309105.165287.0723915.330574.1293297.4961777.1706505.165287.0413208.3513908.0619812.5579987.0619812.5737724 0 .8605003-.1834221.8605003-.5504303 0-.1187592-.0659256-.2092896-.1977768-.2712708-.1315346-.0621414-.3476067-.1318512-.6472664-.2092896-.3050232-.0723915-.5567398-.1473083-.7557793-.2249031-.1990356-.0774384-.3696861-.1949387-.511631-.3526535-.1422615-.1575623-.2132339-.3655891-.2132339-.6240845 0-.3616447.1305923-.6562614.3914528-.8836861.2608643-.2274284.6343384-.3411407 1.1204185-.3411407.3977623 0 .7724953.0646629 1.1238899.1938324.0722313.0206604.1280632.0594597.1665459.1162376.0387993.0569344.0583572.1162376.0583572.1783752 0 .0826454-.0299683.1550369-.0892677.2170181-.0593033.061985-.1331139.0930557-.2208023.0930557-.0258675 0-.0596199-.0052071-.1009407-.0156136-.2996597-.0930557-.5942764-.1394234-.8835258-.1394234-.2791595 0-.4977531.050312-.6551552.1510925-.1577187.1007805-.2365761.231369-.2365761.3914528 0 .1550331.0725517.2687492.2170181.3411407.144783.0723915.3696861.1422615.6747131.2092896.3047066.0775948.5529518.1537743.7441063.2286873.1911507.0749168.355175.1925735.4920731.3526573.136898.1602364.2056618.3748894.2056618.6434822 0 .3307304-.1305885.6046829-.391449.821701-.2611809.2170181-.6292915.3256874-1.1046486.3256874-.5169945.0000003-.9873047-.1163976-1.4109306-.348869z"></path></g></g><g fill="#fff" opacity=".2"><path d="m11.7248974 4.080812 20.1220131 59.8383775h20.2627544l-20.1344929-59.8383775z"></path><path d="m42.941082 4.080812h-5.7570801l20.132576 59.8383775h5.7436371z"></path></g></g></svg>