<svg version="1.1" id="Capa_1" xmlns="http://www.w3.org/2000/svg" xmlns:xlink="http://www.w3.org/1999/xlink" x="0px" y="0px" viewBox="0 0 510 510" style="enable-background:new 0 0 510 510;" xml:space="preserve">
<g>
	<g>
		<g>
			<circle style="fill:#FDCB50;" cx="255" cy="268.999" r="112"/>
			<path style="fill:#FD8F01;" d="M255,243.248c0-30.507,7.795-59.191,21.493-84.18c-6.957-1.352-14.141-2.069-21.493-2.069&#10;&#9;&#9;&#9;&#9;c-61.856,0-112,50.144-112,112c0,61.856,50.144,112,112,112c18.861,0,36.629-4.669,52.223-12.904&#10;&#9;&#9;&#9;&#9;C274.987,336.293,255,292.107,255,243.248z"/>
		</g>
		<g>
			<path style="fill:#FDBEB9;" d="M99.602,135.336c11.031,6.369,24.877,4.94,34.426-3.49c32.239-28.46,74.587-45.732,120.972-45.732&#10;&#9;&#9;&#9;&#9;h0c46.385,0,88.733,17.272,120.972,45.732c9.549,8.43,23.395,9.859,34.426,3.49l0,0c17.585-10.152,19.887-34.511,4.66-47.944&#10;&#9;&#9;&#9;&#9;C372.393,49.754,316.367,26.914,255,26.914H255c-61.367,0-117.393,22.84-160.058,60.478&#10;&#9;&#9;&#9;&#9;C79.715,100.824,82.017,125.183,99.602,135.336L99.602,135.336z"/>
			<circle style="fill:#FDCB50;" cx="255" cy="56.514" r="46.514"/>
		</g>
		<g>
			<path style="fill:#D46B5C;" d="M216.943,470.41c0-12.738-8.16-24.014-20.235-28.069c-40.767-13.69-76.898-41.728-100.091-81.899&#10;&#9;&#9;&#9;&#9;l0,0c-23.192-40.171-29.408-85.481-20.881-127.631c2.526-12.485-3.16-25.19-14.191-31.559l0,0&#10;&#9;&#9;&#9;&#9;c-17.585-10.152-39.831,0.033-43.851,19.936c-11.262,55.768-3.029,115.708,27.654,168.853l0,0&#10;&#9;&#9;&#9;&#9;c30.683,53.145,78.477,90.245,132.404,108.376C196.999,504.888,216.943,490.715,216.943,470.41L216.943,470.41z"/>
			<circle style="fill:#93B2F4;" cx="70.983" cy="375.242" r="46.514"/>
		</g>
		<g>
			<path style="fill:#FDE0BE;" d="M448.455,201.252c-11.031,6.369-16.717,19.074-14.191,31.559&#10;&#9;&#9;&#9;&#9;c8.527,42.15,2.312,87.46-20.881,127.631l0,0c-23.192,40.171-59.324,68.209-100.091,81.899&#10;&#9;&#9;&#9;&#9;c-12.075,4.055-20.235,15.331-20.235,28.069v0c0,20.305,19.944,34.479,39.19,28.008c53.927-18.13,101.721-55.23,132.404-108.376&#10;&#9;&#9;&#9;&#9;l0,0c30.684-53.145,38.916-113.086,27.654-168.853C488.287,201.285,466.04,191.1,448.455,201.252L448.455,201.252z"/>
			<circle style="fill:#FD7DA0;" cx="439.018" cy="375.242" r="46.514"/>
		</g>
	</g>
	<g>
		<g>
			<g>
				<path style="fill:none;stroke:#052A75;stroke-width:20;stroke-linejoin:round;stroke-miterlimit:10;" d="M216.851,29.915&#10;&#9;&#9;&#9;&#9;&#9;c-46.32,7.335-88.27,27.801-121.909,57.476c-15.227,13.432-12.924,37.791,4.66,47.944l0,0c11.031,6.369,24.877,4.94,34.426-3.49&#10;&#9;&#9;&#9;&#9;&#9;c24.368-21.512,54.514-36.624,87.811-42.725"/>
				<path style="fill:none;stroke:#052A75;stroke-width:20;stroke-linejoin:round;stroke-miterlimit:10;" d="M288.161,89.121&#10;&#9;&#9;&#9;&#9;&#9;c33.297,6.101,63.443,21.213,87.811,42.725c9.549,8.43,23.395,9.859,34.426,3.49l0,0c17.585-10.152,19.887-34.511,4.66-47.944&#10;&#9;&#9;&#9;&#9;&#9;c-33.64-29.675-75.589-50.141-121.909-57.476"/>
			</g>
			
				<circle style="fill:none;stroke:#052A75;stroke-width:20;stroke-linejoin:round;stroke-miterlimit:10;" cx="255" cy="56.514" r="46.514"/>
		</g>
		<g>
			<g>
				<path style="fill:none;stroke:#052A75;stroke-width:20;stroke-linejoin:round;stroke-miterlimit:10;" d="M82.641,330.22&#10;&#9;&#9;&#9;&#9;&#9;c-11.365-31.886-13.35-65.55-6.905-97.409c2.526-12.485-3.16-25.19-14.191-31.559l0,0&#10;&#9;&#9;&#9;&#9;&#9;c-17.585-10.153-39.831,0.033-43.851,19.936c-8.88,43.97-5.629,90.532,11.179,134.315"/>
				<path style="fill:none;stroke:#052A75;stroke-width:20;stroke-linejoin:round;stroke-miterlimit:10;" d="M67.022,421.579&#10;&#9;&#9;&#9;&#9;&#9;c29.513,36.447,68.211,62.543,110.731,76.838c19.246,6.471,39.19-7.703,39.19-28.008v0c0-12.738-8.16-24.014-20.235-28.069&#10;&#9;&#9;&#9;&#9;&#9;c-30.814-10.348-58.975-28.899-80.906-54.684"/>
			</g>
			
				<circle style="fill:none;stroke:#052A75;stroke-width:20;stroke-linejoin:round;stroke-miterlimit:10;" cx="70.983" cy="375.242" r="46.514"/>
		</g>
		<g>
			<g>
				<path style="fill:none;stroke:#052A75;stroke-width:20;stroke-linejoin:round;stroke-miterlimit:10;" d="M481.127,355.503&#10;&#9;&#9;&#9;&#9;&#9;c16.808-43.782,20.059-90.344,11.179-134.315c-4.019-19.903-26.266-30.088-43.851-19.936v0&#10;&#9;&#9;&#9;&#9;&#9;c-11.031,6.369-16.717,19.074-14.191,31.559c6.445,31.859,4.461,65.523-6.905,97.409"/>
				<path style="fill:none;stroke:#052A75;stroke-width:20;stroke-linejoin:round;stroke-miterlimit:10;" d="M394.199,387.656&#10;&#9;&#9;&#9;&#9;&#9;c-21.932,25.786-50.093,44.336-80.906,54.684c-12.075,4.055-20.235,15.331-20.235,28.069v0c0,20.305,19.944,34.479,39.19,28.008&#10;&#9;&#9;&#9;&#9;&#9;c42.519-14.295,81.218-40.391,110.731-76.839"/>
			</g>
			
				<circle style="fill:none;stroke:#052A75;stroke-width:20;stroke-linejoin:round;stroke-miterlimit:10;" cx="439.018" cy="375.242" r="46.514"/>
		</g>
		<g>
			<g>
				<g>
					<g>
						
							<line style="fill:none;stroke:#052A75;stroke-width:20;stroke-linecap:round;stroke-linejoin:round;stroke-miterlimit:10;" x1="283" y1="243.248" x2="283" y2="231.248"/>
						
							<line style="fill:none;stroke:#052A75;stroke-width:20;stroke-linecap:round;stroke-linejoin:round;stroke-miterlimit:10;" x1="227" y1="243.248" x2="227" y2="231.248"/>
					</g>
					<path style="fill:none;stroke:#DB4B86;stroke-width:20;stroke-linecap:round;stroke-linejoin:round;stroke-miterlimit:10;" d="&#10;&#9;&#9;&#9;&#9;&#9;&#9;M207.349,283.361c2.789,23.849,23.053,42.359,47.651,42.359s44.861-18.51,47.651-42.359"/>
				</g>
			</g>
			
				<circle style="fill:none;stroke:#052A75;stroke-width:20;stroke-linejoin:round;stroke-miterlimit:10;" cx="255" cy="268.999" r="112"/>
		</g>
	</g>
</g>
<g>
</g>
<g>
</g>
<g>
</g>
<g>
</g>
<g>
</g>
<g>
</g>
<g>
</g>
<g>
</g>
<g>
</g>
<g>
</g>
<g>
</g>
<g>
</g>
<g>
</g>
<g>
</g>
<g>
</g>
</svg>