<svg version="1.1" id="Layer_1" xmlns="http://www.w3.org/2000/svg" xmlns:xlink="http://www.w3.org/1999/xlink" x="0px" y="0px" style="enable-background:new 0 0 512 512;" xml:space="preserve" viewBox="0 13.84 512 484.32"> <g> 	<g> 		<path style="fill:#FFFFFF;" d="M472,488.16H40c-16.569,0-30-13.431-30-30V53.84c0-16.569,13.431-30,30-30h432			c16.569,0,30,13.431,30,30V458.16C502,474.729,488.569,488.16,472,488.16z"></path> 		<path style="fill:#D2DCFD;" d="M103.285,191.769c0-59.55,12.027-116.291,33.779-167.929H40c-16.569,0-30,13.431-30,30V458.16			c0,16.569,13.431,30,30,30h180.666C147.88,410.703,103.285,306.446,103.285,191.769z"></path> 		<path style="fill:#BC9AF4;" d="M502,53.84c0-16.569-13.431-30-30-30H40c-16.569,0-30,13.431-30,30l100.591,58.359H502V53.84z"></path> 		<path style="fill:#6864F7;" d="M137.064,23.84H40c-16.569,0-30,13.431-30,30v58.359h100.591			C116.297,81.484,125.241,51.907,137.064,23.84z"></path> 		<polygon style="fill:#FDCB50;" points="152.067,408.236 175.998,294.462 62.224,318.393 98.107,335.131 54.18,379.058 			91.402,416.28 135.329,372.353 		"></polygon> 		<path style="fill:#FD8F01;" d="M118.665,306.521l-56.441,11.872l35.882,16.738L54.18,379.058l37.223,37.223l43.927-43.927			l16.738,35.882l2.506-11.913C139.422,368.116,127.307,338.038,118.665,306.521z"></path> 		<rect x="222.793" y="266.972" style="fill:#93B2F4;" width="66.414" height="66.414"></rect> 		<rect x="222.793" y="156.378" style="fill:#93B2F4;" width="66.414" height="66.414"></rect> 		<rect x="222.793" y="377.566" style="fill:#93B2F4;" width="66.414" height="66.414"></rect> 	</g> 	<g> 		 			<polygon style="fill:none;stroke:#052A75;stroke-width:20;stroke-linecap:round;stroke-linejoin:round;stroke-miterlimit:10;" points="			152.067,408.236 175.998,294.462 62.224,318.393 98.107,335.131 54.18,379.058 91.402,416.28 135.329,372.353 		"></polygon> 		 			<line style="fill:none;stroke:#6864F7;stroke-width:20;stroke-linecap:round;stroke-linejoin:round;stroke-miterlimit:10;" x1="457.82" y1="210.353" x2="336.032" y2="210.353"></line> 		 			<line style="fill:none;stroke:#6864F7;stroke-width:20;stroke-linecap:round;stroke-linejoin:round;stroke-miterlimit:10;" x1="336.032" y1="174.108" x2="413.044" y2="174.108"></line> 		 			<line style="fill:none;stroke:#6864F7;stroke-width:20;stroke-linecap:round;stroke-linejoin:round;stroke-miterlimit:10;" x1="457.82" y1="318.302" x2="336.032" y2="318.302"></line> 		 			<line style="fill:none;stroke:#6864F7;stroke-width:20;stroke-linecap:round;stroke-linejoin:round;stroke-miterlimit:10;" x1="336.032" y1="282.057" x2="413.044" y2="282.057"></line> 		 			<line style="fill:none;stroke:#6864F7;stroke-width:20;stroke-linecap:round;stroke-linejoin:round;stroke-miterlimit:10;" x1="457.82" y1="426.251" x2="336.032" y2="426.251"></line> 		 			<line style="fill:none;stroke:#6864F7;stroke-width:20;stroke-linecap:round;stroke-linejoin:round;stroke-miterlimit:10;" x1="336.032" y1="390.006" x2="413.044" y2="390.006"></line> 		<path style="fill:none;stroke:#052A75;stroke-width:20;stroke-linecap:round;stroke-linejoin:round;stroke-miterlimit:10;" d="			M472,488.16H40c-16.569,0-30-13.431-30-30V53.84c0-16.569,13.431-30,30-30h432c16.569,0,30,13.431,30,30V458.16			C502,474.729,488.569,488.16,472,488.16z"></path> 		 			<line style="fill:none;stroke:#FFFFFF;stroke-width:20;stroke-linecap:round;stroke-linejoin:round;stroke-miterlimit:10;" x1="54.18" y1="73.019" x2="54.18" y2="73.019"></line> 		 			<line style="fill:none;stroke:#FFFFFF;stroke-width:20;stroke-linecap:round;stroke-linejoin:round;stroke-miterlimit:10;" x1="98.359" y1="73.019" x2="98.359" y2="73.019"></line> 		 			<line style="fill:none;stroke:#FFFFFF;stroke-width:20;stroke-linecap:round;stroke-linejoin:round;stroke-miterlimit:10;" x1="142.539" y1="73.019" x2="142.539" y2="73.019"></line> 		 			<line style="fill:none;stroke:#FDCB50;stroke-width:20;stroke-linecap:round;stroke-linejoin:round;stroke-miterlimit:10;" x1="336.032" y1="73.019" x2="457.82" y2="73.019"></line> 	</g> </g> <g> </g> <g> </g> <g> </g> <g> </g> <g> </g> <g> </g> <g> </g> <g> </g> <g> </g> <g> </g> <g> </g> <g> </g> <g> </g> <g> </g> <g> </g> </svg>