<svg id="Capa_1" enable-background="new 0 0 414.276 414.276" xmlns="http://www.w3.org/2000/svg" viewBox="6.52 0 401.24 414.28"><g><g><path d="m399.846 127.076v202.949c0 11.172-9.31 20.481-20.481 20.481h-344.454c-11.171 0-20.481-9.31-20.481-20.481v-202.949c0-11.171 9.31-20.481 20.481-20.481h120.093c-.465 4.655-.465 8.844-.465 13.499 0 10.241.931 20.481 2.793 30.256 1.862 8.844 4.189 17.688 7.448 26.067h84.252c3.258-8.379 5.586-16.757 7.448-25.601 1.862-10.241 2.793-20.481 2.793-30.256 0-4.655 0-9.31-.465-13.499h120.092c11.637-.466 20.481 8.843 20.946 20.015z" fill="#b8d8d3"></path><g fill="#2086a5"><path d="m259.272 106.595c-3.724-42.359-23.739-78.666-52.134-98.681-28.394 20.481-48.41 56.788-52.134 98.681-.465 4.655-.465 8.844-.465 13.499 0 10.241.931 20.481 2.793 30.256 1.862 8.844 4.189 17.688 7.448 26.067h84.252c3.258-8.379 5.586-16.757 7.448-25.601 1.862-10.241 2.793-20.481 2.793-30.256.464-4.656.464-9.311-.001-13.965z"></path><path d="m221.568 106.595c-3.258 7.913-12.102 11.637-20.016 8.379-3.724-1.396-6.982-4.655-8.379-8.379-3.258-5.586-4.655-11.637-4.655-18.154 0-15.361 8.379-27.463 18.619-27.463s18.619 12.568 18.619 27.463c.467 6.517-1.395 13.033-4.188 18.154z"></path></g><path d="m249.497 176.416c-2.793 7.448-6.051 14.43-10.241 20.947h-64.236c-4.189-6.517-7.448-13.499-10.241-20.947z" fill="#2086a5"></path><path d="m175.02 197.363-31.187 22.343-13.964-36.773 27.929-32.118c1.862 8.844 4.189 17.688 7.448 26.067 2.326 6.982 6.05 13.964 9.774 20.481z" fill="#005086"></path><path d="m284.407 182.933-13.964 36.773-31.653-22.343c4.189-6.517 7.448-13.499 10.241-20.947 3.258-8.379 5.586-16.757 7.448-25.601z" fill="#005086"></path><path d="m226.223 88.906c0 6.517-1.396 12.568-4.655 18.154-3.258 7.913-12.102 11.637-20.016 8.379-3.724-1.396-6.982-4.655-8.379-8.379-3.258-5.586-4.655-11.637-4.655-18.154 0-15.361 8.379-27.463 18.619-27.463s19.086 12.103 19.086 27.463z" fill="#f7d6bf"></path><path d="m14.43 310.474v22.808c0 9.775 9.31 17.688 20.481 17.688h343.989c11.172 0 20.481-7.913 20.481-17.688v-22.808z" fill="#318fb5"></path><path d="m175.02 350.505h64.236v55.392h-64.236z" fill="#318fb5"></path><path d="m175.02 350.505h64.236v22.343h-64.236z" fill="#2086a5"></path></g><path d="m205.276 228.085c4.655 0 8.379 3.724 8.379 8.379v40.962c0 4.655-3.724 8.379-8.379 8.379s-8.379-3.724-8.379-8.379v-40.962c.466-4.656 4.19-8.379 8.379-8.379zm-40.031 14.895v16.757c0 4.655 3.724 8.379 8.379 8.379s8.379-3.724 8.379-8.379v-16.757c0-4.655-3.724-8.379-8.379-8.379s-8.379 3.724-8.379 8.379zm64.236 0v16.757c0 4.655 3.724 8.379 8.379 8.379s8.379-3.724 8.379-8.379v-16.757c0-4.655-3.724-8.379-8.379-8.379s-8.379 3.724-8.379 8.379zm87.975-128.007h6.517c4.655 0 8.379-3.724 8.379-8.379s-3.724-8.379-8.379-8.379h-6.517c-4.655 0-8.379 3.724-8.379 8.379s3.725 8.379 8.379 8.379zm90.303 217.844c-.465 13.499-11.172 25.601-28.394 25.601h-131.73v39.1h27.929c4.655 0 8.379 3.724 8.379 8.379s-3.724 8.379-8.379 8.379h-136.851c-4.655 0-8.379-3.724-8.379-8.379s3.724-8.379 8.379-8.379h27.929v-39.1h-131.731c-16.757 0-27.929-11.637-28.394-25.601 0-39.566 0-111.249 0-205.742 0-15.826 13.033-28.394 28.394-28.394h112.646c5.12-40.497 25.136-76.338 54.461-97.285 2.793-1.862 6.517-1.862 9.31 0 29.791 20.947 49.806 56.788 55.392 97.285h19.55c4.655 0 8.379 3.724 8.379 8.379s-3.724 8.379-8.379 8.379h-18.154c.465 11.637-.465 22.808-2.327 33.514l25.136 29.325c1.862 2.327 2.327 5.586 1.396 8.379l-13.964 36.773c-1.862 5.12-7.913 6.982-12.102 3.724l-29.325-20.947h-59.116l-29.325 20.947c-4.189 2.793-10.241 1.396-12.568-3.724l-13.964-36.773c-.931-2.793-.465-6.051 1.396-8.379l25.136-29.325c-1.862-10.706-2.793-22.343-2.327-33.514h-111.251c-6.982 0-12.102 5.586-12.102 12.102v76.339c20.947 3.724 36.773 20.016 40.031 40.497 24.205 3.258 42.824 24.205 42.824 48.41 0 4.655-3.724 8.379-8.379 8.379s-8.379-3.724-8.379-8.379c0-18.154-14.895-32.583-32.584-32.583-5.586 0-11.171 1.396-16.292 4.189-3.724 2.327-8.844.931-11.171-2.793s-.931-8.844 2.793-11.172c4.655-2.793 9.31-4.189 14.43-5.586-2.793-12.102-12.102-21.412-23.739-24.67v81.924h368.659v-93.561c-13.964 3.258-24.67 14.43-27.463 28.394 3.724.931 6.982 1.862 10.241 3.258 4.189 1.862 6.051 6.517 4.189 10.706s-6.517 6.051-10.706 4.189c-4.655-1.862-9.775-3.258-14.895-3.258-20.016 0-36.307 16.292-36.307 36.307 0 4.655-3.724 8.379-8.379 8.379s-8.379-3.724-8.379-8.379c0-26.998 20.481-49.806 47.479-52.134 3.258-22.808 20.947-40.497 43.755-44.22v-65.167c0-6.982-5.586-12.102-12.102-12.102h-26.532c-4.655 0-8.379-3.724-8.379-8.379s3.724-8.379 8.379-8.379h26.532c15.826 0 28.394 13.033 28.394 28.394.93 49.341.93 159.66.93 206.673zm-243.445-137.781c-5.586-10.706-7.913-18.154-10.706-26.067 0-.465-.465-.931-.465-.931l-14.43 16.757 8.379 22.343zm72.615-10.241h-59.581c.931 1.396 1.862 3.258 2.327 4.655h54.461c.931-1.862 1.862-3.259 2.793-4.655zm38.169-.465-13.964-16.292c-2.793 9.31-7.448 20.016-11.171 26.998l16.757 11.637zm-111.715-76.804c-1.862 19.085.465 39.566 7.448 60.978h73.08c6.517-19.55 9.31-36.307 7.448-60.978-3.258-36.307-19.55-69.356-43.755-89.372-25.136 20.015-41.428 53.064-44.221 89.372zm67.96 251.358h-48.41v39.1h47.944v-39.1zm160.125-40.497h-368.66v11.637c0 6.982 5.586 12.102 12.102 12.102h343.99c6.517 0 12.102-5.586 12.102-12.102zm-212.724-229.481c0-18.154 10.241-36.307 27.929-35.376 18.619.465 27.929 17.688 27.929 35.376s-9.775 35.842-28.86 35.842c-18.62-.931-27.464-20.015-26.998-35.842zm17.688 0c0 6.982 2.793 17.223 9.775 19.085 6.982-1.862 9.775-12.102 9.775-19.085 0-10.241-5.12-18.154-9.775-19.085-4.655.466-9.775 8.379-9.775 19.085zm-146.16 42.359c-4.189 0-7.448 3.258-7.448 7.448s3.258 7.448 7.448 7.448 7.448-3.258 7.448-7.448-3.259-7.448-7.448-7.448zm22.343 0c-4.189 0-7.448 3.258-7.448 7.448s3.258 7.448 7.448 7.448c4.189 0 7.448-3.258 7.448-7.448-.001-4.19-3.259-7.448-7.448-7.448zm22.343 0c-4.189 0-7.448 3.258-7.448 7.448 0 4.189 3.258 7.448 7.448 7.448 4.189 0 7.448-3.258 7.448-7.448-.001-4.19-3.259-7.448-7.448-7.448z" fill="#172956"></path></g></svg>