<svg xmlns="http://www.w3.org/2000/svg" viewBox="0 1.98 64 60.02"><g data-name="21-Search"><path fill="#a5e887" d="M28.46 22.54 30 23.59V25l-7 3v3.71a14 14 0 1 1 18 0V28l-7-3v-1.41A5.03 5.03 0 0 0 37 19v-4a5 5 0 0 0-10 0v4a5.02 5.02 0 0 0 1.46 3.54"></path><path fill="#bc6829" d="M28 47h8v10h-8z"></path><path fill="#e3a76f" d="M36 43v4h-8v-4h6z"></path><path fill="#bec3d2" d="m30 39 .01-.11a18 18 0 0 0 3.98 0L34 39v4h-4z"></path><path fill="#e9edf5" d="M23 31.71A13.991 13.991 0 1 0 18 21a13.9 13.9 0 0 0 5 10.71M32 3a18 18 0 0 1 1.99 35.89 18 18 0 0 1-3.98 0A18 18 0 0 1 32 3"></path><path fill="#bc6829" d="M15 36v2c-5 0-5-3-5-3 0 3-5 3-5 3v-2a5 5 0 0 1 10 0M59 36v2H49v-2a5 5 0 0 1 10 0"></path><path fill="#7e8596" d="M30 14a2.94 2.94 0 0 1-3 3v-2a5 5 0 1 1 10 0v2c-7 0-7-3-7-3"></path><path fill="#ffda45" d="M63 49v8.98a14.92 14.92 0 0 1-18 0V49l7-3a2.006 2.006 0 0 0 2 2 2.015 2.015 0 0 0 2-2z"></path><path fill="#ff7045" d="M19 49v8.98a14.92 14.92 0 0 1-18 0V49l7-3a2.006 2.006 0 0 0 2 2 2.015 2.015 0 0 0 2-2z"></path><g fill="#faa68e"><path d="M12 46a2.015 2.015 0 0 1-2 2 2.006 2.006 0 0 1-2-2v-1.41l2 .41a5.1 5.1 0 0 0 2-.41zM33.41 26.41A1.96 1.96 0 0 1 32 27a2.006 2.006 0 0 1-2-2v-1.41l2 .41a5.1 5.1 0 0 0 2-.41V25a1.96 1.96 0 0 1-.59 1.41M56 46a2.015 2.015 0 0 1-2 2 2.006 2.006 0 0 1-2-2v-1.41l2 .41a5.1 5.1 0 0 0 2-.41z"></path></g><path fill="#ffcdbe" d="M15 38v2a5.03 5.03 0 0 1-3 4.59 5.1 5.1 0 0 1-2 .41l-2-.41-1.54-1.05A5.02 5.02 0 0 1 5 40v-2s5 0 5-3c0 0 0 3 5 3M37 17v2a5.03 5.03 0 0 1-3 4.59 5.1 5.1 0 0 1-2 .41l-2-.41-1.54-1.05A5.02 5.02 0 0 1 27 19v-2a2.94 2.94 0 0 0 3-3s0 3 7 3M59 38v2a5.03 5.03 0 0 1-3 4.59 5.1 5.1 0 0 1-2 .41l-2-.41-1.54-1.05A5.02 5.02 0 0 1 49 40v-2z"></path><path fill="#f2f6fc" d="M9 51h2v2H9zM9 56h2v2H9z"></path><path fill="#4ab8f7" d="M34 25a2.015 2.015 0 0 1-2 2v8a13.94 13.94 0 0 0 9-3.283V28z"></path><path fill="#19cffc" d="M32 27a2.006 2.006 0 0 1-2-2l-7 3v3.717A13.94 13.94 0 0 0 32 35z"></path><path d="M19.394 48.081 13 45.341v-.154A6.02 6.02 0 0 0 16 40v-4a6 6 0 1 0-12 0v4a6 6 0 0 0 1.749 4.243 1 1 0 0 0 .147.123l1.1.752v.223l-6.39 2.74A1 1 0 0 0 0 49v8.98a1 1 0 0 0 .4.8 15.92 15.92 0 0 0 19.2 0 1 1 0 0 0 .4-.8V49a1 1 0 0 0-.606-.919M9 45.816l.8.163A1 1 0 0 0 10 46a6 6 0 0 0 1-.09V46a.98.98 0 0 1-.306.713A.97.97 0 0 1 10 47a1 1 0 0 1-1-1zM6 36a4 4 0 0 1 8 0v.952c-2.83-.287-2.991-1.785-3-1.952a1 1 0 0 0-2 0c0 1.309-1.814 1.762-3 1.918zm0 2.943a6.82 6.82 0 0 0 4.048-1.607A5.88 5.88 0 0 0 14 38.957V40a4.03 4.03 0 0 1-2.392 3.67A4.1 4.1 0 0 1 10.1 44l-1.7-.35-1.29-.879A4.01 4.01 0 0 1 6 40zm12 18.528a13.92 13.92 0 0 1-16 0v-7.812l5.346-2.291A2.99 2.99 0 0 0 10 49a2.97 2.97 0 0 0 2.655-1.632L18 49.659zM63.394 48.081 57 45.341v-.154A6.02 6.02 0 0 0 60 40v-4a6 6 0 1 0-12 0v4a6 6 0 0 0 1.749 4.243 1 1 0 0 0 .147.123l1.1.752v.223l-6.394 2.74A1 1 0 0 0 44 49v8.98a1 1 0 0 0 .4.8 15.92 15.92 0 0 0 19.2 0 1 1 0 0 0 .4-.8V49a1 1 0 0 0-.606-.919m-8.7-1.368A.97.97 0 0 1 54 47a1 1 0 0 1-1-1v-.184l.8.163A1 1 0 0 0 54 46a6 6 0 0 0 1-.09V46a.98.98 0 0 1-.306.713M50 36a4 4 0 0 1 8 0v1h-8zm0 3h8v1a4.03 4.03 0 0 1-2.392 3.67A4.1 4.1 0 0 1 54.1 44l-1.7-.349-1.29-.879A4.01 4.01 0 0 1 50 40zm12 18.471a13.92 13.92 0 0 1-16 0v-7.812l5.346-2.291A3 3 0 0 0 53 48.816V52h2v-3.181a2.85 2.85 0 0 0 1.108-.693 2.9 2.9 0 0 0 .547-.758L62 49.659z"></path><path d="M9 51h2v2H9zM9 56h2v2H9zM41.644 32.476A14.956 14.956 0 1 0 32 36a14.93 14.93 0 0 0 9.644-3.524m-12.3-6.108A3 3 0 0 0 31 27.816v6.14a12.97 12.97 0 0 1-7-2.736v-2.561zM36 15.978C31.279 15.759 31 14 31 14a1 1 0 0 0-2 0 1.77 1.77 0 0 1-1 1.766V15a4 4 0 1 1 8 0zm-8 1.9a3.97 3.97 0 0 0 2.313-1.523c.982.788 2.7 1.5 5.687 1.628V19a4.03 4.03 0 0 1-2.392 3.67A4.1 4.1 0 0 1 32.1 23l-1.7-.349-1.29-.879A4.01 4.01 0 0 1 28 19zm12 13.341a12.96 12.96 0 0 1-7 2.737v-6.137a2.85 2.85 0 0 0 1.108-.693 2.9 2.9 0 0 0 .547-.758L40 28.659zm-8.2-6.24A1 1 0 0 0 32 25a6 6 0 0 0 1-.09V25a.98.98 0 0 1-.306.713A.97.97 0 0 1 32 26a1 1 0 0 1-1-1v-.184zM19 21a13 13 0 1 1 23 8.272V28a1 1 0 0 0-.606-.919L35 24.341v-.154A6.02 6.02 0 0 0 38 19v-4a6 6 0 0 0-12 0v4a6 6 0 0 0 1.749 4.243 1 1 0 0 0 .147.123l1.1.752v.223l-6.394 2.74A1 1 0 0 0 22 28v1.272A12.92 12.92 0 0 1 19 21"></path><path d="M36 42h-1v-2.258a19 19 0 1 0-6 0V42h-1a1 1 0 0 0-1 1v14a1 1 0 0 0 1 1h8a1 1 0 0 0 1-1V43a1 1 0 0 0-1-1M15 21a17 17 0 1 1 15.119 16.9A17.02 17.02 0 0 1 15 21m16 18.972q.508.027 1 .028c.492.001.662-.01 1-.028V42h-2zM35 44v2h-6v-2zm-6 12v-8h6v8z"></path></g></svg>