<svg xmlns="http://www.w3.org/2000/svg" xml:space="preserve" viewBox="0 0 512 512"><path d="M154.251 314.566h45.001v-25c0-41.25-33.75-75-75-75s-75 33.75-75 75v25h44.999c16.5 0 30-13.5 30-30 0 16.5 13.499 30 30 30" style="fill-rule:evenodd;clip-rule:evenodd;fill:#6e91ef"></path><path d="M184.25 352.066v-37.5h-29.999c-16.5 0-30-13.5-30-30 0 16.5-13.5 30-30 30h-30v37.5c0 33.161 27.162 60 59.999 60s60-26.838 60-60" style="fill-rule:evenodd;clip-rule:evenodd;fill:#fbf2e1"></path><path d="M151.901 405.271a59.46 59.46 0 0 1-27.651 6.795 59.46 59.46 0 0 1-27.651-6.795l-3.659 22.773c0 17.292 14.018 31.31 31.31 31.31s31.31-14.018 31.31-31.31z" style="fill-rule:evenodd;clip-rule:evenodd;fill:#fbf2e1"></path><path d="M124.251 459.354c-17.292 0-31.31-14.018-31.31-31.31l-49.469 17.985C24.882 452.787 7.5 469.719 7.5 489.5v15H241v-15c0-19.774-17.382-36.712-35.971-43.471l-49.469-17.985c.001 17.292-14.017 31.31-31.309 31.31" style="fill-rule:evenodd;clip-rule:evenodd;fill:#acf3f9"></path><path d="M49.252 352.066h15v-37.5h-15c-8.249 0-15 6.751-15 15v7.5c0 8.25 6.75 15 15 15m134.998-37.5.002 37.5h15c8.25 0 15-6.75 15-15v-7.5c0-8.25-6.75-15-15-15z" style="fill-rule:evenodd;clip-rule:evenodd;fill:#fbdfba"></path><path d="M387.75 214.566c-49.499 0-89.999 40.502-89.999 90v49.705c0 37.752-26.752 57.795 9.219 91.758l49.469-17.985 3.659-22.773c-19.182-10.041-32.348-30.16-32.348-53.204v-37.5h29.999c16.5 0 30-13.5 30-30 0 16.5 13.5 30 30 30h29.999v37.5c0 23.045-13.167 43.163-32.348 53.205l3.659 22.773 49.47 17.985c35.971-33.963 9.219-54.006 9.219-91.758v-49.705c.001-49.499-40.499-90.001-89.998-90.001" style="fill-rule:evenodd;clip-rule:evenodd;fill:#fdef8e"></path><path d="M368.816 216.591c-40.487 8.758-71.065 44.968-71.065 87.975v49.705c0 37.752-26.752 57.795 9.219 91.758l21.459-7.802c-12.571-12.405-19.633-25.923-13.532-48.912 7.598-28.627 5.353-55.379 5.353-84.749 0-34.904 18.007-71.042 48.566-87.975" style="fill-rule:evenodd;clip-rule:evenodd;fill:#efc17a"></path><path d="m356.439 428.044-49.469 17.985c-18.59 6.758-35.971 23.69-35.971 43.471v15h85.44zm62.62 76.456h85.44v-15c0-19.774-17.381-36.712-35.971-43.471l-49.469-17.985z" style="fill-rule:evenodd;clip-rule:evenodd;fill:#de95c2"></path><path d="M387.749 474.5c-17.292 0-31.31-14.018-31.31-31.31v61.31h62.62v-61.31c0 17.292-14.018 31.31-31.31 31.31" style="fill-rule:evenodd;clip-rule:evenodd;fill:#6e91ef"></path><path d="M356.439 443.19c0 17.292 14.018 31.31 31.31 31.31s31.31-14.018 31.31-31.31v-15.146l-3.659-22.773a59.46 59.46 0 0 1-27.651 6.795 59.46 59.46 0 0 1-27.651-6.795l-3.659 22.773z" style="fill-rule:evenodd;clip-rule:evenodd;fill:#f6d9ad"></path><path d="M301 135.412a74.68 74.68 0 0 0-15.001-45c-11.524 0-22.039 4.335-29.999 11.465 9.205 8.24 15 20.212 15 33.535 0 24.875-20.18 45-45 45-24.847 0-45-20.153-45-45s20.153-45 45.002-44.998c7.735-10.294 18.056-18.535 29.996-23.756-9.187-4.017-19.334-6.246-29.999-6.246-41.406 0-75 33.594-75 75s33.594 75 75 75c41.292 0 75.001-33.48 75.001-75" style="fill-rule:evenodd;clip-rule:evenodd;fill:#fdef8e"></path><path d="M275.316 61.168a75.6 75.6 0 0 1 10.683-.756c3.725 0 7.387.272 10.967.797L323.499 30l-7.5-22.5h-60L248.5 30z" style="fill-rule:evenodd;clip-rule:evenodd;fill:#acf3f9"></path><path d="M275.316 61.168a75.6 75.6 0 0 1 10.683-.756c3.725 0 7.387.272 10.967.797l16.47-19.372a97.4 97.4 0 0 0-27.437-3.924 97.5 97.5 0 0 0-27.34 3.896z" style="fill-rule:evenodd;clip-rule:evenodd;fill:#5ceaee"></path><path d="M211 135.412c0 16.88 5.584 32.462 15.001 45 11.524 0 22.039-4.335 29.999-11.465-9.205-8.24-15-20.212-15-33.535 0-24.875 20.18-45 45-45 24.847 0 45 20.153 45 45s-20.153 45-45.002 44.998c-7.735 10.294-18.056 18.535-29.996 23.755 9.187 4.017 19.334 6.246 29.999 6.246 41.406 0 75-33.594 75-75s-33.594-75-75-75C244.709 60.412 211 93.892 211 135.412" style="fill-rule:evenodd;clip-rule:evenodd;fill:#fdef8e"></path><path d="M213.324 153.999A74.8 74.8 0 0 0 226 180.412c11.524 0 22.039-4.335 29.999-11.465a45.06 45.06 0 0 1-12.661-19.186A22.55 22.55 0 0 1 226 157.912c-4.64 0-9.027-1.427-12.676-3.913m85.352-37.175A74.8 74.8 0 0 0 286 90.411c-11.524 0-22.039 4.335-29.999 11.465a45.06 45.06 0 0 1 12.661 19.186 22.55 22.55 0 0 1 17.337-8.151 22.5 22.5 0 0 1 12.677 3.913m-105.052-12.657c8.185-8.479 19.666-13.754 32.379-13.753 7.735-10.294 18.056-18.535 29.996-23.756-10.207-4.463-21.187-6.544-32.314-6.207-13.646 11.338-24.205 26.365-30.061 43.716m124.752 62.49c-8.185 8.479-19.666 13.754-32.379 13.753-7.735 10.294-18.056 18.535-29.996 23.755 10.207 4.463 21.187 6.544 32.314 6.207 13.645-11.337 24.204-26.364 30.061-43.715" style="fill-rule:evenodd;clip-rule:evenodd;fill:#efc17a"></path><path d="M135.501 215.416a75 75 0 0 0-11.25-.85c-41.25 0-75 33.75-75 75v25h22.5v-25c0-37.429 27.787-68.681 63.75-74.15" style="fill-rule:evenodd;clip-rule:evenodd;fill:#3d6dea"></path><path d="M86.751 314.566h-22.5v37.5c0 33.161 27.162 60 59.999 60 3.839 0 7.6-.371 11.25-1.072-27.567-5.295-48.749-29.645-48.749-58.927z" style="fill-rule:evenodd;clip-rule:evenodd;fill:#fbdfba"></path><path d="M118.059 411.746a59.45 59.45 0 0 1-21.459-6.475l-3.659 22.773c0 12.512 7.34 23.308 17.948 28.322z" style="fill-rule:evenodd;clip-rule:evenodd;fill:#fbdfba"></path><path d="M34.176 450.322C19.475 458.626 7.5 473.081 7.5 489.5v15H30V467c0-5.874 1.533-11.498 4.176-16.678" style="fill-rule:evenodd;clip-rule:evenodd;fill:#5ceaee"></path><path d="M297.674 450.322c-14.701 8.304-26.676 22.759-26.675 39.178v15h22.5V467c-.001-5.874 1.533-11.498 4.175-16.678" style="fill-rule:evenodd;clip-rule:evenodd;fill:#da6eac"></path><path d="M378.938 473.241c-13.002-3.806-22.5-15.819-22.5-30.051v61.31h22.5z" style="fill-rule:evenodd;clip-rule:evenodd;fill:#3d6dea"></path><path d="M356.439 443.19c0 14.233 9.497 26.245 22.5 30.051v-45.198l2.619-16.298a59.45 59.45 0 0 1-21.459-6.475l-3.659 22.773v15.147z" style="fill-rule:evenodd;clip-rule:evenodd;fill:#feb982"></path><path d="M447.748 352.066v-37.5h-29.999c-16.5 0-30-13.5-30-30 0 16.5-13.5 30-30 30H327.75v37.5c0 33.161 27.162 60 59.999 60s59.999-26.838 59.999-60" style="fill-rule:evenodd;clip-rule:evenodd;fill:#f6d9ad"></path><path d="M350.249 314.566h-22.5v37.5c0 33.161 27.162 60 59.999 60 3.84 0 7.6-.371 11.25-1.072-27.567-5.295-48.749-29.645-48.749-58.927z" style="fill-rule:evenodd;clip-rule:evenodd;fill:#feb982"></path><path d="M184.25 314.566v37.5c0 33-27 60-59.999 60s-59.999-27-59.999-60v-37.5" style="fill-rule:evenodd;clip-rule:evenodd;fill:none;stroke:#000;stroke-width:15.0001;stroke-miterlimit:22.9256"></path><path d="M124.251 284.566c0 16.5 13.5 30 30 30h45.001c8.25 0 15 6.75 15 15v7.5c0 8.25-6.75 15-15 15h-15m-120.001 0h-15c-8.25 0-15-6.75-15-15v-7.5c0-8.249 6.751-15 15-15H94.25c16.5 0 30-13.5 30-30" style="fill-rule:evenodd;clip-rule:evenodd;fill:none;stroke:#000;stroke-width:15.0001;stroke-miterlimit:22.9256"></path><path d="M49.252 314.566v-25c0-41.25 33.75-75 75-75s75 33.75 75 75v25M96.6 405.27l-3.659 22.773-49.469 17.985C24.882 452.787 7.5 469.719 7.5 489.5v15H241v-15c0-19.774-17.382-36.712-35.971-43.471l-49.469-17.985-3.66-22.773" style="fill-rule:evenodd;clip-rule:evenodd;fill:none;stroke:#000;stroke-width:15.0001;stroke-miterlimit:22.9256"></path><path d="M155.561 428.044c0 17.292-14.018 31.31-31.31 31.31s-31.31-14.018-31.31-31.31M387.749 284.566c0 16.5 13.5 30 30 30h29.999v37.5c0 33-27 60-59.999 60s-59.999-27-59.999-60v-37.5h29.999c16.5 0 30-13.5 30-30" style="fill-rule:evenodd;clip-rule:evenodd;fill:none;stroke:#000;stroke-width:15.0001;stroke-miterlimit:22.9256"></path><path d="m360.098 405.27-3.659 22.773-49.469 17.985c-18.59 6.758-35.971 23.69-35.971 43.471v15H452m15 .001h37.5v-15c0-19.774-17.381-36.712-35.971-43.471l-49.469-17.985-3.659-22.773" style="fill-rule:evenodd;clip-rule:evenodd;fill:none;stroke:#000;stroke-width:15.0001;stroke-miterlimit:22.9256"></path><path d="M419.059 443.19c0 17.292-14.018 31.31-31.31 31.31s-31.31-14.018-31.31-31.31" style="fill-rule:evenodd;clip-rule:evenodd;fill:none;stroke:#000;stroke-width:15.0001;stroke-miterlimit:22.9256"></path><path d="M306.97 446.029c-35.971-33.963-9.219-54.006-9.219-91.758v-49.705c0-49.498 40.5-90 89.999-90s89.999 40.502 89.999 90v49.705c0 37.752 26.752 57.795-9.219 91.758M356.439 428.044V504.5m62.62-76.456V504.5M285.995 90.412c9.421 12.537 15.005 28.119 15.005 45 0 41.406-33.594 75-75 75s-75-33.594-75-75c0-17.917 6.294-34.367 16.785-47.27m10.945-10.945c12.902-10.492 29.354-16.785 47.27-16.785 10.668 0 20.816 2.231 30.006 6.249M256 101.877c9.205 8.24 15 20.212 15 33.535 0 24.847-20.153 45-45 45s-45-20.153-45-45 20.153-45 45-45h.006" style="fill-rule:evenodd;clip-rule:evenodd;fill:none;stroke:#000;stroke-width:15.0001;stroke-miterlimit:22.9256"></path><path d="M226.004 180.412c-9.42-12.537-15.005-28.119-15.005-45 0-41.406 33.594-75 75-75s75 33.594 75 75-33.594 75-75 75c-10.667 0-20.816-2.23-30.006-6.249m.005-35.216c-9.205-8.24-14.999-20.213-14.999-33.536 0-24.847 20.153-45 45-45s45 20.153 45 45-20.153 45-45 45h-.006" style="fill-rule:evenodd;clip-rule:evenodd;fill:none;stroke:#000;stroke-width:15.0001;stroke-miterlimit:22.9256"></path><path d="M275.316 61.168 248.5 30 256 7.5h59.999l7.5 22.5-26.533 31.209" style="fill-rule:evenodd;clip-rule:evenodd;fill:none;stroke:#000;stroke-width:15.0001;stroke-miterlimit:22.9256"></path><path d="M402.749 259.566v-15m30 30v-15" style="fill-rule:evenodd;clip-rule:evenodd;fill:none;stroke:#000;stroke-width:14.9998;stroke-miterlimit:2.6131"></path></svg>