<svg xmlns="http://www.w3.org/2000/svg" viewBox="0.95 1.05 48.02 48"><path fill="#fff" d="M4.1 35.1v4.2c0 1.1.9 2 2 2h37.8c1.1 0 2-.9 2-2v-4.2z"></path><path fill="#2aabf5" d="M33.1 48.3H16.9c-.7 0-1.3-.6-1.3-1.3s.6-1.3 1.3-1.3H33c.7 0 1.3.6 1.3 1.3.1.7-.5 1.3-1.2 1.3"></path><circle cx="25" cy="38.2" r="1.3" fill="#2aabf5"></circle><path fill="#f3877e" d="M7.3 40.2c0 1.5-2.8 8-2.8 8s-2.8-6.5-2.8-8 1.2-2.8 2.8-2.8 2.8 1.3 2.8 2.8"></path><path fill="#d7e8ff" d="M4.1 19.1h41.8V35H4.1z"></path><circle cx="13.6" cy="28.1" r="4.6" fill="#ffc408"></circle><path fill="#fff" d="m31.4 27.5-2 1.9 2 2-1.6 1.6-2-2-2 2-1.2-6.8z"></path><path fill="#34cba0" d="M47.5 43.3H37.2c-.4 0-.7-.3-.7-.7V30.7c0-.4.3-.7.7-.7h10.3c.4 0 .7.3.7.7v11.9c.1.4-.3.7-.7.7"></path><path fill="#f3877e" d="M47.8 16.5H2.2L8 9.2h34.1z"></path><g fill="#fff"><path d="M25 16.5v1.8c0 1.6-1.3 2.9-2.9 2.9s-2.9-1.3-2.9-2.9v-1.8 1.8c0 1.6-1.3 2.9-2.9 2.9s-2.9-1.3-2.9-2.9v-1.8 1.8c0 1.6-1.3 2.9-2.9 2.9s-2.9-1.3-2.9-2.9v-1.8 1.8c0 1.6-1.3 2.9-2.9 2.9s-2.9-1.3-2.9-2.9v-1.8M25 16.5v1.8c0 1.6 1.3 2.9 2.9 2.9s2.9-1.3 2.9-2.9v-1.8 1.8c0 1.6 1.3 2.9 2.9 2.9s2.9-1.3 2.9-2.9v-1.8 1.8c0 1.6 1.3 2.9 2.9 2.9s2.9-1.3 2.9-2.9v-1.8 1.8c0 1.6 1.3 2.9 2.9 2.9s2.9-1.3 2.9-2.9v-1.8"></path></g><path fill="#d7e8ff" d="M4.1 8.9c0-2 1.6-3.6 3.6-3.6h28.8v3.9"></path><circle cx="42" cy="8" r="6.2" fill="#ffc408"></circle><circle cx="13.6" cy="28.1" r="4.6" style="fill:none;stroke:#151f81;stroke-linecap:round;stroke-linejoin:round;stroke-miterlimit:10;stroke-width:1.5"></circle><path d="M13.6 26.3v-.9M12.6 29.9h1.2c.5 0 .9-.4.9-.9 0-.2-.1-.5-.3-.6q-.3-.3-.6-.3h-.3c-.5 0-.9-.4-.9-.9 0-.2.1-.5.3-.6q.3-.3.6-.3h1.2M13.6 30.8v-.9" style="fill:none;stroke:#151f81;stroke-linecap:round;stroke-linejoin:round;stroke-miterlimit:10;stroke-width:1.5"></path><g style="fill:none;stroke:#151f81;stroke-linecap:round;stroke-linejoin:round;stroke-miterlimit:10;stroke-width:1.5"><path d="M4.1 14.1V8.9c0-2 1.6-3.6 3.6-3.6h28.8M4.1 37.5V21.1M33.2 41.3H7.3M33.4 35.1H4.1M31.2 41.2l.1 4.4M18.7 45.6l.1-4.4M33.1 48.3H16.9c-.7 0-1.3-.6-1.3-1.3s.6-1.3 1.3-1.3H33c.7 0 1.3.6 1.3 1.3.1.7-.5 1.3-1.2 1.3"></path><circle cx="25" cy="38.2" r="1.3"></circle><path d="m12.3 9.2-4.4 7.3H2.2L8 9.2"></path><path d="m16.5 9.2-2.9 7.3H7.9l4.4-7.3M20.8 9.2l-1.5 7.3h-5.7l2.9-7.3"></path><path d="M25 9.2v7.3h-5.7l1.5-7.3M29.2 9.2l1.5 7.3H25V9.2"></path><path d="m33.5 9.2 2.9 7.3h-5.7l-1.5-7.3"></path><path d="M42.1 16.5h-5.7l-2.9-7.3M45.2 13.2l2.6 3.3h-5.7L40.6 14M25 16.5v1.8c0 1.6-1.3 2.9-2.9 2.9s-2.9-1.3-2.9-2.9v-1.8 1.8c0 1.6-1.3 2.9-2.9 2.9s-2.9-1.3-2.9-2.9v-1.8 1.8c0 1.6-1.3 2.9-2.9 2.9s-2.9-1.3-2.9-2.9v-1.8 1.8c0 1.6-1.3 2.9-2.9 2.9s-2.9-1.3-2.9-2.9v-1.8M25 16.5v1.8c0 1.6 1.3 2.9 2.9 2.9s2.9-1.3 2.9-2.9v-1.8 1.8c0 1.6 1.3 2.9 2.9 2.9s2.9-1.3 2.9-2.9v-1.8 1.8c0 1.6 1.3 2.9 2.9 2.9s2.9-1.3 2.9-2.9v-1.8 1.8c0 1.6 1.3 2.9 2.9 2.9s2.9-1.3 2.9-2.9v-1.8M4.1 9.2h31.7M7.3 40.2c0 1.5-2.8 8-2.8 8s-2.8-6.5-2.8-8 1.2-2.8 2.8-2.8 2.8 1.3 2.8 2.8"></path><circle cx="42" cy="8" r="6.2"></circle></g><path d="M42 5.7V4.6M40.7 10.2h1.5c.6 0 1.1-.5 1.1-1.1 0-.3-.1-.6-.3-.8s-.5-.3-.8-.3h-.4c-.6 0-1.1-.5-1.1-1.1 0-.3.1-.6.3-.8s.5-.3.8-.3h1.5M42 11.3v-1.1M31.4 27.5l-2 1.9 2 2-1.6 1.6-2-2-2 2-1.2-6.8zM23 24.6l-.5-.5" style="fill:none;stroke:#151f81;stroke-linecap:round;stroke-linejoin:round;stroke-miterlimit:10;stroke-width:1.5"></path><g style="fill:none;stroke:#151f81;stroke-linecap:round;stroke-linejoin:round;stroke-miterlimit:10;stroke-width:1.5"><path d="m26.3 24.6.4-.5M22.5 28.3l.5-.4"></path></g><path d="M24.6 23.9v-.7M21.6 26.2h.7M40 33.8v-7c0-1.3 1.1-2.4 2.4-2.4s2.4 1.1 2.4 2.4v7" style="fill:none;stroke:#151f81;stroke-linecap:round;stroke-linejoin:round;stroke-miterlimit:10;stroke-width:1.5"></path><path d="M47.5 43.3H37.2c-.4 0-.7-.3-.7-.7V30.7c0-.4.3-.7.7-.7h10.3c.4 0 .7.3.7.7v11.9c.1.4-.3.7-.7.7M44.4 33.8h.8M39.6 33.8h.7" style="fill:none;stroke:#151f81;stroke-linecap:round;stroke-linejoin:round;stroke-miterlimit:10;stroke-width:1.5"></path></svg>