<svg xmlns="http://www.w3.org/2000/svg" data-name="Layer 1" viewBox="21.64 3.99 468.71 504.01"><g fill="#ffce45"><path d="M247.513 20.903h-15.444v19.663l15.444 8.916zM75.136 225.415c5.854-4.616 13.538-5.232 20.049-1.609l6.288 3.497h237.64v-51.895c0-11.103 9.033-20.136 20.137-20.136h30.907c11.103 0 20.136 9.033 20.136 20.136v51.895h.236l6.288-3.497c6.511-3.623 14.193-3.007 20.047 1.609.779.615 1.54 1.254 2.305 1.888h17.302v-98.43l-81.768-47.208-81.768 47.208v73.209a7 7 0 1 1-14 0v-65.127l-5.047 2.914a7 7 0 0 1-10.5-6.062v-28.023c0-.922.184-1.817.521-2.644L166.846 47.1 55.529 111.367v115.935h17.302c.765-.633 1.525-1.273 2.305-1.888zm48.579-124.583a7 7 0 0 1 7-7h72.261a7 7 0 0 1 7 7v72.26a7 7 0 0 1-7 7h-72.261a7 7 0 0 1-7-7zM375.525 383.818l-59.527-34.369c-11.532-6.671-22.43-12.976-35.859-12.976h-.256c-12.293.072-23.478 5.536-34.295 10.821-17.269 8.435-36.842 18-58.053.437-6.072-5.028-9.548-12.579-9.069-19.705.44-6.563 4.067-12.289 10.214-16.121l48.203-30.054c-13.7-6.608-26.174-5.532-41.244-4.225-19.671 1.705-41.967 3.639-70.799-12.576l-5.292-2.977c-29.653 25.669-45.261 58.503-46.42 97.669l47.067 24.263c.72.371 1.369.863 1.921 1.456l10.92 11.751 5.811-10.064c3.486-6.039 9.142-10.365 15.924-12.182 6.785-1.818 13.845-.897 19.882 2.588 6.565 3.791 10.871 10.013 12.438 16.879 6.727-2.077 14.269-1.459 20.836 2.332 6.045 3.49 10.375 9.145 12.19 15.922q.129.48.238.96c6.732-2.078 14.276-1.464 20.847 2.329 6.045 3.49 10.374 9.145 12.189 15.922q.131.488.243.978.476-.146.96-.276c6.785-1.815 13.845-.896 19.882 2.59 6.045 3.489 10.374 9.144 12.19 15.921s.894 13.839-2.598 19.884l-6.642 11.505 5.013 2.819c9.216 5.319 15.192 2.492 17.735-1.914 2.339-4.05 2.04-10.035-4.141-13.607l-1.658-.957a7 7 0 0 1-2.563-9.562 7 7 0 0 1 9.562-2.563l1.655.955.042.024 10.91 6.298c2.585 1.493 5.613 1.886 8.529 1.103 2.915-.781 5.343-2.635 6.834-5.219 3.097-5.364 1.258-12.244-4.099-15.351l-9.062-5.232a7 7 0 0 1 7-12.124l9.038 5.218.007.004.014.008 5.863 3.385c2.857 1.65 6.205 2.083 9.424 1.219 3.222-.863 5.904-2.911 7.553-5.768 1.646-2.85 2.076-6.196 1.212-9.423-.864-3.225-2.91-5.907-5.76-7.553l-8.792-5.076a7 7 0 0 1 7-12.124l14.669 8.469c2.855 1.649 6.199 2.083 9.426 1.219 3.221-.863 5.903-2.911 7.552-5.768 1.559-2.699 2.022-6.001 1.289-9.109-1.231-3.177-2.074-5.061-6.154-8.051zM428.193 236.407c-.786-.62-1.645-.932-2.522-.932-.68 0-1.371.188-2.049.564l-23.74 13.202c-.189.105-.195.114-.216.329a.6.6 0 0 0 .005.213s.027.056.144.153c34.301 28.877 52.671 67.867 53.125 112.757.002.217.011.233.193.354.182.117.195.119.397.033l18.613-7.905c1.364-.579 2.139-1.526 2.436-2.979 8.077-39.523-11.432-88.221-46.387-115.79z"></path></g><path fill="#282828" d="M453.679 241.303h9.791a7 7 0 0 0 7-7v-97.347l5.047 2.914a7 7 0 0 0 7 0 7 7 0 0 0 3.5-6.062v-28.023a7 7 0 0 0-3.5-6.062L378.203 39.497a7 7 0 0 0-7 0l-70.494 40.699-39.195-22.63V13.903a7 7 0 0 0-7-7h-29.443a7 7 0 0 0-7 7v18.58L170.346 4.93a7 7 0 0 0-7 0L29.482 82.216a7 7 0 0 0-3.5 6.062v28.023a6.999 6.999 0 0 0 10.5 6.062l5.047-2.914v114.852a7 7 0 0 0 7 7h9.791c-28.041 31.465-42.285 76.176-34.617 113.697 1.212 5.935 5.105 10.695 10.682 13.062l18.614 7.905a14.5 14.5 0 0 0 5.676 1.174c2.737 0 5.444-.802 7.862-2.383a15 15 0 0 0 2.021-1.622l44.135 22.751 13.019 14.01-.672 1.165c-7.226 12.516-2.922 28.578 9.595 35.804a26.04 26.04 0 0 0 12.795 3.506c-1.48 4.701-1.597 9.743-.285 14.638 1.815 6.777 6.146 12.432 12.19 15.922 6.039 3.485 13.1 4.407 19.881 2.588 2.24-.6 4.356-1.474 6.312-2.592a25.98 25.98 0 0 0 10.995 12.436c8.757 5.055 19.245 4.469 27.231-.625a26.08 26.08 0 0 0 10.704 11.763 26.05 26.05 0 0 0 13.062 3.506c9.064 0 17.895-4.702 22.744-13.101l.163-.283 5.082 2.858c5.804 3.351 11.271 4.767 16.188 4.767 9.363 0 16.73-5.138 20.603-11.845 1.932-3.346 3.063-7.246 3.199-11.249 1.33.218 2.674.34 4.027.34 2.202 0 4.421-.29 6.607-.876 6.528-1.749 11.975-5.92 15.336-11.742a25.1 25.1 0 0 0 3.211-15.448 26.7 26.7 0 0 0 6.473-.903c6.834-1.831 12.535-6.195 16.054-12.29a26.17 26.17 0 0 0 3.223-17.078 26.8 26.8 0 0 0 6.03-.888c6.834-1.831 12.535-6.196 16.054-12.291 2.447-4.24 3.63-9.146 3.477-14.051l46.644-21.581a14.8 14.8 0 0 0 2.829 2.414c2.414 1.58 5.119 2.382 7.857 2.382 1.906 0 3.829-.39 5.68-1.175l18.613-7.905c5.575-2.367 9.468-7.127 10.682-13.062 7.668-37.522-6.576-82.233-34.618-113.698zM374.702 53.641l97.314 56.184v11.858L378.202 67.52a7 7 0 0 0-7 0l-93.814 54.163v-11.858zM232.069 20.903h15.443v28.579l-15.443-8.916zM39.982 92.319l126.864-73.244 119.862 69.203-10.269 5.929-106.093-61.253a7 7 0 0 0-7 0L39.982 104.178zm15.547 19.048 111.317-64.268 97.063 56.04a7 7 0 0 0-.521 2.644v28.023a6.999 6.999 0 0 0 10.5 6.062l5.047-2.914v65.127a7 7 0 1 0 14 0v-73.209l81.768-47.208 81.768 47.208v98.43h-17.302c-.765-.633-1.525-1.273-2.305-1.888-5.854-4.616-13.536-5.232-20.047-1.609l-6.288 3.497h-.236v-51.895c0-11.103-9.033-20.136-20.136-20.136H359.25c-11.104 0-20.137 9.033-20.137 20.136v51.895h-237.64l-6.288-3.497c-6.511-3.623-14.194-3.007-20.049 1.609-.779.615-1.54 1.254-2.305 1.888H55.529zM385.73 248.228c-.045.467-.05.929-.052 1.39l-11.521 6.408c-16.062 8.933-33.275 10.475-51.162 4.578-22.588-7.444-46.775-3.279-71.891 12.381l-.682.425c-20.239-12.829-38.398-11.257-55.995-9.731-18.513 1.606-37.66 3.267-62.726-10.831l-5.375-3.023a15 15 0 0 0-.059-1.598 14.34 14.34 0 0 0-2.565-6.924h264.592a14.3 14.3 0 0 0-2.564 6.925m10.562-20.925h-43.18v-51.895a6.144 6.144 0 0 1 6.137-6.136h30.907a6.143 6.143 0 0 1 6.136 6.136zM58.872 363.044c-.185.122-.204.12-.401.037l-18.614-7.905c-1.365-.58-2.139-1.525-2.436-2.978-8.077-39.524 11.431-88.221 46.386-115.791.786-.62 1.645-.932 2.522-.932.681 0 1.372.188 2.051.564l23.739 13.202c.188.104.195.117.216.329.021.216.017.227-.149.367-34.3 28.876-52.67 67.866-53.125 112.758-.002.218-.009.23-.188.348zm82.763 71.699c-5.831-3.366-7.836-10.849-4.47-16.68l13.807-23.915c1.616-2.8 4.252-4.81 7.422-5.659 3.172-.849 6.459-.427 9.259 1.19 5.831 3.366 7.836 10.85 4.469 16.681q0 .002-.003.005l-13.816 23.93c-3.373 5.814-10.842 7.811-16.667 4.448zm41.38 29.595c-1.616 2.801-4.252 4.811-7.422 5.66s-6.457.427-9.258-1.19c-2.807-1.62-4.819-4.256-5.668-7.421-.848-3.165-.423-6.453 1.198-9.26l8.559-14.823.015-.028v-.002h.002l.007-.014 13.802-23.905c3.368-5.827 10.848-7.831 16.677-4.465 2.807 1.62 4.819 4.256 5.668 7.421.844 3.151.425 6.425-1.177 9.223l-.017.029-.005.008-.001.003-19.4 33.601h.001zm29.767 18.092c-3.169.849-6.458.427-9.258-1.19-2.807-1.62-4.819-4.256-5.668-7.42-.848-3.165-.423-6.453 1.198-9.26l.008-.015 18.466-31.983c3.368-5.823 10.848-7.824 16.675-4.46 2.807 1.62 4.818 4.255 5.667 7.421.846 3.158.425 6.439-1.188 9.241l-.011.019-.002.004-13.801 23.904-.004.006-4.661 8.074c-1.616 2.8-4.252 4.81-7.422 5.659zm28.678 9.947c-5.828-3.365-7.833-10.842-4.474-16.672l13.813-23.927c1.616-2.798 4.251-4.806 7.419-5.655 3.172-.851 6.459-.428 9.259 1.19 2.807 1.62 4.819 4.256 5.667 7.42.849 3.165.423 6.453-1.198 9.26l-13.806 23.914c-3.366 5.831-10.851 7.836-16.681 4.47zm138.932-91.398c-1.648 2.856-4.331 4.904-7.552 5.768-3.227.864-6.57.431-9.426-1.219l-14.669-8.469a7 7 0 0 0-7 12.124l8.792 5.076c2.85 1.646 4.895 4.328 5.76 7.553.864 3.227.434 6.573-1.212 9.423-1.648 2.856-4.331 4.904-7.553 5.768-3.219.864-6.566.432-9.424-1.219l-5.864-3.385-.013-.008-.007-.004-9.038-5.218a7 7 0 0 0-7 12.124l9.062 5.232c5.356 3.107 7.196 9.988 4.099 15.351-1.491 2.584-3.919 4.438-6.834 5.219-2.916.783-5.944.391-8.529-1.103l-10.91-6.298-.042-.025-1.655-.954c-3.346-1.935-7.629-.785-9.562 2.563a7 7 0 0 0 2.563 9.562l1.658.957c6.181 3.572 6.48 9.557 4.141 13.607-2.543 4.406-8.52 7.233-17.735 1.914l-5.013-2.819 6.642-11.505c3.491-6.045 4.413-13.106 2.598-19.884-1.816-6.777-6.146-12.432-12.19-15.921-6.037-3.486-13.097-4.405-19.882-2.59q-.484.13-.96.276a27 27 0 0 0-.243-.978c-1.815-6.777-6.145-12.432-12.189-15.922-6.57-3.793-14.114-4.407-20.847-2.329q-.11-.48-.238-.96c-1.815-6.777-6.146-12.432-12.19-15.922-6.567-3.791-14.109-4.409-20.836-2.332-1.567-6.866-5.873-13.088-12.438-16.879-6.037-3.485-13.097-4.406-19.882-2.588-6.782 1.816-12.438 6.143-15.924 12.182l-5.81 10.064-10.92-11.751a7 7 0 0 0-1.921-1.456l-47.067-24.263c1.159-39.166 16.766-72 46.42-97.669l5.292 2.977c28.832 16.215 51.128 14.281 70.799 12.576 15.069-1.307 27.543-2.383 41.244 4.225l-48.203 30.054c-6.146 3.832-9.773 9.558-10.214 16.121-.479 7.126 2.997 14.677 9.069 19.705 21.211 17.563 40.784 7.998 58.053-.437 10.817-5.285 22.002-10.749 34.295-10.821h.256c13.43 0 24.327 6.305 35.859 12.976l59.527 34.369c4.08 2.99 4.923 4.874 6.154 8.051.733 3.108.27 6.41-1.289 9.109zm2.451-29.103-59.833-34.545c-12.628-7.306-25.682-14.857-42.859-14.857h-.35c-15.486.092-28.699 6.547-40.357 12.241-18.348 8.965-29.389 13.487-42.979 2.233-2.627-2.176-4.209-5.31-4.03-7.984.137-2.037 1.332-3.731 3.653-5.179l62.426-38.921c21.724-13.548 41.384-17.136 60.101-10.965 21.444 7.067 43.007 5.118 62.35-5.641l11.345-6.31c29.478 25.455 45.123 57.967 46.532 96.728l-47.18 21.829c-1.675-2.569-4.146-5.311-8.229-8.25a7 7 0 0 0-.589-.381zm91.738-19.679c-.297 1.452-1.071 2.399-2.436 2.979l-18.613 7.905c-.202.086-.216.084-.397-.033-.183-.12-.191-.137-.193-.354-.454-44.89-18.824-83.88-53.125-112.757a.6.6 0 0 1-.144-.153s-.02-.06-.005-.213c.021-.215.026-.224.216-.329l23.74-13.202c.678-.377 1.369-.564 2.049-.564.878 0 1.736.312 2.522.932 34.955 27.569 54.464 76.267 46.387 115.79zM130.715 180.092h72.261a7 7 0 0 0 7-7v-72.26a7 7 0 0 0-7-7h-72.261a7 7 0 0 0-7 7v72.26a7 7 0 0 0 7 7m7-36.129h22.131v22.129h-22.131zm36.131 22.129v-22.129h22.13v22.129zm22.13-36.129h-22.13v-22.131h22.13zm-36.13-22.131v22.131h-22.131v-22.131z"></path></svg>