<svg xmlns="http://www.w3.org/2000/svg" xml:space="preserve" viewBox="2.5 7.84 677.66 667"><defs><clipPath id="a" clipPathUnits="userSpaceOnUse"><path d="M0 512h512V0H0Z"></path></clipPath></defs><g clip-path="url(#a)" transform="matrix(1.33333 0 0 -1.33333 0 682.667)"><path d="M0 0c5.976-4.89 8.95-7.549 11.952-7.664C14.925-7.549 17.928-4.89 23.903 0l157.576 161.274c46.605 49.841 46.605 131.422 0 181.291-42.347 45.295-111.884 35.229-156.003-8.149l-8.292-8.149c-4.803-4.719-5.718-4.719-10.636.114l-8.149 8.035c-44.033 43.407-113.657 53.444-156.003 8.149-46.606-49.869-46.606-131.45 0-181.291l18.9-19.358z" style="fill:#fd8087;fill-opacity:1;fill-rule:evenodd;stroke:none" transform="translate(262.605 43.098)"></path><path d="M0 0c22.674-32.884 35.827-71.944 35.827-113.836 0-4.575-.172-9.093-.486-13.554C32.825-164.591 19.9-199.191-.743-228.729c-9.093-13.011-19.672-25.05-31.567-35.916-12.695-11.609-26.849-21.846-42.203-30.453a240 240 0 0 0-16.212-8.293l45.834-46.895c5.976-4.89 8.95-7.549 11.952-7.664 2.974.115 5.976 2.774 11.952 7.664l48.207 49.354 109.368 111.92c36.828 39.376 44.547 98.595 23.188 146.291-5.69 12.668-13.409 24.535-23.188 35-6.434 6.863-13.496 12.468-20.987 16.871-24.418 14.327-53.497 15.956-80.947 7.549C22.617 13.011 10.865 7.349 0 0" style="fill:#fe636e;fill-opacity:1;fill-rule:evenodd;stroke:none" transform="translate(307.496 393.384)"></path><path d="M0 0h46.863l19.815 32.913L91.097-5.891l35.512 62.051 45.205-82.382 26.334 44.208h62.504" style="fill:none;stroke:#000;stroke-width:15;stroke-linecap:round;stroke-linejoin:round;stroke-miterlimit:10;stroke-dasharray:none;stroke-opacity:1" transform="translate(149.206 255.557)"></path><path d="M0 0c44.833 0 81.404 36.573 81.404 81.438 0 44.836-36.571 81.409-81.404 81.409-44.862 0-81.432-36.573-81.432-81.409C-81.432 36.573-44.862 0 0 0" style="fill:#f8f2f0;fill-opacity:1;fill-rule:evenodd;stroke:none" transform="translate(423.096 337.653)"></path><path d="M0 0c28.621-12.639 48.579-41.233 48.579-74.518 0-.515 0-1.029-.029-1.515-.171-9.466-1.944-18.53-5.089-26.908-8.121-21.847-25.391-39.261-47.121-47.61 10.036-4.461 21.159-6.92 32.853-6.92 16.269 0 31.452 4.775 44.176 13.01 22.417 14.526 37.228 39.747 37.228 68.428 0 44.95-36.456 81.409-81.404 81.409C18.899 5.376 9.063 3.489 0 0" style="fill:#e2e2e2;fill-opacity:1;fill-rule:evenodd;stroke:none" transform="translate(393.903 495.124)"></path><path d="M0 0c13.925 11.152 31.595 17.814 50.838 17.814 44.948 0 81.404-36.458 81.404-81.409 0-44.98-36.456-81.438-81.404-81.438-44.977 0-81.432 36.458-81.432 81.438 0 13.039 3.059 25.335 8.52 36.258" style="fill:none;stroke:#000;stroke-width:15;stroke-linecap:round;stroke-linejoin:round;stroke-miterlimit:10;stroke-dasharray:none;stroke-opacity:1" transform="translate(372.258 482.685)"></path><path d="M0 0c21.39-47.69 13.67-106.91-23.16-146.29l-109.36-111.93M-382.45 6.21c-24.97-48.7-18.22-111.38 20.21-152.5l18.9-19.36 8.76-8.97m209.518 234.043c-19.671-6.033-38.485-17.214-54.097-32.569l-8.292-8.15c-4.803-4.718-5.718-4.718-10.636.114l-8.149 8.036c-44.034 43.407-113.657 53.443-156.003 8.149" style="fill:none;stroke:#000;stroke-width:15;stroke-linecap:round;stroke-linejoin:round;stroke-miterlimit:10;stroke-dasharray:none;stroke-opacity:1" transform="translate(467.24 350.66)"></path><path d="M0 0v59.249" style="fill:none;stroke:#000;stroke-width:15;stroke-linecap:round;stroke-linejoin:round;stroke-miterlimit:10;stroke-dasharray:none;stroke-opacity:1" transform="translate(423.096 389.466)"></path><path d="M0 0h-59.244" style="fill:none;stroke:#000;stroke-width:15;stroke-linecap:round;stroke-linejoin:round;stroke-miterlimit:10;stroke-dasharray:none;stroke-opacity:1" transform="translate(452.718 419.09)"></path><path d="m0 0-16.698-54.158L0-111.548l76.915-20.931 62.389-16.957c36.399-11.324 52.467-4.861 85.95 5.891l122.691 39.346c35.227 11.295 29.966 59.734-21.587 43.178l-68.594-13.411-11.208-2.202c-16.641-3.231-18.929-4.575-35.713-1.973l-54.812 10.008-9.95 1.83c-22.475 7.178-13.725 37.259 5.89 34.286 13.266-1.687 31.051-4.09 46.262-5.662.315-.029.63-.058.915-.086 29.365-2.974 41.145 18.959 30.652 36.001-3.974 6.491-11.208 12.295-21.93 15.698l-41.317 7.578c-26.792 4.918-45.834-1.201-87.408-8.035L55.727 9.15Z" style="fill:#fed1a3;fill-opacity:1;fill-rule:evenodd;stroke:none" transform="translate(76.952 166.884)"></path><path d="M0 0v-131.965c0-1.659 1.744-3.002 3.86-3.002h61.703c2.145 0 3.889 1.343 3.889 3.002V0c0 1.659-1.744 3.002-3.889 3.002H3.86C1.744 3.002 0 1.659 0 0" style="fill:#99e6fc;fill-opacity:1;fill-rule:evenodd;stroke:none" transform="translate(7.5 176.578)"></path><path d="M0 0v-20.273c0-1.659 1.744-3.003 3.86-3.003h61.703c2.145 0 3.889 1.344 3.889 3.003V0c0-1.63-1.744-3.002-3.889-3.002H3.86C1.744-3.002 0-1.63 0 0" style="fill:#62dbfb;fill-opacity:1;fill-rule:evenodd;stroke:none" transform="translate(7.5 64.887)"></path><path d="M0 0v-9.55l76.915-20.932 62.389-16.956c36.399-11.324 52.467-4.862 85.95 5.89L347.945-2.202c19.872 6.348 26.849 24.535 19.93 36.23-3.403-6.748-10.065-12.811-19.93-15.956L225.254-21.274c-33.483-10.724-49.551-17.214-85.95-5.891L76.915-10.208 0 10.752Z" style="fill:#ffbc85;fill-opacity:1;fill-rule:evenodd;stroke:none" transform="translate(76.952 64.887)"></path><path d="M0 0c-15.555 2.345-24.275-16.042-16.041-27.336 3.289 4.889 8.95 8.121 16.041 7.063 13.267-1.687 31.052-4.09 46.263-5.662l.915-.086C75.17-28.852 87.179-9.093 79.173 7.521c-2.201-4.232-5.89-7.864-10.979-10.294-5.433-2.602-12.495-3.832-21.016-2.975l-.915.086C31.052-4.089 13.267-1.687 0 0" style="fill:#ffbc85;fill-opacity:1;fill-rule:evenodd;stroke:none" transform="translate(228.923 154.674)"></path><path d="M0 0v-111.548l76.915-20.931 62.389-16.957c36.399-11.324 52.467-4.861 85.95 5.891l122.691 39.346c35.227 11.295 29.966 59.734-21.587 43.178l-79.802-15.613c-16.641-3.231-18.929-4.575-35.713-1.973l-64.762 11.838c-22.475 7.178-13.725 37.259 5.89 34.286 13.552-1.716 31.766-4.175 47.177-5.748 40.574-4.118 47.55 39.318 8.722 51.699l-41.317 7.578c-26.792 4.918-45.834-1.201-87.408-8.035z" style="fill:none;stroke:#000;stroke-width:15;stroke-linecap:round;stroke-linejoin:round;stroke-miterlimit:10;stroke-dasharray:none;stroke-opacity:1" transform="translate(76.952 166.884)"></path><path d="M0 0h-61.704c-2.115 0-3.859-1.344-3.859-3.002v-131.965c0-1.659 1.744-3.003 3.859-3.003H0c2.144 0 3.889 1.344 3.889 3.003V-3.002C3.889-1.344 2.144 0 0 0" style="fill:none;stroke:#000;stroke-width:15;stroke-linecap:round;stroke-linejoin:round;stroke-miterlimit:10;stroke-dasharray:none;stroke-opacity:1" transform="translate(73.064 179.58)"></path></g></svg>