<svg xmlns="http://www.w3.org/2000/svg" viewBox="24 16.7 464 472.3"><path fill="#4d773b" d="M170.73 16.7h-69.51c-12.93 0-23.45 9.13-23.45 20.36v34.53a8 8 0 0 0 16 0V37.06c0-2 3.25-4.36 7.45-4.36h69.51c4.2 0 7.45 2.34 7.45 4.36v34.53a8 8 0 0 0 16 0V37.06c0-11.23-10.52-20.36-23.45-20.36M410.84 280.42c4.18 0 7.43 2.34 7.43 4.35v34.51a8 8 0 0 0 16 0v-34.51c0-11.22-10.51-20.35-23.43-20.35h-69.43c-12.93 0-23.43 9.13-23.43 20.35v34.51a8 8 0 0 0 16 0v-34.51c0-2 3.24-4.35 7.43-4.35zM264 388.56h224V473a16 16 0 0 1-16 16H280a16 16 0 0 1-16-16z"></path><path fill="#fac536" d="m349.36 67.94 10.12-5.39a16 16 0 0 0-15-28.26l-45.14 24c-8 4-11 14.89-6.17 22.44l29.14 48a16 16 0 0 0 27.36-16.61l-7.22-11.88c51.76 27.39 73.54 65 73.54 124.18a16 16 0 0 0 32 0c.01-74.2-30.75-123.28-98.63-156.48"></path><path fill="#f0a128" d="m162.6 444.91-10.13 5.38a16 16 0 0 0 15 28.26l45.15-24c8-4 11-14.89 6.17-22.43l-29.14-48a16 16 0 0 0-27.36 16.61l7.21 11.88c-51.75-27.39-73.5-65-73.5-124.19a16 16 0 0 0-32 0c0 74.2 30.71 123.28 98.6 156.49"></path><path fill="#4d773b" d="M24 140.56h224V225a16 16 0 0 1-16 16H40a16 16 0 0 1-16-16z"></path><path fill="#78b75b" d="M40 63.32h192a16 16 0 0 1 16 16v92.14H24V79.32a16 16 0 0 1 16-16M280 311.32h192a16 16 0 0 1 16 16v92.14H264v-92.14a16 16 0 0 1 16-16"></path><g fill="#d7e6ef"><path d="M68.78 181.24a14.93 14.93 0 0 0 29.86 0V156H68.78zM173.31 181.24a14.94 14.94 0 0 0 29.87 0V156h-29.87zM308.78 429.24a14.93 14.93 0 1 0 29.86 0V404h-29.86zM413.31 429.24a14.94 14.94 0 0 0 29.87 0V404h-29.87z"></path></g><path fill="#fff" d="M101.22 86.22H54.88a8 8 0 1 0 0 16h46.34a8 8 0 0 0 0-16M132.11 86.49a7.73 7.73 0 1 0 7.73 7.73 7.73 7.73 0 0 0-7.73-7.73M451.84 334.22h-46.35a8 8 0 0 0 0 16h46.35a8 8 0 0 0 0-16"></path><circle cx="374.6" cy="342.22" r="7.72" fill="#fff"></circle></svg>