<svg xmlns="http://www.w3.org/2000/svg" viewBox="1.15 1.07 49.71 49.85"><path fill="#59d5ff" d="m17.498 35.568 4.746-31.75L10.56 2.075l-5 33.493z"></path><path fill="#fff" d="m11.092 24.283 2.439-16.295 4.157.622-2.439 16.295z"></path><path fill="#59de9b" d="M37.523 2.075h8.942v28.619h-8.942z"></path><path fill="#f6c560" d="M25.352 9.136h7.768v21.559h-7.768z"></path><path fill="#c7c7c7" d="M33.114 9.133H25.35l3.882-7.058zM47.955 42.553c.44 1.35 1.12 2.63 2.03 3.76H4.668c-3.58-4.47-3.58-11.149 0-15.618h45.315c-.91 1.14-1.59 2.43-2.04 3.78-.86 2.609-.86 5.469.01 8.078"></path><path fill="#fff" d="M47.955 42.553H6.869c-.9-2.55-.9-5.549 0-8.079h41.076c-.86 2.61-.86 5.47.01 8.08"></path><path fill="#fff" d="M47.955 42.553H6.869c-.9-2.55-.9-5.549 0-8.079h41.076c-.86 2.61-.86 5.47.01 8.08"></path><path fill="#ff5975" d="M25.82 38.513v11.562l-3.804-3.153-3.794 3.153V38.513z"></path><g fill="#293c66"><path d="m17.834 7.615-4.16-.62a.995.995 0 0 0-1.13.84l-2.44 16.3c-.04.26.03.53.18.74.16.21.4.36.66.4l4.16.62c.05 0 .1.01.15.01.48 0 .91-.36.98-.85l2.44-16.3a1.01 1.01 0 0 0-.84-1.14m-3.43 16.15-2.17-.32 2.14-14.32 2.17.32z"></path><path d="M50.554 45.664c-3.165-4.04-3.261-10.23.09-14.44.21-.26.25-.6.11-.9a.86.86 0 0 0-.77-.48h-2.67V2.074a.85.85 0 0 0-.85-.85h-8.94a.85.85 0 0 0-.85.85v4.618l-.002.008.002.008v23.136h-2.7V9.224c.033-.1.004-.353-.15-.57a.16.16 0 0 0-.04-.07l-3.81-6.92c-.3-.54-1.19-.54-1.49 0-2.918 5.306-3.91 7.04-3.91 7.14a.8.8 0 0 0-.07.33v20.71h-5.14l3.87-25.88a.98.98 0 0 0-.19-.74.96.96 0 0 0-.65-.4l-11.69-1.74a1 1 0 0 0-1.13.84l-4.17 27.92h-.73c-.26 0-.51.12-.67.32-3.81 4.75-3.81 11.92 0 16.68.16.2.41.32.67.32h12.7v2.91c0 .33.19.63.49.77.29.14.65.1.9-.12l3.25-2.7 3.26 2.71c.604.454 1.4.037 1.4-.66v-2.91h23.33c.47 0 .85-.38.85-.85 0-.26-.11-.49-.3-.65m-43.07-10.34h39.34c-.299 1.224-.325 2.227-.35 2.329H12.666a.85.85 0 0 0 0 1.7h4.708v2.351h-9.89c-.578-2.016-.595-4.217 0-6.38m39 4.03c.012.1.046 1.113.35 2.35h-20.16v-2.35zm-8.11-12.434h4.52a.85.85 0 0 0 0-1.7h-4.52v-3.143h2.906a.85.85 0 0 0 0-1.7h-2.906v-3.142h4.52a.85.85 0 0 0 0-1.7h-4.52v-3.142h2.906a.85.85 0 0 0 0-1.7h-2.906V7.55h4.52a.85.85 0 0 0 0-1.7h-4.52V2.924h7.24v26.92h-7.24zm-6.1-16.936v19.86h-2.19V9.984zm-3.04-6.15 2.44 4.45h-4.89zm-3.03 6.15h2.18v19.86h-2.18zm-14.8-6.77 9.7 1.44-3.76 25.19h-9.92zm-6.32 42.25c-2.99-4.04-2.99-9.88 0-13.92h43.28c-.4.66-.74 1.35-1.01 2.08H6.864a.85.85 0 0 0-.8.57c-.929 2.58-.994 5.817 0 8.64.12.34.44.57.81.57h10.5v2.06zm19.89 2.8-2.42-2c-.15-.13-.35-.19-.54-.19s-.38.06-.54.19l-2.4 2v-8.9h5.9zm1.7-2.8v-2.06h20.68c.28.72.61 1.41 1 2.06z"></path></g></svg>