<svg xmlns="http://www.w3.org/2000/svg" xml:space="preserve" width="49" height="45"><path fill="#714D00" fill-rule="evenodd" d="M34.78 27.94c-.954-2.732-1.956-3.228-3.148-5.557-5.3-10.353-9.541-17.548-9.541-17.548-3.116.262-8.223 3.045-8.223 3.045 1.731 1.565 3.116 4.522 3.116 4.522-1.039 3.479-.173 5.567-.173 5.567 1.818.957 1.731 2.87 1.731 2.87l-3.202 4.61c-1.731 3.218 1.817 1.739 1.817 1.739 8.482-7.394 7.703-5.132 7.703-5.132s-1.411 2.397-2.368 5.057c-.999 2.778-4.556 6.219-4.556 6.219-2.415 3.314-.02 4.413-.02 4.413s4.898-4.588 7.576-7.807c.728-.874 2.31-4.055 2.31-4.055 1.979 3.066 3.233 2.366 4.057 4.497 4.24 10.965 6.668 9.072 6.668 9.072-.636-2.775-2.039-6.618-3.747-11.512z" clip-rule="evenodd"/><path fill="#FF916B" fill-rule="evenodd" d="M-.083-.167h2V45h-2z" clip-rule="evenodd"/><path fill="#6AD57C" fill-rule="evenodd" d="M46.916-.167h2V45h-2z" clip-rule="evenodd"/><path fill="#FF916B" fill-rule="evenodd" d="M0 0h9.75v1.917H0z" clip-rule="evenodd"/><path fill="#FFF" fill-rule="evenodd" d="M10.917 0h27v1.917h-27zM10.917 43h27v1.917h-27z" clip-rule="evenodd"/><path fill="#FF916B" fill-rule="evenodd" d="M0 43h10v1.917H0z" clip-rule="evenodd"/><path fill="#6AD57C" fill-rule="evenodd" d="M37.916 43h11v1.917h-11zM37.916 0h11v1.917h-11z" clip-rule="evenodd"/></svg>