<svg xmlns="http://www.w3.org/2000/svg" xml:space="preserve" width="242" height="77"><path fill="#4285F4" fill-rule="evenodd" d="M84.435.728h49.232V48.91H84.435z" clip-rule="evenodd"/><path fill="#EA4335" fill-rule="evenodd" d="M133.407.728h49.232V48.91h-49.232z" clip-rule="evenodd"/><path fill="#52A32F" fill-rule="evenodd" d="M182.509.728h49.232V48.91h-49.232z" clip-rule="evenodd"/><path fill="#4285F4" fill-rule="evenodd" d="M84.409 48.586h146.977v28.043H84.409z" clip-rule="evenodd"/><path fill="#FFF" fill-rule="evenodd" d="M85.445 49.622h144.732v25.799H85.445z" clip-rule="evenodd"/><path fill-rule="evenodd" d="M96.01 52.504 87.948 72.17h4.88l1.563-4.122h8.224l1.536 4.122h5.069l-7.98-19.666h-5.23zm-.324 12.23 2.858-7.731 2.831 7.731h-5.689zm26.704 1.617c0 1.234-.261 2.107-.782 2.622-.521.514-1.413.771-2.675.771-1.208 0-2.068-.267-2.583-.802-.515-.534-.771-1.398-.771-2.591v-9.19h-3.561v9.265c0 2.142.594 3.679 1.78 4.612s2.98 1.4 5.382 1.4c1.262 0 2.384-.179 3.364-.535.98-.357 1.76-.872 2.336-1.545a4.264 4.264 0 0 0 .823-1.616c.15-.583.227-1.355.227-2.316V57.16h-3.54v9.191zm5.947-6.497h5.186V72.17h3.54V59.854h5.124V57.16h-13.85v2.694zm23.933-2.961c-2.497 0-4.507.72-6.029 2.159-1.523 1.438-2.284 3.338-2.284 5.695 0 2.316.768 4.178 2.305 5.582 1.536 1.405 3.539 2.108 6.009 2.108 2.414 0 4.387-.744 5.916-2.231 1.53-1.487 2.295-3.403 2.295-5.747 0-2.262-.759-4.088-2.274-5.479s-3.497-2.087-5.938-2.087zm3.248 11.424c-.853.951-1.973 1.426-3.361 1.426-1.622 0-2.771-.499-3.444-1.498a6.517 6.517 0 0 1-.814-1.6 5.173 5.173 0 0 1-.279-1.684v-.491c0-.738.113-1.409.34-2.011s.546-1.122.957-1.56c.837-.876 1.935-1.313 3.293-1.313 1.44 0 2.564.441 3.375 1.323.809.883 1.214 2.083 1.214 3.602-.002 1.587-.429 2.856-1.281 3.806zm16.939-2.547a6.174 6.174 0 0 0-.093.341 5.97 5.97 0 0 0-.072.381l-.164.7-.083.371-.082.35-.062.371-.082.35-.124-.576-.144-.577-.021-.123-.042-.165-.144-.7-.186-.722-2.181-8.609h-5.454v15.01h3.354V59.813l3.21 12.357h3.417l3.21-12.378V72.17h3.354V57.16h-5.351l-2.26 8.61zm16.298-8.61-6.153 15.01h3.726l1.193-3.146h6.276l1.173 3.146h3.869l-6.092-15.01h-3.992zm-.247 9.335 2.182-5.901 2.161 5.901h-4.343zm11.565-6.641h5.186V72.17h3.54V59.854h5.124V57.16h-13.85v2.694zm19.817 9.623v-3.846h8.088v-2.528h-8.088v-3.249h8.87V57.16h-12.43v15.01h12.8v-2.693h-9.24z" clip-rule="evenodd"/><path fill="#FFF" fill-rule="evenodd" d="M118.853 15.827v-5.069H99.065v28.389h19.748v-5.069h-13.132V27h11.142v-5.069h-11.142v-6.104zM165.686 14.024c-2.251-2.178-5.048-3.267-8.391-3.267H147.03v28.39h10.265c3.343 0 6.14-1.086 8.391-3.257 2.25-2.17 3.376-4.965 3.376-8.384v-5.108c0-3.405-1.126-6.197-3.376-8.374zm-3.24 13.483c0 1.976-.495 3.565-1.483 4.768s-2.361 1.804-4.117 1.804h-3.2V15.827h3.2c1.756 0 3.129.599 4.117 1.794.988 1.196 1.483 2.775 1.483 4.738v5.148zM212.16 10.297v18.602c0 1.755-.439 3.048-1.317 3.88s-2.131 1.248-3.757 1.248c-1.639 0-2.907-.419-3.805-1.258-.897-.838-1.347-2.128-1.347-3.87V10.297h-6.615v18.602c0 3.236 1.08 5.745 3.239 7.526s5.002 2.671 8.527 2.671c3.486 0 6.307-.89 8.46-2.671 2.152-1.781 3.229-4.29 3.229-7.526V10.297h-6.614z" clip-rule="evenodd"/><path fill="#52A32F" fill-rule="evenodd" d="M79.563 14.703a4017.18 4017.18 0 0 0-1.214-3.124c-.101-.077-.196-.207-.3-.295-.502-.422-1.172-.216-1.899-.138l-4.111.521c-.397-.259-.676-.775-1.023-1.128-.282-.288-.842-.656-1.052-.998-.065-.114.154-1.005.189-1.188l.365-2.237c.089-.454.251-.962.187-1.466-.039-.311-.279-.633-.451-.753-.627-.438-1.573-.74-2.281-1.052l-2.05-.902c-.449-.198-.861-.448-1.439-.356-.614.098-1.393 1.36-1.667 1.721l-1.774 2.268c-.138.097-.563-.016-.698-.021l-1.268-.052c-.278.011-.723.096-.971.031-.187-.049-.744-1.034-.916-1.263l-1.539-2.148c-.272-.373-.477-.795-.796-1.058-.602-.494-1.276-.168-2.254.212l-3.969 1.539c0 .048-.342.357-.39.431-.151.225-.185.565-.186.854l.146.925.36 2.977c.02.253.23 1.027.128 1.184l-.537.461a11.16 11.16 0 0 0-1.119 1.084c-.099.11-.43.571-.573.607l-3.848-.643c-.361-.062-1.103-.321-1.583-.009-.59.383-.714 1.016-.963 1.554a848 848 0 0 1-.879 1.968c4.075 1.083 7.854 2.907 11.329 5.486a8.98 8.98 0 0 1 2.953-4.563c.379-.313.811-.569 1.252-.844l.891-.439c4.145-1.613 7.84-.309 10.125 2.279.91 1.03 1.926 2.756 2.168 4.451.083.574.115 1.153.119 1.705.016 2.464-1.423 5.276-3.491 6.832-.421.317-.899.567-1.376.866l-.563.258-.781.277c-.218.047-.411.108-.602.167 2.343 3.35 4.126 6.905 5.332 10.673.084.327.153.671.234 1.002l.182-.07 2.618-1.017c.213-.273.439-.455.534-.777.121-.412-.049-.944-.104-1.432l-.361-2.978-.156-1.119c.026-.134.261-.266.378-.359.305-.276.608-.554.912-.831.161-.2.717-.886.959-.982l3.991.706c.358.07.94.087 1.324-.248.344-.301.47-.741.639-1.123l.917-2.08c.277-.628.697-1.338.854-2.003.054-.225.189-.572 0-.889-.378-.632-.86-.9-1.354-1.266a2450.23 2450.23 0 0 1-2.533-1.975c-.103-.325.048-.735.059-1.044.02-.589.04-1.224-.007-1.828.199-.29.654-.472.961-.704l2.453-1.748c.521-.384 1.143-.676 1.276-1.225.163-.669-.414-1.784-.757-2.664z" clip-rule="evenodd"/><path fill="#4285F4" fill-rule="evenodd" d="M58.886 56.01c-1.052 0-2.214.337-3.489 1.012a302.316 302.316 0 0 0-4.164 2.249 39.254 39.254 0 0 1-4.896 2.249c-1.764.675-3.696 1.013-5.796 1.013-3.753 0-7.091-.956-10.018-2.868-2.927-1.911-4.69-4.892-5.29-8.94h34.554c2.477 0 4.277-.598 5.403-1.794 1.125-1.195 1.688-2.989 1.688-5.381 0-.896-.057-1.812-.169-2.746a61.176 61.176 0 0 0-.395-2.749c-1.351-5.978-4.559-11.453-9.623-16.425-5.065-4.969-11.388-7.455-18.966-7.455-8.554 0-15.532 3.168-20.935 9.503-5.403 6.336-8.104 13.627-8.104 21.874 0 8.923 2.794 16.326 8.385 22.211 5.589 5.887 12.925 8.828 22.004 8.828.825 0 1.67-.039 2.533-.112.861-.075 1.744-.151 2.645-.225 5.327-.751 10.204-2.399 14.632-4.949 4.427-2.548 6.641-5.322 6.641-8.321 0-1.725-.675-3.318-2.025-4.78s-2.89-2.194-4.615-2.194zM28.891 31.236c2.288-2.378 5.233-3.567 8.835-3.567 3.752 0 6.734 1.181 8.948 3.543 2.213 2.361 3.546 5.268 3.996 8.716H24.895c.375-3.416 1.706-6.315 3.996-8.692z" clip-rule="evenodd"/></svg>