<svg xmlns="http://www.w3.org/2000/svg" xml:space="preserve" width="512" height="512" style="enable-background:new 0 0 512 512" viewBox="0 0 24 24"><g fill="#90e954" data-name="Layer 2"><path d="M19 20.5H5a4.004 4.004 0 0 1-4-4v-9a4.004 4.004 0 0 1 4-4h14a4.004 4.004 0 0 1 4 4v9a4.004 4.004 0 0 1-4 4zM5 5.5a2.002 2.002 0 0 0-2 2v9a2.002 2.002 0 0 0 2 2h14a2.002 2.002 0 0 0 2-2v-9a2.002 2.002 0 0 0-2-2z" data-original="#000000"/><path d="M12 13.434a4.993 4.993 0 0 1-3.07-1.055L2.386 7.29a1 1 0 0 1 1.228-1.58l6.544 5.09a2.995 2.995 0 0 0 3.684 0l6.544-5.09a1 1 0 0 1 1.228 1.58l-6.544 5.09A4.996 4.996 0 0 1 12 13.433z" data-original="#000000"/></g></svg>