<svg xmlns="http://www.w3.org/2000/svg" xml:space="preserve" viewBox="13.57 28.24 68.47 62.83"><switch><g fill-rule="evenodd" clip-rule="evenodd"><path fill="#E94235" d="M65.408 63.86c3.989-.601 1.865 3.419 2.048 11.729.071 3.252-.079 8.668.118 10.602.433 4.261 1.807 4.437 6.089 4.747 5.081-.13 5.252-4.878 5.252-4.878l.182-25.137c-3.474-5.311-13.689 2.937-13.689 2.937z"></path><path fill="#34A853" d="M65.634 54.049c-13.47 9.6-23.489 18.188-23.994 26.861-.505 8.673 8.083 9.936 8.083 9.936 6.146-3.452 6.23-13.304 5.388-11.367.337 2.105-5.894 5.642-5.304.842 1.516-5.81 8.419-10.021 12.713-13.978-.311.286 11.732-10.222 16.501-5.558-.001-1.683.083-16.335-13.387-6.736z"></path><path fill="#ADE4BC" d="M51.526 79.623a2.528 2.528 0 0 1-.589-1.061c.02.394.182.765.589 1.061zm14.206-17.228s-6.173 4.259-11.614 10.339c0 0-3.878 3.212-3.181 5.829-.065-1.303 1.505-2.863 1.505-2.863s21.413-22.318 26.696-14.458c0-.001-.359-7.575-13.406 1.153z"></path><path fill="#3A7AE3" d="M61.95 57.596c-.759-8.679-3.905-13.019-7.918-12.476-4.013.542-15.293 13.018-21.476 30.918 0 0 10.087-20.721 18.982-21.697 2.277-.434 2.386 3.58 2.386 3.58S55.66 90.9 45.681 89.273c0 0 1.462 1.11 3.508 1.569 3.724.835 9.814-.203 11.678-10.031-.002 0 1.842-14.537 1.083-23.215z"></path><path fill="#4285F4" d="M36.352 53.582c-23.376 18.181-22.778 37.264-12.528 34.66 10.25-2.604 4.881-7.16 14.806-24.571 12.04-19.69 18.385-17.737 18.385-17.737s-3.855-5.425-20.663 7.648z"></path><path fill="#89B5FF" d="M40.337 58.057c-8.967 12.586-9.064 21.261-11.475 25.44-1.934 3.059-4.893 3.28-4.893 3.28-5.962 1.704-6.817-5.939-6.817-5.939-1.139 9.275 6.67 7.404 6.67 7.404 10.25-2.604 4.881-7.16 14.806-24.571 12.04-19.69 18.385-17.737 18.385-17.737s-5.054-4.272-16.676 12.123z"></path><path fill="#82B0FE" d="M51.537 54.341a2.7 2.7 0 0 1 1.255.316c-.32-.272-.727-.417-1.255-.316zm3.471 7.052s.332-5.366-2.215-6.736c1.063.901 1.13 3.264 1.13 3.264S55.659 90.9 45.68 89.273c0 0 6.159 5.254 8.895-11.282-.001-.001 1.192-7.92.433-16.598z"></path><circle cx="73.606" cy="38.218" r="8.436" fill="#E94235"></circle><path fill="#34A853" d="M61.024 38.48c-.11-1.174-.862-2.387-.862-2.387l-36.549-1.69c-2.408-.788-4.779-4.188-4.779-4.188-6.19-7.533-2.604 21.135-2.416 22.757.16 1.379 3.118-1.501 3.118-1.501 2.503-5.349 4.738-5.787 4.738-5.787l36.317-5.039c0 .001.535-1.085.433-2.165z"></path><path fill="#E94235" d="M55.038 37.233c.139-.517.36-1.001.635-1.365-4.33-.196-11.331-.517-18.566-.849l.082 1.909a1.132 1.132 0 0 1-1.091 1.193 1.195 1.195 0 0 1-1.222-1.144l-.086-2.065-2.388-.11L32.49 37c.028.669-.507 1.229-1.204 1.252-.707.023-1.309-.513-1.337-1.197l-.092-2.369-6.415-.295s1.501 4.75.776 11.39l31.665-4.461c-.867-1.011-1.244-2.608-.845-4.087zm-14.115 2.813c-.179.538-.738.825-1.252.638-.52-.189-.793-.789-.605-1.335.186-.543.755-.82 1.267-.622.506.195.769.784.59 1.319zm4.302-.363c-.161.512-.669.784-1.139.604-.474-.183-.725-.756-.557-1.275.167-.518.684-.78 1.151-.59.463.187.706.75.545 1.261zm4.289-.183c-.144.488-.604.746-1.031.572-.431-.175-.661-.72-.51-1.215.149-.492.617-.741 1.041-.56.421.181.644.718.5 1.203zm3.572-.31c-.13.467-.552.712-.944.545-.396-.169-.609-.692-.473-1.165.135-.472.563-.709.954-.533.387.174.593.689.463 1.153zm5.254-2.373c-.758-.371-1.589.112-1.846 1.093-.26.989.17 2.081.949 2.425.764.337 1.568-.181 1.807-1.143.237-.954-.166-2.011-.91-2.375z"></path><path fill="#34A853" d="m64.065 37.298-1.991-.253s-.337-.89-.809-.894c-.063-.001-.553-.021-1.365-.057.694.982.983 2.392.665 3.709-.08.329-.193.63-.332.903l1.365-.192.756-.944 1.832-.455c.355-.026.613-.451.58-.948-.034-.498-.346-.887-.701-.869z"></path><path fill="#1E853A" d="M20.646 40.415c-.215-6.641-1.867-12.073-3.767-12.173-1.99-.104-3.504 5.632-3.292 12.857.213 7.271 2.075 12.78 4.069 12.283 1.903-.474 3.206-6.286 2.99-12.967z"></path><path fill="#FABB05" d="M27.312 40.291c-.152-3.588-1.211-6.491-2.393-6.495-.246-.001-.477.128-.689.357.938.813 1.691 3.326 1.816 6.311.121 2.9-.383 5.454-1.206 6.476.206.151.417.221.633.189 1.181-.175 1.991-3.239 1.839-6.838z"></path><path fill="#FABB05" d="m26.772 49.668-.429-3.402c-.03-.24-.266-.397-.528-.351-.264.046-.454.281-.423.524l.43 3.401c-.381.205-.628.536-.588.848.053.416.592.629 1.196.479.594-.148 1.028-.594.977-.997-.035-.274-.292-.451-.635-.502z"></path></g></switch></svg>