<svg version="1.1" xmlns="http://www.w3.org/2000/svg" xmlns:xlink="http://www.w3.org/1999/xlink" xml:space="preserve" viewBox="13.98 0.99 51.03 78"> <ellipse fill-rule="evenodd" clip-rule="evenodd" fill="#E55454" cx="28.849" cy="6.36" rx="5.303" ry="5.372"></ellipse> <path fill-rule="evenodd" clip-rule="evenodd" fill="#666666" d="M63.768,40.198c-9.227,22.02-23.614,0-23.614,0 c3.753,18.217-6.88,18.217-6.88,18.217s-0.092,0.019-0.245,0.052V17.343c0-1.277-1.021-2.313-2.282-2.313h-3.804 c-1.26,0-2.282,1.035-2.282,2.313v59.331c0,1.276,1.021,2.312,2.282,2.312h3.804c1.26,0,2.282-1.035,2.282-2.312V60.945 c0.084,0.001,0.158,0.004,0.245,0.005c30.102,0.412,31.589-21.386,31.589-21.386L63.768,40.198z M54.145,47.763 c1.668,0,3.02-2.184,3.02-4.876s-1.352-4.876-3.02-4.876c-1.667,0-3.019,2.184-3.019,4.876S52.478,47.763,54.145,47.763z"></path> <path fill-rule="evenodd" clip-rule="evenodd" fill="#0273C2" d="M54.621,20.758c2.725-1.266,5.245-2.059,7.439-2.25 c0,0,0.815-1.487-0.816-1.487c-0.52,0-3.677,0.894-8.288,2.979c-9.071-3.668-19.945-1.161-19.945-1.161v3.471 c6.663-1.607,11.89-1.487,16-0.397c-9.948,5.143-23.945,14.784-34.277,30.974c-3.917,10.909,8.649,9.587,9.792,8.43 c0,0,1.342-0.796,0.653-1.157c0,0-12.239-1.487-0.163-15.205c8.11-9.213,17.764-17.6,26.099-22.37 c10.909,4.156,12.578,15.592,12.578,15.592l0.326,2.976l0.98,0.496C65.314,29.836,60.555,23.773,54.621,20.758z"></path> </svg>