<svg id="Layer_1" viewBox="0 0 512 512" xmlns="http://www.w3.org/2000/svg" data-name="Layer 1"><path d="m277.002 430.747c0 13.475-11.025 24.5-24.5 24.5h-216.999c-13.475 0-24.5-11.025-24.5-24.5v-165.666c0-13.475 11.025-24.5 24.5-24.5h216.999c13.475 0 24.5 11.025 24.5 24.5v41.538l-31.161 31.161h31.161z" fill="#6cbfff" fill-rule="evenodd"/><rect fill="#85caff" height="214.666" rx="24.5" width="247.249" x="11.003" y="240.581"/><path d="m144.002 146.054c-27.526 0-50.188 22.663-50.188 50.189v44.339h-39.411v-44.339c0-49.28 40.32-89.6 89.599-89.6s89.599 40.319 89.599 89.6v44.339h-39.411v-44.339c0-27.526-22.662-50.189-50.188-50.189z" fill="#d1d1d6" fill-rule="evenodd"/><path d="m144.002 146.054c-1.644 0-3.269.083-4.875.241-1.605-.158-3.231-.241-4.875-.241-27.526 0-50.188 22.663-50.188 50.189v44.339h-29.661v-44.339c0-47.645 37.689-86.91 84.724-89.465 47.036 2.554 84.724 41.82 84.724 89.465v44.339h-29.661v-44.339c0-27.526-22.662-50.189-50.188-50.189z" fill="#dddee2" fill-rule="evenodd"/><rect fill="#90ef90" height="91.506" rx="45.753" width="305.001" x="196.002" y="409.494"/><g fill-rule="evenodd"><path d="m241.755 409.494h213.495c11.938 0 22.844 4.636 31.013 12.193 5.49 7.547 8.74 16.817 8.74 26.81 0 25.164-20.588 45.753-45.753 45.753h-213.495c-11.938 0-22.844-4.636-31.013-12.193-5.49-7.547-8.74-16.816-8.74-26.809 0-25.165 20.588-45.753 45.753-45.753z" fill="#adffad"/><path d="m300.581 11h176.842c12.968 0 23.579 10.611 23.579 23.579v150.731c0 12.968-10.611 23.579-23.579 23.579h-103.392l-49.381 46.046v-46.046h-24.07c-12.968 0-23.579-10.611-23.579-23.579v-150.73c0-12.968 10.61-23.579 23.579-23.579z" fill="#ffe259"/><path d="m300.581 11h163.342c12.968 0 23.579 10.611 23.579 23.579v150.731c0 12.968-10.611 23.579-23.579 23.579h-103.392l-35.881 33.457v-33.457h-24.07c-12.968 0-23.579-10.611-23.579-23.579v-150.73c0-12.968 10.61-23.579 23.579-23.579z" fill="#ffeb87"/><path d="m134.252 291.477c16.108 0 29.166 13.058 29.166 29.167 0 11.218-6.334 20.954-15.62 25.834v44.329c0 7.45-6.096 13.546-13.546 13.546-7.45 0-13.546-6.096-13.546-13.546v-44.329c-9.285-4.88-15.62-14.616-15.62-25.834 0-16.108 13.058-29.167 29.167-29.167z" fill="#4eb1fc"/><path d="m144.002 291.477c16.108 0 29.166 13.058 29.166 29.167 0 11.218-6.334 20.954-15.62 25.834v44.329c0 7.45-6.096 13.546-13.546 13.546-7.45 0-13.546-6.096-13.546-13.546v-44.329c-9.285-4.88-15.62-14.616-15.62-25.834 0-16.108 13.058-29.167 29.166-29.167z" fill="#fff"/><path d="m349.117 94.572.126 75.65c11.699.709 16.773 3.875 26.867 5.713 15.095 2.749 57.72 3.501 68.559-7.338 8.071-8.412 15.723-52.137 14.12-62.898-1.754-11.771-2.851-18.088-32.241-17.347h-12.914c1.83-14.207 7.962-61.92-21.659-58.59-2.434.274-4.213 2.44-4.007 4.881 2.996 35.578-3.972 54.692-38.85 59.93z" fill="#d9c5bf"/><path d="m349.117 94.572.126 75.65c11.699.709 16.773 3.875 26.867 5.713 4.344.791 10.968 1.416 18.458 1.648 15.556-.492 31.536-2.929 37.593-8.985 8.071-8.412 15.723-52.137 14.12-62.898-1.569-10.53-2.616-16.695-23.858-17.347h-21.296c1.588-12.331 6.412-49.893-11.706-57.426-.998.917-1.574 2.269-1.452 3.717 2.996 35.578-3.972 54.692-38.85 59.93z" fill="#e6d6d1"/><path d="m349.242 95.804c0-3.365-2.753-6.118-6.118-6.118h-18.004c-3.365 0-6.118 2.753-6.118 6.118v74.418c0 3.365 2.753 6.118 6.118 6.118h18.004c3.365 0 6.118-2.753 6.118-6.118z" fill="#6cbfff"/></g><rect fill="#85caff" height="86.654" rx="6.118" width="20.3" x="319.002" y="89.686"/><path d="m447.672 136.509c-3.341 16.325-6.952 24.835-8.601 26.648-7.169 6.948-44.068 8.264-61.569 5.077-3.529-.641-6.378-1.466-9.411-2.343-3.332-.964-6.75-1.948-10.949-2.652v-62.076c15.621-3.529 26.291-10.515 32.501-21.234 5.781-9.975 7.839-23.162 6.567-42.443 2.82.294 4.339 1.466 5.303 2.44 4.166 4.238 8.288 15.901 4.238 47.365-.289 2.28.41 4.58 1.929 6.306 1.523 1.726 3.703 2.715 6.003 2.715h13.148c14.503-.371 19.811 1.162 21.711 2.517 1.249.877 1.702 2.69 2.493 8.052.559 3.731-.554 15.838-3.36 29.627zm-106.529 32.004h-14.31v-70.865h14.31zm116.668-82.73c-6.041-4.286-15.1-5.868-31.281-5.468h-3.891c1.731-18.389 1.461-40.244-9.73-51.613-3.847-3.91-10.761-8.312-21.831-7.068-6.788.762-11.668 6.697-11.099 13.515 2.792 33.032-3.606 45.688-27.058 50.581-2.55-2.522-6.051-4.079-9.913-4.079h-18.046c-7.791 0-14.132 6.34-14.132 14.132v74.597c0 7.796 6.34 14.132 14.132 14.132h18.046c4.551 0 8.601-2.175 11.191-5.535 3.442.559 6.311 1.379 9.45 2.29 3.12.897 6.663 1.924 10.993 2.71 4.648.848 15.009 1.837 26.797 1.837 18.292 0 39.989-2.386 49.01-11.407.043-.039.082-.077.12-.116 10.819-11.282 17.95-58.643 16.291-69.766-.959-6.456-2.049-13.775-9.05-18.741zm35.187 99.528v-150.731c0-8.592-6.986-15.583-15.578-15.583h-176.849c-8.591 0-15.583 6.991-15.583 15.583v150.731c0 8.587 6.991 15.578 15.583 15.578h24.069c4.421 0 8.003 3.577 8.003 7.998v27.651l35.929-33.499c1.48-1.384 3.428-2.15 5.448-2.15h103.4c8.592 0 15.578-6.991 15.578-15.578zm-15.578-182.312h-176.849c-17.41 0-31.58 14.165-31.58 31.58v150.731c0 17.41 14.17 31.575 31.58 31.575h16.07v38.046c0 3.187 1.89 6.065 4.812 7.338 1.027.448 2.117.665 3.187.665 1.991 0 3.949-.742 5.463-2.15l47.066-43.899h100.251c17.41 0 31.58-14.165 31.58-31.575v-150.73c0-17.415-14.17-31.58-31.58-31.58zm15.578 328.545h-18.948l18.948-18.948zm-41.575 0h-19.874l21.802-21.807h19.869l-21.798 21.807zm-42.501 0h-19.874l21.802-21.807h19.869l-21.798 21.807zm-42.501 0h-19.874l21.802-21.807h19.869l-21.798 21.807zm-42.501 0h-19.869l21.798-21.807h19.874l-21.802 21.807zm-42.501 0h-19.869l21.798-21.807h19.869zm-55.827-98.964h-23.413v-36.339c0-32.087-26.098-58.189-58.189-58.189s-58.18 26.103-58.18 58.189v36.339h-23.422v-36.339c0-44.993 36.614-81.597 81.602-81.597s81.602 36.604 81.602 81.597zm-39.415 0v-36.339c0-23.263-18.919-42.192-42.187-42.192s-42.182 18.929-42.182 42.192v36.339zm314.823 61.159h-216.013v-28.659c0-17.921-14.575-32.501-32.496-32.501h-10.901v-36.339c0-53.816-43.783-97.6-97.599-97.6s-97.6 43.783-97.6 97.6v36.339h-10.891c-17.931 0-32.501 14.58-32.501 32.501v165.663c0 17.921 14.57 32.501 32.501 32.501h133.49c4.421 0 7.999-3.582 7.999-7.999s-3.577-8.003-7.999-8.003h-133.49c-9.098 0-16.499-7.401-16.499-16.499v-165.663c0-9.103 7.401-16.504 16.499-16.504h216.992c9.098 0 16.499 7.401 16.499 16.504v28.659h-52.751c-4.421 0-7.999 3.582-7.999 7.999s3.578 7.999 7.999 7.999h44.478l-21.798 21.807h-22.68c-4.421 0-7.999 3.577-7.999 7.998s3.578 7.999 7.999 7.999h52.751v38.325c0 4.421 3.592 7.999 7.998 7.999s7.999-3.578 7.999-7.999v-38.325h216.013c4.412 0 7.999-3.582 7.999-7.999v-37.804c0-4.416-3.587-7.999-7.999-7.999zm-97.498 158.61-5.014 2.897 5.014 2.898c3.828 2.208 5.139 7.102 2.926 10.925-2.208 3.828-7.097 5.139-10.93 2.926l-5.009-2.893v5.79c0 4.421-3.587 7.999-7.999 7.999s-8.003-3.578-8.003-7.999v-5.79l-5.019 2.893c-3.828 2.213-8.717.897-10.925-2.926-2.213-3.823-.902-8.717 2.926-10.925l5.019-2.898-5.019-2.897c-3.828-2.208-5.139-7.102-2.926-10.925 2.208-3.828 7.097-5.139 10.925-2.931l5.019 2.898v-5.795c0-4.416 3.582-7.998 8.003-7.998s7.999 3.582 7.999 7.998v5.795l5.009-2.898c3.833-2.208 8.722-.897 10.93 2.931 2.213 3.823.902 8.717-2.926 10.925zm67.986 0-5.019 2.897 5.019 2.898c3.819 2.208 5.13 7.102 2.922 10.925-2.203 3.828-7.102 5.139-10.92 2.926l-5.019-2.893v5.79c0 4.421-3.582 7.999-8.004 7.999s-7.999-3.578-7.999-7.999v-5.79l-5.019 2.893c-3.819 2.213-8.722.897-10.92-2.926-2.213-3.823-.902-8.717 2.922-10.925l5.019-2.898-5.019-2.897c-3.823-2.208-5.135-7.102-2.922-10.925 2.198-3.828 7.102-5.139 10.92-2.931l5.019 2.898v-5.795c0-4.416 3.582-7.998 7.999-7.998s8.004 3.582 8.004 7.998v5.795l5.019-2.898c3.828-2.208 8.717-.897 10.92 2.931 2.208 3.823.897 8.717-2.922 10.925zm-203.95 0-5.019 2.897 5.019 2.898c3.819 2.208 5.13 7.102 2.922 10.925-2.208 3.828-7.102 5.139-10.92 2.926l-5.019-2.893v5.79c0 4.421-3.582 7.999-7.998 7.999s-8.004-3.578-8.004-7.999v-5.79l-5.019 2.893c-3.828 2.213-8.717.897-10.93-2.926-2.208-3.823-.887-8.717 2.931-10.925l5.019-2.898-5.019-2.897c-3.818-2.208-5.139-7.102-2.931-10.925 2.213-3.828 7.112-5.139 10.93-2.931l5.019 2.898v-5.795c0-4.416 3.582-7.998 8.004-7.998s7.998 3.582 7.998 7.998v5.795l5.019-2.898c3.819-2.208 8.712-.897 10.92 2.931 2.208 3.823.897 8.717-2.922 10.925zm67.982 0-5.019 2.897 5.019 2.898c3.828 2.208 5.14 7.102 2.932 10.925-2.213 3.828-7.111 5.139-10.93 2.926l-5.019-2.893v5.79c0 4.421-3.582 7.999-8.004 7.999s-7.999-3.578-7.999-7.999v-5.79l-5.009 2.893c-3.833 2.213-8.722.897-10.93-2.926-2.213-3.823-.902-8.717 2.927-10.925l5.009-2.898-5.009-2.897c-3.828-2.208-5.14-7.102-2.927-10.925 2.208-3.828 7.097-5.139 10.93-2.931l5.009 2.898v-5.795c0-4.416 3.578-7.998 7.999-7.998s8.004 3.582 8.004 7.998v5.795l5.019-2.898c3.828-2.208 8.717-.897 10.93 2.931 2.208 3.823.897 8.717-2.932 10.925zm119.72 40.649h-213.492c-20.819 0-37.761-16.938-37.761-37.752s16.942-37.756 37.761-37.756h213.492c20.819 0 37.756 16.938 37.756 37.756s-16.938 37.752-37.756 37.752zm0-91.505c29.637 0 53.758 24.112 53.758 53.754s-24.121 53.754-53.758 53.754h-213.492c-29.642 0-53.759-24.117-53.759-53.754s24.117-53.754 53.759-53.754zm-311.25-102.016c11.682 0 21.171 9.494 21.171 21.161 0 7.892-4.339 15.076-11.34 18.755-2.632 1.384-4.281 4.108-4.281 7.083v44.328c0 3.057-2.488 5.545-5.549 5.545s-5.54-2.488-5.54-5.545v-44.328c0-2.975-1.649-5.699-4.281-7.083-7.001-3.679-11.34-10.863-11.34-18.755 0-11.668 9.488-21.161 21.161-21.161zm0 112.874c-11.88 0-21.542-9.667-21.542-21.547v-39.873c-9.739-6.918-15.621-18.128-15.621-30.293 0-20.491 16.672-37.163 37.163-37.163s37.168 16.672 37.168 37.163c0 12.164-5.877 23.374-15.621 30.293v39.873c0 11.88-9.667 21.547-21.547 21.547z" fill-rule="evenodd"/></svg>