<svg version="1.1" id="svg2682" xmlns="http://www.w3.org/2000/svg" xmlns:svg="http://www.w3.org/2000/svg" viewBox="3.33 3.33 676 676">   <defs id="defs2686">     <clipPath clipPathUnits="userSpaceOnUse" id="clipPath2696">       <path d="M 0,512 H 512 V 0 H 0 Z" id="path2694"></path>     </clipPath>   </defs>   <g id="g2688" transform="matrix(1.3333333,0,0,-1.3333333,0,682.66667)">     <g id="g2690">       <g id="g2692" clip-path="url(#clipPath2696)">         <g id="g2698" transform="translate(482,62)">           <path d="m 0,0 h -452 c -11.046,0 -20,8.954 -20,20 v 400 c 0,11.046 8.954,20 20,20 H 0 c 11.046,0 20,-8.954 20,-20 V 20 C 20,8.954 11.046,0 0,0" style="fill:#f9f9f9;fill-opacity:1;fill-rule:nonzero;stroke:none" id="path2700"></path>         </g>         <g id="g2702" transform="translate(482,502)">           <path d="m 0,0 h -452 c -11.046,0 -20,-8.954 -20,-20 V -80 H 20 v 60 C 20,-8.954 11.046,0 0,0" style="fill:#ffffff;fill-opacity:1;fill-rule:nonzero;stroke:none" id="path2704"></path>         </g>         <g id="g2706" transform="translate(502,422)">           <path d="m 0,0 h -492 v 60 c 0,11.046 8.954,20 20,20 H -20 C -8.954,80 0,71.046 0,60 Z" style="fill:#91def5;fill-opacity:1;fill-rule:nonzero;stroke:none" id="path2708"></path>         </g>         <g id="g2710" transform="translate(502,197.0001)">           <path d="m 0,0 v -115 c 0,-11.046 -8.954,-20 -20,-20 h -44.758" style="fill:none;stroke:#000000;stroke-width:20;stroke-linecap:round;stroke-linejoin:round;stroke-miterlimit:10;stroke-dasharray:none;stroke-opacity:1" id="path2712"></path>         </g>         <g id="g2714" transform="translate(230.7595,62)">           <path d="m 0,0 h -200.759 c -11.046,0 -20,8.954 -20,20 v 400 c 0,11.046 8.954,20 20,20 h 452 c 11.045,0 20,-8.954 20,-20 V 225" style="fill:none;stroke:#000000;stroke-width:20;stroke-linecap:round;stroke-linejoin:round;stroke-miterlimit:10;stroke-dasharray:none;stroke-opacity:1" id="path2716"></path>         </g>         <g id="g2718" transform="translate(448.0001,462)">           <path d="M 0,0 H -216" style="fill:none;stroke:#000000;stroke-width:20;stroke-linecap:round;stroke-linejoin:round;stroke-miterlimit:10;stroke-dasharray:none;stroke-opacity:1" id="path2720"></path>         </g>         <g id="g2722" transform="translate(108,462)">           <path d="M 0,0 V 0" style="fill:none;stroke:#000000;stroke-width:20;stroke-linecap:round;stroke-linejoin:round;stroke-miterlimit:10;stroke-dasharray:none;stroke-opacity:1" id="path2724"></path>         </g>         <g id="g2726" transform="translate(64,462)">           <path d="M 0,0 V 0" style="fill:none;stroke:#000000;stroke-width:20;stroke-linecap:round;stroke-linejoin:round;stroke-miterlimit:10;stroke-dasharray:none;stroke-opacity:1" id="path2728"></path>         </g>         <g id="g2730" transform="translate(152,462)">           <path d="M 0,0 V 0" style="fill:none;stroke:#000000;stroke-width:20;stroke-linecap:round;stroke-linejoin:round;stroke-miterlimit:10;stroke-dasharray:none;stroke-opacity:1" id="path2732"></path>         </g>         <g id="g2734" transform="translate(12.998,422)">           <path d="M 0,0 H 486.004" style="fill:none;stroke:#000000;stroke-width:20;stroke-linecap:round;stroke-linejoin:round;stroke-miterlimit:10;stroke-dasharray:none;stroke-opacity:1" id="path2736"></path>         </g>         <g id="g2738" transform="translate(12.998,422)">           <path d="M 0,0 H 486.004" style="fill:#231f20;fill-opacity:1;fill-rule:nonzero;stroke:none" id="path2740"></path>         </g>         <g id="g2742" transform="translate(389.1693,134)">           <path d="m 0,0 c 0,30.469 -24.7,55.169 -55.169,55.169 -30.47,0 -55.17,-24.7 -55.17,-55.169 0,-30.469 24.7,-55.169 55.17,-55.169 C -24.7,-55.169 0,-30.469 0,0" style="fill:#ffffff;fill-opacity:1;fill-rule:nonzero;stroke:none" id="path2744"></path>         </g>         <g id="g2746" transform="translate(458,112)">           <path d="m 0,0 v 44 h -21.317 c -2.704,12.681 -7.695,24.514 -14.524,35.046 l 15.079,15.079 -31.113,31.113 -15.079,-15.079 c -10.532,6.829 -22.365,11.82 -35.046,14.524 V 146 h -44 v -21.317 c -12.681,-2.704 -24.514,-7.695 -35.046,-14.524 l -15.079,15.079 -31.113,-31.113 15.079,-15.079 C -218.988,68.514 -223.979,56.681 -226.683,44 H -248 V 0 h 21.317 c 2.704,-12.681 7.695,-24.514 14.524,-35.046 l -15.079,-15.079 31.113,-31.113 15.079,15.079 c 10.532,-6.829 22.365,-11.82 35.046,-14.524 V -102 h 44 v 21.317 c 12.681,2.704 24.514,7.695 35.046,14.524 l 15.079,-15.079 31.113,31.113 -15.079,15.079 c 6.829,10.532 11.82,22.365 14.524,35.046 z" style="fill:#79b2ff;fill-opacity:1;fill-rule:nonzero;stroke:none" id="path2748"></path>         </g>         <g id="g2750" transform="translate(389.1693,134)">           <path d="m 0,0 c 0,30.469 -24.7,55.169 -55.169,55.169 -30.47,0 -55.17,-24.7 -55.17,-55.169 0,-30.469 24.7,-55.169 55.17,-55.169 C -24.7,-55.169 0,-30.469 0,0" style="fill:#ffffff;fill-opacity:1;fill-rule:nonzero;stroke:none" id="path2752"></path>         </g>         <g id="g2754" transform="translate(389.1693,134)">           <path d="m 0,0 c 0,30.469 -24.7,55.169 -55.169,55.169 -30.47,0 -55.17,-24.7 -55.17,-55.169 0,-30.469 24.7,-55.169 55.17,-55.169 C -24.7,-55.169 0,-30.469 0,0 Z" style="fill:none;stroke:#000000;stroke-width:20;stroke-linecap:round;stroke-linejoin:round;stroke-miterlimit:10;stroke-dasharray:none;stroke-opacity:1" id="path2756"></path>         </g>         <g id="g2758" transform="translate(458,112)">           <path d="m 0,0 v 44 h -21.317 c -2.704,12.681 -7.695,24.514 -14.524,35.046 l 15.079,15.079 -31.113,31.113 -15.079,-15.079 c -10.532,6.829 -22.365,11.82 -35.046,14.524 V 146 h -44 v -21.317 c -12.681,-2.704 -24.514,-7.695 -35.046,-14.524 l -15.079,15.079 -31.113,-31.113 15.079,-15.079 C -218.988,68.514 -223.979,56.681 -226.683,44 H -248 V 0 h 21.317 c 2.704,-12.681 7.695,-24.514 14.524,-35.046 l -15.079,-15.079 31.113,-31.113 15.079,15.079 c 10.532,-6.829 22.365,-11.82 35.046,-14.524 V -102 h 44 v 21.317 c 12.681,2.704 24.514,7.695 35.046,14.524 l 15.079,-15.079 31.113,31.113 -15.079,15.079 c 6.829,10.532 11.82,22.365 14.524,35.046 z" style="fill:none;stroke:#000000;stroke-width:20;stroke-linecap:round;stroke-linejoin:round;stroke-miterlimit:10;stroke-dasharray:none;stroke-opacity:1" id="path2760"></path>         </g>         <g id="g2762" transform="translate(288.464,351.9828)">           <path d="M 0,0 H 23.798" style="fill:none;stroke:#000000;stroke-width:20;stroke-linecap:round;stroke-linejoin:round;stroke-miterlimit:10;stroke-dasharray:none;stroke-opacity:1" id="path2764"></path>         </g>         <g id="g2766" transform="translate(361.5,351.9829)">           <path d="M 0,0 H 86.5" style="fill:none;stroke:#000000;stroke-width:20;stroke-linecap:round;stroke-linejoin:round;stroke-miterlimit:10;stroke-dasharray:none;stroke-opacity:1" id="path2768"></path>         </g>         <g id="g2770" transform="translate(288.464,303.985)">           <path d="M 0,0 H 101.633" style="fill:none;stroke:#000000;stroke-width:20;stroke-linecap:round;stroke-linejoin:round;stroke-miterlimit:10;stroke-dasharray:none;stroke-opacity:1" id="path2772"></path>         </g>         <g id="g2774" transform="translate(431.2818,303.9851)">           <path d="M 0,0 H 16.718" style="fill:none;stroke:#000000;stroke-width:20;stroke-linecap:round;stroke-linejoin:round;stroke-miterlimit:10;stroke-dasharray:none;stroke-opacity:1" id="path2776"></path>         </g>         <g id="g2778" transform="translate(203.1904,297.875)">           <path d="M 0,0 C 0,4.554 -0.446,9.002 -1.289,13.309 L 14.997,22.712 -7.276,61.288 -23.571,51.88 c -6.671,5.832 -14.476,10.398 -23.043,13.324 V 84 H -91.158 V 65.204 c -8.566,-2.926 -16.371,-7.492 -23.043,-13.324 l -16.295,9.408 -22.272,-38.576 16.286,-9.403 c -0.843,-4.307 -1.29,-8.755 -1.29,-13.309 0,-4.554 0.447,-9.002 1.29,-13.309 l -16.286,-9.403 22.272,-38.576 16.295,9.408 c 6.672,-5.832 14.477,-10.398 23.043,-13.324 V -84 h 44.544 v 18.796 c 8.567,2.926 16.372,7.492 23.043,13.324 l 16.295,-9.408 22.273,38.576 -16.286,9.403 C -0.446,-9.002 0,-4.554 0,0" style="fill:#ffcb7c;fill-opacity:1;fill-rule:nonzero;stroke:none" id="path2780"></path>         </g>         <g id="g2782" transform="translate(158.3045,297.875)">           <path d="m 0,0 c 0,13.255 -10.745,24 -24,24 -13.255,0 -24,-10.745 -24,-24 0,-13.255 10.745,-24 24,-24 13.255,0 24,10.745 24,24" style="fill:#ffffff;fill-opacity:1;fill-rule:nonzero;stroke:none" id="path2784"></path>         </g>         <g id="g2786" transform="translate(64.0422,155.9998)">           <path d="M 0,0 H -0.042" style="fill:none;stroke:#000000;stroke-width:20;stroke-linecap:round;stroke-linejoin:round;stroke-miterlimit:10;stroke-dasharray:none;stroke-opacity:1" id="path2788"></path>         </g>         <g id="g2790" transform="translate(109.047,155.9999)">           <path d="M 0,0 H 49.258" style="fill:none;stroke:#000000;stroke-width:20;stroke-linecap:round;stroke-linejoin:round;stroke-miterlimit:10;stroke-dasharray:none;stroke-opacity:1" id="path2792"></path>         </g>         <g id="g2794" transform="translate(64,108)">           <path d="M 0,0 H 59.667" style="fill:none;stroke:#000000;stroke-width:20;stroke-linecap:round;stroke-linejoin:round;stroke-miterlimit:10;stroke-dasharray:none;stroke-opacity:1" id="path2796"></path>         </g>         <g id="g2798" transform="translate(203.1904,297.875)">           <path d="M 0,0 C 0,4.554 -0.446,9.002 -1.289,13.309 L 14.997,22.712 -7.276,61.288 -23.571,51.88 c -6.671,5.832 -14.476,10.398 -23.043,13.324 V 84 H -91.158 V 65.204 c -8.566,-2.926 -16.371,-7.492 -23.043,-13.324 l -16.295,9.408 -22.272,-38.576 16.286,-9.403 c -0.843,-4.307 -1.29,-8.755 -1.29,-13.309 0,-4.554 0.447,-9.002 1.29,-13.309 l -16.286,-9.403 22.272,-38.576 16.295,9.408 c 6.672,-5.832 14.477,-10.398 23.043,-13.324 V -84 h 44.544 v 18.796 c 8.567,2.926 16.372,7.492 23.043,13.324 l 16.295,-9.408 22.273,38.576 -16.286,9.403 C -0.446,-9.002 0,-4.554 0,0 Z" style="fill:none;stroke:#000000;stroke-width:20;stroke-linecap:round;stroke-linejoin:round;stroke-miterlimit:10;stroke-dasharray:none;stroke-opacity:1" id="path2800"></path>         </g>         <g id="g2802" transform="translate(158.3045,297.875)">           <path d="m 0,0 c 0,13.255 -10.745,24 -24,24 -13.255,0 -24,-10.745 -24,-24 0,-13.255 10.745,-24 24,-24 13.255,0 24,10.745 24,24 z" style="fill:none;stroke:#000000;stroke-width:20;stroke-linecap:round;stroke-linejoin:round;stroke-miterlimit:10;stroke-dasharray:none;stroke-opacity:1" id="path2804"></path>         </g>         <g id="g2806" transform="translate(502,242)">           <path d="M 0,0 V 0" style="fill:none;stroke:#000000;stroke-width:20;stroke-linecap:round;stroke-linejoin:round;stroke-miterlimit:10;stroke-dasharray:none;stroke-opacity:1" id="path2808"></path>         </g>       </g>     </g>   </g> </svg>