<svg xmlns="http://www.w3.org/2000/svg" viewBox="0.01 0 283.17 64.01"><path fill="#333" fill-rule="evenodd" d="M279.028 46V34.047q0-2.25-.905-3.358-.906-1.107-2.874-1.107-2.62 0-3.832 1.547-1.213 1.547-1.213 5.185V46h-4.131V26.559h3.235l.58 2.548h.211q.877-1.388 2.496-2.144 1.617-.756 3.586-.756 6.996 0 6.996 7.119V46zm-23.515-25.699h4.201V46h-4.201zm-8.454 26.209q-1.265 0-1.933-.721-.668-.72-.668-1.986 0-1.284.668-1.969.668-.686 1.933-.686 1.284 0 1.952.712.668.713.668 1.943 0 1.248-.677 1.977t-1.943.73M233.437 46l-6.241-8.525-2.267 1.863V46h-4.096V18.648h4.096V31.99l-.211 3.744h.105l2.338-2.918 5.871-6.257h4.764l-7.822 8.349L238.288 46zm-22.649-11.953q0-2.25-.905-3.358-.906-1.107-2.874-1.107-2.62 0-3.832 1.547-1.213 1.547-1.213 5.185V46h-4.131V26.559h3.235l.58 2.548h.211q.877-1.388 2.496-2.144 1.617-.756 3.586-.756 6.996 0 6.996 7.119V46h-4.149zm-20.863-10.371q-1.125 0-1.732-.607-.606-.606-.606-1.661 0-1.107.606-1.705.607-.598 1.732-.598 1.09 0 1.696.598.607.598.607 1.705 0 1.055-.607 1.661t-1.696.607m-12.092-5.028h4.131V46h-4.131zm-12.139 27.704q-3.69 0-5.73-2.655h-.281L158.927 46h-3.094V18.648h4.131v6.504q0 .722-.07 2.145a58 58 0 0 1-.106 1.81h.176q1.968-2.9 5.801-2.9 3.638 0 5.669 2.637t2.03 7.4q0 4.782-2.057 7.444-2.056 2.664-5.713 2.664m-1.001-16.77q-2.497 0-3.595 1.468-1.1 1.467-1.134 4.913v.281q0 3.55 1.125 5.142 1.125 1.59 3.674 1.591 2.197 0 3.331-1.741 1.134-1.74 1.134-5.027 0-6.627-4.535-6.627m-25.237 11.98q1.441 1.52 4.061 1.52 1.722 0 3.208-.325 1.485-.325 3.19-1.081v3.357a12.7 12.7 0 0 1-3.058 1.02q-1.548.299-3.534.299-4.535 0-7.092-2.646-2.558-2.646-2.558-7.286 0-4.764 2.373-7.488t6.522-2.725q3.849 0 6.082 2.338t2.232 6.434v2.232h-12.955q.087 2.83 1.529 4.351m7.365-7.339q-.035-2.409-1.16-3.648t-3.093-1.239q-1.97 0-3.156 1.248t-1.415 3.639zM120.415 46l-4.359-15.328a58 58 0 0 1-.703-2.892q-.423-1.889-.51-2.628-.176 1.125-.571 2.918-.396 1.793-.66 2.672L109.359 46h-4.571l-3.322-12.867-3.375-12.832h4.289l3.674 14.976q.861 3.604 1.23 6.364.193-1.495.58-3.34.387-1.846.704-2.989l4.183-15.011h4.166l4.289 15.082q.615 2.092 1.301 6.258.264-2.514 1.266-6.399l3.656-14.941h4.254L124.985 46zm71.549 0h-4.131V26.559h4.131z"></path><path fill="#eb121d" fill-rule="evenodd" d="M58.096 36.105c2.369-.988 4.8-1.581 7.4-1.409.84.056 1.006.184.584.966-2.73 5.052-5.432 10.12-8.136 15.186-2.188 4.097-4.366 8.2-6.549 12.3-.091.171-.191.337-.289.504-.229.393-.388.549-.697.005-3.992-7-7.902-14.052-12.411-20.739-2.124-3.15-4.77-5.825-7.648-8.278a2 2 0 0 0-.965-.452c-.004.596.463.89.714 1.297 2.674 4.34 5.187 8.771 7.45 13.343.252.509.278.92.044 1.449-1.721 3.893-3.41 7.801-5.109 11.704-.064.148-.12.304-.414.324l-.732-2.625c-2.548-9.128-7.133-17.245-12.315-25.064-2.551-3.849-5.327-7.522-8.494-10.887-.15-.159-.405-.31-.267-.556.131-.232.415-.126.618-.084 1.727.356 3.451.725 5.175 1.096 1.7.366 3.418.561 5.203.444-1.143-.399-2.266-.877-3.433-1.184-7.247-1.907-12.754-6.334-17.382-12.05-.192-.237-.558-.478-.398-.812.142-.298.531-.159.792-.109 9.442 1.831 18.708 4.307 27.686 7.794 3.365 1.308 6.562 2.954 9.285 5.41 2.615 2.358 4.611 5.198 6.445 8.176 2.486 4.038 4.991 8.065 7.493 12.094.267.429.571.836.928 1.355.502-.845.996-1.545 1.182-2.408.107-.134.219.499.344-.01.076-.307.202-.613.363-.885 1.169-1.97 2.353-3.931 3.533-5.895"></path><path fill="#34a853" fill-rule="evenodd" d="M36.42 29.298c-6.751-4.498-11.168-4.166-18.595-5.853-7.247-1.907-12.754-6.334-17.382-12.05-.192-.237-.558-.478-.398-.812.142-.298.531-.159.792-.109 9.442 1.831 18.708 4.307 27.686 7.794 3.365 1.308 6.562 2.954 9.285 5.41 2.615 2.358 4.611 5.198 6.445 8.176 2.486 4.038 4.991 8.065 7.493 12.094.267.429.571.836.928 1.355-1.691-2.004-10.664-12.087-16.254-16.005"></path><path fill="#054698" fill-rule="evenodd" d="M82.165 18.984c-3.75 2.566-8.066 3.877-12.256 5.512 3.828.261 7.474-.754 11.322-1.617-2.386 2.309-4.505 4.652-7.266 6.27-3.133 1.838-6.497 3.045-10.016 3.856-1.251.288-2.488.616-3.662 1.149-.933.423-1.65 1.086-2.191 1.951-1.18 1.964-2.364 3.925-3.533 5.895a3.3 3.3 0 0 0-.363.885c-.125.509-.237-.124-.344.01l-3.377-7.778c-.161-.371-.221-.744-.018-1.118 1.624-3.899 3.076-6.096 4.899-8.982 2.376-3.759 5.793-6.235 9.836-7.917 5.016-2.086 10.265-3.416 15.484-4.84a234 234 0 0 1 11.315-2.805c-2.854 3.849-6.083 6.964-9.83 9.529m-35.861-.551c-5.124.007-9.199-4.126-9.17-9.301.028-5.134 4.018-9.14 9.099-9.136 5.091.005 9.141 4.142 9.145 9.344.004 4.992-4.081 9.086-9.074 9.093"></path></svg>