<svg version="1.1" xmlns="http://www.w3.org/2000/svg" xmlns:xlink="http://www.w3.org/1999/xlink" x="0px" y="0px" enable-background="new 0 0 53 50" xml:space="preserve" viewBox="0.71 2.04 52.05 49.76"> <path fill-rule="evenodd" clip-rule="evenodd" fill="#F92B2C" d="M26.74,8.06c-3.465,0-6.274,3.783-6.274,8.451 s6.423,17.184,6.274,17.184c-0.1,0,6.273-12.516,6.273-17.184S30.205,8.06,26.74,8.06z"></path> <path fill-rule="evenodd" clip-rule="evenodd" fill="#296FE1" d="M23.269,28.876l-5.292,7.318L8.408,4.068 c0,0-6.581-6.707-7.694,4.278l12.637,42.013c0,0,3.877,4.053,6.831-1.409l6.66-9.507L23.269,28.876z"></path> <path fill-rule="evenodd" clip-rule="evenodd" fill="#296FE1" d="M45.072,4.068l-9.569,32.126l-5.292-7.318l-3.572,10.567 l6.66,9.507c2.953,5.462,6.83,1.409,6.83,1.409L52.766,8.347C51.652-2.639,45.072,4.068,45.072,4.068z"></path></svg>