<svg xmlns="http://www.w3.org/2000/svg" width="512" height="512" viewBox="0 0 512.018 512.018"><path d="M452.009 0h-392c-33.084 0-60 26.916-60 60v192c0 33.084 26.916 60 60 60h20v-40h-20c-11.028 0-20-8.972-20-20 .058-205.132-.129-191.928.14-194.279l160.219 109.221.171.115c16.849 11.232 36.159 16.849 55.47 16.849s38.622-5.616 55.47-16.849l160.39-109.336c.268 2.351.082-10.454.14 194.279 0 11.028-8.972 20-20 20h-20v40h20c33.084 0 60-26.916 60-60V60c0-33.084-26.916-60-60-60zm-162.79 133.823c-20.186 13.417-46.234 13.417-66.42 0L85.167 40h341.684z" fill="#03cf65"/><path d="m210.151 337.858-28.284 28.284 54.142 54.142 94.142-94.142-28.284-28.284-65.858 65.858z" fill="#03cf65"/><path d="M116.009 257.585v67.924c0 83.644 53.72 157.748 133.675 184.4l6.325 2.108 6.325-2.108c79.955-26.652 133.675-100.756 133.675-184.4v-67.924l-140-46.667zm240 67.924c0 64.175-39.91 121.301-100 144.195-60.09-22.895-100-80.021-100-144.195v-39.094l100-33.333 100 33.333z"  fill="#03cf65" /></svg>