<svg xmlns="http://www.w3.org/2000/svg" width="512" height="512" fill="none"><path fill="#03cf65" stroke="#03cf65" stroke-width="2" d="M256.01 158.963a8.512 8.512 0 0 1 7.626 4.733l.001.001 21.356 43.288 47.78 6.925.001.001a8.498 8.498 0 0 1 4.705 14.495h-.001l-34.564 33.693 8.161 47.582.001.001a8.509 8.509 0 0 1-3.397 8.315l.001.001a8.455 8.455 0 0 1-8.946.646l-42.735-22.464-42.724 22.465a8.5 8.5 0 0 1-12.331-8.964l8.16-47.582-34.562-33.693a8.5 8.5 0 0 1 4.703-14.495l.001-.001 47.779-6.925 21.358-43.288.001-.001a8.513 8.513 0 0 1 7.626-4.733Zm-15.753 59.527a8.489 8.489 0 0 1-6.393 4.659h-.001l-35.154 5.109 25.438 24.786.002.002a8.521 8.521 0 0 1 2.437 7.522v.001l-5.999 35.003 31.436-16.527a8.516 8.516 0 0 1 7.933 0l31.436 16.526-5.997-35.002v-.001a8.512 8.512 0 0 1 2.435-7.522l.002-.002 25.438-24.786-35.154-5.109h-.001a8.485 8.485 0 0 1-6.392-4.658v-.001l-15.724-31.852-15.742 31.852Z"/><mask id="a" width="381" height="382" x="57.569" y="86.579" fill="#000" maskUnits="userSpaceOnUse"><path fill="#fff" d="M57.569 86.579h381v382h-381z"/><path d="M396.27 344.89c-10.47 3-25.91 7.66-41.62 12.48a5.43 5.43 0 0 1 .54-1.29l1.76-2.95a5.307 5.307 0 0 1 3.19-2.44c11.66-3.15 29.82-6.37 30-6.4l.42-.09a17.072 17.072 0 0 0 12.26-22.08l-10.74-31.88a2.102 2.102 0 0 1 .54-2.19L417.11 265a17.103 17.103 0 0 0 3.786-19.603 17.108 17.108 0 0 0-4.216-5.657l-25.24-22.24a2.095 2.095 0 0 1-.62-2.16l9.67-32.23a17.095 17.095 0 0 0-13-21.66l-33-6.63a2.1 2.1 0 0 1-1.62-1.57l-7.74-32.74a17.097 17.097 0 0 0-8.337-11.008 17.095 17.095 0 0 0-13.753-1.252L291.18 119a2.095 2.095 0 0 1-2.18-.54l-23.07-24.52a17.097 17.097 0 0 0-25.26.43l-22.24 25.24a2.088 2.088 0 0 1-2.17.62L184 110.57a17.08 17.08 0 0 0-21.66 13l-6.63 33a2.1 2.1 0 0 1-1.57 1.62l-32.74 7.74a17.095 17.095 0 0 0-13.042 15.075 17.08 17.08 0 0 0 .822 6.995l10.74 31.88a2.095 2.095 0 0 1-.54 2.19l-24.49 23.06a17.09 17.09 0 0 0 .43 25.25l25.24 22.24a2.115 2.115 0 0 1 .62 2.17c0 .15-.09.3-.12.45l-6.37 27.39a182.524 182.524 0 0 0-51.26 17.28 7.5 7.5 0 0 0 7.22 13.14c.4-.21 40-21.61 82.31-17.26 22.45 2.31 35.34 10.61 46.72 17.94 8.48 5.46 16.5 10.62 26.7 12.16 46.44 7 62.93 11.8 63 25a4.854 4.854 0 0 1-2.11 4.37c-2.94 2.22-13.35 6.81-46.61 1.56a351.418 351.418 0 0 1-36.9-8.05 7.5 7.5 0 0 0-4.13 14.42 360.482 360.482 0 0 0 38.54 8.42 187.415 187.415 0 0 0 28.91 2.64c13.37 0 23-2.34 29.23-7a19.74 19.74 0 0 0 8.07-16.38c0-.73 0-1.42-.09-2.11 16.82-5.3 71-22.28 96.13-29.46 12.63-3.61 19.25-.73 20.62 2.08 1.18 2.42-.3 7-6.34 11.44-8.85 6.43-43.68 25.75-81.42 44.25-43.17 21.15-75.07 33.8-85.33 33.83h-.54c-64.19 0-177.08-33.07-178.22-33.4a7.503 7.503 0 0 0-4.24 14.39c.29.08 29.38 8.64 66.17 17 49.28 11.27 88.4 17 116.28 17h.6c30.56-.09 157.19-67.62 175.53-81 11.35-8.25 15.77-20.37 11-30.14-4.35-8.75-16.66-16.04-38.26-9.86Zm-167.66 6.16c-7-1.05-13.11-5-20.81-9.93-12.16-7.83-27.29-17.58-53.31-20.25a135.171 135.171 0 0 0-23.93-.26l5.06-21.77a17.118 17.118 0 0 0-5.14-17.47l-25.25-22.24a2.087 2.087 0 0 1-.687-1.545c0-.291.061-.579.179-.846.119-.266.292-.504.508-.699L129.66 233a17.154 17.154 0 0 0 4.48-17.89l-10.75-31.91a2.084 2.084 0 0 1 1.5-2.7l32.74-7.74a17.131 17.131 0 0 0 12.82-13.26l6.63-33a2.112 2.112 0 0 1 .976-1.376 2.098 2.098 0 0 1 1.674-.214L212 134.6a17.139 17.139 0 0 0 17.73-5.07l22.23-25.25a1.997 1.997 0 0 1 1.54-.7 2.052 2.052 0 0 1 1.55.65l23.07 24.48a17.134 17.134 0 0 0 17.88 4.48l31.88-10.75a2.106 2.106 0 0 1 1.679.158 2.099 2.099 0 0 1 1.021 1.342l7.74 32.74a17.136 17.136 0 0 0 13.26 12.82l33 6.64a2.002 2.002 0 0 1 1.38 1 1.995 1.995 0 0 1 .21 1.67L376.45 211a17.139 17.139 0 0 0 5.07 17.73L406.77 251c.22.193.396.429.518.695.123.265.188.553.192.845a1.991 1.991 0 0 1-.66 1.55l-24.48 23.07a17.161 17.161 0 0 0-4.48 17.9l10.75 31.88a2.072 2.072 0 0 1-.15 1.68 2.1 2.1 0 0 1-1.22 1c-2.5.45-19.39 3.5-31 6.64a20.283 20.283 0 0 0-12.16 9.24l-1.75 2.94a20.542 20.542 0 0 0-2.79 12.56c0 .36.07.7.11 1-17.26 5.35-32.94 10.27-40.41 12.62-10.89-14.62-38.12-18.68-70.63-23.57Z"/></mask><path fill="#03cf65" d="M396.27 344.89c-10.47 3-25.91 7.66-41.62 12.48a5.43 5.43 0 0 1 .54-1.29l1.76-2.95a5.307 5.307 0 0 1 3.19-2.44c11.66-3.15 29.82-6.37 30-6.4l.42-.09a17.072 17.072 0 0 0 12.26-22.08l-10.74-31.88a2.102 2.102 0 0 1 .54-2.19L417.11 265a17.103 17.103 0 0 0 3.786-19.603 17.108 17.108 0 0 0-4.216-5.657l-25.24-22.24a2.095 2.095 0 0 1-.62-2.16l9.67-32.23a17.095 17.095 0 0 0-13-21.66l-33-6.63a2.1 2.1 0 0 1-1.62-1.57l-7.74-32.74a17.097 17.097 0 0 0-8.337-11.008 17.095 17.095 0 0 0-13.753-1.252L291.18 119a2.095 2.095 0 0 1-2.18-.54l-23.07-24.52a17.097 17.097 0 0 0-25.26.43l-22.24 25.24a2.088 2.088 0 0 1-2.17.62L184 110.57a17.08 17.08 0 0 0-21.66 13l-6.63 33a2.1 2.1 0 0 1-1.57 1.62l-32.74 7.74a17.095 17.095 0 0 0-13.042 15.075 17.08 17.08 0 0 0 .822 6.995l10.74 31.88a2.095 2.095 0 0 1-.54 2.19l-24.49 23.06a17.09 17.09 0 0 0 .43 25.25l25.24 22.24a2.115 2.115 0 0 1 .62 2.17c0 .15-.09.3-.12.45l-6.37 27.39a182.524 182.524 0 0 0-51.26 17.28 7.5 7.5 0 0 0 7.22 13.14c.4-.21 40-21.61 82.31-17.26 22.45 2.31 35.34 10.61 46.72 17.94 8.48 5.46 16.5 10.62 26.7 12.16 46.44 7 62.93 11.8 63 25a4.854 4.854 0 0 1-2.11 4.37c-2.94 2.22-13.35 6.81-46.61 1.56a351.418 351.418 0 0 1-36.9-8.05 7.5 7.5 0 0 0-4.13 14.42 360.482 360.482 0 0 0 38.54 8.42 187.415 187.415 0 0 0 28.91 2.64c13.37 0 23-2.34 29.23-7a19.74 19.74 0 0 0 8.07-16.38c0-.73 0-1.42-.09-2.11 16.82-5.3 71-22.28 96.13-29.46 12.63-3.61 19.25-.73 20.62 2.08 1.18 2.42-.3 7-6.34 11.44-8.85 6.43-43.68 25.75-81.42 44.25-43.17 21.15-75.07 33.8-85.33 33.83h-.54c-64.19 0-177.08-33.07-178.22-33.4a7.503 7.503 0 0 0-4.24 14.39c.29.08 29.38 8.64 66.17 17 49.28 11.27 88.4 17 116.28 17h.6c30.56-.09 157.19-67.62 175.53-81 11.35-8.25 15.77-20.37 11-30.14-4.35-8.75-16.66-16.04-38.26-9.86Zm-167.66 6.16c-7-1.05-13.11-5-20.81-9.93-12.16-7.83-27.29-17.58-53.31-20.25a135.171 135.171 0 0 0-23.93-.26l5.06-21.77a17.118 17.118 0 0 0-5.14-17.47l-25.25-22.24a2.087 2.087 0 0 1-.687-1.545c0-.291.061-.579.179-.846.119-.266.292-.504.508-.699L129.66 233a17.154 17.154 0 0 0 4.48-17.89l-10.75-31.91a2.084 2.084 0 0 1 1.5-2.7l32.74-7.74a17.131 17.131 0 0 0 12.82-13.26l6.63-33a2.112 2.112 0 0 1 .976-1.376 2.098 2.098 0 0 1 1.674-.214L212 134.6a17.139 17.139 0 0 0 17.73-5.07l22.23-25.25a1.997 1.997 0 0 1 1.54-.7 2.052 2.052 0 0 1 1.55.65l23.07 24.48a17.134 17.134 0 0 0 17.88 4.48l31.88-10.75a2.106 2.106 0 0 1 1.679.158 2.099 2.099 0 0 1 1.021 1.342l7.74 32.74a17.136 17.136 0 0 0 13.26 12.82l33 6.64a2.002 2.002 0 0 1 1.38 1 1.995 1.995 0 0 1 .21 1.67L376.45 211a17.139 17.139 0 0 0 5.07 17.73L406.77 251c.22.193.396.429.518.695.123.265.188.553.192.845a1.991 1.991 0 0 1-.66 1.55l-24.48 23.07a17.161 17.161 0 0 0-4.48 17.9l10.75 31.88a2.072 2.072 0 0 1-.15 1.68 2.1 2.1 0 0 1-1.22 1c-2.5.45-19.39 3.5-31 6.64a20.283 20.283 0 0 0-12.16 9.24l-1.75 2.94a20.542 20.542 0 0 0-2.79 12.56c0 .36.07.7.11 1-17.26 5.35-32.94 10.27-40.41 12.62-10.89-14.62-38.12-18.68-70.63-23.57Z"/><path stroke="#03cf65" stroke-width="4" d="M396.27 344.89c-10.47 3-25.91 7.66-41.62 12.48a5.43 5.43 0 0 1 .54-1.29l1.76-2.95a5.307 5.307 0 0 1 3.19-2.44c11.66-3.15 29.82-6.37 30-6.4l.42-.09a17.072 17.072 0 0 0 12.26-22.08l-10.74-31.88a2.102 2.102 0 0 1 .54-2.19L417.11 265a17.103 17.103 0 0 0 3.786-19.603 17.108 17.108 0 0 0-4.216-5.657l-25.24-22.24a2.095 2.095 0 0 1-.62-2.16l9.67-32.23a17.095 17.095 0 0 0-13-21.66l-33-6.63a2.1 2.1 0 0 1-1.62-1.57l-7.74-32.74a17.097 17.097 0 0 0-8.337-11.008 17.095 17.095 0 0 0-13.753-1.252L291.18 119a2.095 2.095 0 0 1-2.18-.54l-23.07-24.52a17.097 17.097 0 0 0-25.26.43l-22.24 25.24a2.088 2.088 0 0 1-2.17.62L184 110.57a17.08 17.08 0 0 0-21.66 13l-6.63 33a2.1 2.1 0 0 1-1.57 1.62l-32.74 7.74a17.095 17.095 0 0 0-13.042 15.075 17.08 17.08 0 0 0 .822 6.995l10.74 31.88a2.095 2.095 0 0 1-.54 2.19l-24.49 23.06a17.09 17.09 0 0 0 .43 25.25l25.24 22.24a2.115 2.115 0 0 1 .62 2.17c0 .15-.09.3-.12.45l-6.37 27.39a182.524 182.524 0 0 0-51.26 17.28 7.5 7.5 0 0 0 7.22 13.14c.4-.21 40-21.61 82.31-17.26 22.45 2.31 35.34 10.61 46.72 17.94 8.48 5.46 16.5 10.62 26.7 12.16 46.44 7 62.93 11.8 63 25a4.854 4.854 0 0 1-2.11 4.37c-2.94 2.22-13.35 6.81-46.61 1.56a351.418 351.418 0 0 1-36.9-8.05 7.5 7.5 0 0 0-4.13 14.42 360.482 360.482 0 0 0 38.54 8.42 187.415 187.415 0 0 0 28.91 2.64c13.37 0 23-2.34 29.23-7a19.74 19.74 0 0 0 8.07-16.38c0-.73 0-1.42-.09-2.11 16.82-5.3 71-22.28 96.13-29.46 12.63-3.61 19.25-.73 20.62 2.08 1.18 2.42-.3 7-6.34 11.44-8.85 6.43-43.68 25.75-81.42 44.25-43.17 21.15-75.07 33.8-85.33 33.83h-.54c-64.19 0-177.08-33.07-178.22-33.4a7.503 7.503 0 0 0-4.24 14.39c.29.08 29.38 8.64 66.17 17 49.28 11.27 88.4 17 116.28 17h.6c30.56-.09 157.19-67.62 175.53-81 11.35-8.25 15.77-20.37 11-30.14-4.35-8.75-16.66-16.04-38.26-9.86Zm-167.66 6.16c-7-1.05-13.11-5-20.81-9.93-12.16-7.83-27.29-17.58-53.31-20.25a135.171 135.171 0 0 0-23.93-.26l5.06-21.77a17.118 17.118 0 0 0-5.14-17.47l-25.25-22.24a2.087 2.087 0 0 1-.687-1.545c0-.291.061-.579.179-.846.119-.266.292-.504.508-.699L129.66 233a17.154 17.154 0 0 0 4.48-17.89l-10.75-31.91a2.084 2.084 0 0 1 1.5-2.7l32.74-7.74a17.131 17.131 0 0 0 12.82-13.26l6.63-33a2.112 2.112 0 0 1 .976-1.376 2.098 2.098 0 0 1 1.674-.214L212 134.6a17.139 17.139 0 0 0 17.73-5.07l22.23-25.25a1.997 1.997 0 0 1 1.54-.7 2.052 2.052 0 0 1 1.55.65l23.07 24.48a17.134 17.134 0 0 0 17.88 4.48l31.88-10.75a2.106 2.106 0 0 1 1.679.158 2.099 2.099 0 0 1 1.021 1.342l7.74 32.74a17.136 17.136 0 0 0 13.26 12.82l33 6.64a2.002 2.002 0 0 1 1.38 1 1.995 1.995 0 0 1 .21 1.67L376.45 211a17.139 17.139 0 0 0 5.07 17.73L406.77 251c.22.193.396.429.518.695.123.265.188.553.192.845a1.991 1.991 0 0 1-.66 1.55l-24.48 23.07a17.161 17.161 0 0 0-4.48 17.9l10.75 31.88a2.072 2.072 0 0 1-.15 1.68 2.1 2.1 0 0 1-1.22 1c-2.5.45-19.39 3.5-31 6.64a20.283 20.283 0 0 0-12.16 9.24l-1.75 2.94a20.542 20.542 0 0 0-2.79 12.56c0 .36.07.7.11 1-17.26 5.35-32.94 10.27-40.41 12.62-10.89-14.62-38.12-18.68-70.63-23.57Z" mask="url(#a)"/><path fill="#03cf65" d="M253 83a7.499 7.499 0 0 0 7.5-7.5V53.59a7.498 7.498 0 0 0-12.803-5.303 7.498 7.498 0 0 0-2.197 5.303v21.93A7.499 7.499 0 0 0 253 83ZM205.59 106.65a7.487 7.487 0 0 0 9.18 5.3 7.513 7.513 0 0 0 4.557-3.496 7.514 7.514 0 0 0 .753-5.694l-5.1-19a7.497 7.497 0 0 0-3.497-4.553 7.502 7.502 0 0 0-10.993 8.443l5.1 19ZM138.53 151.63a7.515 7.515 0 0 0 2.437 1.626 7.52 7.52 0 0 0 8.183-1.636 7.505 7.505 0 0 0 2.194-5.312A7.512 7.512 0 0 0 149.14 141l-13.93-13.9a7.505 7.505 0 0 0-10.698-.088 7.49 7.49 0 0 0-2.194 5.37 7.489 7.489 0 0 0 2.292 5.328l13.92 13.92ZM78.63 209.83a7.486 7.486 0 0 0 .743 5.695 7.491 7.491 0 0 0 4.557 3.495l19 5.1a7.498 7.498 0 0 0 8.163-11.41 7.498 7.498 0 0 0-4.283-3.08l-19-5.1a7.483 7.483 0 0 0-5.689.747 7.49 7.49 0 0 0-3.49 4.553ZM77.05 307.06a7.51 7.51 0 0 0 7.24 5.56 7.382 7.382 0 0 0 1.95-.26l21-5.63a7.504 7.504 0 0 0 5.3-9.19 7.5 7.5 0 0 0-9.19-5.3l-21 5.64a7.488 7.488 0 0 0-5.3 9.18ZM399.87 289.73a7.485 7.485 0 0 0 2.676 7.888 7.486 7.486 0 0 0 2.624 1.292l19 5.1a7.5 7.5 0 0 0 3.88-14.49l-19-5.1a7.487 7.487 0 0 0-9.18 5.31ZM422.64 198.76l-19 5.1a7.501 7.501 0 0 0-2.994 12.873 7.498 7.498 0 0 0 4.934 1.867 7.336 7.336 0 0 0 1.95-.26l19-5.09a7.501 7.501 0 0 0-3.89-14.49ZM358.64 147.41a7.517 7.517 0 0 0 10.61 0l13.92-13.93a7.502 7.502 0 0 0-5.336-12.708 7.5 7.5 0 0 0-5.274 2.108l-13.92 13.92a7.504 7.504 0 0 0-1.627 8.176c.377.91.93 1.737 1.627 2.434ZM291.46 110.4a7.228 7.228 0 0 0 1.94.26 7.513 7.513 0 0 0 7.24-5.56l5.1-19a7.497 7.497 0 0 0-5.305-9.185 7.5 7.5 0 0 0-9.185 5.305l-5.1 19a7.501 7.501 0 0 0 5.31 9.18ZM157.54 104.71a7.485 7.485 0 0 0 6.5 3.75 7.395 7.395 0 0 0 3.75-1 7.501 7.501 0 0 0 2.74-10.24l-11-19a7.508 7.508 0 0 0-10.25-2.75 7.496 7.496 0 0 0-3.498 4.555 7.498 7.498 0 0 0 .748 5.695l11.01 18.99ZM77 163l19 11a7.506 7.506 0 0 0 11.191-5.523 7.52 7.52 0 0 0-1.489-5.547A7.486 7.486 0 0 0 103.5 161l-19-11a7.507 7.507 0 0 0-11.19 5.523A7.506 7.506 0 0 0 77 163ZM84.75 257.26a7.499 7.499 0 0 0-7.5-7.5H55.32a7.498 7.498 0 0 0-5.303 12.803 7.498 7.498 0 0 0 5.303 2.197h21.93a7.498 7.498 0 0 0 7.5-7.5ZM456.68 243.78h-21.93a7.497 7.497 0 0 0-7.5 7.5 7.497 7.497 0 0 0 7.5 7.5h21.93a7.497 7.497 0 0 0 7.5-7.5 7.497 7.497 0 0 0-7.5-7.5ZM409.32 169.81a7.473 7.473 0 0 0 3.74-1l19-11a7.5 7.5 0 0 0 2.75-10.25 7.508 7.508 0 0 0-7.477-3.69 7.51 7.51 0 0 0-2.773.94l-19 11a7.499 7.499 0 0 0-.815 12.457 7.498 7.498 0 0 0 4.575 1.543ZM339 104.47a7.5 7.5 0 0 0 10.24-2.75l11-19a7.498 7.498 0 0 0-.548-8.32 7.507 7.507 0 0 0-12.452.82l-11 19a7.495 7.495 0 0 0 .554 8.323A7.49 7.49 0 0 0 339 104.47Z"/></svg>