<svg xmlns="http://www.w3.org/2000/svg" width="512" height="512"><path d="M256 512H60c-33.084 0-60-26.916-60-60V256c0-33.084 26.916-60 60-60h122.875c11.046 0 20 8.954 20 20s-8.954 20-20 20H60c-11.028 0-20 8.972-20 20v196c0 11.028 8.972 20 20 20h196c11.028 0 20-8.972 20-20V329.125c0-11.046 8.954-20 20-20s20 8.954 20 20V452c0 33.084-26.916 60-60 60zM20 156c-11.046 0-20-8.954-20-20V80C0 35.888 35.888 0 80 0h56c11.046 0 20 8.954 20 20s-8.954 20-20 20H80c-22.056 0-40 17.944-40 40v56c0 11.046-8.954 20-20 20zM296 40h-80c-11.046 0-20-8.954-20-20s8.954-20 20-20h80c11.046 0 20 8.954 20 20s-8.954 20-20 20zM492 156c-11.046 0-20-8.954-20-20V80c0-22.056-17.944-40-40-40h-56c-11.046 0-20-8.954-20-20s8.954-20 20-20h56c44.112 0 80 35.888 80 80v56c0 11.046-8.954 20-20 20zM432 512h-56c-11.046 0-20-8.954-20-20s8.954-20 20-20h56c22.056 0 40-17.944 40-40v-56c0-11.046 8.954-20 20-20s20 8.954 20 20v56c0 44.112-35.888 80-80 80zM492 316c-11.046 0-20-8.954-20-20v-80c0-11.046 8.954-20 20-20s20 8.954 20 20v80c0 11.046-8.954 20-20 20z" fill="#03cf65"/><path d="M412 80h-60c-11.046 0-20 8.954-20 20s8.954 20 20 20h11.716L156 327.716V316c0-11.046-8.954-20-20-20s-20 8.954-20 20v60c0 11.046 8.954 20 20 20h60c11.046 0 20-8.954 20-20s-8.954-20-20-20h-11.716L392 148.284V160c0 11.046 8.954 20 20 20s20-8.954 20-20v-60c0-11.046-8.954-20-20-20z" fill="#03cf65"/></svg>