<svg xmlns="http://www.w3.org/2000/svg" viewBox="0 0 32 32"><path d="M11 19H6a1 1 0 1 1 0-2h5a1 1 0 1 1 0 2zM9 22H3a1 1 0 1 1 0-2h6a1 1 0 1 1 0 2zM11 25H6a1 1 0 1 1 0-2h5a1 1 0 1 1 0 2zM24 30a.995.995 0 0 1-.6-.2L19.667 27H17c-2.206 0-4-1.794-4-4v-4c0-2.206 1.794-4 4-4h9c2.206 0 4 1.794 4 4v4c0 2.206-1.794 4-4 4h-1v2a1 1 0 0 1-1 1zm-7-13c-1.103 0-2 .897-2 2v4c0 1.103.897 2 2 2h3c.217 0 .427.07.6.2L23 27v-1a1 1 0 0 1 1-1h2c1.103 0 2-.897 2-2v-4c0-1.103-.897-2-2-2zM9 16c-3.86 0-7-3.14-7-7s3.14-7 7-7 7 3.14 7 7-3.14 7-7 7zM9 4C6.243 4 4 6.243 4 9s2.243 5 5 5 5-2.243 5-5-2.243-5-5-5z"  fill="#03cf65"/><path d="M9 10H7a1 1 0 1 1 0-2h1.586l1.707-1.707a1 1 0 1 1 1.414 1.414l-2 2A1 1 0 0 1 9 10z"  fill="#03cf65"/></svg>