<svg id="Layer_1" enable-background="new 0 0 512 512" height="512" viewBox="0 0 512 512" width="512" xmlns="http://www.w3.org/2000/svg"><g fill="#e8916f"><ellipse cx="275.562" cy="189.76" rx="25" ry="32"/><ellipse cx="35.563" cy="189.76" rx="25" ry="32"/><path d="m127.5 296.546h60v100h-60z"/></g><path d="m49.5 205.071v-80.214c0-56.254 45.603-101.857 101.856-101.857h12.288c56.253 0 101.856 45.603 101.856 101.856v80.214c0 59.608-48.322 107.93-107.929 107.93h-.141c-59.608 0-107.93-48.322-107.93-107.929z" fill="#ebad88"/><path d="m163.644 23h-12.288c-2.985 0-5.937.136-8.856.387 52.106 4.489 93 48.2 93 101.469v80.214c0 54.541-40.459 99.625-93 106.897 4.881.676 9.863 1.033 14.929 1.033h.141c59.608 0 107.929-48.322 107.929-107.929v-80.214c.001-56.254-45.602-101.857-101.855-101.857z" fill="#e8916f"/><path d="m99.5 354.5h116c50.81 0 92 41.19 92 92v52c0 3.314-2.686 6-6 6h-288c-3.314 0-6-2.686-6-6v-52c0-50.81 41.19-92 92-92z" fill="#26c6da"/><path d="m215.5 354.5h-30c50.81 0 92 41.19 92 92v58h24c3.314 0 6-2.686 6-6v-52c0-50.81-41.19-92-92-92z" fill="#00bcd4"/><path d="m126.396 336.978-19.433 16.191c-.872.727-.965 2.033-.205 2.876l27.782 30.8c.893.99 2.487.845 3.187-.29l19.773-32.055-28.776-17.69c-.731-.449-1.668-.382-2.328.168z" fill="#fbf2df"/><path d="m188.604 336.978 19.433 16.191c.872.727.965 2.033.205 2.876l-27.782 30.8c-.893.99-2.487.845-3.187-.29l-19.773-32.055 28.776-17.69c.731-.449 1.668-.382 2.328.168z" fill="#fbf2df"/><path d="m217.535 70.199c-3.434-3.125-8.911-1.228-9.794 3.33-3.038 15.678-17.548 41.94-82.066 32.52-39.23-5.728-76.175 35.414-76.175 67.218 0 0-2.535-9.805-13.937-15.507 0 0-12.349-43.375-4.035-80.865 7.653-34.511 52.988-69.395 121.934-69.395 35.908 0 50.798 8.876 56.409 14.014 2.365 2.165 5.351 3.536 8.548 3.78 14.814 1.131 54.931 8.048 63.598 49.604 7.179 34.422-3.533 54.555-6.456 82.862-6.297 4.716-10.062 15.507-10.062 15.507s-19.116-36.503-23.573-63.628c-2.811-17.119-15.449-31.304-24.391-39.44z" fill="#7d4d3d"/><path d="m282.018 74.898c-8.667-41.555-48.784-48.472-63.598-49.604-3.197-.244-6.184-1.615-8.548-3.78-5.612-5.139-20.501-14.014-56.409-14.014-5.111 0-10.075.214-14.921.583 25.174 2.054 36.58 9.081 41.33 13.431 2.365 2.165 5.351 3.536 8.548 3.78 14.814 1.131 54.931 8.048 63.598 49.604 5.215 25.003.99 42.468-2.832 61.001 7.122 19.809 16.314 37.367 16.314 37.367s3.766-10.791 10.062-15.507c2.923-28.306 13.635-48.439 6.456-82.861z" fill="#704537"/><path d="m504.5 23.48v284.04c0 8.825-7.152 15.98-15.975 15.98h-135.829c-8.823 0-15.975-7.154-15.975-15.98v-28.557c0-2.04-1.796-3.614-3.817-3.346l-46.452 6.154c-1.677.222-2.633-1.856-1.375-2.986l49.442-44.402c1.402-1.259 2.203-3.055 2.203-4.94v-205.963c0-8.825 7.152-15.98 15.975-15.98h135.828c8.823 0 15.975 7.154 15.975 15.98z" fill="#fbf2df"/><path d="m488.525 7.5h-30c8.823 0 15.975 7.154 15.975 15.98v284.04c0 8.825-7.152 15.98-15.975 15.98h30c8.823 0 15.975-7.154 15.975-15.98v-284.04c0-8.826-7.152-15.98-15.975-15.98z" fill="#f2e5ce"/><path d="m460.769 281.337h-77.538c-8.412 0-15.231-6.819-15.231-15.231v-92.875c0-8.412 6.819-15.231 15.231-15.231h77.538c8.412 0 15.231 6.819 15.231 15.231v92.875c0 8.412-6.819 15.231-15.231 15.231z" fill="#e7387f"/><circle cx="157.5" cy="438.842" fill="#fbf2df" r="16"/><path d="m215.5 347h-3.15l-17.35-14.455v-18.273c38.045-13.076 67.168-45.51 75.549-85.481 1.656.311 3.332.469 5.01.469 17.921 0 32.5-17.72 32.5-39.5 0-18.271-10.26-33.684-24.145-38.176.897-5.916 2.078-11.594 3.231-17.136 3.672-17.646 7.469-35.892 2.215-61.081-4.141-19.853-15.637-35.418-33.247-45.015-14.299-7.792-29.396-9.946-37.122-10.535-1.444-.11-2.884-.761-4.054-1.833-7.961-7.292-25.09-15.984-61.474-15.984-73.9 0-120.962 37.866-129.258 75.271-6.552 29.546-1.062 61.922 2.186 76.589-13.471 4.822-23.332 19.987-23.332 37.9 0 21.78 14.579 39.5 32.5 39.5 2.981 0 5.898-.477 8.698-1.408 8.12 40.402 37.4 73.242 75.742 86.42v18.273l-17.349 14.455h-3.15c-54.864 0-99.5 44.636-99.5 99.5v52c0 7.444 6.056 13.5 13.5 13.5h288c7.444 0 13.5-6.056 13.5-13.5v-52c0-54.864-44.636-99.5-99.5-99.5zm-28.662-1.731 12.003 10-19.036 21.105-11.978-19.418zm106.222-155.509c0 13.28-8.014 24.5-17.5 24.5-.976 0-1.942-.116-2.895-.345.222-2.919.335-5.869.335-8.844v-30.434c1.095-2.724 3.035-6.524 5.21-9.081 8.282 1.848 14.85 12.181 14.85 24.204zm-254.21-111.241c9.149-41.257 65.879-63.519 114.613-63.519 34.47 0 47.389 8.424 51.344 12.045 3.634 3.329 8.266 5.363 13.042 5.728 14.581 1.113 49.307 7.595 56.828 43.657 4.615 22.13 1.297 38.079-2.216 54.963-1.495 7.185-3.036 14.589-4.027 22.665-.895.897-1.73 1.858-2.507 2.85-5.812-12.714-13.975-32.512-16.599-48.485-3.103-18.887-16.257-34.228-26.745-43.771-7.777-7.075-20.217-2.809-22.205 7.45-4.529 23.375-30.674 32.795-73.618 26.525-18.949-2.765-38.699 3.769-55.62 18.398-12.375 10.699-21.522 24.247-26.021 37.899-.956-.736-1.984-1.453-3.095-2.14-2.465-10.103-9.77-44.52-3.174-74.265zm-3.29 135.741c-9.486 0-17.5-11.22-17.5-24.5 0-12.481 7.078-23.141 15.804-24.38 5.289 3.2 7.446 7.434 8.136 9.132v30.557c0 2.448.077 4.879.228 7.29-1.804 1.066-4.052 1.901-6.668 1.901zm21.963 1.101c-.011-.163-.027-.325-.048-.487-.314-3.226-.475-6.497-.475-9.804v-31.803c0-14.693 9.401-32.315 23.95-44.895 13.575-11.736 29.081-17.029 43.642-14.902 30.055 4.387 53.291 1.742 69.07-7.863 13.148-8.003 18.616-19.173 20.844-27.972 7.247 6.977 17.716 19.187 20.021 33.219 4.101 24.968 19.599 56.59 23.473 64.226v29.989c0 4.234-.264 8.406-.775 12.504-.004.031-.008.062-.012.094-6.216 49.453-48.532 87.833-99.643 87.833h-.141c-51.902 0-94.736-39.578-99.906-90.139zm99.907 105.139h.141c7.672 0 15.172-.753 22.43-2.188v13.553l-22.5 13.831-22.501-13.831v-13.553c7.258 1.435 14.757 2.188 22.43 2.188zm-29.268 24.769 19.011 11.687-11.978 19.418-19.036-21.105zm171.838 151.731h-285v-50.5c0-46.593 37.906-84.5 84.5-84.5h2.53l26.941 29.869c4.284 4.747 11.849 3.957 15.14-1.376l13.389-21.706 13.39 21.707c3.314 5.372 10.884 6.089 15.14 1.375l26.94-29.869h2.53c46.594 0 84.5 37.907 84.5 84.5z"/><path d="m488.524 0h-135.828c-12.944 0-23.475 10.533-23.475 23.48v205.58l-49.158 44.147c-6.729 6.045-1.594 17.188 7.373 15.999l41.785-5.536v23.85c0 12.947 10.53 23.48 23.475 23.48h135.828c12.945 0 23.476-10.533 23.476-23.48v-284.04c0-12.947-10.531-23.48-23.476-23.48zm8.476 307.52c0 4.676-3.802 8.48-8.476 8.48h-135.828c-4.673 0-8.475-3.804-8.475-8.48v-28.557c0-3.134-1.352-6.115-3.709-8.18-2.354-2.064-5.484-3.012-8.594-2.601l-27.932 3.701 35.544-31.92c2.98-2.679 4.69-6.512 4.69-10.519v-205.964c0-4.676 3.802-8.48 8.475-8.48h135.828c4.674 0 8.476 3.804 8.476 8.48v284.04z"/><path d="m405.479 59.897h62.854c4.143 0 7.5-3.358 7.5-7.5s-3.357-7.5-7.5-7.5h-62.854c-4.143 0-7.5 3.358-7.5 7.5s3.358 7.5 7.5 7.5z"/><path d="m378.333 94.897h90c4.143 0 7.5-3.358 7.5-7.5s-3.357-7.5-7.5-7.5h-90c-4.143 0-7.5 3.358-7.5 7.5s3.357 7.5 7.5 7.5z"/><path d="m378.333 129.897h90c4.143 0 7.5-3.358 7.5-7.5s-3.357-7.5-7.5-7.5h-90c-4.143 0-7.5 3.358-7.5 7.5s3.357 7.5 7.5 7.5z"/><path d="m460.77 150.5h-77.54c-12.533 0-22.73 10.197-22.73 22.731v92.875c0 12.534 10.197 22.731 22.73 22.731h77.539c12.533 0 22.73-10.197 22.73-22.731v-92.875c.001-12.534-10.196-22.731-22.729-22.731zm7.73 115.606c0 4.263-3.468 7.731-7.73 7.731h-77.54c-4.263 0-7.73-3.468-7.73-7.731v-92.875c0-4.263 3.468-7.731 7.73-7.731h77.539c4.263 0 7.73 3.468 7.73 7.731v92.875z"/><path d="m422 176.013c-4.143 0-7.5 3.358-7.5 7.5v41.846c0 4.142 3.357 7.5 7.5 7.5s7.5-3.358 7.5-7.5v-41.846c0-4.142-3.357-7.5-7.5-7.5z"/><path d="m422 239.192c-4.143 0-7.5 3.358-7.5 7.5v4.308c0 4.142 3.357 7.5 7.5 7.5s7.5-3.358 7.5-7.5v-4.308c0-4.142-3.357-7.5-7.5-7.5z"/><path d="m157.5 415.342c-12.958 0-23.5 10.542-23.5 23.5s10.542 23.5 23.5 23.5 23.5-10.542 23.5-23.5-10.542-23.5-23.5-23.5zm0 32c-4.687 0-8.5-3.813-8.5-8.5s3.813-8.5 8.5-8.5 8.5 3.813 8.5 8.5-3.813 8.5-8.5 8.5z"/></svg>