<svg xmlns="http://www.w3.org/2000/svg" data-name="Layer 1" viewBox="7 8.05 96 93.88"><path fill="#fbd277" d="M79.06 22.52v74.41a5 5 0 0 1-5 5H12a5 5 0 0 1-5-5V22.52a5 5 0 0 1 5-5h16.5v6.37a1.47 1.47 0 0 0 1.5 1.44h26.6a1.46 1.46 0 0 0 1.4-1.46V17.5h16a5 5 0 0 1 5.06 5.02"></path><path fill="#fdcd56" d="M79.06 22.51v74.42a5 5 0 0 1-5 5H12a5 5 0 0 1-5-5v-1.37a67 67 0 0 0 65.69-67v-11H74a5 5 0 0 1 5.06 4.95"></path><path fill="#f4f6f8" d="M72.7 24.65v70.93h-58a1.28 1.28 0 0 1-1.28-1.28V24.65a1.27 1.27 0 0 1 1.28-1.26h13.82v.48A1.47 1.47 0 0 0 30 25.33h26.6a1.46 1.46 0 0 0 1.4-1.46v-.48h13.42a1.27 1.27 0 0 1 1.28 1.26"></path><path fill="#f76c82" d="M20.21 75.46h13.52v13.52H20.21z"></path><path fill="#eb5463" d="M33.73 75.45V89H20.2v-3h.37a10.19 10.19 0 0 0 10.19-10.19v-.36z"></path><path fill="#66d4f1" d="M20.21 54.4h13.52v13.52H20.21z"></path><path fill="#4fc0e8" d="M33.73 54.4v13.52H20.2V65h.37a10.19 10.19 0 0 0 10.19-10.24v-.36z"></path><path fill="#b4df80" d="M20.21 32.13h13.52v13.52H20.21z"></path><path fill="#9ed26a" d="M33.73 32.13v13.52H20.2v-3h.37a10.19 10.19 0 0 0 10.19-10.16v-.36z"></path><path fill="#656d78" d="M58 15.86v8a1.46 1.46 0 0 1-1.45 1.46H30a1.47 1.47 0 0 1-1.46-1.46v-8A1.46 1.46 0 0 1 30 14.4h8.75v-1.81a4.54 4.54 0 0 1 4.54-4.54 4.55 4.55 0 0 1 4.55 4.54v1.81h8.74A1.45 1.45 0 0 1 58 15.86"></path><path fill="#434a54" d="M58 15.86v8a1.46 1.46 0 0 1-1.45 1.46H30a1.46 1.46 0 0 1-1.46-1.46v-2.72h15.83a9.51 9.51 0 0 0 9.07-6.75h3.14A1.46 1.46 0 0 1 58 15.86"></path><path fill="#fff" d="M25.72 85.59a1 1 0 0 1-.72-.29l-2.25-2.25a1 1 0 0 1 1.41-1.41l1.55 1.54 4-4.05a1 1 0 0 1 1.42 1.42l-4.71 4.75a1 1 0 0 1-.7.29"></path><path fill="#434a54" d="M66 58.84H39.73a1 1 0 1 1 0-2H66a1 1 0 0 1 0 2M66 65.49H39.73a1 1 0 0 1 0-2H66a1 1 0 1 1 0 2"></path><path fill="#fff" d="M25.72 42.27A1 1 0 0 1 25 42l-2.25-2.25a1 1 0 0 1 0-1.42 1 1 0 0 1 1.41 0l1.55 1.54 4-4a1 1 0 0 1 1.42 0 1 1 0 0 1 0 1.41L26.42 42a1 1 0 0 1-.7.27"></path><g fill="#434a54"><path d="M66 36.56H39.73a1 1 0 1 1 0-2H66a1 1 0 0 1 0 2M66 43.22H39.73a1 1 0 1 1 0-2H66a1 1 0 0 1 0 2M66 79.89H39.73a1 1 0 0 1 0-2H66a1 1 0 0 1 0 2M66 86.54H39.73a1 1 0 0 1 0-2H66a1 1 0 0 1 0 2"></path></g><path fill="#fff" d="M24.42 64.71a1 1 0 0 1-.71-.29 1 1 0 0 1 0-1.41l5.1-5.1a1 1 0 0 1 1.42 0 1 1 0 0 1 0 1.41l-5.1 5.1a1 1 0 0 1-.71.29"></path><path fill="#fff" d="M29.52 64.71a1 1 0 0 1-.71-.29l-5.1-5.1a1 1 0 0 1 0-1.41 1 1 0 0 1 1.42 0l5.1 5.1a1 1 0 0 1 0 1.41 1 1 0 0 1-.71.29"></path><path fill="#f76c82" d="M103 52.48v5a2.25 2.25 0 0 1-1.52 2.11l-3.8 1.27A2.22 2.22 0 0 0 96.39 64l1.79 3.58a2.22 2.22 0 0 1-.42 2.57l-3.54 3.55a2.22 2.22 0 0 1-2.58.41l-3.57-1.78A2.23 2.23 0 0 0 85 73.61l-1.27 3.8a2.21 2.21 0 0 1-2.11 1.53h-2.56V31.06h2.51a2.21 2.21 0 0 1 2.11 1.53L85 36.38a2.23 2.23 0 0 0 3.12 1.29l3.57-1.79a2.24 2.24 0 0 1 2.58.42l3.54 3.55a2.22 2.22 0 0 1 .42 2.57L96.39 46a2.23 2.23 0 0 0 1.3 3.11l3.79 1.27a2.23 2.23 0 0 1 1.52 2.1"></path><path fill="#eb5463" d="M98.51 53v4a1.82 1.82 0 0 1-1.23 1.71l-3.09 1a1.81 1.81 0 0 0-1 2.53l1.45 2.91a1.79 1.79 0 0 1-.33 2.09l-2.88 2.88a1.79 1.79 0 0 1-2.1.34l-2.9-1.45a1.81 1.81 0 0 0-2.53 1l-1 3.08a1.8 1.8 0 0 1-1.72 1.24h-2V35.55h2a1.8 1.8 0 0 1 1.72 1.24l1 3.08a1.81 1.81 0 0 0 2.53 1.05l2.9-1.45a1.81 1.81 0 0 1 2.1.33l2.88 2.89a1.79 1.79 0 0 1 .33 2.09l-1.45 2.9a1.81 1.81 0 0 0 1.06 2.53l3.08 1A1.84 1.84 0 0 1 98.51 53"></path><path fill="#fff" d="M88.5 55a9.44 9.44 0 0 1-9.44 9.43V45.56A9.44 9.44 0 0 1 88.5 55"></path></svg>