<svg xmlns="http://www.w3.org/2000/svg" viewBox="0.01 13.14 511.98 485.72"><g fill-rule="evenodd" clip-rule="evenodd"><path fill="#6cf5c2" d="M398.856 129.64c31.77 0 58.647 20.946 67.577 49.781 1.569 5.066.716 10.107-2.43 14.376s-7.709 6.574-13.013 6.574H346.723c-5.304 0-9.866-2.305-13.013-6.574s-4-9.31-2.43-14.376c8.929-28.834 35.807-49.781 67.576-49.781"></path><path fill="#00e499" d="M398.856 129.64c31.77 0 58.648 20.946 67.577 49.781 1.569 5.066.716 10.107-2.43 14.375s-7.709 6.574-13.013 6.574h-19.104c5.304 0 9.866-2.305 13.013-6.574s4-9.31 2.431-14.375c-8.019-25.895-30.512-45.423-58.024-49.138a71.5 71.5 0 0 1 9.55-.643"></path><circle cx="398.857" cy="94.327" r="35.761" fill="#f6dccd"></circle><path fill="#f1cbbc" d="M398.857 58.566c19.75 0 35.761 16.011 35.761 35.761s-16.011 35.761-35.761 35.761c-1.62 0-3.214-.109-4.776-.318 17.492-2.335 30.985-17.313 30.985-35.443s-13.493-33.108-30.985-35.443a36 36 0 0 1 4.776-.318"></path><path fill="#6cf5c2" d="M113.143 129.64c31.77 0 58.648 20.946 67.577 49.781 1.569 5.066.716 10.107-2.431 14.376s-7.709 6.574-13.013 6.574H61.01c-5.303 0-9.866-2.305-13.013-6.574s-4-9.31-2.431-14.376c8.93-28.834 35.808-49.781 67.577-49.781"></path><path fill="#00e499" d="M113.144 129.64c31.77 0 58.647 20.946 67.577 49.781 1.569 5.066.716 10.107-2.431 14.375s-7.709 6.574-13.013 6.574h-19.104c5.304 0 9.866-2.305 13.013-6.574s4-9.31 2.431-14.375c-8.019-25.895-30.512-45.423-58.025-49.138a71.5 71.5 0 0 1 9.552-.643"></path><circle cx="113.144" cy="94.327" r="35.761" fill="#f6dccd" transform="rotate(-9.2 113.27 94.418)"></circle><path fill="#f1cbbc" d="M113.144 58.566c19.75 0 35.761 16.011 35.761 35.761s-16.011 35.761-35.761 35.761c-1.62 0-3.214-.109-4.776-.318 17.492-2.335 30.985-17.313 30.985-35.443s-13.493-33.108-30.985-35.443a36 36 0 0 1 4.776-.318"></path><path fill="#8ac9fe" d="M349.995 200.367C344.919 152.939 304.775 116 256 116s-88.92 36.939-93.995 84.368v19.108c0 13.915 11.35 25.265 25.265 25.265h137.46c13.915 0 25.265-11.349 25.265-25.265z"></path><path fill="#60b7ff" d="M349.995 200.367C344.919 152.939 304.775 116 256 116a96 96 0 0 0-11.497.695c43.461 5.27 77.827 40.029 82.498 83.673v19.109c0 13.915-11.349 25.265-25.265 25.265h22.994c13.915 0 25.265-11.349 25.265-25.265z"></path><circle cx="256" cy="69.684" r="47.8" fill="#f6dccd" transform="rotate(-9.2 256.273 69.738)"></circle><path fill="#f1cbbc" d="M256 21.884c26.399 0 47.8 21.401 47.8 47.8s-21.401 47.8-47.8 47.8c-2.065 0-4.099-.131-6.095-.385 23.521-2.993 41.705-23.081 41.705-47.415s-18.184-44.421-41.705-47.415a48 48 0 0 1 6.095-.385"></path><path fill="#ffe177" d="M504 242.116v33.523l-54.45 8.716a197 197 0 0 1-26.825 64.751l32.342 44.67-47.408 47.408-44.67-32.342a197 197 0 0 1-64.751 26.825l-8.716 54.45h-67.045l-8.716-54.45a197 197 0 0 1-64.751-26.825l-44.669 32.342-47.408-47.408 32.342-44.669a197 197 0 0 1-26.826-64.751L8 275.639v-33.523h110.5c0 75.939 61.561 137.5 137.5 137.5 75.94 0 137.5-61.561 137.5-137.5h60.579z"></path><path fill="#ffd064" d="M504 242.116v33.523l-54.45 8.716a197 197 0 0 1-26.825 64.751l32.342 44.67-47.408 47.408-5.801-4.2 43.208-43.208-32.342-44.67a197 197 0 0 0 26.825-64.751l54.45-8.716v-33.523zm-395.501 0h10c0 74.265 58.878 134.767 132.5 137.4-1.66.059-3.325.1-5 .1-75.939.001-137.5-61.56-137.5-137.5m40.512 166.725-44.669 32.342-4.2-4.2 43.484-31.483a197 197 0 0 0 5.385 3.341m213.978 0a197 197 0 0 1-64.751 26.825l-8.716 54.45h-10l8.716-54.45c26.061-5.662 47.564-15.523 69.704-30.083z"></path><path d="M53.229 182.529c8.162-26.408 32.222-44.15 59.916-44.15 20.664 0 39.535 9.861 51.282 26.6a101 101 0 0 0-9.341 28.13H61.014c-2.783 0-4.953-1.089-6.558-3.319-1.651-2.241-2.076-4.611-1.227-7.261M113.145 66.86c15.285 0 27.74 12.449 27.74 27.759 0 15.3-12.455 27.76-27.74 27.76-15.286 0-27.788-12.46-27.788-27.76.001-15.31 12.503-27.759 27.788-27.759M256 124.74c44.206.009 81.099 33 86.005 76.81v18.67c0 9.52-7.737 17.261-17.267 17.261H187.262c-9.53 0-17.267-7.741-17.267-17.261v-18.67c4.906-43.81 41.799-76.801 86.005-76.81m-39.818-55.801c0-21.94 17.88-39.8 39.818-39.8s39.818 17.861 39.818 39.8-17.88 39.789-39.771 39.801h-.094c-21.938-.011-39.771-17.861-39.771-39.801m182.625 69.44h.047c27.693.011 51.754 17.751 59.916 44.15.849 2.65.425 5.031-1.227 7.261-1.604 2.239-3.774 3.319-6.558 3.319h-94.073a101.2 101.2 0 0 0-9.341-28.13c11.749-16.729 30.62-26.589 51.236-26.6m-27.74-43.759c0-15.311 12.502-27.759 27.788-27.759s27.741 12.449 27.741 27.759c0 15.3-12.408 27.75-27.741 27.76s0 0-.047 0c-15.286-.01-27.741-12.46-27.741-27.76M61.014 209.109h92.988v11.111c0 18.34 14.908 33.261 33.26 33.261h137.476c18.352 0 33.261-14.92 33.261-33.261v-11.111h92.987c7.879 0 14.767-3.489 19.438-9.819 4.671-6.341 5.991-13.971 3.633-21.49-7.265-23.571-24.674-41.631-46.612-50.101 9.294-8.029 15.191-19.879 15.191-33.08 0-24.131-19.626-43.759-43.781-43.759-24.108 0-43.781 19.629-43.781 43.759 0 13.201 5.897 25.039 15.191 33.071-12.219 4.729-23.07 12.469-31.656 22.699a102.27 102.27 0 0 0-49.82-36.329c13.918-10.151 23.023-26.591 23.023-45.121 0-30.77-25.051-55.798-55.812-55.798s-55.811 25.028-55.811 55.798c0 18.53 9.105 34.97 23.023 45.121a102.26 102.26 0 0 0-49.82 36.329c-8.586-10.23-19.437-17.97-31.656-22.699 9.294-8.032 15.144-19.87 15.144-33.071 0-24.131-19.626-43.759-43.734-43.759-24.155 0-43.781 19.629-43.781 43.759 0 13.21 5.897 25.071 15.191 33.1-6.558 2.56-12.785 6.01-18.588 10.33-13.21 9.911-23.164 24.031-28.071 39.74-2.312 7.521-1.038 15.15 3.68 21.49 4.67 6.341 11.558 9.83 19.437 9.83m434.98 60.451-47.697 7.64a8.01 8.01 0 0 0-6.558 6.2c-4.812 22.14-13.493 43.04-25.759 62.12-1.793 2.77-1.651 6.35.236 9.021l28.354 39.139-37.743 37.759L367.67 403.1c-2.642-1.931-6.228-2.03-9.011-.25a188 188 0 0 1-62.133 25.74 7.99 7.99 0 0 0-6.18 6.549l-7.643 47.72h-53.405l-7.643-47.72a7.99 7.99 0 0 0-6.18-6.549 188 188 0 0 1-62.133-25.74c-2.784-1.78-6.369-1.68-9.011.25l-39.158 28.338L67.43 393.68l28.307-39.139a8.07 8.07 0 0 0 .283-9.021c-12.266-19.07-20.947-39.98-25.759-62.12a8.01 8.01 0 0 0-6.558-6.2l-47.697-7.64v-18.7h94.733c4.152 76.52 67.7 137.499 145.261 137.499S397.109 327.38 401.261 250.86h94.733zm8.02-34.7H393.476c-4.387 0-7.973 3.579-7.973 8 0 71.399-58.076 129.5-129.503 129.5s-129.503-58.101-129.503-129.5c0-4.421-3.586-8-8.02-8H7.986c-4.387 0-7.973 3.579-7.973 8v33.52c0 3.929 2.831 7.279 6.699 7.901l49.159 7.86a203 203 0 0 0 23.778 57.38L50.446 389.83c-2.312 3.179-1.934 7.56.849 10.341l47.367 47.41a8.03 8.03 0 0 0 10.379.818l40.29-29.178c17.88 10.82 37.129 18.799 57.368 23.77l7.879 49.13a7.99 7.99 0 0 0 7.879 6.739h67.04c3.963 0 7.313-2.86 7.926-6.739l7.879-49.13c20.239-4.97 39.488-12.95 57.368-23.77l40.29 29.178a7.97 7.97 0 0 0 10.332-.818l47.414-47.41c2.783-2.781 3.161-7.161.849-10.341l-29.203-40.309a203 203 0 0 0 23.778-57.38l49.112-7.86a7.98 7.98 0 0 0 6.746-7.901v-33.52c-.001-4.421-3.586-8-7.974-8"></path></g></svg>