<svg xmlns="http://www.w3.org/2000/svg" viewBox="5.2 10.09 79.57 69.82"><path d="M27.555 52.235C15.41 54.757 7.779 61.949 5.404 72.313c-.65 2.792.359 3.609 1.615 3.995 8.619 2.656 24.583 3.604 30.844 3.604 6.266 0 22.229-.948 30.854-3.604 1.25-.386 2.26-1.203 1.609-3.995-2.182-9.541-8.833-16.385-19.35-19.38a25.5 25.5 0 0 1-5.494 2.52c-.646 2.027-2.244 3.689-4.463 3.689h-6c-2.73 0-5.016-2.287-5.016-5.021v-.515z"></path><path fill-rule="evenodd" d="M38.738 10.1a22.008 22.008 0 0 0-21.865 15.849c-.391-.05-.86-.027-1.416.129-2.078.595-3.646 2.292-4.344 3.792-.912 1.958-1.297 4.54-.891 7.214.4 2.66 1.525 4.859 2.932 6.218 1.412 1.36 3 1.808 4.584 1.47 2.354-.5 3.525-.876 3.192-3.068l-1.594-10.641a18.7 18.7 0 0 1 8.286-14.51 18.695 18.695 0 0 1 21.787.713c4.427 3.396 7 8.484 7.29 13.823l-1.113 7.443A18.69 18.69 0 0 1 39.778 50.74h-4.76a2.21 2.21 0 0 0-2.214 2.214v1.166c0 1.225.989 2.215 2.214 2.215h6c1.224 0 2.213-.99 2.213-2.215v-.61a22.08 22.08 0 0 0 13.146-9.243l1.927.506c1.563.405 3.172-.11 4.583-1.47 1.406-1.358 2.53-3.558 2.933-6.218.406-2.673.01-5.25-.891-7.214-.901-1.96-2.25-3.202-3.808-3.651-.65-.182-1.36-.256-1.97-.27A21.99 21.99 0 0 0 38.739 10.1" clip-rule="evenodd"></path><path fill-rule="evenodd" d="M37.868 16.892c-8.433 0-15.224 6.566-15.224 15.224 0 8.656 6.79 15.225 15.224 15.225s15.219-6.568 15.219-15.225c-.001-8.657-6.787-15.224-15.22-15.224m-7.266 7.536c1.495 1.426 4.183 2.385 7.266 2.385 3.078 0 5.77-.96 7.266-2.385a10.55 10.55 0 0 1 3.317 7.688 10.56 10.56 0 0 1-10.583 10.583 10.565 10.565 0 0 1-10.583-10.583c0-3.037 1.275-5.762 3.317-7.688" clip-rule="evenodd"></path><path d="M68.024 47.428a1.89 1.89 0 0 0-1.917 1.89c0 1.053.865 1.9 1.917 1.892h2.27l-3.874 3.984c-1.156 1.198-.307 3.2 1.359 3.2h7.256a1.883 1.883 0 0 0 1.916-1.888 1.89 1.89 0 0 0-1.916-1.891h-2.781l3.875-3.985c1.16-1.197.313-3.202-1.36-3.202zM72.31 28.757c-1.052 0-1.916.838-1.916 1.89a1.89 1.89 0 0 0 1.916 1.892h5.703l-7.422 7.64c-1.166 1.198-.322 3.215 1.354 3.215h10.938a1.891 1.891 0 1 0 0-3.783h-6.474l7.427-7.646c1.156-1.197.313-3.207-1.354-3.207zM66.982 10.09c-1.053 0-1.916.833-1.916 1.89 0 1.053.864 1.907 1.916 1.892h5.698l-7.417 7.64c-1.172 1.199-.317 3.215 1.359 3.209h10.933a1.889 1.889 0 1 0 0-3.776h-6.47l7.428-7.652c1.162-1.197.308-3.202-1.36-3.202z"></path></svg>