<svg id="Layer_1" enable-background="new 0 0 256 256" height="512" viewBox="0 0 256 256" width="512" xmlns="http://www.w3.org/2000/svg"><g><g><g><path d="m68.481 73.618v33.818l-8.009-9.813c-1.238-1.517-3.47-1.743-4.986-.505-1.517 1.239-1.742 3.472-.505 4.986l14.607 17.898c.673.825 1.681 1.304 2.746 1.304s2.073-.479 2.746-1.304l14.607-17.898c.537-.657.799-1.45.799-2.238 0-1.028-.445-2.048-1.303-2.747-1.516-1.238-3.749-1.012-4.986.505l-8.009 9.813v-33.819c0-2.127-1.725-3.852-3.852-3.852s-3.855 1.725-3.855 3.852z" fill="#a4c9ff"/></g></g><g><g><path d="m72.334 123.306c-1.672 0-3.238-.743-4.295-2.039l-14.607-17.898c-.936-1.146-1.37-2.588-1.221-4.062.149-1.473.863-2.801 2.01-3.737 1.147-.937 2.585-1.372 4.064-1.222 1.474.149 2.801.863 3.737 2.011l4.459 5.463v-28.204c0-3.227 2.625-5.852 5.853-5.852s5.852 2.625 5.852 5.852v28.205l4.46-5.464c.936-1.147 2.263-1.862 3.737-2.011 1.468-.147 2.917.284 4.063 1.221 1.295 1.056 2.039 2.622 2.039 4.296 0 1.272-.444 2.517-1.25 3.504l-14.607 17.898c-1.057 1.296-2.622 2.039-4.294 2.039zm-14.61-24.986c-.354 0-.695.121-.974.348-.319.261-.519.631-.56 1.042-.042.41.079.811.339 1.129l14.607 17.899c.588.721 1.804.722 2.393 0l14.607-17.898c.288-.353.348-.724.348-.974 0-.467-.207-.903-.567-1.197-.321-.262-.719-.384-1.133-.341-.41.042-.779.241-1.04.56l-8.01 9.813c-.535.655-1.423.904-2.221.619-.796-.284-1.329-1.038-1.329-1.884v-33.818c0-1.021-.831-1.852-1.852-1.852s-1.853.831-1.853 1.852v33.818c0 .846-.532 1.6-1.329 1.884-.799.284-1.686.036-2.221-.619l-8.009-9.813c-.261-.32-.631-.519-1.041-.561-.049-.005-.102-.007-.155-.007z" fill="#3762cc"/></g></g><g><g><g><path d="m112.035 233.399h140.965v19.601h-140.965z" fill="#f9cfcf"/></g></g><g><g><path d="m224.032 165.551h-83.028c-15.999 0-28.969 12.97-28.969 28.969v36.096 2.784h18.483l3.457 19.6h48.542 48.542l3.458-19.601h18.483v-2.784-36.096c0-15.998-12.97-28.968-28.968-28.968z" fill="#6bdddd"/></g></g><g><g><path d="m222.975 233.399h-19.685c-1.105 0-2-.895-2-2v-13c0-1.105.895-2 2-2h19.686c1.105 0 2 .895 2 2v13c-.001 1.104-.896 2-2.001 2z" fill="#e0ebfc"/></g></g><g><g><path d="m133.973 255c-.952 0-1.796-.683-1.967-1.653l-3.458-19.601c-.02-.115-.03-.231-.03-.348v-33.75c0-1.104.896-2 2-2s2 .896 2 2v33.575l3.428 19.428c.192 1.088-.535 2.125-1.622 2.317-.118.022-.236.032-.351.032z" fill="#3762cc"/></g></g><g><g><path d="m231.062 255c-.115 0-.232-.01-.35-.031-1.087-.192-1.814-1.229-1.622-2.317l3.427-19.428v-33.575c0-1.104.896-2 2-2s2 .896 2 2v33.75c0 .117-.01.233-.03.348l-3.458 19.601c-.171.97-1.015 1.652-1.967 1.652z" fill="#3762cc"/></g></g><g><g><path d="m130.518 235.399h-18.483c-1.104 0-2-.896-2-2s.896-2 2-2h18.483c1.104 0 2 .896 2 2s-.896 2-2 2z" fill="#3762cc"/></g></g><g><g><path d="m253 235.399h-18.483c-1.104 0-2-.896-2-2s.896-2 2-2h18.483c1.104 0 2 .896 2 2s-.896 2-2 2z" fill="#3762cc"/></g></g><g><g><path d="m130.518 226.899h-18.483c-1.104 0-2-.896-2-2s.896-2 2-2h18.483c1.104 0 2 .896 2 2s-.896 2-2 2z" fill="#3762cc"/></g></g><g><g><path d="m253 226.899h-18.483c-1.104 0-2-.896-2-2s.896-2 2-2h18.483c1.104 0 2 .896 2 2s-.896 2-2 2z" fill="#3762cc"/></g></g><g><g><path d="m186.326 219.524h-8c-1.657 0-3-1.343-3-3v-27.375h14v27.375c0 1.657-1.343 3-3 3z" fill="#4671c6"/></g></g><g><g><path d="m186.326 221.524h-8c-2.757 0-5-2.243-5-5v-27.375c0-1.104.896-2 2-2h14c1.104 0 2 .896 2 2v27.375c0 2.757-2.243 5-5 5zm-9-30.375v25.375c0 .551.449 1 1 1h8c.551 0 1-.449 1-1v-25.375z" fill="#3762cc"/></g></g><g><g><path d="m215.246 165.551h-9.428-23.301-.191-23.301-9.428c-3.834 0-6.242 4.138-4.347 7.471l11.096 19.517c2.037 3.583 6.065 5.55 10.143 4.952l15.932-2.335 15.932 2.335c4.078.598 8.106-1.369 10.143-4.952l11.096-19.517c1.896-3.333-.512-7.471-4.346-7.471z" fill="#4671c6"/></g></g><g><g><path d="m199.839 199.6c-.587 0-1.18-.043-1.775-.13l-15.643-2.292-15.642 2.292c-4.93.723-9.709-1.61-12.172-5.943l-11.096-19.517c-1.246-2.191-1.233-4.8.035-6.979s3.53-3.48 6.051-3.48h65.648c2.521 0 4.783 1.301 6.05 3.48 1.268 2.179 1.281 4.789.035 6.979l-11.096 19.517c-2.164 3.809-6.12 6.073-10.395 6.073zm-17.417-6.444c.097 0 .194.007.29.021l15.932 2.335c3.285.48 6.473-1.074 8.114-3.962l11.096-19.517c.534-.939.528-2.058-.015-2.991-.543-.934-1.513-1.492-2.593-1.492h-65.648c-1.081 0-2.05.558-2.593 1.491-.543.934-.549 2.052-.015 2.992l11.096 19.517c1.641 2.887 4.823 4.443 8.115 3.961l15.932-2.335c.095-.013.192-.02.289-.02z" fill="#3762cc"/></g></g><g><g><path d="m159.025 141.964v23.587l19.404 27.476c1.993 2.822 6.18 2.82 8.171-.004l19.364-27.472v-23.587z" fill="#f9cfcf"/></g></g><g><g><path d="m253 255h-140.965c-1.104 0-2-.896-2-2v-58.48c0-17.076 13.893-30.969 30.969-30.969h16.021v-21.586c0-1.104.896-2 2-2h46.939c1.104 0 2 .896 2 2v21.586h16.067c17.076 0 30.968 13.893 30.968 30.969v58.48c.001 1.104-.895 2-1.999 2zm-138.965-4h136.965v-56.48c0-14.871-12.098-26.969-26.968-26.969h-18.067c-1.104 0-2-.896-2-2v-21.586h-42.939v21.586c0 1.104-.896 2-2 2h-18.021c-14.871 0-26.969 12.098-26.969 26.969v56.48z" fill="#3762cc"/></g></g><g><g><path d="m240.355 96.645h-116.334v-20.181c0-32.125 26.042-58.167 58.167-58.167 32.125 0 58.167 26.042 58.167 58.167z" fill="#4671c6"/></g></g><g><g><path d="m182.517 59.641c33.953 0 61.478 27.524 61.478 61.478v18.599c0 7.18-5.82 13-13 13h-96.955c-7.18 0-13-5.82-13-13v-18.599c0-33.954 27.524-61.478 61.477-61.478z" fill="#4671c6"/></g></g><g><g><path d="m230.995 154.717h-96.955c-8.271 0-15-6.729-15-15v-18.599c0-35.001 28.476-63.478 63.478-63.478 35.001 0 63.478 28.476 63.478 63.478v18.599c-.001 8.271-6.73 15-15.001 15zm-48.477-93.076c-32.796 0-59.478 26.682-59.478 59.478v18.599c0 6.065 4.935 11 11 11h96.956c6.065 0 11-4.935 11-11v-18.599c-.001-32.796-26.683-59.478-59.478-59.478z" fill="#3762cc"/></g></g><g><g><path d="m240.354 98.645h-116.333c-1.104 0-2-.896-2-2v-20.181c0-33.176 26.991-60.167 60.167-60.167s60.167 26.991 60.167 60.167v20.181c-.001 1.105-.896 2-2.001 2zm-114.333-4h112.333v-18.181c0-30.97-25.196-56.167-56.167-56.167s-56.167 25.196-56.167 56.167v18.181z" fill="#3762cc"/></g></g><g><g><path d="m234.878 89.235v-4.903c0-28.658-23.443-51.889-52.361-51.889-28.918 0-52.361 23.232-52.361 51.889v4.903c-9.092-.184-16.305 7.059-16.305 15.814 0 9.349 8.162 16.744 17.688 15.737 5.404 22.957 26.17 40.061 50.978 40.061 24.81 0 45.575-17.106 50.978-40.061 9.514 1.006 17.688-6.375 17.688-15.737.001-8.76-7.218-15.998-16.305-15.814z" fill="#f9cfcf"/></g></g><g><g><path d="m182.511 136.027c-1.942 0-3.637-.229-5.182-.698-2.563-.78-4.812-2.093-6.502-3.796-.778-.784-.773-2.05.011-2.829.784-.777 2.05-.773 2.829.011 1.226 1.235 2.895 2.199 4.827 2.787 1.162.354 2.476.525 4.018.525s2.855-.172 4.018-.525c1.933-.588 3.602-1.551 4.827-2.786.778-.785 2.044-.789 2.828-.012.785.778.79 2.044.012 2.828-1.689 1.704-3.938 3.017-6.502 3.797-1.548.469-3.242.698-5.184.698z" fill="#3762cc"/></g></g><g><g><path d="m209.701 115.832c-3.655 0-6.618-2.963-6.618-6.618v-7.059c0-3.655 2.963-6.618 6.618-6.618 3.655 0 6.618 2.963 6.618 6.618v7.059c0 3.655-2.963 6.618-6.618 6.618z" fill="#3762cc"/></g></g><g><g><path d="m155.32 115.832c-3.655 0-6.618-2.963-6.618-6.618v-7.059c0-3.655 2.963-6.618 6.618-6.618 3.655 0 6.618 2.963 6.618 6.618v7.059c0 3.655-2.963 6.618-6.618 6.618z" fill="#3762cc"/></g></g><g><g><path d="m182.518 162.847c-24.828 0-46.185-16.352-52.515-39.972-.055 0-.11.001-.165.001-4.449 0-8.77-1.633-12.086-4.618-3.75-3.375-5.901-8.189-5.901-13.209 0-4.806 1.898-9.313 5.346-12.69 2.987-2.927 6.821-4.683 10.959-5.053v-2.973c0-29.714 24.386-53.889 54.361-53.889s54.361 24.175 54.361 53.889v2.973c4.139.371 7.972 2.126 10.959 5.054 3.447 3.378 5.346 7.885 5.346 12.689 0 5.02-2.15 9.834-5.899 13.208-3.358 3.022-7.77 4.662-12.253 4.618-6.329 23.62-27.685 39.972-52.513 39.972zm-50.977-44.061c.918 0 1.731.63 1.945 1.542 5.338 22.679 25.501 38.519 49.031 38.519s43.692-15.84 49.031-38.519c.231-.98 1.151-1.639 2.157-1.531 3.979.423 7.954-.86 10.903-3.514 2.907-2.616 4.575-6.346 4.575-10.234 0-3.721-1.472-7.213-4.145-9.833-2.7-2.645-6.29-4.062-10.12-3.982-.565.018-1.057-.195-1.44-.571-.384-.376-.6-.891-.6-1.429v-4.903c0-27.509-22.592-49.889-50.361-49.889s-50.361 22.38-50.361 49.889v4.903c0 .538-.216 1.052-.6 1.429-.385.376-.913.59-1.44.571-3.807-.068-7.42 1.336-10.12 3.981-2.673 2.62-4.146 6.112-4.146 9.833 0 3.888 1.668 7.619 4.577 10.236 2.948 2.652 6.919 3.935 10.901 3.512.072-.007.143-.01.213-.01z" fill="#3762cc"/></g></g><g><g><path d="m163.309 121.295h-15.964c-6.065 0-11-4.935-11-11v-13.223c0-3.86 3.14-7 7-7h23.964c3.86 0 7 3.14 7 7v13.223c0 6.066-4.934 11-11 11zm-19.964-27.223c-1.654 0-3 1.346-3 3v13.223c0 3.86 3.14 7 7 7h15.964c3.86 0 7-3.14 7-7v-13.223c0-1.654-1.346-3-3-3z" fill="#3762cc"/></g></g><g><g><path d="m217.69 121.295h-15.964c-6.065 0-11-4.935-11-11v-13.223c0-3.86 3.14-7 7-7h23.964c3.86 0 7 3.14 7 7v13.223c0 6.066-4.935 11-11 11zm-19.964-27.223c-1.654 0-3 1.346-3 3v13.223c0 3.86 3.14 7 7 7h15.964c3.86 0 7-3.14 7-7v-13.223c0-1.654-1.346-3-3-3z" fill="#3762cc"/></g></g><g><g><path d="m192.726 107.684h-20.417c-1.104 0-2-.896-2-2s.896-2 2-2h20.417c1.104 0 2 .896 2 2s-.896 2-2 2z" fill="#3762cc"/></g></g><g><g><path d="m211.067 106.829c-.512 0-1.024-.195-1.414-.586-.781-.781-.781-2.047 0-2.828l6.563-6.563c.78-.781 2.048-.781 2.828 0 .781.781.781 2.047 0 2.828l-6.563 6.563c-.39.391-.902.586-1.414.586z" fill="#3762cc"/></g></g><g><g><path d="m153.944 106.829c-.512 0-1.024-.195-1.414-.586l-6.563-6.563c-.781-.781-.781-2.047 0-2.828.78-.781 2.048-.781 2.828 0l6.563 6.563c.781.781.781 2.047 0 2.828-.39.391-.902.586-1.414.586z" fill="#3762cc"/></g></g><g><g><path d="m124.021 84.964v-8.497c0-32.126 26.044-58.17 58.17-58.17h.326v8.171c0 32.307-26.189 58.496-58.496 58.496z" fill="#4671c6"/></g></g><g><g><path d="m124.021 86.964c-1.104 0-2-.896-2-2v-8.497c0-33.178 26.992-60.17 60.17-60.17h.326c1.104 0 2 .896 2 2v8.17c.001 33.359-27.138 60.497-60.496 60.497zm56.497-66.642c-30.202.888-54.497 25.733-54.497 56.146v6.462c30.23-1.057 54.497-25.979 54.497-56.461z" fill="#3762cc"/></g></g><g><g><path d="m240.355 84.964h-63.828c-16.847 0-30.504-13.657-30.504-30.504 0-19.972 16.19-36.162 36.162-36.162 32.126 0 58.17 26.044 58.17 58.17z" fill="#4671c6"/></g></g><g><g><path d="m240.354 86.964h-63.828c-17.923 0-32.504-14.582-32.504-32.504 0-10.901 4.679-21.307 12.838-28.549 6.983-6.199 15.977-9.613 25.324-9.613 33.178 0 60.17 26.992 60.17 60.17v8.497c0 1.104-.895 1.999-2 1.999zm-58.169-66.666c-8.368 0-16.418 3.056-22.669 8.604-7.304 6.484-11.494 15.799-11.494 25.558 0 15.717 12.787 28.504 28.504 28.504h61.828v-6.497c0-30.971-25.197-56.169-56.169-56.169z" fill="#3762cc"/></g></g><g><g><path d="m222.976 235.399h-19.686c-2.206 0-4-1.794-4-4v-13c0-2.206 1.794-4 4-4h19.686c2.206 0 4 1.794 4 4v13c0 2.205-1.795 4-4 4zm-19.686-17v13h19.688l-.002-13z" fill="#3762cc"/></g></g></g><g><g><path d="m134.668 233.399h-124.668c-3.866 0-7-3.134-7-7v-86.105c0-3.866 3.134-7 7-7h124.668c3.866 0 7 3.134 7 7v86.105c0 3.866-3.134 7-7 7z" fill="#a4c9ff"/></g></g><g><g><path d="m107.1 241.37h-69.532c-2.209 0-4 1.791-4 4v3.63c0 2.209 1.791 4 4 4h69.532c2.209 0 4-1.791 4-4v-3.63c0-2.209-1.791-4-4-4z" fill="#a4c9ff"/></g></g><g><g><path d="m102.795 86.333h-60.922c-2.761 0-5-2.239-5-5v-73.333c0-2.761 2.239-5 5-5h60.922c2.761 0 5 2.239 5 5v73.333c0 2.762-2.239 5-5 5z" fill="#e0ebfc"/></g></g><g><g><path d="m68.584 38.869h-20.5c-1.105 0-2-.895-2-2v-24c0-1.105.895-2 2-2h20.5c1.105 0 2 .895 2 2v24c0 1.105-.896 2-2 2z" fill="#a4c9ff"/></g></g><g><g><path d="m98.584 32.667h-22.834c-1.104 0-2-.896-2-2s.896-2 2-2h22.833c1.104 0 2 .896 2 2s-.895 2-1.999 2z" fill="#3762cc"/></g></g><g><g><path d="m98.584 50.667h-52.5c-1.104 0-2-.896-2-2s.896-2 2-2h52.5c1.104 0 2 .896 2 2s-.896 2-2 2z" fill="#3762cc"/></g></g><g><g><path d="m98.584 62.667h-52.5c-1.104 0-2-.896-2-2s.896-2 2-2h52.5c1.104 0 2 .896 2 2s-.896 2-2 2z" fill="#3762cc"/></g></g><g><g><path d="m98.584 74.667h-52.5c-1.104 0-2-.896-2-2s.896-2 2-2h52.5c1.104 0 2 .896 2 2s-.896 2-2 2z" fill="#3762cc"/></g></g><g><g><path d="m134.667 235.399h-124.667c-4.962 0-9-4.038-9-9v-86.105c0-4.962 4.038-9 9-9h124.667c4.962 0 9 4.038 9 9v86.105c0 4.962-4.037 9-9 9zm-124.667-100.106c-2.757 0-5 2.243-5 5v86.105c0 2.757 2.243 5 5 5h124.667c2.757 0 5-2.243 5-5v-86.105c0-2.757-2.243-5-5-5z" fill="#3762cc"/></g></g><g><g><path d="m107.1 255h-69.532c-3.309 0-6-2.691-6-6v-3.63c0-3.309 2.691-6 6-6h69.532c3.309 0 6 2.691 6 6v3.63c0 3.309-2.692 6-6 6zm-69.532-11.63c-1.103 0-2 .897-2 2v3.63c0 1.103.897 2 2 2h69.532c1.103 0 2-.897 2-2v-3.63c0-1.103-.897-2-2-2z" fill="#3762cc"/></g></g><g><g><path d="m91.717 241.37h-38.766v-59.287c0-2.761 2.239-5 5-5h28.766c2.761 0 5 2.239 5 5z" fill="#a4c9ff"/></g></g><g><g><path d="m91.717 243.37h-38.766c-1.104 0-2-.896-2-2v-59.287c0-3.86 3.14-7 7-7h28.766c3.86 0 7 3.14 7 7v59.287c0 1.105-.896 2-2 2zm-36.766-4h34.766v-57.287c0-1.654-1.346-3-3-3h-28.766c-1.654 0-3 1.346-3 3z" fill="#3762cc"/></g></g><g><g><path d="m102.795 88.333h-60.922c-3.86 0-7-3.14-7-7v-73.333c0-3.86 3.14-7 7-7h60.922c3.86 0 7 3.14 7 7v73.333c0 3.86-3.14 7-7 7zm-60.922-83.333c-1.654 0-3 1.346-3 3v73.333c0 1.654 1.346 3 3 3h60.922c1.654 0 3-1.346 3-3v-73.333c0-1.654-1.346-3-3-3z" fill="#3762cc"/></g></g></g></svg>