<svg id="Layer_1" enable-background="new 0 0 512 512" height="512" viewBox="0 0 512 512" width="512" xmlns="http://www.w3.org/2000/svg"><g clip-rule="evenodd" fill-rule="evenodd"><path d="m57.76 384.13h68.36v111.87h-68.36z" fill="#05e39c"/><path d="m167.14 307.89h68.36v188.11h-68.36z" fill="#ffe177"/><path d="m276.51 356.11h68.36v139.89h-68.36z" fill="#2fb1d4"/><path d="m385.88 269.4h68.36v226.6h-68.36z" fill="#ff5a5a"/><circle cx="91.94" cy="307.52" fill="#05e39c" r="27.12"/><ellipse cx="201.31" cy="208.42" fill="#ffe177" rx="27.12" ry="27.12" transform="matrix(.189 -.982 .982 .189 -41.411 366.685)"/><ellipse cx="310.69" cy="274.15" fill="#2fb1d4" rx="27.12" ry="27.12" transform="matrix(.996 -.087 .087 .996 -22.729 28.145)"/><ellipse cx="420.06" cy="171.46" fill="#ff5a5a" rx="27.12" ry="27.12" transform="matrix(.924 -.383 .383 .924 -33.641 173.801)"/><circle cx="93.6" cy="93.6" fill="#2fb1d4" r="77.6"/><path d="m93.6 16c42.86 0 77.6 34.74 77.6 77.6h-77.6z" fill="#ff5a5a"/><path d="m171.2 93.6c-.02 24.07-11.2 47.79-32.22 62.95l-45.38-62.95h25.98z" fill="#ffe177"/><path d="m247.07 36.38h50.13v37.98h-50.13z" fill="#2fb1d4"/><path d="m247.07 103.81h50.13v37.98h-50.13z" fill="#ff5a5a"/><path d="m253.07 109.81h38.13v25.98h-38.13zm-6 37.98h50.13c3.31 0 6-2.69 6-6v-37.98c0-3.31-2.69-6-6-6h-50.13c-3.32 0-6 2.69-6 6v37.98c0 3.31 2.68 6 6 6zm72.22-12.33c0-3.31 2.69-6 6-6h32.88c3.31 0 6 2.69 6 6 0 3.32-2.69 6-6 6h-32.88c-3.31 0-6-2.68-6-6zm0-25.33c0-3.32 2.69-6 6-6h75.56c3.32 0 6 2.68 6 6 0 3.31-2.68 6-6 6h-75.56c-3.31 0-6-2.69-6-6zm-66.22-67.75h38.13v25.98h-38.13zm-6 37.98h50.13c3.31 0 6-2.69 6-6v-37.98c0-3.31-2.69-6-6-6h-50.13c-3.32 0-6 2.69-6 6v37.98c0 3.31 2.68 6 6 6zm72.22-12.32c0-3.31 2.69-6 6-6h32.88c3.31 0 6 2.69 6 6s-2.69 6-6 6h-32.88c-3.31 0-6-2.69-6-6zm0-25.34c0-3.32 2.69-6 6-6h75.56c3.32 0 6 2.69 6 6s-2.68 6-6 6h-75.56c-3.31 0-6-2.68-6-6zm-231.69-20.43v71.33c0 1.3.42 2.52 1.14 3.51h-.01l41.71 57.86c-10.77 6.49-23.37 10.23-36.84 10.23-39.48 0-71.6-32.12-71.6-71.6 0-37.46 28.92-68.27 65.6-71.33zm12-.02v65.35h65.35c-2.89-34.71-30.64-62.46-65.35-65.35zm40.56 125.68c13.89-11.92 23.16-29.05 24.77-48.33h-59.61zm-46.56 29.27c46.1 0 83.6-37.5 83.6-83.6s-37.5-83.6-83.6-83.6-83.6 37.5-83.6 83.6 37.5 83.6 83.6 83.6zm107.71 10.09c11.65 0 21.13 9.48 21.13 21.12s-9.48 21.12-21.13 21.12c-11.64 0-21.12-9.48-21.12-21.12s9.48-21.12 21.12-21.12zm-109.37 141.35c-11.64 0-21.12-9.48-21.12-21.12s9.48-21.12 21.12-21.12c11.65 0 21.13 9.48 21.13 21.12 0 11.65-9.48 21.12-21.13 21.12zm218.75-75.61c11.64 0 21.12 9.48 21.12 21.12 0 11.65-9.48 21.12-21.12 21.12-11.65 0-21.13-9.47-21.13-21.12 0-11.64 9.48-21.12 21.13-21.12zm109.37-102.69c11.64 0 21.12 9.48 21.12 21.12 0 11.65-9.48 21.12-21.12 21.12-11.65 0-21.13-9.47-21.13-21.12 0-11.64 9.48-21.12 21.13-21.12zm-246.9 75.49c-3.15-5.06-4.97-11.03-4.97-17.42 0-18.26 14.86-33.12 33.12-33.12 18.27 0 33.13 14.86 33.13 33.12 0 4.09-.76 8.02-2.12 11.64l53.56 32.19c6.07-6.87 14.94-11.21 24.81-11.21 7.34 0 14.13 2.4 19.62 6.46l61.91-58.12c-3.34-5.17-5.29-11.31-5.29-17.91 0-18.27 14.86-33.12 33.13-33.12 18.26 0 33.12 14.86 33.12 33.12 0 18.27-14.86 33.12-33.12 33.12-7.35 0-14.13-2.4-19.63-6.46l-61.9 58.12c3.33 5.17 5.28 11.31 5.28 17.91 0 18.26-14.86 33.12-33.12 33.12-18.27 0-33.13-14.86-33.13-33.12 0-4.09.75-8.02 2.12-11.64l-53.56-32.19c-6.07 6.87-14.94 11.21-24.81 11.21-7.55 0-14.51-2.54-20.09-6.82l-61.12 55.39c3.14 5.06 4.97 11.03 4.97 17.42 0 18.27-14.86 33.12-33.13 33.12-18.26 0-33.12-14.86-33.12-33.12s14.86-33.12 33.12-33.12c7.56 0 14.52 2.54 20.1 6.81zm-109.39 164.3h56.35v99.87h-56.35zm109.37-76.24v176.11h56.35v-176.11zm109.37 48.22h56.35v127.89h-56.35zm109.37-86.71v214.6h56.35v-214.6zm104.12 214.6h-35.77v-220.6c0-3.31-2.68-6-6-6h-68.35c-3.32 0-6 2.69-6 6v220.6h-29.02v-133.89c0-3.31-2.68-6-6-6h-68.35c-3.32 0-6 2.69-6 6v133.89h-29.02v-182.11c0-3.31-2.68-6-6-6h-68.35c-3.32 0-6 2.69-6 6v182.11h-29.02v-105.87c0-3.32-2.68-6-6-6h-68.35c-3.32 0-6 2.68-6 6v105.87h-35.77c-3.31 0-6 2.69-6 6s2.69 6 6 6h480c3.31 0 6-2.69 6-6s-2.69-6-6-6z" fill="#222124"/></g></svg>