<svg xmlns="http://www.w3.org/2000/svg" viewBox="39.58 13 420.83 446.53"><g fill-rule="evenodd" clip-rule="evenodd"><path fill="#f0b16e" d="M140.096 452.489H46.575V304.228c2.935 1.552 5.351 4.014 6.951 7.205l25.04 49.925h96.328zm219.738 0h93.521V304.228c-2.935 1.552-5.351 4.014-6.951 7.205l-25.04 49.925h-96.328z"></path><path fill="#88c8fe" d="M160.82 256.409c-13.19-9.212-25.995-3.842-36.155 4.899-13.015 11.197-35.639 47.434-43.677 64.202-6.431 13.417-10.198 27.592-2.422 35.848 11.566 12.279 38.746 8.795 54.738 8.795 4.602 0 11.458-.863 14.849 2.621 4.975 5.109.507 13.121-1.365 18.738l-15.483 46.448h29.06l28.972-57.944c5.982-11.964 3.507-25.725-13.367-31.905l-39.376-14.42 18.928-26.499 19.786 13.191c6.315 4.21 12.83 6.183 20.42 6.183h56.66c-2.085-4.825 21.461-24.356 5.621-25.532l-49.029-3.64c-24.559-1.824-36.064-32.537-48.16-40.985"></path><circle cx="168.202" cy="234.311" r="21.795" fill="#f0b16e" transform="rotate(-45 168.202 234.311)"></circle><path fill="#19cfba" d="M339.11 256.409c14.018-7.897 25.995-3.842 36.154 4.899 13.015 11.197 35.639 47.434 43.677 64.202 6.431 13.417 10.198 27.592 2.422 35.848-11.566 12.279-38.746 8.795-54.738 8.795-4.602 0-11.458-.863-14.849 2.621-4.975 5.109-.507 13.121 1.365 18.738l15.483 46.448h-29.06l-28.972-57.944c-5.982-11.964-6.864-26.713 10.342-31.899l43.368-13.073-19.895-27.852-19.786 13.191c-6.315 4.21-12.83 6.183-20.42 6.183h-44.394c-6.111 0-18.405-.157-18.405-6.268v-8.266c0-6.111 5-11.111 11.111-11.111 16.225 0 18.934.434 35.67.434 9.225 0 18.489-1.435 24.394-8.522 8.961-10.752 19.505-32.464 26.533-36.424"></path><circle cx="327.519" cy="234.765" r="21.795" fill="#f0b16e" transform="rotate(-76.53 327.558 234.763)"></circle><g fill="#ffbf31"><circle cx="249.965" cy="130.614" r="83.166" transform="rotate(-45 249.965 130.614)"></circle><path d="M183.213 452.489h-47.395a6.764 6.764 0 0 1-6.563-8.499l4.007-15.327a4.83 4.83 0 0 1 5.436-3.562l45.562 7.118a6.745 6.745 0 0 1 5.736 6.702v6.784c0 3.737-3.047 6.784-6.783 6.784M316.671 452.489h47.395a6.764 6.764 0 0 0 6.563-8.499l-4.007-15.327a4.83 4.83 0 0 0-5.436-3.562l-45.562 7.118a6.745 6.745 0 0 0-5.736 6.702v6.784c-.001 3.737 3.047 6.784 6.783 6.784"></path></g><path fill="#1e2f3f" d="M207.657 133.706c-2.128-3.25-1.182-7.594 2.068-9.698 3.25-2.092 7.624-1.158 9.692 2.098l13.593 21.086 48.755-39.022c3.014-2.411 7.446-1.927 9.869 1.105 2.423 3.014 1.95 7.429-1.064 9.851l-54.842 43.868c-3.255 2.552-8.009 1.873-10.283-1.672zm42.313-79.214c-41.959 0-76.117 34.158-76.117 76.159 0 41.983 34.158 76.147 76.117 76.147 42.018 0 76.176-34.164 76.176-76.147.001-42.001-34.157-76.159-76.176-76.159m0 166.329c49.76 0 90.182-40.452 90.182-90.17 0-49.73-40.423-90.182-90.182-90.182-49.701 0-90.182 40.452-90.182 90.182 0 49.718 40.482 90.17 90.182 90.17M64.464 263.979V130.65c0-3.883 3.191-7.015 7.033-7.015h50.173l-5.496-5.496c-2.718-2.742-2.718-7.186 0-9.922 2.778-2.742 7.21-2.742 9.928 0l17.493 17.469v.036c2.706 2.253 2.62 7.661 0 9.846v.035l-17.493 17.469c-2.749 2.753-7.157 2.728-9.928 0-2.718-2.736-2.718-7.18 0-9.922l5.496-5.49H78.529v126.32a7.015 7.015 0 0 1-7.032 7.015c-3.842-.001-7.033-3.145-7.033-7.016M355.932 126.2l17.906-17.983c2.778-2.742 7.21-2.742 9.928 0a6.95 6.95 0 0 1 0 9.922l-5.496 5.496h50.174c3.9 0 7.032 3.132 7.032 7.015v133.329a7.015 7.015 0 0 1-7.032 7.015c-3.841 0-6.974-3.144-6.974-7.015v-126.32h-43.2l5.496 5.49c4.515 4.484 1.185 11.979-4.964 11.979-1.773 0-3.546-.691-4.964-2.056l-17.906-17.983c-1.482-2.109-1.969-3.769-1.3-6.477.218-.885.796-1.708 1.3-2.412m90.418 319.302h-68.435c-.059-1.076-.177-2.169-.473-3.256l-4.018-15.33c-.532-1.944-1.478-3.658-2.778-5.041l-10.815-32.551c-.815-2.476-4.359-10.471-3.073-11.589 1.063-.923 7.631-.544 9.869-.544 19.11 0 45.991 3.748 59.865-10.992 2.955-3.138 4.669-6.708 5.555-10.436l14.302-28.532zm-86.518 0h3.96l-3.428-13.137-43.437 6.784v6.353zm-42.964-68.588 22.28 44.559 15.779-2.458-8.392-25.258c-.296-.786-.65-1.72-1.005-2.707-2.246-5.862-6.028-15.673 1.241-23.142 5.023-5.13 12.351-4.929 17.729-4.775l11.347.248c13.533.449 31.971 1.052 39.772-6.17l2.955-5.91c.886-6.435-2.423-15.448-5.91-22.735-8.333-17.363-30.435-52.011-41.959-61.916-9.692-8.339-18.379-9.603-28.13-4.101-2.6 1.466-8.628 10.998-12.588 17.298-3.959 6.264-8.037 12.747-11.997 17.505-8.274 9.905-20.92 11.045-29.785 11.045-16.63 0-19.395-.431-35.695-.431-2.187 0-4.078 1.873-4.078 4.095v6.512c1.418.467 4.551 1.011 11.406 1.011h44.382c6.264 0 11.347-1.548 16.547-5.006l19.797-13.196c3.132-2.092 7.387-1.318 9.574 1.761l19.916 27.859c2.766 3.889.86 9.413-3.723 10.791l-43.377 13.072c-4.432 1.335-7.21 3.374-8.392 6.223-1.653 3.794-.826 9.562 2.306 15.826m-137.637-62.336c5.201 3.457 10.283 5.006 16.488 5.006h38.709c0-4.269-.377-9.375.886-13.167l-26.83-2.003c-28.324-2.106-41.197-34.909-51.651-42.219-5.319-3.705-13.947-7.281-27.598 4.456-11.465 9.905-33.567 44.553-41.9 61.916-3.487 7.287-6.855 16.311-5.969 22.735l2.955 5.91c7.86 7.228 26.239 6.619 39.772 6.17 3.31-.112 6.383-.213 9.219-.213 6.06 0 14.288-1.025 19.916 4.74 7.269 7.47 3.487 17.28 1.241 23.142-.355.987-.709 1.921-1.005 2.707l-8.392 25.264 15.72 2.464 22.28-44.583c5.13-10.262 1.331-18.21-9.515-22.179l-39.359-14.42c-4.468-1.629-5.855-7.053-3.309-10.661l18.97-26.499c2.187-3.079 6.442-3.853 9.574-1.761zm3.782 130.924h-46.864l3.428-13.137 43.436 6.784zM53.591 327.231l14.36 28.532c.827 3.729 2.6 7.298 5.555 10.436 13.875 14.742 40.759 10.992 59.806 10.992 2.291 0 8.781-.379 9.81.508 1.364 1.175-2.021 8.79-2.955 11.624l-10.815 32.48c-1.359 1.4-2.364 3.126-2.837 5.112l-4.019 15.336c-.295 1.081-.414 2.175-.473 3.25H53.591zm114.648-107.669c8.155 0 14.774 6.631 14.774 14.786 0 8.144-6.619 14.774-14.774 14.774-8.156 0-14.774-6.631-14.774-14.774 0-8.155 6.618-14.786 14.774-14.786m144.492 15.229c0-8.144 6.678-14.774 14.833-14.774 8.097 0 14.775 6.631 14.775 14.774 0 8.156-6.678 14.786-14.775 14.786-8.154 0-14.833-6.63-14.833-14.786m144.257 63.459c2.128 1.276 3.428 3.546 3.428 6.004v148.263c0 3.871-3.191 7.015-7.033 7.015H316.691c-7.624 0-13.77-6.188-13.77-13.793v-6.79c0-6.843 4.905-12.576 11.642-13.634l10.046-1.572-20.27-40.564c-8.64-17.234-5.83-35.593 14.597-41.752l33.981-10.241-10.224-14.361-14.183 9.426c-7.387 4.952-15.365 7.358-24.289 7.358H259.84c-2.009 0-4.019-.03-6.087-.148a6.2 6.2 0 0 1-1.359.148H195.72c-8.924 0-16.843-2.405-24.289-7.358l-14.124-9.426-9.633 13.474 30.73 11.258c11.938 4.361 16.961 11.654 19.089 17.014 2.955 7.517 2.305 16.258-1.832 24.608l-20.329 40.576 10.047 1.56c6.737 1.058 11.642 6.79 11.642 13.634v6.79c0 7.606-6.146 13.793-13.77 13.793H46.617a7.015 7.015 0 0 1-7.032-7.015V304.254c0-5.278 5.62-8.662 10.283-6.199a23.1 23.1 0 0 1 9.928 10.271l11.287 22.433c7.086-18.905 34.519-62.232 49.051-74.74 7.032-6.075 14.301-9.721 21.393-10.921-7.68-18.799 6.275-39.566 26.712-39.566 15.838 0 28.78 12.925 28.78 28.816 0 13.267-8.983 24.46-21.216 27.788 8.993 11.744 18.851 27.187 33.744 28.29l47.396 3.528c5.614.024 9.515.118 13.297.201 4.728.106 9.633.218 17.965.218 9.692 0 15.543-1.855 19.029-5.998 4.381-5.236 12.125-18.137 16.725-25.004-14.183-1.785-25.235-13.911-25.235-28.579 0-15.873 12.942-28.798 28.839-28.798 20.082 0 34.122 20.197 26.83 39.264 7.682.095 16.37 2.919 25.471 10.761 14.301 12.316 37.527 50.049 45.446 66.49.887 1.891 2.246 4.781 3.605 8.25l11.229-22.433c2.246-4.462 5.673-8.008 9.987-10.271 2.129-1.141 4.788-1.076 6.857.195"></path></g></svg>