<svg xmlns="http://www.w3.org/2000/svg" xml:space="preserve" viewBox="0.35 0 511.3 512"><path d="M242.757 6.452.351 202.324v36.503h511.298v-36.503L269.243 6.452a21.07 21.07 0 0 0-26.486 0" style="fill:#ff9102"></path><linearGradient id="a" x1="61.447" x2="522.057" y1="491.336" y2="30.717" gradientTransform="matrix(1.0667 0 0 -1.0667 3.267 557.533)" gradientUnits="userSpaceOnUse"><stop offset="0" style="stop-color:#fff"></stop><stop offset="1" style="stop-color:#e8efee"></stop></linearGradient><path d="M469.509 441.27H42.491c-11.636 0-21.07-9.434-21.07-21.07V21.07C21.421 9.434 30.854 0 42.491 0h427.018c11.636 0 21.07 9.434 21.07 21.07v399.131c0 11.637-9.433 21.069-21.07 21.069" style="fill:url(#a)"></path><linearGradient id="b" x1="460.683" x2="-4.007" y1="143.278" y2="105.868" gradientTransform="matrix(1.0667 0 0 -1.0667 3.267 557.533)" gradientUnits="userSpaceOnUse"><stop offset="0" style="stop-color:#c2cece;stop-opacity:0"></stop><stop offset=".179" style="stop-color:#afbcbc;stop-opacity:.179"></stop><stop offset="1" style="stop-color:#5b6a6a"></stop></linearGradient><path d="M490.579 408.463v8.202c0 13.583-11.024 24.606-24.606 24.606H46.028c-13.583 0-24.606-11.024-24.606-24.606v-8.202z" style="fill:url(#b)"></path><path d="M120.448 66.72h271.104v15.452H120.448zM120.448 128.523h271.104v15.452H120.448zM120.448 191.733h271.104v15.452H120.448zM120.448 254.944h271.104v15.452H120.448z" style="fill:#c2cece"></path><linearGradient id="c" x1="461.628" x2="353.618" y1="285.998" y2="394.008" gradientTransform="matrix(1.0667 0 0 -1.0667 3.267 557.533)" gradientUnits="userSpaceOnUse"><stop offset="0" style="stop-color:#c2cece;stop-opacity:0"></stop><stop offset=".179" style="stop-color:#afbcbc;stop-opacity:.179"></stop><stop offset="1" style="stop-color:#5b6a6a"></stop></linearGradient><path d="M425.262 208.593c-21.018 0-40.277-7.513-55.254-19.99l-5.849 1.027 126.42 126.42V178.707c-15.84 18.295-39.218 29.886-65.317 29.886" style="fill:url(#c)"></path><linearGradient id="d" x1="236.938" x2="236.938" y1="240.377" y2="62.468" gradientTransform="matrix(1.0667 0 0 -1.0667 3.267 557.533)" gradientUnits="userSpaceOnUse"><stop offset="0" style="stop-color:#ffc200"></stop><stop offset=".268" style="stop-color:#fb0"></stop><stop offset=".659" style="stop-color:#ffa801"></stop><stop offset="1" style="stop-color:#ff9102"></stop></linearGradient><path d="M511.649 202.791V490.93c0 11.631-9.439 21.07-21.07 21.07H21.421C9.79 512 .351 502.561.351 490.93V202.791l258.459 203.86z" style="fill:url(#d)"></path><linearGradient id="e" x1="237.879" x2="237.879" y1="104.578" y2="42.858" gradientTransform="matrix(1.0667 0 0 -1.0667 3.267 557.533)" gradientUnits="userSpaceOnUse"><stop offset="0" style="stop-color:#ffc200"></stop><stop offset=".268" style="stop-color:#fb0"></stop><stop offset=".659" style="stop-color:#ffa801"></stop><stop offset="1" style="stop-color:#ff9102"></stop></linearGradient><path d="M508.807 501.465 272.034 310.559a21.07 21.07 0 0 0-26.45 0L5.201 504.375c3.866 4.657 9.695 7.625 16.22 7.625h469.157c7.795 0 14.585-4.243 18.229-10.535" style="fill:url(#e)"></path><linearGradient id="f" x1="361.864" x2="429.014" y1="481.957" y2="321.966" gradientTransform="matrix(1.0667 0 0 -1.0667 3.267 557.533)" gradientUnits="userSpaceOnUse"><stop offset="0" style="stop-color:#d63305"></stop><stop offset=".366" style="stop-color:#cf3004"></stop><stop offset=".899" style="stop-color:#bc2602"></stop><stop offset="1" style="stop-color:#b72401"></stop></linearGradient><circle cx="425.259" cy="129.227" r="86.387" style="fill:url(#f)"></circle><path d="M405.781 94.628q0-4.203 3.395-6.629l16.816-16.169q1.777-1.778 4.366-1.779 2.91 0 5.254 1.536 2.344 1.538 2.345 4.123v107.037q-.001 2.589-2.587 4.124-2.587 1.537-5.982 1.536-3.559 0-6.063-1.536-2.508-1.535-2.507-4.124V92.848l-5.659 7.115q-1.616 1.617-3.557 1.617-2.425 0-4.124-2.182-1.697-2.183-1.697-4.77" style="fill:#fff"></path><linearGradient id="g" x1="125.283" x2="-211.817" y1="427.493" y2="764.583" gradientTransform="matrix(1.0667 0 0 -1.0667 3.267 557.533)" gradientUnits="userSpaceOnUse"><stop offset="0" style="stop-color:#c2cece;stop-opacity:0"></stop><stop offset=".179" style="stop-color:#afbcbc;stop-opacity:.179"></stop><stop offset="1" style="stop-color:#5b6a6a"></stop></linearGradient><path d="M27.99 426.77V27.638c0-11.636 9.434-21.07 21.07-21.07h427.018c4.135 0 7.98 1.209 11.234 3.267C483.579 3.932 477.01 0 469.509 0H42.491c-11.636 0-21.07 9.434-21.07 21.07v399.131c0 7.502 3.932 14.07 9.836 17.804a20.95 20.95 0 0 1-3.267-11.235" style="fill:url(#g)"></path></svg>