<svg xmlns="http://www.w3.org/2000/svg" width="512" height="512"><g fill-rule="evenodd" clip-rule="evenodd"><path fill="#62a4fb" d="M256 271.662c-25.549 0-46.838 19.172-50.19 43.84a5.98 5.98 0 0 0 5.948 6.811h88.484a5.98 5.98 0 0 0 5.948-6.811c-3.352-24.668-24.641-43.84-50.19-43.84zm0-64.749c-15.118 0-27.375 12.256-27.375 27.375 0 15.118 12.257 27.374 27.375 27.374s27.375-12.256 27.375-27.374c0-15.119-12.256-27.375-27.375-27.375z"/><path fill="#7ed0ed" d="m396.491 383.822-33.105 33.104 50.869 50.869c9.104 9.104 24.002 9.104 33.104 0 9.104-9.104 9.104-24 .001-33.104zm-49.386-107.386c0 50.316-40.788 91.105-91.104 91.105s-91.105-40.789-91.105-91.105c0-50.314 40.789-91.104 91.105-91.104s91.104 40.789 91.104 91.104zm27.582 0c0 28.008-9.705 53.744-25.931 74.041l19.274 19.273 7.194-7.193 9.953 9.951-33.105 33.105-9.952-9.951 7.194-7.195-19.274-19.273c-20.299 16.223-46.034 25.93-74.04 25.93-65.549 0-118.687-53.139-118.687-118.688 0-65.547 53.138-118.685 118.687-118.685s118.687 53.138 118.687 118.685z"/><path fill="#eb3b48" d="M379.108 331.131h117.02a6.976 6.976 0 0 0 6.965-7.74c-3.898-36.797-35.26-65.715-73.048-65.715-14.53 0-28.111 4.275-39.546 11.633.123 2.359.188 4.736.188 7.127 0 19.474-4.142 37.98-11.579 54.695zm50.936-83.455c21.926 0 39.7-17.774 39.7-39.7s-17.774-39.7-39.7-39.7-39.7 17.774-39.7 39.7 17.775 39.7 39.7 39.7z"/><path fill="#fad808" d="M375.652 195.944c4.684-21.26 21.515-37.967 42.845-42.467-10.323-9.533-24.096-15.379-39.17-15.379-20.229 0-38.115 10.525-48.463 26.367a135.498 135.498 0 0 1 33.13 31.479zm-27.589-99.109c0 17.267 13.997 31.264 31.264 31.264s31.264-13.997 31.264-31.264-13.997-31.264-31.264-31.264-31.264 13.997-31.264 31.264z"/><path fill="#22c269" d="M312.18 154.001c-6.213-25.234-29.099-44.097-56.18-44.097-27.082 0-49.967 18.862-56.18 44.097 17.1-7.862 36.127-12.25 56.18-12.25s39.08 4.388 56.18 12.25zM256 99.904c17.267 0 31.264-13.997 31.264-31.263 0-17.268-13.997-31.265-31.264-31.265s-31.264 13.997-31.264 31.265c.001 17.266 13.998 31.263 31.264 31.263z"/><path fill="#fad808" d="M181.137 164.466c-10.348-15.842-28.235-26.367-48.464-26.367-15.073 0-28.847 5.846-39.169 15.379 21.329 4.5 38.16 21.207 42.845 42.467h11.658a135.498 135.498 0 0 1 33.13-31.479zm-48.464-36.367c17.267 0 31.264-13.997 31.264-31.264s-13.997-31.264-31.264-31.264-31.263 13.997-31.263 31.264 13.997 31.264 31.263 31.264z"/><path fill="#eb3b48" d="M81.957 257.676c-37.788 0-69.149 28.918-73.049 65.715a6.977 6.977 0 0 0 6.965 7.74h117.021c-7.438-16.715-11.579-35.221-11.579-54.695 0-2.391.065-4.768.188-7.127-11.435-7.358-25.016-11.633-39.546-11.633zm39.7-49.7c0-21.926-17.774-39.7-39.701-39.7-21.926 0-39.7 17.774-39.7 39.7s17.774 39.7 39.7 39.7 39.701-17.775 39.701-39.7z"/></g></svg>