<svg xmlns="http://www.w3.org/2000/svg" width="512" height="512"><path fill="#0996a4" d="M227.556 28.445H61.269a4.38 4.38 0 0 0-4.38 4.38v52.509l85.333 28.444 85.333-28.444V28.445z"/><path fill="#fdf6ec" d="M56.889 85.333h170.667v184.889H56.889z"/><path fill="#93d8de" d="M355.555 369.778a46.027 46.027 0 0 0 34.144-15.161c.911-13.087 6.533-25.808 16.289-35.519 30.504-30.364 63.345-78.713 63.345-141.32 0-111.5-118.39-177.778-128-177.778-9.609 0-99.556 68.386-99.556 177.778 0 61.731 33.172 110.404 63.804 141.098a55.265 55.265 0 0 1 16.083 36.019 46.028 46.028 0 0 0 33.891 14.883z"/><path fill="#75cdd5" d="M341.333 0c-.694 0-1.808.357-3.276 1.06 37.888 28 90.067 82.091 90.067 156.113 0 62.606-32.842 110.955-63.345 141.32-9.756 9.711-15.378 22.432-16.289 35.519a46.047 46.047 0 0 1-27.518 14.682 54.89 54.89 0 0 1 .693 6.2 46.027 46.027 0 0 0 68.035-.278c.911-13.087 6.533-25.808 16.289-35.519 30.504-30.364 63.345-78.713 63.345-141.32C469.333 66.278 350.943 0 341.333 0z"/><path fill="#75cdd5" d="M415.799 106.264a7.5 7.5 0 0 0-6.708-13.416c-33.521 16.76-73.547 16.76-107.068 0a7.498 7.498 0 0 0-10.062 3.354 7.499 7.499 0 0 0 3.354 10.062 133.983 133.983 0 0 0 38.448 12.388c-.787 12.159-7.875 22.909-18.891 28.418l-1.98.99-1.979-.989a34.366 34.366 0 0 1-17.714-21.502 7.501 7.501 0 0 0-14.453 4.016 49.397 49.397 0 0 0 25.458 30.902l5.333 2.667a7.5 7.5 0 0 0 6.708 0l5.335-2.667c15.655-7.828 25.788-23.019 27.109-40.25a135.962 135.962 0 0 0 31.908-2.15c11.276 13.582 24.349 35.28 24.349 62.865 0 10.09-1.514 20.113-4.5 29.791a7.5 7.5 0 0 0 7.169 9.712 7.504 7.504 0 0 0 7.165-5.291 115.956 115.956 0 0 0 5.166-34.213c0-28.444-11.768-51.257-23.417-66.87a133.305 133.305 0 0 0 19.27-7.817z"/><path fill="#2abcc8" d="M418.732 103.646a7.497 7.497 0 0 0 .421-7.444 7.482 7.482 0 0 0-4.955-3.938 173.83 173.83 0 0 1 4.534 11.382z"/><path fill="#75cdd5" d="M341.333 0c-1.403 0-4.518 1.458-8.814 4.287V23.46c0 1.366-.067 2.747-.2 4.104a7.5 7.5 0 0 0 7.473 8.229 7.502 7.502 0 0 0 7.456-6.771c.18-1.84.271-3.711.271-5.562V2.088C344.468.704 342.323 0 341.333 0z"/><path fill="#2abcc8" d="M338.058 1.06a272.373 272.373 0 0 1 9.461 7.321V2.088C344.468.704 342.323 0 341.333 0c-.694 0-1.807.357-3.275 1.06z"/><path fill="#08b865" d="m130.832 109.612-27.475 7.362-25.768-96.169a2.065 2.065 0 0 1 1.46-2.529l23.487-6.293a2.065 2.065 0 0 1 2.529 1.46z"/><path fill="#08b865" d="m130.764 109.612 27.475 7.362 26.579-99.193a2.065 2.065 0 0 0-1.46-2.529l-23.487-6.293a2.065 2.065 0 0 0-2.529 1.46z"/><path fill="#00c27a" d="M145.02 113.778h-28.444V2.065c0-1.14.924-2.065 2.065-2.065h24.315c1.14 0 2.065.924 2.065 2.065v111.713z"/><path fill="#ffc344" d="M130.798 412.445a16.294 16.294 0 0 1-16.144-14.092L80.347 146.767c-3.405-24.973 16.006-47.211 41.21-47.211h18.482c25.204 0 44.615 22.238 41.21 47.211l-34.307 251.586a16.294 16.294 0 0 1-16.144 14.092z"/><path fill="#feb237" d="M140.039 99.556h-5.295c4.519 7.709 6.612 16.953 5.296 26.606l-31.251 229.177 5.866 43.013a16.294 16.294 0 0 0 32.288 0l34.307-251.586c3.405-24.972-16.007-47.21-41.211-47.21z"/><path fill="#3e5959" d="M284.444 156.445h-56.889V5.66a5.66 5.66 0 0 1 5.66-5.66h45.569a5.66 5.66 0 0 1 5.66 5.66z"/><path fill="#ef4424" d="M207.782 496.124a21.09 21.09 0 0 1 19.291-12.568h14.705L71.111 469.333v37.41a5.256 5.256 0 0 0 5.256 5.256h120.977a5.255 5.255 0 0 0 4.808-3.132zM303.924 496.93l4.613 11.737a5.255 5.255 0 0 0 4.892 3.333h122.203a5.256 5.256 0 0 0 5.256-5.256v-37.41l-170.667 14.222h14.074a21.09 21.09 0 0 1 19.629 13.374z"/><path fill="#fd6930" d="M483.556 213.333 256 199.111 28.444 213.333l26.818 254.769c.925 8.784 8.332 15.453 17.165 15.453h367.145c8.833 0 16.241-6.669 17.165-15.453z"/><path fill="#fd5426" d="m440.461 210.64-20.627 195.954c-3.372 32.036-30.387 56.357-62.601 56.357H54.72l.542 5.151c.925 8.785 8.332 15.453 17.165 15.453h367.145c8.833 0 16.24-6.669 17.165-15.453l26.818-254.769z"/><path fill="#fdf6ec" d="M85.333 256h341.333v170.667H85.333z"/><path fill="#fef1da" d="M419.835 406.594a62.857 62.857 0 0 1-5.567 20.073h12.399v-84.978z"/><path fill="#537983" d="M137.949 405.722h-19.898a4.273 4.273 0 0 1-4.273-4.273V281.218a4.273 4.273 0 0 1 4.273-4.273h19.898a4.273 4.273 0 0 1 4.273 4.273v120.231a4.273 4.273 0 0 1-4.273 4.273zM374.051 405.722h19.898a4.273 4.273 0 0 0 4.273-4.273V281.218a4.273 4.273 0 0 0-4.273-4.273h-19.898a4.273 4.273 0 0 0-4.273 4.273v120.231a4.273 4.273 0 0 0 4.273 4.273zM251.727 373.528h-19.898a4.273 4.273 0 0 1-4.273-4.273v-88.037a4.273 4.273 0 0 1 4.273-4.273h19.898a4.273 4.273 0 0 1 4.273 4.273v88.037a4.273 4.273 0 0 1-4.273 4.273zM506.672 213.333H5.329A5.33 5.33 0 0 1 0 208.004v-46.232a5.33 5.33 0 0 1 5.329-5.329h501.343a5.33 5.33 0 0 1 5.329 5.329v46.232a5.33 5.33 0 0 1-5.329 5.329z"/><path fill="#384949" d="M248.5 0h15v156.445h-15z"/><path fill="#3e5959" d="M156.444 192.389H42.666c-4.142 0-7.5-3.357-7.5-7.5s3.358-7.5 7.5-7.5h113.778c4.142 0 7.5 3.357 7.5 7.5s-3.358 7.5-7.5 7.5zM312.889 192.389H199.111c-4.142 0-7.5-3.357-7.5-7.5s3.358-7.5 7.5-7.5h113.777c4.143 0 7.5 3.357 7.5 7.5s-3.357 7.5-7.499 7.5zM469.333 192.389H355.556c-4.143 0-7.5-3.357-7.5-7.5s3.357-7.5 7.5-7.5h113.777c4.143 0 7.5 3.357 7.5 7.5s-3.358 7.5-7.5 7.5z"/><g fill="#537983"><path d="M170.667 405.722a7.5 7.5 0 0 1-7.5-7.5V284.445c0-4.143 3.358-7.5 7.5-7.5s7.5 3.357 7.5 7.5v113.777a7.5 7.5 0 0 1-7.5 7.5zM199.111 377.278a7.5 7.5 0 0 1-7.5-7.5v-85.333c0-4.143 3.358-7.5 7.5-7.5s7.5 3.357 7.5 7.5v85.333a7.5 7.5 0 0 1-7.5 7.5zM284.444 377.278a7.499 7.499 0 0 1-7.5-7.5v-85.333c0-4.143 3.357-7.5 7.5-7.5s7.5 3.357 7.5 7.5v85.333a7.5 7.5 0 0 1-7.5 7.5zM312.889 377.278a7.499 7.499 0 0 1-7.5-7.5v-85.333c0-4.143 3.357-7.5 7.5-7.5s7.5 3.357 7.5 7.5v85.333a7.5 7.5 0 0 1-7.5 7.5zM341.333 405.722a7.499 7.499 0 0 1-7.5-7.5V284.445c0-4.143 3.357-7.5 7.5-7.5s7.5 3.357 7.5 7.5v113.777a7.5 7.5 0 0 1-7.5 7.5zM312.889 405.722h-14.222c-4.143 0-7.5-3.357-7.5-7.5s3.357-7.5 7.5-7.5h14.222c4.143 0 7.5 3.357 7.5 7.5s-3.358 7.5-7.5 7.5zM270.223 405.722H256c-4.142 0-7.5-3.357-7.5-7.5s3.358-7.5 7.5-7.5h14.223c4.143 0 7.5 3.357 7.5 7.5s-3.358 7.5-7.5 7.5zM227.556 405.722h-28.444c-4.142 0-7.5-3.357-7.5-7.5s3.358-7.5 7.5-7.5h28.444c4.142 0 7.5 3.357 7.5 7.5s-3.358 7.5-7.5 7.5z"/></g></svg>