<svg xmlns="http://www.w3.org/2000/svg" width="512" height="512"><path fill="#00f2a6" d="M397.511 142.902h13.406a3.132 3.132 0 0 1 3.132 3.132V303h15.401c3.396 0 6.675 1.233 9.229 3.473l32.794 28.751V146.033a3.132 3.132 0 0 1 3.131-3.132h12.77c2.648 0 4.101-3.083 2.415-5.125L445.16 83.711a3.132 3.132 0 0 0-4.817-.016l-45.234 54.065c-1.705 2.039-.256 5.142 2.402 5.142z"/><path fill="#05e39c" d="M397.511 142.902h13.406a3.132 3.132 0 0 1 3.132 3.132V303h15.401c3.396 0 6.675 1.233 9.229 3.473l.094.083V135.348c0-2.417.85-4.757 2.401-6.61l20.715-24.76-16.729-20.267a3.131 3.131 0 0 0-4.817-.016l-45.234 54.065c-1.705 2.039-.256 5.142 2.402 5.142z"/><path fill="#00f2a6" d="M288.997 208.784h13.406a3.131 3.131 0 0 1 3.131 3.132V303h57.424v-91.085a3.132 3.132 0 0 1 3.132-3.132h12.77c2.648 0 4.101-3.083 2.415-5.125l-44.629-54.065a3.132 3.132 0 0 0-4.817-.016l-45.234 54.065c-1.706 2.039-.256 5.142 2.402 5.142z"/><path fill="#05e39c" d="M288.996 208.784h13.406a3.132 3.132 0 0 1 3.132 3.132V303h24.724V201.23c0-2.417.85-4.757 2.401-6.611l20.715-24.76-16.729-20.266a3.132 3.132 0 0 0-4.817-.016l-45.234 54.065c-1.705 2.039-.255 5.142 2.402 5.142z"/><path fill="#838383" d="M37.524 479.629c4.3 0 8.543.711 12.612 2.112l1.071.369.232-1.109c3.735-17.804 19.669-30.727 37.886-30.727a38.04 38.04 0 0 1 6.468.551l1.168.199V155.569H28.957a5.22 5.22 0 0 0-5.219 5.219V482.2a38.414 38.414 0 0 1 13.786-2.571z"/><path fill="#5a5a5a" d="M37.524 478.629c4.532 0 8.881.769 12.938 2.167a39.513 39.513 0 0 1 6.242-14.453V160.788a5.22 5.22 0 0 1 5.219-5.219H28.957a5.22 5.22 0 0 0-5.219 5.219v320.303a39.6 39.6 0 0 1 13.786-2.462z"/><path fill="#00f2a6" d="M96.963 449.839h-1a39.238 39.238 0 0 0-4.644-.517c-20-.977-36.95 12.849-40.857 31.473a39.63 39.63 0 0 0-12.938-2.167c-17.033 0-31.553 10.726-37.193 25.79-1.272 3.397 1.279 7.018 4.906 7.018h91.725v-61.597z"/><g fill="#9c9c9c"><path d="M21.506 266.21h75.457v-15H21.506a7.499 7.499 0 0 0-7.5 7.5 7.5 7.5 0 0 0 7.5 7.5zM21.506 299.266h75.457v-15H21.506c-4.143 0-7.5 3.357-7.5 7.5s3.357 7.5 7.5 7.5zM21.506 200.096h75.457v-15H21.506c-4.143 0-7.5 3.357-7.5 7.5s3.357 7.5 7.5 7.5zM21.506 233.153h75.457v-15H21.506c-4.143 0-7.5 3.357-7.5 7.5s3.357 7.5 7.5 7.5zM21.506 365.379h75.457v-15H21.506c-4.143 0-7.5 3.357-7.5 7.5s3.357 7.5 7.5 7.5zM96.963 416.492H21.506c-4.143 0-7.5 3.357-7.5 7.5s3.357 7.5 7.5 7.5h75.457zM21.506 398.435h75.457v-15H21.506c-4.143 0-7.5 3.357-7.5 7.5s3.357 7.5 7.5 7.5zM21.506 332.323h75.457v-15H21.506c-4.143 0-7.5 3.357-7.5 7.5s3.357 7.5 7.5 7.5z"/></g><path fill="#cecece" d="M216.216 372.971h-13.169c-1.022 0-1.638-.67-1.873-1.298-.235-.627-.213-1.536.558-2.209l55.021-48.469V87.974a5.219 5.219 0 0 0-5.219-5.219H101.183a5.219 5.219 0 0 0-5.219 5.219v423.462h120.252z"/><path fill="#bfbfbf" d="M129.183 82.755h-28a5.219 5.219 0 0 0-5.219 5.219v423.462h28V87.974a5.218 5.218 0 0 1 5.219-5.219z"/><path fill="#fff" d="M159.843 152.267h-23.601a3.091 3.091 0 0 1-3.091-3.091v-23.601a3.091 3.091 0 0 1 3.091-3.091h23.601a3.091 3.091 0 0 1 3.091 3.091v23.601a3.091 3.091 0 0 1-3.091 3.091z"/><path fill="#f8f6f6" d="M147.152 149.176v-23.601a3.091 3.091 0 0 1 3.091-3.091h-14a3.091 3.091 0 0 0-3.091 3.091v23.601a3.091 3.091 0 0 0 3.091 3.091h14a3.09 3.09 0 0 1-3.091-3.091z"/><path fill="#fff" d="M217.82 152.267h-23.601a3.091 3.091 0 0 1-3.091-3.091v-23.601a3.091 3.091 0 0 1 3.091-3.091h23.601a3.091 3.091 0 0 1 3.091 3.091v23.601a3.092 3.092 0 0 1-3.091 3.091z"/><path fill="#f8f6f6" d="M205.128 149.176v-23.601a3.091 3.091 0 0 1 3.091-3.091h-14a3.091 3.091 0 0 0-3.091 3.091v23.601a3.091 3.091 0 0 0 3.091 3.091h14a3.091 3.091 0 0 1-3.091-3.091z"/><path fill="#fff" d="M159.843 213.42h-23.601a3.091 3.091 0 0 1-3.091-3.091v-23.601a3.091 3.091 0 0 1 3.091-3.091h23.601a3.091 3.091 0 0 1 3.091 3.091v23.601a3.091 3.091 0 0 1-3.091 3.091zM217.82 213.42h-23.601a3.091 3.091 0 0 1-3.091-3.091v-23.601a3.091 3.091 0 0 1 3.091-3.091h23.601a3.091 3.091 0 0 1 3.091 3.091v23.601a3.092 3.092 0 0 1-3.091 3.091z"/><g fill="#f8f6f6"><path d="M147.152 210.329v-23.601a3.091 3.091 0 0 1 3.091-3.091h-14a3.091 3.091 0 0 0-3.091 3.091v23.601a3.091 3.091 0 0 0 3.091 3.091h14a3.09 3.09 0 0 1-3.091-3.091zM205.128 210.329v-23.601a3.091 3.091 0 0 1 3.091-3.091h-14a3.091 3.091 0 0 0-3.091 3.091v23.601a3.091 3.091 0 0 0 3.091 3.091h14a3.091 3.091 0 0 1-3.091-3.091z"/></g><path fill="#fff" d="M159.843 274.573h-23.601a3.091 3.091 0 0 1-3.091-3.091v-23.601a3.091 3.091 0 0 1 3.091-3.091h23.601a3.091 3.091 0 0 1 3.091 3.091v23.601a3.091 3.091 0 0 1-3.091 3.091zM217.82 274.573h-23.601a3.091 3.091 0 0 1-3.091-3.091v-23.601a3.091 3.091 0 0 1 3.091-3.091h23.601a3.091 3.091 0 0 1 3.091 3.091v23.601a3.092 3.092 0 0 1-3.091 3.091zM159.843 335.726h-23.601a3.091 3.091 0 0 1-3.091-3.091v-23.601a3.091 3.091 0 0 1 3.091-3.091h23.601a3.091 3.091 0 0 1 3.091 3.091v23.601a3.091 3.091 0 0 1-3.091 3.091zM217.82 335.726h-23.601a3.091 3.091 0 0 1-3.091-3.091v-23.601a3.091 3.091 0 0 1 3.091-3.091h23.601a3.091 3.091 0 0 1 3.091 3.091v23.601a3.092 3.092 0 0 1-3.091 3.091zM159.843 396.879h-23.601a3.091 3.091 0 0 1-3.091-3.091v-23.601a3.091 3.091 0 0 1 3.091-3.091h23.601a3.091 3.091 0 0 1 3.091 3.091v23.601a3.091 3.091 0 0 1-3.091 3.091zM216.216 372.971h-13.169c-1.022 0-1.638-.67-1.873-1.298-.235-.627-.213-1.536.558-2.209l2.687-2.367h-10.2a3.09 3.09 0 0 0-3.09 3.091v23.601a3.09 3.09 0 0 0 3.09 3.091h21.997z"/><path fill="#f8f6f6" d="M205.128 393.789v-20.818h-2.082c-1.021 0-1.637-.67-1.872-1.297-.235-.628-.213-1.537.558-2.21l2.687-2.367h-10.2a3.091 3.091 0 0 0-3.091 3.091v23.601a3.091 3.091 0 0 0 3.091 3.091h14a3.092 3.092 0 0 1-3.091-3.091z"/><path fill="#fff" d="M159.843 458.032h-23.601a3.091 3.091 0 0 1-3.091-3.091V431.34a3.091 3.091 0 0 1 3.091-3.091h23.601a3.091 3.091 0 0 1 3.091 3.091v23.601a3.09 3.09 0 0 1-3.091 3.091zM216.216 428.25h-21.997a3.09 3.09 0 0 0-3.09 3.091v23.601a3.09 3.09 0 0 0 3.09 3.091h21.997z"/><path fill="#fff0ad" d="M418.378 461.988a3.091 3.091 0 0 1-3.091-3.091v-38.809a3.091 3.091 0 0 1 3.091-3.091h83.881V373.97l-2.259-1H371.652v137.28l1 1.187H497.04a5.219 5.219 0 0 0 5.219-5.219v-44.229h-83.881z"/><path fill="#ffe177" d="M372.652 373.971h28.667v137.466h-28.667z"/><path fill="#fd6930" d="m510.922 368.48-70.169-61.519A20.002 20.002 0 0 0 427.568 302H286.244a24.998 24.998 0 0 0-16.525 6.241l-68.645 60.471c-2.088 1.823-.798 5.26 1.973 5.26h13.689l67.99-59.366a14.001 14.001 0 0 1 18.417 0l67.99 59.365h137.73c2.892 0 4.238-3.588 2.059-5.491z"/><path fill="#fff6ce" d="M215.216 373.971v137.466h157.436V373.971L303.8 313.852a15 15 0 0 0-19.732 0z"/><path fill="#fff0ad" d="M248.182 386.894c0-2.974 1.286-5.804 3.526-7.76l63.428-55.383-11.336-9.898a15 15 0 0 0-19.732 0l-68.852 60.119v137.466h32.966z"/><path fill="#fd6930" d="M262.821 511.437h62.227v-97.461a5.219 5.219 0 0 0-5.219-5.219H268.04a5.219 5.219 0 0 0-5.219 5.219z"/><path fill="#fd5426" d="M292.764 408.756H268.04a5.22 5.22 0 0 0-5.219 5.219v97.461h24.724v-97.461a5.22 5.22 0 0 1 5.219-5.219z"/><path fill="#dff6fd" d="M502.259 416.998h-83.881a3.091 3.091 0 0 0-3.091 3.091v38.809a3.091 3.091 0 0 0 3.091 3.091h83.881z"/><path fill="#99e6fc" d="M418.378 416.998a3.091 3.091 0 0 0-3.091 3.091v38.809a3.091 3.091 0 0 0 3.091 3.091h27.221v-44.99h-27.221z"/><path fill="#ffd15b" d="M407.787 420.089v38.809c0 5.84 4.751 10.591 10.591 10.591h83.881v-15h-79.472v-29.99h79.472v-15h-83.881c-5.84-.001-10.591 4.75-10.591 10.59zM346.37 58.614h-24.879c-5.842 0-10.594-4.752-10.594-10.594v-5.277c0-5.842 4.752-10.594 10.594-10.594h24.879c5.842 0 10.594 4.752 10.594 10.594 0 4.143 3.357 7.5 7.5 7.5s7.5-3.357 7.5-7.5c0-14.112-11.481-25.594-25.594-25.594h-4.939V8.063c0-4.143-3.357-7.5-7.5-7.5s-7.5 3.357-7.5 7.5v9.086h-4.939c-14.112 0-25.594 11.481-25.594 25.594v5.277c0 14.112 11.481 25.594 25.594 25.594h24.879c5.842 0 10.594 4.752 10.594 10.594v5.277c0 5.842-4.752 10.595-10.594 10.595h-24.879c-5.842 0-10.594-4.753-10.594-10.595 0-4.143-3.357-7.5-7.5-7.5s-7.5 3.357-7.5 7.5c0 14.113 11.481 25.595 25.594 25.595h4.939v9.086c0 4.143 3.357 7.5 7.5 7.5s7.5-3.357 7.5-7.5v-9.086h4.939c14.112 0 25.594-11.481 25.594-25.595v-5.277c0-14.113-11.482-25.594-25.594-25.594z"/><g fill="#f8f6f6"><path d="M147.152 271.482v-23.601a3.091 3.091 0 0 1 3.091-3.091h-14a3.091 3.091 0 0 0-3.091 3.091v23.601a3.091 3.091 0 0 0 3.091 3.091h14a3.09 3.09 0 0 1-3.091-3.091zM205.128 271.482v-23.601a3.091 3.091 0 0 1 3.091-3.091h-14a3.091 3.091 0 0 0-3.091 3.091v23.601a3.091 3.091 0 0 0 3.091 3.091h14a3.091 3.091 0 0 1-3.091-3.091zM147.152 332.636v-23.601a3.091 3.091 0 0 1 3.091-3.091h-14a3.091 3.091 0 0 0-3.091 3.091v23.601a3.091 3.091 0 0 0 3.091 3.091h14a3.092 3.092 0 0 1-3.091-3.091zM205.128 332.636v-23.601a3.091 3.091 0 0 1 3.091-3.091h-14a3.091 3.091 0 0 0-3.091 3.091v23.601a3.091 3.091 0 0 0 3.091 3.091h14a3.092 3.092 0 0 1-3.091-3.091zM147.152 393.789v-23.601a3.091 3.091 0 0 1 3.091-3.091h-14a3.091 3.091 0 0 0-3.091 3.091v23.601a3.091 3.091 0 0 0 3.091 3.091h14a3.091 3.091 0 0 1-3.091-3.091zM205.128 454.942V431.34a3.091 3.091 0 0 1 3.091-3.091h-14a3.091 3.091 0 0 0-3.091 3.091v23.601a3.091 3.091 0 0 0 3.091 3.091h14a3.09 3.09 0 0 1-3.091-3.09zM147.152 454.942V431.34a3.091 3.091 0 0 1 3.091-3.091h-14a3.091 3.091 0 0 0-3.091 3.091v23.601a3.091 3.091 0 0 0 3.091 3.091h14a3.09 3.09 0 0 1-3.091-3.09z"/></g></svg>