<svg xmlns="http://www.w3.org/2000/svg" xml:space="preserve" width="100" height="121"><path fill="#FFF" fill-rule="evenodd" d="M19 28h5.2v64.6H19zM82 28h5.2v64.6H82z" clip-rule="evenodd"/><path fill-rule="evenodd" d="M88.647 27.602c-.063-.104-.08-.282-.104-.439-.132-.07-.201-.002-.362-.052-.19-.06-.221-.313-.491-.362l-.828.104-1.371-.026c-.939 0-1.957.104-2.769-.052-.326-.629-.129-2.825-.129-3.828v-.932c-.098-.316-.594-.741-.905-.854l-5.77-.026-1.475-.025-.311.284c-.284.08-.474.049-.62.311-.037.065-.07 1.224 0 1.423.043.123.287.304.388.389.36.301.206.058.543.206l.207.259c.306.129 1.608-.008 1.889-.052l2.354.026h.724c.112-.037.119-.124.285-.155a.497.497 0 0 0 .052.025c.232 1.184.052 2.752.052 4.036v1.707c-.041.129-.162.146-.207.311.418.576.207 2.905.207 3.906v61.959c0 .331.082.952-.104 1.112-.163.044-.172-.064-.285-.104-.759.009-1.518.018-2.276.025l-.491-.077c-.8.111-2.073.188-2.949.052h-5.459c-9.372.009-18.748.018-28.12.025h-8.227c-1.209-.18-2.634-.077-3.933-.077l-1.759.026c-.107.035-.145.14-.285.181l-.104-.052-.025-16.712v-4.036c0-.525-.093-1.287.155-1.578-.386-1.479-.155-4.23-.155-6.027V56.498c.009-10.89.018-21.783.025-32.674.226-.084.177.064.337.13h19.79l3.726-.052c.33 0 1.654.11 1.759.077a20.2 20.2 0 0 0 .207-.207l.337-.077c.461-.285.649-.841.75-1.423-.138-.181-.108-.3-.207-.569-.527-.938-4.994-.595-6.623-.595H30.284c-1.634 0-5.477-.262-6.39.311-.99.62-.265 3.904-.517 5.354-.383.205-1.349.078-1.94.078l-3.363-.026c-.254.09-.068.206-.569.285-.607 1.045-.336 3.76-.336 5.381v60.458c.116.254.229.085.259.543 1.016.55 4.364.394 5.873.337l.052.025c.397 1.548-.422 4.246.414 5.407h.543l.181.259 57.199.025c.29-.299.766-.432.905-.88V97.32c0-1.128-.028-2.5.104-3.389.301-.169.937-.104 1.396-.104 1.117 0 2.466-.073 3.415.104.413.076.592-.314.983-.389.063-.108.085-.218.077-.414l.078-.077h.181V27.628l-.182-.026zM23.403 77.505v10.192l-.026 3.415c-.103.161-2.992.138-3.312.052l-.026-2.406c-.079-.503.035-1.061 0-1.578-.102-1.498-.24-3.698 0-5.277l-.078-14.979c.114-2.199-.046-4.371.078-6.597a899.22 899.22 0 0 0-.026-1.655l.181-.285v-.025a31.623 31.623 0 0 0-.259-.259c.011-.212.103-.283.129-.414.052-.26-.241-.337-.155-.673.229-.896.238-3.313.052-4.32l.052-9.028c0-1.734-.192-3.719.052-5.355.068-.457-.088-.675-.026-1.034v-5.77c-.067-.445-.154-1.567-.026-1.94.238-.368 2.542.055 3.104-.155l.181.052c.153.118.137.651.104.932l-.026 2.639v10.736l.026 4.372v12.702l-.052.982c.101 1.058.052 2.325.052 3.467v5.873c0 1.774.213 4.055-.155 5.562l.156.774zm62.554-46.799v60.433c-.391.21-2.76.142-3.286.077-.223-.391-.077-3.093-.077-3.803v-9.624l.052-.698c-.175-1.191-.052-2.675-.052-3.958V62.837l.077-.544c-.126-.857-.077-2.017-.077-3.001v-9.157c0-.732-.056-1.605.052-2.251l-.052-.88v-2.923c.009-4.863.018-9.728.025-14.591l.13-.078 3.208.052c.174.305.017.868 0 1.242z" clip-rule="evenodd"/><ellipse cx="52.346" cy="112.692" fill-rule="evenodd" clip-rule="evenodd" rx="36.175" ry="3.308"/><path fill-rule="evenodd" d="M18.669 14.537h-.155c-.714 0-1.293.579-1.293 1.294v7.036c0 .715.579 1.294 1.293 1.294h.155c.714 0 1.293-.579 1.293-1.294v-7.036c0-.715-.579-1.294-1.293-1.294zM51.602 35.621H34.734c-.715 0-1.294.579-1.294 1.294v.155c0 .714.579 1.293 1.294 1.293h16.867c.714 0 1.293-.579 1.293-1.293v-.155a1.292 1.292 0 0 0-1.292-1.294zM54.447 58.956H34.734c-.715 0-1.294.579-1.294 1.293v.155c0 .715.579 1.294 1.294 1.294h19.713c.714 0 1.293-.579 1.293-1.294v-.155c0-.714-.579-1.293-1.293-1.293zM70.513 70.598H48.911c-.715 0-1.294.579-1.294 1.293v.155c0 .715.579 1.294 1.294 1.294h21.602c.714 0 1.293-.579 1.293-1.294v-.155c0-.714-.579-1.293-1.293-1.293zM64.743 82.472H34.604c-.714 0-1.293.579-1.293 1.294v.155c0 .714.579 1.293 1.293 1.293h30.139c.715 0 1.294-.579 1.294-1.293v-.155c0-.715-.579-1.294-1.294-1.294zM43.789 70.598h-9.185c-.714 0-1.293.579-1.293 1.293v.155c0 .715.579 1.294 1.293 1.294h9.185c.714 0 1.293-.579 1.293-1.294v-.155c0-.714-.579-1.293-1.293-1.293zM47.203 47.314H34.734c-.715 0-1.294.579-1.294 1.294v.155c0 .714.579 1.293 1.294 1.293h12.469c.715 0 1.294-.579 1.294-1.293v-.155c0-.714-.579-1.294-1.294-1.294zM14.834 22.301l-5.071-4.879a1.294 1.294 0 0 0-1.829.036l-.107.111a1.294 1.294 0 0 0 .036 1.829l5.071 4.878a1.294 1.294 0 0 0 1.829-.035l.108-.111a1.295 1.295 0 0 0-.037-1.829zM13.332 26.726l-7.037-.007A1.293 1.293 0 0 0 5 28.011v.155c0 .714.578 1.294 1.292 1.295l7.037.007a1.292 1.292 0 0 0 1.294-1.292v-.155a1.292 1.292 0 0 0-1.291-1.295z" clip-rule="evenodd"/><ellipse cx="63.172" cy="48.763" fill="#FB312F" fill-rule="evenodd" clip-rule="evenodd" rx="6.899" ry="7.217"/><path fill="#FB312F" fill-rule="evenodd" d="M62.958 2.275s-6.208.413-6.415 6.104l2.897 26.802s3.725 6.209 7.14-.104l3.104-27.111c.001.001-1.035-5.691-6.726-5.691z" clip-rule="evenodd"/></svg>