<svg xmlns="http://www.w3.org/2000/svg" xml:space="preserve" width="100" height="100"><path fill="#AAD1D9" fill-rule="evenodd" d="m71.423 72.563-3.884-6.374-.887-1.351s-.929-1.646-2.11-1.267l-9.54-.38s-.633-4.939 2.026-8.4l12.368-13.635.169-6.289s-.38-4.306-4.433-4.559l-.76-.169s2.237-1.688 2.786-5.319c0 0 .127-5.529-5.361-5.698 0 0-6.12.38-4.137 9.118 0 0 .085 2.025-2.363 1.308l-.507-.253s4.813-6.627 1.267-10.342c0 0-6.628-4.981-7.852 3.799 0 0-.169 2.026-.253 6.416l-.003.174c.149-.05.256-.089.256-.089s-.327 4.159-.256.089c-.601.202-2.149.647-2.657.038 0 0 3.905-5.076 1.965-9.042 0 0-3.038-3.46-6.752-1.351 0 0-4.979 5.4.591 9.958l.845 2.7-1.436 4.22-1.603 7.426 8.691 14.431-.504 4.978-9.198-.591s-2.869.676-2.954 1.772l-4.051 5.4s-2.447 2.363-2.109 3.629l39.325 9.536s3.291 1.266 3.713-1.941l-.169-4.05.253-.76c-.001.001 1.296-1.064-.476-3.132z" clip-rule="evenodd"/><path fill="#FED385" fill-rule="evenodd" d="M56.238 30.905s-2.533-1.52-3.99-.949c0 0-.38-.063 1.141-2.09 0 0 2.977-5.13.633-7.41 0 0-1.33-2.026-2.533-2.153 0 0-5.066-.634-5.953 3.229 0 0-.95 4.243 1.9 7.283 0 0 1.013 1.267-.443 1.203 0 0-5.067-.189-4.877 4.561l-.063 1.076h15.77c-.002 0 .885-3.483-1.585-4.75z" clip-rule="evenodd"/><path fill="#FD9594" fill-rule="evenodd" d="m67.074 35.416-.126-2.026c-.718-2.701-3.926-3.039-3.926-3.039-1.941-.042-1.013-.887-1.013-.887 1.856-2.237 1.941-5.487 1.941-5.487-.127-4.264-4.137-4.644-4.137-4.644-2.828-.253-4.348 2.533-4.348 2.533-1.604 3.545 1.013 6.585 1.013 6.585 1.182 1.14.549 1.688.549 1.688-.76.76-.253 1.182-.253 1.182 1.604.718 1.055 4.601 1.055 4.601l9.245-.506z" clip-rule="evenodd"/><path fill="#FFFFFD" fill-rule="evenodd" d="M37.176 36.289h29.702v1.963H37.176z" clip-rule="evenodd"/><path fill="#E4E4E4" fill-rule="evenodd" d="M33.186 36.162h4.496v1.963h-4.496z" clip-rule="evenodd"/><path fill="#A1E7FF" fill-rule="evenodd" d="m67.067 40.278-.063-1.899-30.02-.316-3.99.189.063 2.597 10.957 12.92c2.786 2.47 2.216 9.879 2.216 9.879l2.914-.189h4.433l-.063-3.293c-.253-3.863 5.384-10.007 5.384-10.007l8.169-9.881z" clip-rule="evenodd"/><path fill="#62D6FF" fill-rule="evenodd" d="m48.005 53.578-10.956-12.92.127-2.216-4.181-.38-.063 2.47 4.813 5.953 6.714 7.979c2.596 2.47 2.09 8.993 2.09 8.993l4.053-.127c.696-6.332-2.597-9.752-2.597-9.752z" clip-rule="evenodd"/><path fill="#FD7C81" fill-rule="evenodd" d="M44.269 21.47s-3.61-4.307-7.536-.443c0 0-2.153 3.609.443 7.473l1.076 1.33s-.316.57-2.66.887c0 0-2.786 1.837-2.659 3.673.126 1.837.569 1.521.569 1.521l7.917-.063 1.393-4.434-.063-1.394s1.52-2.343 1.899-4.56c0-.001.444-3.421-.379-3.99z" clip-rule="evenodd"/><path fill="#FFFDFF" fill-rule="evenodd" d="M38.266 68.145c-1.277 0-2.532.563-2.515 1.244.017.674 1.275 1.045 2.537.862 1.156-.167 1.864-.698 1.864-1.184 0-.487-.715-.922-1.886-.922z" clip-rule="evenodd"/><path fill="#FED385" fill-rule="evenodd" d="m70.867 72.831-5.699-8.423s-.507-.761-2.787-.823l-15.706-.063-10.322.063s-1.584.38-2.533 2.343l-5.193 8.359s-1.077 2.027 4.623 1.457l36.479-.19c-.001 0 2.342-.317 1.138-2.723z" clip-rule="evenodd"/><path fill="#D9B372" fill-rule="evenodd" d="M40.354 68.595s.253 3.081-4.517 2.068l4.686 4.643 6.754.085-6.923-6.796zM64.669 68.975c.591 1.182-1.098 1.772-1.098 1.772-1.984.338-3.335-.591-3.335-.591l5.276 5.529 5.171-.295-6.014-6.415z" clip-rule="evenodd"/><path fill="#FFFDFF" fill-rule="evenodd" d="M61.939 68.124c-1.168-.088-1.914.293-1.95.778-.037.484.629 1.066 1.769 1.32 1.245.277 2.527.002 2.596-.669.068-.677-1.141-1.333-2.415-1.429z" clip-rule="evenodd"/><path fill="#62D6FF" fill-rule="evenodd" d="M29.069 75.744h41.672v5.826H29.069z" clip-rule="evenodd"/><path fill="#16407D" fill-rule="evenodd" d="M71.754 73.569c-.153-.549-.432-.913-.707-1.329a39.458 39.458 0 0 1-.327-.507c-.261-.411-1.376-1.934-1.625-2.449-.23-.02-.827-1.084-1.098-1.488-.035 0-.071-.137-.106-.137-.147-.218-.168-.28-.316-.465-.049-.021-.07-.112-.119-.134-.134-.211-.274-.415-.408-.626-.646-.908-1.221-2.104-2.195-2.681-.953-.563-2.411-.507-3.948-.507-2.266-.008-4.531-.015-6.797-.021-.173-.379-.043-1.617-.043-2.132 0-2.229.614-3.886 1.33-5.384.825-1.725 2.135-2.927 3.251-4.349l5.552-6.713 3.357-4.011v-3.42c0-1.178.118-2.585-.127-3.567-.563-2.256-2.267-3.866-5.13-3.779l-.042-.042v-.085c.596-.78 1.303-1.532 1.71-2.512.306-.737.361-1.413.527-2.301.066-.355.156-.889.085-1.33l-.127-.929c-.079-.311-.274-.582-.232-.95-.275-.109-.431-.549-.591-.781-.351-.508-.938-1.033-1.436-1.394-.339-.245-.857-.361-1.288-.485-2.844-.817-4.521.797-5.699 2.407a.93.93 0 0 0-.063-.021c-.169-.109-.189-.461-.274-.654-.206-.467-.575-.843-.845-1.246l-.063-.253-.295-.105-.93-.803c-1.263-.815-3.114-1.008-4.687-.422-.544.203-1.057.603-1.478.95-.214.177-.37.469-.633.591-.086.054-.004.01-.148 0-.031.054-.03.053-.084.085l-.021.042c.075.032.003.021.085 0-.092.313-.358.532-.507.802l-.401.95h-.063c-.611-1.124-1.595-1.687-2.681-2.343-.275-.167-.651-.121-1.014-.19-2.01-.386-3.771.813-4.644 1.942a5.595 5.595 0 0 0-.908 1.773c-.606 1.978.362 4.669 1.098 5.848.246.394.621.721.866 1.098.095.146.008.192.105.316-.4-.073-.885.031-1.33.127-2.005.431-3.116 1.746-3.716 3.567-.325.988-.147 2.541-.147 3.758v3.356c.094.347.798.945 1.034 1.245.831 1.052 1.768 2.023 2.575 3.082 1.855 2.434 4.052 4.594 5.848 7.072.699.964 1.594 1.746 2.259 2.766 1.373 2.103 1.964 4.929 1.773 8.381l-.042.042h-6.438c-1.377 0-2.783-.139-3.779.274-1.249.519-1.793 1.718-2.512 2.766-1.313 1.913-2.659 3.825-3.969 5.763-.318.471-.731.962-.908 1.563-.262.891.211 1.274.211 2.006v3.673c0 .57-.068 1.261.085 1.71.119.351.404.74.676.95.652.504 1.729.443 2.913.443h29.491l6.059.021c1.539 0 2.646.151 3.378-.738.211-.258.389-.607.464-.992.118-.604.021-1.378.021-2.069l-.021-3.082c-.038-.27.15-.449.211-.633.12-.367.105-.927-.002-1.31zM58.624 19.78c2.337-.629 4.551 1.45 4.961 3.082l.042.972c0 1.488-.27 2.664-.823 3.609-.28.479-.694.955-.992 1.372-.157.221-.494.372-.612.634-.092.202-.049.617.021.802.316.833 1.956.422 2.809.697 1.621.523 2.617 2.182 2.596 4.327-.224.002-.314.057-.464.085a9058.47 9058.47 0 0 0-7.367-.021c0-1.508-.574-3.885-1.521-4.349l-.063-.085c1.358-.861.559-1.441-.084-2.279l-.823-1.203a6.389 6.389 0 0 1-.676-1.689c-.084-.336-.019-.681-.085-1.076-.429-2.561 1.246-4.384 3.081-4.878zm-3.779 6.46.042.084a1.684 1.684 0 0 1-.042.043v-.127zm-.106.022h.042l-.042.063v-.063zm.022.211.084.021.021-.105c.233.243.454 1.28.654 1.646.334.611.884 1.211 1.351 1.71v.085c-1.071.264-1.663-.13-2.617-.316-.356-.07-1.041.03-1.309-.085-.036-.028-.038-.105-.063-.189.636-.29 1.527-2.121 1.857-2.851l.022.084zm-8.381-5.806c.156-.246.71-.579.696-.865.077-.015.155-.028.232-.042v-.169c.286-.186.521-.334.845-.507.056-.029.013-.003 0-.063l.186-.062.004-.001h.001l.822-.274c.423-.076.838.046 1.14-.105 1.744-.006 3.407 1.689 3.843 3.019.16.491.147 1.091.147 1.71l-.042 1.203c-.205.794-.461 1.665-.845 2.302l-.211.253c-.123.243-.214.568-.401.803-.113.142-.323.166-.443.295l-.021.147-.486.443c-.146.353-.306 1.417.169 1.584l-.042.105c.324.231 2.096.069 2.618.189 1.493.345 2.151 1.533 2.702 2.851.172.412.411 1.387.084 1.73.028.015.057.028.085.042v.085l-14.926.021c-.043-.109-.107-1.076-.021-1.246l.147-.105.063-.718c.096-.264.367-.342.338-.76l.189-.085.043-.231c.049-.08.12-.073.189-.127.065-.013-.017-.025-.042-.085.056-.05.141-.067.232-.084.053-.086.055-.087.042-.211l.253-.105c.035-.078.028-.078.021-.19l.296-.084c.081-.058.054-.059.042-.169l.443-.127c.007-.068-.005-.06-.021-.147l.612-.105h.042c.009-.064.003-.062-.021-.127.544-.194 1.639.09 2.153-.105.09-.061.121-.166.231-.211l.317-.063c.089-.066.02-.163.084-.254l.147-.063c.219-.382-.118-1.043-.211-1.246l-.443-.358a3.451 3.451 0 0 1-.696-.866c-.144-.266-.313-.541-.422-.802l-.105-.465c-.138-.229-.354-.439-.443-.78-.148-.567-.151-1.119-.274-1.668-.273-1.231.262-2.487.658-3.107zm-1.584 6.84s.262-.96.274-1.014c.092-.044.046-.025.127.021l.042-.021-.021-.274c.171.249.192.608.338.866.486.861 1.03 1.614 1.71 2.279v.085c-.34.159-1.006.023-1.394.084-.557.087-1.067.311-1.541.443l-.95-.147.042-.042c-.044-.039-.112-.06-.232-.063.458-.558 1.32-1.386 1.457-2.195.074-.029.074.001.148-.022zm-11.315 6.924c.304-1.652.961-2.744 2.322-3.377.719-.335 2.663.11 2.977-.612.145-.336.031-.824-.085-1.098l-.422-.443c-.43-.538-.864-1.035-1.161-1.71a10.485 10.485 0 0 1-.549-1.626c-.672-2.667.501-4.376 2.09-5.341.394-.238.958-.216 1.414-.422 3.129-.019 5.118 2.361 4.201 5.615l-.169.929c-.32.838-.793 1.67-1.288 2.364-.228.319-.667.483-.802.887-.095.283.032.603.042.887.072.062.099.097.211.127l-.021.147c.096.027.18.054.232.127.048.152-.069.219-.063.38l-.232.084c-.283.583-.55 1.218-.76 1.815l-.127 1.161c-.065.25-.216.741-.19 1.014l-2.659.021-4.877-.021c.017-.285-.157-.51-.084-.908zm-.19 1.815h33.376v1.668H33.291v-1.668zm9.31 15.179-4.645-5.573-4.623-5.552v-1.563l33.334.021-.043 1.52-7.726 9.331c-1.929 2.436-4.098 4.366-5.215 7.663-.568 1.68-.598 3.725-.569 5.975h-6.186c-.247-.991.041-2.197-.127-3.272-.164-1.048-.438-1.908-.654-2.786-.084-.342-.078-.603-.19-.887-.768-1.953-2.155-3.359-3.356-4.877zm27.464 29.871c-.434.27-1.442.148-2.111.148h-5.045l-24.763.021h-6.059c-1.432 0-2.623.188-2.702-1.182l41.229.021c-.061.437-.242.801-.549.992zm.676-1.942H29.322v-1.183h41.419v1.183zm0-1.984H29.322v-1.183h41.419v1.183zm-.549-2.111c-.007 0-.131.038-.131.038l-.523.046H31.877c-.928 0-2.258.162-2.66-.38-.733-.987.546-2.434.95-3.04l3.715-5.341c.745-1.059 1.146-2.154 2.66-2.47l9.035-.042h13.49c2.024 0 4.525-.259 5.679.633l5.615 8.064c.547.778 1.078 2.011-.169 2.492zM48.216 19.063l.19-.084v-.021h-.063l-.005.001-.102.041c-.006.021-.012.042-.02.063zm-5.995.021.063.042c-.038-.043 0-.016-.063-.042zm3.082 8.381.021-.063-.085-.042-.021.105v.021a.411.411 0 0 0 .042.021l.043-.042zm-.275.316c.007-.042.015-.084.021-.127h-.063c-.01.085-.021.067.021.127h.021zm0 .191-.042-.043-.021.085h.021l.042-.042zm-.992.801-.042.085c.028-.015.057-.028.084-.043l-.042-.042zm-7.093.317v-.042l-.063-.063-.042.063.021.063.043.021.041-.042zm19.19-.084h-.042v.042c.04-.029.013-.002.042-.042zm-9.057.316h-.063l.021.042.042-.042zm-.485.064v-.042h-.085c.042.043.008.022.085.042zm8.95.422.085.043c-.041-.044-.008-.024-.085-.043zm.887 5.489v-.021l-.105-.021-.042.043.105.021.042-.022zM38.97 73.189h.042l-.042-.105v.105z" clip-rule="evenodd"/><ellipse cx="49.81" cy="69.665" fill="#FFFDFF" fill-rule="evenodd" clip-rule="evenodd" rx="6.491" ry="3.926"/><path fill="#F60E45" fill-rule="evenodd" d="M52.713 70.107c-.059-.273-.15-.494-.338-.633-.395-.293-1.021-.419-1.583-.528-.629-.121-1.362-.008-1.689-.422l-.021-.127c.328-.773 1.893-.467 2.617-.232l.296-.316.274-.274c-.409-.176-.978-.419-1.541-.338l-.021-.4c-.175-.099-.938-.124-1.182-.021l-.063.021c-.015.147-.028.295-.042.443-.916-.012-1.783.416-1.647 1.351.051.344.119.534.338.696.274.204.658.33 1.056.401.771.14 2.019-.209 2.132.57.119.813-1.724.729-2.343.549l-.971-.38-.655.464c-.575.733 1.328.704 1.922.929a.775.775 0 0 0 .063.021v.527c.236.148 1.092.141 1.479.063.071-.134.07-.37.063-.591.91-.089 2.106-.601 1.856-1.773z" clip-rule="evenodd"/><path fill="#16407D" fill-rule="evenodd" d="M37.976 67.514c-1.518.13-2.817 1.017-2.876 1.982-.059.969 1.157 1.621 2.688 1.457 1.5-.162 2.732-1.05 2.778-1.984.046-.931-1.101-1.582-2.59-1.455zm-.135 2.707c-.989.104-2.033-.181-1.841-.777.29-.898.874-1.074 1.858-1.226.965-.147 1.955.225 1.821.819-.137.611-.861 1.083-1.838 1.184zM62.028 67.514c-1.489-.127-2.637.524-2.59 1.455.046.935 1.278 1.822 2.778 1.984 1.53.164 2.746-.488 2.688-1.457-.057-.966-1.358-1.852-2.876-1.982zm.135 2.707c-.978-.101-1.701-.572-1.839-1.184-.134-.595.856-.967 1.821-.819.984.151 1.568.327 1.858 1.226.193.596-.851.88-1.84.777zM49.937 65.175c-4.057 0-7.345 2.004-7.345 4.475 0 2.472 3.288 4.475 7.345 4.475s7.345-2.003 7.345-4.475c-.001-2.471-3.289-4.475-7.345-4.475zm0 8.007c-3.355 0-6.075-1.563-6.075-3.49 0-1.927 2.72-3.489 6.075-3.489s6.075 1.563 6.075 3.489c0 1.927-2.72 3.49-6.075 3.49zm2.438-3.707c-.395-.293-1.021-.419-1.583-.528-.629-.121-1.362-.008-1.689-.422l-.021-.127c.328-.773 1.893-.467 2.617-.232l.296-.316.274-.274c-.409-.176-.978-.419-1.541-.338l-.021-.4c-.175-.099-.938-.124-1.182-.021l-.063.021c-.015.147-.028.295-.042.443-.916-.012-1.783.416-1.647 1.351.051.344.119.534.338.696.274.204.658.33 1.056.401.771.14 2.019-.209 2.132.57.119.813-1.724.729-2.343.549l-.971-.38-.655.464c-.575.733 1.328.704 1.922.929a.775.775 0 0 0 .063.021v.527c.236.148 1.092.141 1.479.063.071-.134.07-.37.063-.591.912-.09 2.108-.602 1.858-1.773-.061-.274-.152-.495-.34-.633z" clip-rule="evenodd"/><ellipse cx="33.469" cy="5.352" fill="#F20000" fill-rule="evenodd" clip-rule="evenodd" rx="2.541" ry="2.714"/><path fill="#003EB3" fill-rule="evenodd" d="M31.333 13.777c-6.555 13.111-12.667 11.556-12.667 11.556-5.889-1.222-3.889-9.11-3.889-9.11 1.667-8.334 6.667-8.111 6.667-8.111 2 .777 1.556 3.777 1.556 3.777-1.556 5.223-5.778 7.556-5.778 7.556-.444.667-1.444 1.333.444.889 1.889-.444 6.667-6.11 6.667-6.11 4.111-7.667-2.778-7.667-2.778-7.667-9.222 1.111-9.111 14.111-9.111 14.111 1.111 8.11 9.111 6 9.111 6 8.333-3 11.111-15.223 11.111-15.223l-1.333 2.332z" clip-rule="evenodd"/><ellipse cx="22.111" cy="58.889" fill="#FFF" fill-rule="evenodd" clip-rule="evenodd" rx="3.111" ry="3.444"/><path fill="#1075BB" fill-rule="evenodd" d="M15.139 48.591c-.307-.302-.876-.38-1.324-.429-.464.187-.886.16-1.168.507-.565.693-.39 2.304-.39 3.543v8.838c-.491 2.603-3.194-.306-4.478.429-.346.198-.525.551-.623 1.012-.302 1.427 1.253 2.111 2.258 2.414.967.292 2.341.279 3.271 0 3.601-1.082 2.92-4.83 2.92-9.345.001-1.731.362-6.156-.466-6.969z" clip-rule="evenodd"/><path fill="#F36F25" fill-rule="evenodd" d="M28.104 60.311v-8.333c0-2.011.212-3.716-1.791-3.737-.419.183-.773.201-1.051.506-.663.729-.407 3.9-.39 5.334l-.039.039c-.402-.084-.628-.394-.973-.545-.497-.218-1.062-.328-1.674-.428-3.327-.543-5.883 3.13-5.646 6.229.2 2.607 1.325 4.567 3.271 5.412 1.696.735 4.099.422 4.945-.896h.156c.3 1.496 2.561 1.471 3.076.194.366-.906.116-2.647.116-3.775zm-5.45 2.024c-2.018.384-3.253-2.144-2.765-4.089.325-1.292.966-1.681 2.064-2.219 3.841-.078 3.679 5.742.701 6.308z" clip-rule="evenodd"/><path fill="#FD9594" fill-rule="evenodd" d="m11.965 79.027-3.18-1.463a.5.5 0 1 0-.418.908l3.18 1.463a.5.5 0 1 0 .418-.908z" clip-rule="evenodd"/><path fill="#16407D" fill-rule="evenodd" d="m13.878 30.735-5.569-1.323c-.285-.067-.503.236-.439.521.088.391 1.4 5.808 1.484 6.141.075.298.401.38.603.143.307-.36 3.899-4.593 4.078-4.805.222-.265.102-.615-.157-.677z" clip-rule="evenodd"/><path fill="#FED385" fill-rule="evenodd" d="m13.384 31.104-4.612-1.096c-.236-.057-.417.194-.364.432.073.323 1.16 4.81 1.229 5.085.062.246.333.314.5.118l3.377-3.979c.184-.219.085-.509-.13-.56z" clip-rule="evenodd"/><path fill="#16407D" fill-rule="evenodd" d="M57.143 86.269c-.195.065-5.146 1.724-5.429 1.817-.278.094-.304.466-.098.675.281.285 4.256 4.192 4.502 4.431.221.214.542.111.589-.197.069-.469.886-5.959.925-6.233.05-.344-.237-.577-.489-.493z" clip-rule="evenodd"/><path fill="#FD9594" fill-rule="evenodd" d="m56.918 86.843-4.496 1.505c-.229.077-.251.386-.08.559.232.236 3.524 3.472 3.729 3.669.183.177.448.092.486-.163.059-.388.733-4.936.767-5.162.04-.285-.197-.479-.406-.408zM11.107 76.706a.583.583 0 0 0-.774.286L8.94 80.021a.582.582 0 1 0 1.059.487l1.393-3.028a.583.583 0 0 0-.285-.774z" clip-rule="evenodd"/><path fill="#0266FF" fill-rule="evenodd" d="M81.65 9.999c-1.061-3.584-3.601-5.595-7.634-6.246-5.536-.896-10.38 5.456-8.725 10.905.929 3.057 3.082 4.797 6.097 5.8v-5.651h-1.734V12.23h1.734c-.061-4.716 1.427-5.534 5.949-5.155l.049 2.379c-2.327-.102-2.993.321-2.924 2.776h2.726l.05.099-.446 2.43-2.329.049v5.8c.827.071 1.819-.407 2.479-.693 2.948-1.285 6.102-5.205 4.708-9.916z" clip-rule="evenodd"/><path fill="#9D3B33" fill-rule="evenodd" d="M77.5 48.583h.417v2.167H77.5zM69.833 47.583h.417v2.167h-.417z" clip-rule="evenodd"/><ellipse cx="75.236" cy="57.129" fill="#DB2627" fill-rule="evenodd" clip-rule="evenodd" rx="6.708" ry="10.431" transform="rotate(-66.203 75.232 57.127)"/><ellipse cx="77.75" cy="47.083" fill="#DB2824" fill-rule="evenodd" clip-rule="evenodd" rx="1.75" ry="1.917"/><ellipse cx="70.083" cy="47.083" fill="#DB2824" fill-rule="evenodd" clip-rule="evenodd" rx=".956" ry="1.047"/><path fill="#FFF" fill-rule="evenodd" d="M79.75 53.083c-.667-3.083-2.333-2.166-2.333-2.166-1.25-.417-3.084 5.25-3.084 5.25-.666 2.333-1.166.75-1.166.75l-2.667-5.5c-1.083-1.584-1.5.75-1.5.75l-.583 8.666 1.5.5c.25-2 .416-7.25.416-7.25.167-1.416 1.584 2.584 1.584 2.584 1 4.166 2.666 2.416 2.666 2.416.417-2.25 2.667-5.333 2.667-5.333l.583 10.667 3.417-.334-1.5-11z" clip-rule="evenodd"/></svg>