<svg xmlns="http://www.w3.org/2000/svg" xml:space="preserve" width="106" height="102"><path fill="#FFF" fill-rule="evenodd" d="m91.604 52.978-.142-47.044c.142-2.685-1.835-3.673-1.835-3.673l-56.316-.142L16.373 42.1C2.399 46.056 2.823 58.771 2.823 58.771L3.246 84.2c1.271 5.368 7.058 3.108 7.058 3.108-.282 4.379 1.411 3.531 1.411 3.531l74.666.565c5.646.989 4.94-3.107 4.94-3.107l.283-35.319z" clip-rule="evenodd"/><path fill="#FEAF6A" fill-rule="evenodd" d="M40.538 29.318c.47-1.414 4.326-4.525 4.326-4.525 1.505-3.677-3.292-5.75-3.292-5.75-1.976-1.132-1.316-5.091-1.316-5.091-.377-3.111-4.139-7.919-4.139-7.919-4.326-5.185-15.143-3.11-15.143-3.11-10.346.377-11.662 8.578-11.662 8.578-2.164 9.333-2.728 7.259-2.728 7.259-3.951 2.263-2.728 6.787-2.728 6.787 2.766 2.599 4.167 4.146 4.377 4.382.117-1.144.043.048.043.048l-.043-.048-.051.52c-.188 1.979-4.42 4.525-4.42 4.525-4.891 8.106 15.143 4.619 15.143 4.619l21.444.377c7.336 0 3.668-5.186 3.668-5.186-4.89-2.732-3.479-5.466-3.479-5.466z" clip-rule="evenodd"/><path fill="#FFF" fill-rule="evenodd" d="M30.568 18.665c-5.268-.942-6.584-5.09-6.584-5.09-1.223 4.431-6.49 4.996-6.49 4.996-7.618-2.356-8.559 4.242-8.559 4.242-.846 3.299 3.104 4.524 3.104 4.524 0 3.488 7.242 10.37 7.242 10.37-1.975 9.238 3.762 9.804 3.762 9.804 4.233.472 5.738-2.451 5.738-6.504 0-4.054-2.54-3.488-2.54-3.488l2.916-1.037c3.292-.849 5.644-8.296 5.644-8.296 3.95-2.263 3.855-4.619 3.855-4.619 1.035-6.598-8.088-4.902-8.088-4.902z" clip-rule="evenodd"/><path fill="#66C8F8" fill-rule="evenodd" d="m98.005 28.47-3.95-.566-1.223-2.357-1.599-4.525 3.292-4.053-5.455-5.468-4.327 2.828-5.455-2.168-1.223-3.96-7.053-.282-1.223 4.336-6.208 3.016-3.479-2.544-4.328 4.996 1.788 3.393-2.352 6.317-4.984 1.319.093 6.316 4.797 1.037 2.728 6.599-2.446 3.488L60.571 51l3.292-2.074 5.926 2.639 1.129 4.149 7.147-.189.941-3.865 6.302-2.828 3.762 2.073 3.857-3.299.469-2.168-1.974-2.545.658-2.168 1.316-3.489 1.881-1.319 3.387-1.697z" clip-rule="evenodd"/><ellipse cx="74.444" cy="31.91" fill="#FFF" fill-rule="evenodd" clip-rule="evenodd" rx="13.591" ry="13.434"/><path fill="#FEAF6A" fill-rule="evenodd" d="M84.649 22.153 73.55 31.957c-2.915-3.582-5.455-3.205-5.455-3.205-2.634.755-1.881 3.111-1.881 3.111l4.984 5.562c3.48 3.488 5.832-.094 5.832-.094l11.757-12.066c.942-4.808-4.138-3.112-4.138-3.112z" clip-rule="evenodd"/><path fill="#66C8F8" fill-rule="evenodd" d="M29.641 42.241s-.706 4.662-4.517 5.934c0 0-6.21 0-6.634-5.793 0 0-13.127.142-15.103 14.27l-.282 22.037 7.199-.282.706 12.008s0 1.555 3.811 1.413l21.172-.565s2.399.283 1.693-3.673l.282-8.9h7.198V55.804S41.92 41.958 29.641 42.241z" clip-rule="evenodd"/><path fill="#FEAF6A" fill-rule="evenodd" d="m102.99 71.551-.564-11.783-13.638-1.698s-1.976.565-1.035 2.263l3.145 3.664-17.456 16.436-6.099-5.3s-2.445-.471-3.387.849L44.864 93.61s-2.728 4.242.094 5.938c0 0 2.445 4.148 7.619-1.131l12.979-12.633 4.42 4.525s3.574 2.922 6.772-.942l14.673-13.48 5.737-5.563s3.104 3.582 3.762 3.771c.001.001 2.259.756 2.07-2.544z" clip-rule="evenodd"/><path fill="#050D8F" fill-rule="evenodd" d="M104.048 70.537c-.007-1.26.081-2.667-.165-3.771v-1.014c-.332-2.092.403-5.021-.564-6.457-.717-1.063-1.592-1.193-3.129-1.438h-1.458l-.824-.071-.259-.165c-.447-.121-1.237-.021-1.693-.094-.827-.131-2.935.055-3.27-.425-.169-.218-.071-1.544-.071-1.956v-5.562c.313-.622 1.392-1.239 1.812-1.886l.142-.589c.099-.254.296-.5.259-.942-.085-1.015-.937-2.002-1.576-2.475-.344-.254-.881-.769-.611-1.462l.306-.424.117-.4c.177-.306.454-.717.611-1.037l.142-.612.259-.378.047-.519c.083-.253.279-.445.353-.73.061-.23-.02-.641.118-.801.564-.656 2.947.016 3.858-.425.268-.129 1.176-.99 1.27-1.272.37-1.111.235-2.896.235-4.359v-1.815c-.127-.51-.381-1.083-.658-1.461-.27-.366-1.039-.779-1.553-.872l-1.2-.023c-.494-.066-1.366.19-1.74-.07-.343-.239-.174-.595-.33-1.037l-.329-.684-.07-.519a69.634 69.634 0 0 0-.259-.4c-.14-.308-.146-.541-.306-.802-.188-.303-.104-.769-.564-.801-.063-.139.017-.269-.047-.448-.121-.339-.445-.612-.494-1.061.14-.271.363-.351.541-.565.647-.782 2.422-1.974 2.611-2.993.097-.523-.003-1.165-.188-1.532l-2.094-2.238c-.194-.188-.538-.416-.635-.684-.206-.568-.048-1.593-.048-2.263V4.172c-.259-1.099-1.25-1.956-2.093-2.499-.169-.107-.428-.068-.659-.117-1.273-.269-3.141-.188-4.705-.188H21.078c-.547.233-1.257.1-1.976.235l-.941.33-.682.07-.376.236-.612.047-.494.377c-3 1.084-5.372 3.227-6.822 5.868l-.306.283-.071.377c-.131.35-.521.792-.635 1.154l-.047.542-.329.519-.047.755c-.044.24-.2.337-.259.519l-.141.896-.023 2.757c0 .256.07.601-.047.802-.56.963-1.082.867-2 1.391-.708.402-1.556 1.053-1.976 1.743l-.094.33-.329.283-.071.447-.211.283-.118.707c-.102.431-.297 1.04-.188 1.673.308 1.791.856 2.665 1.976 3.63.222.19.404.502.659.66.784.484 2.146.767 2.399 1.744.453 1.747-1.497 2.235-2.446 2.733l-.259.33c-1.997 1.197-3.2 4.547-1.412 6.811.986 1.248 2.536 1.202 4.705 1.202H9.81l2.564.023h3.2l.07.023v.448c-.257.178-.699.075-1.035.212-.149.103-.298.051-.447.153-.212.023-.423.2-.635.224-.384.127-.65.28-1.023.4-.216.07-.555.276-.717.378-.094.086-.376.196-.471.282-.386.206-.517.251-.87.483-.079.094-.357.2-.435.295-.278.175-.362.224-.624.412-.079.118-.239.2-.318.318-2.016 1.178-3.327 3.166-4.622 5.066-.047.157-.2.314-.247.472-.169.281-.395.658-.529.966-.023.157-.177.314-.2.472-.094.103-.059.204-.153.307-.031.204-.192.408-.224.612-.109.142-.09.283-.2.425-.031.243-.168.486-.2.73-.07.109-.035.22-.105.33-.032.243-.146.486-.177.73-.11.361-.137.723-.247 1.084-.039.342-.137.33-.141 1.344-.055.086.008.243-.047.329-.016.699-.055 1.611-.071 2.31v1.933l-.024 13.695.023 7.706c.063.173.02.346.083.519.023.283.153.565.176.849.118.188.129.412.247.601.145.34.281.538.459.837.652 1.093 2.25 2.318 3.599 2.71.943.274 2.057.041 3.035.283.175.293.043.735.165 1.131.175.57 1.101 1.667 1.553 1.979 1.078.746 4.715.448 6.586.448h23.9c.461 0 2.321-.068 2.447.095.245.664-.58 1.121-.776 1.484l-.071.424c-.061.188-.228.316-.282.542-.769 3.181.938 5.153 2.753 6.363l.588.142c.119.064.171.209.329.26.394.125 1.006.07 1.506.07 1.513 0 2.085-.26 3.011-.802.387-.226.662-.737 1.012-1.013 2.201-1.736 3.967-3.915 6.163-5.633.397-.311 1.815-1.857 2.141-1.933H87.7c.739 0 1.727.134 2.376-.047l.518-.33.376-.071c.493-.3 1.471-1.614 1.623-2.262V77.207l.048-.99c.203-.348.915-.865 1.246-1.131l2.188-2.003c.344-.263.553-.819 1.129-.825.55.581 1.173 1.116 1.646 1.768l.353.235c.238.311.647.833 1.012.99 1.897.819 3.591-.501 3.976-2.026.2-.803-.139-1.919-.143-2.688zM92.779 27.951c.146.5.034.878.424 1.107 1.003.592 2.923.045 4.211.283l.282.282c.182.41.024 1.012.023 1.485v3.464l-.4.307h-1.223l-.212.165c-.363.1-.638-.122-.87-.165-.598.438-1.589-.109-2.07.565-.274.384-.221 1.173-.4 1.674-.519 1.441-1.067 2.985-1.858 4.218l-.07.33c-.232.367-.864.78-.683 1.462.124.462 1.541 1.799 1.93 2.191.14.142.438.311.494.519l-.024.989-.917.872c-.618.628-1.988 2.418-2.987 2.404-.786-.612-1.995-2.342-2.917-2.569-.396-.097-1.492.72-1.718.896-.32.251-.753.269-1.152.448-.176.079-.321.249-.471.33l-.518.094-.564.354-.541.071-.518.307c-.821.304-1.765.234-2.164.942-.105.188-.047.627-.047.896-.016.966-.031 1.933-.048 2.898-.521.283-1.222.177-2.046.212-1.229.055-3.653.18-4.47-.212-.219-.815.081-1.824-.07-2.805-.055-.351.09-.84-.071-1.084-.407-.617-1.548-.601-2.353-.824l-.705-.354-.541-.048a69.122 69.122 0 0 1-.447-.354l-.424-.07-.446-.33-.447-.094-.823-.59-.306-.047c-.198-.11-.707-.764-1.177-.637-.868.236-1.684 1.403-2.234 2.027-.123.14-.309.169-.424.33h-1.082l-.8-.849c-.656-.551-1.251-1.184-1.882-1.768l-.611-.684c-.019-1.072 1.548-2.1 2.141-2.828.141-.173.334-.255.424-.495.212-.57-.42-1.49-.659-1.838-.291-.424-.688-.983-.847-1.509v-.447c-.067-.151-.347-.25-.424-.424l-.023-.472c-.074-.184-.308-.446-.376-.637l-.023-.612-.354-.66c-.092-.268-.015-.525-.094-.849-.098-.397-.635-.766-.965-.942-.33-.131-.519.128-.705.165l-.965.023a38.662 38.662 0 0 0-.235-.188l-1.74-.047c-.132-.088-.03-.119-.095-.283l-.212-.188v-4.714l.307-.306c1.097-.006 3.447.181 4.163-.283.57-.369.29-1.19.589-1.791.102-.188.203-.377.306-.565v-.469c.05-.146.377-.528.423-.66v-.565c.139-.325.537-.851.636-1.154.052-.162-.004-.263.07-.377l.306-.354.094-.378c.254-.416.918-.974.753-1.673-.189-.802-1.719-1.981-2.281-2.593v-1.084c.198-.175.307-.376.47-.589l.447-.377c.434-.435.847-.874 1.294-1.297.253-.239.533-.747.894-.848 1.637-.455 2.322 2.021 3.529 2.286.5.109 1.374-.573 1.693-.778a13.376 13.376 0 0 1 2.8-1.343l.729-.354.636-.048.705-.33c.618-.221.949-.047 1.317-.542.141-.188.006-.666.048-.942l.023-2.545c.206-.306.399-.369.776-.519h5.27l.329.282v.236l.212.165v.565c.098.632-.177 2.24.094 2.687.3.494.696.431 1.247.66l.541.282.541.048c.203.083.483.259.705.354.328.139.586.114.871.282l.141.188.329.023.259.188.354.048.471.354.353.047.541.4.494.118.094.212.588.212c.167.11.108.301.235.448.275.317.662.621.965.919l1.6 1.414 1.646 2.145c.316.414.596.823.894 1.272l.235.212-.047.26.165.165v.307l.188.165v.447l.399.377.047.377.354.519.07.565c.141.581.428 1.223.607 1.842zm-1.152-12.75c.54.626 1.328 1.12 1.717 1.885-.03.686-1.498 2.121-1.976 2.428a6.988 6.988 0 0 1-.142.023c-.914-1.084-1.767-2.244-2.87-3.134l-1.623-1.367c-.085-.264.261-.391.377-.542.428-.561 1.008-1.163 1.576-1.579l.164-.047c.822.042.906.49 1.389.896l1.388 1.437zM5.481 38.934l-.118-.165-.282-.023-.518-.495c-.131-.21-.027-.326-.211-.472-.002-.493.083-.343.188-.612v-.849c.061-.182.336-.271.423-.424l.024-.425c.029-.085.466-.684.541-.73l.447-.07c.083-.043.106-.181.212-.212h.211c.134-.078.234-.301.376-.378.253-.137.459-.113.706-.259.215-.127.388-.415.588-.565l.259-.071c.198-.122.369-.491.494-.683l.094-.354.353-.378v-.636c.069-.186.304-.285.212-.637a51.906 51.906 0 0 1-.212-.282v-.802c-.175-.607-1.089-1.772-1.576-2.074l-.282-.047c-.134-.078-.228-.276-.353-.354-.194-.119-.54-.117-.729-.235-.668-.419-1.478-1.077-1.765-1.862l-.141-1.013c-.265-1.657.594-2.241 1.224-2.993l.518-.519c.547-.235 1.211-.372 1.717-.66.406-.23 1.121-1.166 1.365-1.579v-.424l.235-.283V13.74l.211-.236v-1.061l.212-.188.023-.282.188-.142v-.637c.033-.107.167-.126.212-.212l.023-.472.188-.165c.109-.203.135-.463.235-.683l.4-.378.047-.306.376-.33.047-.283.776-.754 1.435-1.461.282-.048.141-.188h.235l.611-.612.259-.023.165-.212h.235c.184-.064.448-.333.612-.425l.494-.023.188-.212h.447l.188-.212h.447c.079-.03.532-.364.635-.401l1.482-.023.212-.212h.423c.52.405.272.138.659 0h5.999l.212.212h.894l1.224.023.212.188h.423l.212.213.282.023.142.188h.399l.235.212.471.023c.289.109.558.46.8.613l.282.023c.133.142.267.282.399.424h.235l.142.188.306.048c.133.08.215.274.329.377l.329.094c.579.468 1.194 1.081 1.553 1.768l.823.849.023.4c.072.202.552.634.659.872v.26l.212.235v.589l.212.188v.448l.211.188v.447l.212.26.023 3.865.165.117c.074.107-.019.146.023.283.055.063.109.126.165.188l.023.424c.039.117.192.145.235.236.125.268.088.446.234.684l.941.942.259.023.329.377.282.023.188.213.282.023.142.188h.259l.94.942.047.307c.134.117.267.235.4.354v.259c.07.056.141.11.212.165v1.933l-.212.212c-.206.563-.475 1.281-.941 1.579l-.282.048c-.099.059-.532.395-.611.424h-.235l-.212.212h-.212l-.188.212h-.235c-.227.105-.785.794-.965 1.014-.133.118-.267.235-.399.354l-.023.472c-.058.12-.337.451-.4.589l-.023.707c-.085.167-.308.279-.212.612l.235.283-.023.377.212.212.023.26c.076.125.274.218.353.354.199.345.241.835.588 1.014l.282.07c.116.079.236.299.354.354l.259.023.353.377.282.023v.024l.188.188c.114.044.203-.01.282.047h.023l.142.188h.234c.06.034.683.657.706.707l.047.307.377.354c.197.372-.151.564.235.848-.003.596-.215.615-.212 1.297-.402.525-.814.73-1.718.73a77.98 77.98 0 0 1-.494.023c-.184-.053-.143-.202-.47-.212-.501.385-2.091.188-2.988.188l-6.61.023-.211-.212H30.37l-.33-.307.023-.872c.21-.363.586-.52.965-.73l.165-.212.282-.023.729-.778 1.246-1.201c.123-.183.159-.472.259-.684l.4-.401c.132-.258.137-.432.259-.707l.376-.377.023-.282c.07-.056.142-.11.212-.165v-.26l.212-.188v-.636l.188-.165.047-.472.188-.212v-.448l.212-.212v-.447c.095-.21 1.161-.852 1.412-.943l.258-.023.354-.377.282-.047c.328-.223 1.433-1.452 1.553-1.791v-.378l.235-.282c.121-.274.066-.598.188-.872l.212-.188v-1.768l-.212-.212v-.637l-.188-.165-.023-.282-.188-.142-.023-.283c-.063-.055-.126-.109-.188-.165a22.626 22.626 0 0 1-.023-.259l-.611-.59a17.009 17.009 0 0 1-.023-.235l-.518-.542-.307-.047-.141-.188h-.235c-.177-.081-.396-.354-.611-.425l-.259-.023c-.16-.093-.44-.341-.612-.4h-.448l-.188-.212-6.022-.023-.188-.188h-.4c-.107-.032-.111-.142-.188-.189l-.282-.023-.188-.212-.259-.047c-.488-.288-.664-.941-1.317-1.061l-.071-.33-.611-.589-.023-.26-.212-.188v-.424l-.212-.188v-.26l-.211-.212v-.825c-.033-.103-.177-.129-.212-.212v-.66c0-1.123.033-1.655-.729-2.026-.534-.218-1.112.36-1.223.66l-.023 2.026-.188.165-.023.684c-.037.083-.179.109-.211.212v.425l-.212.212v.377c-.209.648-.927 1.245-1.412 1.649l-.588.637h-.235l-.188.212-.283.023c-.139.065-.25.334-.4.4l-.447.024-.188.188-5.999.023-.211.212h-.894c-.567.245-1.195.87-1.929.872-.335.497-.851.849-1.152 1.367a8.057 8.057 0 0 0-.423.848l-.024.448-.211.188-.023.472-.165.188-.023.872c-.072.117-.152.092-.188.259.336.435.04.358.211.872l.165.212.023.613c.07.18.322.47.4.659l.047.425.4.377c.539.597 1.094 1.188 1.788 1.626l.282.071.4.377c.328.159.544-.047.753.282l.023.283.211.165v.684l.188.259v.354l.235.307c.07.338.056.666.211 1.014l.212.212.047.306.33.33.023.401c.037.108.161.129.211.212l.047.282.4.378.259.518c.16.18.485.372.588.59l.047.259.306.095c.455.278.768.883 1.2 1.202.179.132.573.21.752.329.113.075.642.769.706.896l.023.613-.541.519h-12zm22.136-2.735c-1.136.49-2.498.613-4.164.613l-1.2-.047a24.445 24.445 0 0 0-.259-.188l-1.271-.118c-1.8-.57-3.444-1.727-4.54-3.017-.226-.266-.299-.564-.494-.872-.175-.276-.502-.579-.635-.896l-.118-.495-.306-.447-.023-.543c-.062-.26-.245-.571-.329-.801-.195-.53.129-1.685-.141-2.121-.552-.89-1.4-.613-2.447-.966-.928-.314-2.395-2.286-1.929-3.937.256-.908.935-1.744 1.646-2.215l.471-.118c.196-.096.368-.276.611-.33l1.506.023 4.517-.07c2.59-.612 4.24-1.956 5.575-3.818.089.024 1.128 1.277 1.247 1.438l.353.259c.189.181.335.452.541.612.16.126.428.323.588.401l.306.047c.133.068.178.263.33.33l.541.094.259.236c.274.055.549.109.823.165l.588.235 1.317.047h2.588c.618 0 1.547-.14 2.069.048 1.202.429 2.764 1.732 2.494 3.534l-.023.849-.282.377-.118.425c-.054.134-.314.484-.423.636-.593.826-2.085.771-3.105 1.179-.836.435-.346 1.552-.588 2.545l-.329.825c-.009.188-.017.377-.024.565l-.329.472-.117.519c-.121.292-.391.584-.564.825-.214.294-.319.595-.518.896-.117.177-.724.708-.918.848-.242.176-.414.53-.658.707-.266.193-.561.234-.847.425-.095.109-.188.22-.283.33l-.423.07c-.17.066-.236.255-.377.33l-.588.094zm.047 4.549-.023 3.417-.329.495-.117.448c-.222.313-.589.582-.895.824l-.235.307c-1.932 1.104-3.981.57-5.081-.942-.109-.087-.161-.279-.271-.365-.023-.149-.105-.192-.129-.342l-.306-.425-.071-1.673v-3.865l.118-.094c.597-.001.905.277 1.458.377l4.211-.023c.317-.06 1.484-.451 1.67-.33.033.02 0 1.811 0 2.191zM9.622 86.729c-.216.137-1.957.182-2.306.07-.133-.086-.337-.066-.47-.153-1.618-.756-2.045-1.08-2.564-2.298-.118-.196-.023-.393-.141-.589l-.023-1.909c0-.515-.071-1.193.047-1.626l.165-.095h3.411c.585 0 1.315-.051 1.788.071.234.36.07 1.31.07 1.838.006 1.564.015 3.127.023 4.691zm28.863-26.114c-.175-.079-.113-.222-.446-.212-.22.24-.778.266-.941.542-.271.457-.032.937-.165 1.556-.284 1.331-.07 3.268-.07 4.784l.023 1.154-.023 21.471-.494.542c-.33.166-1.083.037-1.505.023H17.432c-1.426 0-4.5.267-5.27-.354-.514-.414-.518-2.186-.518-3.252v-8.438l.023-7.094s.053-9.344-.023-9.521l-.071-.777c-.073-.143-.241-.202-.392-.252-.694-.228-1.166-.096-1.6.229-.088 1.203-.078 1.111-.055 4.501v7.659c0 1.044.179 4.182-.165 4.667-.925.008-1.851-.056-2.776-.048-.716-.062-1.492.101-2.165-.023-.453-.778-.282-2.278-.282-3.559l.023-8.343c.016-2.93.055-5.86.071-8.791.044-.193.038-.48.106-.754.07-.157.094-.396.165-.554 0-.251.165-.42.165-.672.074-.254.187-.563.271-.849.008-.133.086-.267.094-.4.063-.086.066-.173.129-.259.125-.34.078-.385.259-.637.063-.047.114-.283.176-.33.008-.142.11-.282.118-.424.118-.149.141-.299.259-.448.031-.149.18-.298.212-.447.088-.152.195-.256.282-.401l.023-.259.612-.66c.516-.966 1.203-1.83 2.023-2.486.211-.235.47-.365.682-.601.434-.305.71-.605 1.211-.849.133-.142.29-.165.423-.307.094-.008.2-.133.294-.141.136-.083.256-.199.4-.283.366-.215.829-.332 1.152-.589.055-.063.204-.056.259-.118.149-.008.204-.087.353-.095.183-.077.455-.161.647-.224.196-.008.38-.146.576-.153.191-.092.455-.163.659-.259.235-.008.471-.181.706-.188.397-.069.631-.222 1.2-.212.157.194.204.523.306.754.119.271.144.582.282.849.125.181.122.361.247.542.008.117.145.235.153.354.07.055.059.145.129.2.07.165.224.294.294.459.522.691 1.242 1.135 2 1.603.157.126.314.181.471.307.149.016.333.185.482.2.297.09.618.227.977.295.801.152 2.003-.001 2.611-.212.07-.063.2-.031.271-.095.156 0 .255-.13.411-.13.196-.141.393-.247.589-.389.93-.366 1.914-1.5 2.281-2.451l.353-.447c.146-.231.333-1.136.33-1.532l.471-.377 1.011.071.471.212.636.023c.285.082.617.325.87.4l.658.023c.188.075.375.364.588.425h.4c.173.117.345.235.518.354.34.21.743.269 1.059.494l.165.213.211.023c.149.117.299.235.447.354l.282.047.377.424.682.425.611.636.259.048.118.259.541.448.07.259.636.589c.109.147.141.342.259.495l.588.565.023.307.376.377v.236c.134.148.267.298.4.447.073.112.014.226.07.377.048.128.271.313.353.448l.095.424.188.165.024.472c.102.149.203.299.306.447l.117.778c.089.226.316.532.4.777l.023.942c.232 1.04.329 2.901.164 4.195l.023 6.599v6.552c0 1.258.07 2.671-.094 3.724-.153.081-.296.246-.424.307l-1.388.047c-1.075 0-2.331.156-3.34-.047-.249-.466-.095-2.946-.095-3.724l.023-9.922c.147-.065.373.016.541-.047l.095-.071v-.094c-.089-.05-.252-.007-.377-.07-.132-.067-.008-.189-.047-.307a23.642 23.642 0 0 0-.235-.212l.023-1.108.212-.188-.023-.919-.353-.118c-.062-.515-.015-.203-.398-.376zm.66 19.444h3.74c.414 0 1.193-.119 1.506.047.249.156.138.655.141 1.014v2.593c-.051.26-.263.407-.353.636-.592 1.501-1.908 2.522-3.999 2.522-.376 0-.853.035-1.153-.048-.155-.279-.07-1.038-.07-1.508v-3.653c-.001-.56-.1-1.321.188-1.603zm1.858 10.487c-.63-.047-1.35.072-1.905-.047-.117-.226-.179-1.415.07-1.508h1.012c.534 0 1.527-.073 1.999-.213 1.629-.479 2.786-1.556 3.6-2.875l.306-.4.047-.4c.081-.208.311-.364.376-.613.009-.274.017-.55.024-.825.037-.183.192-.228.234-.377V74.45l-.023-8.767c0-1.61.133-3.599-.141-4.973-.052-.259.094-.404.141-.565l.023-.967c.104-.683-.146-1.082-.234-1.626v-1.249c-.072-.424-.274-.844-.377-1.202l-.07-.849-.329-.589c-.17-.584-.214-.934-.424-1.461l-.282-.354-.094-.472-.307-.377-.07-.4a117.65 117.65 0 0 0-.353-.354c-.168-.31-.187-.576-.377-.849-.102-.07-.203-.142-.306-.212l-.047-.26c-.096-.205-.28-.455-.423-.659-.246-.352-.757-.675-1.012-1.014-.437-.579-.815-1.044-1.412-1.461-.553-.388-.979-1.024-1.552-1.391l-.4-.118c-.224-.152-.433-.425-.683-.565a46.558 46.558 0 0 1-.399-.095l-.282-.33-.377-.07-.446-.377-.4-.023c-.085-.029-.124-.142-.188-.188l-.636-.188-.376-.26c-.384-.153-.549-.084-.895-.282-.357-.206-1.633-.004-1.388-.707l.023-.071 10.681-.023c.1-.022 1.111-.366 1.199-.424.22-.146.406-.427.611-.59.32-.253.796-.688.941-1.084l.047-.542c.121-.349.354-.843.235-1.461l-.212-.589-.07-.778-.329-.424a71.464 71.464 0 0 0-.095-.448c-.541-.871-1.608-1.792-2.47-2.356-.153-.101-.368-.038-.564-.118-.582-.236-1.179-.874-1.364-1.508-.411-1.405 2.087-2.289 2.846-2.805.361-.245 1.405-1.386 1.576-1.791l.095-.4.306-.425.07-.801c.136-.365.324-.914.212-1.556l-.235-.707-.023-.613-.282-.447c-.491-1.2-1.38-2.019-2.399-2.687l-.541-.188-.259-.213-.518-.094-.235-.33-.235-.094c-.772-1.145-.077-3.188-.471-4.714-.313-1.22-.688-2.314-1.082-3.417l-.329-.495c-.347-.733-.784-1.251-1.152-1.956-.2-.382-.713-.665-1.012-.967l-.118-.259c-.102-.063-.203-.126-.306-.188-.311-.309-.573-.746-.94-.99-.312-.207-1.156-.464-1.035-.989l.07-.095h54.152c.226.068.558.376.776.519.058.286.18.468.235.684v6.175l-.07.047c-2.415-1.436-3.726 2.254-5.363 2.898-.159-.063-.244-.193-.4-.259l-.471-.118-.282-.282-.47-.048-.4-.329-.588-.095a23.368 23.368 0 0 0-1.247-.589c-.428-.19-.9-.076-1.152-.425-.196-.271.045-2.182-.07-2.733-.135-.639-1.074-1.578-1.647-1.791-.917-.016-1.835-.031-2.752-.048l-4.775.048c-.55.264-1.124.854-1.435 1.366-.032.052-.297 2.361-.283 2.404.057.177.214.317.165.589v.048c-.376.156-.753.313-1.129.471-.181.016-.361.031-.541.048-.103.07-.204.141-.306.212l-.706.188-.235.212-.564.118-.306.306-.518.095-.259.307-.353.07c-.162.069-.411.245-.589.354-.509-.061-.893-.777-1.176-1.107-.352-.409-1.341-1-1.953-1.132-.595-.128-.929.145-1.293.283l-.4.07c-.347.158-.729.818-1.035 1.061-.808.64-1.414 1.495-2.164 2.192-.467.434-1.145.924-1.388 1.556-.119.308-.118 1.603-.023 1.956.125.467 1.03 1.35 1.411 1.626l.282.377c.169.131.439.311.494.542.06.252-.593 1.035-.683 1.249l-.07.448-.329.329-.07.519-.259.33-.023.377-.354.66-.047.613-.329.589c-.068.219-.046.389-.142.542-1.382.241-2.891-.207-3.857.447-.193.131-.874.82-.941 1.037-.372 1.198-.225 2.683-.259 4.219v2.074c.127.591.455 1.1.776 1.508.124.158.318.171.494.283.133.118.267.235.399.354.569.192 1.703.07 2.4.07h.987l.494 1.155.047.612c.095.157.188.314.282.472l.142.565.212.26c.072.218-.004.403.094.565l.306.33.07.424c.198.374.623.786.706 1.249-.393.75-1.185 1.18-1.693 1.814l-.235.519-.306.354.023 1.815.353.4c.752 1.258 1.924 2.074 2.894 3.11.39.417.821 1.085 1.364 1.32.47.203.96.544 1.741.4 1.033-.19 1.591-.899 2.211-1.508.235-.231.432-.621.729-.778.329-.115 1.896.861 2.234 1.037l.4.118.471.306c.18.017.36.032.541.048.216.072.385.307.635.377l.588.023.753.495c.158.376-.266.569-.165.919.056.086.11.173.165.259.09.591-.086 1.204.047 1.792.044.191.206.247.306.377.683.883 1.053 1.13 2.424 1.343l2.352-.023c2.354 0 4.093.241 5.105-1.154.464-.641.471-1.467.47-2.616 0-.326-.056-.789.048-1.037.177-.425.732-.304 1.129-.495l.376-.259c.196-.016.393-.031.589-.048l.423-.306.541-.118.212-.188.588-.142.329-.307.4-.047c.244-.134.313-.48.776-.354.607.294.897 1.041 1.411 1.438l.636.448.306.07c.319.207.722.453 1.388.33.497-.092.799-.336 1.294-.472.192.186.094.919.094 1.273 0 1.031.213 3.045-.07 3.841-.329.063-.554-.054-.823-.117-.498-.118-.865.079-1.177.188l-.493.07c-.94.399-1.898 1.99-1.317 3.512.126.332.442.579.658.825.548.623 1.118 1.195 1.623 1.861l.753.778c-.035.543-.731.964-1.082 1.225l-.588.707c-.852.762-1.698 1.52-2.588 2.239-.444.359-.785.917-1.247 1.249-.259.187-.421.462-.658.637a51.54 51.54 0 0 0-.235.117c-.179.229-.331.491-.541.684-1.255 1.152-2.543 2.313-3.858 3.394l-.188.307c-.452.386-.848.795-1.317 1.155-.079.117-.181.212-.259.33-.934.68-1.646 1.606-2.541 2.31-.304.238-.595.412-.8.754h-.094c-.195-.156-.362-.392-.518-.589-.404-.516-1.02-.889-1.436-1.391-.652-.788-1.108-1.604-2.007-2.153-.126-.133-.313-.212-.439-.345-.157-.017-.313-.197-.471-.213-.168-.078-.291-.11-.494-.188-.274-.016-.549-.157-.823-.173-.306-.07-.611-.016-.917-.086-.124.032-.416.016-.588.055-.33.016-.494.063-.973.165-.221.072-.373.178-.557.26-.134.023-.267.181-.4.204-.683.315-1.075 1.021-1.646 1.438-.679.494-1.236 1.091-1.905 1.603-.339.259-.569.717-.918.966-.806.576-1.42 1.374-2.188 2.004l-.212.306c-2.693 1.956-4.087 3.968-7.434 6.788-.25.211-.439.515-.682.73-.326.29-.785.534-1.059.872-.234.289-.579.807-.918.966-.391.184-1.696.047-2.234.047l-3.764-.024zm27.993-.024c-.349.199-1.286.095-1.835.095-1.403-.016-2.807-.031-4.21-.048-.049-.077-.068-.094-.071-.235.964-1.004 2.421-1.943 3.223-3.04.455.011.571.313.776.565.364.45 2.073 2.142 2.141 2.569l-.024.094zm21.172-.588c-.558.798-1.958.66-3.316.66l-7.128-.024-2.023-.023-.047-.094a4.909 4.909 0 0 1-.023-.118c.915-.953 1.978-1.758 2.917-2.687l.235-.354c.404-.302.69-.736 1.082-1.037.681-.522 1.304-1.111 1.952-1.673.75-.648 1.441-1.393 2.164-2.074.224-.21.496-.635.729-.802.433-.309.72-.748 1.129-1.061.867-.661 1.642-1.396 2.447-2.121h.094c.104.229.008.499.047.778l.023 3.771v4.643c0 .842.064 1.72-.282 2.216zm11.527-16.874h-.823c-.452-.345-.896-.85-1.247-1.297-.383-.487-.929-.9-1.364-1.343-.229-.233-.569-.908-1.105-.778-.677.164-.978.751-1.459 1.037l-.259.047-.564.613-1.929 1.814-.918.967c-1.231.98-2.329 2.114-3.505 3.157-.418.371-.725.778-1.199 1.108-.195.135-.278.331-.455.479-.282.235-.485.488-.792.707-.07.126-.212.221-.282.346-.414.411-.923.725-1.341 1.132-.039.094-.087.102-.126.196-.094.031-.18.212-.274.243-.063.11-.141.142-.204.252-.754.573-1.295 1.323-2.102 1.83-.275.173-.64.674-.823.966l-.259.118-.729.684-.965.989a26.3 26.3 0 0 0-2.259 2.004c-.715.712-1.456 1.453-2.446 1.885-.559.244-2.026-.024-2.353-.212-.841-.483-1.37-1.173-1.999-1.861-.581-.637-1.191-1.233-1.741-1.909l-1.294-1.319-.376-.189-.117-.424a13.726 13.726 0 0 0-.188-.023c-.142.146-.096.304-.212.495-.201.331-.673.521-.988.754-.097.071-.063.214-.141.307-.005.006-.48.304-.541.354-.516.417-.905 1.013-1.412 1.438-1.2 1.006-2.302 2.076-3.505 3.087l-.164.307c-.647.504-1.316 1.044-1.858 1.649-.47.523-.931 1.042-1.553 1.414l-1.059 1.084c-.819.708-1.994 1.582-2.658 2.404-.333.412-.752.717-1.13 1.084l-.705.73c-.94.642-2.483.985-3.646.283-.235-.244-.564-.44-.8-.684-.204-.196-.313-.44-.518-.637-.069-.109-.499-1.173-.447-1.319.063-.079-.016-.393.047-.472 0-.408.142-.581.142-.989.471-1.332 2.516-2.757 3.505-3.724.795-.777 1.684-1.454 2.471-2.239.733-.732 1.39-1.521 2.281-2.098.125-.08.089-.254.188-.354l.235-.07.635-.66c.379-.305.701-.575 1.105-.872.165-.121.209-.436.377-.565 1.032-.798 1.843-1.805 2.846-2.616.441-.356.729-.786 1.247-1.084.531-.306 1.019-1.116 1.506-1.509 1.228-.989 2.23-2.337 3.623-3.134.236-.136.418-.145.705-.268.063-.063.313.023.377-.039.345 0 .564.016.909.016.099.034.26.054.384.087.212.031.432.181.644.212.125.109.251.196.376.307 1.173.776 2.458 2.756 3.827 3.951l.117.282c.162.21.89.729 1.271.731.207-.198.478-.262.706-.448.54-.441 1.02-.994 1.553-1.461 1.269-1.111 2.337-2.466 3.74-3.441l.611-.659c.577-.478 1.063-1.038 1.646-1.509l.541-.612c.773-.462 1.229-1.198 1.905-1.744 1.167-.943 2.371-1.971 3.317-3.135.378-.466.968-.801 1.435-1.179l1.623-1.649c.465-.31 1.289-.859 1.436-1.438.162-.639-.619-1.508-.941-1.697l-.306-.377c-.459-.473-.92-.922-1.341-1.438l-.635-.612-.023-1.037.329-.33h2.517l.259.212h1.482l.212.212 2.376.024.188.188 2.376.023.188.188 1.905.023c.225.047.574.354.776.472l.023.471.188.236.023 1.084v1.461c.239.948.165 2.389.165 3.582l.047 5.421c-.074.102-.187.247-.305.307zM87.322 20.339c-.812-.252-1.531.251-2.047.377l-.636-.023h-.518l-.705-.589c-.64-.424-1.294-.864-1.929-1.273l-.354-.047c-.198-.063-.43-.354-.611-.424-.367-.142-.641-.104-1.035-.236l-.776-.4-.564-.023c-.176-.039-.261-.186-.4-.235-.81-.291-2.434-.25-3.458-.236l-1.952.071-1.012.188-.329.188-.635.023-.801.424-.517.048c-.188.117-.377.235-.565.354-2.098.859-4.058 2.286-5.293 4.006-.102.071-.203.142-.306.212-1.094 1.432-1.815 3.015-2.611 4.761l-.07.66-.235.448c-.115.486-.059.988-.164 1.555-.77 4.118.8 7.956 2.376 10.44l.235.188c.319.403.583.847.894 1.249l.353.26c.395.631 1.829 1.876 2.494 2.239.451.246.781.45 1.27.683l.471.378.424.047c.184.087.367.272.588.354l.376.047c.451.148 1.086.528 1.576.637 6.742 1.482 12.118-1.345 15.15-5.067.779-.957 1.691-2.104 2.093-3.417.067-.22.292-.44.377-.684l.07-.495c.192-.479.466-1.14.611-1.673l.095-1.226c.367-2.044.184-4.676-.494-6.387.186-.307.318-.764.424-1.084l.376-.401.094-.447c.099-.198.25-.442.306-.707.113-.536-.04-1.075-.117-1.485-.31-1.63-1.066-2.828-2.519-3.278zm-.141 14.211-.212.283-.141 1.037c-.049.194-.2.334-.259.494l-.071.495c-.171.4-.479.899-.682 1.296-1.943 3.82-6.87 7.677-13.104 6.623l-.964-.047c-.223-.051-.319-.193-.494-.26l-.8-.118c-.179-.05-.264-.19-.4-.259l-.47-.07-.518-.33-.354-.048-.259-.282-.494-.165c-.129-.081-.186-.257-.329-.33-2.134-1.094-3.683-3.253-4.729-5.468l-.259-.307-.07-.518-.329-.566-.07-.73-.307-.777-.023-.919c-.14-.836-.129-2.025 0-2.852.016-.361.031-.724.048-1.085.055-.195.22-.418.282-.589l.047-.66c.058-.274.217-.379.306-.589l.117-.612c.189-.469.49-1.019.753-1.462l.306-.4v-.212c.041-.089.531-.56.636-.707 1.663-2.355 3.723-3.499 6.563-4.666l1.034-.095.212-.142.988-.188 3.034.023c.291.072.749.232 1.035.307l.848.07c.196.06.388.262.611.33l.494.048.306.259.658.165.235.235c.556.235 1.825.898 2.094 1.344.42.551-.554 1.163-.753 1.391-.851.973-1.822 1.836-2.705 2.78-.191.206-.475.355-.658.566-.933 1.067-1.989 1.992-2.988 2.992-.323.325-.708 1.045-1.199 1.155-.385.087-1.599-1.448-1.905-1.697-.539-.436-1.041-1.088-1.718-1.366-.384-.158-1-.244-1.341-.354-.017-.006-1.495.276-1.623.33-.119.05-.147.163-.235.235l-.494.188c-.762.459-1.864 2.217-1.529 3.677.58 2.522 3.266 3.961 4.705 5.727.646.791 1.537 1.713 2.541 2.121.402.163 2.146.286 2.705.118.866-.262 1.779-.947 2.282-1.579.182-.229.383-.529.611-.707a8.428 8.428 0 0 0 1.388-1.367l.588-.542c.16-.208.384-.502.589-.66.402-.31.685-.789 1.082-1.084.217-.161.495-.355.658-.565.35-.45.803-.993 1.247-1.344.605-.478 1.075-1.088 1.67-1.579l.282-.377c.311-.252.815-.595.965-.989.085-.046.176-.068.259 0 .156.11.044.269.117.471.046.125.197.146.235.307l.023 1.603c.068.412.064 2.71-.068 2.993zm.376-9.05-.964.919c-.518.455-.927 1.034-1.459 1.485-1.18.997-2.096 2.313-3.293 3.299l-.729.802c-.779.649-1.405 1.454-2.141 2.145l-1.435 1.367c-.521.655-1.802 2.04-2.635 2.31-.278.089-.771.42-1.271.212a4.569 4.569 0 0 1-1.694-1.226l-.47-.565c-1.303-1.026-2.274-2.416-3.553-3.465-.109-.09-.45-.49-.494-.612-.118-.335-.114-1.256.048-1.509a1.939 1.939 0 0 1 2.635-.589c.444.269.821.781 1.176 1.154.399.421.83.821 1.271 1.202.319.277.549.664.894.919.15.111.433.172.588.26.166-.03.169.035.282 0 .142-.008.283-.181.424-.188.119-.065.111-.065.188-.177.094-.039.164-.208.259-.248.188-.141.322-.315.458-.519.095-.039.106-.102.2-.141.113-.08.191-.188.271-.307.11-.055.091-.11.2-.165.031-.095.204-.188.235-.283.095-.115.326-.25.447-.4.023-.086.117-.066.141-.153.085-.092.203-.167.282-.271.473-.623 1.207-1.371 1.835-1.839.055-.117.142-.125.196-.243.135-.132.391-.327.533-.487.031-.094.156-.126.188-.22.102-.039.109-.142.211-.181.031-.087.165-.134.196-.22.078-.12.144-.128.274-.275.016-.078.11-.07.126-.149.078-.016.078-.117.156-.133.087-.044.2-.213.282-.283.084-.072.233-.235.306-.307.223-.218.142-.188.4-.4l.965-.99c.086-.016.172-.196.259-.212.078-.149.156-.134.234-.282l1.882-1.792.542-.094c.394-.006.803-.022 1.059.118.791.43 1.129 1.83.495 2.733zm-58.669 5.161c.053-.479-.815-1.344-1.341-1.202 0 0-.615.357-.635.377l-.188.307c-.698.491-1.866 1.07-3.199.849-.684-.113-1.308-.256-1.765-.589-.458-.334-.945-.94-1.694-.943-.166.129-.563.253-.682.425-.77 1.116.667 1.911 1.294 2.333 2.102 1.414 4.704 1.305 6.752-.07.468-.317 1.385-.833 1.458-1.487zm67.797 37.261-.047.07.023.118c.052.077.059.069.188.07.031-.062.042-.082.048-.188l-.071-.047-.141-.023z" clip-rule="evenodd"/></svg>