<svg xmlns="http://www.w3.org/2000/svg" xml:space="preserve" width="106" height="103"><path fill="#63C6F7" fill-rule="evenodd" d="M52.43 73.244c-8.183 0-14.816 6.661-14.816 14.878V103h29.634V88.122c-.001-8.217-6.635-14.878-14.818-14.878z" clip-rule="evenodd"/><path fill="#56A6F7" fill-rule="evenodd" d="M67.02 85.833s-1.254-12.817-14.703-12.589l-.114 29.984L67.361 103l-.341-17.167z" clip-rule="evenodd"/><path fill="#63C6F7" fill-rule="evenodd" d="M52.288.143 34.906 26.608l11.54.143-.142 16.595 11.682.286.143-17.31 11.588-.095z" clip-rule="evenodd"/><path fill="#56A6F7" fill-rule="evenodd" d="M69.869 25.979 52.202-.458v43.604l5.927.686-.114-17.51z" clip-rule="evenodd"/><path fill="#DF3854" fill-rule="evenodd" d="m103.265 39.483-25.873-17.51.114 11.902s-1.141-.115-9.688-.115c-8.549 0-14.247 6.581-14.247 6.581-9.688 9.441-7.067 20.6-7.067 20.6l12.196-.057v-3.892c.228-9.613 9.346-11.444 9.346-11.444l9.574.114v11.444l25.645-17.623z" clip-rule="evenodd"/><path fill="#7CF7B8" fill-rule="evenodd" d="M51.415 40.342s-5.699-6.581-14.247-6.581c-8.549 0-9.688.115-9.688.115l.114-11.902L1.72 39.483l25.645 17.624V45.663l9.574-.114s9.118 1.831 9.347 11.444v3.892l12.195.057c0-.001 2.623-11.159-7.066-20.6z" clip-rule="evenodd"/><ellipse cx="52.857" cy="63.374" fill="#F7D2AD" fill-rule="evenodd" clip-rule="evenodd" rx="9.016" ry="8.746"/><path fill="#F7B594" fill-rule="evenodd" d="M60.979 61.457s-1.254-5.837-8.549-6.753l-.113 17.511s7.294.572 8.776-7.782l-.114-2.976z" clip-rule="evenodd"/></svg>