<svg xmlns="http://www.w3.org/2000/svg" xml:space="preserve" width="74.99" height="74.99"><path fill="#F0D0B4" fill-rule="evenodd" d="m61.385 42.066-4.135.054c-1.742 3.483-5.388 3.049-5.388 3.049l.217 3.537 7.075-.327 2.286-3.156-.055-3.157z" clip-rule="evenodd"/><path fill="#E6E9ED" fill-rule="evenodd" d="M35.808 29.278s-4.897-.871-2.394-5.877c2.503-5.007 1.636-4.49 1.636-4.49H3.75S1.415 20.136 3.048 35.7l3.048 1.088 12.516.435 17.959-.108-.763-7.837z" clip-rule="evenodd"/><ellipse cx="17.468" cy="21.06" fill="#F0D0B4" fill-rule="evenodd" clip-rule="evenodd" rx="3.972" ry="3.864"/><path fill="#FF826E" fill-rule="evenodd" d="M27.319 33.958c-1.415-6.205-7.184-7.401-7.184-7.401-12.299-1.415-12.407 9.687-12.407 9.687l11.101.108 5.443 5.116 1.197-1.089.436-2.938 1.85-.653-.436-2.83z" clip-rule="evenodd"/><path fill="#FFEAA7" fill-rule="evenodd" d="m34.285 62.691-.109-13.278c.109-1.633-1.197-1.851-1.197-1.851L4.68 47.454c-.979.218-1.523 1.415-1.523 1.415v14.149c.327 1.85 1.306 1.523 1.306 1.523h19.264l5.007 4.57.871-.108.109-.762.108-3.7h2.939c1.632.437 1.524-1.85 1.524-1.85z" clip-rule="evenodd"/><path fill="#B27946" fill-rule="evenodd" d="M70.8 16.761c-3.537-7.836-9.578-9.741-9.578-9.741-3.482-2.449-15.509-2.667-15.509-2.667l-8.082-1.605C34.312 4.436 34.339 8 34.339 8c0 4.462 3.863 5.278 3.863 5.278l12.571 1.088 1.851 1.469c11.102-1.579 10.938 8.653 10.938 8.653.815 6.149-5.66 8.218-5.66 8.218l-.326 9.36 3.482.054 4.136-2.666C76.242 31.073 70.8 16.761 70.8 16.761z" clip-rule="evenodd"/><path fill="#969FAA" fill-rule="evenodd" d="M56.876 2.937h-3.754c-1.143.735-.987 1.743-.987 1.743l.008 11.558 1.224 21.706c-.244 2.61-2.285 2.611-2.285 2.611l-12.647.081c-.653 2.203 1.713 3.346 1.713 3.346l11.506.082c4.57.244 5.142-3.183 5.142-3.183v-6.773l1.142-18.687V4.651c.08-1.468-1.062-1.714-1.062-1.714z" clip-rule="evenodd"/><path fill="#F0D0B4" fill-rule="evenodd" d="M46.039 22.638s.436-1.795 1.523-3.047c0 0 .816-1.688 2.885-2.776l.163-1.959-.263.076-9.533-.076s-1.251.435-2.014 1.306c0 0-4.081 4.354-4.898 9.85l-.217 1.524 3.537 1.034v5.659s.382 4.681 4.626 4.571h9.904l.163-5.55c.001 0-7.183-3.265-5.876-10.612z" clip-rule="evenodd"/><path fill="#B4DD7F" fill-rule="evenodd" d="m72.487 72.487-.436-20.789-8.271-4.136s-1.016-.774-1.994-.774l-3.121 2.299-7.837.436s-9.033 4.026-8.163 14.04l-.218 8.599 30.04.325z" clip-rule="evenodd"/><ellipse cx="54.964" cy="24.543" fill="#FCD770" fill-rule="evenodd" clip-rule="evenodd" rx="7.075" ry="7.02"/><path fill-rule="evenodd" d="M64.528 41.985c.643-.475 1.27-.964 1.905-1.443l.598-.571.653-.598c.538-.668 1.196-1.238 1.715-1.932 1.494-2.003 2.82-4.25 3.55-7.007.336-1.265.786-2.698.79-4.259h.081v-3.401h-.081c-.023-.825-.184-1.654-.341-2.368-.281-1.273-.536-2.453-1.021-3.51-.387-.845-.645-1.666-1.088-2.435-1.726-2.989-3.924-5.572-6.789-7.415-.785-.505-1.594-.907-2.448-1.36-.243-.128-.542-.315-.803-.408-.365-.129-.704-.283-1.048-.422-.133-.053-.278-.043-.381-.122-.088-.067-.184-1.088-.272-1.266-.506-1.007-1.282-2.063-2.612-2.217V1.17h-3.714v.082c-.905.148-1.687.693-2.122 1.319-.084.12-.477.917-.544.939h-5.483c-.144-.044-.302-.283-.395-.395l-.667-.571c-.816-.612-1.933-1.184-3.211-1.292V1.17h-1.918v.082c-2.758.198-5.043 2.575-5.769 4.844-.32 1.001-.428 2.585-.136 3.713a8.95 8.95 0 0 0 .721 1.837c.497.967 1.354 1.759 2.204 2.381.199.145 1.366.68 1.415.789l.014.054-.681.722c-.494.638-.939 1.308-1.415 1.973H22.23l-.313-.381-.612-.599c-.66-.489-1.425-.976-2.341-1.197-.376-.091-.677-.085-1.075-.149-.453-.073-.99.031-1.319.109-.356.084-.664.074-.966.217-.643.304-1.196.623-1.741 1.007-.235.165-.832.968-1.02 1.006H6.272c-.927 0-1.93-.038-2.653.15-.813.211-1.495.85-1.891 1.496-.196.32-.436.705-.476 1.17H1.17v15.455h.082c.188 1.483 1.543 2.55 2.993 2.803l3.442.014h10.558c.176.059.952.955 1.143 1.143l2.136 2.109c.39.391.764.871 1.279 1.129 1.947.978 3.698-.376 4.109-1.986.173-.678-.028-1.635.041-2.34.142-.093.479-.055.708-.055h7.347l2.027.014.313.313.013.04c-.098.174-.313.256-.435.408a2.874 2.874 0 0 0-.572 1.13c-.247 1.027.305 2.299.667 2.856.653 1.009 1.426 1.613 2.625 2.081.769.301 1.98.19 3.007.19l7.7.015c.081.158.027.544.027.788v1.919c-.298.208-.686.36-1.034.503-.349.144-.694.412-1.034.6l-.503.381c-1.325.899-2.639 2.04-3.564 3.332-.832 1.163-1.645 2.444-2.19 3.878-.384 1.01-.616 2.093-.87 3.238l-.041.599c-.219 1.247-.137 2.848-.137 4.285v8.585H73.82v-19.7h-.081c-.038-.513-.204-.96-.341-1.36-.762-2.23-2.324-3.562-4.489-4.394-.368-.143-.802-.181-1.211-.259l-.53-.068-2.667-2.027c-.228-.158-1.194-.759-1.238-.993l.014-2.19c.047-.128 1.068-.71 1.251-.845zM52.65 4.339c.047-.151.457-.673.585-.748.146-.084.205-.022.3-.149h3.062l.095.109.205.041.448.45c.271.605.137 2.285.137 3.196v8.327c-.006.013-.01.027-.015.041-.35-.023-.831-.154-1.143-.245l-1.143-.068c-.2.01-.399.019-.599.027l-.762.041c-.318.081-.784.216-1.13.245l-.041-.028V4.339zm-.134 13.674c.508-.197 1.073-.285 1.646-.408l.477-.041c1.011-.001 1.781.089 2.557.299 1.705.461 3.585 2.135 4.205 3.688.114.286.342.631.422.952.371 1.5.39 3.319-.164 4.667-1.008 2.453-2.916 3.967-5.904 4.462-.822.136-2.301-.072-2.856-.299-1.712-.699-3.187-1.71-4-3.292l-.422-.898-.041-.231c-.306-.677-.563-2.061-.381-3.089.08-.454.131-.955.285-1.374.761-2.057 2.152-3.652 4.176-4.436zm-16.423-6.912-.122-.054v-.122c-.026-.071-.125-.183-.177-.259-.037-.018-.072-.037-.109-.054a14.047 14.047 0 0 0-.041-.218 3.937 3.937 0 0 1-.108-.068l-.027-.217-.123-.082-.027-.313-.122-.135v-.287a13.34 13.34 0 0 0-.149-.585l.013-.912c-.018-.115.045-.153.068-.245.046-.185.016-.614.068-.735l.136-.163.013-.272.136-.109.014-.19c.025-.05.112-.057.136-.122V5.81c.028-.059.226-.215.271-.286.01-.055.019-.109.027-.164l.109-.041a4.36 4.36 0 0 1 .041-.122c.224-.291.542-.517.83-.749l.041-.109.163-.027c.095-.056.193-.226.286-.271h.135l.163-.15c.072-.024.108.023.178-.013l.122-.136.109.013c.17-.012.197-.105.299-.149h.272c.166-.035.476-.057.599-.149 1.563-.004 2.644.279 3.401.993l.108.027c.293.198.547.548.762.83l.123.068v.123c.026.066.114.157.163.231l.122.068c.011.067.021.135.029.203l.122.095.028.217.122.081v.246c.083.334.394 1.03.259 1.456.089.101.378.054.585.054l1.646.014.026-.041a48.726 48.726 0 0 1-.026-.381c-.015-.204-.028-.409-.041-.612-.075-.337-.337-.905-.286-1.292.192-.103.729-.027 1.021-.027h2.925c.062.051.027 1.433.027 1.713v5.415h-9.892l-1.21.014c-.313-.091-.752-.206-1.048-.286a23.547 23.547 0 0 1-.272-.014 4.378 4.378 0 0 0-.082-.123l-.217-.027-.068-.109a13.915 13.915 0 0 1-.217-.041c-.489-.352-.991-.748-1.334-1.251zM14.19 19.986c.215-.833 1.135-1.809 1.877-2.123a5.42 5.42 0 0 1 .831-.258l.326-.054h.708c1.383.229 2.341.952 2.871 2.027.13.265.211.61.272.912.102.499.011 1.107-.095 1.496-.408 1.499-1.418 2.32-3.007 2.64-.741.149-1.614-.177-2.013-.409-1.309-.759-2.318-2.115-1.77-4.231zM6.176 33.658c-.172.794-.229 1.667-.299 2.626-.148.097-.512.054-.748.054-.94 0-1.333-.177-1.605-.857-.104-.258-.027-.761-.027-1.075V23.563c0-.816-.136-2.643.164-3.129.188-.306.5-.372.83-.544l7.306.013c.116.177-.013.673-.055.939-.079.5.049 1.188.15 1.592.182.728.516 1.459.912 2 .13.179.286.348.421.531l.286.272.014.082c-.271.278-.762.304-1.102.517-.708.445-1.461.805-2.095 1.32-1.821 1.475-3.569 3.813-4.152 6.502zm20.762 2.627c-.082.101-.426.054-.599.054h-1.687c-.109.205-.041.696-.041.979l.014 3.306c-.036.149-.233.315-.368.367-.409.16-1.229-.827-1.415-1.047l-3.619-3.605H8.911c-.225 0-.549.034-.708-.041a2.53 2.53 0 0 1 .014-.749l.122-1.061c.095-.458.283-.954.422-1.36.848-2.474 3.002-4.714 5.429-5.592.488-.176 1.033-.34 1.551-.449.369-.078.828-.021 1.157-.149.918-.001 1.738.003 2.503.149 3.208.616 5.455 2.762 6.707 5.36.284.591.514 1.291.694 2l.095.762c.035.171.149.904.041 1.076zm7.21.054-4.816-.014c-.117-.076-.042-.279-.067-.449-.077-.501-.052-.917-.136-1.415-.208-1.223-.627-2.272-1.048-3.278-.208-.499-.597-.942-.856-1.388-.907-1.555-2.405-2.748-3.946-3.673-.508-.305-1.103-.486-1.632-.761a6.264 6.264 0 0 0-.014-.136c.962-.779 1.499-2.054 1.755-3.537a3.785 3.785 0 0 0 0-1.211c-.033-.177-.105-.371-.068-.544l.068-.04 10.516.013c.105.189-.138.407-.19.571-.16.505-.452 1.169-.693 1.633-.11.212-.119.415-.19.653l-.122.204c-.098.246-.108.416-.177.681-.06.228-.204.526-.272.761-.182.624-.28 1.266-.436 1.892l-.013.394c-.069.372-.067.778-.136 1.225l-.027.966c.021.136.552.202.721.272.536.222 1.092.391 1.688.558l.271.135c.271.079.67.12.831.313l.041 4.326c.083.461.173.925.272 1.36.034.149.174.262.136.422-.069.117-1.177.067-1.46.067zm3.333-1.959-.013-5.905c-.3-.188-.712-.231-1.075-.34-.492-.147-1.051-.384-1.537-.558-.211-.076-.621-.116-.762-.245-.11-.069-.032-.678.013-.898.103-.508.278-1.087.422-1.55.132-.428.178-.808.354-1.197.212-.47.353-.958.558-1.443.194-.46.478-.948.693-1.387.082-.165.097-.312.19-.463.31-.496.594-1.016.871-1.537.259-.488.677-.925.98-1.375.431-.641 1.222-1.595 1.891-1.972.227-.128.483-.175.722-.299h9.537l.067.054v1.251c-.066.111-.252.149-.367.218-.354.208-.671.507-1.007.748-.856.614-1.438 1.562-2.014 2.463-.066.104-.193.242-.245.354a12.685 12.685 0 0 0-.884 2.53c-.284 1.236-.146 2.8.122 3.905.582 2.404 1.848 4.19 3.578 5.442.453.328.973.597 1.47.871.18.1.356.129.517.231v5.361c-.21.12-1.089.04-1.415.04h-6.721c-.866 0-1.679.021-2.354-.137-1.44-.334-2.811-1.617-3.293-2.911-.142-.385-.217-.825-.298-1.251zm6.803 9.033-3.633.014a13.733 13.733 0 0 1-.163-.095l-.436-.055c-.053-.024-.068-.114-.136-.136l-.15-.014c-.16-.097-.183-.293-.421-.286a3.267 3.267 0 0 1-.027-.136l-.108-.014c-.038-.042-.021-.145-.056-.19l-.271-.259a3.112 3.112 0 0 1-.285-1.292h10.829c.966 0 2.307.133 2.979-.163.058-.026.052-.11.095-.137h.178c.08-.027.247-.202.271-.3h.137v-.122c.05-.023.093-.021.148-.027v-.121c.533-.302.6-1.177.6-2.041v-4.136l.122-.054c.401.01.853.134 1.293.068.325-.048.748-.082 1.034-.041.103.205.026.781.026 1.089v2.652l.014 2.694-.108.204-.055.436-.123.177-.013.231-.137.122-.014.177c-.045.097-.213.178-.271.271-.037.062.018.104-.014.164-.03.059-.345.287-.408.354-.033.034-.165.229-.19.245l-.177.027c-.091.062-.177.229-.272.271h-.149l-.149.15c-.069.02-.152-.014-.231.013l-.19.123-.436.055-.15.095-2.639-.014h-6.314zm20.421 7.388c.278-.104.554-.231.83-.3.252-.062.535-.041.748-.149h1.021c.559.125 1.076.264 1.564.449.221.084.436.302.626.422.849.537 1.599 1.496 1.864 2.599.237.987.149 2.384.149 3.592v6.299l-.014 7.714-.055.068H62.12c-.106-.177-.041-1.418-.041-1.782V57.154c0-1.594-.106-3.156.449-4.19a4.787 4.787 0 0 1 1.81-1.904c.104-.063.252-.216.367-.259zm-1.089-2.531c.107.078.291.129.354.246l.014.095c-.161.176-.398.242-.626.354-.297.146-.635.394-.898.599-.988.772-1.973 2.079-2.367 3.429-.453 1.551-.313 3.811-.313 5.796v12.666c-.241.146-.892.055-1.238.055h-3.116l-12.053-.014c-.114-.188-.041-1.67-.041-2.068v-5.441c0-1.009-.046-2.029.108-2.871l.027-.53c.127-.534.312-1.156.436-1.66l.014-.231.108-.149c.089-.225.103-.375.177-.612.048-.152.182-.37.259-.504l.04-.217c.053-.123.192-.305.259-.422.142-.248.198-.488.341-.734.293-.513.683-.986 1.007-1.483l.259-.259.598-.734c.293-.353.691-.595 1.021-.911.877-.844 1.971-1.541 3.185-2.041.15-.063.363-.229.516-.272h7.375l3.088-3.102c.356.007 1.179.807 1.466 1.015zm-1.469-7.482c-.298.184-.781.655-1.116.748-.129.224.03.44-.027.707-.123.58-.054 1.503-.054 2.218v.734c-.047.164-.54.564-.681.693l-2.149 2.164h-5.36c-.133-.211-.058-1.883-.054-2.299l.067-.068.612-.041c.569-.11 1.086-.247 1.592-.408.428-.137.839-.483 1.184-.721 1.077-.745 1.841-1.856 2.218-3.293.104-.396.097-.764.163-1.197v-4.993c0-.441-.091-1.469.027-1.809.181-.04.189-.126.286-.164.181-.072.391-.072.529-.177.015-.031.028-.063.041-.095l.218-.054.068-.109h.109c.082-.028.104-.108.163-.149.045-.01.091-.019.136-.027l.055-.109c.138-.085.259-.093.381-.19l.054-.109c.657-.384 1.109-.938 1.593-1.496 1.563-1.807 2.866-5.145 1.863-8.449a9.485 9.485 0 0 0-1.551-3.02c-.547-.718-1.107-1.441-1.905-1.905-.018-.037-.035-.073-.054-.109l-.122-.027c-.192-.129-.422-.409-.681-.449-.088-.18-.041-.566-.041-.816V7.251l.095-.068c.346.043.587.237.858.368l.19.027c.209.111.478.263.68.394l.19.041c.052.025.075.11.137.136l.149.014.067.108.218.055.041.095c.125.087.269.1.408.177l.068.109.189.054.055.109c.101.069.312.114.395.19.406.367.871.699 1.334 1.006l.04.096c.25.239.555.413.804.652l.054.123a9.307 9.307 0 0 1 1.605 1.728l.109.041.04.136c.105.157.297.283.408.436l.014.108.285.313.028.123.108.054c.01.045.019.091.027.136.059.103.188.207.258.299.073.094.136.328.204.435.832 1.292 1.503 2.804 2.015 4.381l.026.313c.147.503.296 1.08.422 1.592v.286c.035.176.094.419.136.571.032.5.063.999.096 1.497.129.552.112 1.609 0 2.164l-.096 1.619c-.164.574-.229 1.262-.394 1.795-.015.127-.028.254-.041.381-.068.226-.224.54-.286.789a20.27 20.27 0 0 1-.014.246c-.492 1.153-.897 2.428-1.578 3.401-.093.132-.092.265-.177.409l-.136.135-.027.15c-.558.663-.982 1.434-1.578 2.054-.079.082-.099.217-.178.299-.608.636-1.223 1.288-1.877 1.877-.082.074-.204.088-.286.163-.794.729-1.705 1.335-2.649 1.92zm-8.938-11.932c.489.201 1.321.546 2.095.422 1.916-.309 2.856-.918 3.728-2.259.136-.207.329-.485.409-.734 1.084-3.4-1.216-6.404-4.559-6.354l-.435.041c-.359.082-.746.145-1.075.272-1.357.529-2.303 1.626-2.789 3.034-.226.654-.223 1.598-.055 2.272.407 1.621 1.252 2.719 2.681 3.306zm-.327-5.197c.263-.505.715-1.044 1.266-1.252.194-.073.356-.068.531-.149h.788a2.48 2.48 0 0 1 1.796 1.415c.703 1.629-.577 3.066-1.863 3.292-1.083.19-2.021-.564-2.367-1.129-.107-.175-.124-.336-.204-.544-.169-.435-.15-1.241.053-1.633zm-19.455 22.08c-.263-.066-.599-.041-.911-.041H8.666c-1.478.006-2.957.01-4.435.015-1.381.242-2.845 1.365-2.979 2.803H1.17v15.455h.082c.188 1.481 1.544 2.55 2.993 2.803l3.524.014h15.155l1.156 1.143c.662.657 1.325 1.314 1.987 1.973.37.37.719.804 1.157 1.102l.666.327c1.955.504 3.356-.603 3.715-2.178.159-.701-.083-1.599.041-2.326.194-.104.655-.04.925-.04.551 0 1.017-.024 1.415-.19 1-.42 1.845-1.154 2.177-2.231.176-.569.163-1.296.163-2.055v-10.37c0-1.168.15-3.002-.176-3.864-.469-1.232-1.359-1.994-2.723-2.34zm.259 18.354c-.114.145-.406.3-.598.354h-3.714l-.068.068v3.333c0 .606.078 1.143-.394 1.279-.396.114-1.22-.872-1.401-1.089a6025.747 6025.747 0 0 0-3.579-3.564L9.307 64.46H5.741c-.819 0-1.401.059-1.864-.299-.576-.445-.367-2.721-.367-3.85v-8.68c0-.859-.134-2.601.164-3.074.181-.289.479-.379.802-.531h26.761c.926 0 1.852-.11 2.38.3.571.44.368 2.515.368 3.618v8.707c0 1.146.19 2.825-.299 3.442zM6.503 52.719l1.66-.013c.078-.155.06-1.987.027-2.272-.241-.129-1.851-.044-2.272-.041-.129.197-.058 1.868-.054 2.272.13.085.425.054.639.054zm23.564-2.326H10.612c-.018.018-.037.036-.054.055v2.231c.206.109 1.315.04 1.659.04h19.36c.129-.197.057-1.867.054-2.271-.215-.14-1.207-.055-1.564-.055zm-24.19 4.748v2.231c.19.101 1.56.027 1.932.027H31.59c.075-.141.041-.447.041-.653l-.014-1.633c-.194-.103-1.619-.027-2-.027h-5.129l-18.557-.014a1.625 1.625 0 0 1-.054.069zm23.863 4.626H5.918c-.129.197-.058 1.867-.054 2.271.189.124 1.523.055 1.891.055h23.822c.129-.197.057-1.867.054-2.271-.189-.125-1.524-.055-1.891-.055z" clip-rule="evenodd"/></svg>