<svg xmlns="http://www.w3.org/2000/svg" xml:space="preserve" width="100" height="102"><ellipse cx="50.591" cy="50.215" fill="#FEC552" fill-rule="evenodd" clip-rule="evenodd" rx="14.567" ry="14.515"/><path fill="#BBE8FF" fill-rule="evenodd" d="M83.538 51.981c-.137-.205-1.203-.306-1.525-.393-1.266-.341-3.895-.632-4.675-1.374-.621-.591-.4-2.266-.591-3.265-.386-2.017-.806-3.898-1.477-5.596-.267-.674-.615-1.595-.123-2.307.259-.374.75-.629 1.107-.908.927-.725 1.883-1.472 2.756-2.258.235-.212.566-.315.738-.589-1.04-2.105-2.408-4.049-3.839-5.793-.419-.51-.958-.942-1.378-1.447a15.382 15.382 0 0 0-2.534-2.43l-3.494 2.724c-.39.303-.745.766-1.255.933-.963.317-1.662-.309-2.215-.662-1.596-1.022-3.332-1.835-5.143-2.7-.893-.427-2.395-.445-2.952-1.202-.581-.787-.32-3.448-.32-4.859l-.024-1.62c-.081-.14-1.208-.215-1.477-.27-1.595-.327-3.37-.39-5.217-.368l-1.477.049c-1.043.174-2.097.181-3.1.368-.393.073-.8.036-1.107.196-.141.114-.074 1.445-.074 1.767 0 1.337.253 3.97-.319 4.737-.535.717-2.069.842-2.953 1.202-1.708.697-3.412 1.518-4.848 2.504-.485.333-1.401 1.09-2.215.933-.755-.147-1.102-.685-1.624-1.056l-3.42-2.675c-.658.342-1.13 1.046-1.673 1.521-1.67 1.463-3.102 3.305-4.306 5.228-.473.754-1.566 2.05-1.772 2.945l3.568 2.896c.476.35.956.627 1.206 1.203.228.522-.024 1.16-.172 1.521l-.96 2.871c-.37 1.269-.512 2.632-.763 4.025-.116.648.032 1.533-.246 2.037-.391.709-.967.729-1.845.981l-2.978.688-1.55.344-.098.147.147 2.331c.225 1.307.354 2.631.665 3.878l1.107 3.73.812 2.013c.357.15.992-.166 1.354-.246l3.15-.687c.54-.137 1.277-.385 1.894-.147.834.319 1.215 1.521 1.674 2.233.69 1.072 1.568 2.013 2.338 2.994l.935 1.104c.563.479 1.752 1.416 1.895 2.233.146.834-.397 1.468-.664 1.964l-1.846 3.927c.475.453 1.082.738 1.624 1.129 1.882 1.355 4.06 2.336 6.397 3.239.432.167 2.796 1.098 3.149 1.006.32-.234.489-.95.665-1.325.184-.394.44-.827.64-1.202.531-1.003.824-2.481 1.747-3.093.694-.459 2.188-.052 3.002.099l1.23.073h1.279c1.006 0 2.145.021 3.101-.147.562-.099 1.357-.366 1.993-.196.857.23 1.117.966 1.451 1.719l1.993 4.073c.72.027 2.445-.719 3.125-.981 2.975-1.15 5.821-2.478 8.071-4.368-.023-.392-.394-.877-.566-1.228l-1.255-2.699c-.259-.586-.634-1.007-.688-1.816-.057-.836 1.129-1.642 1.574-2.086 1.215-1.212 2.325-2.576 3.322-4.001.395-.564 1.047-2.029 1.525-2.381.214-.156.488-.308.787-.368.702-.141 1.392.215 1.92.344l2.903.614 1.132.294c.153-.026.26-.561.32-.712.26-.654.504-1.268.738-1.987a49.676 49.676 0 0 0 1.328-5.007l.222-1.792c.078-.374.297-2.252.174-2.576zM79.06 35.317l-.024.049-.024-.049h.048zm-17.126 1.497-.024.049c-.008-.017-.017-.032-.024-.049h.048zm4.208 19.954c-2.072 4.723-5.779 8.273-10.975 9.866-1.371.421-2.397.496-4.011.761-.581.096-1.408.032-1.919-.049l-1.87-.196c-1.23-.262-2.41-.562-3.445-1.007-5.061-2.177-8.644-5.696-10.236-11.313-.415-1.465-.96-3.807-.64-5.743l.025-.859c.265-1.188.333-2.422.737-3.485 1.941-5.094 5.054-8.665 9.941-10.799 1.303-.568 2.76-.834 4.306-1.153l1.896-.172c8.606-.01 13.827 4.899 16.265 11.045 1.567 3.952 1.641 9.194-.074 13.104z" clip-rule="evenodd"/><path fill="#005186" fill-rule="evenodd" d="M86.467 49.847c-.357-.69-1.339-.694-2.19-.908-1.348-.339-2.965-.538-4.257-1.031-.287-.565-.181-1.498-.319-2.159-.339-1.611-.705-3.878-1.403-5.154.14-.428.703-.68 1.034-.933a45.426 45.426 0 0 0 2.633-2.16c.534-.478 1.542-.871 1.304-2.012-.226-1.082-.998-2.031-1.501-2.896-1.746-3.005-3.746-5.593-6.176-7.902-.784-.746-2.284-2.46-3.47-2.651-.765-.123-1.226.525-1.624.811-.806.575-1.522 1.263-2.313 1.841-.486.355-1.095.716-1.476 1.178-.476-.014-1.467-.788-1.87-1.031-1.064-.639-2.233-1.115-3.445-1.595-.524-.208-1.104-.535-1.673-.688-.009-1.464-.017-2.929-.024-4.393 0-.62.127-1.41-.099-1.841-.478-.911-1.351-.884-2.485-1.154-2.241-.533-4.856-.69-7.628-.662l-2.239.123c-1.286.213-2.568.333-3.74.564-.767.151-1.694.193-2.092.711-.65.849-.371 5.007-.369 6.627-.486.353-1.282.521-1.87.736-1.102.402-2.268.986-3.248 1.57-.39.232-1.426 1.023-1.87 1.031l-3.789-3.019c-.387-.291-.876-.927-1.624-.811-1.274.199-2.286 1.609-3.125 2.332-2.493 2.148-4.696 4.909-6.348 7.878-.363.652-1.947 2.892-1.673 3.829.229.786.931 1.194 1.525 1.62l1.575 1.301c.629.463 1.416.935 1.87 1.57-.344.651-.373 1.39-.664 2.135-.523 1.339-.954 3.462-1.009 5.154-.356.197-.821.229-1.28.344l-3.026.736c-.833.208-1.84.212-2.19.884-.43.823-.281 3.257-.074 4.368.242 1.302.255 2.521.517 3.755.439 2.073 1.109 4.062 1.796 5.866.397 1.043.922 2.985 1.845 3.436.58.283 1.346.063 1.919-.122l4.626-1.007c.295.347.477.768.738 1.153.433.641.929 1.247 1.378 1.891.591.679 1.182 1.357 1.772 2.037.267.309.671.523.886.883-.564 1.438-1.341 2.748-1.969 4.173-.238.538-.841 1.163-.566 2.037.303.961 1.941 1.82 2.756 2.355 2.681 1.762 5.546 3.355 8.908 4.467.814.27 3.359 1.198 4.257.957.269-.071.601-.252.763-.441.292-.342.403-.801.615-1.228l1.378-2.724c.165-.338.458-1.321.738-1.473l2.682.196c1.69.254 3.336-.207 4.896-.221.368.268.553 1.028.738 1.473.468.924.936 1.849 1.402 2.773.276.568.465 1.308 1.059 1.546 1.06.426 3.493-.525 4.479-.835 3.4-1.065 6.324-2.711 9.006-4.491.81-.537 2.466-1.413 2.756-2.381.251-.838-.323-1.465-.566-1.987-.45-.97-.89-1.845-1.304-2.822-.185-.436-.603-.888-.665-1.399.451-.466.902-.933 1.354-1.398.756-.934 1.491-1.841 2.215-2.823.365-.495.875-1.042 1.107-1.644.362-.203 1.215.168 1.6.27l3.125.663c.311.101.975.375 1.378.294.256-.052.643-.223.836-.368.719-.54 1.166-2.329 1.551-3.264a32.773 32.773 0 0 0 1.796-5.915c.219-1.087.271-2.128.468-3.265.189-1.11.445-3.843-.028-4.76zm-3.199 5.424c-.197 1.021-.26 1.938-.492 2.896-.266 1.097-.629 2.182-.959 3.191-.294.896-.535 1.991-1.059 2.699l-4.602-1.08c-.572-.131-1.35-.289-1.87 0-.549.306-.744.954-1.082 1.473a42.478 42.478 0 0 1-2.338 3.265l-2.239 2.405c-.422.416-.957.685-1.033 1.447-.07.7.348 1.254.59 1.694l1.354 2.896c.171.343.553.843.566 1.228-.381.335-.852.538-1.255.858-2.005 1.594-4.646 2.736-7.234 3.706l-2.633.811c-.338-.23-.51-.939-.689-1.325l-1.009-1.988c-.376-.841-.684-1.877-1.427-2.356-.604-.39-2.248-.006-2.978.123l-1.206.073h-1.304c-1.065 0-2.275.022-3.272-.172-.602-.116-1.531-.356-2.116-.073-.625.302-.871 1.001-1.156 1.645l-2.019 4.074c-1.526-.322-3.08-.903-4.38-1.522-1.281-.609-2.575-1.056-3.666-1.84-1.027-.739-2.203-1.194-3.125-2.037.107-.461.436-.877.615-1.276l1.206-2.602c.225-.494.556-.927.688-1.521.251-1.123-.868-1.715-1.328-2.209-1.357-1.459-2.734-2.898-3.839-4.614-.55-.854-.885-2.088-2.043-2.332-.686-.144-1.398.215-1.919.344l-4.06.884c-1.217-2.218-1.79-5.167-2.362-8.025-.203-1.015-.526-2.919-.394-4.05.324-.191.824-.191 1.23-.294 1.132-.286 4.495-.8 5.02-1.497.651-.865.411-3.154.738-4.369.378-1.4.631-2.818 1.132-4.099.211-.54.737-1.214.541-2.062-.166-.717-.767-1.047-1.28-1.424l-3.568-2.871c.072-.397.357-.71.542-1.007.417-.669.832-1.325 1.23-1.963 1.201-1.924 2.637-3.765 4.306-5.228.545-.478 1.016-1.174 1.673-1.521l3.519 2.748c.459.428 1.111 1.172 2.067.982.714-.142 1.235-.725 1.796-1.056 1.08-.638 2.209-1.342 3.421-1.816.942-.368 1.904-.737 2.879-1.104.577-.217 1.184-.276 1.451-.785.512-.971.246-3.643.246-5.08.009-.434.017-.867.024-1.301 1.164-.281 2.563-.333 3.765-.54l1.969-.073c1.605.003 3.103-.023 4.553.245l2.091.344c.157.318.074 1.108.074 1.619 0 1.383-.25 3.924.246 4.786.501.872 2.093.874 3.026 1.325 1.806.874 3.546 1.677 5.143 2.7.552.354 1.252.979 2.215.662.511-.168.864-.63 1.255-.933l3.494-2.724c.923.684 1.805 1.55 2.534 2.43.42.505.959.938 1.378 1.447 1.417 1.727 2.851 3.683 3.839 5.793-.168.274-.504.378-.738.589-.873.785-1.829 1.534-2.756 2.258-.482.377-1.068.681-1.304 1.301-.299.784.194 1.612.418 2.185.723 1.851 1.059 3.881 1.477 6.11.21 1.122-.029 2.211.763 2.725.373.242.821.262 1.328.393l4.602 1.08c.144.857-.114 2.528-.27 3.335zm-69.833-29.55h.024l.148-.245h-.172v.245zm65.625 9.596h-.049v.049c.047-.034.014-.002.049-.049z" clip-rule="evenodd"/><path fill="#005284" fill-rule="evenodd" d="M50.246 32.593c-9.594 0-17.372 7.802-17.372 17.426 0 9.623 7.778 17.425 17.372 17.425 9.595 0 17.372-7.802 17.372-17.425 0-9.624-7.777-17.426-17.372-17.426zm0 31.702c-7.86 0-14.232-6.392-14.232-14.276s6.372-14.276 14.232-14.276 14.232 6.392 14.232 14.276-6.372 14.276-14.232 14.276z" clip-rule="evenodd"/><path fill="#005186" fill-rule="evenodd" d="M98.031 48.006c-.032-.605-.065-1.211-.099-1.816-.315-1.903-.415-3.846-.91-5.547-.263-.902-.332-1.728-.591-2.602-.783-2.645-1.68-5.315-2.829-7.657-3.127-6.37-7.213-11.352-12.254-15.806-1.291-1.141-2.754-2.104-4.085-3.215-.352-.293-.818-.444-1.206-.688-.752-.472-1.537-.988-2.313-1.447l-.861-.418c-.89-.557-1.889-.994-2.903-1.423l-.763-.344c-.042-.089-.039-.101-.024-.221 1.018-.465 2.167-.733 3.174-1.179.408-.18.854-.193 1.107-.515.918-1.166.324-2.373-1.059-2.627l-.442.025c-.655.21-1.324.454-1.993.711l-4.626 1.719c-.979.326-2.135.521-2.387 1.57-.186.771.416 1.886.64 2.454l2.387 6.528c.269.434.941.949 1.747.736.728-.191 1.331-1.056 1.058-2.013l-1.673-4.516.049-.049c1.056-.056 2.822 1.19 3.716 1.57 2.661 1.133 4.853 2.958 7.111 4.517.761.525 1.396 1.271 2.116 1.841 2.054 1.623 4.074 3.872 5.61 6.013.718 1 1.544 1.961 2.215 3.019 1.943 3.064 3.649 6.448 4.896 10.186.854 2.56 1.257 5.058 1.796 8.001.192 1.05.182 2.283.369 3.411l.024 1.203c.152.951.12 2.29-.024 3.215-.033.695-.065 1.391-.099 2.086-.369 2.058-.419 4.056-.91 5.964-1.476 5.729-3.556 10.771-6.521 15.021-4.131 5.921-9.262 10.608-15.675 14.259a37.15 37.15 0 0 1-5.831 2.651c-.914.325-1.878.551-2.756.933l-1.23.27c-2.299.746-4.95.974-7.628 1.424l-2.51.147c-1.009.163-2.396.068-3.298-.074h-.886c-.799-.128-1.654-.146-2.387-.27-1.444-.246-2.629-.28-3.961-.564-3.959-.845-7.727-2.095-10.877-3.805-.983-.534-2.002-.957-2.928-1.546-.559-.355-1.304-.984-1.919-1.203-.534-.188-1.29-.035-1.625.271-.636.582-.573 1.881.074 2.405.442.357.995.603 1.5.884 1.747.969 3.543 2.049 5.414 2.92.302.141.555.15.836.271 2.915 1.238 6.047 2.136 9.498 2.92 7.665 1.742 17.314.65 23.646-1.423 11.607-3.8 21.071-11.398 26.6-21.229 1.045-1.858 2.234-3.822 3.026-5.915.517-1.363.944-2.749 1.477-4.123l.32-1.276c.305-.922.688-2.224.837-3.142.252-1.56.425-3.106.713-4.688.159-.872.034-1.802.197-2.626l.024-1.571c.154-.931.045-2.747-.094-3.607zM5.733 48.3l.197-2.307c.372-2.173.606-4.271 1.132-6.259 1.601-6.048 4.216-11.035 7.406-15.486.75-1.047 1.656-1.996 2.461-2.994l.566-.613.172-.049c1.25-1.643 3.051-3.3 4.749-4.492l1.329-1.104c1.923-1.359 3.898-2.724 6.127-3.756l1.378-.736c1.862-.716 3.726-1.721 5.733-2.258 1.41-.377 2.851-.696 4.257-1.104l.861-.098c1.021-.212 2.127-.281 3.272-.491 1.089-.199 2.316-.083 3.519-.27.651-.102 1.615-.127 2.288-.024l1.87.049 3.027.27c.711.141 1.768.429 2.51.172.399-.138.752-.596.886-1.006.095-.291-.005-.716-.074-.908-.359-.996-1.133-.969-2.288-1.178-2.59-.47-5.582-.491-8.661-.467l-1.305.074c-.479.086-1.031.03-1.574.122l-.837.147-.246-.073c-.496.162-1.142.155-1.747.294-1.473.337-2.985.551-4.404.933-7.124 1.917-12.935 5.06-17.987 9.032-3.688 2.898-7.376 6.912-9.892 10.971-.682 1.101-1.522 2.215-2.116 3.387-1.047 2.065-1.919 4.209-2.879 6.405l-.197.761a88.25 88.25 0 0 0-1.698 5.891c-.26 1.044-.208 2.009-.467 3.093l-.271 1.815-.049 1.179c-.194.825.002 1.77-.147 2.724v1.816l.099 2.553.172 1.987c.274 1.598.452 3.269.837 4.737.242.926.3 1.791.615 2.675.727 2.04 1.352 4.047 2.116 5.988.58 1.476 1.46 2.889 2.165 4.246 1.947 3.75 4.555 7.002 7.333 9.94v.098c-1.863.474-5.864-.785-6.472 1.104-.108.336-.168.791 0 1.153.435.938 1.535.908 2.928.908h5.758c1.115 0 2.443.144 2.953-.466.541-.647.418-1.945.418-3.142v-4.59c0-.755.091-1.714-.123-2.282-.171-.455-.683-.805-1.181-.933-.815-.21-1.506.547-1.698 1.006-.15.36-.074.999-.074 1.473V81.8l-.172.025c-.662-.466-1.216-1.262-1.723-1.891-1.21-1.503-2.5-2.931-3.519-4.638-.654-1.098-1.425-2.198-2.067-3.338-1.515-2.69-2.767-5.809-3.667-9.032-.207-.743-.374-1.487-.566-2.185-.223-.809-.208-1.657-.467-2.405l-.099-.981c-.15-.785-.156-1.573-.295-2.405-.142-.85-.036-1.82-.172-2.698a10.282 10.282 0 0 1 0-2.798V48.3z" clip-rule="evenodd"/><path fill="#005284" fill-rule="evenodd" d="m48.909 53.978-4.818-4.773a1.231 1.231 0 0 0-1.74.007l-.347.348a1.223 1.223 0 0 0 .006 1.735l4.819 4.773a1.231 1.231 0 0 0 1.739-.006l.347-.349a1.223 1.223 0 0 0-.006-1.735z" clip-rule="evenodd"/><path fill="#005284" fill-rule="evenodd" d="m59.584 45.134-.351-.345a1.23 1.23 0 0 0-1.739.014L47.315 54.832a1.223 1.223 0 0 0 .013 1.735l.351.345c.484.476 1.264.47 1.74-.014l10.179-10.029c.476-.482.47-1.26-.014-1.735z" clip-rule="evenodd"/></svg>