<svg xmlns="http://www.w3.org/2000/svg" xml:space="preserve" width="99.988" height="99.988"><path fill="#FFF" fill-rule="evenodd" d="m51.361 11.717-4.362 1.953-33.134 19.854-.651 4.362-.39 14.322.26 37.299 3.19-.26 22.979-10.872 12.498-12.498.912-30.009.195-16.925v-5.794z" clip-rule="evenodd"/><path fill="#DBA660" fill-rule="evenodd" d="M82.216 48.431v12.238l-7.013 3.955 1.757.976 17.478-10.041z" clip-rule="evenodd"/><path fill="#BF7D5A" fill-rule="evenodd" d="m94.389 55.591-17.523 9.96.208 18.423 17.51-10.09z" clip-rule="evenodd"/><path fill="#FFF" fill-rule="evenodd" d="m88.14 59.107-5.924-3.516-.39 5.664 1.367.716.13 5.86 2.473-3.842 2.409 1.237z" clip-rule="evenodd"/><path fill="#FFD06C" fill-rule="evenodd" d="m71.931 66.854-7.096 4.035-13.799-7.941-10.416 6.054 15.167 8.69L73.233 67.7z" clip-rule="evenodd"/><path fill="#FEBC1F" fill-rule="evenodd" d="m73.155 67.609-17.381 9.972.273 18.54 17.264-10.038z" clip-rule="evenodd"/><path fill="#FFF" fill-rule="evenodd" d="m51.361 62.833-4.248 2.393 15.135 8.935.097 5.858 2.295-3.71 2.442.977v-5.957z" clip-rule="evenodd"/><path fill="#A76155" fill-rule="evenodd" d="m76.983 65.526-2.644-1.472-2.343 2.8 1.054.911.144 13.931 3.945 2.148z" clip-rule="evenodd"/><path fill="#FFD06C" fill-rule="evenodd" d="M66.984 33.589 49.603 43.647l15.184 8.983 17.332-10.155z" clip-rule="evenodd"/><path fill="#FEBC1F" fill-rule="evenodd" d="M82.167 42.426 64.787 52.63l.048 18.308 17.43-10.105z" clip-rule="evenodd"/><path fill="#FFF" fill-rule="evenodd" d="M75.87 46.088 60.686 37.3l-4.639 2.783 14.989 8.836.097 6.005 2.393-3.905 2.49 1.123z" clip-rule="evenodd"/><path fill="#F9A83D" fill-rule="evenodd" d="m49.652 43.696-.098 18.307 15.233 8.886.048-18.454zM55.891 77.724l-15.076-8.787-.065 18.227 15.258 8.878z" clip-rule="evenodd"/><path fill="#1D2943" fill-rule="evenodd" d="M49.342 3.776s-1.106.064-1.367.26l-12.368 7.03L8.202 27.145s-2.083.651-2.669 4.167l.195 59.172s.13 1.106.456 1.106l5.143 2.929s-.326-.456-.326-1.106l-.195-58.717s0-3.059 2.734-4.622L47.716 10.22l5.403-3.06s1.627-.455 1.887-.13l-5.664-3.254z" clip-rule="evenodd"/><path fill="#F45170" fill-rule="evenodd" d="m23.304 36.389-6.301 3.775v7.096l6.379-3.581z" clip-rule="evenodd"/><path fill="#FFF" fill-rule="evenodd" d="m22.13 38.643-2.825 4.694-.635-.369c-.307-.252-.722.118-.722.118-.307.279-.066.604-.066.604l1.527.885 3.072-5.186c.197-.586-.351-.746-.351-.746z" clip-rule="evenodd"/><path fill="#57B3FE" fill-rule="evenodd" d="m23.37 49.083-6.367 3.71.065 7.161 6.314-3.581z" clip-rule="evenodd"/><path fill="#FFF" fill-rule="evenodd" d="m22.13 51.336-2.825 4.693-.635-.369c-.307-.252-.722.118-.722.118-.307.279-.066.604-.066.604l1.527.886 3.072-5.186c.197-.585-.351-.746-.351-.746z" clip-rule="evenodd"/><path fill="#78E75A" fill-rule="evenodd" d="m23.565 61.582-6.367 3.71.065 7.16 6.315-3.58z" clip-rule="evenodd"/><path fill="#FFF" fill-rule="evenodd" d="m22.326 63.834-2.825 4.694-.635-.369c-.307-.252-.722.118-.722.118-.307.279-.066.604-.066.604l1.527.885 3.072-5.186c.196-.585-.351-.746-.351-.746z" clip-rule="evenodd"/><path fill="#FEBC1F" fill-rule="evenodd" d="m23.565 74.275-6.367 3.71.065 7.161 6.315-3.581z" clip-rule="evenodd"/><path fill="#DEDFFB" fill-rule="evenodd" d="m27.243 34.859.032 1.855L49.31 23.923v-1.66zM27.243 38.96l.032 1.855 15.33-9.015v-1.66zM27.243 47.553l.032 1.855L49.31 36.616v-1.659zM27.243 51.654l.032 1.855 15.33-9.016v-1.66zM27.243 60.247l.032 1.854L49.31 49.31v-1.66zM27.243 64.347l.032 1.856 15.33-9.016v-1.66zM27.243 72.94l.032 1.855L49.31 62.003v-1.659zM27.243 77.042l.032 1.854 13.377-8.104v-1.66z" clip-rule="evenodd"/><path fill="#FFF" fill-rule="evenodd" d="m22.326 76.529-2.825 4.693-.635-.369c-.307-.252-.722.118-.722.118-.307.279-.066.604-.066.604l1.527.886 3.072-5.186c.196-.586-.351-.746-.351-.746z" clip-rule="evenodd"/><path fill="#FEBC1F" fill-rule="evenodd" d="M34.838 10.85c-2.083-.293-3.722 1.128-3.722 1.128-3.19 2.441-3.255 6.802-3.255 6.802l2.376 1.433c.496-4.011 2.134-5.803 2.134-5.803 2.039-2.632 4.796-2.31 4.796-2.31l-2.329-1.25z" clip-rule="evenodd"/><path fill="#485871" fill-rule="evenodd" d="M16.648 88.514s-1.66.781-2.051-.879l-.146-52.972s.049-.781.928-1.367l4.769-2.734-.033-4.362-7.031 4.069s-2.246 1.514-2.441 4.199l.277 59.025s.7 2.295 2.652 1.074l27.096-15.623V74.6l-24.02 13.914zM55.657 8.495c.049-2.148-2.229-1.579-2.229-1.579l-7.699 4.33c.537.049.896 1.009.896 1.009l.049 3.027 3.564-2.051c1.27-.585 1.758.781 1.758.781l.049 28.219 3.808-2.294-.196-31.442z" clip-rule="evenodd"/><path fill="#485871" fill-rule="evenodd" d="m27.796 18.813-6.25 3.645s-1.705 1.406-1.51 2.539l.039 7.733 2.265 1.328.005-8.113s.056-1.06 1.367-1.953l6.426-3.748-2.342-1.431zM43.773 10.183s-.81-.084-1.005.167l-4.631 2.567s.81 1.338.697 2.371l6.696-3.85h.334l-2.091-1.255z" clip-rule="evenodd"/><path fill="#FFD06C" fill-rule="evenodd" d="M46.642 12.303s-.163-1.14-1.465-.781l-6.38 3.71s-.037-2.822-1.859-3.18c0 0-2.125-.142-3.496 1.187 0 0-1.75 1.519-2.531 3.75 0 0-.869 2.051-.674 3.288l-6.477 3.71s-1.498 1.106-1.335 2.115l-.032 7.909 14.875-8.43 9.406-5.565-.032-7.713z" clip-rule="evenodd"/><path fill="#1D2943" fill-rule="evenodd" d="M32.418 18.078c-.084.195.065 1.126.065 1.126 2.181-.944 2.148-4.199 2.148-4.199-1.953 1.394-2.213 3.073-2.213 3.073z" clip-rule="evenodd"/><path fill="#F9A83D" fill-rule="evenodd" d="M35.849 14.897s-1.004-.14-1.088.028c0 0-.279 3.459-2.288 4.324 0 0 .363 2.232 2.344.67 0 0 1.673-1.312 1.841-3.236 0 .001.14-1.757-.809-1.786z" clip-rule="evenodd"/><path fill="#FEBC1F" fill-rule="evenodd" d="M35.249 13.432c-2.281.637-4.001 3.576-4.046 5.716-.04 1.91 1.168 2.859 2.692 2.408 1.44-.427 3.145-2.095 3.806-4.288.726-2.399-.263-4.447-2.452-3.836zm1.496 3.44c-.348 1.434-1.675 3.394-2.724 3.705-1.049.311-1.821-.392-1.715-1.707.121-1.493 1.24-3.346 2.648-3.973 1.407-.628 2.187.35 1.791 1.975z" clip-rule="evenodd"/><path fill="#1D2943" fill-rule="evenodd" d="M72.623 59.74c-.343-.343-.343.399-.343.399-1.142.913-1.484 2.626-1.484 2.626.25.464 1.556-.586 1.556-.586l-.179 2.249c-.393.471-.58.431-.653.376.826.934 1.104-.555 1.104-.555l.114-2.512 1.656-.856c-.115-.97-1.771-1.141-1.771-1.141zM68.355 62.001l-.821 1.642.75-.143v2.177l.285-.071V63.25l.75-.536zM69.283 65.856l-4.211 2.427.071.571 4.247-2.32zM66.071 63.143l-.821 1.642.75-.143v2.177l.285-.071v-2.356l.75-.535zM86.097 72.042c-.343-.343-.343.399-.343.399-1.141.913-1.483 2.627-1.483 2.627.25.464 1.555-.586 1.555-.586l-.179 2.249c-.392.471-.58.431-.652.376.825.933 1.103-.555 1.103-.555l.114-2.513 1.656-.856c-.115-.97-1.771-1.141-1.771-1.141zM81.83 74.305l-.822 1.642.75-.143v2.176l.285-.071v-2.355l.75-.536zM82.757 78.159l-4.211 2.426.072.572 4.247-2.321zM79.545 75.447l-.821 1.641.75-.142v2.176l.285-.072v-2.354l.75-.535zM63.26 86.194c-.321-.321-.321.374-.321.374-1.069.855-1.389 2.46-1.389 2.46.232.435 1.456-.548 1.456-.548l-.167 2.105c-.348.417-.522.406-.599.36.761.837 1.02-.527 1.02-.527l.107-2.353 1.551-.803c-.107-.908-1.658-1.068-1.658-1.068zM59.264 88.313l-.769 1.537.702-.134v2.039l.267-.066v-2.206l.703-.502zM60.133 91.922l-3.944 2.273.066.534 3.978-2.172zM57.125 89.382l-.769 1.537.702-.133v2.039l.268-.067v-2.206l.701-.501z" clip-rule="evenodd"/></svg>