<svg xmlns="http://www.w3.org/2000/svg" xml:space="preserve" width="300" height="263"><path fill="#DEEBF2" fill-rule="evenodd" d="M190.963 215.825c-40.689 0-73.674 6.187-73.674 10.909s32.984 6.191 73.674 6.191c40.688 0 73.674-3.828 73.674-8.55 0-4.722-32.986-8.55-73.674-8.55z" clip-rule="evenodd"/><path fill="#176FA2" fill-rule="evenodd" d="m204.715 155.088.394 53.268H144.4c.394 9.828-9.823 18.084-9.823 18.084l74.067-.394c13.163.197 14.146-13.563 14.146-13.563v-58.969l-18.075 1.574z" clip-rule="evenodd"/><ellipse cx="215.128" cy="47.765" fill="#DEEBF2" fill-rule="evenodd" clip-rule="evenodd" rx="22.267" ry="21.725"/><path fill="#06466B" fill-rule="evenodd" d="m290.327 119.064-58.464-46.391.196 26.386c-16.772 3.437-31.054 14.344-31.054 14.344-53.956 35.383-48.5 82.289-48.5 80.065s3.233-10.514 3.233-10.514c16.57-50.345 76.826-43.762 76.826-43.762l-.743 25.16 58.506-45.288z" clip-rule="evenodd"/><path fill="#176FA2" fill-rule="evenodd" d="M283.693 115.972 231.63 74.694v22.212c-16.307 3.342-34.774 13.563-34.774 13.563-52.456 34.398-47.151 80.001-47.151 77.839s3.144-10.222 3.144-10.222c16.11-48.943 79.273-42.162 79.273-42.162l-.196 20.639 51.767-40.591z" clip-rule="evenodd"/><ellipse cx="74.264" cy="100.542" fill="#DEEBF2" fill-rule="evenodd" clip-rule="evenodd" rx="18.271" ry="17.101"/><ellipse cx="195.776" cy="91.935" fill="#DEEBF2" fill-rule="evenodd" clip-rule="evenodd" rx="11.111" ry="10.579"/><ellipse cx="248.82" cy="170.953" fill="#DEEBF2" fill-rule="evenodd" clip-rule="evenodd" rx="5.647" ry="5.378"/><path fill="#176FA2" fill-rule="evenodd" d="M190.373 11.99c-.785 5.504-6.68 5.896-6.68 5.896 5.697.787 7.073 7.273 7.073 7.273l.196-2.359c0-3.931 5.697-5.11 5.697-5.11-5.107-.196-6.286-5.7-6.286-5.7z" clip-rule="evenodd"/><path fill="#C71937" fill-rule="evenodd" d="m105.305 59.361-31.435-.196.196 16.904 7.86.394 22.985 11.99-6.68-12.384 7.074-.196z" clip-rule="evenodd"/><path fill="#FFF" fill-rule="evenodd" d="M100 62.899H79.765a1.572 1.572 0 0 0 0 3.145H100a1.571 1.571 0 0 0 0-3.145z" clip-rule="evenodd"/><path fill="#176FA2" fill-rule="evenodd" d="M155.402 34.595c-2.161-9.042-22.593-7.666-22.593-7.666-15.128 1.573-15.128 8.649-15.128 8.649-1.769 7.076 9.431 9.435 9.431 9.435l-6.483 8.256 16.699-6.684c21.808 0 18.074-11.99 18.074-11.99z" clip-rule="evenodd"/><ellipse cx="127.8" cy="35.774" fill="#FFF" fill-rule="evenodd" clip-rule="evenodd" rx="3.438" ry="3.342"/><path fill="#BF2037" fill-rule="evenodd" d="m201.277 39.214-38.016.295c-1.474.295-2.063 1.475-2.063 1.475l.295 16.314c-.196 2.015.589 1.818.589 1.818l12.771.786 7.662 9.287 8.301-9.287 10.462-.049c1.768 0 2.357-2.212 2.357-2.212V41.426c-.443-2.065-2.358-2.212-2.358-2.212z" clip-rule="evenodd"/><path fill="#FFF" fill-rule="evenodd" d="M183.301 43.595s-1.193-.653-3.811.176l-1.157.961-1.916.015s-2.266-3.173-5.669-1.025c0 0-3.361 2.359-1.256 6.318l7.662 6.992s6.398-5.223 7.746-6.992c0-.001 2.898-4.81-1.599-6.445z" clip-rule="evenodd"/><path fill="#C12235" fill-rule="evenodd" d="m177.761 82.438-5.895.235.59-1.769c1.061-1.77-.354-6.133-.354-6.133-1.062-3.066-3.301-.943-3.301-.943.118 3.066-.472 7.193-.472 7.193-.235 1.18-3.419 5.426-3.419 5.426l-6.482.59.589 11.676 5.069-.708.707-1.18 9.076-.235c4.598.354 3.536-2.123 3.536-2.123-.117-1.062-1.768-.825-1.768-.825l.589-.944c2.947-.825-.354-3.302-.354-3.302l1.297-1.18c2.122-1.887-1.769-2.595-1.769-2.595s2.358-.825 2.712-1.297-.351-1.886-.351-1.886z" clip-rule="evenodd"/><path fill="#010F17" fill-rule="evenodd" d="m152.063 116.286-17.328-4.718-1.061.472-.472 1.77-.354.472-30.059-.354s23.575 11.676 25.933 15.449c2.357 3.774 4.354 1.83 21.336-6.958.488-.253 2.357-3.066 2.357-3.066l-.352-3.067z" clip-rule="evenodd"/><path fill="#93B0B8" fill-rule="evenodd" d="m115.717 94.645-16.257.294 5.157 17.838 15.913.344z" clip-rule="evenodd"/><path fill="#EC6041" fill-rule="evenodd" d="M142.559 70.025s-2.946.073-3.389-1.105l-1.399-4.275-9.799-1.327-.295.958s-1.547 2.875 0 4.275l.59 1.475-.811 2.285s-.295 1.179.811.736h1.252l.516.737 1.179.147.368.737s-.221 1.622.369 2.063c0 0 .736 1.032 1.989-.294l1.104-1.622 1.031 1.105 1.474 1.253s4.199-.958 6.999-3.759l-1.989-3.389z" clip-rule="evenodd"/><path fill="#F05B3F" fill-rule="evenodd" d="M130.373 104.492v.59s-6.012 1.651-6.13 2.83l-2.239 3.066s2.004 2.123 6.602-.235l5.068-2.831 1.532-2.594-4.833-.826z" clip-rule="evenodd"/><path fill="#CCE0EB" fill-rule="evenodd" d="m133.006 88.335-1.218-7.784-2.122 12.147-.353 3.067-6.837 7.43-3.537 3.577 2.004 4.128 7.662-6.643 4.597-4.483zM143.693 73.593l-5.422 4.246 2.122 3.066 4.126-6.722zM135.796 75.716l-.825.353.471 4.6 2.121-2.83z" clip-rule="evenodd"/><path fill="#1A8ACA" fill-rule="evenodd" d="m146.876 98.359-12.849 10.261-.118 2.595c.825 0 18.743 5.425 18.743 5.425l.118-1.062.354-15.449c.472-4.953.707-19.106.707-19.106l-6.955 17.336z" clip-rule="evenodd"/><path fill="#045785" fill-rule="evenodd" d="m147.348 97.888-12.967 10.811.786.983 12.573-8.059 3.734-4.325 1.375-1.572.392-12.187z" clip-rule="evenodd"/><path fill="#2D5379" fill-rule="evenodd" d="m135.089 81.377-.825-3.893-1.887 3.067 1.415 19.342 1.297.354.824-1.651zM145.226 74.064l-4.715 6.841-1.179.825.235 13.563 1.179-.117s3.537-17.22 6.602-19.106l2.947-.59c0-.001-3.891-1.651-5.069-1.416z" clip-rule="evenodd"/><path fill="#BE2434" fill-rule="evenodd" d="m138.979 81.494.118-1.06-1.769-1.534-1.532 2.241.589 17.1 3.065-2.83z" clip-rule="evenodd"/><path fill="#CCE0EB" fill-rule="evenodd" d="M149.233 76.069c-1.649-.707-3.3 2.359-3.3 2.359l-4.716 17.336-10.962 8.846c1.649.235 3.418 4.363 3.418 4.363l13.674-10.85 5.658-13.681.472-3.656c-.706-6.25-4.244-4.717-4.244-4.717z" clip-rule="evenodd"/><path fill="#1F2121" fill-rule="evenodd" d="M142.265 66.413c-.147-1.769-2.652-6.486-2.652-6.486-.811-1.916-3.537-2.358-3.537-2.358l-5.23 1.105-3.979 3.317c-2.21-.222-2.137.516-2.137.516-.736 2.138 2.063 2.506 2.063 2.506l3.609-.516c.663-.517 1.842 1.474 1.842 1.474.147 2.212 1.744 2.335 1.744 2.335.491-.295 1.965-2.752 1.965-2.752 1.276-1.671 3.144 3.636 3.144 3.636l2.946.909.516-.295s-.148-1.621-.294-3.391z" clip-rule="evenodd"/><ellipse cx="109.971" cy="103.293" fill="#AEBCC8" fill-rule="evenodd" clip-rule="evenodd" rx="2.309" ry="1.965"/><path fill="#176FA2" fill-rule="evenodd" d="M128.645 123.009s-.59 5.307.825 5.896c1.414.59 11.08 12.58 11.08 12.58l9.745-.079 12.377-17.572-34.027-.825z" clip-rule="evenodd"/><path fill="#E1D3D3" fill-rule="evenodd" d="M198.92 42.457h-12.083a2.948 2.948 0 0 0-2.947 2.949v8.845a2.947 2.947 0 0 0 2.947 2.948h12.083a2.946 2.946 0 0 0 2.946-2.948v-8.845a2.947 2.947 0 0 0-2.946-2.949z" clip-rule="evenodd" opacity=".671"/><path fill="#FFF" fill-rule="evenodd" d="m192.73 44.521-.147 1.033-3.241 2.358.694.442 2.694-.589.022 8.108h2.926l.147-11.352z" clip-rule="evenodd"/><ellipse cx="137.229" cy="35.774" fill="#FFF" fill-rule="evenodd" clip-rule="evenodd" rx="3.438" ry="3.342"/><ellipse cx="146.07" cy="35.774" fill="#FFF" fill-rule="evenodd" clip-rule="evenodd" rx="3.438" ry="3.342"/><path fill="#FFF" fill-rule="evenodd" d="M100 69.387H79.765a1.572 1.572 0 0 0 0 3.144H100a1.571 1.571 0 0 0 0-3.144z" clip-rule="evenodd"/><ellipse cx="91.65" cy="32.728" fill="#DEEBF2" fill-rule="evenodd" clip-rule="evenodd" rx="16.759" ry="16.513"/><ellipse cx="152.652" cy="16.216" fill="#DEEBF2" fill-rule="evenodd" clip-rule="evenodd" rx="5.482" ry="5.402"/><path fill="#DEEBF2" fill-rule="evenodd" d="M149.585 161.87C127.983 101.837 73.81 111.1 73.81 111.1c-49.375 6.518-60.003 49.398-60.003 49.398-14.401 43.567 20.229 72.04 20.229 72.04l-2.742 26.758 23.315-13.036c36.688 16.124 64.461-5.146 64.461-5.146 46.287-29.502 30.515-79.244 30.515-79.244z" clip-rule="evenodd"/><path fill="#81B121" fill-rule="evenodd" d="M139.98 165.112c-18.566-51.598-65.128-43.637-65.128-43.637-42.437 5.602-51.572 42.457-51.572 42.457-12.377 37.445 17.387 61.917 17.387 61.917l-2.357 22.998 20.039-11.204c31.532 13.857 55.403-4.423 55.403-4.423 39.784-25.356 26.228-68.108 26.228-68.108z" clip-rule="evenodd"/><path fill="#D2E4EE" fill-rule="evenodd" d="M99.607 196.365s-3.93-1.179-10.806 7.273c0 0-18.566-5.504-27.996-27.52 0 0 6.975-6.879 6.975-10.024 0 0-1.179-11.794-8.448-17.101 0 0-6.091-5.504-11.395-.394 0 0-7.073 6.094-5.698 15.136 0 0 .786 21.032 18.468 38.329 0 0 15.914 16.512 34.185 19.46 0 0 16.11 6.094 22.004-9.632 0 .002 3.339-11.203-17.289-15.527z" clip-rule="evenodd"/></svg>