<svg xmlns="http://www.w3.org/2000/svg" xml:space="preserve" width="71.168" height="57.646">
<path fill-rule="evenodd" d="m69.956 39.378.49-.465c.05-.084.044-.167.091-.232h.077v-1.099l-.091-.013c-.127-.079.004-.233-.064-.349l-.142-.129v-.155l-.129-.104-.013-.31-.13-.117-.013-.167-.13-.116v-.271l-.128-.13-.014-.297c-.059-.11-.237-.29-.271-.413-.024-.089.035-.189-.014-.271-.064-.11-.22-.289-.258-.413l-.013-.245a20.492 20.492 0 0 1-.13-.182c-.021-.091.028-.16-.013-.245-.056-.116-.189-.27-.245-.388l-.013-.246c-.048-.072-.095-.146-.143-.22v-.206c-.049-.128-.203-.286-.258-.413l-.013-.259-.116-.142c-.157-.345-.304-.689-.607-.879-.349-.218-.999-.155-1.562-.155h-3.409l-12.989-.013c-.138-.221-.051-1.205-.051-1.563V7.223c0-.638.072-1.354-.155-1.745-.459-.789-2.35-.581-3.629-.581H32.499l-.207.142-.284-.012c-.148.03-.442.202-.516.323l-.026.181c-.047.105-.235.146-.271.271l.013 3.255v9.302c-.246.138-1.15.052-1.523.052h-2.97c-.419 0-1.016.085-1.381-.026l-.013-5.374V2.352l-.143-.142v-.427l-.606-.594c-.101-.063-.228-.018-.348-.104v-.09H18.76a.317.317 0 0 1-.038.168h-.284c-.12.037-.583.624-.632.762V5.4l-.013 12.958c-.133.087-.445.052-.659.052l-1.614-.013-.052-.064.013-16.11-.155-.168.013-.258-.516-.529c-.132-.129-.406-.023-.426-.272H8.909c-.003.092-.021.11-.052.168l-.271.012c-.127.041-.583.617-.632.762V18.32l-.052.078-3.06.013c-.494 0-1.008-.044-1.317.142a8.37 8.37 0 0 0-.465.453l-.013.181c-.034.057-.121.067-.142.142l.013.259a7.965 7.965 0 0 1-.142.116v.168a7.965 7.965 0 0 1-.142.116l.013.271-.155.155v.297l-.116.078-.039.22-.116.077v.297l-.142.142v.272l-.129.116-.039.194v.013l-.104.077-.013.297c-.039.073-.249.335-.271.413v.246c-.027.079-.125.099-.142.193v.22c-.051.13-.231.304-.271.439v.233c-.051.14-.231.303-.271.453l.013.167c-.017.102-.11.138-.142.22-.053.134-.009.217-.078.323H.555v.957h.091c.103.177.196.469.387.542l.142-.012.129.142h.194c.153.005.225.109.297.194l.013 15.103-.013 11.64c-.102.057-.317.043-.478.039-.157.13-.176.24-.438.284-.089.172-.074.303-.246.388a2.113 2.113 0 0 0-.078.013v1.24h.078l.555.543c.206.078.332-.091.349.181h68.096c.004-.083.02-.098.039-.155l.349-.052c.185-.141.292-.402.517-.504l.077-.013v-1.24l-.13-.026c-.036-.153-.069-.325-.219-.388h-.154l-.13-.142h-.155c-.034-.043-.068-.086-.104-.129-.121-.055-.156.033-.22-.077l.014-14.521c.113-.064.304.006.439-.03zM20.413 5.155V3.708l.09-.064c.498-.002 1.889-.1 2.221.051l.013 1.589c0 .187.042.495-.026.632-.088.122-.376.065-.581.065l-1.627.013-.064-.052c-.046-.216-.026-.528-.026-.787zm.052 3.424.064-.026 1.524.013c.186 0 .5-.041.62.039.113.083.064.432.064.62v1.783l.013 7.313a1.427 1.427 0 0 0-.051.064c-.206.05-.515.026-.763.026h-1.458c-.098-.143-.065-.458-.065-.698v-6.925c0-.5-.1-1.874.052-2.209zm-9.903-3.256.013-1.64.052-.039h1.666c.209 0 .508-.038.607.077l-.013 2.184-.052.064-2.22.013c-.085-.138-.053-.441-.053-.659zm0 10.994V9.199c0-.249-.032-.521.09-.646l1.614.013c.174 0 .438-.033.568.026.123.081.065.402.065.607v1.77l.013 7.364-.051.064-2.247.013c-.128-.203-.052-1.7-.052-2.093zm.942 17.919c-.065.085-.294.052-.439.052h-5.01c-.451 0-1.365.085-1.73-.025-.113-.203-.039-1.58-.039-1.977v-5.052a7.32 7.32 0 0 1 .129-.078l7.05.013c.146.217.064 1.146.064 1.512v3.939c.001.284.049 1.505-.025 1.616zm0 19.741c-.488.118-1.19.026-1.73.026h-3.55c-.335 0-1.696.075-1.885-.026-.092-.061-.051-1.353-.051-1.627l.013-5.53c.021-.037.035-.038.064-.064h7.114l.052.064v6.435c-.001.228.03.536-.027.722zm0-9.857-7.153.012-.064-.063V38.63c0-.396-.083-1.613.103-1.744l7.088.013c.12.19.052 1.439.052 1.796v3.746c0 .461.091 1.331-.026 1.679zm9.865 9.831c-.262.142-1.186.052-1.575.052h-3.9c-.33 0-1.5.074-1.704-.026-.043-.021-.043-.02-.064-.064v-7.105l.09-.052h6.521c.208 0 .484-.024.632.039l.013 2.661-.013 4.495zm.013-16.588v1.266l-.013 5.465c-.217.116-1.515.038-1.885.038h-3.615c-.5 0-1.283.09-1.717-.025-.102-.191-.026-1.626-.026-2.002l-.013-5.13c.044-.043.082-.058.142-.09l5.139.013c.338 0 1.788-.063 1.937.026.084.065.051.294.051.439zm-.039-3.1c-.495.109-1.185.025-1.731.025h-3.486c-.454 0-1.689.089-1.988-.052l-.013-2.196.013-4.819.09-.051h6.611c.134 0 .419-.041.504.025.07.056.039.306.039.426v5.065c0 .415.079 1.337-.039 1.577zm1.33-9.832c-.149-.014-.228.126-.349.155h-9.193c-.108-.035-.172-.146-.336-.155l-.31.155H6.159l-2.337.013a.446.446 0 0 0-.039-.013c-.037-.234.187-.345.232-.53v-.22l.129-.168v-.22c.041-.14.223-.312.271-.452v-.246c.044-.123.221-.293.271-.413v-.271l.142-.155-.013-.246.143-.143v-.142l.142-.142c.027-.07-.013-.095.013-.143.021-.032.039-.041.065-.065h25.126c.282 0 .639-.031.878.026.086.151.026.586.026.827v1.899c0 .265.05.621-.052.775-.245.055-.603.026-.891.026h-7.269c-.113-.026-.188-.14-.323-.152zm8.548 29.495c-.269.181-1.471.077-1.924.077h-3.486c-.593 0-1.273.052-1.821-.026-.112-.195-.038-1.556-.038-1.911v-5.259l.103-.052h6.327c.261 0 .581-.022.801.026.095.166.026 1.621.026 1.977.002 1.721.007 3.444.012 5.168zm-.013-14.987.013 5.129c-.259.165-1.421.063-1.847.063l-5.358-.012c-.043-.022-.043-.021-.064-.065l.012-7.092a.446.446 0 0 1 .013-.039l.155-.039 4.894.013c.608 0 1.668-.094 2.156.026.101.194.026 1.638.026 2.016zm0-4.715c-.252.146-1.543.064-1.976.064h-3.46c-.579 0-1.248.053-1.782-.025-.104-.184-.038-1.359-.038-1.719v-3.76c0-.401-.094-1.292.038-1.589l.078-.025h6.301c.26 0 .581-.023.8.025.108.186.039 1.464.039 1.834v3.566c0 .453.072 1.291 0 1.629zM47.076 8.437v10.749l-.013 34.778c-.392.106-.998.039-1.459.039h-2.918l-8.845-.013c-.104-.167-.051-.585-.051-.841V8.295c0-.202-.061-.605.026-.75.021-.038.035-.039.064-.064h11.646c.49 0 1.063-.044 1.51.026.104.181.04.644.04.93zm14.913 41.186v4.315c-.245.165-1.442.064-1.859.064l-5.449-.013-.077-.064v-5.84c.029-.067.057-.068.116-.104l7.218.013c.133.203.051 1.25.051 1.629zm4.867 4.354c-.292.072-2.059.074-2.272-.025l-.013-3.411v-3.63l.026-.194c-.017-.072-.11-.088-.142-.142v-.427c-.208-.206-.414-.413-.62-.62-.68-.276-1.989-.154-2.919-.154h-7.76l-.129.142-.31.013-.336.362-.258.232v.439l-.142.129.012 1.383v3.914c0 .316.067 1.809-.025 1.964-.068.088-.326.052-.478.052-.313 0-1.442.065-1.563-.077l.013-14.379c.021-.014.043-.026.064-.039l16.799.013c.046.021.056.03.077.077v13.294c.002.317.075.86-.024 1.084zm.581-17.144-.064.052-13.389.013h-3.086c-.276 0-1.029.067-1.201-.038-.104-.084-.038-.61-.038-.814v-1.899c0-.268-.051-.631.051-.787.37-.074.877-.026 1.292-.026h10.741l4.158-.013c.132.049.316.142.31.323-.003.083-.036.119.014.193.065.101.207.281.245.388.032.092-.035.152-.014.232l.143.155v.271l.129.13.014.155.129.115v.285l.129.116.026.193.128.104v.298l.143.128-.013.259c.017.054.118.108.154.155v.012zM38.154 15.968h.206c.162.041.224.175.466.143.12-.017.184-.104.271-.143l.259-.025.594-.594.013-3.553c-.294-.397-.736-.772-1.382-.775l-.193.142h-.232l-.633.621-.013 1.498.013 2.081c.028.073.553.58.631.605zm3.034-.723c.03.106-.033.196.026.284.159.239.426.291.696.427l.182.142c.468.125.687-.144.916-.258l.168-.013c.075-.044.431-.652.465-.75l.013-3.023c-.19-.161-.053-.135-.154-.297l-.13-.103-.012-.181-.22-.182h-.143l-.104-.129h-.296c-.109-.047-.063-.139-.259-.142-.279.113-.866.236-1.007.465l-.026.194-.129.116.013.129-.154.155.012 1.292-.012 1.627c.025.114.13.156.155.247zm-1.227 5.297-.143-.129v-.155c-.074-.153-.266-.148-.399-.245-.087-.063-.131-.186-.245-.22l-.865-.013c-.104.069-.195.224-.297.271-.155.072-.263.052-.349.182l-.014.181-.142.129v3.385l.142.207c.218.456.46.582 1.099.582l.373.013c1.09-.23.84-1.585.84-2.881v-1.307zm1.86 4.173h.567l.491.013.245-.245.362-.349.025-.284.129-.167.013-2.855c-.118-.115-.15-.171-.142-.427-.138-.134-.304-.368-.465-.465l-.193-.025-.116-.129h-.787l-.193.039c-.05.033-.542.523-.568.568l-.013.181-.142.129v3.062c.047.225.25.422.322.659.24.05.278.245.465.295zm-3.383 8.63.594-.013c.252-.07.862-.557.93-.788v-3.515a358.44 358.44 0 0 0-.62-.606l-.374-.013c-.111-.033-.115-.131-.271-.142-.068.052-.122.122-.22.142l-.361.013-.606.595.013 3.578c.078.198.687.68.915.749zm2.75-.853c.024.103-.03.187.026.271l.231.22.22.207h.232l.194.142h.529l.129-.129h.142l.116-.129.168-.014c.11-.063.446-.67.478-.813v-2.945a17.745 17.745 0 0 0-.142-.117l-.013-.193-.13-.09v-.168c-.08-.154-.251-.136-.361-.194l-.116-.129h-.271c-.153-.05-.084-.145-.388-.142-.053.036-.114.123-.168.142l-.284.013c-.081.042-.433.25-.465.323l-.013.181-.129.103.013.13-.154.154.012 1.292-.012 1.642.156.243zm-1.355 5.181v-.155c-.045-.125-.209-.164-.336-.22l-.297-.258-.917-.013c-.089.073-.158.175-.245.245-.116.094-.277.06-.374.206l-.026.194c-.043.035-.086.068-.129.104v1.576c0 .994-.164 2.08.478 2.455l.168.038.142.116h.826c.343-.065.795-.498.853-.84l-.013-1.951.013-1.355c-.019-.072-.112-.087-.143-.142zm3.821.4a9.506 9.506 0 0 0-.142-.142 32.325 32.325 0 0 1-.013-.311 3.956 3.956 0 0 0-.439-.439l-.193-.025-.116-.129h-.762c-.237.124-.712.387-.813.62l-.013.181c-.043.034-.086.068-.129.104l.012.994-.012 2.08c.04.171.236.462.322.646.235.051.251.204.413.284.37.01.74.018 1.11.026l.62-.62c.235-.545.154-1.592.154-2.402v-.867zm-3.835 8.204.014-.13c-.155-.159-.311-.318-.465-.478l-.388-.013c-.122-.035-.118-.14-.297-.143-.26.218-.256.036-.555.143-.155.146-.311.292-.465.439-.044.063.018.107-.014.181l-.142.129v3.385c.032.124.169.165.232.259l.091.22.167.051c.291.118.468.34.969.259.114-.019.642-.276.697-.349l.064-.194c.071-.103.215-.133.245-.284l-.013-1.925.013-1.396c-.018-.075-.128-.091-.153-.154zm3.706.155-.013-.167-.143-.13.014-.129-.194-.207-.167-.013-.116-.129h-.271c-.165-.048-.063-.146-.413-.143a25.03 25.03 0 0 0-.168.143h-.258l-.143.129c-.056.009-.112.018-.168.025l-.181.194v.155c-.043.034-.086.068-.129.104l-.013.181c-.043.034-.086.068-.129.104l.012 1.395-.012 1.551.154.245c.02.096-.046.135 0 .22l.258.259.207.206h.245l.168.143.53.013.167-.142h.259l.465-.453.025-.271c.026-.086.119-.127.142-.233V46.55l-.129-.104v-.014z" clip-rule="evenodd" fill="#fff"/></svg>