<svg xmlns="http://www.w3.org/2000/svg" xml:space="preserve" width="96.008" height="65.605">
<path fill-rule="evenodd" d="M94.698 43.502c-.05-1.296-.318-2.534-.611-3.614l-.238-1.064c-.434-1.279-.886-2.661-1.545-3.749l-.305-.675a79.496 79.496 0 0 0-1.546-2.382c-.436-.641-.903-1.207-1.375-1.807l-.679-.692-1.189-1.199c-1.357-1.093-2.702-2.165-4.262-3.074-.254-.148-1.622-.718-1.646-.929 1.623-1.715 2.701-3.464 3.582-5.945.749-2.11.722-5.741 0-7.853-1.02-2.983-2.603-5.495-4.975-7.127-.74-.509-1.433-1.104-2.343-1.452-.199-.078-.424-.25-.612-.34-.245-.117-.449-.129-.712-.22-.956-.328-2.065-.761-3.295-.794v-.1H70.06v.101c-.587.003-1.077.154-1.545.254-1.341.286-2.657.701-3.667 1.3-.361.214-2.032 1.254-2.343 1.503-.842.672-.716 2.058.187 2.567.996.562 2.444-.76 3.141-1.148.252-.141 1.64-.681 1.919-.794 1.045-.426 2.241-.543 3.633-.693.507-.054 1.137.069 1.546.153l.696.067c.848.23 1.661.517 2.377.845 2.665 1.224 4.902 3.532 5.807 6.486.215.702.308 1.426.458 2.212l.052.76c.054.33-.007.725-.052.997-.027.355-.056.709-.084 1.063a11.798 11.798 0 0 1-.51 1.875c-1.336 3.57-3.831 5.852-7.641 6.958-1.091.316-3.105.398-4.397.169-.627-.112-2.562-1.069-3.243-1.166-.906-.128-1.799 1.106-1.426 2.077.357.933 2.626 1.795 3.7 2.027 2.138.46 4.868.265 6.707-.321.31-.098.6-.133.883-.27.383-.185.77-.337 1.155-.489.275-.109.551-.356.85-.439.148-.042.376.07.492.118 4.236 1.735 7.289 4.318 9.678 7.888.547.816 1.058 1.668 1.443 2.651.264.672.665 1.415.883 2.146.297.993.497 2.034.713 3.09l.051.794c.187 1.082.171 2.394.17 3.665v6.198l-.067.084-10.477.018h-2.632c-.328 0-.856.064-1.069-.068l-.238-1.841c-.209-.857-.388-1.833-.645-2.635-.091-.377-.182-.754-.271-1.131a315.096 315.096 0 0 0-1.427-3.648 310.75 310.75 0 0 0-.34-.591 21.531 21.531 0 0 0-1.086-1.993c-1.951-3.11-4.08-5.778-6.945-7.972-.856-.656-1.736-1.427-2.7-1.959l-1.392-.777c-.432-.265-.898-.469-1.375-.709-.218-.11-.43-.28-.696-.337l-.051-.119c1.701-1.757 3.404-4.274 4.159-6.941.301-1.059.443-2.134.646-3.311.245-1.422.062-3.398-.22-4.627l-.068-.608-.323-1.063c-1.125-4.237-3.698-7.185-6.809-9.458-.544-.398-1.151-.652-1.749-.997-.827-.477-1.821-.848-2.768-1.199L51.996.995C51.363.81 50.501.6 49.738.589V.486h-3.465v.101c-.771.028-1.616.219-2.258.406l-1.155.253c-.946.349-1.941.723-2.768 1.199-.597.345-1.204.6-1.749.997-3.114 2.272-5.679 5.222-6.809 9.458l-.323 1.063-.068.608c-.284 1.225-.464 3.208-.22 4.627.202 1.177.348 2.251.645 3.311l.339.828c.807 2.47 2.221 4.424 3.821 6.114v.068c-.637.415-1.404.618-2.054 1.03L31.11 32.12l-1.138.895c-3.122 2.12-5.685 5.402-7.691 8.647-.184.296-.272.604-.442.912-.209.38-.482.781-.662 1.182-.174.388-.253.762-.442 1.149-.75 1.541-1.167 3.231-1.629 5.1-.233.94-.469 2.064-.543 3.142-.217.147-.751.085-1.104.085H4.418l-.085-.068-.017-5.101c0-2.068-.053-4.19.323-5.894l.068-.692c1.264-4.916 3.444-8.663 6.876-11.4 1.417-1.13 2.875-2.11 4.669-2.888.426-.185.917-.51 1.393-.608.22-.046.434.192.577.253.536.229 1.033.482 1.579.709 1.913.795 5.152 1.047 7.539.54.996-.212 3.772-1.22 4.21-1.976.552-.949-.291-2.427-1.324-2.28-.667.095-2.977 1.212-3.583 1.317-1.337.232-3.481.148-4.635-.135-3.778-.927-6.387-3.542-7.675-6.975a11.799 11.799 0 0 1-.509-1.875l-.084-1.063c-.045-.27-.105-.668-.051-.997l.152-1.537.357-1.435c.9-2.953 3.145-5.262 5.807-6.486a15.657 15.657 0 0 1 2.377-.845l.696-.067c.408-.085 1.041-.208 1.545-.153 1.745.192 3.283.606 4.602 1.183.764.333 2.996 2.537 4.058 1.941.903-.506 1.026-1.862.187-2.533-.312-.25-1.711-1.424-2.072-1.639-1.01-.6-2.563-1.398-3.905-1.688-.462-.1-.96-.263-1.544-.254v-.1h-2.887v.101c-1.239.063-2.324.463-3.293.794-.264.091-.467.103-.713.22-.188.09-.412.262-.611.338-.91.348-1.604.942-2.343 1.452-2.192 1.51-3.656 3.723-4.687 6.401-.771 2.004-1.2 5.34-.493 7.803.498 1.731 1.099 3.341 2.038 4.644l1.172 1.453c.173.214.512.406.577.709-.079.073-.121.049-.238.102l-.526.32c-.311.173-.637.25-.934.439-.999.639-1.962 1.313-2.92 1.977-.521.359-.938.858-1.426 1.249-.613.492-1.156 1.094-1.647 1.706l-.696.76c-1.193 1.689-2.439 3.412-3.277 5.455-.233.568-.367 1.135-.594 1.723-.329.853-.583 1.906-.815 2.854l-.084.827c-.11.542-.251 1.161-.238 1.808l-.102.018v11.636h.102c.418 1.409 2.462 1.048 4.245 1.047 4.25.007 8.501.012 12.751.018.137.079.068.636.068.845V60.214c0 1.531-.141 3.42 1.053 3.791l.017.102h57.119v-.084c1.417-.671 1.069-2.692 1.069-4.653v-2.945l.085-.084c4.216-.006 8.434-.011 12.649-.018 1.742.001 3.994.362 4.33-1.063h.102V43.502h-.104zM34.472 21.141c-.088-.391-.232-.871-.323-1.3-.269-1.273-.272-3.187-.018-4.477.153-.766.3-1.526.544-2.229 1.565-4.518 4.774-7.344 9.271-8.968.81-.292 1.798-.367 2.717-.523l1.291-.068c6.606.294 10.728 3.642 12.87 8.36.883 1.944 1.629 5.093 1.036 7.905-.236 1.12-.541 2.104-.883 3.09-.202.58-.617 1.161-.9 1.672-1.741 3.138-4.548 5.135-8.201 6.384-.771.264-1.61.311-2.479.457l-1.308.084-1.783-.135c-1.398-.23-2.557-.473-3.702-.929-.186-.074-.4-.24-.577-.32-3.456-1.586-6.643-4.916-7.555-9.003zm40.037 34.984v4.138c-.075.129-.566.751-.765.751h-52.16c-.029-.028-.057-.74-.085-.768v-.074c0-3.327-.09-6.647.561-9.34 1.829-7.576 5.887-12.979 11.614-16.67 1.481-.955 3.135-1.623 4.805-2.398.229.055.399.213.577.32.5.305 1.1.674 1.613.913 1.175.546 2.484.977 3.872 1.283.633.141 1.195.109 1.884.236.741.137 1.94.2 2.75.068l1.461-.152 1.63-.338c1.07-.352 2.107-.649 3.073-1.098.514-.238 1.113-.607 1.613-.913.15-.091.406-.374.662-.32l.255.152c.444.172.852.361 1.256.541 1.629.723 3.003 1.61 4.381 2.55a23.078 23.078 0 0 1 5.569 5.404c.427.581.878 1.115 1.239 1.773l.51.727 1.104 2.044a57.826 57.826 0 0 1 1.443 3.665c.311.867.398 1.7.611 2.65.737 3.288.527.846.527 4.856z" clip-rule="evenodd" fill="#fff"/></svg>