<svg xmlns="http://www.w3.org/2000/svg" xml:space="preserve" width="99.988" height="99.988"><path fill-rule="evenodd" d="M47.272 25.94c.888.331 2.834.645 4.082.436 3.995-.669 6.527-2.658 7.981-5.841.651-1.425 1.089-3.995.6-5.932-.139-.549-.36-1.126-.545-1.614-1.292-3.428-4.66-6.212-9.469-6.132l-.689.055c-.789.174-1.556.274-2.25.526-2.913 1.057-4.845 3.251-5.95 6.131-.6 1.563-.551 4.119-.073 5.733.991 3.343 3.159 5.463 6.313 6.638zM43.79 14.566c.907-2.223 2.025-3.39 4.172-4.372.459-.211 1.078-.269 1.596-.381l.581-.037c3.402-.009 5.559 1.856 6.53 4.299.548 1.381.741 3.402.127 4.917-1 2.461-2.783 3.966-5.769 4.462-1.017.169-2.239-.051-2.903-.363-.408-.191-.797-.246-1.16-.472-1.354-.839-2.26-1.926-2.994-3.392a101.33 101.33 0 0 1-.072-.345c-.446-1.056-.589-3.137-.108-4.316zM17.051 33.794c.99.288 2.278.8 3.701.563.685-.114 1.338-.218 1.959-.381.265-.069.574-.264.816-.363 2.129-.869 3.654-2.562 4.553-4.662.746-1.742.737-4.27.073-6.059-1.182-3.178-3.933-5.806-8.345-5.733l-.943.055c-.763.155-1.474.318-2.141.581-2.24.882-3.872 2.77-4.771 5.006-.545 1.357-.645 3.642-.218 5.207.704 2.575 2.794 5.054 5.316 5.786zm-2.63-8.417c.095-.599.078-1.046.272-1.523.713-1.754 1.836-2.75 3.555-3.501l1.034-.235.689-.037c2.726.049 4.811 1.664 5.424 3.792.379 1.317.528 2.804-.073 4.082-.908 1.93-2.349 3.083-4.806 3.483-.923.15-1.769-.163-2.377-.362-1.848-.609-4.153-2.941-3.718-5.699zm62.311 8.236c.972.42 2.638.997 4.154.744.689-.115 1.326-.216 1.959-.381.4-.104.858-.354 1.197-.544 1.918-1.073 3.318-2.425 4.19-4.536.757-1.831.684-4.13.054-5.985-1.075-3.171-4.013-5.824-8.326-5.751l-.816.037c-.602.104-1.253.2-1.777.417-2.483 1.027-4.341 2.63-5.278 5.188a9.18 9.18 0 0 0-.399 1.506c-.832 4.549 2.157 8.06 5.042 9.305zm-2.141-8.653c.079-.459.089-.802.254-1.179.719-1.635 1.845-2.829 3.573-3.446l.979-.218.708-.037c3.835.043 6.935 3.68 5.405 7.729-.765 2.026-2.438 3.234-4.861 3.627-.884.144-1.75-.127-2.322-.345-2.117-.804-4.281-2.965-3.736-6.131zM33.794 55.037c.81.512 1.856-.044 2.123-.689.143-.347.139-.675.218-1.069.127-.636.242-1.308.417-1.978.529-2.025.894-4.127 1.343-6.223.352-1.638.703-3.4 1.125-5.024.305-1.175.402-2.347.853-3.355 1.198-2.691 3.326-4.535 6.349-5.406 1.107-.318 2.538-.254 3.936-.254l3.284.037c.86.146 1.741.279 2.466.599 2.321 1.022 4.309 2.758 5.207 5.188.393 1.061.534 2.226.815 3.447.407 1.761.733 3.641 1.125 5.406.202.912.28 1.805.526 2.667l.127.816c.268 1.064.454 2.25.707 3.319.161.681.138 1.51.472 2.031.336.524 1.285.959 2.014.49.776-.5.758-1.274.509-2.268l-.091-.671c-.245-.878-.345-1.808-.545-2.739-.378-1.765-.713-3.646-1.124-5.405-.383-1.636-.603-3.293-.98-4.88-.185-.778-.187-1.516-.453-2.231-1.63-4.367-4.445-7.41-9.324-8.507-1.848-.415-4.691-.23-6.893-.218l-.599.019-1.342.199c-1.297.301-2.74.75-3.719 1.397-1.355.895-2.723 1.89-3.646 3.21l-.472.744c-.24.337-.575.782-.726 1.179-.239.63-.563 1.247-.762 1.905-.209.693-.261 1.354-.454 2.086-.495 1.881-.787 3.905-1.288 5.787-.091.489-.182.979-.271 1.469-.561 2.152-.855 4.484-1.47 6.622-.28.966-.14 1.867.543 2.3zM6.258 57.958c.53.34 1.247.162 1.651-.146.814-.621.827-2.758 1.106-3.954.51-2.185.888-4.513 1.325-6.712.245-1.231.355-2.872.834-3.881.731-1.545 1.63-2.774 3.029-3.646.287-.18.612-.438.943-.563.847-.318 1.68-.535 2.739-.708l2.358-.018c1.114 0 2.234-.046 3.174.145 2.011.408 3.984 1.726 4.898 3.229.342.563.653 1.157.924 1.796.208.49.194 1.123.454 1.56.497.841 1.864.968 2.467.127.393-.549.221-1.125.072-1.742-.253-1.056-.61-1.947-1.124-2.739-1.657-2.549-3.83-4.473-7.347-5.151l-1.941-.163H18.5l-1.94.163c-1.205.235-2.431.634-3.356 1.197-2.317 1.412-3.952 3.305-4.97 6.023-.255.681-.284 1.377-.453 2.14-.249 1.124-.438 2.361-.708 3.483l-.272 1.669c-.434 1.795-.682 3.751-1.106 5.551-.24 1.019-.156 1.879.563 2.34zM68.46 45.531c.496.294 1.257.285 1.723-.036.528-.365.511-1.066.744-1.742a8.666 8.666 0 0 1 1.179-2.286c1.046-1.418 2.642-2.501 4.626-2.974.892-.213 1.954-.164 3.029-.163 2.159 0 4.054.021 5.441.762 1.657.884 3.125 2.221 3.828 4.045.423 1.097.557 2.359.816 3.646.372 1.843.679 3.83 1.125 5.66l.29 1.723c.35 1.205.253 3.041 1.161 3.701.392.285 1.114.402 1.596.091.869-.563.728-1.596.472-2.722-.489-2.15-.826-4.447-1.307-6.603-.491-2.213-.656-4.603-1.414-6.549-1.304-3.352-4.207-5.593-7.981-6.512l-.689-.055c-1.405-.251-3.295-.136-4.88-.127l-1.741.163c-.514.133-1.027.267-1.542.399-2.029.641-4.104 2.207-5.207 3.792-.315.455-.54.924-.833 1.415-.531.887-1.753 3.591-.436 4.372zm-1.996 26.52 1.397-1.36c.968-.961 1.935-1.922 2.901-2.884 1.519-1.463 3.036-2.927 4.554-4.391l1.633-1.633c.175-.207.463-.352.58-.615.332-.746.101-1.554-.435-1.941-.32-.231-.701-.189-1.18-.29-.868-.183-1.799-.21-2.721-.399-3.206-.658-6.615-.81-9.832-1.47-.996-.204-2.01-.278-2.975-.436-.447-.072-1.086.005-1.307-.29-.244-.327-.342-.767-.525-1.143-.445-.909-.905-1.821-1.361-2.757a528.34 528.34 0 0 0-4.226-8.453c-.404-.794-.739-1.601-1.161-2.358-.262-.471-.382-1.033-.799-1.343-.28-.208-.572-.287-1.07-.29-.339.134-.552.147-.798.344-.378.302-.513.854-.744 1.306-.394.772-.793 1.546-1.161 2.358-.629 1.395-1.43 2.784-2.104 4.154-.498 1.012-.906 2.016-1.432 3.012-.296.558-.653 1.164-.907 1.741-.359.814-.806 1.569-1.161 2.357-.109.242-.387 1.018-.563 1.143-.315.225-.875.151-1.324.236-.682.128-1.505.242-2.195.363l-.599.036c-2.38.463-4.963.675-7.347 1.125-.921.174-1.839.2-2.703.381-1.711.356-4.075-.026-4.408 1.724-.118.618.306 1.03.562 1.306l2.376 2.321 7.328 7.165 1.96 1.905c.201.194.644.46.726.744.047.164-.153 1.005-.2 1.179-.223.839-.273 1.765-.453 2.575l-.272 1.832c-.445 2.021-.683 4.183-1.106 6.204l-.272 1.832c-.176.679-.198 1.406-.362 2.142-.087.388-.373 1.398-.29 1.85.058.319.193.604.362.816.282.356.94.589 1.578.418l2.958-1.542c1.734-.824 3.449-1.792 5.115-2.722 1.429-.797 2.956-1.394 4.354-2.231a26.401 26.401 0 0 1 2.54-1.342c.201-.092.509-.451.835-.362.267.072.992.541 1.251.707l.689.308c.515.295 1.085.588 1.597.889 1.284.757 2.671 1.271 3.954 2.032a57.62 57.62 0 0 0 4.789 2.521c.547.258 1.134.615 1.65.926.206.091.411.182.617.271.314.176.629.352.943.526.48.176 1.084.022 1.396-.182.272-.177.506-.558.599-.907.116-.434-.082-.86-.145-1.215-.164-.919-.226-1.754-.418-2.667-.511-2.436-.839-5.019-1.324-7.456l-.235-1.669c-.233-1.079-.353-2.22-.581-3.355-.086-.428-.233-.896-.235-1.396.528-.57 1.083-1.158 1.687-1.65zm-2.031-2.122-1.379 1.343c-.474.385-1.083.885-1.307 1.506-.155.436.052.994.127 1.342.244 1.119.3 2.234.563 3.301.097.647.193 1.295.291 1.941.349 1.437.457 2.946.762 4.445.222 1.093.354 2.229.58 3.373.074.372.199.734.2 1.18l-.073.054c-.311-.053-.644-.35-.907-.489-.759-.403-1.522-.756-2.248-1.18-.566-.329-1.188-.517-1.742-.87-1.31-.838-2.816-1.493-4.173-2.249-.461-.257-.936-.396-1.377-.671-.82-.511-1.711-.926-2.595-1.361-.342-.168-.672-.471-1.288-.362-.465.081-.808.361-1.161.563-.717.406-1.482.686-2.159 1.124-.574.372-1.223.557-1.814.907-1.232.732-2.597 1.329-3.827 2.067-.449.27-.936.39-1.378.672-.808.514-1.751.844-2.576 1.36-.163.102-.823.536-.998.489-.067-.379.1-.744.163-1.07.156-.804.257-1.584.399-2.339.416-2.229.661-4.475 1.143-6.641l.272-1.849c.167-.715.213-1.464.381-2.232.09-.407.293-1.015.146-1.523-.151-.521-.688-.96-1.07-1.27l-1.887-1.851-8.235-8.054.019-.127c.837-.216 1.744-.197 2.63-.381 2.796-.58 5.782-.732 8.58-1.288.887-.176 1.776-.212 2.612-.381.735-.148 1.371-.09 1.851-.454.338-.256.412-.654.635-1.034.439-.747.738-1.577 1.161-2.358 1.005-1.853 1.876-3.836 2.866-5.695.35-.655.593-1.342.961-1.958.452-.76.704-1.623 1.161-2.359.142-.228.173-.499.345-.688.294.178.37.693.544.997.495.865.931 1.792 1.343 2.721.77 1.737 1.726 3.408 2.539 5.152.216.462.545.943.744 1.414.34.805.754 1.563 1.143 2.322.231.452.389.944.689 1.324.55.694 3.308.777 4.481.979 2.905.502 5.961.754 8.851 1.325.845.166 1.668.191 2.486.344l.054.073c-.025.285-.531.623-.726.779l-2.032 1.978-5.77 5.659zm-33.704 5.66a7966.08 7966.08 0 0 1-4.898-.019l-20.045-.018a7.06 7.06 0 0 0-.037-.109l3.792-3.918c.484-.6 1.281-.985 1.433-1.905.159-.959-.646-1.479-1.07-1.904l-4.136-4.3v-.072c.192-.092.504-.036.78-.036h9.778c1.573 0 2.708.233 3.247-.871.093-.192.207-.479.145-.833-.285-1.641-2.531-1.234-4.408-1.234H2.068c-.442.185-.796.26-1.052.617-.752 1.049.217 1.977.761 2.521l4.19 4.354c.252.313 1.414 1.282 1.47 1.597-.305.574-1.188 1.176-1.615 1.704l-4.154 4.318c-.296.296-.645.62-.834 1.016-.348.729.209 1.52.598 1.777.445.294 1.296.218 2.032.217h25.522c.518.001 1.301.12 1.742-.036.547-.193.977-.607 1.088-1.232.15-.834-.525-1.489-1.087-1.634zm61.857-6.131c.065-.282 1.249-1.308 1.505-1.597l3.737-3.919c.427-.527 1.641-1.225 1.451-2.267-.316-1.751-2.474-1.307-4.463-1.307H81.648c-.516.215-.872.3-1.143.744-.528.864.109 1.961.87 2.158l1.034.036h11.809l.073.055c-.244.461-.899.964-1.271 1.342l-2.63 2.776c-.423.523-1.152.894-1.324 1.65-.241 1.065.716 1.598 1.161 2.086l2.956 3.12 1.107 1.106v.073c-.25.143-1.194.054-1.578.054H70.727c-.433 0-1.131-.109-1.486.037-.505.207-1.165.769-.998 1.614.123.622.503.999 1.034 1.215.43.174 1.184.055 1.74.054h25.56c.735.001 1.588.077 2.032-.217.736-.487.884-1.52.29-2.268-2.104-2.179-4.209-4.363-6.313-6.545z" clip-rule="evenodd" fill="#fff"/></svg>