<svg xmlns="http://www.w3.org/2000/svg" xml:space="preserve" width="100" height="100"><path fill-rule="evenodd" d="M87.553 8.982c.139.043.373.147.607.094.525-.121.985-.471 1.19-.958.226-.533.094-1.548.094-2.241 0-1.879.284-3.819-1.611-3.807-.624.266-1.064.351-1.308.98-.198.513-.07 1.462-.07 2.102 0 1.811-.353 3.381 1.098 3.83zM60.019 7.044c.185.093.5.207.841.141 1.128-.221 1.261-1.12 1.261-2.499 0-1.465-.192-2.422-1.541-2.499-.686.274-1.157.33-1.401 1.027-.119.343-.047.911-.047 1.332-.001 1.351-.007 2.052.887 2.498zm-5.699 4.134h1.051c1.198 0 2.106.039 2.546-.7.2-.337.248-.88.094-1.262-.521-1.287-1.864-1.057-3.62-1.027-.469.307-.844.322-1.121.817-.545.975.295 1.992 1.05 2.172zm9.692-.14c.217.113 2.485.28 2.896.14.38-.13.776-.37.98-.677.182-.274.171-.64.164-.981-.033-1.552-1.977-1.358-3.667-1.331-.425.238-.785.292-1.051.678-.196.283-.297.908-.117 1.284-.159.278.597.783.795.887zm15.087 1.775c.484.297 1.339.233 2.219.233 1.771 0 3.577.346 4.063-1.004.138-.384.032-.79-.094-1.074-.188-.429-.503-.71-.957-.864-.336-.114-.807-.023-1.215-.023l-3.34-.023c-.425.192-.654.243-.934.561-.552.625-.45 1.758.258 2.194zm15.88.233c.471 0 1.114.074 1.472-.07.468-.188.757-.537.935-1.027.135-.373-.021-.766-.141-1.004-.131-.261-.226-.47-.443-.631-.621-.46-3.894-.193-5.091-.257-.393.229-.79.282-1.028.654-.372.581-.273 1.493.188 1.938.69.667 2.799.397 4.108.397zm2.429 61.139c-.117-.697-.08-1.441-.304-2.009-1.136-2.883-4.657-5.98-8.852-4.25-2.852 1.176-5.234 3.952-7.216 6.071l-3.199 3.316h-.047c-.151-.154-.17-.435-.257-.654l-.701-1.424c-.649-.994-2.02-1.816-3.223-2.242-.48-.17-.971-.09-1.588-.187l-4.577-.023h-8.268l-1.494-.233-1.168-.397-.047-28.747.07-.07c.285.153 1.019 1.715 1.237 2.102.977 1.727 2.023 3.483 3.036 5.185.397.668.671 1.652 1.284 2.102.634.464 3.848.257 5.045.257h13.312l.023 17.562c.094.132.532.07.747.07h2.172c.145-.323.047-1.01.047-1.425v-3.293l-.023-12.844c.366-.212 1.335-.07 1.845-.07h3.62c.518 0 1.258.099 1.658-.07.22-.093.509-.333.653-.514.639-.796-.005-1.751-.35-2.358a491.584 491.584 0 0 0-3.434-5.908c-1.117-1.902-2.193-3.825-3.27-5.722-.452-.798-.809-1.895-1.658-2.288-.497-.231-1.511-.094-2.172-.094h-4.95l-19.617.023c-1.068-1.565-2.318-3.013-3.434-4.53-.789-1.074-1.495-2.19-2.335-3.223l-1.401-1.775c-.77-1.162-1.658-2.242-2.499-3.339-.307-.401-.585-1.052-1.004-1.332-.059-.41.853-1.063 1.145-1.354l1.425-1.471c.85-.85 2.377-2.015 2.008-3.946-.669-3.501-3.548-3.014-7.566-3.013H26.81l-1.027.116c-.772.225-1.797.353-2.476.771-.532.329-1.11.599-1.611.958-1.555 1.115-2.996 2.896-4.367 4.25-.784.774-2.512 2.105-2.779 3.246-.146.622.403 1.08.607 1.401l2.102 2.803c2.062 2.992 4.348 5.865 6.563 8.733.683.885 1.417 1.793 2.032 2.709.212.315.407.7.7.935l-.023 22.769-4.974-.023c-.275-1.513.412-2.936-.63-3.713-.674-.502-3.027-.28-4.204-.28H7.146c-1.393 0-3.244-.197-4.087.374-.553.374-.49 1.354-.49 2.288v31.2c.154.7.264 1.299.49 1.892.547 1.43 2.27 2.751 3.854 3.082 1.502.314 3.774.117 5.605.117 1.662 0 3.701.187 5.044-.21 2.117-.626 3.499-2.228 3.947-4.531l.023-2.568a.986.986 0 0 1 .046-.023c.474.058.931.559 1.285.794l3.362 2.055c3.671 2.041 7.493 4.11 11.888 5.278 1.657.44 3.752.444 5.955.443H66.23c4.438 0 8.25.078 11.28-1.214 1.949-.832 3.771-1.934 5.208-3.293.822-.778 1.539-1.67 2.335-2.476 1.32-1.336 2.651-2.654 3.924-4.04 1.654-1.804 3.487-3.441 5.114-5.277.776-.877 1.723-1.572 2.312-2.64.398-.723 1.211-2.577 1.005-3.809zm-16.347-35.17c.182.18.276.461.396.7.301.599.685 1.197 1.027 1.799.545.953 1.16 1.924 1.705 2.872.494.859.879 1.731 1.401 2.568.441.709.834 1.455 1.261 2.195.147.255.402.472.421.841l-.023.023-23.424-.023c-.881-1.639-1.944-3.194-2.779-4.834-.559-1.099-1.127-2.217-1.798-3.246-.25-.384-1.624-2.574-1.588-2.896h23.401zM18.496 90.718c-.11.502-.438 1.084-.794 1.354-.303.231-.676.462-1.098.561-.573.135-1.358.047-2.008.047H7.823c-2.088-.402-2.242-1.63-2.242-4.11v-3.596l.023-25.222h12.891c.173.383.047 1.582.047 2.102V88.71c.001.651.081 1.434-.046 2.008zm34.937-51.703.047.07.023 30.896a8.136 8.136 0 0 1-.14.023c-3.544-3.407-6.388-7.202-11.864-8.711-1.957-.539-4.169-.561-6.679-.561l-5.185.023c-.208-.161-.094-1.033-.094-1.378v-4.04l-.023-16.253.07-.07h23.845zM19.78 19.958l1.798-1.774c1.137-1.096 2.025-2.182 3.667-2.803 1.228-.464 3.12-.326 4.787-.326h16.301c.159.047.22.205.327.304.001.759-.705 1.102-1.098 1.494l-3.176 3.199H19.78v-.094zm-.63 3.224v-.164H42.2c.331.178.557.678.771.98.612.871 1.345 1.653 1.915 2.569.57.917 1.412 1.729 2.031 2.615 1.604 2.296 3.463 4.453 4.998 6.726v.141l-23.167-.023-9.598-12.844zm73.47 54.622-1.354 1.425L89 81.541l-.046.188c-.807.981-1.849 1.818-2.732 2.731-3.022 3.125-5.606 6.618-9.879 8.501-2.593 1.143-6.285.981-10.065.98h-22.56c-1.979 0-3.728.029-5.231-.42-4.403-1.317-8.195-3.38-11.84-5.535a69.92 69.92 0 0 1-3.597-2.265c-.372-.252-1.042-.9-1.471-1.004-.115-.358-.046-.963-.046-1.401V65.45c0-.512-.115-1.312.046-1.729h11.98c3.912 0 7.031-.004 9.599 1.354.893.473 1.833 1.009 2.593 1.635 3.733 3.079 6.055 7.565 11.63 8.805 1.271.282 2.854.233 4.414.233h6.188c1.683 0 3.26.004 4.46.42 1.271.44 2.751 1.344 2.406 3.316-.219 1.248-1.149 2.745-2.149 3.152-.511.209-1.377-.015-1.984.047l-5.395.023H54.53c-1.915 0-4.194.191-5.722-.187-1.32-.327-2.677-.521-3.83-1.098-.494-.248-1.059-.421-1.564-.701-.395-.218-.804-.534-1.261-.677-1.582-.494-2.426 1.862-1.215 2.709 1.522 1.063 3.929 1.925 5.955 2.429l2.593.443.934.023c1.144.219 2.812.047 4.063.047h15.204c1.587 0 3.206.082 4.273-.421 1.34-.631 2.145-1.725 3.082-2.755l1.354-1.378 4.835-4.975c.969-1.14 2.078-2.329 3.246-3.27.573-.462 1.068-1.047 1.682-1.471a7.726 7.726 0 0 1 1.588-.864c.332-.132.79-.155 1.167-.094 1.979.322 3.087 1.689 3.41 3.667.237 1.443-1.01 3.111-1.704 3.671zM59.995 17.016c.193.092.468.231.817.164.405-.078.813-.331 1.027-.607.306-.394.28-1.075.28-1.774 0-1.56-.154-2.645-1.704-2.616l-.491.164c-.313.16-.625.492-.747.841-.119.344-.047.91-.047 1.331.001 1.312-.022 2.079.865 2.497zm27.254 3.83c.129.067.369.216.561.21 1.976-.056 1.635-1.886 1.635-3.923 0-.866.102-1.914-.257-2.429-.235-.338-.648-.554-1.121-.654l-.584.07c-.417.138-.811.503-.957.911-.184.509-.07 1.4-.07 2.031-.001 1.605-.304 3.211.793 3.784zm-15.974 0c.208.112.518.25.817.21 1.28-.17 1.354-1.126 1.354-2.568 0-1.528-.164-2.461-1.752-2.429-.483.295-.885.371-1.121.911-.159.364-.093.877-.093 1.4.001 1.28-.046 2.025.795 2.476zm-5.441 1.191c-.438.255-.859.237-1.121.653-.569.906.003 2.027.794 2.289.436.144 2.479.134 2.919 0 .289-.088.638-.354.794-.584.201-.295.313-.78.188-1.191-.433-1.419-1.774-1.197-3.574-1.167zm9.668 2.942c.318.104.723.047 1.145.047 1.165 0 2.143.088 2.568-.654.183-.317.293-.759.164-1.19-.417-1.398-1.784-1.175-3.55-1.145-.45.232-.91.245-1.145.677-.503.93-.018 1.991.818 2.265zm-4.11 5.909c.171.075.463.213.771.14 1.225-.287 1.285-1.081 1.285-2.568 0-1.556-.173-2.438-1.799-2.405-.442.331-.9.378-1.098.957-.125.368-.069.852-.069 1.354-.001 1.337-.049 2.096.91 2.522zm-58.057 47.71c-.258-.423-.771-.664-1.471-.653-.587.238-1.02.39-1.238.98-.231.624-.094 1.736-.094 2.522v3.503c0 .597-.057 1.265.07 1.704.154.532.838 1.238 1.682 1.051.568-.126 1.033-.496 1.214-1.004.142-.399.07-1.076.07-1.588v-3.76c0-.934.128-2.163-.233-2.755z" clip-rule="evenodd" fill="#fff"/></svg>