<svg xmlns="http://www.w3.org/2000/svg" xml:space="preserve" width="512" height="512" style="enable-background:new 0 0 512 512" viewBox="0 0 16.933 16.933"><g fill="#3c3eae"><path d="M8.48 6.626c-1.325 0-1.987.636-2.32 1.261-.332.626-.33 1.248-.33 1.248v1.996l.53-.001V9.135s.004-.503.268-1c.263-.496.792-.979 1.852-.979s1.58.534 1.849 1.095c.268.562.272 1.133.272 1.133L10.6 11.13l.531.001V9.384s.003-.676-.325-1.362c-.328-.685-1.001-1.396-2.326-1.396z" data-original="#000000"/><path d="M5.82 10.848c-.39 0-.601.214-.699.41-.098.195-.094.385-.094.385v.263s-.004.188.094.383.303.41.7.41h5.292c.394 0 .602-.215.7-.41.097-.195.093-.383.093-.383v-.263s.004-.19-.094-.385c-.097-.196-.313-.41-.699-.41zm0 .529h5.293c.135 0 .192.05.227.12a.406.406 0 0 1 .037.146v.263s-.003.078-.037.147c-.035.069-.092.117-.227.117H5.82c-.139 0-.192-.048-.226-.117a.4.4 0 0 1-.037-.147v-.263s.002-.078.037-.147c.034-.07.091-.119.226-.119zm10.32-2.91a.265.265 0 0 1-.265.264.265.265 0 0 1-.264-.264.265.265 0 0 1 .264-.265.265.265 0 0 1 .265.265zM8.731 16.14a.265.265 0 0 1-.264.264.265.265 0 0 1-.265-.265.265.265 0 0 1 .265-.264.265.265 0 0 1 .264.264zm5.293-13.494h.263s.342.003.676.17.649.488.649 1.153v3.705c-.033.382.56.382.527 0V3.969c0-.93-.48-1.395-.94-1.625-.46-.23-.912-.227-.912-.227h-.263zM9.26 2.117v.53h3.176v-.53zm-4.762 0v.53h3.176v-.53z" data-original="#000000"/><path d="M2.647 2.117s-.452-.003-.912.227-.942.708-.942 1.625v8.996c0 .882.482 1.395.942 1.625.46.23.912.226.912.226h11.64s.452.004.912-.226.94-.736.94-1.625V9.26c.032-.383-.56-.383-.527 0v3.705c0 .658-.315.985-.649 1.152-.334.167-.676.17-.676.17H2.647s-.342-.003-.676-.17-.649-.447-.649-1.152V3.969c0-.67.315-.986.649-1.153.334-.167.676-.17.676-.17h.263v-.529z" data-original="#000000"/><path d="M1.059 4.762v.529h14.816v-.53zM13.229.53c-.529-.001-.8.28-.93.542s-.129.516-.129.516v1.588s-.002.252.129.513c.13.262.401.544.93.543.53 0 .8-.281.931-.543.131-.261.127-.513.127-.513V1.588s.004-.254-.127-.516c-.13-.261-.4-.542-.93-.542zm0 .528c.265 0 .391.115.459.25.067.136.07.28.07.28v1.588s-.003.142-.07.277c-.068.135-.194.253-.46.252-.263-.001-.389-.117-.456-.252-.068-.135-.073-.277-.073-.277V1.588s.005-.144.073-.28c.067-.135.193-.25.457-.25zm2.383 11.907v1.588c0 .661-.315.985-.649 1.152-.334.167-.676.17-.676.17H9.26c-.353 0-.353.53 0 .53h5.027s.452.003.912-.227.94-.692.94-1.625v-1.588h-.527zm-14.819 0v1.588c0 .918.482 1.395.942 1.625.46.23.912.226.912.226h5.027c.353 0 .353-.53 0-.53H2.647s-.342-.002-.676-.17c-.334-.166-.649-.486-.649-1.151v-1.588zM8.467.53c-.529-.001-.799.28-.93.542-.13.262-.129.516-.129.516v1.588s-.002.252.13.513c.13.262.4.544.929.543.53 0 .8-.281.932-.543.13-.261.126-.513.126-.513V1.588s.004-.254-.126-.516C9.268.811 8.997.53 8.467.53zm0 .528c.265 0 .391.115.459.25.068.136.07.28.07.28v1.588s-.002.142-.07.277c-.068.135-.194.253-.46.252-.263-.001-.388-.117-.456-.252s-.072-.277-.072-.277V1.588s.004-.144.072-.28c.068-.135.193-.25.457-.25zM3.704.53c-.528-.001-.799.28-.93.542-.13.262-.128.516-.128.516v1.588s-.002.252.129.513c.13.262.4.544.93.543.53 0 .8-.281.931-.543.13-.261.127-.513.127-.513V1.588s.004-.254-.127-.516C4.506.811 4.234.53 3.704.53zm0 .528c.266 0 .392.115.46.25.067.136.07.28.07.28v1.588s-.003.142-.07.277c-.068.135-.194.253-.46.252-.264-.001-.389-.117-.457-.252-.067-.135-.072-.277-.072-.277V1.588s.005-.144.072-.28c.068-.135.193-.25.457-.25zm4.497 5.816v-.793c0-.353.53-.353.53 0v.793s-.529.005-.53 0zm-1.056 5.562s-.004.318.16.646.504.676 1.162.676c.658 0 .998-.348 1.162-.676.164-.328.16-.646.16-.646h-.53s-.002.208-.103.41c-.1.201-.277.383-.69.383-.407 0-.588-.182-.689-.383-.1-.202-.103-.41-.103-.41z" data-original="#000000"/></g></svg>