<svg xmlns="http://www.w3.org/2000/svg" width="418" height="415" fill="none"><path fill="#4648C8" d="M197.6 27.41c-10.61 0-19.21 8.6-19.21 19.21 0 10.61 8.6 19.21 19.21 19.21 10.61 0 19.21-8.6 19.21-19.21 0-10.61-8.6-19.21-19.21-19.21Zm0 28.81c-5.3 0-9.6-4.3-9.6-9.61s4.3-9.6 9.6-9.6 9.61 4.3 9.61 9.6-4.3 9.61-9.61 9.61Z"/><path fill="#CCCCFD" d="M289.84 58.81H105.35a9.12 9.12 0 0 0-9.12 9.12v285.85a9.12 9.12 0 0 0 9.12 9.12h184.49a9.12 9.12 0 0 0 9.12-9.12V67.93a9.12 9.12 0 0 0-9.12-9.12Z"/><path fill="#F2F2F2" d="M285.12 73.91H110.08v273.66h175.04V73.91Z"/><path fill="#4648C8" d="M126.92 62.78c-4.15 0-7.53-3.38-7.53-7.53s3.38-7.53 7.53-7.53 7.53 3.38 7.53 7.53-3.38 7.53-7.53 7.53Zm0-12.27a4.75 4.75 0 0 0-4.74 4.74 4.75 4.75 0 0 0 4.74 4.74 4.75 4.75 0 0 0 4.74-4.74 4.75 4.75 0 0 0-4.74-4.74Z"/><path fill="#4648C8" d="M137.17 58.28h-20.48v6.09h20.48v-6.09ZM266.34 62.78c-4.15 0-7.53-3.38-7.53-7.53s3.38-7.53 7.53-7.53 7.53 3.38 7.53 7.53-3.38 7.53-7.53 7.53Zm0-12.27a4.75 4.75 0 0 0-4.74 4.74 4.75 4.75 0 0 0 4.74 4.74 4.75 4.75 0 0 0 4.74-4.74c0-2.61-2.12-4.74-4.74-4.74Z"/><path fill="#4648C8" d="M276.58 58.28H256.1v6.09h20.48v-6.09Z"/><path fill="#F2F2F2" d="M125.99 0v53.88c0 .51.42.93.93.93s.93-.42.93-.93V0h-1.86ZM265.41 0v53.88c0 .51.42.93.93.93s.93-.42.93-.93V0h-1.86Z"/><path fill="#36368C" d="M154.43 111.15c-.75.38-2.26.75-4.19.75-4.48 0-7.85-2.83-7.85-8.03 0-5.2 3.37-8.34 8.29-8.34 1.98 0 3.23.42 3.77.71l-.49 1.67c-.78-.38-1.88-.66-3.2-.66-3.72 0-6.2 2.38-6.2 6.55 0 3.89 2.24 6.38 6.1 6.38 1.25 0 2.52-.26 3.35-.66l.42 1.63ZM159.05 95.79v6.64h7.68v-6.64h2.07v15.88h-2.07v-7.44h-7.68v7.44H157V95.79h2.05ZM180.58 104.23h-6.17v5.73h6.88v1.72h-8.93V95.8h8.58v1.72h-6.53v5.02h6.17v1.7-.01ZM195.04 111.15c-.75.38-2.26.75-4.19.75-4.48 0-7.85-2.83-7.85-8.03 0-5.2 3.37-8.34 8.29-8.34 1.98 0 3.23.42 3.77.71l-.49 1.67c-.78-.38-1.88-.66-3.2-.66-3.72 0-6.2 2.38-6.2 6.55 0 3.89 2.24 6.38 6.1 6.38 1.25 0 2.52-.26 3.35-.66l.42 1.63ZM197.61 95.79h2.05v7.66h.07c.42-.61.85-1.18 1.25-1.7l4.85-5.96h2.54l-5.75 6.74 6.2 9.14h-2.43l-5.23-7.8-1.51 1.74v6.05h-2.05V95.78l.01.01ZM215.37 95.79h2.05v14.16h6.79v1.72h-8.83V95.79h-.01ZM228.54 95.79v15.88h-2.05V95.79h2.05ZM231.83 109.17c.92.57 2.26 1.04 3.68 1.04 2.1 0 3.32-1.11 3.32-2.71 0-1.48-.85-2.33-2.99-3.16-2.59-.92-4.19-2.26-4.19-4.5 0-2.47 2.05-4.31 5.14-4.31 1.63 0 2.8.38 3.51.78l-.57 1.67c-.52-.28-1.58-.75-3.02-.75-2.17 0-2.99 1.3-2.99 2.38 0 1.48.97 2.21 3.16 3.06 2.69 1.04 4.05 2.33 4.05 4.67 0 2.45-1.81 4.57-5.56 4.57-1.53 0-3.2-.45-4.05-1.01l.52-1.72-.01-.01ZM246.75 97.54h-4.83V95.8h11.76v1.74h-4.85v14.14h-2.07V97.54h-.01Z"/><path stroke="#36368C" stroke-miterlimit="10" stroke-width="3" d="M265.57 121.47h-27.16v27.15h27.16v-27.15Z"/><path fill="#8686BA" d="M209.07 125.34h-69.62v3.13h69.62v-3.13Z"/><path fill="#D7D7E8" d="M233.13 130.97h-93.68v3.13h93.68v-3.13ZM233.13 136.6h-93.68v3.13h93.68v-3.13ZM233.13 142.24h-93.68v3.13h93.68v-3.13Z"/><path stroke="#25D366" stroke-miterlimit="10" stroke-width="3" d="m243.68 134.72 2.41 5.25 14.75-9.37"/><path stroke="#36368C" stroke-miterlimit="10" stroke-width="3" d="M265.57 172.72h-27.16v27.15h27.16v-27.15Z"/><path fill="#8686BA" d="M209.07 176.59h-69.62v3.13h69.62v-3.13Z"/><path fill="#D7D7E8" d="M233.13 182.22h-93.68v3.13h93.68v-3.13ZM233.13 187.85h-93.68v3.13h93.68v-3.13ZM233.13 193.49h-93.68v3.13h93.68v-3.13Z"/><path stroke="#25D366" stroke-miterlimit="10" stroke-width="3" d="m243.68 185.97 2.41 5.25 14.75-9.37"/><path stroke="#36368C" stroke-miterlimit="10" stroke-width="3" d="M265.57 227.7h-27.16v27.15h27.16V227.7Z"/><path fill="#8686BA" d="M209.07 231.57h-69.62v3.13h69.62v-3.13Z"/><path fill="#D7D7E8" d="M233.13 237.2h-93.68v3.13h93.68v-3.13ZM233.13 242.83h-93.68v3.13h93.68v-3.13ZM233.13 248.46h-93.68v3.13h93.68v-3.13Z"/><path stroke="#25D366" stroke-miterlimit="10" stroke-width="3" d="m243.68 240.94 2.41 5.26 14.75-9.37"/><path stroke="#36368C" stroke-miterlimit="10" stroke-width="3" d="M265.57 282.67h-27.16v27.15h27.16v-27.15Z"/><path fill="#8686BA" d="M209.07 286.54h-69.62v3.12h69.62v-3.12Z"/><path fill="#D7D7E8" d="M233.13 292.17h-93.68v3.13h93.68v-3.13ZM233.13 297.81h-93.68v3.13h93.68v-3.13ZM233.13 303.44h-93.68v3.13h93.68v-3.13Z"/><path stroke="#25D366" stroke-miterlimit="10" stroke-width="3" d="m243.68 295.92 2.41 5.25 14.75-9.36"/><path fill="#4648C8" d="M154.4 58.81v24.08c0 1.03.83 1.86 1.86 1.86h82.66c1.03 0 1.86-.83 1.86-1.86V58.81h-86.39.01Z"/><path fill="#3532AF" d="M238.93 78.47h-82.66c-1.03 0-1.86-.83-1.86-1.86v6.29c0 1.03.83 1.86 1.86 1.86h82.66c1.03 0 1.86-.83 1.86-1.86v-6.29c0 1.03-.83 1.86-1.86 1.86Z"/><path fill="#7779FB" d="M298.96 384.1c0 3.21-45.38 5.81-101.36 5.81s-101.36-2.6-101.36-5.81c0-3.21 45.38-5.81 101.36-5.81s101.36 2.6 101.36 5.81ZM116.15 403.82c0 3.59-22.53 6.49-50.32 6.49s-50.32-2.91-50.32-6.49 22.53-6.49 50.32-6.49 50.32 2.91 50.32 6.49Z" opacity=".3" style="mix-blend-mode:multiply"/><path fill="#FAC800" d="M105.3 201.61s-6.56 13.32-17.21 19.31c0 0-15.34 1.03-26.45-6.4 0 0-11.05 6.5 6.54 19.27 0 0 11.83 2.36 32.09-1.53 0 0 9.65-13.61 14.4-25.64l-9.37-5.01Z"/><path fill="#D1ECFD" d="M114.67 206.63c-.55 1.4-1.17 2.81-1.83 4.23l-9.83-5.26c1.49-2.36 2.29-3.98 2.29-3.98l9.37 5.01Z"/><path fill="#25D366" d="m152.322 169.886-134.944 36.41 7.562 28.028 134.944-36.411-7.562-28.027Z"/><path fill="#17AA48" d="M156.99 187.11 34.28 220.23l-4.49 1.21-7.74 2.09 2.91 10.79L159.9 197.9l-2.91-10.79Z"/><path fill="#6ECE8E" d="M18.3 236.12c-7.74 2.09-15.71-2.49-17.8-10.23s2.49-15.71 10.23-17.8l11.84-3.19 7.57 28.03-11.84 3.2v-.01Z"/><path fill="#22AF4D" d="M17.95 224.64c-6.91 1.86-13.99-1.59-16.92-7.86a14.48 14.48 0 0 0-.53 9.11c2.09 7.74 10.06 12.32 17.8 10.23l11.84-3.2-2.91-10.79-9.28 2.5v.01Z"/><path fill="#4648C8" d="m27.087 203.666-9.674 2.611 7.562 28.027 9.674-2.61-7.562-28.028Z"/><path fill="#3532AF" d="m29.79 221.44-7.74 2.09 2.91 10.79 9.67-2.61-2.91-10.79-1.93.52Z"/><path fill="#F7A99F" d="m172.52 175.39-20.18-5.52 3.78 14.01 3.78 14.02 14.67-14.93-2.05-7.58Z"/><path fill="#F2889E" d="m173.62 179.46-16.69 7.42 2.97 11.02 14.67-14.93-.95-3.51Z"/><path fill="#25D366" d="m175.17 176.11-3.8-1.04-5.2-1.42.94 3.5 1.89 7.01.94 3.5 3.78-3.84 2.76-2.81c1.93-1.97 1.34-4.18-1.32-4.9h.01Z"/><path fill="#FFC787" d="M140.53 203.12c-3.56.29-3.36-3.43-3.36-3.43-.31-13.4-6.51 4.67-6.51 4.67l4.41 4.55c10.1-.99 11.06-7.31 11.06-7.31l-5.61 1.51.01.01ZM61.57 202.45v4.93l12.58 2.32-1.16-7.25H61.57Z"/><path fill="#CC9F6C" d="m81.85 186.21 4.58 9.56s-1.17.85-2.71 1.54c0 0-4.42-4.9-1.87-11.1Z"/><path fill="#FFC787" d="M73.77 205.93s13.44 5.71 9.09-16.35c0 0-3.58-18.86-21.08-15.96 0 0-16.15 3.97-10.54 21.18 0 0 2.59 7.35 10.34 8.22l12.2 2.9-.01.01Z"/><path fill="#FDF306" d="M45.88 277.55s-8.42 13.09 1.36 27.9l-7.11 88.53h8.3l20.74-95.05-23.29-21.38Z"/><path fill="#FAC800" d="M54.65 306.93c-13.25-6.35-9.5-18.52-9.5-18.52L50.5 285l11.34 7.2 7.32 6.72-8.48 38.84-6.04-30.84.01.01Z"/><path fill="#FDF306" d="m59.37 305.87 10.34 88.11h8.64l1.25-107.44-33.72-8.99s-6.74 21.58 13.49 28.32Z"/><path fill="#FAC800" d="M79.6 286.54v4.26c-6.11 1.92-17.53 2.99-36.94-3.14.65-6.09 3.22-10.1 3.22-10.1l33.72 8.99v-.01Z"/><path fill="#FDF306" d="M84.37 290.02s-13.33 5.18-45.77-6.66c0 0 11.53-31.07 20.54-75.08l14.1 1.42s12.56 11.37 11.18 30.24c0 0-2.94 33.43-.05 50.07v.01Z"/><path fill="#FAC800" d="M42.88 271.07c1.15-3.48 2.48-7.65 3.91-12.4l11.75-1.35s-2.77 13.55-15.66 13.75ZM84.26 232.6l-15.35-9.51-7.26.89s4.23 12.1 22.64 17.63c.08-1.06.14-1.66.14-1.66.19-2.6.11-5.05-.16-7.35h-.01Z"/><path fill="#FFC787" d="m69.71 393.98 1.74 11.32h27.24v-1.91l-20.34-6.3v-3.11h-8.64Z"/><path fill="#1B0F5B" d="M90.13 400.77c-.99 3.78-13.99.13-13.99.13-2.99-2.19-4.05-2.8-5.86-3.2l1.17 7.6h27.23v-1.92l-8.56-2.62.01.01Z"/><path fill="#FFC787" d="M40.13 393.98 38.6 405.3h27.23v-1.91l-18.03-5.78.63-3.63h-8.3Z"/><path fill="#1B0F5B" d="M44.84 401.22s11.2 3.63 12.65-.5l8.33 2.67v1.92H38.59l.94-6.98c1.52.56 3.33 1.45 5.3 2.89h.01Z"/><path fill="#FDF306" d="m130.29 202.38 6.88 9.4s-12.27 14.93-34.93 23.74c0 0-27.2 3.5-39.21-8.68 0 0-4-4.33-2.45-9.91 0 0 3.29-5.92 16.75-1.22l21.4 4.67s16.87-2.32 31.56-18.01v.01Z"/><path fill="#F2F2F2" d="M126.45 206.14c1.29-1.16 2.57-2.41 3.84-3.76l6.88 9.4s-1.18 1.43-3.47 3.67l-7.25-9.31ZM59.38 209.68l18.46 3.18-2.66-5.19-15.36-2.92-.44 4.93Z"/><path fill="#FAC800" d="M80.33 269.1s-7.26-.39-11.8-1.56c0 0-3.96 14.41 5.19 14.91 0 0 6.19.78 6.62-13.35h-.01Z"/><path fill="#1B0F5B" d="M34.41 221.29c3.98-6.93-1.11-14.26 4.13-20.02 2.16-2.38 5.61-3.1 7.04-6.19 1.56-3.37.22-7.58 1.82-11.21 2.51-5.68 9.03-9.34 14.96-10.52 3.12-.62 6.47-.65 9.49.44 3.65 1.32 5.74 3.47 7.65 6.55-3.39 1.04-4.89 2.61-5.88 5.99-.51 1.75 1.3 3.83.52 5.35-1.02 2-3.26 1.17-4.41 2.52-2.91 3.44-1.97 4.98-1.48 9.15.62 5.25-.4 5.04-2.52 9.08-3.97 7.55 2.91 12.03-.23 19.19-1.64 3.73-4.5 4.97-5.47 9.11-.9 3.87.33 7.59-.01 11.64-1.3 15.47-28.3 16.96-36.56 6.3-11.74-15.15 4.4-26.01 10.94-37.38h.01Z"/><path fill="#FFC787" d="M66.97 190.13c1.16-1.18 4.44-1.39 5 1.32l.87 3.73c.97 2.43-1.26 4.01-3.26 3.28-1.19-.43-2.52-2.26-3-3.35-.72-1.64-.95-3.61.39-4.98Z"/><path fill="#17AA48" d="m169.01 184.16.94 3.5 3.78-3.84 2.76-2.81c1.09-1.11 1.38-2.29.94-3.24l-9.07 4.03c.23.87.46 1.69.64 2.37l.01-.01Z"/><path fill="#7779FB" d="M417.71 407.99c0 3.58-27.71 6.49-61.9 6.49s-61.89-2.91-61.89-6.49 27.71-6.49 61.89-6.49 61.9 2.91 61.9 6.49Z" opacity=".3" style="mix-blend-mode:multiply"/><path fill="#3532AF" d="M369.8 143.7s23.88 15.67 1.78 41.92c0 0-14.12-14.81-1.78-41.92Z"/><path fill="#CC9F6C" d="m346.64 111.78-4.93 8.57 4.93 1.38s2.5-5.97 0-9.95Z"/><path fill="#F9F6F5" d="M368.46 135.92s3.11 4.03 3.2 9l-21.6-4.5 3.46-4.5h14.94Z"/><path fill="#3532AF" d="m365.46 202.8-4.2 59.06 17.85 56.17h-15.23l-19.42-56.44V202.8h21Z"/><path fill="#4648C8" d="m332.45 196.76-12.86 60.9 10.99 60.37h15.26l-6.55-59.13 16.52-56.1-23.36-6.04Z"/><path fill="#3532AF" d="m329.32 211.61 3.14-14.85 23.36 6.04h9.64l-1.75 24.62c-20.51.03-30.91-9.5-34.39-15.81Z"/><path fill="#4648C8" d="M343.34 149.65s-9.88 49.63-15.4 57.82c0 0 10.41 17.42 41.65 14.28 0 0 2.62-39.66 8.4-57.92 0 0 10.22-25.15-31.24-26.11l-3.41 11.94v-.01Z"/><path fill="#3532AF" d="m343.34 149.65.72-2.54 13.48 4.24s-1.37 7.91-9.17 9.47l-6.66-3.32c1.01-4.77 1.62-7.86 1.62-7.86l.01.01Z"/><path fill="#1B0F5B" d="M330.58 318.03h15.26l1.25 8.31h-31.51v-2.55l15-5.76ZM363.8 318.03h15.26l1.25 8.31H348.8v-2.55l15-5.76Z"/><path fill="#3532AF" d="M361.78 223.4v-11.31l-5.11 11.31h5.11Z"/><path fill="#FFC787" d="M356.79 133.72s-12.69 7.74-11.58-15.11c0 0 .8-19.52 18.86-19.2 0 0 16.85 1.59 13.76 19.76 0 0-1.51 7.78-9.19 9.81l-11.85 4.73v.01Z"/><path fill="#FFC787" d="M372.44 127.26s-5.15 3.94-6.06 8.66h-12.85v-6.8s12.79-8.63 18.91-1.86Z"/><path fill="#1B0F5B" d="M368.04 132.04c1.73-2.47 3.62-3.12 3.62-3.12 5.42-2.76 7.44-9.13 7.44-9.13 3.51-15.21-6.67-21.99-6.67-21.99-7.07-5.87-12.9-1.51-12.9-1.51-5.57-2.17-7.38 2.17-7.38 2.17-9.19-1.01-7.01 6.22-7.01 6.22.36.31 2.38 3.84 12.39 2.71 0 0-3.35 5.75.72 8.75l-1.01 6.2 2.33.75s.36-7.82 4.07-5.89c0 0 3.48 1.14 0 7.47 0 0-1.79 3.57-1.97 6.33l6.37 1.04Z"/><path fill="#3532AF" d="M349.26 198.56s-6.97-2.1-11.1-4.31c0 0-7.26 13.06 1.51 15.71 0 0 5.83 2.23 9.59-11.41v.01Z"/><path fill="#FFC787" d="M289.93 123.52s-37.93-19.43-13.9-1.07c0 0-7.57 12.67 15.35 10.26l-1.45-9.18v-.01Z"/><path fill="#4648C8" d="m288.97 122.59 37.02 10.71 29.08 7.85c8.21 9.54-2.62 16.12-2.62 16.12l-63.7-23.67.22-11.01Z"/><path fill="#F9F6F5" d="m293.13 135.23-4.38-1.62.22-11.02 5.33 1.54-1.17 11.1Z"/><path fill="#4142B7" d="m311.473 328.22-3.532.793 17.217 76.711 3.532-.793-17.217-76.711Z"/><path fill="#4142B7" d="m404.55 404.92-17.22-76.72-3.53.8 4.8 21.37h-74.31v3.62h75.12l5.82 25.94h-73.28v3.62h74.09l4.98 22.16 3.53-.79Z"/><path fill="#CCCCFD" d="M387.83 405.32h-4.53v-74.46h-71.33v74.46h-4.52v-78.98h80.38v78.98Z"/><path fill="#CCCCFD" d="M385.56 357.21h-75.85v4.53h75.85v-4.53ZM385.56 388.09h-75.85v4.52h75.85v-4.52Z"/><path fill="#1B0F5B" d="M312.69 401.19h-5.95v5.26h5.95v-5.26ZM329.18 401.19h-5.95v5.26h5.95v-5.26ZM388.54 401.19h-5.95v5.26h5.95v-5.26ZM405.02 401.19h-5.95v5.26h5.95v-5.26Z"/></svg>