<svg xmlns="http://www.w3.org/2000/svg" width="512" height="512" viewBox="0 0 50 60"><path d="M4 53h12.19c.26-.001.51.102.693.287l6 5.825a2.973 2.973 0 0 0 4.229.014l6.02-5.849A.96.96 0 0 1 33.81 53H46a4 4 0 0 0 4-4V22a4 4 0 0 0-4-4h-5V4a4 4 0 1 0-8 0v1.333L21.8 10H16a8.009 8.009 0 0 0-8 8H4a4 4 0 0 0-4 4v27a4 4 0 0 0 4 4zM35 4a2 2 0 1 1 4 0v28a2 2 0 1 1-4 0zm-2 24.5-10-4.167V11.667L33 7.5zM17 26h4v6a2 2 0 1 1-4 0zm-1-14h5v12h-5a6 6 0 1 1 0-12zM2 22a2 2 0 0 1 2-2h4.263A8.012 8.012 0 0 0 15 25.931V32a4 4 0 1 0 8 0v-5.5l10 4.167V32a4 4 0 1 0 8 0V20h5a2 2 0 0 1 2 2v27a2 2 0 0 1-2 2H33.81a2.935 2.935 0 0 0-2.087.854L25.7 57.7a.988.988 0 0 1-1.411-.014l-6-5.829A2.946 2.946 0 0 0 16.19 51H4a2 2 0 0 1-2-2z" fill="#3c3eae"/><path d="M12 40h31a1 1 0 0 0 0-2H12a1 1 0 0 0 0 2zM7 40h1a1 1 0 0 0 0-2H7a1 1 0 0 0 0 2zM43 42h-1a1 1 0 0 0 0 2h1a1 1 0 0 0 0-2zM7 44h31a1 1 0 0 0 0-2H7a1 1 0 0 0 0 2zM7 48h13a1 1 0 0 0 0-2H7a1 1 0 0 0 0 2z" fill="#3c3eae"/></svg>