<svg xmlns="http://www.w3.org/2000/svg" viewBox="0 0 512 512"><linearGradient id="a" x1="5.3" x2="506.8" y1="258.1" y2="258.1" gradientTransform="matrix(1 0 0 -1 0 514)" gradientUnits="userSpaceOnUse"><stop offset="0" stop-color="#0064e0"/><stop offset=".062" stop-color="#006ae5"/><stop offset=".218" stop-color="#007af4"/><stop offset=".811" stop-color="#007df6"/><stop offset="1" stop-color="#0080f9"/></linearGradient><linearGradient id="b" x1="49.786" x2="230.719" y1="320.675" y2="133.579" gradientTransform="matrix(1 0 0 -1 0 514)" gradientUnits="userSpaceOnUse"><stop offset="0" stop-color="#0064e0"/><stop offset=".013" stop-color="#0065e1"/><stop offset=".289" stop-color="#0075f0"/><stop offset=".597" stop-color="#007ff9"/><stop offset="1" stop-color="#0082fc"/></linearGradient><linearGradient id="c" x1="110.25" x2="416.1" y1="451.784" y2="121.254" gradientTransform="matrix(1 0 0 -1 0 514)" gradientUnits="userSpaceOnUse"><stop offset="0" stop-color="#0082fb"/><stop offset=".022" stop-color="#017cf5"/><stop offset=".09" stop-color="#0471ea"/><stop offset=".187" stop-color="#066ae3"/><stop offset=".456" stop-color="#0668e1"/><stop offset=".746" stop-color="#056ae3"/><stop offset=".885" stop-color="#0472eb"/><stop offset=".974" stop-color="#017cf5"/><stop offset="1" stop-color="#0082fb"/></linearGradient><linearGradient id="d" x1="49" x2="262.7" y1="365.75" y2="365.75" gradientTransform="matrix(1 0 0 -1 0 514)" gradientUnits="userSpaceOnUse"><stop offset="0" stop-color="#0064e0"/><stop offset=".422" stop-color="#0069e4"/><stop offset=".433" stop-color="#0069e4"/><stop offset="1" stop-color="#0668e1"/></linearGradient><linearGradient id="e" x1="324.016" x2="506.8" y1="149.85" y2="149.85" gradientTransform="matrix(1 0 0 -1 0 514)" gradientUnits="userSpaceOnUse"><stop offset="0" stop-color="#066be3"/><stop offset=".309" stop-color="#0470e9"/><stop offset=".559" stop-color="#0279f2"/><stop offset="1" stop-color="#0080f9"/></linearGradient><path fill="url(#a)" d="M149.4 89.4C67.8 89.4 5.3 195.6 5.3 307.9c0 70.3 34 114.7 91 114.7 41 0 70.5-19.3 123-111 0 0 21.9-38.6 36.9-65.2l31.2-52.8c26.5-40.9 48.4-61.3 74.4-61.3 54 0 97.2 79.5 97.2 177.2 0 37.2-12.2 58.8-37.5 58.8-24.2 0-35.8-16-81.8-90l-42.3 36.9c47.9 80.2 74.6 107.4 123 107.4 55.5 0 86.4-45.1 86.4-116.9 0-117.7-63.9-216.5-141.6-216.5-41.1 0-73.3 31-102.4 70.3l-32.3 47.4c-31.9 49-51.3 79.7-51.3 79.7-42.5 66.7-57.2 81.6-80.9 81.6-24.4 0-38.8-21.4-38.8-59.5 0-81.6 40.7-165 89.2-165z"/><path fill="url(#b)" d="m265.5 196.4-35 10.8c-31.9 49-51.3 79.7-51.3 79.7-42.5 66.7-57.2 81.6-80.9 81.6-24.4 0-38.8-21.4-38.8-59.5 0-81.6 40.7-165 89.2-165l.7-54.5C67.8 89.4 5.3 195.6 5.3 307.9c0 70.3 34 114.7 91 114.7 41 0 70.5-19.3 123-111 0 0 21.9-38.6 36.9-65.2z"/><path fill="url(#c)" d="M297.4 315.3c47.9 80.2 74.6 107.3 123 107.3l1.1-54.3c-24.2 0-35.8-15.9-81.8-89.9-38.6-62.8-58.3-94.2-76.9-118.7-40-50.9-73.4-70.3-113.4-70.3l-.7 54.5c26.3 0 48.2 15.2 81.8 63.3 14.1 19.8 43 66.9 66.9 108.1z"/><path fill="url(#d)" d="M262.7 159.7c-40-50.9-73.4-70.3-113.5-70.3-39.5 0-74.5 24.9-100.2 63.3l38.6 39.5c16.1-29.1 37.8-48.2 61.1-48.2 26.3 0 48 15 81.6 63.1z"/><path fill="url(#e)" d="M324 357.3c32.9 47.9 57.7 65.3 96.4 65.3 55.5 0 86.4-45.1 86.4-116.9l-47.8 3.8c0 37.2-12.2 58.8-37.5 58.8-19.5 0-30.9-10.4-58.8-53.4z"/></svg>