<svg xmlns="http://www.w3.org/2000/svg" width="512" height="512" viewBox="0 0 58 60"><g fill="#3c3eae" fill-rule="nonzero"><path d="M4 60h28a4 4 0 0 0 4-4v-8.09A6.008 6.008 0 0 0 40.91 43H48a1 1 0 0 0 1-1v-3a4 4 0 0 0-3-3.858V24a11.01 11.01 0 0 0-7.352-10.365A3.979 3.979 0 0 0 36 8.142V4a4 4 0 0 0-4-4H4a4 4 0 0 0-4 4v52a4 4 0 0 0 4 4zm28-2H4a2 2 0 0 1-2-2v-1.556c.605.36 1.296.552 2 .556h28a3.959 3.959 0 0 0 2-.556V56a2 2 0 0 1-2 2zm3-12a4 4 0 0 1-3.858-3h7.716A4 4 0 0 1 35 46zm12-7v2H23v-2a2 2 0 0 1 2-2h20a2 2 0 0 1 2 2zm-3-15v11H26V24a9 9 0 0 1 18 0zm-7-12c0 .406-.124.803-.357 1.136a9.992 9.992 0 0 0-3.286 0A1.978 1.978 0 0 1 33 12a2 2 0 1 1 4 0zM25.691 2l-1.283 1.368A2 2 0 0 1 22.95 4h-9.9c-.553 0-1.08-.23-1.459-.632L10.309 2zM2 4a2 2 0 0 1 2-2h3.567l2.565 2.736A4.017 4.017 0 0 0 13.05 6h9.9a4.011 4.011 0 0 0 2.918-1.264L28.433 2H32a2 2 0 0 1 2 2v4.142a3.979 3.979 0 0 0-2.648 5.493A11.01 11.01 0 0 0 24 24v11.142A4 4 0 0 0 21 39v3a1 1 0 0 0 1 1h7.09A6.008 6.008 0 0 0 34 47.91V51a2 2 0 0 1-2 2H4a2 2 0 0 1-2-2z"/><path d="M8 33a1 1 0 0 0 1-1c.007-6.624 5.376-11.993 12-12a1 1 0 0 0 0-2c-7.729.008-13.992 6.271-14 14a1 1 0 0 0 1 1z"/><path d="M21 22c-5.52.006-9.994 4.48-10 10a1 1 0 0 0 2 0 8.009 8.009 0 0 1 8-8 1 1 0 0 0 0-2z"/><path d="M21 26a6.006 6.006 0 0 0-6 6 1 1 0 0 0 2 0 4 4 0 0 1 4-4 1 1 0 0 0 0-2zM44 58a1 1 0 0 0 0 2c7.729-.008 13.992-6.271 14-14a1 1 0 0 0-2 0c-.007 6.624-5.376 11.993-12 12z"/><path d="M44 54a1 1 0 0 0 0 2c5.52-.006 9.994-4.48 10-10a1 1 0 0 0-2 0 8.009 8.009 0 0 1-8 8z"/><path d="M48 46a4 4 0 0 1-4 4 1 1 0 0 0 0 2 6.006 6.006 0 0 0 6-6 1 1 0 0 0-2 0z"/></g></svg>