<svg xmlns="http://www.w3.org/2000/svg" xml:space="preserve" width="682.667" height="682.667"><defs><clipPath id="a" clipPathUnits="userSpaceOnUse"><path d="M0 512h512V0H0Z"/></clipPath></defs><g clip-path="url(#a)" transform="matrix(1.33333 0 0 -1.33333 0 682.667)"><path d="M0 0c-29.904 17.518-44.644 33.278-73.669 24.973C-119.56 7.739-138.551-2.522-182.939.595v17.518c0 50.314 41.157 91.472 91.469 91.472C-41.157 109.585 0 68.427 0 18.113Z" style="fill:none;stroke:#3c3eae;stroke-width:20.148;stroke-linecap:round;stroke-linejoin:round;stroke-miterlimit:10;stroke-dasharray:none;stroke-opacity:1" transform="translate(347.47 351.341)"/><path d="M0 0v17.036C0 89.12 58.815 147.937 130.869 147.937c72.082 0 130.898-58.817 130.898-130.901V-.567" style="fill:none;stroke:#3c3eae;stroke-width:20.148;stroke-linecap:round;stroke-linejoin:round;stroke-miterlimit:10;stroke-dasharray:none;stroke-opacity:1" transform="translate(125.13 354.063)"/><path d="M0 0v-38.692c0-50.314 41.157-91.472 91.47-91.472 50.312 0 91.469 41.158 91.469 91.472V0" style="fill:none;stroke:#3c3eae;stroke-width:20.148;stroke-linecap:round;stroke-linejoin:round;stroke-miterlimit:10;stroke-dasharray:none;stroke-opacity:1" transform="translate(164.53 351.937)"/><path d="M0 0h-29.648v78.064c1.19 72.85 90.194 86.144 141.584 103.123v41.81m87.472 0v-41.81c51.39-16.979 140.394-30.273 141.584-103.123V0H89.798" style="fill:none;stroke:#3c3eae;stroke-width:20.148;stroke-linecap:round;stroke-linejoin:round;stroke-miterlimit:10;stroke-dasharray:none;stroke-opacity:1" transform="translate(100.328 10)"/><path d="m0 0-97.705-65.904-27.978 54.509" style="fill:none;stroke:#3c3eae;stroke-width:20.148;stroke-linecap:round;stroke-linejoin:round;stroke-miterlimit:10;stroke-dasharray:none;stroke-opacity:1" transform="translate(299.736 191.187)"/><path d="M0 0h-16.129c-14.427 0-26.219-11.792-26.219-26.22v-10.573c0-14.428 11.792-26.249 26.219-26.249H.652" style="fill:none;stroke:#3c3eae;stroke-width:20.148;stroke-linecap:round;stroke-linejoin:round;stroke-miterlimit:10;stroke-dasharray:none;stroke-opacity:1" transform="translate(164.53 365.543)"/><path d="M0 0h16.129c14.427 0 26.219-11.792 26.219-26.22v-10.573c0-14.428-11.792-26.249-26.219-26.249H-.624" style="fill:none;stroke:#3c3eae;stroke-width:20.148;stroke-linecap:round;stroke-linejoin:round;stroke-miterlimit:10;stroke-dasharray:none;stroke-opacity:1" transform="translate(347.47 365.543)"/><path d="M0 0h112.813c9.95 0 18.084 8.135 18.084 18.084v36.227" style="fill:none;stroke:#3c3eae;stroke-width:20.148;stroke-linecap:round;stroke-linejoin:round;stroke-miterlimit:10;stroke-dasharray:none;stroke-opacity:1" transform="translate(256 262.42)"/><path d="m0 0 13.492 50.711m-63.096 0L-36.111 0" style="fill:none;stroke:#3c3eae;stroke-width:20.148;stroke-linecap:round;stroke-linejoin:round;stroke-miterlimit:10;stroke-dasharray:none;stroke-opacity:1" transform="translate(274.056 89.68)"/><path d="m0 0 18.17 79.68h36.111L72.479 0" style="fill:none;stroke:#3c3eae;stroke-width:20.148;stroke-linecap:round;stroke-linejoin:round;stroke-miterlimit:10;stroke-dasharray:none;stroke-opacity:1" transform="translate(219.774 10)"/><path d="m0 0 97.733-65.904 27.95 54.509" style="fill:none;stroke:#3c3eae;stroke-width:20.148;stroke-linecap:round;stroke-linejoin:round;stroke-miterlimit:10;stroke-dasharray:none;stroke-opacity:1" transform="translate(212.264 191.187)"/><path d="M0 0h50.397" style="fill:none;stroke:#3c3eae;stroke-width:20.148;stroke-linecap:round;stroke-linejoin:round;stroke-miterlimit:10;stroke-dasharray:none;stroke-opacity:1" transform="translate(341.433 60.002)"/><path d="M0 0h-.028" style="fill:none;stroke:#3c3eae;stroke-width:20.148;stroke-linecap:round;stroke-linejoin:round;stroke-miterlimit:10;stroke-dasharray:none;stroke-opacity:1" transform="translate(145.256 10)" /></g></svg>