<svg xmlns="http://www.w3.org/2000/svg" width="60" height="60" fill="none"><g fill="#3c3eae" fill-rule="evenodd" clip-rule="evenodd"><path d="m4.555 6.673 1.742-.982 5.984 10.625c.359.432.893.683 1.46.684.223 0 .44-.037.644-.109l3.35-1.617.869 1.802-3.434 1.657-.042.016a3.922 3.922 0 0 1-1.387.251h-.001a3.9 3.9 0 0 1-3.082-1.51l-.044-.059z"/><path d="M4.08 6.44a2 2 0 0 1 2.46-1.366l.017.005 13.41 4.258-.606 1.906L6 7 2 21l.016.005 13.908 4.405-.604 1.906-13.879-4.395a2 2 0 0 1-1.36-2.484zM29.94 29.458l12.192 9.262c.242.184.545.279.868.28a1.43 1.43 0 0 0 .868-.28l12.192-9.262 1.21 1.592-12.192 9.262a3.43 3.43 0 0 1-2.076.688h-.004a3.428 3.428 0 0 1-2.076-.688L28.73 31.05z"/><path d="M28 31a2 2 0 0 1 2-2h26a2 2 0 0 1 2 2v18a2 2 0 0 1-2 2H34.002v-2H56V31H30v12h-2zM16.193 51.186l18.277 3.78-.406 1.96-18.277-3.782z"/><path d="m2.76 39.93 31.612 6.54L32.6 47.8A4 4 0 0 0 35 55c1.626 0 3.424-1.293 3.869-2.978v-.004l.572-2.263 1.94.49-.577 2.28C40.121 55.13 37.498 57 35 57a6 6 0 0 1-4.956-9.383L3.27 42.077a4 4 0 0 0 2.139 6.88l.028.004 12.466 2.579-.406 1.958-12.41-2.567A6 6 0 0 1 2.398 40.2zM48.359 14.474a6.003 6.003 0 0 1 6.077-4.468l-.076 1.998a4.003 4.003 0 0 0-4.065 2.973l-3.86 15.268-1.938-.49z"/><path d="M19.09 8.474A5.981 5.981 0 0 1 24.894 4c.142 0 .37.018.518.03l.217.019.068.006.025.003-.095.995.095-.995.055.005 29.031 6.006C57.658 10.506 60 12.967 60 16a5.992 5.992 0 0 1-2.4 4.8l-.358.27-5.294-1.072.396-1.96 4.384.887A3.987 3.987 0 0 0 58 16c0-1.978-1.556-3.667-3.514-3.957l-.029-.004L25.48 6.043l-.032-.002a23.34 23.34 0 0 0-.513-.04h-.029L24.897 6h-.003m0 0a3.981 3.981 0 0 0-3.87 2.982l-8.555 34.02-1.94-.488 8.56-34.04"/><path d="m23.709 11.676 21.494 4.447-.406 1.958-21.494-4.447zM22.209 16.676l16.164 3.345-.406 1.958-16.164-3.345zM40.559 20.473l2.649.548-.406 1.958-2.649-.548zM20.709 21.676l14.493 2.999-.406 1.958-14.493-2.999zM19.209 26.676l7 1.448-.406 1.958-7-1.448zM54 55h-9v-2h9zM58 55h-2v-2h2z"/></g></svg>