<svg xmlns="http://www.w3.org/2000/svg" viewBox="0 0 512 512"><path d="M212.165 67.717h60.795c10.467 0 18.983-8.516 18.983-18.983s-8.516-18.983-18.983-18.983h-60.795c-10.467 0-18.982 8.516-18.982 18.983s8.515 18.983 18.982 18.983zm0-23.989h60.795c2.714 0 5.008 2.292 5.008 5.007s-2.293 5.007-5.008 5.007h-60.795c-2.714 0-5.007-2.292-5.007-5.007s2.293-5.007 5.007-5.007zm55.983 227.189c2.308-2.634 3.631-6.412 3.631-10.362 0-5.49-3.046-14.781-14.463-14.781h-29.478c-18.684 0-28.46-14.474-28.46-28.771 0-7.402 2.522-14.356 7.1-19.581 3.673-4.193 10.361-9.191 21.36-9.191h7.752v-17.484a6.988 6.988 0 1 1 13.974 0v17.484h29.223c3.859 0 6.987 3.128 6.987 6.988s-3.129 6.988-6.987 6.988h-50.95c-11.434 0-14.484 9.3-14.484 14.796 0 5.495 3.051 14.795 14.484 14.795h29.478c18.67 0 28.438 14.467 28.438 28.757 0 7.397-2.519 14.347-7.094 19.57-3.671 4.191-10.353 9.187-21.344 9.187h-7.752v17.511c0 3.859-3.129 6.988-6.987 6.988s-6.987-3.129-6.987-6.988v-17.511h-29.224a6.988 6.988 0 0 1 0-13.976h50.95c4.619 0 8.264-1.486 10.833-4.419zM490.903 475.22l-52.45-90.897-51.541-89.274v-66.985h11.599v25.376a6.986 6.986 0 0 0 6.986 6.988 6.988 6.988 0 0 0 5.144-2.256l52.506-57.061a6.988 6.988 0 0 0 .001-9.462l-52.506-57.089a6.988 6.988 0 0 0-12.13 4.729v25.375h-11.599V39.681C386.913 18.077 369.336.5 347.732.5H137.423c-21.605 0-39.181 17.577-39.181 39.181v209.826H86.643v-25.376a6.986 6.986 0 0 0-12.129-4.731l-52.506 57.061a6.989 6.989 0 0 0 0 9.464l52.506 57.061a6.986 6.986 0 0 0 7.682 1.777 6.987 6.987 0 0 0 4.448-6.509v-25.376h11.599V472.32c0 21.604 17.577 39.181 39.181 39.181H347.73c16.564 0 31.219-10.56 36.796-25.8h100.325a6.988 6.988 0 0 0 6.052-10.481zm-85.405-296.578a6.988 6.988 0 0 0 6.987-6.988V157.21l36.024 39.169-36.024 39.148v-14.451a6.988 6.988 0 0 0-6.987-6.988h-50.11a114.784 114.784 0 0 0-14.268-35.447h64.378zm-264.425 60.144c0-55.97 45.534-101.504 101.504-101.504s101.504 45.534 101.504 101.504S298.546 340.29 242.577 340.29s-101.504-45.534-101.504-101.504zM112.217 39.681c0-13.899 11.307-25.205 25.206-25.205H347.73c13.899 0 25.206 11.306 25.206 25.205v124.984h-41.882c-21.2-25.266-52.993-41.36-88.478-41.36-63.675 0-115.479 51.805-115.479 115.48 0 3.615.175 7.19.502 10.722h-15.383V39.681zm-32.561 259.22a6.988 6.988 0 0 0-6.987 6.988v14.451l-36.023-39.147 36.023-39.147v14.451a6.988 6.988 0 0 0 6.987 6.988h50.11a114.78 114.78 0 0 0 14.249 35.417H79.656zm74.418 13.976c21.2 25.283 53.004 41.389 88.503 41.389 63.675 0 115.479-51.805 115.479-115.48 0-3.615-.175-7.19-.502-10.722h15.383v66.985L286.99 443.916H112.217V312.877zM347.73 497.524H137.423c-13.899 0-25.206-11.306-25.206-25.205v-14.427h166.704l-10.003 17.327a6.99 6.99 0 0 0 6.051 10.482h94.07c-4.526 7.163-12.495 11.823-21.309 11.823zm31.567-25.8h-92.226l9.853-17.066c.115-.18.223-.365.321-.557l82.678-143.205 46.425 80.412 46.402 80.415h-93.453zm7.614-106.709v46.736c0 3.859-3.129 6.988-6.987 6.988s-6.987-3.129-6.987-6.988v-46.736a6.988 6.988 0 1 1 13.974 0zm0 74.77v.028c0 3.859-3.129 6.988-6.987 6.988s-6.987-3.129-6.987-6.988 3.129-7.002 6.987-7.002 6.987 3.115 6.987 6.974z" fill="#3c3eae"/></svg>