<svg xmlns="http://www.w3.org/2000/svg" width="45" height="45" fill-rule="evenodd"><path fill="#ff9496" d="M35.261.787H9.627A8.839 8.839 0 0 0 .788 9.626v25.635A8.84 8.84 0 0 0 9.627 44.1h25.634a8.839 8.839 0 0 0 8.839-8.839V9.626A8.839 8.839 0 0 0 35.261.787z"/><path fill="#fff" d="M41.409 25.095c.208-.739.39-4.767 0-5.392-.442-.655-2.671-.943-3.595-1.048-.439-1.779-1.137-3.148-1.871-4.568l2.021-3.22c-.145-.903-3.025-3.638-3.819-4.043-1.345.224-2.349 1.429-3.444 2.021-1.369-.758-2.809-1.496-4.568-1.872a21.069 21.069 0 0 0-.898-3.595c-1.387-.376-3.591-.166-5.241-.149-.749.674-1.053 2.535-1.198 3.744-1.775.438-3.15 1.139-4.568 1.872l-3.22-2.021c-1.115.181-3.336 2.886-4.044 3.743.164 1.395 1.426 2.422 2.021 3.52-.74 1.353-1.118 2.917-1.872 4.418-.59.624-2.916.771-3.744 1.049-.209.739-.39 4.767 0 5.392.442.653 2.801.977 3.744 1.048l.824 2.546 1.048 2.097-2.021 3.07c.102.95 3.017 3.709 3.819 4.118 1.379-.232 2.178-1.461 3.37-1.947.184-.097 3.526 1.481 4.567 1.647l.974 3.895c.739.208 4.767.39 5.391 0 .655-.443 1.008-2.851 1.048-3.819 1.642-.635 3.119-1.076 4.494-1.872l3.294 2.097c.903-.144 3.638-3.025 4.044-3.818-.186-1.152-1.332-2.583-2.021-3.37.363-1.494 1.295-3.035 1.871-4.643 1.232-.199 2.532-.521 3.594-.9zm-5.616 2.396-1.498 2.771c-.192.722 1.596 2.986 1.947 3.519l-2.321 2.321-3.294-2.021c-1.73.76-3.273 1.855-5.467 2.172-.598.847-.891 2.623-1.049 3.818h-3.294l-.749-3.519c-.803-.561-2.012-.646-2.995-1.049l-2.771-1.423-3.145 1.872c-.435.207-2.109-1.66-2.471-2.172l1.947-2.995c-.121-1.695-1.839-3.537-2.171-5.766-.834-.599-2.546-.89-3.744-1.048v-3.295l3.444-.749c.546-.825.646-2.098 1.048-3.07l1.423-2.62c-.163-1.357-1.333-2.09-1.797-3.22-.207-.436 1.66-2.11 2.172-2.472l3.07 1.947c.968-.127 1.476-.784 2.247-1.123l3.52-1.124c.557-.839.761-2.396.973-3.519h3.294l.749 3.294c.825.546 2.098.646 3.07 1.049l2.62 1.423c1.357-.163 2.09-1.334 3.221-1.797.435-.207 2.109 1.659 2.471 2.171l-1.947 3.07c.127.968.784 1.476 1.123 2.246l1.124 3.52c.886.582 2.327.507 3.37.974.416.456.174 2.509.148 3.295l-3.145.749c-.776.387-.793 1.939-1.123 2.771zm-12.73-15.276v-.523a.68.68 0 0 0-.449-.449l-.375-.075-.524.374-.075.6.599.523c.501-.038.608-.152.824-.45zm2.022-.599-.374.449c-.117.256-.059.484.074.674.43.66 1.941.86 2.621 1.273 1.374.833 2.625 2.131 3.445 3.519 3.773 6.391-1.59 15.786-9.211 14.603-6.677-1.038-11.835-8.016-7.488-14.977.763-1.222 1.986-2.395 3.22-3.145.837-.509 2.275-.643 2.771-1.498v-.449l-.449-.374-.599-.075-2.396 1.048c-2.457 1.475-4.395 3.892-5.242 6.964-1.982 7.193 4.565 15.104 11.682 14.003 5.191-.803 8.611-3.426 10.033-7.938 1.958-6.207-2.799-13.968-8.087-14.077zm-5.241 9.81c-2.01 1.663-3.512 2.616-3.445 6.439l.449.449 8.462.075c1.141 0 2.48.192 2.994-.449.598-3.091-1.345-5.674-3.369-6.44l1.049-1.647c1.014-2.938-1.443-5.014-4.119-4.941-2.966 1.369-4.437 3.396-2.021 6.514zm7.039 5.466h-8.986c.061-5.893 8.933-5.886 8.986 0zm-6.441-9.435c.355-.569.936-.746 1.573-1.049 3.147-.115 3.344 3.935.749 4.493-1.94.418-3.282-1.906-2.322-3.444z"/></svg>