<svg xmlns="http://www.w3.org/2000/svg" width="45" height="45" fill-rule="evenodd"><path fill="#86d1b2" d="M35.261.787H9.627A8.839 8.839 0 0 0 .788 9.626v25.635A8.84 8.84 0 0 0 9.627 44.1h25.634a8.839 8.839 0 0 0 8.839-8.839V9.626A8.839 8.839 0 0 0 35.261.787z"/><path fill="#fff" d="M36.308 31.925c-.399-2.1-1.843-3.618-3.739-4.224l-2.354-.692-4.294-2.84v-.623c.742-.805 1.544-1.465 2.009-2.562l.415-1.731c.383-.424.93-.281 1.108-.97v-4.64c.417-1.034.504-1.326.485-2.978.965-.204 2.84-.19 3.531-.762.389-.197.593-.702.415-1.246-.44-1.05-5.13-2.057-6.509-2.493l-4.778-1.593c-.995-.214-6.121 1.856-7.271 2.216-1.032.323-4.193.956-4.57 1.731-.006.014.342 3.311.346 4.225-.551.052-.647.237-.969.484-.334 1.316-.904 6.112-.624 6.994.815.554 2.926.553 4.017.207l.416-.623-.693-4.362v-1.87c-.09-.351-.395-.543-.623-.762l-.485-.068V10.25l2.424.415c.384.451-.015 1.599.139 2.285.075.336.396.469.484.692.805 2.021-1.244 4.919 1.108 5.609.366 1.844 1.042 3.416 2.424 4.224v.624l-4.501 3.047-2.562.692c-1.962.809-4.218 3.351-3.324 6.647.135.273.207.292.485.415l.485-.276v-1.662c.043-1.338.489-2.281 1.108-3.047 3.265-4.045 8.731 1.387 11.772 2.908 1.325-.17 5.594-3.064 6.924-3.878l1.108-.762 1.247.347c3.299.998 3.877 2.527 3.877 6.855 0 1.488.05 2.656-.554 3.462-.761.19-1.937.153-2.909.139.018-.723.16-2.018-.138-2.493-.098-.146-.157-.165-.276-.276l-.416.069c-.328.551-.231 1.823-.208 2.7H13.802v-2.493c-.272-.197-.425-.354-.762-.139-.46.349-.31 1.836-.277 2.632-.813.016-2.205.174-2.77-.139-.91-.43-.415-1.281-.762-2.285l-.069-.208c-.423-.097-.61-.073-.831.208-.299 1.577.247 2.893 1.316 3.324 1.305.527 4.818.139 6.509.139h13.087c1.676 0 4.365.413 5.748-.139 1.764-.702 1.802-5.411 1.317-7.961zm-7.894-16.411-.9-.069c-.264-.381-.307-.87-.277-1.593h1.178v1.662zm-15.512 4.085h-2.493l-.069-.068.623-3.74h1.316l.623 3.808zm-.693-5.817v.97h-1.177v-.97h1.177zM25.99 9.489c-.533-.669-2.522-.456-3.602-.554-3.494-.318-7.243 1.571-10.525.138l-.139-.069 10.733-3.393 5.608 1.869c1.418.444 3.781.686 4.848 1.593l-3.393.624-1.731-.069-.208.069-.068.554.068.139c.326.172.824.262 1.316.276v2.146H15.741v-2.146l6.509-.762c1.245-.055 2.498.477 3.669.277.167-.268.261-.397.071-.692zm-8.587 4.363v1.315l-.416.277-.762.069v-1.662h1.178zm.069 6.163-.208-1.385c-.153-.272-.516-.356-.9-.416-.176-.368-.158-1.087-.138-1.662 1.891.072 2.297-.797 2.216-2.7h7.755c-.082 1.903.325 2.772 2.217 2.7v1.523c-1.629.842-.883 1.707-1.732 3.116-1.248 2.072-4.743 3.396-7.271 1.593-.854-.609-1.608-1.648-1.939-2.769zm7.41 4.154c-.004 1.131-.183 1.925-.276 2.84-1.346.427-3.062.185-4.502.069-.289-.809-.372-1.786-.346-2.909 1.634.471 3.43.684 5.055 0h.069zm-9.349 3.463h-.138l3.254-2.216.762 3.047 1.177 2.216-5.055-3.047zm6.787 3.67c-.797-.747-1.391-2.08-1.87-3.116a37.01 37.01 0 0 0 3.739 0l-1.731 3.047-.138.069zm1.731-.623c.707-1.691 1.485-3.002 1.869-5.263l3.186 2.008.139.208-5.194 3.047z"/></svg>