<svg xmlns="http://www.w3.org/2000/svg" width="45" height="45" fill-rule="evenodd"><path fill="#49b5f5" d="M35.261.787H9.627A8.839 8.839 0 0 0 .788 9.626v25.635A8.84 8.84 0 0 0 9.627 44.1h25.634a8.839 8.839 0 0 0 8.839-8.839V9.626A8.839 8.839 0 0 0 35.261.787z"/><path fill="#fff" d="M40.865 9.111c-1.185-.289-2.971-.139-4.387-.139h-8.914c-1.159 0-3.807-.376-4.525.209-.441.245-.625 1.47-.279 2.02l.348.417.558.07c-.011 1.919-.428 10.151.139 11.211.172.379.416.499.905.557l-1.532 2.159c-.393.217-.923-.032-1.601-.14 1.034-3.231 1.881-11.161.208-13.927C19.664 8.04 12.461 7.28 9.39 10.503l.07.488.278.139.348.07c2.461-2.378 8.676-2.156 10.585.557.856 1.217 1.06 2.963.975 4.944-.502-.36-.875-.587-1.811-.558.041-1.455-.558-2.582-1.671-2.854l.279-.905c-.157-.281-.237-.31-.487-.487h-.07c-.836.616-1.248 1.757-1.88 2.576-1.222 1.584-3.28 3.299-5.362 3.969-1.219 2.026 1.069 3.97 1.88 4.806.3.323.163 1.642.139 2.228H9.738c-.594-1.961-1.572-8.053-1.184-10.515l.487-2.576c-.238-.149-.325-.21-.766-.209-1.966 3.016.104 9.826.348 13.3-1.294.345-2.135.586-2.716 1.602-.812 1.419-.535 10.339.278 11.351.429.533 1.568 1.078 2.716.836l1.393-.696L24.36 38.5l.279-.209V27.844l-.836-1.463 2.089-2.785c1.237-.565 4.021-.158 5.571-.14v.767c-1.668.52-1.321 3.597.904 3.134 1.674-.349 1.479-2.622.141-3.204v-.696c2.189.013 5.787.491 7.45-.278.323-.945.209-2.561.209-3.83V11.69l.487-.07.488-.417c.171-.799.052-1.619-.277-2.092zm-21.03 8.078.975.139c.182.295.283.453.278.976l-.348.418-.905.139v-1.672zm0 2.855 1.602-.487-.905 5.78c-.407.372-2.218.162-2.924.139v-2.228c1.382-.564 1.614-1.837 2.227-3.204zm-1.531 6.477v.069c-.317.509-.752.93-1.462 1.045-.471-.307-.729-.511-.905-1.114h2.367zm-4.596-1.045v-1.74c.865.137 1.986.133 2.855 0v1.74h-2.855zm-2.229-6.267c1.916-.619 5.254-3.322 5.988-5.084 1.728.455 1.848 5.16.975 6.895-1.508 2.998-7.06 2.268-6.963-1.811zm3.064 7.312v.069c-.209.454-.354.846-.905.975-.555.161-1.302-.549-1.462-1.044h2.367zm9.123 11.001h-2.159l-.07-3.203c-.218-.142-.37-.272-.696-.139l-.209.069-.069 3.272h-8.217c.666-.673 1.757-.945 2.438-1.602-.062-.452-.162-.47-.418-.696-1.619.302-5.953 4.567-7.451 2.298-.536-.812-.209-3.108-.209-4.317 0-4.714-.98-6.807 4.178-6.685 1.408 1.404 2.181 3.278 4.387 1.184.098-.132.005-.042.139-.14.953 2.432 3.688.215 4.317-1.044.795-.014 1.933-.122 2.507.14h.14l-1.671 2.367c-.412-.129-.992-.451-1.671-.278L9.81 33.971l-.07-1.881c-.295-.16-.376-.177-.766-.139-.341.61-.311 2.371-.14 3.203.886.51 6.117-3.033 7.312-3.621l1.044 1.811v.069c-.477.218-1.569.609-1.323 1.323l.07.209c.934.156 4.945-2.304 5.362-2.994.386-.64.265-1.521 0-2.159l1.671-2.298.208-.139c.936.924.513 8.061.488 10.167zm-5.641-4.665-.975-1.811 2.089-1.254c3.194-.08.209 2.783-1.114 3.065zm14.553-7.311-.068.557c-.503.313-.789.192-1.115-.209.055-.508.175-.539.488-.766l.418.139c.154.098.176.136.277.279zm6.547-3.134H26.938v-.069l1.044-1.532-.069-.418-.558-.209c-.711.559-1.303 1.474-1.811 2.229h-.766l-.069-10.724h14.415v10.723zm1.044-11.768H23.666v-.627h16.503v.627zm-23.467 9.54v-.069c-.822-.539-.918.374-1.95.069-.329-.097-.354-.32-.905-.349l-.209.14c-.335 1.645 2.974 1.68 3.064.209z"/></svg>