<svg xmlns="http://www.w3.org/2000/svg" width="45" height="45" fill-rule="evenodd"><path fill="#f8cb64" d="M35.261.787H9.627A8.839 8.839 0 0 0 .788 9.626v25.635A8.84 8.84 0 0 0 9.627 44.1h25.634a8.839 8.839 0 0 0 8.839-8.839V9.626A8.839 8.839 0 0 0 35.261.787z"/><path fill="#fff" d="M41.86 28.52c-.15-.503-.61-.903-.762-1.295v-6.931c.001-3.828.357-7.92-1.294-10.054-3.182-4.106-11.396-3.246-13.862.838-1.185 1.963-.72 6.415-.686 9.444-3.066-.853-5.753-.829-7.007 1.828l-1.142-.305-.152-1.143c1.317-1.291 2.805-2.015 3.427-4.036l.152-3.809c0-6.711-4.793-8.352-10.435-6.017l-.076.152.457.686c.516.166 1.74-.532 2.666-.686 3.951-.654 6.304 1.552 6.245 5.026-3.341-.002-5.179-.792-7.235-1.904-.755.782-2.122 1.408-3.199 1.828-.543-1.306.537-2.754.99-3.427l-.836-.683h-.076c-2.756 4.183-1.529 10.919 2.285 12.795l-.076 1.143c-2.326.867-6.01.987-7.388 2.818-1.449 1.924-.856 6.978-.838 10.205h11.577v3.809h8.988v-1.143h-7.845c-.115-4.27.745-4.552 4.037-5.331.808 3.146 4.206 2.26 5.483.152.237-.284 1.366.322 1.752.457 2.238.775 2.364 1.653 2.284 4.722H27.01v1.143h3.427v-3.809h11.577c.005-2.007.363-4.749-.154-6.473zM26.399 17.324l.076-4.57c.797-2.916 4.587-4.945 8.987-3.884 1.777.428 3.419 1.61 4.113 3.122 1.002 2.185.416 11.038.381 14.318l-4.189-1.903c-.216-.205-.254-.71-.305-1.066 2.801-1.09 3.125-3.875 3.047-7.921-3.287.001-4.264-.456-6.322-1.371l-.914-.914c-.799 1.11-1.999 2.125-3.655 2.361-.04 5.637.265 5.133 2.97 7.921l-.076.99-3.274 1.446-.152-2.741-.686-1.371v-4.417zm2.665 2.97c-.455-.899-.336-2.621-.304-3.96 1.138-.222 1.815-.942 2.589-1.523 1.559 1.116 3.207 1.815 6.018 1.752.023 1.054.166 2.545-.152 3.351-1.377 3.483-6.452 3.724-8.151.38zm4.038 7.007v.152c-.775-.757-1.571-2.433-1.371-3.655.813.198 1.795.278 2.59 0h.076c.132 1.239-.507 2.716-1.295 3.503zm-11.729-6.169c2.706-.066 3.862.302 4.57 2.209v.076h-6.854c.35-1.403 1.121-1.693 2.284-2.285zM8.958 16.486l-.076-3.123c1.211-.478 2.364-.904 3.275-1.676 1.964 1.032 4.106 1.744 7.235 1.676.068 3.454-.684 5.151-2.742 6.397-3.193 1.935-6.929-.612-7.692-3.274zm5.484 7.769c-1.83.394-2.239-1.48-1.98-2.895 1.154.138 2.193.132 3.351 0 .255 1.456-.068 2.615-1.371 2.895zm5.408 6.854c-1.924.488-4.206 1.107-5.027 2.741H4.16c-.04-2.273-.5-5.856.229-7.692s4.758-2.655 6.931-2.97c.46 2.868 5.119 2.778 5.636 0l.837.229.076 3.808c.351 1.663 1.401 2.211 2.285 3.275l-.304.609zm.99.914c.038-.563.187-.693.38-1.066 1.241.149 2.516-.187 2.971.686-.043 2.167-2.727 1.829-3.351.38zm-1.676-4.418c-.294-.722-.18-2.081-.152-3.046h7.007c.027.992.146 2.371-.152 3.122-1.172 2.961-5.55 2.757-6.703-.076zm21.707 6.246H30.283c-.487-.487-.75-1.079-1.37-1.446-1.212-.718-3.371-.641-4.036-1.904.849-.971 2.084-1.572 2.208-3.275l3.579-1.675 2.285 4.265.152.076 2.209-4.341 2.742 1.218c3.284 1.429 2.865 2.543 2.819 7.082zm-5.408-23.382H34.32v1.143h1.143v-1.143zm2.285 1.142h-1.143v1.143h1.143v-1.143zM24.725 38.802h1.142v-1.143h-1.142v1.143z"/></svg>