<svg xmlns="http://www.w3.org/2000/svg" xml:space="preserve" viewBox="18.93 0.75 215.38 73.29"><path fill="#4285f4" fill-rule="evenodd" d="M92.075.746h47.539v46.525H92.075z" clip-rule="evenodd"></path><path fill="#ea4335" fill-rule="evenodd" d="M139.364.746h47.54v46.525h-47.54z" clip-rule="evenodd"></path><path fill="#52a32f" fill-rule="evenodd" d="M186.777.746h47.539v46.525h-47.539z" clip-rule="evenodd"></path><path fill="#4285f4" fill-rule="evenodd" d="M92.051 46.959h141.923v27.079H92.051z" clip-rule="evenodd"></path><path fill="#fff" fill-rule="evenodd" d="M93.051 47.959h139.756v24.912H93.051z" clip-rule="evenodd"></path><path fill-rule="evenodd" d="m103.252 50.742-7.784 18.99h4.712l1.51-3.98h7.94l1.484 3.98h4.894l-7.706-18.99zm-.313 11.811 2.76-7.466 2.734 7.466zm25.786 1.56q0 1.787-.754 2.531c-.754.744-1.365.745-2.583.745q-1.749 0-2.494-.774-.745-.775-.745-2.502v-8.875h-3.438v8.946q0 3.102 1.719 4.454t5.196 1.352q1.828 0 3.25-.517 1.42-.518 2.255-1.491.576-.716.794-1.561.219-.846.219-2.237v-8.946h-3.418zm5.743-6.274h5.007v11.894h3.418V57.839h4.948v-2.601h-13.373zm23.11-2.86q-3.618 0-5.822 2.085-2.206 2.085-2.206 5.5 0 3.355 2.226 5.391t5.803 2.035q3.496 0 5.713-2.154 2.215-2.154 2.215-5.55 0-3.276-2.195-5.291-2.198-2.015-5.734-2.016m3.137 11.033q-1.236 1.378-3.246 1.378-2.35 0-3.326-1.447-.518-.753-.787-1.545c-.269-.792-.27-1.07-.27-1.625v-.476q0-1.07.328-1.941c.328-.871.527-1.083.924-1.506q1.214-1.269 3.18-1.269 2.087 0 3.26 1.278t1.172 3.478q-.002 2.298-1.235 3.675m16.355-2.459a5 5 0 0 0-.158.695l-.159.677-.079.358-.08.338-.06.357-.079.339-.119-.558-.14-.557-.02-.119-.04-.159-.139-.677-.18-.695-2.105-8.314h-5.266v14.494h3.238V57.8l3.1 11.933h3.299l3.1-11.953v11.953h3.239V55.238h-5.167zm15.739-8.315-5.941 14.494h3.597l1.152-3.038h6.061l1.133 3.038h3.735l-5.881-14.494zm-.239 9.014 2.105-5.698 2.087 5.698zm11.167-6.413h5.007v11.894h3.418V57.839h4.948v-2.601h-13.373zm19.136 9.292v-3.713h7.809v-2.441h-7.809v-3.138h8.564v-2.601h-12.002v14.494h12.359V67.13h-8.921z" clip-rule="evenodd"></path><path fill="#fff" fill-rule="evenodd" d="M125.31 15.327v-4.894h-19.107v27.412h19.069V32.95h-12.681v-6.835h10.759v-4.894h-10.759v-5.894zm45.222-1.741q-3.26-3.154-8.103-3.153h-9.911v27.412h9.911q4.844 0 8.103-3.144 3.26-3.145 3.26-8.097v-4.933q0-4.931-3.26-8.085m-3.128 13.018q0 2.862-1.432 4.604t-3.977 1.742h-3.09V15.327h3.09q2.543 0 3.977 1.732 1.431 1.733 1.432 4.575zm48.004-16.617v17.961q0 2.542-1.271 3.747-1.272 1.205-3.627 1.205-2.376 0-3.675-1.215c-1.299-1.215-1.3-2.055-1.3-3.737V9.987h-6.389v17.961q0 4.688 3.129 7.268 3.127 2.58 8.234 2.579 5.048 0 8.168-2.579 3.118-2.58 3.119-7.268V9.987z" clip-rule="evenodd"></path><path fill="#52a32f" fill-rule="evenodd" d="M87.372 14.241 86.2 11.224c-.097-.074-.189-.199-.29-.284-.484-.407-1.131-.209-1.833-.134l-3.971.503c-.384-.249-.652-.749-.987-1.09-.273-.277-.813-.633-1.016-.963-.063-.11.149-.971.183-1.146l.353-2.161c.086-.438.242-.929.181-1.415-.038-.3-.27-.61-.437-.727-.605-.424-1.519-.715-2.202-1.016l-1.979-.871c-.434-.191-.832-.434-1.39-.345-.593.095-1.345 1.313-1.61 1.662l-1.713 2.188c-.133.095-.545-.015-.674-.02l-1.225-.051c-.269.011-.697.093-.937.031-.181-.047-.718-.999-.884-1.22L64.283 2.09c-.263-.359-.46-.767-.769-1.021-.581-.478-1.232-.162-2.176.204l-3.832 1.486c0 .047-.33.346-.377.416-.146.217-.177.546-.179.825l.142.893.348 2.874c.018.244.222.992.124 1.144l-.519.445a11 11 0 0 0-1.08 1.046c-.096.106-.416.552-.554.587l-3.715-.621c-.349-.059-1.065-.31-1.529-.009-.57.371-.689.981-.93 1.501l-.849 1.9c3.935 1.045 7.583 2.807 10.939 5.298a8.68 8.68 0 0 1 2.852-4.407c.366-.302.783-.55 1.209-.814l.861-.424c4.002-1.559 7.57-.299 9.777 2.2.878.995 1.859 2.661 2.093 4.298.079.555.111 1.113.114 1.646.016 2.379-1.374 5.096-3.371 6.598-.407.307-.868.548-1.329.836l-.544.249-.755.268c-.21.045-.396.105-.581.161 2.262 3.235 3.985 6.668 5.148 10.307.082.315.148.648.226.968l.175-.068 2.528-.981c.205-.265.424-.439.516-.751.117-.398-.047-.911-.101-1.382l-.349-2.875-.151-1.081c.025-.13.251-.257.365-.347l.88-.803c.156-.193.692-.855.926-.948l3.854.682c.346.067.909.083 1.278-.24.332-.29.455-.716.617-1.084l.886-2.009c.268-.606.673-1.292.825-1.935.052-.217.183-.552 0-.857-.365-.61-.831-.87-1.308-1.222l-2.446-1.907c-.099-.313.046-.71.057-1.009.019-.567.039-1.181-.007-1.765.193-.279.632-.455.928-.68l2.369-1.688c.503-.37 1.104-.652 1.232-1.183.159-.643-.399-1.72-.729-2.57" clip-rule="evenodd"></path><path fill="#4285f4" fill-rule="evenodd" d="M67.405 54.127q-1.523 0-3.369.978a274 274 0 0 0-4.021 2.172 38 38 0 0 1-4.728 2.172q-2.555.977-5.597.978-5.435 0-9.673-2.77-4.24-2.77-5.108-8.633h33.366q3.587 0 5.217-1.732t1.63-5.195q0-1.299-.163-2.652a60 60 0 0 0-.38-2.654q-1.957-8.66-9.292-15.859-7.337-7.199-18.313-7.199-12.39 0-20.215 9.176t-7.825 21.122q0 12.924 8.097 21.447Q35.124 74.001 48.277 74q1.195 0 2.446-.108a427 427 0 0 1 2.554-.217q7.716-1.086 14.129-4.778t6.413-8.036q0-2.498-1.957-4.615-1.958-2.12-4.457-2.119M38.441 30.206q3.315-3.444 8.531-3.444 5.434 0 8.641 3.421 3.205 3.421 3.858 8.416H34.583q.542-4.949 3.858-8.393" clip-rule="evenodd"></path></svg>