<svg xmlns="http://www.w3.org/2000/svg" xml:space="preserve" width="68" height="61"><path fill="#6A9BEC" fill-rule="evenodd" d="M57.25 12.667h-46.4c-5.523 0-10 4.477-10 10v27.25c0 5.522 4.477 10 10 10h46.4c5.522 0 10-4.478 10-10v-27.25c0-5.523-4.478-10-10-10z" clip-rule="evenodd"/><path fill="#FFF" fill-rule="evenodd" d="M7.75 20.625h19.5v27.25H7.75zM50.5 26.25h11v22.125h-11z" clip-rule="evenodd"/><path fill="#FFF" fill-rule="evenodd" d="M55.375 2.375h-41.75c-1.104 0-2.75.896-2.75 2V35.5c0 1.104 1.646 2 2.75 2h41.75a2 2 0 0 0 2-2V4.375a2 2 0 0 0-2-2zM42.063 45H8.938a1.938 1.938 0 1 0 0 3.876h33.125a1.938 1.938 0 1 0 0-3.876z" clip-rule="evenodd"/><path fill="#FFF" fill-rule="evenodd" d="M27.375 37.125h9.375v7.75h-9.375z" clip-rule="evenodd"/><path fill-rule="evenodd" d="m62.138 43.679-.058-1.047c.049-.711.058-1.651.058-2.502V29.155c0-.491.034-1.446-.116-1.784-.305-.687-.899-1.415-1.629-1.668-.445-.154-1.554-.019-1.9-.252-.103-.417-.058-1.042-.058-1.551V10.171c0-1.49.155-3.261-.078-4.614v-.563c-.277-1.39-.981-2.225-1.958-2.928-.476-.343-1.021-.67-1.726-.776v-.155H13.661v.155c-1.895.24-3.374 1.966-3.742 3.762v11.111c0 1.07.153 2.791-.078 3.685-.359.202-.934.02-1.416.116-.819.163-1.776.848-2.036 1.551-.249.674-.194 1.671-.194 2.599v19.003l.02 3.724-.039.679c.206.983.953 1.944 1.92 2.152l.019.175h36.708c.021-.398.452-.449.523-.873.078-.467-.19-1.412-.33-1.765l-.252-.368c-.655-1.329-1.679-2.188-3.335-2.502-.771-.146-3.094.113-3.568-.213l-.02-3.995c0-.417-.108-1.199.078-1.474.128-.2 2.164-.116 2.617-.116h5.973c.73 0 2.169-.114 2.638.078.079.271-.031.57.02.892.066.429.038.985.038 1.474v4.654c0 1.104-.056 2.071.33 2.792.305.57.98 1.048 1.648 1.261v.155h8.997v-.157c.843-.316 1.704-.978 1.9-1.92.253-1.218-.121-2.795.058-4.091zM8.192 22.02l.756-.369c.49.038 1.156.182 1.707.098a5.611 5.611 0 0 1 1.493 0l.969-.039 8.009.02h3.025c.836 0 1.61-.061 2.172.193.388.177.368.901.368 1.493l.02 3.685V42.36c0 .612.07 1.275-.097 1.765-.401.263-3.104.116-3.917.116H12.303l-3.044.02c-.356 0-.993.084-1.163-.116-.297-.35-.117-2.182-.117-2.947V25.296c0-.933-.187-2.722.213-3.276zm17.821 26.022-17.355.02c-.667-.192-1.015-1.254-.64-2.036h16.734c.432 0 1.121.104 1.474-.039l.329.039c.187.096.152.276.175.543.059.69-.156 1.355-.717 1.473zm14.31-2.036a2.697 2.697 0 0 1 2.656 1.163c.157.246.427.4.33.795-.353.204-2.509.078-3.181.078H29.522c-.299 0-.787.12-.989 0-.074-.046-.115-.139-.136-.232-.031-.147.084-1.56.136-1.648.048-.101.105-.118.194-.175 2.525.005 5.254.039 7.892.039l3.704-.02zm-11.731-2.947-.02-3.238c.074-.623-.17-.889.194-1.222.519 0 1.289-.072 1.647.116.099.287-.014.653.039 1.008v2.638c-.026.601.094 1.292-.039 1.784-.324.2-1.399.18-1.783.038-.175-.303.022-.738-.038-1.124zm7.427 1.066c-.124.2-.594.136-.911.136-.739 0-2.382.152-2.812-.155v-4.053c0-.58-.109-1.216.193-1.493.746.005 1.601.039 2.404.039.361 0 .768-.073 1.048 0 .196.277.136.78.136 1.279v2.909c0 .371.104 1.075-.058 1.338zm12.933-7.35H30.065c-.547 0-1.15.082-1.474-.136-.087-.407.021-.889-.02-1.357l-.02-2.695c0-.588-.076-1.212.233-1.493 6.721.014 13.444.026 20.166.039.334.166.092.584.155.989l.02 3.354c-.044.399.133 1.161-.173 1.299zm.311-9.074c-.12.388-.062 1.025-.078 1.474-.346.25-.865.056-1.396.136l-2.947.02H33.168l-3.374-.02c-.453 0-1.072.111-1.299-.155l-.02-5.896.02-.813c-.049-.363-.419-.754-.233-1.164.075-.166.344-.332.485-.446.453-.363.8-.867 1.26-1.24l1.009-1.105c.416-.499.973-.96 1.474-1.377.522-.434.94-1.043 1.435-1.513 1.102-1.045 2.219-2.112 3.258-3.219.338-.359.778-.874.388-1.474-.127-.195-.683-.469-1.008-.271-.723.438-1.297 1.207-1.9 1.784-.877.839-1.794 1.71-2.579 2.637l-.911.834a6.466 6.466 0 0 1-1.105 1.125c-.464.358-.819.882-1.279 1.26l-.214.291c-.448.377-.853.802-1.279 1.202-.091.116-.182.233-.271.35-.438.077-.682-.144-1.066-.194l-1.939.02H13.04c-.377 0-.963.078-1.241-.059-.278-.146-.155-.878-.155-1.299V7.902c0-1.51-.076-2.852.504-3.762.344-.541 1.09-1.048 1.803-1.202l.95-.02 29.416.02h7.194c1.735 0 3.08-.137 4.131.62 1.113.803 1.027 2.217 1.027 4.111v15.105c0 .487.102 2.429-.039 2.656-.128.205-.625.136-.95.136h-2.772c-2.151-.021-3.132.472-3.645 2.135zm1.92-.019c.13-.19.453-.254.659-.369l5.972.02c.843.126 1.688-.173 2.25.214.472.324.291 2.89.291 3.781v9.365c0 .792.138 3.138-.136 3.529-.568.137-1.396.039-2.036.039h-4.131c-.871 0-2.265.141-2.947-.059-.18-.256-.136-.759-.136-1.202V30.997c0-.946-.175-2.749.214-3.315zm9.171 19.837-.563.504c-1.021.013-2.043.025-3.063.039-1.35 0-2.873.138-4.15-.039-.386-.054-.799.162-1.105-.039-.623-.409-.645-1.104-.426-1.9l.136-.097c1.985.065 4.165.039 6.263.039l2.87.02c.156.27.199 1.134.038 1.473zM36.465 5.091c-.568-.338-3.252-.083-4.169-.155-.302.121-.599.159-.757.407-.29.455.02 1.027.311 1.202.28.169.624.049.989.116.7.13 3.109.158 3.606-.077.149-.071.436-.436.484-.602.117-.393-.266-.773-.464-.891zm6.069 5.469c-1.268.679-1.965 1.861-3.006 2.753-.903.773-1.632 1.738-2.521 2.521-.546.479-.991 1.096-1.552 1.551l-1.086 1.027c-.417.451-1.761 1.601-1.92 2.114-.109.355.229.817.427.95.178.119.674.146.873.02.305-.193.5-.531.756-.776.42-.402.882-.759 1.241-1.222l.543-.484c.78-.873 1.705-1.612 2.482-2.482.585-.655 1.239-1.224 1.861-1.842.597-.594 1.113-1.285 1.784-1.804l.193-.271c.444-.395 1.326-1.118.523-1.765-.172-.141-.284-.277-.598-.29zM17.907 36.795c.735.295 1.213-.438 1.493-.717.864-.864 1.754-1.696 2.579-2.599.327-.357.776-.614 1.028-1.047.378-.653-.11-1.512-.854-1.513-.659.36-1.18.9-1.648 1.454-.471.558-1.072 1.007-1.551 1.57l-.252.175c-.314.379-.661.719-.989 1.086l-.232.155c-.357.519.012 1.238.426 1.436zm-5.681-.02c.08.052.22.039.349.039.662.001.833-.326 1.144-.659.842-.9 1.783-1.692 2.579-2.638l1.125-1.085c.466-.774-.267-1.506-.969-1.493-.961.626-2.027 1.822-2.773 2.695-.528.617-1.316 1.049-1.784 1.726l-.252.446c-.062.248.445.882.581.969zm21.892-3.742c-.36.134-.721.211-.834.563-.209.65.467 1.365.97 1.279 1.064-.181 1.229-1.855-.136-1.842zm19.876 4.964c.449.23.901-.129 1.144-.31l1.745-1.784c.282-.256.71-.574.873-.931.312-.684-.063-1.43-.834-1.455-.148.113-.359.124-.523.233l-2.89 2.928c-.307.541.159 1.152.485 1.319z" clip-rule="evenodd"/></svg>