<svg xmlns="http://www.w3.org/2000/svg" xml:space="preserve" width="68" height="61"><path fill="#FFA0A0" fill-rule="evenodd" d="M57.25 13h-46.4c-5.523 0-10 4.478-10 10v26.917c0 5.522 4.477 10 10 10h46.4c5.522 0 10-4.478 10-10V23c0-5.522-4.478-10-10-10z" clip-rule="evenodd"/><path fill="#FFF" fill-rule="evenodd" d="M40.6 15.2H27.4a5 5 0 0 0-5 5v7.6a5 5 0 0 0 5 5h13.2a5 5 0 0 0 5-5v-7.6a5 5 0 0 0-5-5zM12 23.667A3.333 3.333 0 0 0 8.667 27v8a3.333 3.333 0 0 0 6.666 0v-8A3.333 3.333 0 0 0 12 23.667zM54.8 23.667c-1.878 0-3.399 1.343-3.399 3v8c0 1.656 1.521 3 3.399 3s3.4-1.344 3.4-3v-8c0-1.657-1.522-3-3.4-3zM42 46h-5a2 2 0 0 0 0 4h5a2 2 0 0 0 0-4z" clip-rule="evenodd"/><path fill="#FFF" fill-rule="evenodd" d="m27.164 37.076 2.072-6.686 4.431 1.373-2.072 6.686z" clip-rule="evenodd"/><path fill-rule="evenodd" d="M59.63 29.688c0-1.36.026-2.602-.362-3.562-.242-.598-.994-1.764-1.504-2.08-.297-.185-1.225-.726-1.348-1.015-.21-.493.017-1.155-.104-1.741-.108-.53-.165-1.011-.285-1.639a22.975 22.975 0 0 0-1.374-4.576C51.91 8.558 45.789 3.229 38.17 1.582c-1.247-.269-2.685-.295-3.939-.416l-2.981.13c-1.772.305-3.356.681-4.976 1.093-.155.039-.249.174-.363.233-.366.19-.728.181-1.088.338-.974.425-1.995 1.031-2.851 1.587-.51.33-1.015.549-1.503.884-2.928 2.002-5.896 5.587-7.413 8.996-.724 1.627-1.332 3.353-1.711 5.304-.116.599-.147 1.058-.259 1.561-.144.644.109 1.406-.156 1.846-.208.345-.705.449-1.037.676-.577.395-1.54 1.594-1.789 2.288-.426 1.191-.337 2.793-.337 4.42l.026 4.265c.34 1.771 1.25 3.187 2.618 3.926.364.196.871.469 1.27.572 1.144.295 2.028.209 2.929-.234 2.481-1.22 1.918-4.405 1.918-7.982a9424 9424 0 0 1-.026-5.33c-.226-1.177-.877-1.976-1.737-2.521-.361-.229-1.246-.215-1.348-.702-.097-.467.22-1.652.311-2.028l.052-.728c.203-.855.523-1.826.777-2.601 1.349-4.105 3.98-7.431 7.257-9.62.928-.62 1.902-1.475 3.007-1.897.657-.252 1.193-.578 1.789-.807l.414-.077.337-.208c1.206-.345 2.565-.579 3.784-.832h1.063c1.985-.377 4.846.033 6.324.52 1.062.35 2.013.479 2.98.858 3.926 1.539 7.309 4.688 9.409 8.086 1.238 2.003 2.299 4.238 2.695 7.072.056.401.514 2.048.311 2.418-.171.336-.654.144-.959.338-.664.424-1.467.914-1.788 1.664-.367.855-.311 2.146-.311 3.38v5.876c0 1.319-.086 2.742.337 3.641.346.735 1.147 1.408 1.943 1.689.289.103.543.069.752.182.141.503.077 1.298.077 1.925 0 3.922-2.116 5.693-5.935 5.693l-1.063.026c-.233-.026-.534-.174-.881-.104-.253.051-.542.154-.829.025-.258-.138-.29-.418-.415-.702-.213-.482-1.1-1.297-1.606-1.481l-1.089-.286h-1.348c-.562-.088-1.302-.052-1.944-.052-3.072 0-4.353 1.127-4.82 3.718-.119.659.334 1.268.492 1.689.697 1.858 2.679 2.106 5.235 2.106.988 0 2.209.137 2.98-.156 1.229-.467 1.755-1.376 2.463-2.366 1.544-.281 3.422.213 4.898-.104 3.434-.736 5.145-2.713 6.169-5.876.297-.919.129-2.206.129-3.354l.026-1.04c.188-.406.74-.5 1.088-.754.593-.432 1.058-1.087 1.452-1.716.949-1.512.65-4.5.65-6.945zm-45.565-3.925c.246.564-.044 1.563 0 2.054l.026 5.799c0 .939.237 1.936-.026 2.729-.126.38-.543.63-.985.702-.703.115-1.304-.347-1.659-.624-1.594-1.246-1.192-3.14-1.192-5.746V27.4c.224-.902 1.014-1.661 1.762-2.054.253-.133.591-.057.804-.182.571-.003 1.101.209 1.27.599zm28.9 22.802c-.097.322-.404.734-.674.884-.446.246-1.549.078-2.151.078-1.528 0-3.056.34-3.499-.832a1.441 1.441 0 0 1 .077-1.196c.145-.26.471-.369.7-.546h4.64c.538.159 1.167.742.907 1.612zm13.891-13.001c-.522.86-1.386 1.302-2.592 1.482-1.241.186-.959-1.935-.959-2.964v-5.824c0-.644-.19-1.982.026-2.47.147-.333.5-.436.804-.624 3.48.075 3.032 2.989 3.032 6.474.001 1.3.201 3.087-.311 3.926zM34.8 34.577h3.732c.863 0 1.857.023 2.566-.104.787-.143 1.525.082 2.177-.156 1.597-.583 2.958-1.825 3.474-3.483.488-1.574.233-4.038.232-5.98 0-3.777.491-7.77-1.321-9.802-1.794-2.013-4.021-1.769-7.724-1.769h-12.57l-.648.053-.959.285c-1.048.394-2.374 1.6-2.825 2.601-.586 1.301-.518 3.193-.518 5.096 0 3.334-.33 7.608.492 10.166.371 1.154 2.031 2.476 3.24 2.834.531.158 1.147.054 1.607.261.171.732-.108 1.593 0 2.392.178 1.313.701 2.581 1.84 2.86 1.49.365 2.294-.512 2.929-1.118 1.021-.973 1.938-2.129 3.059-2.99.387-.3.71-1.013 1.217-1.146zm-2.514-1.014-3.811 3.849h-.181c-.207-.351-.078-2.892-.078-3.614 0-.313.041-.716-.078-.937-.345-.638-1.002-.754-1.995-.754h-.803c-.781-.191-1.613-.571-1.996-1.17-.563-.878-.544-2.34-.544-3.77v-6.396c0-1.1-.129-2.815.285-3.51.328-.55.93-1.183 1.581-1.404l.985-.182h12.674c2.285 0 4.333-.256 5.495.91 1.181 1.185.777 5.869.777 8.294 0 1.236.136 2.748-.078 3.848-.127.656.055 1.243-.207 1.742-.313.597-.876 1.188-1.504 1.456-.604.258-1.521.182-2.358.182h-4.328l-2.021.026c-.85.183-1.288.911-1.815 1.43zm-4.925-11.232c-.693.261-1.279.649-1.478 1.378-.321 1.185.953 2.461 2.203 2.158 2.028-.492 1.817-3.597-.725-3.536zm6.221 0-.519.052c-.546.188-.996.853-1.166 1.43-.324 1.101 1.033 2.325 2.203 2.055 1.957-.454 1.841-3.558-.518-3.537zm6.35 3.562c2.155-.386 2.134-3.598-.362-3.562l-.467.052c-.332.11-.922.635-1.036.962-.425 1.208.381 2.813 1.865 2.548z" clip-rule="evenodd"/></svg>