<svg xmlns="http://www.w3.org/2000/svg" xml:space="preserve" width="68" height="75"><path fill="#F9C435" fill-rule="evenodd" d="M57.25 25h-46.4c-5.523 0-10 4.478-10 10v29.25c0 5.522 4.477 10 10 10h46.4c5.522 0 10-4.478 10-10V35c0-5.522-4.478-10-10-10z" clip-rule="evenodd"/><path fill="#FFF" fill-rule="evenodd" d="M18.5 8.5h32.75V64H18.5z" clip-rule="evenodd"/><path fill="#FFF" fill-rule="evenodd" d="M48.8 3.2H20.2a2 2 0 0 0-2 2v8.4a2 2 0 0 0 2 2h28.6a2 2 0 0 0 2-2V5.2a2 2 0 0 0-2-2z" clip-rule="evenodd"/><path fill-rule="evenodd" d="M52.885 8.482c0-1.028.063-2.182-.198-2.972-.432-1.297-1.134-2.477-2.226-3.205-.164-.109-.334-.199-.492-.304l-.151-.023a4.716 4.716 0 0 0-1.043-.491c-.09-.031-.198.009-.281-.012-.285-.073-.563-.204-.96-.199v-.058H21.792v.059c-.215.001-.365.055-.503.094l-.293.012a7.012 7.012 0 0 0-1.007.304c-.109.043-.246.159-.351.199-1.553.581-3.023 2.601-3.186 4.527h-.059v54.371h.059c.047 2.279 1.862 4.455 3.689 4.983.081.023.233.139.328.176l.316.035c.279.098.63.193 1.007.188v.059h25.741v-.059c.687-.001 1.528-.294 2.003-.503l.082-.094.152-.012.059-.094c.116-.06.274-.05.304-.188.241-.069 1.122-.708 1.148-.936l.058-.012c.103-.072.335-.371.422-.479l.035-.129c.056-.057.148-.119.188-.188l.012-.128c.935-1.212.891-2.838.89-5.019V8.482zm-2.483 52.442c-.243.96-.483 1.371-1.112 1.942-.098.088-.183.219-.293.292-.37.244-.851.403-1.347.515l-1.804.023H23.209c-1.001 0-1.91.008-2.553-.339-.846-.456-1.457-1.244-1.698-2.305-.086-.379-.035-.859-.035-1.287l.012-1.38c.022-.038.036-.035.07-.059h30.707c.177 0 .528-.053.655.023l.035.012v2.563zM32.496 9.289c.077.408.381.829.75.948.401.129.961.104 1.499.104h2.201l13.433.012c.092.066.035.521.035.667v44.769c-.235.131-1.729.046-2.143.046H19.544c-.203 0-.473.025-.621-.034V10.365c.216-.096.904-.023 1.194-.023 1.656 0 3.197.296 3.42-1.192.036-.242-.085-.441-.164-.573-.115-.192-.219-.421-.41-.526-.595-.331-2.055-.189-2.963-.189l-1.042-.012c-.083-.059-.047-.31-.047-.444 0-.471.013-.923.105-1.24.294-1.016.93-1.795 1.862-2.199l.164-.012c.178-.056.469-.148.667-.199l.422-.023h24.312c.587 0 1.095.042 1.522.129h.188c.849.3 1.478.868 1.861 1.638.043.085.146.205.188.293.119.242.326 1.604.199 2.059l-13.761.012h-2.26c-.386 0-.878-.032-1.147.094a1.248 1.248 0 0 0-.633.713c-.05.143-.155.35-.104.618zm-4.72 1.065c.662-.087 1.421-.83 1.066-1.696-.196-.478-.618-.777-1.241-.83-.122.058-.252.043-.398.094-.277.095-.588.396-.703.655-.393.886.365 1.897 1.276 1.777zm2.226 8.037h-7.003l-.257.023c-.37.104-.722.396-.867.725-.204.463-.094 1.551-.094 2.188v6.609c0 .42-.025.851.094 1.158.335.863 1.28.761 2.459.761h5.891c.916 0 2.046.11 2.588-.27.601-.42.469-1.557.469-2.573v-5.896c0-1.099.13-1.988-.504-2.48-.503-.39-1.891-.245-2.776-.245zm.714 8.901c-.062.077-.275.047-.409.047h-5.938c-.109-.204-.035-1.463-.035-1.813v-4.609l.046-.047 6.312.012c.075.043.047 1.211.047 1.451v3.603c0 .287.073 1.2-.023 1.356zm5.341.948.023.689c.304 1.046 1.278.925 2.6.925h5.703c.936 0 2.172.136 2.705-.281.575-.447.457-1.528.457-2.55v-5.942c0-1.058.114-1.998-.504-2.457-.506-.375-1.912-.233-2.787-.233h-6.968l-.293.023c-.333.106-.688.351-.819.654-.235.545-.117 1.976-.117 2.749v6.423zm2.541-2.492.012-4.808c.025-.043.053-.045.094-.07l6.289.012c.106.199.035 1.403.035 1.743l-.012 4.679c-.173.099-1.339.035-1.651.035h-3.209c-.444 0-1.138.079-1.522-.023-.099-.181-.036-1.23-.036-1.568zm-5.844 6.973c-.409-.361-1.901-.223-2.682-.223h-7.156c-.532.224-.778.239-1.042.749-.206.396-.094 1.535-.094 2.117v6.737c0 .402-.029.821.094 1.111.367.872 1.292.761 2.506.761h5.833c.925 0 2.106.128 2.623-.292.593-.482.445-1.59.445-2.645V35.34c0-1.234.158-2.015-.527-2.619zm-1.991 4.129v4.55l-.059.059h-6.335c-.102-.067-.059-1.262-.059-1.51l.012-4.854.047-.07h5.656c.228 0 .513-.021.702.023.11.204.036 1.453.036 1.802zm-1.394 10.89c-.093.166-.204.455-.152.726.247 1.282 1.286 1.1 2.765 1.1h4.953c.886 0 2.132.141 2.682-.223.309-.203.683-.88.445-1.45-.221-.53-.611-.789-1.323-.843l-7.12.012c-1.181 0-1.81-.099-2.25.678zm7.145 12.026c-.293-.097-.785-.023-1.125-.023h-2.436c-.416.166-.55.17-.82.479-.438.503-.382 1.376.129 1.767.432.33 1.102.305 1.886.305 1.302 0 2.933.227 3.256-.761.293-.899-.186-1.533-.89-1.767z" clip-rule="evenodd"/></svg>