<svg id="Layer_1" viewBox="0 0 512 512" xmlns="http://www.w3.org/2000/svg" data-name="Layer 1"><path d="m256.005 217.043c56.948 0 107.333 28.059 138.106 71.103v83.16h-276.212v-83.16c30.773-43.043 81.157-71.103 138.105-71.103z" fill="#004cbd" fill-rule="evenodd"/><path d="m368.911 371.307h-251.012v-83.16c28.482-39.84 73.767-66.84 125.505-70.639 51.738 3.799 97.024 30.798 125.506 70.638v83.16z" fill="#0062d9" fill-rule="evenodd"/><path d="m256.005 217.043c16.292 0 32.044 2.3 46.957 6.587l-38.749 40.049h-16.545l-37.428-38.683-1.293-1.336c14.942-4.306 30.729-6.616 47.058-6.616z" fill="#ea806f" fill-rule="evenodd"/><path d="m256.005 217.043c9.64 0 19.091.806 28.291 2.351l-14.506 14.993c-7.48 7.731-20.218 7.731-27.698 0l-14.488-14.974c9.235-1.558 18.723-2.37 28.402-2.37z" fill="#f29988" fill-rule="evenodd"/><circle cx="256.005" cy="143.737" fill="#fdb0a0" r="73.307"/><g fill-rule="evenodd"><path d="m284.696 211.214c-8.812 3.752-18.509 5.83-28.691 5.83-40.486 0-73.307-32.82-73.307-73.307 0-20.188 8.162-38.47 21.365-51.727 8.813-3.752 18.509-5.83 28.692-5.83 40.486 0 73.306 32.82 73.306 73.306 0 20.189-8.162 38.47-21.365 51.727z" fill="#ffcec0"/><path d="m215.576 221.893 40.429 41.786-30.709 30.372-38.516-62.282c9.195-4.115 18.822-7.438 28.796-9.876z" fill="#fdc72e"/><path d="m296.434 221.893-40.429 41.786 30.709 30.372 38.516-62.281c-9.195-4.115-18.822-7.438-28.796-9.876z" fill="#fdc72e"/><path d="m180.725 60.771h153.985v59.727c-21.679 13.013-48.263 20.68-76.992 20.68s-55.313-7.667-76.992-20.68v-59.727z" fill="#5d689e"/><path d="m308.106 60.771h26.604v59.727c-8.214 4.931-17.132 9.092-26.604 12.362z" fill="#495586"/><path d="m136.12 42.607 115.19-30.865c4.391-1.176 8.425-1.176 12.815 0l115.19 30.865c2.311.619 3.863 2.642 3.863 5.035s-1.553 4.415-3.863 5.034l-115.19 30.865c-4.39 1.176-8.425 1.176-12.815 0l-115.19-30.865c-2.311-.619-3.863-2.642-3.863-5.034s1.552-4.415 3.863-5.035z" fill="#004cbd"/><path d="m136.344 42.547 114.966-30.805c4.391-1.176 8.425-1.176 12.815 0l114.966 30.805-114.966 30.805c-4.39 1.176-8.425 1.176-12.815 0z" fill="#0062d9"/><path d="m334.686 96.776v23.737c-21.675 13.004-48.25 20.666-76.969 20.666s-55.293-7.661-76.968-20.665v-23.737c21.672 13.009 48.248 20.673 76.968 20.673s55.296-7.664 76.969-20.673z" fill="#3d4a75"/><path d="m373.552 107.365h1.956l8.195 17.61c1.763 3.789 2.555 7.366 2.555 11.545v20.657c0 3.942-3.225 7.166-7.166 7.166h-11.077c-3.941 0-7.166-3.225-7.166-7.166v-20.657c0-4.179.791-7.756 2.555-11.545l8.195-17.61h1.955z" fill="#f2671f"/><path d="m371.025 164.344h-3.012c-3.941 0-7.166-3.225-7.166-7.166v-20.657c0-4.179.791-7.756 2.555-11.545l6.117-13.146 6.118 13.146c1.763 3.789 2.554 7.366 2.554 11.545v20.657c0 3.942-3.225 7.166-7.166 7.166z" fill="#ff8748"/><path d="m373.089 119.47c7.253 0 13.168-5.915 13.168-13.168s-5.915-13.168-13.168-13.168-13.167 5.915-13.167 13.168 5.915 13.168 13.167 13.168z" fill="#f19a00"/><path d="m369.056 118.84c-5.299-1.703-9.135-6.673-9.135-12.538s3.836-10.835 9.135-12.538c5.3 1.703 9.135 6.672 9.135 12.538s-3.835 10.835-9.135 12.538z" fill="#f9ac00"/><path d="m209.899 393.688-18.5-3.648-8.124-19.585 10.509-15.672-21.662-21.662-15.672 10.509-19.585-8.124-3.648-18.5h-30.635l-3.648 18.5-19.586 8.124-15.671-10.509-21.662 21.662 10.508 15.672-8.124 19.585-18.5 3.648v30.636l18.5 3.647 8.124 19.586-10.508 15.671 21.662 21.663 15.671-10.51 19.586 8.125 3.648 18.5h30.635l3.648-18.5 19.585-8.125 15.672 10.51 21.662-21.663-10.509-15.671 8.124-19.586 18.5-3.647z" fill="#2dd62d"/><path d="m200.956 424.324-18.499 3.647-8.125 19.586 10.51 15.671-18.073 18.073-13.736-9.211-25.111 10.416-3.648 18.5h-21.692l-3.648-18.5-25.111-10.416-13.736 9.211-18.072-18.073 10.508-15.671-8.124-19.586-18.5-3.647v-30.636l18.5-3.648 8.124-19.585-10.508-15.672 18.072-18.072 13.736 9.211 25.111-10.416 3.648-18.5h21.692l3.648 18.5 25.111 10.416 13.736-9.211 18.073 18.072-10.51 15.672 8.125 19.585 18.499 3.648z" fill="#43f043"/></g><circle cx="110.42" cy="409.006" fill="#2dd62d" r="47.327" transform="matrix(.983 -.183 .183 .983 -72.812 27.031)"/><circle cx="117.899" cy="409.006" fill="#f3f3ff" r="47.138" transform="matrix(.383 -.924 .924 .383 -305.091 361.411)"/><path d="m486.111 393.688-18.5-3.648-8.125-19.585 10.51-15.672-21.663-21.662-15.671 10.509-19.585-8.124-3.648-18.5h-30.636l-3.647 18.5-19.586 8.124-15.671-10.509-21.663 21.662 10.509 15.672-8.124 19.585-18.5 3.648v30.636l18.5 3.647 8.124 19.586-10.509 15.671 21.663 21.663 15.671-10.51 19.586 8.125 3.647 18.5h30.636l3.648-18.5 19.585-8.125 15.671 10.51 21.663-21.663-10.51-15.671 8.125-19.586 18.5-3.647z" fill="#f9ac00" fill-rule="evenodd"/><path d="m477.168 424.324-18.5 3.647-8.124 19.586 10.509 15.671-18.073 18.073-13.736-9.211-25.11 10.416-3.648 18.5h-21.693l-3.647-18.5-25.112-10.416-13.735 9.211-18.073-18.073 10.509-15.671-8.124-19.586-18.5-3.647v-30.636l18.5-3.648 8.124-19.585-10.509-15.672 18.073-18.072 13.735 9.211 25.112-10.416 3.647-18.5h21.693l3.648 18.5 25.11 10.416 13.736-9.211 18.073 18.072-10.509 15.672 8.124 19.585 18.5 3.648z" fill="#fdc72e" fill-rule="evenodd"/><circle cx="386.632" cy="409.006" fill="#f9ac00" r="47.327" transform="matrix(.16 -.987 .987 .16 -79.024 725.129)"/><circle cx="394.111" cy="409.006" fill="#f3f3ff" r="47.138"/><path d="m117.882 449.255c-22.076 0-40.103-17.993-40.103-40.103s18.027-40.107 40.103-40.107 40.103 17.988 40.103 40.107-17.979 40.103-40.103 40.103zm140.108-445.256h-.508c-2.627.023-5.255.397-7.964 1.123l-115.151 30.858v.005c-5.35 1.427-9.062 6.276-9.062 11.795s3.711 10.363 9.062 11.795l39.38 10.556v50.485c0 2.458 1.301 4.738 3.422 6.006.096.068.241.135.338.202-1.205 5.582-1.832 11.298-1.832 17.058 0 30.41 17.015 56.925 42.031 70.556-42.079 9.399-79.964 34.025-105.511 69.785-.82 1.186-1.301 2.608-1.301 4.068v22.008h-8.291c-3.326 0-6.218 2.362-6.845 5.644l-2.94 14.798-12.629 5.235-12.532-8.401c-2.747-1.861-6.459-1.504-8.821.863l-21.642 21.628c-2.362 2.367-2.747 6.073-.867 8.85l8.387 12.532-5.206 12.628-14.797 2.916c-3.278.646-5.688 3.523-5.688 6.868v30.583c0 3.345 2.41 6.223 5.688 6.869l14.797 2.916 5.206 12.629-8.387 12.532c-1.88 2.776-1.494 6.483.867 8.85l21.642 21.627c2.362 2.362 6.073 2.728 8.821.863l12.532-8.401 12.629 5.239 2.94 14.793c.627 3.283 3.519 5.644 6.845 5.644h30.607c3.326 0 6.218-2.362 6.844-5.644l2.94-14.793 12.628-5.239 12.532 8.401c2.747 1.865 6.459 1.504 8.82-.863l21.642-21.627c2.362-2.367 2.699-6.074.868-8.85l-8.387-12.532 5.206-12.629 14.798-2.916c3.278-.646 5.639-3.523 5.639-6.869v-30.583c0-3.345-2.362-6.223-5.639-6.868l-14.798-2.916-2.314-5.62h124.02l-2.314 5.62-14.797 2.916c-3.278.646-5.64 3.523-5.64 6.868v30.583c0 3.345 2.362 6.223 5.64 6.869l14.797 2.916 5.254 12.629-8.435 12.532c-1.832 2.776-1.494 6.483.867 8.85l21.642 21.627c2.362 2.362 6.073 2.728 8.869.863l12.532-8.401 12.629 5.239 2.892 14.793c.627 3.283 3.519 5.644 6.893 5.644h30.559c3.326 0 6.218-2.362 6.892-5.644l2.892-14.793 12.628-5.239 12.532 8.401c2.796 1.865 6.507 1.504 8.869-.863l21.594-21.627c2.41-2.367 2.748-6.074.868-8.85l-8.387-12.532 5.254-12.629 14.798-2.916c3.277-.646 5.639-3.523 5.639-6.869v-30.583c0-3.345-2.362-6.223-5.639-6.868l-14.798-2.916-5.254-12.628 8.387-12.532c1.88-2.776 1.542-6.483-.868-8.85l-21.594-21.628c-2.362-2.367-6.073-2.728-8.869-.863l-12.532 8.401-12.628-5.235-2.892-14.798c-.675-3.283-3.567-5.644-6.892-5.644h-8.291v-22.008c0-1.46-.434-2.882-1.301-4.068-25.546-35.76-63.384-60.386-105.463-69.785 24.968-13.631 41.982-40.146 41.982-70.556 0-5.143-.482-10.257-1.494-15.27 1.205-.656 2.362-1.311 3.47-1.996 2.121-1.263 3.422-3.543 3.422-6.001v-50.485l24.341-6.531v23.941c-7.664 2.854-13.159 10.233-13.159 18.885 0 5.172 1.976 9.876 5.206 13.448l-1.06 2.265c-2.169 4.704-3.23 9.308-3.23 14.494v20.654c0 7.813 6.362 14.166 14.171 14.166h11.086c7.809 0 14.171-6.353 14.171-14.166v-20.654c0-5.186-1.012-9.789-3.23-14.494l-1.35-2.94c2.844-3.48 4.579-7.929 4.579-12.773 0-8.657-5.495-16.031-13.159-18.89v-27.686l1.012-.275c5.35-1.432 9.061-6.281 9.061-11.795s-3.711-10.368-9.061-11.8l-115.146-30.857c-2.708-.726-5.337-1.1-7.964-1.123zm-140.108 351.043c-29.836 0-54.081 24.274-54.081 54.11s24.245 54.105 54.081 54.105 54.129-24.274 54.129-54.105-24.293-54.11-54.129-54.11zm276.236 94.213c-22.124 0-40.103-17.993-40.103-40.103s17.979-40.107 40.103-40.107 40.103 17.988 40.103 40.107-17.979 40.103-40.103 40.103zm0-94.213c29.836 0 54.081 24.274 54.081 54.11s-24.245 54.105-54.081 54.105-54.129-24.274-54.129-54.105 24.293-54.11 54.129-54.11zm84.833 63.649-12.821 2.526c-2.265.453-4.194 2.024-5.109 4.189l-8.098 19.555c-.916 2.159-.675 4.632.626 6.579l7.327 10.864-13.496 13.491-10.893-7.288c-1.928-1.306-4.386-1.552-6.555-.651l-19.57 8.112c-2.169.897-3.711 2.815-4.193 5.109l-2.506 12.826h-19.087l-2.506-12.826c-.482-2.294-2.024-4.213-4.194-5.109l-19.569-8.112c-2.169-.901-4.627-.655-6.604.651l-10.845 7.288-13.496-13.491 7.278-10.864c1.301-1.947 1.542-4.42.675-6.579l-8.098-19.555c-.916-2.164-2.844-3.735-5.109-4.189l-12.87-2.526v-19.078l12.87-2.531c2.265-.453 4.193-2.024 5.109-4.184l8.098-19.555c.867-2.164.626-4.637-.675-6.584l-7.278-10.864 13.496-13.492 10.845 7.288c1.976 1.301 4.434 1.552 6.604.651l19.569-8.112c2.169-.892 3.711-2.81 4.194-5.109l2.506-12.826h19.087l2.506 12.826c.482 2.299 2.024 4.217 4.193 5.109l19.57 8.112c2.169.901 4.627.651 6.555-.651l10.893-7.288 13.496 13.492-7.327 10.864c-1.301 1.947-1.542 4.42-.626 6.584l8.098 19.555c.916 2.159 2.844 3.731 5.109 4.184l12.821 2.531zm-276.188-19.078-12.821-2.531c-2.314-.453-4.242-2.024-5.109-4.184l-8.146-19.555c-.868-2.164-.627-4.637.675-6.584l7.278-10.864-13.496-13.492-10.845 7.288c-1.976 1.306-4.434 1.552-6.603.651l-19.521-8.112c-2.169-.892-3.76-2.81-4.193-5.109l-2.555-12.826h-19.039l-2.555 12.826c-.434 2.299-2.024 4.217-4.194 5.109l-19.521 8.112c-2.169.901-4.675.655-6.604-.651l-10.845-7.288-13.496 13.492 7.278 10.864c1.301 1.947 1.542 4.42.627 6.584l-8.098 19.555c-.916 2.159-2.796 3.731-5.109 4.184l-12.821 2.531v19.078l12.821 2.526c2.314.453 4.193 2.024 5.109 4.189l8.098 19.555c.916 2.159.675 4.632-.627 6.579l-7.278 10.864 13.496 13.491 10.845-7.288c1.928-1.306 4.435-1.552 6.604-.651l19.521 8.112c2.169.897 3.76 2.815 4.194 5.109l2.555 12.826h19.039l2.555-12.826c.434-2.294 2.024-4.213 4.193-5.109l19.521-8.112c2.169-.901 4.627-.655 6.603.651l10.845 7.288 13.496-13.491-7.278-10.864c-1.302-1.947-1.543-4.42-.675-6.579l8.146-19.555c.868-2.164 2.796-3.735 5.109-4.189l12.821-2.526zm-77.844-109.053c15.665-21.29 36.102-38.156 59.238-49.569l35.186 56.886c1.109 1.812 2.988 3.017 5.109 3.268.289.034.578.048.82.048 1.831 0 3.615-.718 4.965-2.02l25.787-25.507 25.787 25.507c1.301 1.301 3.085 2.02 4.916 2.02.241 0 .53-.014.819-.048 2.121-.251 4.001-1.456 5.109-3.268l35.186-56.886c23.136 11.409 43.622 28.279 59.287 49.569v19.738h-8.29c-3.374 0-6.266 2.362-6.893 5.644l-2.892 14.798-12.629 5.235-12.532-8.401c-2.796-1.861-6.507-1.504-8.869.863l-21.642 21.628c-2.362 2.367-2.699 6.073-.867 8.85l3.711 5.538h-120.453l3.711-5.538c1.832-2.776 1.494-6.483-.868-8.85l-21.642-21.628c-2.362-2.367-6.073-2.728-8.82-.863l-12.532 8.401-12.628-5.235-2.94-14.798c-.626-3.283-3.519-5.644-6.844-5.644h-8.29zm121.224-26.843-19.521 19.319-29.499-47.738c5.302-2.082 10.749-3.9 16.292-5.408zm9.881-39.529c8.917 0 17.786.762 26.462 2.203l-26.462 27.368-26.51-27.368c8.676-1.441 17.545-2.203 26.462-2.203zm-66.324-80.307c0-3.427.241-6.83.771-10.185 20.533 9.577 43.477 14.595 67.24 14.595 22.558 0 44.344-4.521 64.01-13.144.386 2.887.579 5.803.579 8.734 0 36.555-29.74 66.295-66.276 66.309h-.048c-36.536-.014-66.275-29.754-66.275-66.309zm59.817-53.454c2.796.752 5.495 1.128 8.194 1.128 2.747 0 5.446-.376 8.242-1.128l61.745-16.547v18.977c-20.678 11.602-44.778 17.723-69.987 17.723s-49.261-6.121-69.939-17.723v-18.972zm3.615-71.78c3.23-.863 5.977-.863 9.206 0l105.848 28.356-106.137-9.592c-3.856-.347-7.278 2.492-7.616 6.338-.337 3.851 2.458 7.254 6.362 7.601l72.445 6.555-70.903 19.001c-3.23.863-5.977.863-9.206 0l-108.692-29.127 108.692-29.132zm-65.36 97.939v-7.924c21.16 10.431 45.116 15.916 69.939 15.916s48.827-5.485 69.987-15.916v7.924c-20.678 11.597-44.778 17.704-69.987 17.704s-49.261-6.107-69.939-17.704zm127.153 118.713-29.547 47.738-19.521-19.319 32.728-33.827c5.543 1.509 10.99 3.326 16.34 5.408zm64.299-78.012c0 .077-.048.169-.145.169h-11.086c-.048 0-.145-.092-.145-.169v-20.654c0-3.157.578-5.721 1.88-8.584l.771-1.644c.868.111 1.687.183 2.603.183 1.157 0 2.314-.12 3.422-.313l.82 1.774c1.35 2.863 1.88 5.427 1.88 8.584zm-6.121-44.696c-3.422 0-6.17-2.767-6.17-6.165s2.747-6.165 6.17-6.165c3.374 0 6.121 2.767 6.121 6.165s-2.747 6.165-6.121 6.165z" fill-rule="evenodd"/></svg>