<svg id="_x33_0" enable-background="new 0 0 64 64" height="512" viewBox="0 0 64 64" width="512" xmlns="http://www.w3.org/2000/svg"><g><g><g><path d="m12 24v7l-1.25-2.09c-1.15-1.91-2.77-3.49-4.7-4.6l-.63-.35c-2.11-1.21-3.42-3.46-3.42-5.9 0-1.32.38-2.6 1.11-3.71.72 1.24 1.75 2.29 3.04 3.02 1.08.62 1.96 1.12 1.96 1.12-.07.27-.11.55-.11.84 0 1.05.49 2.04 1.33 2.67z" fill="#656d78"/></g><g><path d="m14.22 10.11h-.01c-1.27.34-2.21 1.51-2.21 2.89v3h-.67c-.92 0-1.75.37-2.35.98-.04.03-.07.06-.87 1.51 0 0-.88-.5-1.96-1.12-1.29-.73-2.32-1.78-3.04-3.02v-.01c-.71-1.23-1.11-2.66-1.11-4.15v-.15c0-4.44 3.6-8.04 8.04-8.04h15.96c1.1 0 2 .9 2 2v3c0 1.63-.79 3.09-2 4-.83.63-1.87 1-3 1-1.33 0-3.94 0-6 0-.83 0-1.58-.34-2.12-.88-.28-.28-.51-.63-.66-1.01z" fill="#656d78"/></g><g><path d="m62 11v10c0 .55-.45 1-1 1h-7l-3.59 3.59c-.26.26-.62.41-1 .41-.78 0-1.41-.63-1.41-1.41v-2.59h-5c-.55 0-1-.45-1-1v-10c0-.55.45-1 1-1h18c.55 0 1 .45 1 1z" fill="#e6e9ed"/></g><g><path d="m44 26c9.94 0 18 8.06 18 18s-8.06 18-18 18c-4.6 0-8.79-1.72-11.97-4.56.92-.97 1.71-2.08 2.33-3.28 2.51 2.38 5.91 3.84 9.64 3.84 3.86 0 7.36-1.57 9.9-4.1 2.53-2.54 4.1-6.04 4.1-9.9s-1.57-7.36-4.1-9.9c-2.54-2.53-6.04-4.1-9.9-4.1-3.15 0-6.06 1.04-8.4 2.8-.37-.48-.95-.8-1.6-.8h-3.42c3.3-3.68 8.09-6 13.42-6z" fill="#ccd1d9"/></g><g><path d="m26 52.92c.61-.34 1.17-.77 1.66-1.26 1.44-1.45 2.34-3.45 2.34-5.66v-6h6v7.45c0 2.42-.59 4.7-1.64 6.71-.62 1.2-1.41 2.31-2.33 3.28-2.65 2.81-6.41 4.56-10.58 4.56h-.38c-8.35 0-15.07-6.72-15.07-15v-2.72c0-4.69 2.32-8.44 6-10.28 1.09.16 2.15.42 3.15.78l-2.15 3.22 7 4-2 2 7.95 4.97c.04.39.05.78.05 1.17z" fill="#b4dd7f"/></g><g><path d="m25.95 48.97-7.95-4.97 2-2-7-4 2.15-3.22c1 .35 1.96.8 2.85 1.33 1.52.9 2.87 2.03 4.01 3.35 2.26 2.6 3.69 5.9 3.94 9.51z" fill="#a0d468"/></g><g><path d="m58 44c0 3.86-1.57 7.36-4.1 9.9-2.54 2.53-6.04 4.1-9.9 4.1-3.73 0-7.13-1.46-9.64-3.84 1.05-2.01 1.64-4.29 1.64-6.71v-7.45-6c0-.45-.15-.86-.4-1.2 2.34-1.76 5.25-2.8 8.4-2.8 3.86 0 7.36 1.57 9.9 4.1 2.53 2.54 4.1 6.04 4.1 9.9z" fill="#75b1f2"/></g><g><path d="m45.41 42.59c.37.36.59.86.59 1.41 0 1.1-.9 2-2 2s-2-.9-2-2c0-.55.22-1.05.59-1.41.36-.37.86-.59 1.41-.59s1.05.22 1.41.59z" fill="#fcd770"/></g><g><path d="m36 34v6h-6l-1.41-1.41c-.38-.38-.59-.89-.59-1.42v-3.17c0-1.1.9-2 2-2h.58 3.42c.65 0 1.23.32 1.6.8.25.34.4.75.4 1.2z" fill="#f0d0b4"/></g><g><path d="m17 12h6c1.13 0 2.17-.37 3-1v3.39c0 .4.12.79.34 1.11l1.3 1.95c.23.36.36.78.36 1.21 0 .82-.46 1.57-1.2 1.94l-.25.12c-.34.17-.55.52-.55.9v.38h-6c0 2.21 1.79 4 4 4h2c0 2.21-1.79 4-4 4h-4v6.11c-.89-.53-1.85-.98-2.85-1.33-1-.36-2.06-.62-3.15-.78v-3-7l-2.67-2c-.84-.63-1.33-1.62-1.33-2.67 0-.29.04-.57.11-.84.8-1.45.83-1.48.87-1.51.6-.61 1.43-.98 2.35-.98h.67v-3c0-1.38.94-2.55 2.21-2.89h.01c.15.38.38.73.66 1.01.54.54 1.29.88 2.12.88z" fill="#f0d0b4"/></g><g><path d="m26 22v4h-2c-2.21 0-4-1.79-4-4z" fill="#ef7385"/></g></g><g><circle cx="22" cy="16" r="1"/><path d="m39.707 38.293-1.414 1.414 3.008 3.008c-.188.391-.301.823-.301 1.285 0 1.654 1.346 3 3 3s3-1.346 3-3c0-.462-.113-.894-.301-1.285l2.008-2.008-1.414-1.414-2.008 2.008c-.391-.188-.823-.301-1.285-.301s-.894.113-1.285.301zm4.293 4.707c.551 0 1 .448 1 1s-.449 1-1 1-1-.448-1-1 .449-1 1-1z"/><path d="m55 15h2v2h-2z"/><path d="m51 15h2v2h-2z"/><path d="m47 15h2v2h-2z"/><path d="m54.414 23h6.586c1.103 0 2-.897 2-2v-10c0-1.103-.897-2-2-2h-18c-1.103 0-2 .897-2 2v10c0 1.103.897 2 2 2h4v1.586c0 .242.047.471.113.692-1.015-.169-2.05-.278-3.113-.278-5.241 0-10.246 2.191-13.83 6h-.17c-1.654 0-3 1.346-3 3v3.172c0 .801.312 1.555.879 2.121l1.121 1.121v5.586c0 1.903-.763 3.631-2 4.895v-.752c0-6.023-3.172-11.445-8-14.556v-4.587h3c2.757 0 5-2.243 5-5l-.001-4.382.248-.123c1.081-.541 1.753-1.629 1.753-2.838 0-.628-.184-1.236-.533-1.759l-1.3-1.95c-.109-.164-.167-.355-.167-.553v-2.934c1.224-1.099 2-2.689 2-4.461v-3c0-1.654-1.346-3-3-3h-15.962c-4.983 0-9.038 4.055-9.038 9.038v.154c0 1.455.359 2.855.984 4.117-.633 1.149-.984 2.428-.984 3.749 0 2.789 1.505 5.382 3.927 6.767l.627.358c1.782 1.019 3.281 2.486 4.336 4.245l1.11 1.849v2.13c-3.767 2.141-6 6.156-6 10.872v2.72c0 8.823 7.21 16.001 16.073 16.001h.376c4.112 0 7.845-1.615 10.629-4.231 3.373 2.725 7.564 4.231 11.922 4.231 10.477 0 19-8.523 19-19 0-7.991-4.965-14.832-11.967-17.635.028-.026.061-.045.088-.072zm-25.414 11c0-.552.449-1 1-1h4c.551 0 1 .448 1 1v5h-4.586l-1.121-1.121c-.186-.187-.293-.444-.293-.707zm16 1v-3.949c2.833.217 5.411 1.341 7.447 3.088l-2.791 2.79 1.414 1.414 2.791-2.79c1.747 2.036 2.871 4.615 3.088 7.447h-3.949v2h3.949c-.217 2.833-1.341 5.411-3.088 7.447l-2.791-2.79-1.414 1.414 2.791 2.79c-2.036 1.747-4.615 2.871-7.447 3.088v-3.949h-2v3.953c-2.74-.209-5.318-1.276-7.414-3.062.899-1.966 1.414-4.142 1.414-6.442v-13.449c0-.3-.058-.583-.14-.857 1.844-1.218 3.936-1.938 6.14-2.104v3.961zm-20.348 11.978-5.056-3.16 2.037-2.037-7.207-4.118 1.1-1.65c4.625 1.925 8.072 6.046 9.126 10.965zm-.652-21.978c-1.304 0-2.416-.836-2.829-2h3.829v2zm1.504-8.941 1.299 1.949c.129.193.197.418.197.649 0 .447-.249.849-.647 1.049l-.247.123c-.49.244-.839.67-1.001 1.171h-6.105v1c0 2.757 2.243 5 5 5h.816c-.414 1.161-1.514 2-2.816 2h-7v2h2v3.477c-1.256-.591-2.596-1.029-4-1.304v-9.673l-3.066-2.3c-.585-.438-.934-1.137-.934-1.867 0-1.286 1.047-2.333 2.333-2.333h1.667v-4c0-.648.321-1.231.819-1.601.731.966 1.878 1.601 3.181 1.601h6.004c.701 0 1.371-.127 1.997-.349v1.744c-.001.595.173 1.17.503 1.664zm-22.504-6.021c0-3.881 3.157-7.038 7.038-7.038h15.962c.551 0 1 .448 1 1v3c0 2.206-1.793 4-3.997 4h-6.003c-1.103 0-2-.897-2-2s.897-2 2-2v-2c-2.206 0-4 1.794-4 4 0 .178.03.349.053.521-1.239.696-2.053 2.011-2.053 3.479v2.013c-1.421.109-2.648.909-3.356 2.061l-1-.572c-2.248-1.284-3.644-3.702-3.644-6.31zm3.546 13.408-.627-.358c-1.8-1.029-2.919-2.957-2.919-5.03 0-.612.104-1.212.29-1.785.668.77 1.453 1.447 2.361 1.966l1.378.788c-.007.102-.029.201-.029.306 0 1.356.648 2.652 1.733 3.467l2.267 1.7v3.022c-1.175-1.657-2.684-3.064-4.454-4.076zm14.904 37.554h-.376c-7.761 0-14.074-6.281-14.074-14.001v-2.72c0-4.057 1.927-7.487 5.171-9.241.475.078.942.18 1.401.301l-1.999 2.998 6.793 3.882-1.963 1.963 8.568 5.354c.009.202.029.402.029.607v2.182c-.91.432-1.927.675-3 .675-3.86 0-7-3.141-7-7h-2c0 4.963 4.038 9 9 9s9-4.037 9-9v-5h4v6.449c0 7.472-6.079 13.551-13.55 13.551zm39.55-17c0 9.374-7.626 17-17 17-3.846 0-7.546-1.311-10.542-3.683.422-.513.799-1.062 1.154-1.626 2.658 2.138 5.944 3.309 9.388 3.309 8.271 0 15-6.729 15-15s-6.729-15-15-15c-2.994 0-5.847.876-8.311 2.523-.482-.329-1.063-.523-1.689-.523h-.92c3.044-2.554 6.903-4 10.92-4 9.374 0 17 7.626 17 17zm-18-23v-10h18v10h-7.414l-3.878 3.878c-.241.241-.708.045-.708-.292v-3.586z"/></g></g></svg>