<?xml version="1.0" encoding="UTF-8" standalone="no"?>
<!-- Created with Inkscape (http://www.inkscape.org/) -->

<svg
   version="1.1"
   id="svg4491"
   xml:space="preserve"
   width="682.66669"
   height="682.66669"
   viewBox="0 0 682.66669 682.66669"
   xmlns="http://www.w3.org/2000/svg"
   xmlns:svg="http://www.w3.org/2000/svg"><defs
     id="defs4495"><clipPath
       clipPathUnits="userSpaceOnUse"
       id="clipPath4515"><path
         d="M 0,512 H 512 V 0 H 0 Z"
         id="path4513" /></clipPath></defs><g
     id="g4497"
     transform="matrix(1.3333333,0,0,-1.3333333,0,682.66667)"><g
       id="g4499"
       transform="translate(504.5,7.5)"><path
         d="M 0,0 H -30 L -90,218.5 -30,497 H 0 Z"
         style="fill:#acd2f6;fill-opacity:1;fill-rule:nonzero;stroke:none"
         id="path4501" /></g><g
       id="g4503"
       transform="translate(474.5,7.5)"><path
         d="M 0,0 H -30 L -90,218.5 -30,497 H 0 Z"
         style="fill:#95b0ed;fill-opacity:1;fill-rule:nonzero;stroke:none"
         id="path4505" /></g><path
       d="m 444.5,7.5 h -332 v 105 h 332 z"
       style="fill:#acd2f6;fill-opacity:1;fill-rule:nonzero;stroke:none"
       id="path4507" /><g
       id="g4509"><g
         id="g4511"
         clip-path="url(#clipPath4515)"><g
           id="g4517"
           transform="translate(324.5,242.5)"><path
             d="m 0,0 -212,-130 h -90 c 0,-24.853 20.147,-45 45,-45 H 45 Z"
             style="fill:#c4f3ff;fill-opacity:1;fill-rule:nonzero;stroke:none"
             id="path4519" /></g><g
           id="g4521"
           transform="translate(324.5,242.5)"><path
             d="m 0,0 v -130 c 0,-24.853 20.147,-45 45,-45 H 75 V 0 Z"
             style="fill:#acd2f6;fill-opacity:1;fill-rule:nonzero;stroke:none"
             id="path4523" /></g><g
           id="g4525"
           transform="translate(414.5,504.5)"><path
             d="m 0,0 -30,-434.43 c 4.693,-1.659 9.739,-2.57 15,-2.57 24.853,0 45,20.147 45,45 V 0 Z"
             style="fill:#c4f3ff;fill-opacity:1;fill-rule:nonzero;stroke:none"
             id="path4527" /></g><g
           id="g4529"
           transform="translate(112.5,504.5)"><path
             d="m 0,0 v -392 h 242 c 0,-19.592 12.524,-36.25 30,-42.43 17.476,6.18 30,22.838 30,42.43 v 30 332 30 z"
             style="fill:#ffffff;fill-opacity:1;fill-rule:nonzero;stroke:none"
             id="path4531" /></g><g
           id="g4533"
           transform="translate(422,251.2998)"><path
             d="m 0,0 c 0,-4.142 -3.358,-7.5 -7.5,-7.5 -4.142,0 -7.5,3.358 -7.5,7.5 0,4.143 3.358,7.5 7.5,7.5 C -3.358,7.5 0,4.143 0,0"
             style="fill:#000000;fill-opacity:1;fill-rule:nonzero;stroke:none"
             id="path4535" /></g><g
           id="g4537"
           transform="translate(422,196.9004)"><path
             d="m 0,0 c 0,-4.143 -3.358,-7.5 -7.5,-7.5 -4.142,0 -7.5,3.357 -7.5,7.5 0,4.142 3.358,7.5 7.5,7.5 C -3.358,7.5 0,4.142 0,0"
             style="fill:#000000;fill-opacity:1;fill-rule:nonzero;stroke:none"
             id="path4539" /></g><g
           id="g4541"
           transform="translate(422,305.7002)"><path
             d="m 0,0 c 0,-4.143 -3.358,-7.5 -7.5,-7.5 -4.142,0 -7.5,3.357 -7.5,7.5 0,4.142 3.358,7.5 7.5,7.5 C -3.358,7.5 0,4.142 0,0"
             style="fill:#000000;fill-opacity:1;fill-rule:nonzero;stroke:none"
             id="path4543" /></g><g
           id="g4545"
           transform="translate(422,360.0996)"><path
             d="m 0,0 c 0,-4.142 -3.358,-7.5 -7.5,-7.5 -4.142,0 -7.5,3.358 -7.5,7.5 0,4.143 3.358,7.5 7.5,7.5 C -3.358,7.5 0,4.143 0,0"
             style="fill:#000000;fill-opacity:1;fill-rule:nonzero;stroke:none"
             id="path4547" /></g><g
           id="g4549"
           transform="translate(384.5,474.5)"><path
             d="M 0,0 H -121 L -152.982,-105 0,-60 Z"
             style="fill:#ff545a;fill-opacity:1;fill-rule:nonzero;stroke:none"
             id="path4551" /></g><g
           id="g4553"
           transform="translate(142.5,474.5)"><path
             d="m 0,0 v -60 l 121,-45 V 0 Z"
             style="fill:#ff7647;fill-opacity:1;fill-rule:nonzero;stroke:none"
             id="path4555" /></g><g
           id="g4557"
           transform="translate(263.5,414.5)"><path
             d="M 0,0 -47.974,-128.5 0,-272 H 121 V 0 Z"
             style="fill:#c4f3ff;fill-opacity:1;fill-rule:nonzero;stroke:none"
             id="path4559" /></g><path
           d="m 142.5,142.5 h 121 v 272 h -121 z"
           style="fill:#ffffff;fill-opacity:1;fill-rule:nonzero;stroke:none"
           id="path4561" /><g
           id="g4563"
           transform="translate(112.5,383.167)"><path
             d="m 0,0 v -210 c 57.99,0 105,47.01 105,105 C 105,-47.011 57.99,0 0,0"
             style="fill:#c4f3ff;fill-opacity:1;fill-rule:nonzero;stroke:none"
             id="path4565" /></g><g
           id="g4567"
           transform="translate(187.5,278.167)"><path
             d="m 0,0 c 0,57.989 -33.579,105 -75,105 -57.99,0 -105,-47.011 -105,-105 0,-57.99 47.01,-105 105,-105 41.421,0 75,47.01 75,105"
             style="fill:#ffffff;fill-opacity:1;fill-rule:nonzero;stroke:none"
             id="path4569" /></g><g
           id="g4571"
           transform="translate(120,203.167)"><path
             d="m 0,0 c 0,-4.143 -3.358,-7.5 -7.5,-7.5 -4.142,0 -7.5,3.357 -7.5,7.5 0,4.142 3.358,7.5 7.5,7.5 C -3.358,7.5 0,4.142 0,0"
             style="fill:#000000;fill-opacity:1;fill-rule:nonzero;stroke:none"
             id="path4573" /></g><g
           id="g4575"
           transform="translate(156.4951,216.9648)"><path
             d="m 0,0 c 2.071,-3.587 0.842,-8.174 -2.745,-10.245 -3.587,-2.071 -8.174,-0.842 -10.245,2.745 -2.072,3.587 -0.842,8.174 2.745,10.245 C -6.658,4.816 -2.071,3.587 0,0"
             style="fill:#000000;fill-opacity:1;fill-rule:nonzero;stroke:none"
             id="path4577" /></g><g
           id="g4579"
           transform="translate(81.4951,346.8682)"><path
             d="m 0,0 c 2.071,-3.587 0.842,-8.174 -2.745,-10.245 -3.587,-2.07 -8.174,-0.842 -10.245,2.745 -2.072,3.588 -0.842,8.175 2.745,10.245 C -6.658,4.816 -2.071,3.588 0,0"
             style="fill:#000000;fill-opacity:1;fill-rule:nonzero;stroke:none"
             id="path4581" /></g><g
           id="g4583"
           transform="translate(181.2021,247.1621)"><path
             d="m 0,0 c 3.587,-2.071 4.816,-6.658 2.745,-10.245 -2.071,-3.588 -6.658,-4.817 -10.245,-2.745 -3.587,2.07 -4.816,6.657 -2.745,10.245 C -8.174,0.842 -3.587,2.071 0,0"
             style="fill:#000000;fill-opacity:1;fill-rule:nonzero;stroke:none"
             id="path4585" /></g><g
           id="g4587"
           transform="translate(51.2983,322.1621)"><path
             d="m 0,0 c 3.587,-2.071 4.816,-6.658 2.745,-10.245 -2.071,-3.588 -6.658,-4.817 -10.245,-2.745 -3.587,2.07 -4.816,6.657 -2.745,10.245 C -8.174,0.842 -3.587,2.071 0,0"
             style="fill:#000000;fill-opacity:1;fill-rule:nonzero;stroke:none"
             id="path4589" /></g><g
           id="g4591"
           transform="translate(37.5,285.667)"><path
             d="M 0,0 C 4.142,0 7.5,-3.358 7.5,-7.5 7.5,-11.643 4.142,-15 0,-15 c -4.142,0 -7.5,3.357 -7.5,7.5 0,4.142 3.358,7.5 7.5,7.5"
             style="fill:#000000;fill-opacity:1;fill-rule:nonzero;stroke:none"
             id="path4593" /></g><g
           id="g4595"
           transform="translate(173.7021,322.1621)"><path
             d="M 0,0 C 3.587,2.071 8.174,0.842 10.245,-2.745 12.316,-6.333 11.087,-10.92 7.5,-12.99 3.913,-15.062 -0.674,-13.833 -2.745,-10.245 -4.816,-6.658 -3.587,-2.071 0,0"
             style="fill:#000000;fill-opacity:1;fill-rule:nonzero;stroke:none"
             id="path4597" /></g><g
           id="g4599"
           transform="translate(43.7983,247.1621)"><path
             d="M 0,0 C 3.587,2.071 8.174,0.842 10.245,-2.745 12.316,-6.333 11.087,-10.92 7.5,-12.99 3.913,-15.062 -0.674,-13.833 -2.745,-10.245 -4.816,-6.658 -3.587,-2.071 0,0"
             style="fill:#000000;fill-opacity:1;fill-rule:nonzero;stroke:none"
             id="path4601" /></g><g
           id="g4603"
           transform="translate(143.5049,346.8682)"><path
             d="M 0,0 C 2.071,3.588 6.658,4.816 10.245,2.745 13.833,0.675 15.062,-3.912 12.99,-7.5 10.919,-11.087 6.333,-12.315 2.745,-10.245 -0.842,-8.174 -2.071,-3.587 0,0"
             style="fill:#000000;fill-opacity:1;fill-rule:nonzero;stroke:none"
             id="path4605" /></g><g
           id="g4607"
           transform="translate(68.5049,216.9648)"><path
             d="M 0,0 C 2.071,3.587 6.658,4.816 10.245,2.745 13.833,0.674 15.062,-3.913 12.99,-7.5 10.919,-11.087 6.333,-12.316 2.745,-10.245 -0.842,-8.174 -2.071,-3.587 0,0"
             style="fill:#000000;fill-opacity:1;fill-rule:nonzero;stroke:none"
             id="path4609" /></g><g
           id="g4611"
           transform="translate(217.5,278.167)"><path
             d="m 0,0 c 0,-57.99 -47.01,-105 -105,-105 -57.99,0 -105,47.01 -105,105 0,57.989 47.01,105 105,105 C -47.01,105 0,57.989 0,0 Z"
             style="fill:none;stroke:#000000;stroke-width:15;stroke-linecap:round;stroke-linejoin:round;stroke-miterlimit:10;stroke-dasharray:none;stroke-opacity:1"
             id="path4613" /></g><g
           id="g4615"
           transform="translate(187.5,278.167)"><path
             d="M 0,0 H -75 V 75"
             style="fill:none;stroke:#000000;stroke-width:15;stroke-linecap:round;stroke-linejoin:round;stroke-miterlimit:10;stroke-dasharray:none;stroke-opacity:1"
             id="path4617" /></g><g
           id="g4619"
           transform="translate(474.5,504.5)"><path
             d="M 0,0 V -497"
             style="fill:none;stroke:#000000;stroke-width:15;stroke-linecap:round;stroke-linejoin:round;stroke-miterlimit:10;stroke-dasharray:none;stroke-opacity:1"
             id="path4621" /></g><g
           id="g4623"
           transform="translate(399.5,67.5)"><path
             d="m 0,0 h -332 c -24.853,0 -45,20.147 -45,45 H -45 C -45,20.147 -24.853,0 0,0 24.853,0 45,20.147 45,45 v 392"
             style="fill:none;stroke:#000000;stroke-width:15;stroke-linecap:round;stroke-linejoin:round;stroke-miterlimit:10;stroke-dasharray:none;stroke-opacity:1"
             id="path4625" /></g><g
           id="g4627"
           transform="translate(504.5,504.5)"><path
             d="m 0,0 v -497 h -392 v 60"
             style="fill:none;stroke:#000000;stroke-width:15;stroke-linecap:round;stroke-linejoin:round;stroke-miterlimit:10;stroke-dasharray:none;stroke-opacity:1"
             id="path4629" /></g><g
           id="g4631"
           transform="translate(112.5,383.167)"><path
             d="M 0,0 V 121.333 H 392"
             style="fill:none;stroke:#000000;stroke-width:15;stroke-linecap:round;stroke-linejoin:round;stroke-miterlimit:10;stroke-dasharray:none;stroke-opacity:1"
             id="path4633" /></g><g
           id="g4635"
           transform="translate(112.5,112.5)"><path
             d="M 0,0 V 60.667"
             style="fill:none;stroke:#000000;stroke-width:15;stroke-linecap:round;stroke-linejoin:round;stroke-miterlimit:10;stroke-dasharray:none;stroke-opacity:1"
             id="path4637" /></g><g
           id="g4639"
           transform="translate(384.5,444.5)"><path
             d="M 0,0 V 30 H -242 V -65.689"
             style="fill:none;stroke:#000000;stroke-width:15;stroke-linecap:round;stroke-linejoin:round;stroke-miterlimit:10;stroke-dasharray:none;stroke-opacity:1"
             id="path4641" /></g><g
           id="g4643"
           transform="translate(142.5,177.5234)"><path
             d="m 0,0 v -35.023 h 242 v 272 H 0"
             style="fill:none;stroke:#000000;stroke-width:15;stroke-linecap:round;stroke-linejoin:round;stroke-miterlimit:10;stroke-dasharray:none;stroke-opacity:1"
             id="path4645" /></g><g
           id="g4647"
           transform="translate(263.5,142.5)"><path
             d="M 0,0 V 332"
             style="fill:none;stroke:#000000;stroke-width:15;stroke-linecap:round;stroke-linejoin:round;stroke-miterlimit:10;stroke-dasharray:none;stroke-opacity:1"
             id="path4649" /></g></g></g></g></svg>
