<svg id="_x33_0" enable-background="new 0 0 60 62" height="512" viewBox="0 0 60 62" width="512" xmlns="http://www.w3.org/2000/svg"><g><g><g><path d="m37 14.32c-.91.44-1.93.68-3 .68h-2-10-1c-1.1 0-2.1.45-2.83 1.17-.72.73-1.17 1.73-1.17 2.83h-1c-1.38 0-2.63.56-3.54 1.46-.9.91-1.46 2.16-1.46 3.54 0 2.76 2.24 5 5 5h1v11.6c-3.92-.8-7.42-2.74-10.14-5.46-3.62-3.62-5.86-8.62-5.86-14.14 0-11.05 8.95-20 20-20h13c1.94 0 3.68.78 4.95 2.05s2.05 3.01 2.05 4.95c0 2.8-1.63 5.2-4 6.32z" fill="#656d78"/></g><g><path d="m31 55v-13c0-.04 0-.08-.01-.12 5.88 1.61 10.01 6.96 10.01 13.12 0 1.66-.67 3.16-1.76 4.24-1.08 1.09-2.58 1.76-4.24 1.76h-4z" fill="#fcd770"/></g><g><path d="m17 55v6h-6c-3.31 0-6-2.69-6-6 0-3.08 1.03-5.96 2.8-8.27s4.27-4.05 7.21-4.85c-.01.04-.01.08-.01.12v13z" fill="#fcd770"/></g><g><path d="m22.12 55.88c.54.54.88 1.29.88 2.12 0 1.66-1.34 3-3 3h-3v-6h3c.83 0 1.58.34 2.12.88z" fill="#f0d0b4"/></g><g><path d="m37 14.33v14.67h-10c0 2.21.9 4.21 2.34 5.66 1.45 1.44 3.45 2.34 5.66 2.34h.92c-1.37 2.39-3.96 4-6.92 4h-8c-1.37 0-2.71-.14-4-.4v-11.6h-1c-2.76 0-5-2.24-5-5 0-1.38.56-2.63 1.46-3.54.91-.9 2.16-1.46 3.54-1.46h1c0-1.1.45-2.1 1.17-2.83.73-.72 1.73-1.17 2.83-1.17h1 10 2c1.07 0 2.09-.24 3-.68z" fill="#f0d0b4"/></g><g><path d="m30 41c.51 0 .93.39.99.88.01.04.01.08.01.12v13 6h-11c1.66 0 3-1.34 3-3 0-.83-.34-1.58-.88-2.12s-1.29-.88-2.12-.88h-3-2v-13c0-.04 0-.08.01-.12.06-.49.48-.88.99-.88h5 8z" fill="#e6e9ed"/></g><g><circle cx="31" cy="21" fill="#969faa" r="2"/></g><g><path d="m43 33h16v16h-16z" fill="#ff826e"/></g><g><path d="m43 13h16v16h-16z" fill="#ff826e"/></g><g><path d="m37 29v4c0 1.46-.39 2.83-1.07 4h-.01-.92c-2.21 0-4.21-.9-5.66-2.34-1.44-1.45-2.34-3.45-2.34-5.66z" fill="#ff826e"/></g></g><g><path d="m14 22v2c1.103 0 2 .897 2 2h2c0-2.206-1.794-4-4-4z"/><path d="m32.466 41.304c3.247-1.36 5.534-4.569 5.534-8.304v-18.082c2.387-1.386 4-3.964 4-6.918 0-4.411-3.589-8-8-8h-13c-11.579 0-21 9.42-21 21 0 9.248 6.016 17.102 14.334 19.897-.037.056-.065.118-.096.178-6.052 1.897-10.238 7.541-10.238 13.925 0 3.86 3.141 7 7 7h24c3.859 0 7-3.14 7-7 0-6.135-3.862-11.596-9.534-13.696zm-12.466 12.696h-4v-12h14v18h-6.556c.344-.591.556-1.268.556-2 0-2.206-1.794-4-4-4zm15.315-18h-.315c-3.521 0-6.442-2.612-6.929-6h7.929v3c0 1.075-.251 2.089-.685 3zm.685-8h-10v1c0 4.61 3.485 8.416 7.959 8.935-1.269 1.274-3.023 2.065-4.959 2.065h-8c-1.021 0-2.022-.081-3-.236v-11.764h-2c-2.206 0-4-1.794-4-4s1.794-4 4-4h2v-1c0-1.654 1.346-3 3-3h13c.692 0 1.359-.097 2-.263zm-34-7c0-10.477 8.523-19 19-19h13c3.309 0 6 2.691 6 6 0 2.768-1.887 5.098-4.441 5.787.273-.54.441-1.142.441-1.787 0-2.206-1.794-4-4-4v2c1.103 0 2 .897 2 2s-.897 2-2 2h-10c-1.103 0-2-.897-2-2s.897-2 2-2v-2c-2.206 0-4 1.794-4 4 0 .944.342 1.802.892 2.487-1.41.662-2.472 1.948-2.791 3.513h-.101c-3.309 0-6 2.691-6 6s2.691 6 6 6v9.333c-8.059-2.201-14-9.586-14-18.333zm4 34c0-5.212 3.232-9.853 8-11.727v10.727h-5v2h7v4h-5c-2.757 0-5-2.243-5-5zm12 5v-4h2c1.103 0 2 .897 2 2s-.897 2-2 2zm17 0h-3v-4h5v-2h-5v-10.727c4.768 1.874 8 6.515 8 11.727 0 2.757-2.243 5-5 5z"/><path d="m31 18c-1.654 0-3 1.346-3 3s1.346 3 3 3 3-1.346 3-3-1.346-3-3-3zm0 4c-.552 0-1-.449-1-1s.448-1 1-1 1 .449 1 1-.448 1-1 1z"/><path d="m56.753 17.659-1.506-1.318-6.296 7.196-2.244-2.244-1.414 1.414 3.756 3.756z"/><path d="m42 12v18h18v-18zm16 16h-14v-14h14z"/><path d="m48.951 43.537-2.244-2.244-1.414 1.414 3.756 3.756 7.704-8.804-1.506-1.318z"/><path d="m42 50h18v-18h-18zm2-16h14v14h-14z"/><path d="m44 52h4v2h-4z"/><path d="m50 52h10v2h-10z"/><path d="m44 56h16v2h-16z"/><path d="m44 60h2v2h-2z"/><path d="m48 60h2v2h-2z"/><path d="m52 60h2v2h-2z"/></g></g></svg>