
<svg id="Layer_1" enable-background="new 0 0 512 512" viewBox="0 0 512 512" xmlns="http://www.w3.org/2000/svg"><g><g><path d="m403.5 380.7c-2.8 3.8-7.9 9.9-15.8 14.8s-15.2 6.5-19.7 7.2c-.6-25.1-33.8-25.1-34.4 0h-138.6c-.6-25.1-33.8-25.1-34.4 0-4.5-.7-11.7-2.3-19.7-7.2-7.8-4.9-13-10.9-15.8-14.8 3.1-12.1 13.2-21.7 26-21.8h226.4c12.6 0 22.9 9.4 26 21.8z" fill="#ffb09e"/><path d="m404.1 394.3s-5.3 30.9-5.3 30.9l-4.9 28.8c-1.8 11-10.2 18.8-19.9 18.8h-219.3c-9.7 0-18.1-7.9-19.9-18.8l-4.9-28.8c-1-9.4-8-35.4-4.7-44.5 2.8 3.9 7.9 9.9 15.8 14.8s15.2 6.5 19.6 7.2c.6-25.1 33.8-25.1 34.4 0h138.7c.6-25.1 33.8-25.1 34.4 0 4.4-.6 11.7-2.3 19.6-7.2s13-10.9 15.8-14.8c1.1 4.2 1.4 8.9.6 13.6z" fill="#fd8087"/><path d="m374.5 358.9h-220.3c5.8-11.5 24.5-48.3 30.6-60.4 5.3-10.5 15.4-17 26.3-17h106.3c10.9 0 20.9 6.5 26.3 17 6.3 12.2 24.8 48.8 30.8 60.4z" fill="#ffb09e"/><path d="m162.7 353.7 26.8-52.9c4.4-8.7 12.7-14.1 21.7-14.1h106.3c8.9 0 17.2 5.4 21.7 14.1l26.9 52.9z" fill="#f3f0f3"/><path d="m362.3 116h-18.6c-2.2-8.6-5.6-16.8-10-24.2l13.1-13.1c2.3-2.3 2.3-6 0-8.3l-23-23c-2.3-2.3-6-2.3-8.3 0l-13.2 13.2c-7.4-4.5-15.6-7.9-24.2-10v-18.7c0-3.2-2.6-5.8-5.8-5.8h-32.6c-3.2 0-5.8 2.6-5.8 5.8v18.6c-8.6 2.2-16.8 5.6-24.2 10l-13.1-13.2c-2.3-2.3-6-2.3-8.3 0l-23 23c-2.3 2.3-2.3 6 0 8.3l13.1 13.1c-4.4 7.4-7.9 15.6-10 24.2h-18.6c-3.2 0-5.8 2.6-5.8 5.8v32.6c0 3.2 2.6 5.8 5.8 5.8h18.6c2.2 8.6 5.6 16.8 10 24.2l-13.1 13.1c-2.3 2.3-2.3 6 0 8.3l23 23c2.3 2.3 6 2.3 8.3 0l13.1-13.1c7.4 4.4 15.6 7.9 24.2 10v18.6c0 3.2 2.6 5.8 5.8 5.8h32.6c3.2 0 5.8-2.6 5.8-5.8v-18.6c8.6-2.2 16.8-5.6 24.2-10l13.2 13.1c2.3 2.3 6 2.3 8.3 0l23-23c2.3-2.3 2.3-6 0-8.3l-13.1-13.1c4.4-7.5 7.9-15.6 10-24.2h18.6c3.2 0 5.8-2.6 5.8-5.8v-32.6c0-3.1-2.6-5.7-5.8-5.7zm-106.2 76.7c-30.1 0-54.6-24.4-54.6-54.6 2.9-72.4 106.3-72.4 109.2 0 0 30.2-24.5 54.6-54.6 54.6z" fill="#05e39c"/><g><path d="m500.9 386.4v44.6c0 5-3.6 9-8.2 9h-23.2c-5.8 0-8.8-5.9-8.2-11.6h17.7c8.6 0 15.9-6.9 17.5-16.6z" fill="#606060"/></g><path d="m505.1 347.1c-2.5 3.4-7.1 8.7-13.9 13-6.9 4.3-13.4 5.8-17.3 6.4-.5-22.2-29.9-22.1-30.4 0h-48c-4.7-4.6-10.9-7.5-17.9-7.5v-.1h-3.1c-3.9-7.6-12-23.5-15.8-31h123.4c11.1 0 20.2 8.3 23 19.2z" fill="#ffd880"/><path d="m505.5 359.1-4.6 27.3-4.3 25.4c-1.6 9.7-9 16.6-17.5 16.6h-80.2c-.5-1.9 2.3-16.4 2.6-18.6 0 0 2.6-15.5 2.6-15.5 1.8-10-1.4-20.9-8.6-27.8h48c.5-22.1 29.9-22.1 30.4 0 3.9-.6 10.4-2.1 17.3-6.3 7-4.3 11.4-9.6 14-13 .8 3.7 1 7.7.3 11.9z" fill="#f9b63e"/><path d="m479.4 328h-120.7c-1.6-3-13-25.8-14.9-29.5-5.4-10.5-15.5-17-26.3-17h-8.9l3.5-6.9c4.7-9.3 13.6-15 23.2-15h93.8c9.6 0 18.5 5.7 23.2 15 5.5 10.8 21.9 43 27.1 53.4z" fill="#f9b63e"/><path d="m470.9 322.8h-114.8l-12.2-24.3c-5.9-11.6-17.3-17.8-29.3-17 3.7-9 11-16.9 20.8-16.7h93.8c7.6 0 14.8 4.6 18.6 12.1-.1.1 23.1 45.9 23.1 45.9z" fill="#f3f0f3"/><g><path d="m505 308.6c.7 10.2-6.6 19.4-16.1 19.3h-9.6l-8-15.7c3.1-3.4 7.4-5.5 12.2-5.5h19.8c1 0 1.7.9 1.7 1.9z" fill="#f9b63e"/></g><path d="m425.8 409.8h-24.4c.9-6.7 4.2-19.4 2.8-26 7.1 1.5 13 5.7 15.4 11.3z" fill="#606060"/><g><path d="m50.8 428.4c.7 5.6-2.3 11.6-8.2 11.6h-23.2c-4.5 0-8.2-4.1-8.2-9v-44.6l4.3 25.4c1.6 9.7 9 16.6 17.5 16.6z" fill="#606060"/></g><path d="m169.9 327.9c-4.9 9.6-10.9 21.4-15.7 31-7.8-.4-15.6 2-21 7.6h-64.5c-.5-22.1-29.8-22.2-30.3 0-3.9-.6-10.3-2.1-17.3-6.4-6.9-4.3-11.4-9.6-13.9-13h-.1c2.8-10.9 11.9-19.2 23-19.2z" fill="#ffd880"/><path d="m127.3 409.8c.3 2.3 3.1 16.6 2.6 18.6h-96.8c-8.5 0-15.9-6.9-17.5-16.6l-4.3-25.4c-.9-8.3-7-31.2-4.2-39.3 2.5 3.4 7 8.7 14 13s13.4 5.7 17.3 6.3c.5-22.2 29.9-22.1 30.3 0h64.5c-7.2 6.9-10.4 17.8-8.6 27.8 0 .1 2.7 15.6 2.7 15.6z" fill="#f9b63e"/><path d="m204 282.5c-8.3 2.3-14.9 7.9-19.1 16-1.9 3.7-13.3 26.3-14.9 29.5h-137.3c5.1-10.1 21.6-42.6 27-53.3 4.7-9.3 13.6-15 23.2-15h93.7c9.6 0 18.5 5.7 23.2 15z" fill="#f9b63e"/><path d="m198.9 284.5c-5.8 2.9-10.8 7.7-14 14.1l-12.3 24.3h-131.4l23.2-45.9c3.8-7.5 10.9-12.1 18.6-12.1h93.7c8.5-.1 16.3 6 19.7 14.4h.1c.8 1.7 1.6 3.4 2.4 5.2z" fill="#f3f0f3"/><g><path d="m40.7 312.2-8 15.7h-9.6c-8.9 0-16.1-7.9-16.1-17.7-.1-1.3-.1-3.5 1.7-3.5h19.8c4.8 0 9.1 2.2 12.2 5.5z" fill="#f9b63e"/></g><g fill="#e2dee2"><path d="m473.8 366.4c-1 24.1-32.8 20.9-30.2-2.6 2.8 18.6 27.2 18.6 30 0 .1.9.2 1.8.2 2.6z"/><path d="m68.7 366.4c-1 24.1-32.8 20.9-30.2-2.6 2.8 18.6 27.2 18.6 30 0 .2.9.2 1.8.2 2.6z"/></g><g fill="#f3f0f3"><path d="m473.6 363.9c-2.8 18.6-27.2 18.6-30 0 2.8-18.7 27.2-18.7 30 0z"/><path d="m68.5 363.9c-2.8 18.6-27.2 18.6-30 0 2.8-18.7 27.3-18.7 30 0z"/></g><path d="m127.3 409.8h-41l6.3-14.7c3-7.1 11.5-11.9 21.1-11.9h11c-1.7 6.8 1.6 19.6 2.6 26.6z" fill="#606060"/><g fill="#606060"><path d="m174.7 472.8c.8 6.4-2.7 13.1-9.3 13.1h-26.3c-5.1 0-9.3-4.6-9.3-10.2v-50.5l4.9 28.8c1.8 11 10.2 18.8 19.9 18.8z"/><path d="m398.8 425.2v50.5c0 5.6-4.1 10.2-9.3 10.2h-26.3c-6.6 0-10-6.7-9.3-13.1h20c9.7 0 18.1-7.9 19.9-18.8z"/></g><g fill="#e2dee2"><path d="m195 402.6c-1.2 27.7-37.7 23.3-34.1-3.5 3.6 20.4 30.3 20.4 33.8 0 .2 1.2.3 2.3.3 3.5z"/><path d="m368.1 402.6c-1.2 27.7-37.7 23.3-34.1-3.5 3.6 20.4 30.2 20.4 33.8 0 .2 1.2.3 2.3.3 3.5z"/></g><g fill="#f3f0f3"><path d="m194.7 399.1c-3.5 20.4-30.2 20.4-33.8 0 3.5-20.5 30.3-20.5 33.8 0z"/><path d="m367.8 399.1c-3.6 20.4-30.2 20.4-33.8 0 3.5-20.5 30.3-20.5 33.8 0z"/></g><path d="m214.9 451.7 7.1-16.7c3.4-8 13.1-13.4 23.9-13.4h36.8c10.9 0 20.5 5.4 23.9 13.4l7.1 16.7z" fill="#606060"/></g><g><g><path d="m272.3 255.4h-32.6c-6.1 0-11-4.9-11-11v-14.6c-6.3-1.9-12.4-4.4-18.1-7.5l-10.3 10.3c-4.1 4.3-11.5 4.3-15.6 0 0 0-23-23-23-23-4.3-4.3-4.3-11.3 0-15.6l10.3-10.3c-3.1-5.8-5.6-11.9-7.5-18.2h-14.6c-6.1 0-11-4.9-11-11v-32.5c0-6.1 4.9-11 11-11h14.6c1.9-6.3 4.4-12.4 7.5-18.1l-10.3-10.3c-4.3-4.3-4.3-11.3 0-15.6l23-23c4.3-4.3 11.3-4.3 15.6 0l13.2 13.2c4.8 4.8-2.5 12.1-7.3 7.3 0 0-13.1-13.2-13.1-13.2-.2-.2-.7-.3-.9 0l-23 23c-.3.3-.2.7 0 .9l13.1 13.1c1.7 1.7 2 4.3.8 6.3-4.2 7.1-7.4 14.8-9.4 22.8-.6 2.3-2.7 3.9-5 3.9h-18.6c-.4 0-.7.3-.7.7v32.5c0 .4.3.7.7.7h18.6c2.4 0 4.5 1.6 5 3.9 2 8 5.2 15.7 9.4 22.8 1.2 2 .9 4.6-.8 6.3l-13.3 13.1c-.3.3-.2.7 0 .9l23 23h.9l13.1-13.1c1.7-1.7 4.3-2 6.3-.8 7.1 4.3 14.8 7.4 22.8 9.4 2.3.6 3.9 2.6 3.9 5v18.6c0 .4.3.7.7.7h32.6c.4 0 .7-.3.7-.7v-18.6c0-2.4 1.6-4.5 3.9-5 8-2 15.6-5.2 22.8-9.4 2-1.2 4.6-.9 6.3.8l13.2 13.1h.9l23-23v-.9l-13.1-13.2c-1.7-1.7-2-4.3-.8-6.3 4.3-7.2 7.5-14.8 9.5-22.8.6-2.3 2.6-3.9 5-3.9h18.6c.4 0 .7-.3.7-.7 0-2.9 2.3-5.2 5.2-5.2s5.2 2.3 5.2 5.2c0 6.1-4.9 11-11 11h-14.6c-1.9 6.3-4.4 12.4-7.5 18.2l10.3 10.3c4.3 4.1 4.3 11.5 0 15.6 0 0-23 23-23 23-4.1 4.3-11.5 4.3-15.6 0 0 0-10.4-10.3-10.4-10.3-5.8 3.1-11.9 5.7-18.1 7.5v14.6c-.1 6.1-5.1 11.1-11.2 11.1zm-16.2-57.5c-33 0-59.8-26.8-59.8-59.8 0-21 11.3-40.8 29.4-51.5 5.9-3.4 11.1 5.4 5.3 8.9-42.9 25.7-25 91.7 25.1 92 65.5-2.7 65.5-96.1 0-98.8-2.9 0-5.2-2.3-5.2-5.2s2.3-5.2 5.2-5.2c79.3 3.3 79.2 116.3 0 119.6zm112-58.3c-2.9 0-5.2-2.3-5.2-5.2v-12.6c0-.4-.3-.7-.7-.7h-18.6c-2.4 0-4.5-1.6-5-3.9-2-8-5.2-15.7-9.5-22.8-1.2-2-.9-4.6.8-6.3l13.2-13.1v-.9l-23-23c-.3-.2-.7-.3-.9 0l-13.2 13.2c-1.7 1.7-4.3 2-6.3.8-7.1-4.3-14.8-7.4-22.8-9.5-2.3-.6-3.9-2.7-3.9-5v-18.7c0-.4-.3-.7-.7-.7h-32.6c-.4 0-.7.3-.7.7v18.6c-.1 5.9-7.4 5.4-11.3 7.3-2.7.9-5.7-.5-6.6-3.2-1.7-5.1 3.6-7.2 7.6-8v-14.7c0-6.1 4.9-11 11-11h32.6c6.1 0 11 4.9 11 11v14.6c6.3 1.9 12.4 4.4 18.2 7.5l10.4-10.4c4.3-4.3 11.3-4.3 15.6 0l23 23c4.3 4.1 4.3 11.5 0 15.6 0 0-10.3 10.3-10.3 10.3 3.1 5.8 5.7 11.9 7.5 18.1h14.6c6.1 0 11 4.9 11 11v12.6c0 3.1-2.3 5.4-5.2 5.4z" fill="#231f20"/></g><g fill="#231f20"><path d="m510.2 346.3c-1.5-6.7-5.3-12.5-10-16.6 6.1-4 10.1-11.3 10.1-19.4.6-4.4-2.4-8.8-6.9-8.7-7.3.5-23.8-1.7-30.1 2.7l-16.3-32c-5.6-11-16.2-17.8-27.8-17.8-2.9 0-5.2 2.3-5.2 5.2s2.3 5.2 5.2 5.2c7.6 0 14.7 4.7 18.6 12.1 0 0 18.9 37.2 18.9 37.3s.1.2.1.3l4.2 8.2s-108.9 0-109 0c-1.1 0-5.5-11.6-6.2-13-7.1-16-19.1-33.9-38.6-33.4 3.9-7.1 10.8-11.5 18.3-11.5h63.5c6.8-.1 6.8-10.3 0-10.4h-63.5c-13.3-.3-24.7 9.3-29.9 21.9h-94.3c-1.5 0-2.9.1-4.4.3-5.2-12.7-16.7-22.5-30.1-22.2h-93.7c-11.6 0-22.2 6.8-27.8 17.8-3 6 6.1 10.7 9.2 4.7 3.8-7.5 10.9-12.1 18.6-12.1h93.7c8.7-.2 16.5 6.4 20 14.9-16 8-22.3 28.1-30 43h-125.6c2.8-5.5 11.3-22.3 14.2-28.1 3-6.1-6.1-10.8-9.2-4.7 0 0-7.3 14.3-7.3 14.3-6.3-4.5-22.9-2.3-30.1-2.8-4.5-.1-7.4 4.3-6.8 8.7 0 8.2 4 15.4 10 19.4-8.3 6.9-12.5 19.5-10.5 30.3 0 0 4.6 27.1 4.6 27.1v43.9c0 7.8 6 14.2 13.3 14.2h23.2c6.5 0 12-5 13.2-11.6h68.9v42.2c0 8.5 6.5 15.4 14.4 15.4h26.3c7.2 0 13.2-5.7 14.3-13.1h25.9c6.8 0 6.8-10.3 0-10.4h-51c-7.2 0-13.4-6.1-14.8-14.5-1.7-9.7-5.8-34.4-7.5-43.9 0-.2-2.6-15.5-2.6-15.7 7.4 6.6 16.3 11.4 26.1 13.5 4.5 25.6 38.5 26.2 43.9.8h129.4c5.4 25.5 39.4 24.8 43.9-.8 9.6-2.1 18.6-6.8 25.9-13.4-3.3 19.8-6.9 39.8-10.1 59.6-1.4 8.4-7.6 14.5-14.7 14.5h-120.8c-2.9 0-5.2 2.3-5.2 5.2s2.3 5.2 5.2 5.2h95.7c1 7.4 7.1 13.1 14.3 13.1h26.3c8 0 14.5-6.9 14.5-15.4v-42.2h52.3c1.2 6.6 6.6 11.6 13.2 11.6h23.2c7.4 0 13.4-6.4 13.4-14.2v-44.2c1-9.4 7-31.3 4-40.5zm-375.1 121.4c3.5 4.7 8.6 8.4 14.4 9.7 3.6 1.1 15.7.4 19.5.6-.7 1.6-2.1 2.7-3.6 2.7h-26.3c-5.6-.2-3.7-9.3-4-13zm258.6 8c0 2.7-1.9 5-4.1 5h-26.3c-1.6 0-2.9-1.1-3.6-2.7 2.3-.1 15.4.2 17.3-.2 6.7-.8 12.7-4.7 16.7-10.1zm89.9-163.8h16.2c-.7 6.2-5.3 10.9-10.8 10.9h-6.4l-4.7-9.2c1.7-1.2 3.7-1.7 5.7-1.7zm-315.8 31.7s6.7-13.2 6.7-13.2.2-.3.2-.3c10-15.5 14.1-42.5 36.6-43.4h106.3c8.9 0 17.2 5.4 21.7 14.1 0 .2 14.9 29.2 14.9 29.5h-.1c.1.1.2.2.3.4 0 0 11.7 23 11.7 23h-203.4zm-139.2-31.7c2 0 3.9.6 5.7 1.7l-4.7 9.2h-6.4c-5.5 0-10.1-4.7-10.8-10.9zm14 122.9h-23.2c-3.9-.1-2.8-6.5-3-9.1 3.6 4.2 8.5 7.1 14 7.7 1.8.4 12.3.1 14.3.2-.5.7-1.2 1.2-2.1 1.2zm-9.5-11.6c-3 0-5.8-1.3-8-3.5h-.1c-.5-.6-1.1-1.2-1.5-1.8 0 0 0 0 0-.1-3.6-3.2-5.9-27.3-7.3-32.6 0 0-4.3-25.3-4.3-25.4 6.2 5.3 13.8 9 21.6 10.9 4.4 22.6 34.6 23.3 39.7.8h49.8c-1.1 2-1.8 4.2-2.5 6.4h-6.9c-11.7 0-22 6-25.9 15l-6.3 14.7c-.7 1.6-.5 3.4.5 4.9.9 1.5 2.6 2.3 4.3 2.3h36.6l1.4 8.2h-91.1zm10.5-56.7c.5-15.8 19.9-14.8 20 0-.3 15.1-19.8 15.1-20 0zm75.5 23.4c-.1.9.1 1.8.2 2.7-.1.1-.1.1 0 .2.1 1.6 1.7 10.1 1.9 11.8h-27l3.2-7.5c2.2-5.1 8.9-8.7 16.3-8.7h5.3c-.1.5-.1 1 .1 1.5zm-45.8-28.6c-5.6-21.2-33.2-22.7-39.3-1-8.3-2.3-15.9-7.4-21.2-14.2 2.9-7.7 9.7-12.9 17.2-12.9h131.4c-.3.7-2.4 4.8-2.7 5.3 0 0-10.4 15.3-10.4 15.4-5.6.7-11.2 2.7-15.7 6.3-.9.7-1.4 1.1-2.5 1.1-18.9 0-37.9 0-56.8 0zm104.5 55.1c-15.9-.5-15.8-27.2 0-27.6 15.8.4 15.9 27.2 0 27.6zm173.1 0c-15.9-.5-15.8-27.2 0-27.6 15.9.4 15.9 27.1 0 27.6zm44.5-34c-6.1 6.5-14.1 11.9-22.9 14-6.4-24.2-38.3-23.4-43.5 1h-129.3c-5.2-24.4-37.2-25.2-43.6-1-9.9-2.6-19.1-8.6-25.2-16.9 2.9-8.8 11.4-15.6 20.8-15.5h225.1c9.9-.2 17.6 6.8 21 15.6-.7 1-1.5 1.9-2.4 2.8zm2.1-21.1c-5.5-4.8-12.6-7.4-19.8-7.6l-10.4-20.6h114.9c7.5 0 14.3 5.2 17.2 12.9-5.4 6.7-12.8 11.8-21.1 14.2-3.9-15.2-22.7-21.4-33.8-9.5-2.8 2.8-4.7 6.6-5.6 10.5h-41.4zm58.3-5.9c15-4.2 17.8 21.9 2.9 22.6-11.4 0-13.8-18.9-2.9-22.6zm-46.2 36c4.8 2.5 6.4 8.8 8.4 13.2h-10.4c.4-2.7 1.9-10.6 2-13.2zm86.1 39.5c0 2.1-1.3 3.8-3 3.8h-23.2c-.8 0-1.6-.5-2.1-1.2 3.6-.2 13.2.5 16.5-.6 4.6-1 8.7-3.7 11.8-7.3zm.1-45.6c.1 0-4.4 25.6-4.4 25.6-1.2 7.1-6.4 12.3-12.4 12.3h-74.6l1.4-8.2h20c3.6.1 6.3-3.9 4.8-7.2 0 0-6.3-14.7-6.3-14.7-2.6-6.2-8.4-11-15.7-13.4-.1-.3-.2-.7-.3-.9-.4-1.1-.7-2.4-1.2-3.5-.4-1.2-1-2.4-1.6-3.5h33.2c5.1 22.5 35.4 21.8 39.7-.8 7.9-1.8 15.3-5.6 21.5-10.8z"/><path d="m160.8 386.9c.4-.5.8-.9 1.2-1.4-.5.4-.9.9-1.2 1.4z"/><path d="m162 385.5c.5-.6 1-1.1 1.6-1.6-.6.5-1.2 1-1.6 1.6z"/><path d="m165.3 382.6c.4-.3.7-.5 1.1-.8-.4.2-.8.4-1.1.8z"/><path d="m158.1 391.1c.3-.5.6-1 .8-1.5-.3.5-.6.9-.8 1.5z"/><path d="m318.1 454.6c.9-1.5 1.1-3.3.4-4.9l-7.1-16.7c-4.2-10-15.8-16.6-28.7-16.6h-36.7c-13 0-24.5 6.6-28.7 16.6l-7.1 16.7c-1.5 3.3 1.2 7.3 4.8 7.2h98.8c1.7 0 3.3-.9 4.3-2.3zm-95.3-8.1 4-9.5c2.6-6.1 10.5-10.3 19.2-10.3h36.8c8.7 0 16.6 4.2 19.1 10.3l4 9.5z"/></g></g></g></svg>