<svg id="Layer_1" enable-background="new 0 0 512 512" viewBox="0 0 512 512" xmlns="http://www.w3.org/2000/svg"><g clip-rule="evenodd" fill-rule="evenodd"><path d="m31.8 86h428.5c11.7 0 21.3 9.6 21.3 21.3v291.7c0 11.7-9.6 21.3-21.3 21.3h-428.5c-11.7 0-21.3-9.6-21.3-21.3v-291.6c-.1-11.8 9.5-21.4 21.3-21.4z" fill="#c980da"/><path d="m31.8 78.9h428.5c15.7 0 28.5 12.8 28.5 28.5v291.7c0 7.8-3.2 15-8.4 20.1s-12.3 8.4-20.1 8.4h-428.5c-7.8 0-14.9-3.2-20.1-8.4-5.2-5.2-8.4-12.3-8.4-20.1v-291.7c0-7.8 3.2-14.9 8.4-20.1 5.1-5.2 12.2-8.4 20.1-8.4zm428.4 14.3h-428.4c-3.9 0-7.4 1.6-10 4.2s-4.2 6.1-4.2 10v291.7c0 7.8 6.4 14.2 14.2 14.2h428.5c3.9 0 7.5-1.6 10-4.2 2.6-2.6 4.2-6.1 4.2-10v-291.7c-.1-7.8-6.4-14.2-14.3-14.2z" fill="#2a2927"/><path d="m481.6 379.5h-471.2v-272.1c0-11.8 9.6-21.4 21.4-21.4h428.5c11.7 0 21.3 9.6 21.3 21.3z" fill="#f9f8f4"/><path d="m481.6 386.6h-471.2c-3.9 0-7.2-3.2-7.2-7.2v-272c0-15.7 12.8-28.5 28.5-28.5h428.5c8.1 0 15.4 3.3 20.6 8.8 4.9 5.1 7.9 12.1 7.9 19.7v272.1c0 3.9-3.2 7.1-7.1 7.1zm-464-14.3h456.8v-264.9c0-3.9-1.6-7.5-4.2-10-2.6-2.6-6.1-4.2-10-4.2h-428.4c-7.8 0-14.2 6.4-14.2 14.2z" fill="#2a2927"/><path d="m181.6 420.4h128.9v43.2h-128.9z" fill="#fccb30"/><path d="m181.6 413.3h128.9c3.9 0 7.2 3.2 7.2 7.2v43.2c0 4-3.2 7.2-7.2 7.2h-128.9c-4 0-7.2-3.2-7.2-7.2v-43.2c0-4 3.2-7.2 7.2-7.2zm121.7 14.3h-114.6v28.9h114.6z" fill="#2a2927"/><path d="m361.2 504.5v-20.5c0-11.3-9.2-20.5-20.5-20.5h-189.5c-11.3 0-20.5 9.2-20.5 20.5v20.5z" fill="#c980da"/><path d="m354.1 497.4v-13.4c0-7.3-6-13.3-13.3-13.3h-189.6c-7.3 0-13.3 6-13.3 13.3v13.3h216.2zm14.3-13.4v20.5c0 3.9-3.2 7.2-7.2 7.2h-230.4c-3.9 0-7.2-3.2-7.2-7.2v-20.5c0-15.2 12.4-27.6 27.6-27.6h189.5c15.3 0 27.7 12.4 27.7 27.6z" fill="#2a2927"/><path d="m55.6 133.9h246v245.6h-246z" fill="#fccb30"/><path d="m55.6 126.7h246c3.9 0 7.2 3.2 7.2 7.2v245.6c0 3.9-3.2 7.2-7.2 7.2h-246c-4 0-7.2-3.2-7.2-7.2v-245.6c.1-3.9 3.3-7.2 7.2-7.2zm238.9 14.4h-231.7v231.3h231.7z" fill="#2a2927"/><path d="m142.6 105.8h-29.6c-6.2 0-11.3 5.1-11.3 11.3v262.4h52.2v-262.4c0-6.2-5.1-11.3-11.3-11.3z" fill="#c980da"/><path d="m142.6 112.9h-29.6c-2.3 0-4.2 1.9-4.2 4.2v255.3h37.9v-255.3c0-2.3-1.9-4.2-4.1-4.2zm-29.6-14.3h29.6c10.2 0 18.5 8.3 18.5 18.5v262.4c0 3.9-3.2 7.2-7.2 7.2h-52.2c-4 0-7.2-3.2-7.2-7.2v-262.4c0-10.2 8.3-18.5 18.5-18.5z" fill="#2a2927"/><path d="m127.8 103c-16.6 0-30.1 13.5-30.1 30.1v33.2c1.1 39.7 59.1 39.7 60.2 0v-33.2c0-16.6-13.6-30.1-30.1-30.1z" fill="#f9f8f4"/><path d="m127.8 110.1c-12.7 0-22.9 10.3-22.9 22.9v33.2c-.7 19.9 25.7 30.6 39.1 16.2 4.2-4.2 6.7-9.9 6.7-16.2v-33.2c0-6.3-2.6-12.1-6.7-16.2-4.2-4.1-9.9-6.7-16.2-6.7zm0-14.3c20.5 0 37.2 16.8 37.3 37.2v33.2c-1.6 49.2-72.9 49.2-74.5 0v-33.2c-.1-20.4 16.7-37.2 37.2-37.2z" fill="#2a2927"/><path d="m122.6 7.5s59.2 26.2 59.2 93.2c0 42.6-27.3 65-53.9 64.4-56.8-1.1-72.5-73.1-42.8-102.8 13.1-13.1 31.4-26.1 37.5-54.8z" fill="#fccb30"/><path d="m125.7 1.1c3.7 1.7 63.1 30.1 63.1 99.6.4 39-23.7 71-60.2 71.6-62 1.7-88-85.2-42.1-121.2 11.3-10.6 24.3-22.9 29-45 1-4.6 6.2-7.1 10.2-5zm48.9 99.6c0-47.9-32.4-73.4-47.5-82.6-8.3 24.7-22.4 34.9-36.9 49.3-19.3 19.9-15.5 57.4 3.9 76.7 34.3 32.2 82.4 5.4 80.5-43.4z" fill="#2a2927"/><path d="m195.1 227.3h65.4v152.2h-65.4z" fill="#fccb30"/><path d="m202.3 372.3h51.1v-137.9h-51.1zm58.2 14.3h-65.4c-3.9 0-7.2-3.2-7.2-7.2v-152.1c0-3.9 3.2-7.2 7.2-7.2h65.4c4 0 7.2 3.2 7.2 7.2v152.2c0 3.9-3.2 7.1-7.2 7.1z" fill="#2a2927"/><path d="m260.5 227.3h-65.4l32.7-59.5z" fill="#f9f8f4"/><path d="m260.5 234.4h-65.4c-5.5.2-9.1-6.5-6-11l32.5-59.1c1.9-3.5 6.2-4.7 9.7-2.8 1.2.7 2.2 1.7 2.8 2.8l32.7 59.4c2.6 4.7-1 10.8-6.3 10.7zm-53.3-14.3h41.2l-20.6-37.5z" fill="#2a2927"/><path d="m350.7 133.9h48.1c5.4 0 9.8 4.4 9.8 9.8v48.1c0 5.4-4.4 9.8-9.8 9.8h-48.1c-5.4 0-9.8-4.4-9.8-9.8v-48.1c.1-5.4 4.5-9.8 9.8-9.8z" fill="#f9f8f4"/><path d="m350.7 126.7h48.1c4.6 0 8.9 1.9 11.9 5 3.1 3 5 7.3 5 11.9v48.1c0 9.3-7.6 16.9-16.9 16.9h-48.1c-9.3 0-16.9-7.7-16.9-16.9v-48.1c0-9.2 7.7-16.9 16.9-16.9zm48.1 14.4h-48.1c-.7 0-1.4.3-1.9.8s-.7 1.1-.7 1.8v48.1c0 1.5 1.2 2.6 2.6 2.6h48.1c1.4 0 2.6-1.2 2.6-2.6v-48.1c0-.7-.3-1.4-.8-1.8-.4-.6-1-.8-1.8-.8z" fill="#2a2927"/><path d="m429.1 287v36zm36.2 15.9v20.1zm-72.4-30.9v51zm-36.2-71.2v151.6l-38.2-38.2c-17.1-16.5-42.1 8.4-25.6 25.6 0 0 65.5 117.6 133.4 117.6 76.4-2.9 75.8-99.4 75.3-132.2v-22.2c-.5-23.8-35.7-23.8-36.2 0v-16c-.5-23.8-35.8-23.8-36.2 0 0-3.5 0-11.5 0-15.1-.5-23.8-35.8-23.8-36.2 0v-71.2c-.6-23.7-35.9-23.7-36.3.1z" fill="#ffdebb"/><g fill="#2a2927"><path d="m436.3 287v36h-14.3v-51c0-6-4.9-11-11-11-6 0-11 4.9-11 11v51h-14.3v-122.2c0-6-4.9-11-11-11-6 0-11 4.9-11 11v151.6c.2 6.2-8 9.6-12.2 5.1l-38.2-38.2c-4.2-4.2-11.3-4.2-15.5 0-5.3 5.2-3.3 12.6 1.4 17.4 9.2 19.4 108.7 174.7 174.5 88.1 17.9-26.1 20.6-64.1 20.6-77.4v-44.3c0-3-1.2-5.7-3.2-7.7-6.4-6.9-19-1.8-18.7 7.7v19.9h-14.3v-36c-.2-14.4-21.6-14.4-21.8 0zm-86.8 48.1v-134.3c0-13.9 11.3-25.3 25.3-25.3 13.9 0 25.3 11.3 25.3 25.3v48.4c13.5-6.9 31.3 1.1 35.2 15.6 13.7-7.9 32.8.4 36.4 15.8 16.1-9 37.5 3.7 37 22.3v44.3c1.1 36.5-17.4 119.6-82.4 117.2-68.5.5-145.3-119.9-145.9-137.6-.7-21.6 28.1-33.9 43.1-17.9 0 .1 26 26.2 26 26.2z"/><path d="m400 323c0 9.3-14.3 9.4-14.3 0v-51c0-13.9 11.3-25.3 25.3-25.3 13.9 0 25.3 11.3 25.3 25.3v51c0 9.3-14.3 9.4-14.3 0v-51c0-6-4.9-11-11-11-6 0-11 4.9-11 11z"/><path d="m436.3 323c0 9.3-14.3 9.4-14.3 0v-36c0-13.9 11.3-25.3 25.3-25.3 13.9 0 25.3 11.3 25.3 25.3v36c0 9.3-14.3 9.4-14.3 0v-36c0-6-4.9-11-11-11-6 0-11 4.9-11 11z"/><path d="m472.5 323c0 9.3-14.3 9.4-14.3 0v-20.1c-.7-22 28.4-33.7 43.1-17.8 4.6 4.6 7.4 10.9 7.4 17.8v44.3c0 9.3-14.3 9.4-14.3 0v-44.3c0-3-1.2-5.7-3.2-7.7-6.4-6.9-19-1.8-18.7 7.7z"/><path d="m385.7 272c0-9.3 14.3-9.4 14.3 0v51c0 9.3-14.3 9.4-14.3 0z"/><path d="m421.9 281.2c0-9.3 14.3-9.4 14.3 0v41.8c0 9.3-14.3 9.4-14.3 0z"/><path d="m458.2 281.2c0-9.3 14.3-9.4 14.3 0v41.8c0 9.3-14.3 9.4-14.3 0z"/></g></g></svg>