<svg id="Capa_1" enable-background="new 0 0 512 512" height="512" viewBox="0 0 512 512" width="512" xmlns="http://www.w3.org/2000/svg"><g><g><path d="m111 420h-70v77c0 8.284 6.716 15 15 15h40c8.284 0 15-6.716 15-15z" fill="#af705c"/><path d="m471 420h-70v77c0 8.284 6.716 15 15 15h40c8.284 0 15-6.716 15-15z" fill="#63544f"/></g><g><g><g><g><g><path d="m466 100h-99.844c-6.134 0-11.649 3.734-13.927 9.429l-24.229 60.571h-27c-8.284 0-15 6.716-15 15v30h156.155l37.772-94.429c3.941-9.853-3.315-20.571-13.927-20.571z" fill="#453d83"/></g><path d="m171 100h-40c-46.869 0-85 38.131-85 85v30c0 8.284 6.716 15 15 15h180c8.284 0 15-6.716 15-15v-30c0-46.869-38.131-85-85-85z" fill="#46f8ff"/><g><path d="m171 100h-20v130h90c8.284 0 15-6.716 15-15v-30c0-46.869-38.131-85-85-85z" fill="#2ebeef"/></g><path d="m151 0c-33.084 0-60 26.916-60 60s26.916 60 60 60 60-26.916 60-60-26.916-60-60-60z" fill="#ffe4c2"/><path d="m211 60c0-33.084-26.916-60-60-60v120c33.084 0 60-26.916 60-60z" fill="#f2d1a5"/></g></g></g></g><g><path d="m497 200h-482c-8.284 0-15 6.716-15 15v220c0 8.284 6.716 15 15 15h482c8.284 0 15-6.716 15-15v-220c0-8.284-6.716-15-15-15z" fill="#c6865c"/><g><path d="m497 200h-241v250h241c8.284 0 15-6.716 15-15v-220c0-8.284-6.716-15-15-15z" fill="#af705c"/></g></g><g><path d="m240.201 375c0 8.284-6.716 15-15 15s-15-6.716-15-15v-36.715h-39.201v36.715c0 8.284-6.716 15-15 15s-15-6.716-15-15v-100c0-8.284 6.716-15 15-15s15 6.716 15 15v33.285h39.201v-33.285c0-8.284 6.716-15 15-15s15 6.716 15 15z" fill="#f6f9f9"/><path d="m324.323 339.029c15.617-6.06 26.677-20.823 26.677-38.04 0-22.601-19.047-40.989-42.459-40.989h-26.574c-.005 0-.011.001-.016.001s-.011-.001-.016-.001c-8.284 0-15 6.716-15 15v100c0 8.284 6.716 15 15 15s15-6.716 15-15v-21.682l27.806 31.592c5.473 6.219 14.951 6.823 21.17 1.35 6.219-5.473 6.823-14.951 1.35-21.17zm-15.782-27.051c-2.767 0-7.103.016-11.472.036-.02-4.246-.036-8.417-.036-11.024 0-2.255-.01-6.538-.021-10.989h11.529c6.754 0 12.459 5.032 12.459 10.989 0 5.955-5.706 10.988-12.459 10.988z" fill="#e2dff4"/></g></g></svg>