<svg version="1.1" id="Capa_1" xmlns="http://www.w3.org/2000/svg" xmlns:xlink="http://www.w3.org/1999/xlink" x="0px" y="0px" viewBox="0 0 512 512" style="enable-background:new 0 0 512 512;" xml:space="preserve">
<g>
	<path style="fill:#925CB4;" d="M500.019,504.5h-26.582l-62.125-15.531L349.188,504.5h-31.062L256,488.969L193.875,504.5h-31.062&#10;&#9;&#9;l-62.125-15.531L38.562,504.5H11.981c-2.475,0-4.481-2.006-4.481-4.481v-22.101c0-2.475,2.006-4.481,4.481-4.481h488.039&#10;&#9;&#9;c2.475,0,4.481,2.006,4.481,4.481v22.101C504.5,502.494,502.494,504.5,500.019,504.5z"/>
	<path style="fill:#FEA95C;" d="M137.812,442.375h-74.25c-13.807,0-25,11.193-25,25V504.5h124.25v-37.125&#10;&#9;&#9;C162.812,453.568,151.62,442.375,137.812,442.375z"/>
	<path style="fill:#FEA95C;" d="M374.188,442.375h74.25c13.807,0,25,11.193,25,25V504.5h-124.25v-37.125&#10;&#9;&#9;C349.188,453.568,360.38,442.375,374.188,442.375z"/>
	<path style="fill:#FEA95C;" d="M293.125,442.375h-74.25c-13.807,0-25,11.193-25,25V504.5h124.25v-37.125&#10;&#9;&#9;C318.125,453.568,306.932,442.375,293.125,442.375z"/>
	<path style="fill:#FE9738;" d="M144.817,443.37c0.648,2.223,0.995,4.573,0.995,7.005V482.5c0,2.761-2.239,5-5,5H38.563v17h124.25&#10;&#9;&#9;v-37.125C162.812,456,155.215,446.399,144.817,443.37z"/>
	<path style="fill:#FE9738;" d="M455.442,443.37c0.648,2.223,0.995,4.573,0.995,7.005V482.5c0,2.761-2.239,5-5,5h-102.25v17h124.25&#10;&#9;&#9;v-37.125C473.438,456,465.84,446.399,455.442,443.37z"/>
	<path style="fill:#FE9738;" d="M300.13,443.37c0.648,2.223,0.995,4.573,0.995,7.005V482.5c0,2.761-2.239,5-5,5h-102.25v17h124.25&#10;&#9;&#9;v-37.125C318.125,456,310.527,446.399,300.13,443.37z"/>
	<circle style="fill:#FEA95C;" cx="100.688" cy="380.25" r="31.062"/>
	<circle style="fill:#FEA95C;" cx="256" cy="380.25" r="31.062"/>
	<circle style="fill:#FEA95C;" cx="411.312" cy="380.25" r="31.062"/>
	<path style="fill:#FE9738;" d="M100.688,349.188c-3.499,0-6.862,0.579-10,1.645c12.249,4.163,21.062,15.761,21.062,29.417&#10;&#9;&#9;s-8.813,25.255-21.062,29.417c3.138,1.066,6.501,1.645,10,1.645c17.155,0,31.062-13.907,31.062-31.062&#10;&#9;&#9;S117.843,349.188,100.688,349.188z"/>
	<path style="fill:#FE9738;" d="M411.312,349.188c-3.499,0-6.862,0.579-10,1.645c12.249,4.163,21.062,15.761,21.062,29.417&#10;&#9;&#9;s-8.813,25.255-21.062,29.417c3.138,1.066,6.501,1.645,10,1.645c17.155,0,31.062-13.907,31.062-31.062&#10;&#9;&#9;S428.468,349.188,411.312,349.188z"/>
	<path style="fill:#FE9738;" d="M256,349.188c-3.499,0-6.862,0.579-10,1.645c12.249,4.163,21.062,15.761,21.062,29.417&#10;&#9;&#9;s-8.813,25.255-21.062,29.417c3.138,1.066,6.501,1.645,10,1.645c17.155,0,31.062-13.907,31.062-31.062S273.155,349.188,256,349.188&#10;&#9;&#9;z"/>
	<path style="fill:#925CB4;" d="M484.5,318.125h-457c-11.046,0-20-8.954-20-20V27.5c0-11.046,8.954-20,20-20h457&#10;&#9;&#9;c11.046,0,20,8.954,20,20v270.625C504.5,309.171,495.546,318.125,484.5,318.125z"/>
	<path style="fill:#BBEC6C;" d="M473.438,287.062H43.562c-2.761,0-5-2.239-5-5v-238.5c0-2.761,2.239-5,5-5h424.875&#10;&#9;&#9;c2.761,0,5,2.239,5,5V287.062z"/>
	<path style="fill:#A2E62E;" d="M468.438,38.563h-15v223.5c0,2.761-2.239,5-5,5H38.563v15c0,2.761,2.239,5,5,5h429.875v-243.5&#10;&#9;&#9;C473.438,40.801,471.199,38.563,468.438,38.563z"/>
	<path style="fill:#FFFFFF;" d="M346.424,147.094l-13.179-6.589c-1.2-0.6-2.092-1.664-2.521-2.936&#10;&#9;&#9;c-1.133-3.354-2.485-6.608-4.04-9.743c-0.595-1.199-0.716-2.578-0.293-3.848l4.663-13.99c0.599-1.797,0.131-3.777-1.208-5.117&#10;&#9;&#9;l-15.905-15.905c-1.339-1.339-3.32-1.807-5.117-1.208l-13.99,4.663c-1.27,0.423-2.649,0.302-3.848-0.293&#10;&#9;&#9;c-3.135-1.555-6.389-2.907-9.743-4.04c-1.272-0.429-2.335-1.321-2.936-2.522l-6.589-13.179c-0.847-1.694-2.578-2.764-4.472-2.764&#10;&#9;&#9;h-22.493c-1.894,0-3.625,1.07-4.472,2.764l-6.589,13.179c-0.6,1.201-1.664,2.092-2.936,2.522c-3.354,1.133-6.608,2.485-9.743,4.04&#10;&#9;&#9;c-1.199,0.595-2.578,0.716-3.848,0.293l-13.99-4.663c-1.797-0.599-3.778-0.131-5.117,1.208l-15.905,15.905&#10;&#9;&#9;c-1.339,1.339-1.807,3.32-1.208,5.117l4.663,13.99c0.423,1.27,0.302,2.649-0.293,3.848c-1.555,3.135-2.907,6.388-4.04,9.743&#10;&#9;&#9;c-0.429,1.272-1.321,2.335-2.521,2.936l-13.179,6.589c-1.694,0.847-2.764,2.578-2.764,4.472v22.493c0,1.894,1.07,3.625,2.764,4.472&#10;&#9;&#9;l13.179,6.589c1.2,0.6,2.092,1.664,2.521,2.935c1.133,3.354,2.485,6.608,4.04,9.743c0.595,1.199,0.716,2.578,0.293,3.848&#10;&#9;&#9;l-4.663,13.99c-0.599,1.797-0.131,3.777,1.208,5.117l15.905,15.905c1.339,1.339,3.32,1.807,5.117,1.208l13.99-4.663&#10;&#9;&#9;c1.27-0.423,2.649-0.302,3.848,0.293c3.135,1.555,6.389,2.907,9.743,4.04c1.272,0.429,2.335,1.321,2.936,2.522l6.589,13.179&#10;&#9;&#9;c0.847,1.694,2.578,2.764,4.472,2.764h22.493c1.894,0,3.625-1.07,4.472-2.764l6.589-13.179c0.6-1.201,1.664-2.092,2.935-2.522&#10;&#9;&#9;c3.354-1.133,6.608-2.485,9.743-4.04c1.199-0.595,2.578-0.716,3.848-0.293l13.99,4.663c1.797,0.599,3.778,0.131,5.117-1.208&#10;&#9;&#9;l15.905-15.905c1.339-1.339,1.807-3.32,1.208-5.117l-4.663-13.99c-0.423-1.27-0.302-2.649,0.293-3.848&#10;&#9;&#9;c1.555-3.135,2.907-6.389,4.04-9.743c0.429-1.272,1.321-2.335,2.521-2.935l13.179-6.589c1.694-0.847,2.764-2.578,2.764-4.472&#10;&#9;&#9;v-22.493C349.188,149.672,348.117,147.941,346.424,147.094z M256,201.641c-21.444,0-38.828-17.384-38.828-38.828&#10;&#9;&#9;c0-21.444,17.384-38.828,38.828-38.828c21.444,0,38.828,17.384,38.828,38.828C294.828,184.257,277.444,201.641,256,201.641z"/>
	<path style="fill:#EAF6FF;" d="M346.424,147.094l-13.179-6.589c-1.2-0.6-2.092-1.664-2.521-2.936&#10;&#9;&#9;c-0.652-1.93-1.377-3.826-2.17-5.686c0.419,3.585,0.635,7.232,0.635,10.93C329.188,194.279,287.466,236,236,236&#10;&#9;&#9;c-3.697,0-7.344-0.216-10.929-0.635c1.86,0.794,3.756,1.519,5.686,2.17c1.272,0.429,2.335,1.321,2.936,2.522l6.589,13.179&#10;&#9;&#9;c0.847,1.694,2.578,2.764,4.472,2.764h22.493c1.894,0,3.625-1.07,4.472-2.764l6.589-13.179c0.6-1.201,1.664-2.092,2.935-2.522&#10;&#9;&#9;c3.354-1.133,6.608-2.485,9.743-4.04c1.199-0.595,2.578-0.716,3.848-0.293l13.99,4.663c1.797,0.599,3.778,0.131,5.117-1.208&#10;&#9;&#9;l15.905-15.905c1.339-1.339,1.807-3.32,1.208-5.117l-4.663-13.99c-0.423-1.27-0.302-2.649,0.293-3.848&#10;&#9;&#9;c1.555-3.135,2.907-6.389,4.04-9.743c0.429-1.272,1.321-2.335,2.521-2.935l13.179-6.589c1.694-0.847,2.764-2.578,2.764-4.472&#10;&#9;&#9;v-22.493C349.188,149.672,348.117,147.941,346.424,147.094z"/>
	<path style="fill:#B289C9;" d="M468.438,349.188H323.125c-2.761,0-5-2.239-5-5v-57.125h155.312v57.125&#10;&#9;&#9;C473.438,346.949,471.199,349.188,468.438,349.188z"/>
	<path style="fill:#A274BF;" d="M453.438,287.062v37.125c0,2.761-2.239,5-5,5H318.125v15c0,2.761,2.239,5,5,5h145.312&#10;&#9;&#9;c2.761,0,5-2.239,5-5v-57.125H453.438z"/>
	
		<line style="fill:none;stroke:#000000;stroke-width:15;stroke-linecap:round;stroke-linejoin:round;stroke-miterlimit:10;" x1="317.125" y1="318.125" x2="274.828" y2="318.125"/>
	<path style="fill:none;stroke:#000000;stroke-width:15;stroke-linecap:round;stroke-linejoin:round;stroke-miterlimit:10;" d="&#10;&#9;&#9;M239.828,318.125H27.5c-11.046,0-20-8.954-20-20V27.5c0-11.046,8.954-20,20-20h457c11.046,0,20,8.954,20,20v270.625&#10;&#9;&#9;c0,11.046-8.954,20-20,20h-10.062"/>
	<path style="fill:none;stroke:#000000;stroke-width:15;stroke-linecap:round;stroke-linejoin:round;stroke-miterlimit:10;" d="&#10;&#9;&#9;M318.125,287.062H43.562c-2.761,0-5-2.239-5-5V115.335"/>
	<path style="fill:none;stroke:#000000;stroke-width:15;stroke-linecap:round;stroke-linejoin:round;stroke-miterlimit:10;" d="&#10;&#9;&#9;M38.562,80.335V43.562c0-2.761,2.239-5,5-5h424.875c2.761,0,5,2.239,5,5v243.5"/>
	<path style="fill:none;stroke:#000000;stroke-width:15;stroke-linecap:round;stroke-linejoin:round;stroke-miterlimit:10;" d="&#10;&#9;&#9;M346.424,147.094l-13.179-6.589c-1.2-0.6-2.092-1.664-2.521-2.936c-1.133-3.354-2.485-6.608-4.04-9.743&#10;&#9;&#9;c-0.595-1.199-0.716-2.578-0.293-3.848l4.663-13.99c0.599-1.797,0.131-3.777-1.208-5.117l-15.905-15.905&#10;&#9;&#9;c-1.339-1.339-3.32-1.807-5.117-1.208l-13.99,4.663c-1.27,0.423-2.649,0.302-3.848-0.293c-3.135-1.555-6.389-2.907-9.743-4.04&#10;&#9;&#9;c-1.272-0.429-2.335-1.321-2.936-2.522l-6.589-13.179c-0.847-1.694-2.578-2.764-4.472-2.764h-22.493&#10;&#9;&#9;c-1.894,0-3.625,1.07-4.472,2.764l-6.589,13.179c-0.6,1.201-1.664,2.092-2.936,2.522c-3.354,1.133-6.608,2.485-9.743,4.04&#10;&#9;&#9;c-1.199,0.595-2.578,0.716-3.848,0.293l-13.99-4.663c-1.797-0.599-3.778-0.131-5.117,1.208l-15.905,15.905&#10;&#9;&#9;c-1.339,1.339-1.807,3.32-1.208,5.117l4.663,13.99c0.423,1.27,0.302,2.649-0.293,3.848c-1.555,3.135-2.907,6.388-4.04,9.743&#10;&#9;&#9;c-0.429,1.272-1.321,2.335-2.521,2.936l-13.179,6.589c-1.694,0.847-2.764,2.578-2.764,4.472v22.493c0,1.894,1.07,3.625,2.764,4.472&#10;&#9;&#9;l13.179,6.589c1.2,0.6,2.092,1.664,2.521,2.935c1.133,3.354,2.485,6.608,4.04,9.743c0.595,1.199,0.716,2.578,0.293,3.848&#10;&#9;&#9;l-4.663,13.99c-0.599,1.797-0.131,3.777,1.208,5.117l15.905,15.905c1.339,1.339,3.32,1.807,5.117,1.208l13.99-4.663&#10;&#9;&#9;c1.27-0.423,2.649-0.302,3.848,0.293c3.135,1.555,6.389,2.907,9.743,4.04c1.272,0.429,2.335,1.321,2.936,2.522l6.589,13.179&#10;&#9;&#9;c0.847,1.694,2.578,2.764,4.472,2.764h22.493c1.894,0,3.625-1.07,4.472-2.764l6.589-13.179c0.6-1.201,1.664-2.092,2.935-2.522&#10;&#9;&#9;c3.354-1.133,6.608-2.485,9.743-4.04c1.199-0.595,2.578-0.716,3.848-0.293l13.99,4.663c1.797,0.599,3.778,0.131,5.117-1.208&#10;&#9;&#9;l15.905-15.905c1.339-1.339,1.807-3.32,1.208-5.117l-4.663-13.99c-0.423-1.27-0.302-2.649,0.293-3.848&#10;&#9;&#9;c1.555-3.135,2.907-6.389,4.04-9.743c0.429-1.272,1.321-2.335,2.521-2.935l13.179-6.589c1.694-0.847,2.764-2.578,2.764-4.472&#10;&#9;&#9;v-22.493C349.188,149.672,348.117,147.941,346.424,147.094z M256,201.641c-21.444,0-38.828-17.384-38.828-38.828&#10;&#9;&#9;c0-21.444,17.384-38.828,38.828-38.828c21.444,0,38.828,17.384,38.828,38.828C294.828,184.257,277.444,201.641,256,201.641z"/>
	
		<line style="fill:none;stroke:#000000;stroke-width:15;stroke-linecap:round;stroke-linejoin:round;stroke-miterlimit:10;" x1="193.875" y1="504.5" x2="162.812" y2="504.5"/>
	
		<line style="fill:none;stroke:#000000;stroke-width:15;stroke-linecap:round;stroke-linejoin:round;stroke-miterlimit:10;" x1="349.188" y1="504.5" x2="318.125" y2="504.5"/>
	<path style="fill:none;stroke:#000000;stroke-width:15;stroke-linecap:round;stroke-linejoin:round;stroke-miterlimit:10;" d="&#10;&#9;&#9;M474.438,473.438h25.582c2.475,0,4.481,2.006,4.481,4.481v22.101c0,2.475-2.006,4.481-4.481,4.481h-26.582"/>
	
		<line style="fill:none;stroke:#000000;stroke-width:15;stroke-linecap:round;stroke-linejoin:round;stroke-miterlimit:10;" x1="319.125" y1="473.438" x2="348.188" y2="473.438"/>
	
		<line style="fill:none;stroke:#000000;stroke-width:15;stroke-linecap:round;stroke-linejoin:round;stroke-miterlimit:10;" x1="163.813" y1="473.438" x2="192.875" y2="473.438"/>
	<path style="fill:none;stroke:#000000;stroke-width:15;stroke-linecap:round;stroke-linejoin:round;stroke-miterlimit:10;" d="&#10;&#9;&#9;M38.562,504.5H11.981c-2.475,0-4.481-2.006-4.481-4.481v-22.101c0-2.475,2.006-4.481,4.481-4.481h25.582"/>
	<path style="fill:none;stroke:#000000;stroke-width:15;stroke-linecap:round;stroke-linejoin:round;stroke-miterlimit:10;" d="&#10;&#9;&#9;M70.91,442.375h-7.348c-13.807,0-25,11.193-25,25V504.5h124.25v-37.125c0-13.807-11.193-25-25-25H105.91"/>
	<path style="fill:none;stroke:#000000;stroke-width:15;stroke-linecap:round;stroke-linejoin:round;stroke-miterlimit:10;" d="&#10;&#9;&#9;M374.188,442.375h74.25c13.807,0,25,11.193,25,25V504.5h-124.25v-37.125C349.188,453.568,360.38,442.375,374.188,442.375z"/>
	<path style="fill:none;stroke:#000000;stroke-width:15;stroke-linecap:round;stroke-linejoin:round;stroke-miterlimit:10;" d="&#10;&#9;&#9;M293.125,442.375h-74.25c-13.807,0-25,11.193-25,25V504.5h124.25v-37.125C318.125,453.568,306.932,442.375,293.125,442.375z"/>
	
		<circle style="fill:none;stroke:#000000;stroke-width:15;stroke-linecap:round;stroke-linejoin:round;stroke-miterlimit:10;" cx="100.688" cy="380.25" r="31.063"/>
	
		<circle style="fill:none;stroke:#000000;stroke-width:15;stroke-linecap:round;stroke-linejoin:round;stroke-miterlimit:10;" cx="256" cy="380.25" r="31.062"/>
	
		<circle style="fill:none;stroke:#000000;stroke-width:15;stroke-linecap:round;stroke-linejoin:round;stroke-miterlimit:10;" cx="411.312" cy="380.25" r="31.063"/>
	
		<line style="fill:none;stroke:#000000;stroke-width:15;stroke-linecap:round;stroke-linejoin:round;stroke-miterlimit:10;" x1="69.625" y1="504.5" x2="69.625" y2="473.438"/>
	
		<line style="fill:none;stroke:#000000;stroke-width:15;stroke-linecap:round;stroke-linejoin:round;stroke-miterlimit:10;" x1="131.75" y1="504.5" x2="131.75" y2="473.438"/>
	
		<line style="fill:none;stroke:#000000;stroke-width:15;stroke-linecap:round;stroke-linejoin:round;stroke-miterlimit:10;" x1="224.938" y1="504.5" x2="224.938" y2="473.438"/>
	
		<line style="fill:none;stroke:#000000;stroke-width:15;stroke-linecap:round;stroke-linejoin:round;stroke-miterlimit:10;" x1="287.062" y1="504.5" x2="287.062" y2="473.438"/>
	
		<line style="fill:none;stroke:#000000;stroke-width:15;stroke-linecap:round;stroke-linejoin:round;stroke-miterlimit:10;" x1="380.25" y1="504.5" x2="380.25" y2="473.438"/>
	
		<line style="fill:none;stroke:#000000;stroke-width:15;stroke-linecap:round;stroke-linejoin:round;stroke-miterlimit:10;" x1="442.375" y1="504.5" x2="442.375" y2="473.438"/>
	<path style="fill:none;stroke:#000000;stroke-width:15;stroke-linecap:round;stroke-linejoin:round;stroke-miterlimit:10;" d="&#10;&#9;&#9;M468.438,349.188H323.125c-2.761,0-5-2.239-5-5v-57.125h155.312v57.125C473.438,346.949,471.199,349.188,468.438,349.188z"/>
</g>
<g>
</g>
<g>
</g>
<g>
</g>
<g>
</g>
<g>
</g>
<g>
</g>
<g>
</g>
<g>
</g>
<g>
</g>
<g>
</g>
<g>
</g>
<g>
</g>
<g>
</g>
<g>
</g>
<g>
</g>
</svg>