<svg id="Layer_1" enable-background="new 0 0 512 512" viewBox="0 0 512 512" xmlns="http://www.w3.org/2000/svg"><g><g><path d="m506.6 453-60.1-286.6c-.3-1.4-1.2-2.6-2.4-3.5-1.3-.8-2.8-1.1-4.2-.8l-82 17.2v-97.7c.3-13.1-11.1-24.5-24.2-24.2h-12.6v-12.6c0-13.4-10.9-24.2-24.2-24.2h-267.3c-13.4 0-24.2 10.9-24.2 24.2v385.6c0 13.4 10.9 24.2 24.2 24.2h12.5v12.6c0 13.4 10.9 24.2 24.2 24.2h267.3c3.9 0 7.7-1 11.1-2.8 1.1 2 3.6 3.2 5.9 2.7 0 0 151.7-31.8 151.7-31.8 2.9-.5 4.9-3.6 4.3-6.5zm-460.4-385c-2.7 4.1-4.1 8.8-4.1 13.6v361.9h-12.5c-7.3 0-13.2-5.9-13.2-13.2v-385.5c0-7.3 5.9-13.2 13.2-13.2h267.2c7.3 0 13.2 5.9 13.2 13.2v12.6h-243.7c-8 0-15.5 4-20.1 10.6zm287.4 412.4h-267.3c-7.3 0-13.2-5.9-13.2-13.2v-385.6c-.1-7.1 6-13.4 13.2-13.2h267.3c7.2-.1 13.3 6 13.1 13.2v100l-55.7 11.7-2.9.6c-3 .6-4.9 3.5-4.3 6.5l2.4 11.6-86.2 64.6c-1.5 1.1-2.3 2.8-2.3 4.5 0 1.1.4 2.3 1.1 3.3l142.5 190.4.5 2.5c-2.1 2-5.1 3.1-8.2 3.1zm-88.5-207.7c6.7 8.5 4.8 21.9-4 28.2-1.2.9-1.9 2.2-2.2 3.6-.2 1.4.2 2.9 1 4.1l92.7 123.9 3.5 16.6-124.9-166.9 77.7-58.2 1.6 7.8-44.3 33.2c-2.4 1.7-3 5.4-1.1 7.7zm6.7 33.3c8.7-9.1 10.9-24.1 5-35.3l36.2-27.1 34.3 163.2zm101.9 173.3c-.1-.9-1.4-7-1.6-8-9.1-43-44.8-213.5-54.2-258.1 0 0-2-9.6-2-9.7l57.5-12c.1-.1 83.3-17.5 83.4-17.6l57.9 275.8z" fill="#231f20"/></g><g><path d="m336.1 449.1-124.9-166.9 77.7-58.2 1.6 7.8-44.3 33.2c-2.4 1.7-3 5.4-1.1 7.7 3.3 4.3 4.6 9.6 3.8 15-.7 5.3-3.5 10-7.8 13.3-2.4 1.7-3 5.4-1.1 7.7 0 0 92.7 123.9 92.7 123.9z" fill="#a7d69e"/></g><g><path d="m436.8 174c-.2.1-83.2 17.5-83.4 17.6l-57.5 12c0 .1 2.1 9.6 2 9.7 9.5 44.9 45.1 214.8 54.2 258.1.2 1.1 1.5 7.1 1.6 8l140.9-29.5zm38.6 246.3c-10.9 2.3-17.8 13-15.6 23.8.3 1.4 0 2.9-.8 4.1-.8 1.3-2 2.1-3.5 2.4l-65.7 13.7c-2.9.6-6-1.3-6.6-4.3-2.3-10.8-13-17.8-23.8-15.6-2.9.6-5.9-1.3-6.5-4.3l-42.1-200.6c-.6-3 1.3-5.9 4.3-6.5 10.9-2.3 17.9-13 15.6-23.9-.6-3 1.3-5.9 4.3-6.5l65.6-13.8c3-.6 5.9 1.3 6.6 4.3 2.3 10.9 13 17.9 23.9 15.6 2.9-.7 6 1.3 6.6 4.3 0 0 42.1 200.6 42.1 200.6.5 3.1-1.4 6-4.4 6.7z" fill="#a7d69e"/></g><g><path d="m310 44.8v12.6h-243.7c-8.1 0-15.6 4-20.1 10.7-2.7 4.1-4.1 8.8-4.1 13.6v361.9h-12.5c-7.3 0-13.2-5.9-13.2-13.2v-385.6c0-7.3 5.9-13.2 13.2-13.2h267.2c7.3 0 13.2 5.9 13.2 13.2z" fill="#fff8e9"/></g><g><path d="m288.2 193.9 2.9-.6 55.7-11.7v-100c.1-7.2-5.9-13.3-13.1-13.2h-267.3c-7.1-.1-13.3 6.1-13.2 13.2v385.6c0 7.3 5.9 13.2 13.2 13.2h267.3c3 0 6-1.1 8.4-3.1l-.5-2.5-142.6-190.4c-.7-1-1.1-2.2-1.1-3.3 0-1.7.8-3.4 2.3-4.5l86.2-64.6-2.4-11.6c-.6-2.9 1.2-5.9 4.2-6.5zm-212.2 111.4h68.8c7.2 0 7.2 11 0 11h-68.8c-7.2-.1-7.2-10.8 0-11zm-5.5-35.7c0-3 2.5-5.5 5.5-5.5h68.8c3.1 0 5.5 2.5 5.5 5.5s-2.4 5.5-5.5 5.5h-68.8c-3 0-5.5-2.5-5.5-5.5zm173.9 170.5h-168.4c-7.2-.1-7.3-10.9 0-11h168.3c7.3.1 7.4 10.9.1 11zm5.5-46.8c0 3-2.5 5.5-5.5 5.5h-168.4c-3 0-5.5-2.5-5.5-5.5s2.5-5.5 5.5-5.5h168.3c3.1 0 5.6 2.5 5.6 5.5zm-36.2-46.7c7.2.1 7.3 10.9 0 11h-137.7c-7.2-.1-7.3-10.9 0-11zm-3.3-177.6c0 4.6-3.6 8.5-8.2 8.9l-10.6 1.1c-.4 1.1-.9 2.2-1.4 3.4l6.8 8.3c2.9 3.5 2.7 8.7-.6 12l-13 13c-3.3 3.3-8.5 3.5-12.1.6l-8.3-6.8c-1 .5-2.2.9-3.3 1.4l-1.1 10.7c-.5 4.6-4.4 8.1-8.9 8.1h-18.3c-4.6 0-8.4-3.4-8.9-8.1l-1.1-10.7c-1.2-.4-2.3-.9-3.4-1.4l-8.3 6.8c-3.5 3-8.9 2.7-12.1-.7l-13-12.9c-3.2-3.3-3.4-8.4-.7-12l6.9-8.4c-.6-1.2-1-2.3-1.4-3.4l-10.7-1.1c-4.5-.4-8.1-4.3-8.1-8.9v-18.4c0-4.6 3.5-8.4 8.1-8.9l10.8-1.1c.4-1.2.9-2.3 1.4-3.4l-6.8-8.3c-2.9-3.6-2.6-8.8.7-12l13-13c3.1-3.3 8.4-3.5 12-.6l8.3 6.7c1.1-.5 2.2-1 3.4-1.4l1.1-10.7c.5-4.6 4.3-8.1 8.9-8.1h18.3c4.6 0 8.4 3.4 8.9 8l1.1 10.8c1.1.4 2.3.9 3.3 1.4l8.4-6.8c3.5-2.9 8.7-2.7 12 .6l13 13c3.3 3.3 3.5 8.6.6 12.1l-6.8 8.3c.5 1.1.9 2.2 1.4 3.4l10.7 1.1c4.6.5 8.1 4.3 8.1 8.9v18.5z" fill="#fff8e9"/></g><g><path d="m259.8 289.2c.9-6.4-.1-12.8-3-18.4l36.2-27.1 34.3 163.2-75.5-100.9c4.3-4.6 7.1-10.4 8-16.8z" fill="#fff8e9"/></g><g><path d="m479.7 413.7-42.1-200.6c-.6-2.9-3.6-4.9-6.6-4.3-10.9 2.3-21.6-4.7-23.9-15.6-.7-3-3.6-4.9-6.6-4.3l-65.5 13.9c-3 .6-4.9 3.5-4.3 6.5 2.3 10.9-4.7 21.6-15.6 23.9-3 .6-4.9 3.5-4.3 6.5l42.2 200.6c.6 3 3.6 4.9 6.5 4.3 10.9-2.3 21.6 4.7 23.8 15.6.6 2.9 3.7 4.9 6.6 4.3 0 0 65.7-13.7 65.7-13.7 2.9-.6 4.9-3.7 4.3-6.6-2.3-10.9 4.7-21.6 15.6-23.8 2.9-.8 4.8-3.7 4.2-6.7zm-31.3 27.2-55.8 11.6c-4.8-12.1-16.9-19.8-29.8-19.5l-40-190.7c12-4.9 19.8-16.8 19.5-29.8l55.8-11.8c4.9 12.1 17.1 19.9 29.9 19.5l40 190.7c-12.2 5.1-20 17-19.6 30z" fill="#231f20"/></g><g><path d="m427.8 220.3c-12.8.3-25-7.5-29.9-19.5l-55.8 11.8c.3 13-7.5 25-19.5 29.8l40 190.7c12.9-.3 25 7.4 29.8 19.5l55.8-11.6c-.4-13 7.5-25 19.5-29.9zm.5 127.9c-18 29-65 20.7-71.5-13.4-4.5-21.3 9.2-42.2 30.5-46.6 33.5-7.7 60.3 31.5 41 60z" fill="#fff8e9"/></g><g><path d="m433.8 318.6c-3.9-20.9-26-35.2-46.6-30.5-46.1 10.7-38.7 77.1 8.1 78 24.2.6 44.2-23.8 38.5-47.5zm-14.8 23.6c-13.1 21-46.9 14.6-51.5-9.7-3.8-17.3 10.1-34.4 27.8-34.2 21.8-.7 36.3 26.1 23.7 43.9z" fill="#231f20"/></g><g><path d="m419 342.2c-13.1 21-46.9 14.6-51.5-9.7-3.8-17.3 10.1-34.4 27.8-34.2 21.8-.7 36.3 26.1 23.7 43.9z" fill="#a7d69e"/></g><g><path d="m202.3 141.6-10.7-1.1c-.4-1.2-.9-2.3-1.4-3.4l6.8-8.3c2.9-3.5 2.6-8.8-.6-12.1l-13-13c-3.3-3.3-8.5-3.5-12-.6l-8.4 6.9c-1-.5-2.2-1-3.3-1.4l-1.1-10.8c-.5-4.6-4.4-8-8.9-8h-18.3c-4.6 0-8.4 3.4-8.9 8.1l-1.1 10.7c-1.2.4-2.3.9-3.4 1.4l-8.3-6.7c-3.6-3-8.9-2.7-12 .6l-13 13c-3.3 3.3-3.5 8.4-.7 12l6.8 8.3c-.5 1.1-1 2.2-1.4 3.4l-10.8 1.1c-4.6.5-8.1 4.3-8.1 8.9v18.4c0 4.6 3.6 8.5 8.1 8.9l10.7 1.1c.4 1 .8 2.2 1.4 3.4l-6.9 8.4c-2.8 3.5-2.5 8.7.7 12l13 12.9c3.2 3.3 8.6 3.6 12.1.7l8.3-6.8c1.1.5 2.2.9 3.4 1.4l1.1 10.7c.5 4.6 4.3 8.1 8.9 8.1h18.3c4.6 0 8.4-3.4 8.9-8.1l1.1-10.7c1.2-.4 2.3-.9 3.3-1.4l8.3 6.8c3.6 2.9 8.8 2.7 12.1-.6l13-13c3.3-3.3 3.5-8.5.6-12l-6.8-8.3c.5-1.2.9-2.3 1.4-3.4l10.6-1.1c4.6-.4 8.2-4.3 8.2-8.9v-18.4c.1-4.8-3.4-8.6-8-9.1zm-3 25.4-12.4 1.3c-4.8.4-5 5.9-6.8 9.3-1.5 2.7-3.2 6.1-.8 8.9 0 0 7.9 9.6 7.9 9.6l-10.4 10.4-9.7-7.9c-4.7-3.5-9.4 2.1-14.3 2.9-2.2.7-3.6 2.5-3.9 4.7l-1.3 12.4h-14.6l-1.3-12.4c-.2-2.2-1.8-4-3.9-4.7-4.9-.8-9.6-6.4-14.3-2.9 0 0-9.7 7.9-9.7 7.9l-10.4-10.4 7.8-9.6c2.3-2.6.8-6.1-.7-8.7-2-3.8-1.8-9-6.8-9.5 0 0-12.4-1.3-12.4-1.3v-14.6l12.4-1.3c2.3-.2 4.1-1.8 4.7-3.9.7-4.8 6.4-9.6 2.8-14.2 0 0-7.8-9.7-7.8-9.7l10.4-10.4 9.7 7.8c4.6 3.6 9.5-2.1 14.2-2.8 2.2-.6 3.7-2.5 3.9-4.7l1.3-12.4h14.6l1.3 12.4c.2 2.3 1.8 4.1 3.9 4.7 4.7.7 9.5 6.3 14.2 2.8 0 0 9.7-7.9 9.7-7.9l10.4 10.4-7.9 9.7c-3.5 4.7 2.1 9.5 2.9 14.3.7 2.1 2.5 3.6 4.7 3.9l12.4 1.3v14.6z" fill="#231f20"/></g><g><path d="m180.2 177.7c1.8-3.4 2-8.9 6.8-9.3 0 0 12.4-1.3 12.4-1.3v-14.6l-12.4-1.3c-2.2-.2-4-1.8-4.7-3.9-.8-4.8-6.4-9.6-2.9-14.3 0 0 7.9-9.7 7.9-9.7l-10.4-10.4-9.7 7.9c-4.6 3.5-9.4-2.1-14.2-2.8-2.2-.6-3.7-2.5-3.9-4.7l-1.3-12.4h-14.6l-1.3 12.4c-.2 2.3-1.8 4.1-3.9 4.7-4.8.7-9.6 6.4-14.2 2.8 0 0-9.7-7.8-9.7-7.8l-10.4 10.4 7.8 9.7c3.6 4.6-2.1 9.5-2.8 14.2-.6 2.2-2.5 3.7-4.7 3.9l-12.4 1.3v14.5l12.4 1.3c5.1.5 4.8 5.7 6.8 9.5 1.5 2.6 3 6.1.7 8.7 0 0-7.8 9.6-7.8 9.6l10.4 10.4 9.7-7.9c4.7-3.5 9.4 2.1 14.3 2.9 2.1.7 3.6 2.5 3.9 4.7l1.3 12.4h14.6l1.3-12.4c.2-2.2 1.7-4 3.9-4.7 4.9-.8 9.6-6.4 14.3-2.9 0 0 9.7 7.9 9.7 7.9l10.4-10.4-7.9-9.6c-2.6-2.7-.9-6.1.6-8.8zm-18.5 6.6c-20.1 18.3-54.4 2.7-53.7-24.5 0-17.9 14.5-32.4 32.4-32.4 29.7-.4 43.9 37.7 21.3 56.9z" fill="#ffbe5f"/></g><g><path d="m140.4 127.3c-42.8 1.3-42.7 63.6 0 64.9 42.9-1.3 43.1-63.5 0-64.9zm14.1 48.6c-13.2 12.1-35.9 1.7-35.4-16.2 0-11.8 9.6-21.4 21.3-21.4 19.5-.3 29 25.2 14.1 37.6z" fill="#231f20"/></g><g><path d="m161.9 159.7c-.7 28.2-42.1 28.3-42.8 0 .9-28.3 41.9-28.1 42.8 0z" fill="#fff8e9"/></g><g><path d="m150.4 269.6c0 3-2.4 5.5-5.5 5.5h-68.9c-3 0-5.5-2.5-5.5-5.5s2.5-5.5 5.5-5.5h68.8c3.2 0 5.6 2.5 5.6 5.5z" fill="#231f20"/></g><g><path d="m150.4 310.8c0 3-2.4 5.5-5.5 5.5h-68.9c-3 0-5.5-2.5-5.5-5.5s2.5-5.5 5.5-5.5h68.8c3.2 0 5.6 2.5 5.6 5.5z" fill="#231f20"/></g><g><path d="m219.3 352.1c0 3-2.5 5.5-5.5 5.5h-137.8c-3 0-5.5-2.5-5.5-5.5s2.5-5.5 5.5-5.5h137.7c3.1 0 5.6 2.5 5.6 5.5z" fill="#231f20"/></g><g><path d="m249.9 393.3c0 3-2.5 5.5-5.5 5.5h-168.4c-3 0-5.5-2.5-5.5-5.5s2.5-5.5 5.5-5.5h168.3c3.1 0 5.6 2.5 5.6 5.5z" fill="#231f20"/></g><g><path d="m249.9 434.6c0 3.1-2.5 5.5-5.5 5.5h-168.4c-3 0-5.5-2.4-5.5-5.5 0-3 2.5-5.5 5.5-5.5h168.3c3.1-.1 5.6 2.4 5.6 5.5z" fill="#231f20"/></g></g></svg>