<svg clip-rule="evenodd" fill-rule="evenodd" stroke-linejoin="round" stroke-miterlimit="2" viewBox="0 0 510 510" xmlns="http://www.w3.org/2000/svg"><g><g><g><g><g><path d="m128.647 136.783c0-3.181-2.583-5.763-5.764-5.763h-103.747c-3.182 0-5.764 2.582-5.764 5.763v334.299c0 3.181 2.582 5.764 5.764 5.764h103.747c3.181 0 5.764-2.583 5.764-5.764z" fill="#ffe177"/><path d="m112.883 476.846c3.181 0 5.764-2.583 5.764-5.764v-334.299c0-3.181-2.583-5.763-5.764-5.763h10c3.181 0 5.764 2.582 5.764 5.763v334.299c0 3.181-2.583 5.764-5.764 5.764z" fill="#ffd064"/></g><g><path d="m96.68 170.769c0-1.416-1.15-2.567-2.567-2.567h-46.207c-1.417 0-2.567 1.151-2.567 2.567v172.506c0 1.417 1.15 2.568 2.567 2.568h46.207c1.417 0 2.567-1.151 2.567-2.568z" fill="#eceff1"/><path d="m57.906 168.202c-1.417 0-2.567 1.151-2.567 2.567v172.506c0 1.417 1.15 2.568 2.567 2.568h-10c-1.417 0-2.567-1.151-2.567-2.568v-172.506c0-1.416 1.15-2.567 2.567-2.567z" fill="#d1d1d6"/></g><g><circle cx="71.009" cy="416.122" fill="#eceff1" r="25.671"/><path d="m76.009 441.305c-1.617.319-3.289.487-5 .487-14.168 0-25.67-11.502-25.67-25.67s11.502-25.671 25.67-25.671c1.711 0 3.383.168 5 .488-11.778 2.329-20.67 12.725-20.67 25.183 0 12.457 8.892 22.854 20.67 25.183z" fill="#d1d1d6"/></g></g><g><g><path d="m243.922 136.783c0-3.181-2.582-5.763-5.763-5.763h-103.748c-3.181 0-5.764 2.582-5.764 5.763v334.299c0 3.181 2.583 5.764 5.764 5.764h103.748c3.181 0 5.763-2.583 5.763-5.764z" fill="#6cf5c2"/><path d="m228.159 476.846c3.181 0 5.763-2.583 5.763-5.764v-334.299c0-3.181-2.582-5.763-5.763-5.763h10c3.181 0 5.763 2.582 5.763 5.763v334.299c0 3.181-2.582 5.764-5.763 5.764z" fill="#00e499"/></g><g><path d="m211.955 170.769c0-1.416-1.15-2.567-2.567-2.567h-46.207c-1.417 0-2.567 1.151-2.567 2.567v172.506c0 1.417 1.15 2.568 2.567 2.568h46.207c1.417 0 2.567-1.151 2.567-2.568z" fill="#eceff1"/><path d="m173.181 168.202c-1.417 0-2.567 1.151-2.567 2.567v172.506c0 1.417 1.15 2.568 2.567 2.568h-10c-1.417 0-2.567-1.151-2.567-2.568v-172.506c0-1.416 1.15-2.567 2.567-2.567z" fill="#d1d1d6"/></g><g><circle cx="186.285" cy="416.122" fill="#eceff1" r="25.671"/><path d="m191.285 441.305c-1.618.319-3.29.487-5 .487-14.168 0-25.671-11.502-25.671-25.67s11.503-25.671 25.671-25.671c1.71 0 3.382.168 5 .488-11.778 2.329-20.671 12.725-20.671 25.183 0 12.457 8.893 22.854 20.671 25.183z" fill="#d1d1d6"/></g></g><g><g><path d="m359.198 136.783c0-3.181-2.583-5.763-5.764-5.763h-103.748c-3.181 0-5.764 2.582-5.764 5.763v334.299c0 3.181 2.583 5.764 5.764 5.764h103.748c3.181 0 5.764-2.583 5.764-5.764z" fill="#8ac9fe"/><path d="m343.434 476.846c3.181 0 5.764-2.583 5.764-5.764v-334.299c0-3.181-2.583-5.763-5.764-5.763h10c3.181 0 5.764 2.582 5.764 5.763v334.299c0 3.181-2.583 5.764-5.764 5.764z" fill="#60b7ff"/></g><g><path d="m327.231 170.769c0-1.416-1.151-2.567-2.567-2.567h-46.207c-1.417 0-2.568 1.151-2.568 2.567v172.506c0 1.417 1.151 2.568 2.568 2.568h46.207c1.416 0 2.567-1.151 2.567-2.568z" fill="#eceff1"/><path d="m288.457 168.202c-1.417 0-2.568 1.151-2.568 2.567v172.506c0 1.417 1.151 2.568 2.568 2.568h-10c-1.417 0-2.568-1.151-2.568-2.568v-172.506c0-1.416 1.151-2.567 2.568-2.567z" fill="#d1d1d6"/></g><g><circle cx="301.56" cy="416.122" fill="#eceff1" r="25.671"/><path d="m306.56 441.305c-1.617.319-3.289.487-5 .487-14.168 0-25.671-11.502-25.671-25.67s11.503-25.671 25.671-25.671c1.711 0 3.383.168 5 .488-11.778 2.329-20.671 12.725-20.671 25.183 0 12.457 8.893 22.854 20.671 25.183z" fill="#d1d1d6"/></g></g></g><g><path d="m416.619 49.086c8.494 2.021 16.601 5.383 24.028 9.959l15.614-6.927 18.396 18.396-6.927 15.614c4.576 7.426 7.937 15.534 9.959 24.028l15.932 6.132v26.027l-15.932 6.132c-2.022 8.483-5.383 16.591-9.959 24.017l6.927 15.614-18.396 18.407-15.614-6.938c-7.427 4.576-15.534 7.949-24.028 9.97l-6.132 15.921h-26.027l-6.132-15.932c-8.483-2.022-16.591-5.383-24.017-9.959l-15.614 6.938-18.407-18.407 6.938-15.603c-4.576-7.437-7.949-15.545-9.97-24.028l-15.921-6.132v-26.027l15.921-6.132c2.021-8.494 5.394-16.602 9.97-24.028l-6.938-15.614 18.407-18.396 15.603 6.927c7.437-4.576 15.545-7.938 24.028-9.959l6.132-15.932h26.027z" fill="#a79ba7"/><path d="m451.015 54.446 5.246-2.328 18.396 18.396-6.927 15.614c4.576 7.426 7.937 15.534 9.959 24.028l15.932 6.132v26.027l-15.932 6.132c-2.022 8.483-5.383 16.591-9.959 24.017l6.927 15.614-18.396 18.407-5.246-2.328 16.079-16.079-6.938-15.614c4.576-7.426 7.937-15.534 9.959-24.017l15.931-6.132v-26.027l-15.931-6.132c-2.022-8.494-5.383-16.602-9.959-24.028l6.938-15.614zm-114.646 0 2.328-2.328 15.603 6.927c-1.102.613-2.192 1.249-3.259 1.919zm80.25-5.36c8.494 2.021 16.601 5.383 24.028 9.959l-4.304 1.919c-7.426-4.576-18.805-9.857-27.298-11.878l-6.132-15.932h7.574zm-62.308 150.461-15.614 6.938-2.328-2.328 14.672-6.518c1.067.659 2.157 1.295 3.27 1.908zm86.336 0c-7.427 4.576-15.534 7.949-24.028 9.97l-6.132 15.921h-7.574l6.132-15.921c8.493-2.021 19.872-7.301 27.31-11.878z" fill="#837683"/><path d="m397.474 86.528c24.576 0 44.497 19.921 44.497 44.496 0 24.567-19.921 44.488-44.497 44.488-24.566 0-44.487-19.921-44.487-44.488 0-24.575 19.921-44.496 44.487-44.496z" fill="#eceff1"/><path d="m397.474 86.528c1.013 0 2.016.036 3.019.108-23.165 1.546-41.486 20.825-41.486 44.388 0 23.555 18.321 42.834 41.486 44.388-1.003.064-2.006.1-3.019.1-24.566 0-44.487-19.921-44.487-44.488 0-24.575 19.921-44.496 44.487-44.496z" fill="#d1d1d6"/></g></g><path d="m130.275 483.471c-1.753.811-3.706 1.263-5.763 1.263h-103.748c-7.597 0-13.764-6.167-13.764-13.763v-334.299c0-7.596 6.167-13.764 13.764-13.764h103.748c2.057 0 4.01.453 5.763 1.263 1.754-.81 3.707-1.263 5.764-1.263h103.748c2.057 0 4.01.453 5.764 1.263 1.753-.81 3.706-1.263 5.763-1.263h43.874v-6.698c0-3.31 2.038-6.277 5.127-7.466 0 0 12.077-4.648 12.077-4.648 1.867-6.435 4.433-12.626 7.667-18.482l-5.261-11.833c-1.345-3.025-.688-6.566 1.653-8.907l18.345-18.345c2.341-2.341 5.882-2.998 8.907-1.653 0 0 11.833 5.261 11.833 5.261 5.856-3.234 12.044-5.797 18.463-7.65l4.67-12.101c1.19-3.086 4.157-5.12 7.463-5.12h25.95c3.311 0 6.28 2.04 7.468 5.13l4.646 12.092c6.417 1.854 12.602 4.416 18.456 7.649l11.833-5.261c3.025-1.345 6.566-.688 8.907 1.653l18.345 18.345c2.338 2.338 2.997 5.873 1.658 8.896 0 0-5.244 11.837-5.244 11.837 3.237 5.86 5.802 12.055 7.656 18.493l12.066 4.644c3.089 1.189 5.127 4.156 5.127 7.466v25.949c0 3.31-2.038 6.278-5.127 7.466 0 0-12.071 4.646-12.07 4.646-1.858 6.417-4.432 12.603-7.655 18.456l5.247 11.846c1.339 3.023.68 6.558-1.658 8.896l-18.345 18.345c-2.338 2.339-5.874 2.997-8.897 1.658 0 0-11.832-5.241-11.832-5.241-5.847 3.234-12.046 5.798-18.47 7.651l-4.645 12.069c-1.189 3.089-4.157 5.126-7.466 5.126h-25.95c-3.309 0-6.277-2.037-7.466-5.126 0 0-4.644-12.068-4.644-12.068-1.75-.505-3.483-1.064-5.196-1.674v256.762c0 7.596-6.167 13.763-13.764 13.763h-103.748c-2.057 0-4.01-.452-5.763-1.263-1.754.811-3.707 1.263-5.764 1.263h-103.748c-2.057 0-4.01-.452-5.764-1.263zm-8-344.563h-99.275v329.826h99.275zm131.276 0v329.826h99.275v-259.307l-9.133 4.045c-2.228.987-4.734.889-6.834-.167v129.859c0 5.832-4.735 10.567-10.567 10.567h-46.207c-5.832 0-10.567-4.735-10.567-10.567v-172.506c0-5.832 4.735-10.567 10.567-10.567h34.214c-.699-1.915-1.334-3.855-1.904-5.816l-12.08-4.65c-3.089-1.188-5.127-4.156-5.127-7.466v-3.251zm67.308 58.969-4.408-4.408c-2.341-2.34-2.998-5.882-1.653-8.907 0 0 2.212-4.974 3.767-8.471h-33.047v161.64h35.341zm-182.584-58.969v329.826h99.276v-329.826zm83.309 31.75v172.506c0 5.832-4.735 10.567-10.568 10.567h-46.207c-5.832 0-10.567-4.735-10.567-10.567v-172.506c0-5.832 4.735-10.567 10.567-10.567h46.207c5.833 0 10.567 4.735 10.568 10.567zm-51.342 5.433v161.64h35.342v-161.64zm17.671 206.249c18.583 0 33.671 15.087 33.671 33.67 0 18.584-15.088 33.671-33.671 33.671s-33.671-15.087-33.671-33.671c0-18.583 15.088-33.67 33.671-33.67zm0 16c-9.753 0-17.671 7.918-17.671 17.67 0 9.753 7.918 17.671 17.671 17.671s17.671-7.918 17.671-17.671c0-9.752-7.918-17.67-17.671-17.67zm222.816-346.29s-4.143-10.784-4.143-10.784h-14.966l-4.165 10.794c-.949 2.46-3.049 4.294-5.614 4.904-7.638 1.815-14.922 4.832-21.616 8.957-2.248 1.386-5.035 1.572-7.447.5l-10.554-4.693s-10.573 10.574-10.573 10.574l4.692 10.553c1.073 2.413.886 5.199-.499 7.447-4.129 6.701-7.148 13.992-8.988 21.66-.614 2.56-2.449 4.653-4.906 5.599 0 0-10.762 4.142-10.762 4.142v14.963l10.762 4.142c2.455.945 4.289 3.036 4.905 5.594 1.839 7.641 4.855 14.954 8.982 21.628 1.391 2.25 1.581 5.041.506 7.458 0 0-4.692 10.554-4.692 10.554l10.579 10.579 10.558-4.677c2.404-1.065 5.177-.88 7.419.493 6.7 4.105 13.988 7.151 21.655 8.967 2.569.609 4.673 2.447 5.622 4.911 0 0 4.142 10.762 4.142 10.762h14.963l4.142-10.762c.948-2.462 3.049-4.299 5.616-4.909 7.634-1.814 14.938-4.828 21.606-8.952 2.246-1.388 5.033-1.579 7.447-.51l10.558 4.677 10.585-10.585-4.676-10.558c-1.065-2.404-.881-5.178.493-7.42 4.105-6.7 7.152-13.989 8.968-21.633.61-2.568 2.447-4.669 4.91-5.617 0 0 10.762-4.142 10.762-4.142v-14.963l-10.762-4.142c-2.465-.948-4.302-3.052-4.911-5.622-1.815-7.66-4.832-14.943-8.957-21.637-1.383-2.244-1.571-5.026-.503-7.437 0 0 4.676-10.558 4.676-10.558s-10.579-10.579-10.579-10.579l-10.553 4.693c-2.413 1.072-5.2.886-7.447-.5-6.695-4.125-13.979-7.142-21.617-8.957-2.569-.611-4.671-2.45-5.618-4.914zm-11.635 23.86c29.428 0 53.288 23.834 53.288 53.262 0 29.426-23.861 53.287-53.288 53.287-29.428 0-53.261-23.86-53.261-53.287 0-29.429 23.832-53.262 53.261-53.262zm0 16c-20.588 0-37.261 16.673-37.261 37.262s16.671 37.287 37.261 37.287c20.591 0 37.288-16.697 37.288-37.287s-16.698-37.262-37.288-37.262zm-95.906 290.43c18.584 0 33.671 15.087 33.671 33.67 0 18.584-15.087 33.671-33.671 33.671-18.583 0-33.67-15.087-33.67-33.671 0-18.583 15.087-33.67 33.67-33.67zm0 16c-9.752 0-17.67 7.918-17.67 17.67 0 9.753 7.918 17.671 17.67 17.671 9.753 0 17.671-7.918 17.671-17.671 0-9.752-7.918-17.67-17.671-17.67zm-196.88-227.682v172.506c0 5.832-4.735 10.567-10.567 10.567h-46.207c-5.832 0-10.567-4.735-10.567-10.567v-172.506c0-5.832 4.735-10.567 10.567-10.567h46.207c5.832 0 10.567 4.735 10.567 10.567zm-51.341 5.433v161.64h35.341v-161.64zm17.671 206.249c18.583 0 33.67 15.087 33.67 33.67 0 18.584-15.087 33.671-33.67 33.671-18.584 0-33.671-15.087-33.671-33.671 0-18.583 15.087-33.67 33.671-33.67zm0 16c-9.753 0-17.671 7.918-17.671 17.67 0 9.753 7.918 17.671 17.671 17.671 9.752 0 17.67-7.918 17.67-17.671 0-9.752-7.918-17.67-17.67-17.67z"/></g></svg>