<svg xmlns="http://www.w3.org/2000/svg" xml:space="preserve" style="enable-background:new 0 0 512 512" viewBox="0 0 512 512"><path d="M50.163 49.908h411.673v301.395H50.163z" style="fill:#b2f0fb"></path><path d="M472 401.535H40c-16.569 0-30-13.431-30-30V40c0-16.569 13.431-30 30-30h432c16.569 0 30 13.431 30 30v331.535c0 16.569-13.431 30-30 30zM351.388 461.814H160.612c-22.182 0-40.163 17.992-40.163 40.186h271.102c0-22.194-17.982-40.186-40.163-40.186zM229.939 401.535c1.406 7.575 1.837 18.435-2.842 30.139-8.404 20.997-26.889 28.833-30.122 30.139M282.051 401.535c-1.396 7.585-1.827 18.435 2.852 30.139 8.394 20.997 26.879 28.833 30.122 30.139" style="fill:none;stroke:#020288;stroke-width:20;stroke-linecap:round;stroke-linejoin:round;stroke-miterlimit:10"></path><path d="M250.98 130.28h-20.082V90.094h20.082c11.091 0 20.082 8.996 20.082 20.093h0c-.001 11.097-8.992 20.093-20.082 20.093zM187.178 160.42a40 40 0 0 1-26.566 10.046c-22.182 0-40.163-17.992-40.163-40.186s17.982-40.186 40.163-40.186a40 40 0 0 1 26.566 10.046M230.898 90.094v80.372M240.939 130.28l30.122 40.186M311.224 170.466V90.094l40.164 60.279 40.163-60.279M391.551 90.094v80.372M369.901 210.652h51.773v140.651h-51.773zM276.709 230.759h51.773v120.544h-51.773zM183.518 250.841h51.773v100.462h-51.773zM90.326 270.922h51.773v80.38H90.326zM10 351.303h492" style="fill:none;stroke:#020288;stroke-width:20;stroke-linecap:round;stroke-linejoin:round;stroke-miterlimit:10"></path></svg>