<svg xmlns="http://www.w3.org/2000/svg" xml:space="preserve" style="enable-background:new 0 0 64 64" viewBox="1 1 62 62"><path d="M38 50H26a2 2 0 1 1 0-4h12a2 2 0 1 1 0 4z" style="fill:#000"></path><path d="M63 50V14c0-1.654-1.346-3-3-3h-4.198a7.933 7.933 0 0 0-2.267-4.606.999.999 0 1 0-1.414 1.414c1.134 1.134 1.758 2.641 1.758 4.243s-.624 3.109-1.758 4.243a.999.999 0 1 0 1.414 1.413c.224-.224.428-.462.622-.707H57v26H7V17h3.424a5.004 5.004 0 0 0 3.734 2.915A2.993 2.993 0 0 0 17 22h4c.669 0 1.335.026 2 .053V33c0 2.757 2.243 5 5 5s5-2.243 5-5v-9.521a49.836 49.836 0 0 1 8.6 2.984l.986.448a1 1 0 1 0 .828-1.821l-.986-.448A51.42 51.42 0 0 0 22 20.009V9.991a51.419 51.419 0 0 0 20.428-4.632l.986-.448a.999.999 0 0 0 .496-1.324.998.998 0 0 0-1.324-.497l-.986.448A49.456 49.456 0 0 1 21 8h-4c-1.333 0-2.453.88-2.842 2.085a4.958 4.958 0 0 0-2.133.92c-.009 0-.016-.005-.025-.005H4c-1.654 0-3 1.346-3 3v36c0 1.654 1.346 3 3 3h14.914L1.621 60.074A1 1 0 0 0 1 61v1a1 1 0 0 0 1 1h5a1 1 0 0 0 .316-.051L25.163 57h13.675l17.846 5.949A1 1 0 0 0 57 63h5a1 1 0 0 0 1-1v-1a1 1 0 0 0-.621-.926L45.086 53H60c1.654 0 3-1.346 3-3zM25 26h2v5h-2v-5zm6 7c0 1.654-1.346 3-3 3s-3-1.346-3-3h3a1 1 0 0 0 1-1v-7a1 1 0 0 0-1-1h-3v-1.824c2.023.161 4.025.438 6 .843V33zM12 15c0-1.302.839-2.402 2-2.816v5.631A2.994 2.994 0 0 1 12 15zm5-5h3v2h-1a1 1 0 1 0 0 2h1v2h-1a1 1 0 1 0 0 2h1v2h-3c-.552 0-1-.449-1-1v-8c0-.551.448-1 1-1zM3 50V14c0-.551.448-1 1-1h6.424A4.95 4.95 0 0 0 10 15H6a1 1 0 0 0-1 1v28a1 1 0 0 0 1 1h52a1 1 0 0 0 1-1V16a1 1 0 0 0-1-1h-2.686a7.921 7.921 0 0 0 .503-2H60c.552 0 1 .449 1 1v36c0 .551-.448 1-1 1H4c-.552 0-1-.449-1-1zm3.838 11H4.641L24 53.081v2.198L6.838 61zM26 55v-2h12v2H26zm31.162 6L40 55.279v-2.198L59.359 61h-2.197z"></path><circle cx="37" cy="48" r="1"></circle><circle cx="32" cy="48" r="1"></circle><circle cx="27" cy="48" r="1"></circle><circle cx="54" cy="40" r="1"></circle><circle cx="49" cy="40" r="1"></circle><circle cx="44" cy="40" r="1"></circle><path d="M54 35H44a1 1 0 1 0 0 2h10a1 1 0 1 0 0-2zM43 32a1 1 0 0 0 1 1h10a1 1 0 1 0 0-2H44a1 1 0 0 0-1 1zM49.293 14.879a.997.997 0 0 0 1.414 0c.756-.755 1.172-1.76 1.172-2.829s-.416-2.073-1.172-2.829a.999.999 0 1 0-1.414 1.414c.378.378.586.88.586 1.415s-.208 1.037-.586 1.415a.999.999 0 0 0 0 1.414zM28 12a1 1 0 0 0-1 1v4a1 1 0 0 0 1 1h8a1 1 0 0 0 1-1v-4a1 1 0 0 0-1-1h-8zm1 2h2v2h-2v-2zm6 2h-2v-2h2v2z"></path><path d="M45 29c-1.654 0-3-1.346-3-3V4c0-1.654 1.346-3 3-3s3 1.346 3 3v22c0 1.654-1.346 3-3 3z" style="fill:#000"></path></svg>