<svg xmlns="http://www.w3.org/2000/svg" data-name="Layer 1" viewBox="4.02 48.52 503.97 414.96"><g fill="#94c1ff"><path d="M269.035 204.084h30.406v-25.111a89.038 89.038 0 0 1-25.987-5.683c-2.507 9.466-4.013 19.899-4.418 30.794zM216.797 335.101c4.369 0 7.923-3.554 7.923-7.923s-3.554-7.923-7.923-7.923-7.895 3.554-7.895 7.923 3.542 7.923 7.895 7.923zM278.337 335.101c4.353 0 7.895-3.554 7.895-7.923s-3.542-7.923-7.895-7.923-7.923 3.554-7.923 7.923 3.554 7.923 7.923 7.923zM341.809 204.084c-.406-10.896-1.909-21.329-4.413-30.794a88.996 88.996 0 0 1-25.965 5.682v25.111h30.378zM337.399 246.857c2.502-9.462 4.005-19.891 4.41-30.783h-9.378l-7.254 27.087a88.495 88.495 0 0 1 12.222 3.696zM262.408 168.16a89.137 89.137 0 0 1-14.389-9.882c-11.137 12.333-18.348 28.261-19.7 45.806h28.708c.447-12.986 2.334-25.134 5.381-35.924zM276.034 138.526a77.439 77.439 0 0 0-19.25 11.45 77.175 77.175 0 0 0 9.53 6.627c2.746-6.868 6.019-12.955 9.72-18.077zM299.441 133.884c-6.818 2.617-13.418 9.567-18.726 19.972-1.29 2.529-2.473 5.213-3.563 8.014a77.064 77.064 0 0 0 22.289 5.085zM313.941 285.118c5.912-3.224 11.553-9.695 16.201-18.815a87.402 87.402 0 0 0 3.563-8.024 76.639 76.639 0 0 0-11.633-3.526l-8.132 30.365z"></path><path d="M45.584 394.459h420.832c8.198 0 14.868-6.67 14.868-14.868v-234.34c0-8.198-6.67-14.868-14.868-14.868h-42.223v18.766h32.33a5.995 5.995 0 0 1 5.995 5.995v214.555a5.995 5.995 0 0 1-5.995 5.995H55.477a5.995 5.995 0 0 1-5.995-5.995V155.144a5.995 5.995 0 0 1 5.995-5.995h32.33v-18.766H45.585c-8.198 0-14.868 6.67-14.868 14.868v234.34c0 8.198 6.67 14.868 14.868 14.868z"></path><path d="M354.084 149.973a77.422 77.422 0 0 0-19.27-11.456c3.701 5.125 6.976 11.216 9.722 18.089a77.348 77.348 0 0 0 9.548-6.633zM206.45 422.975h99.071c4.572 0 8.292-3.707 8.292-8.263v-8.263H198.188v8.263c0 4.556 3.707 8.263 8.263 8.263zM348.446 251.973a89.177 89.177 0 0 1 14.412 9.901c11.134-12.332 18.343-28.257 19.695-45.8h-28.737c-.446 12.976-2.33 25.115-5.37 35.899zM334.814 281.641a77.45 77.45 0 0 0 19.284-11.468 77.237 77.237 0 0 0-9.561-6.626c-2.747 6.875-6.021 12.968-9.724 18.094zM330.142 153.855c-5.302-10.403-11.896-17.352-18.711-19.97v33.069a77.053 77.053 0 0 0 22.271-5.085c-1.089-2.801-2.271-5.485-3.56-8.014zM348.44 168.162c3.044 10.79 4.931 22.937 5.377 35.922h28.737c-1.353-17.547-8.564-33.476-19.703-45.809a89.413 89.413 0 0 1-14.41 9.888z"></path></g><path fill="#116fff" d="M216.749 231.091a5.996 5.996 0 0 0-11.582 3.104l10.318 38.494a5.998 5.998 0 0 0 7.343 4.238 5.996 5.996 0 0 0 4.239-7.343l-10.318-38.494z"></path><path fill="#116fff" d="M305.436 120.717c-47.259 0-86.061 36.878-89.156 83.367h-44.376l-6.973-26.029a5.996 5.996 0 0 0-5.791-4.444h-25.058a5.995 5.995 0 1 0 0 11.99h20.458l9.209 34.377 20.158 75.273c.013.047.035.089.049.136l5.195 19.421a5.995 5.995 0 0 0 5.792 4.446h3.622a19.812 19.812 0 0 0-1.651 7.923c0 10.98 8.92 19.913 19.885 19.913s19.913-8.933 19.913-19.913c0-2.816-.595-5.492-1.654-7.923h25.021a19.78 19.78 0 0 0-1.654 7.923c0 10.98 8.933 19.913 19.913 19.913s19.885-8.933 19.885-19.913c0-2.816-.594-5.492-1.651-7.923h.815a5.995 5.995 0 1 0 0-11.99h-97.841l-2.024-7.569h107.916c.611 0 1.199-.104 1.76-.277.782-.015 1.561-.04 2.338-.075.111-.005.221-.007.332-.013a90.56 90.56 0 0 0 3.818-.274c.198-.018.396-.033.593-.053a87.463 87.463 0 0 0 3.54-.425c.288-.04.576-.079.864-.121a90.196 90.196 0 0 0 3.229-.545c.391-.073.782-.147 1.172-.225a91.255 91.255 0 0 0 6.871-1.666c.633-.18 1.262-.37 1.891-.564.303-.094.604-.194.906-.291 12.813-4.106 24.628-11.084 34.579-20.64a6.13 6.13 0 0 0 .47-.512c16.645-16.24 26.998-38.899 26.998-63.935 0-49.274-40.088-89.362-89.362-89.362zm-27.099 198.538c4.353 0 7.895 3.554 7.895 7.923s-3.542 7.923-7.895 7.923-7.923-3.554-7.923-7.923 3.554-7.923 7.923-7.923zm-61.54 0c4.369 0 7.923 3.554 7.923 7.923s-3.554 7.923-7.923 7.923-7.895-3.554-7.895-7.923 3.542-7.923 7.895-7.923zm137.287-169.282a77.566 77.566 0 0 1-9.548 6.633c-2.746-6.873-6.02-12.964-9.722-18.089a77.44 77.44 0 0 1 19.27 11.456zm-42.653-16.088c6.814 2.618 13.409 9.567 18.711 19.97 1.289 2.529 2.471 5.213 3.56 8.014a76.973 76.973 0 0 1-22.271 5.085zm0 45.088a88.989 88.989 0 0 0 25.965-5.682c2.504 9.465 4.007 19.898 4.413 30.794h-30.378v-25.111zm30.378 37.102c-.405 10.891-1.908 21.321-4.41 30.783a88.633 88.633 0 0 0-12.222-3.696l7.254-27.087zm-61.094-62.217c5.308-10.405 11.908-17.355 18.726-19.972v33.071a77.039 77.039 0 0 1-22.289-5.085c1.09-2.801 2.273-5.485 3.563-8.014zm18.726 25.116v25.111h-30.406c.406-10.895 1.911-21.328 4.418-30.794 8.26 3.163 17 5.088 25.987 5.683zm-23.407-40.447c-3.7 5.122-6.974 11.209-9.72 18.077a77.175 77.175 0 0 1-9.53-6.627 77.439 77.439 0 0 1 19.25-11.45zm-28.015 19.751a89.093 89.093 0 0 0 14.389 9.882c-3.046 10.791-4.934 22.938-5.381 35.924h-28.708c1.353-17.545 8.563-33.473 19.7-45.806zm52.815 129.428H194.312l-1.063-3.973c-.025-.095-.06-.185-.09-.278l-5.079-18.968c-.008-.029-.011-.059-.019-.088L175.21 216.43l-.095-.356h144.902zm29.307-21.403c-4.648 9.12-10.29 15.591-16.201 18.815l8.132-30.365a76.673 76.673 0 0 1 11.633 3.526c-1.09 2.805-2.273 5.492-3.563 8.024zm4.672 15.338c3.702-5.126 6.977-11.219 9.724-18.094a77.313 77.313 0 0 1 9.561 6.626 77.467 77.467 0 0 1-19.284 11.468zm28.044-19.767a89.177 89.177 0 0 0-14.412-9.901c3.041-10.784 4.925-22.924 5.37-35.899h28.737c-1.352 17.543-8.561 33.468-19.695 45.8zm-9.042-57.79c-.446-12.985-2.332-25.132-5.377-35.922a89.37 89.37 0 0 0 14.41-9.888c11.139 12.333 18.351 28.262 19.703 45.809h-28.737z"></path><path fill="#116fff" d="M285.729 226.852a5.997 5.997 0 0 0-7.343 4.239l-10.318 38.494a5.996 5.996 0 0 0 11.582 3.105l10.318-38.494a5.996 5.996 0 0 0-4.239-7.343z"></path><path fill="#116fff" d="M493.274 145.251c0-14.81-12.048-26.858-26.858-26.858h-42.223V72.996c0-13.497-10.98-24.477-24.477-24.477H112.284c-13.497 0-24.477 10.98-24.477 24.477v45.397H45.585c-14.81 0-26.858 12.048-26.858 26.858v234.34a26.698 26.698 0 0 0 4.504 14.868H10.01a5.995 5.995 0 0 0-5.995 5.995v28.516c0 19.03 15.482 34.512 34.512 34.512h434.948c19.03 0 34.512-15.482 34.512-34.512v-28.516a5.995 5.995 0 0 0-5.995-5.995h-13.221a26.698 26.698 0 0 0 4.504-14.868v-234.34zm-69.081 15.888h26.334v202.564h-26.334zM99.797 72.995c0-6.885 5.602-12.487 12.487-12.487h287.433c6.885 0 12.486 5.602 12.486 12.487v19.12H99.797zm0 31.11h312.406v259.598H99.797zm-69.081 41.146c0-8.198 6.67-14.868 14.868-14.868h42.222v18.766h-32.33a5.995 5.995 0 0 0-5.995 5.995v214.555a5.995 5.995 0 0 0 5.995 5.995h401.046a5.995 5.995 0 0 0 5.995-5.995V155.144a5.995 5.995 0 0 0-5.995-5.995h-32.33v-18.766h42.223c8.198 0 14.868 6.67 14.868 14.868v234.34c0 8.198-6.67 14.868-14.868 14.868H45.584c-8.198 0-14.868-6.67-14.868-14.868zm57.09 15.888v202.564H61.472V161.139zM313.812 406.45v8.263c0 4.556-3.72 8.263-8.292 8.263h-99.071c-4.556 0-8.263-3.707-8.263-8.263v-8.263h115.625zm182.183 0v22.521c0 12.418-10.103 22.521-22.521 22.521H38.526c-12.418 0-22.521-10.103-22.521-22.521V406.45h170.193v8.263c0 11.167 9.085 20.253 20.253 20.253h99.071c11.184 0 20.282-9.085 20.282-20.253v-8.263h170.192z"></path><path fill="#116fff" d="M173.512 70.317h-.652a5.995 5.995 0 1 0 0 11.99h.652a5.995 5.995 0 1 0 0-11.99zM128.781 70.317h-.652a5.995 5.995 0 1 0 0 11.99h.652a5.995 5.995 0 1 0 0-11.99zM383.871 70.317H226.803a5.995 5.995 0 1 0 0 11.99h157.068a5.995 5.995 0 1 0 0-11.99zM247.581 226.648a5.995 5.995 0 0 0-5.995 5.995v38.494a5.995 5.995 0 1 0 11.99 0v-38.494a5.995 5.995 0 0 0-5.995-5.995zM151.146 70.317h-.652a5.995 5.995 0 1 0 0 11.99h.652a5.995 5.995 0 1 0 0-11.99z"></path></svg>