<svg xmlns="http://www.w3.org/2000/svg" xml:space="preserve" viewBox="51.43 2.5 579.81 677.67"><defs><clipPath id="a" clipPathUnits="userSpaceOnUse"><path d="M0 512h512V0H0Z"></path></clipPath></defs><g clip-path="url(#a)" transform="matrix(1.33333 0 0 -1.33333 0 682.667)"><path d="M0 0c-55.551 0-100.584 45.034-100.584 100.585 0 55.552 45.033 100.585 100.584 100.585 55.552 0 100.586-45.033 100.586-100.585C100.586 45.034 55.552 0 0 0m189.991 130.523h-37.147a6.345 6.345 0 0 0-6.172 4.894 149.819 149.819 0 0 1-18.339 44.232 6.347 6.347 0 0 0 .901 7.83l26.28 26.28a6.35 6.35 0 0 1 0 8.98l-33.359 33.36a6.351 6.351 0 0 1-8.98 0l-26.279-26.28a6.347 6.347 0 0 0-7.831-.901 149.817 149.817 0 0 1-44.232 18.338 6.347 6.347 0 0 0-4.894 6.172v34.503h-5.188l-43.5-17.756-11.188-13.257v-3.49a6.348 6.348 0 0 0-4.895-6.172 149.03 149.03 0 0 1-9.778-2.673l-28.139-21.908-33.75-68.5-3.333-56.083 10.666-76.333s25-42.667 27-44.334c2-1.666 27.553-20.835 27.556-20.837a148.413 148.413 0 0 1 9.778-2.674 6.348 6.348 0 0 0 4.895-6.172v-3.491l11.771-15.492 39.248-16.667 8.857 1.147v34.503a6.347 6.347 0 0 0 4.894 6.172 149.817 149.817 0 0 1 44.232 18.338 6.348 6.348 0 0 0 7.831-.9l26.279-26.28a6.35 6.35 0 0 1 8.98 0l33.359 33.359a6.35 6.35 0 0 1 0 8.98l-26.28 26.28a6.347 6.347 0 0 0-.901 7.83 149.824 149.824 0 0 1 18.339 44.231 6.344 6.344 0 0 0 6.172 4.894h37.147a6.35 6.35 0 0 1 6.35 6.351v47.177a6.35 6.35 0 0 1-6.35 6.349" style="fill:#60b9fe;fill-opacity:1;fill-rule:nonzero;stroke:none" transform="translate(255.995 207.575)"></path><path d="M0 0v2.645a6.35 6.35 0 0 1-6.351 6.35h-47.176a6.35 6.35 0 0 1-6.35-6.35v-33.657C-42.058-17.452-21.855-6.864 0 0" style="fill:#1ca8ff;fill-opacity:1;fill-rule:nonzero;stroke:none" transform="translate(285.935 495.505)"></path><path d="M0 0c0 56.901 24.214 108.138 62.889 143.998a150.022 150.022 0 0 1-34.454-15.665 6.347 6.347 0 0 0-7.831.901l-26.279 26.28a6.35 6.35 0 0 1-8.979 0l-33.36-33.36a6.351 6.351 0 0 1 0-8.98l26.28-26.279a6.348 6.348 0 0 0 .901-7.831 149.824 149.824 0 0 1-18.339-44.231 6.345 6.345 0 0 0-6.172-4.895h-37.147a6.35 6.35 0 0 1-6.35-6.349v-47.177a6.35 6.35 0 0 1 6.35-6.35h37.147a6.345 6.345 0 0 0 6.172-4.895 149.824 149.824 0 0 1 18.339-44.231 6.347 6.347 0 0 0-.901-7.83l-26.28-26.28a6.351 6.351 0 0 1 0-8.98l33.36-33.359a6.348 6.348 0 0 1 8.979 0l26.279 26.28a6.348 6.348 0 0 0 7.831.9 150.022 150.022 0 0 1 34.454-15.665C24.214-108.138 0-56.9 0 0" style="fill:#1ca8ff;fill-opacity:1;fill-rule:nonzero;stroke:none" transform="translate(148.496 308.16)"></path><path d="M0 0v-33.657a6.35 6.35 0 0 1 6.35-6.35h47.176a6.35 6.35 0 0 1 6.351 6.35v2.645C38.021-24.147 17.819-13.56 0 0" style="fill:#1ca8ff;fill-opacity:1;fill-rule:nonzero;stroke:none" transform="translate(226.058 151.826)"></path><path d="m0 0-6.805-1.302-6-3.666-2.195-17.5 9.535-12.137H0c5.973 3.46 10 9.904 10 17.303C10-9.904 5.973-3.459 0 0" style="fill:#ffd500;fill-opacity:1;fill-rule:nonzero;stroke:none" transform="translate(457.8 84.802)"></path><path d="M0 0c0 7.398 4.028 13.843 10 17.302A19.873 19.873 0 0 1 0 20c-11.045 0-20-8.955-20-20 0-11.046 8.955-20 20-20 3.647 0 7.057.992 10 2.697C4.028-13.843 0-7.398 0 0" style="fill:#fbc700;fill-opacity:1;fill-rule:nonzero;stroke:none" transform="translate(447.8 67.5)"></path><path d="m0 0-6.805-1.302-6-3.666-2.195-17.5 9.536-12.137H.001C5.973-31.145 10-24.701 10-17.302 10-9.904 5.973-3.459 0 0" style="fill:#ffd500;fill-opacity:1;fill-rule:nonzero;stroke:none" transform="translate(265.995 44.802)"></path><path d="M0 0c0 7.398 4.028 13.843 10 17.302A19.873 19.873 0 0 1 0 20c-11.045 0-20-8.955-20-20 0-11.046 8.955-20 20-20 3.647 0 7.057.992 10 2.697C4.028-13.843 0-7.398 0 0" style="fill:#fbc700;fill-opacity:1;fill-rule:nonzero;stroke:none" transform="translate(255.995 27.5)"></path><path d="m0 0-6.806-1.302-6-3.666-2.194-17.5 9.535-12.137H0c5.972 3.46 10 9.904 10 17.303C10-9.904 5.972-3.459 0 0" style="fill:#ffd500;fill-opacity:1;fill-rule:nonzero;stroke:none" transform="translate(74.19 84.802)"></path><path d="M0 0c0 7.398 4.027 13.843 10 17.302A19.876 19.876 0 0 1 0 20c-11.046 0-20-8.955-20-20 0-11.046 8.954-20 20-20 3.647 0 7.056.992 10 2.697C4.027-13.843 0-7.398 0 0" style="fill:#fbc700;fill-opacity:1;fill-rule:nonzero;stroke:none" transform="translate(64.19 67.5)"></path><path d="M0 0h-22.725v58.072H0" style="fill:none;stroke:#000;stroke-width:15;stroke-linecap:round;stroke-linejoin:round;stroke-miterlimit:10;stroke-dasharray:none;stroke-opacity:1" transform="translate(216.524 279.124)"></path><path d="M0 0h-20.986" style="fill:none;stroke:#000;stroke-width:15;stroke-linecap:round;stroke-linejoin:round;stroke-miterlimit:10;stroke-dasharray:none;stroke-opacity:1" transform="translate(215.262 308.16)"></path><path d="M0 0h14.422c8.017 0 14.517 6.5 14.517 14.518s-6.5 14.518-14.517 14.518H-2.894v-58.072" style="fill:none;stroke:#000;stroke-width:15;stroke-linecap:round;stroke-linejoin:round;stroke-miterlimit:10;stroke-dasharray:none;stroke-opacity:1" transform="translate(294.596 308.16)"></path><path d="M0 0h14.421c8.018 0 14.518 6.5 14.518 14.518s-6.5 14.518-14.518 14.518H-2.895v-58.072" style="fill:none;stroke:#000;stroke-width:15;stroke-linecap:round;stroke-linejoin:round;stroke-miterlimit:10;stroke-dasharray:none;stroke-opacity:1" transform="translate(240.643 308.16)"></path><path d="m0 0-21.954 28.457" style="fill:none;stroke:#000;stroke-width:15;stroke-linecap:round;stroke-linejoin:round;stroke-miterlimit:10;stroke-dasharray:none;stroke-opacity:1" transform="translate(269.015 279.124)"></path><path d="M0 0c0-11.046-8.954-20-20-20s-20 8.954-20 20 8.954 20 20 20S0 11.046 0 0Z" style="fill:none;stroke:#000;stroke-width:15;stroke-linecap:round;stroke-linejoin:round;stroke-miterlimit:10;stroke-dasharray:none;stroke-opacity:1" transform="translate(276 27.5)"></path><path d="M0 0c0-11.046-8.954-20-20-20s-20 8.954-20 20 8.954 20 20 20S0 11.046 0 0Z" style="fill:none;stroke:#000;stroke-width:15;stroke-linecap:round;stroke-linejoin:round;stroke-miterlimit:10;stroke-dasharray:none;stroke-opacity:1" transform="translate(467.806 67.5)"></path><path d="M0 0c0-11.046-8.954-20-20-20s-20 8.954-20 20 8.954 20 20 20S0 11.046 0 0Z" style="fill:none;stroke:#000;stroke-width:15;stroke-linecap:round;stroke-linejoin:round;stroke-miterlimit:10;stroke-dasharray:none;stroke-opacity:1" transform="translate(84.194 67.5)"></path><path d="m0 0-48.467-46.012v-33.166" style="fill:none;stroke:#000;stroke-width:15;stroke-linecap:round;stroke-linejoin:round;stroke-miterlimit:10;stroke-dasharray:none;stroke-opacity:1" transform="translate(112.661 168.184)"></path><path d="m0 0 50.504-47.946v-33.167" style="fill:none;stroke:#000;stroke-width:15;stroke-linecap:round;stroke-linejoin:round;stroke-miterlimit:10;stroke-dasharray:none;stroke-opacity:1" transform="translate(397.302 170.119)"></path><path d="M0 0v59.25" style="fill:none;stroke:#000;stroke-width:15;stroke-linecap:round;stroke-linejoin:round;stroke-miterlimit:10;stroke-dasharray:none;stroke-opacity:1" transform="translate(256 50.34)"></path><path d="M0 0c-47.209 8.283-83.085 49.482-83.085 99.064 0 55.552 45.033 100.585 100.585 100.585 49.582 0 90.782-35.876 99.064-83.085m0-35C109.279 40.04 76.525 7.286 35 0m172.49 129.003h-37.146a6.344 6.344 0 0 0-6.172 4.894 149.832 149.832 0 0 1-18.34 44.232 6.348 6.348 0 0 0 .901 7.83l26.281 26.28a6.351 6.351 0 0 1 0 8.98l-33.36 33.359a6.35 6.35 0 0 1-8.98 0l-26.279-26.28a6.35 6.35 0 0 0-7.831-.901 149.792 149.792 0 0 1-44.232 18.339 6.346 6.346 0 0 0-4.894 6.172v37.147a6.35 6.35 0 0 1-6.349 6.35H-6.089a6.35 6.35 0 0 1-6.349-6.35v-37.147a6.346 6.346 0 0 0-4.894-6.172 149.792 149.792 0 0 1-44.232-18.339 6.35 6.35 0 0 0-7.831.901l-26.279 26.28a6.35 6.35 0 0 1-8.98 0l-33.36-33.359a6.351 6.351 0 0 1 0-8.98l26.28-26.28a6.346 6.346 0 0 0 .901-7.83 149.856 149.856 0 0 1-18.339-44.232 6.344 6.344 0 0 0-6.172-4.894h-37.146a6.35 6.35 0 0 1-6.351-6.35V75.476a6.35 6.35 0 0 1 6.351-6.35h37.146a6.344 6.344 0 0 0 6.172-4.894A149.845 149.845 0 0 1-110.833 20a6.346 6.346 0 0 0-.901-7.83l-26.28-26.279a6.352 6.352 0 0 1 0-8.981l33.36-33.359a6.35 6.35 0 0 1 8.98 0l26.279 26.28a6.35 6.35 0 0 0 7.831.901 149.792 149.792 0 0 1 44.232-18.339 6.345 6.345 0 0 0 4.894-6.171v-37.148a6.35 6.35 0 0 1 6.349-6.35h47.178a6.35 6.35 0 0 1 6.349 6.35v37.148a6.345 6.345 0 0 0 4.894 6.171 149.792 149.792 0 0 1 44.232 18.339 6.35 6.35 0 0 0 7.831-.901l26.279-26.28a6.35 6.35 0 0 1 8.98 0l33.36 33.359a6.352 6.352 0 0 1 0 8.981L146.733 12.17a6.348 6.348 0 0 0-.901 7.83 149.82 149.82 0 0 1 18.34 44.232 6.344 6.344 0 0 0 6.172 4.894h37.146a6.35 6.35 0 0 1 6.351 6.35v47.177a6.35 6.35 0 0 1-6.351 6.35z" style="fill:none;stroke:#000;stroke-width:15;stroke-linecap:round;stroke-linejoin:round;stroke-miterlimit:10;stroke-dasharray:none;stroke-opacity:1" transform="translate(238.5 209.095)"></path></g></svg>