<svg xmlns="http://www.w3.org/2000/svg" viewBox="17.74 17.66 476.41 476.51"><path d="M445.9 18.1c-17.3 1.1-43.2 5.3-62.2 10-60 15.1-113.3 42.5-162.2 83.5l-11.1 9.2-12.2-4.4c-24.7-9-45.1-12.3-58.2-9.5-11.4 2.5-29.2 12.5-48 27-23.6 18.2-69 61.6-72.3 69-4.1 9.2-1.6 20.4 6 27.2 3.5 3.2 7.2 4.7 26.4 10.8 27.2 8.8 51.3 16.5 51.6 16.7.2 0-3.9 8.2-9 18.2L85.5 294l.1 8.2c0 15.1-1.8 12.7 53.8 68.6 53 53.2 54.3 54.3 66.1 55.7 8.2 1.1 14.3-.8 32.3-10.1 16.2-8.3 16.3-8.3 17.2-6 .4 1.3 5.7 17.4 11.5 35.7 5.9 18.4 11.3 34.5 12 35.9 5.3 10.3 19.8 15.1 30.6 10.3 6.9-3.2 47-44.7 66.2-68.8 15.5-19.4 26.8-38.9 29.7-51.4 3-12.7-.4-33.3-9.4-58.3l-4.4-12.2 9.2-11.1c15.9-18.9 26.8-34.3 39.6-55.5 7.4-12.3 21.1-39.9 26.5-53.2 16.6-41.2 27.3-89.7 27.6-125.8.2-11.2 0-12.2-2.8-18.2-5.7-11.9-15.3-18.6-28.8-20-2.2-.3-9.7-.1-16.6.3m18.2 30c1.8 1.8 2 2.8 1.4 11.7-2.9 45.4-14.7 89.7-34.9 131.7-33 68.7-87.5 127.6-160.6 173.7-22.6 14.3-57 32.8-60.7 32.8-2.4 0-95.3-92.9-95.3-95.3 0-2.1 6.8-15.7 16.8-33.7C196.4 151.4 290.7 76.8 404 53c13.1-2.8 33.8-5.7 45-6.3 12.9-.8 13-.7 15.1 1.4m-290.9 90.3c4.5 1.4 9.6 2.9 11.1 3.5l2.9 1.1-8.4 9.3c-19.1 21.1-33.3 39.5-49.5 64-5.8 8.7-11.1 15.6-11.7 15.4s-15.8-5.1-33.8-10.8-32.7-10.6-32.7-10.9c.2-.9 36.3-34.9 45.4-42.6 22.4-19 40.9-30.9 50.3-32.3 6.2-.9 16.1.4 26.4 3.3M371.9 333c3.5 10.9 5.2 19.9 5.2 27.4 0 6.5-.4 7.9-4.5 16.1-4.9 9.6-15.5 24.3-28 39-7.8 9.1-41.7 45.2-42.6 45.4-.3 0-5.2-14.7-10.9-32.7-5.8-18-10.6-33.2-10.8-33.8s6.7-5.9 15.4-11.6c24.6-16.3 46.4-33.4 66.3-51.6 3.6-3.3 6.8-5.7 7.1-5.4.4.4 1.6 3.6 2.8 7.2"></path><path d="M329 110.5c-32.3 7.3-52.3 40.5-44 72.9 2.9 11.3 7.3 19 16 27.6 8.6 8.7 16.3 13.1 27.6 16 31.7 8.1 63.7-10.5 73-42.5 2.1-7.4 2.4-21.9.5-29.5-5.2-21.1-20.1-37-40.8-43.6-7-2.2-24.4-2.7-32.3-.9m27.6 29.7c6.2 2.9 12.3 8.9 15.4 15.3 3.3 6.9 3.5 18.9.4 25.6-3.1 6.6-8.7 12.4-15.2 15.6-4.9 2.4-6.9 2.8-14.2 2.8-10-.1-15.5-2.2-21.9-8.7-6.6-6.5-8.6-11.8-8.6-22.3 0-7.8.4-9.7 2.7-14.1 2.6-5 8.5-11.1 13-13.5 8.3-4.5 19.9-4.8 28.4-.7M72.5 350.5c-5 1.8-6.6 3.7-12.5 15.5-11.9 23.8-19.2 50.9-22 82.3-1.3 13.8-.9 16.6 3.1 21.2 4.6 5.2 7.9 5.9 22.2 4.6 31.3-2.8 58.2-10 82.4-21.9 11.4-5.6 14-7.7 15.7-12.5 2.9-8.4-2.3-17.5-10.8-19.1-3.3-.6-5.4 0-16.6 5.3-19.3 9.2-39.7 15.2-62.8 18.5l-4.2.6.6-4.2c3.3-23.1 9.3-43.5 18.5-62.8 5.2-11.1 5.9-13.3 5.3-16.5-.9-4.9-5.6-10.2-10.2-11.5-4.4-1.2-3.8-1.2-8.7.5"></path></svg>