<svg xmlns="http://www.w3.org/2000/svg" viewBox="7 2 50 60"><path d="M30 52a1 1 0 0 0-1 1v4a1 1 0 1 0 2 0v-4a1 1 0 0 0-1-1M22 52a1 1 0 0 0-1 1v4a1 1 0 1 0 2 0v-4a1 1 0 0 0-1-1"></path><path d="M56.707 49.933 46.092 39.318c.584-1.349.908-2.82.908-4.318 0-3.098-1.29-5.986-3.542-8.063C44.478 24.764 45 22.77 45 21c0-10.477-8.523-19-19-19S7 10.523 7 21c0 5.09 4.382 11.052 6.993 14.152a12.07 12.07 0 0 1 2.65 5.792L17.82 48H16a1 1 0 0 0-1 1v8c0 2.757 2.243 5 5 5h12c2.757 0 5-2.243 5-5v-8a1 1 0 0 0-1-1h-1.82l.35-2.107c.481.065.97.107 1.47.107 1.5 0 2.976-.325 4.318-.907l10.615 10.614a1 1 0 0 0 1.414 0l4.36-4.36a1 1 0 0 0 0-1.414M43 21c0 1.368-.39 2.937-1.16 4.677-.102-.064-.21-.115-.313-.176-.207-.121-.413-.245-.625-.352-.182-.092-.369-.167-.554-.248-.156-.068-.31-.14-.468-.2-.182-.07-.368-.127-.553-.187a11 11 0 0 0-.522-.156 11 11 0 0 0-.536-.124 10.7 10.7 0 0 0-1.763-.217c-.156-.006-.31-.015-.468-.014-.259 0-.52.015-.782.034-.108.007-.214.004-.323.015.297-6.997-.905-13.796-3.368-19.098C38.21 7.266 43 13.577 43 21M29.064 4.291c.019.06.024.124.055.182 2.829 5.275 4.191 12.52 3.8 19.97C28.288 25.806 25 30.123 25 35a11 11 0 0 0 .766 4h-3.14c-4.912-9.7-4.835-25.032.255-34.527.031-.058.036-.121.055-.182C23.932 4.11 24.953 4 26 4s2.068.11 3.064.291m-13.54 29.574C13.088 30.973 9 25.455 9 21c0-7.42 4.785-13.727 11.426-16.042-4.513 9.753-4.52 24.275-.02 34.042h-2.16a14 14 0 0 0-2.722-5.135M35 57c0 1.654-1.346 3-3 3H20c-1.654 0-3-1.346-3-3v-7h18zm-15.153-9-1.167-7h8.115c.089.135.173.274.267.405.069.095.145.184.217.277.146.19.293.38.45.559.094.106.193.206.29.309q.22.234.451.454.168.156.341.303a11 11 0 0 0 .85.667 11 11 0 0 0 1.401.841q.22.114.446.218c.178.08.36.15.543.22.147.056.292.116.442.167.028.009.055.022.083.031L32.152 48zm14.089-4.244a9 9 0 0 1-5.73-4.256A9 9 0 0 1 27 35c0-4.206 2.987-7.908 7.091-8.8q.505-.104 1.002-.153c.136-.013.271-.013.407-.02.183-.012.368-.025.55-.025.133 0 .265.01.397.016q.227.01.451.03.248.025.491.062.169.027.335.06c.173.034.347.067.517.11.068.018.134.041.2.06q.472.134.926.319.203.08.403.17a9 9 0 0 1 .833.446c.093.056.187.11.278.17A8.943 8.943 0 0 1 45 35c0 1.43-.341 2.84-.993 4.089a8.95 8.95 0 0 1-3.93 3.925c-1.85.966-4.152 1.232-6.141.742m17.704 9.83-9.48-9.48c.04-.028.078-.061.119-.09q.282-.198.553-.413c.074-.06.15-.115.222-.176q.75-.627 1.376-1.376.083-.102.162-.205.224-.278.428-.572c.027-.04.059-.075.085-.114l9.48 9.48z"></path></svg>