<svg xmlns="http://www.w3.org/2000/svg" viewBox="3.7 7.05 504.57 497.2"><path d="M117.125 150.313c5.461 3.97 10.696 8.262 15.941 12.511A902.615 902.615 0 0 0 144.625 172c2.126 1.665 4.251 3.332 6.375 5 .92.713 1.84 1.426 2.79 2.16 2.968 2.471 3.919 4.16 5.21 7.84.203 3.334.312 6.636.3 9.977.437 3.195.437 3.195 3.07 5.168 4.477 2.772 9.274 2.523 14.4 2.562l3.138.048c2.186.024 4.372.038 6.558.041 3.327.016 6.648.102 9.973.19 10.867.438 10.867.438 20.905-2.928 2.2-2.236 3.855-4.504 5.656-7.058 12.67-9.522 27.578-11.156 42.91-9.012 3.317.488 6.627 1.012 9.938 1.54 1.787.271 3.574.542 5.362.81 4.67.707 9.338 1.429 14.006 2.156 7.47 1.164 14.942 2.31 22.417 3.44 2.585.396 5.168.803 7.751 1.21 18.026 3.081 18.026 3.081 35.303-1.394l2.095-1.058c3.384-1.925 4.936-3.033 6.5-6.684.478-3.093.478-3.093.355-6.078.521-4.205 2.126-6.376 5.363-8.93 4.532-2.575 9.242-4.698 14-6.813 1.355-.612 2.71-1.226 4.064-1.84a1375.57 1375.57 0 0 1 8.13-3.643c3.363-1.499 6.7-3.049 10.033-4.614 17.862-8.254 17.862-8.254 26.773-6.09 8.672 4.181 11.535 12.005 15 20.438l1.455 3.49c4.23 10.196 8.33 20.444 12.41 30.702 4.108 10.327 8.274 20.631 12.447 30.933l2.172 5.362c3.235 7.987 6.474 15.973 9.717 23.957l4.082 10.05c.935 2.301 1.871 4.603 2.808 6.904 1.647 4.05 3.283 8.105 4.909 12.164l.766 1.906c.715 1.786 1.42 3.575 2.125 5.364l1.204 3.046c1.757 5.21 1.398 9.002-.158 14.309-3.923 6.834-9.99 10.274-17.074 13.285l-2.305 1.015c-2.41 1.057-4.828 2.097-7.245 3.137-1.602.7-3.203 1.402-4.803 2.104a1478.42 1478.42 0 0 1-11.455 4.95c-1.894.815-3.78 1.644-5.667 2.475l-3.165 1.374-2.668 1.171c-4.481 1.515-8.907 1.604-13.555.864l-2.938-1.563c-7.946-3.73-19.694.173-28.062 1.563l.14 2.02c.392 10.002-1.772 17.576-8.202 25.355-5.419 5.569-11.242 9.187-19.083 9.918A83.703 83.703 0 0 1 373 384l.14 2.71c.315 10.53-1.009 17.737-7.64 26.04-7.035 7.362-15.43 10.815-25.516 11.242L338 424l1 2c.084 9.77-2.531 18.235-9.262 25.434-7.277 6.557-15.208 7.658-24.738 8.566l-.008 1.984c-.41 9.672-3.615 18.25-10.742 25.016-9.231 7.097-18.938 8.222-30.25 7-2.66-.857-4.893-1.818-7.3-3.223-1.884-1.095-1.884-1.095-4.7.223-1.308 1.475-1.308 1.475-2.563 3.25-4.271 5.216-10.151 7.655-16.437 9.75-11.92.945-20.18-.489-29.375-8.25-4.16-3.951-6.443-7.477-8.625-12.75l-2-3-2.25 1c-9.08 2.422-17.542 1.58-25.75-3-7.063-4.593-12.458-9.738-15-18-.125-2.813-.125-2.813 0-5l-2.02.977c-8.092 2.778-19.057 2.117-26.742-1.602C112.565 449.047 107.55 442.551 104 433c-.636-2.763-.89-5.155-1-8l-3.148-.078c-13.923-.498-22.863-3.372-32.575-13.766-5.524-6.623-8.012-15.11-7.613-23.722 1.62-11.74 6.783-20.6 14.938-29.105 5.339-6.04 5.274-11.7 5.085-19.517l.045-3.521c-.006-6.703-.006-6.703-3.087-12.467A430.163 430.163 0 0 0 71 319l-2.875 2.438c-4.548 3.855-8.047 4.037-13.98 3.953-5.2-.646-8.18-3.126-12.145-6.391a714.416 714.416 0 0 0-3.176-2.46 801.234 801.234 0 0 1-8.963-7.062c-2.482-1.971-4.981-3.92-7.48-5.869a1109.742 1109.742 0 0 1-5.303-4.175 404.254 404.254 0 0 0-5.406-4.211c-4.624-3.662-7.119-7.28-7.95-13.2-.426-8.831 4.479-15.049 9.59-21.773 1.268-1.693 2.535-3.385 3.801-5.078l1.96-2.604c3.003-4.002 5.964-8.036 8.927-12.068l3.492-4.738c2.361-3.205 4.72-6.41 7.078-9.617a2789.853 2789.853 0 0 1 17.896-24.094c3.832-5.1 7.627-10.226 11.409-15.363l1.758-2.386c3.05-4.143 6.091-8.293 9.12-12.45l1.87-2.558a1471.54 1471.54 0 0 0 3.496-4.801c8.353-11.412 17.985-23.706 33.006-14.18Zm-14.756 13.13c-.47.675-.942 1.35-1.428 2.045l-1.646 2.301-1.733 2.524c-1.248 1.756-2.496 3.513-3.746 5.269l-1.921 2.737c-2.903 4.107-5.9 8.142-8.895 12.181a8855.986 8855.986 0 0 0-3.5 4.75l-36.753 49.878a3163.283 3163.283 0 0 0-3.468 4.718 880.394 880.394 0 0 1-9.236 12.361l-1.955 2.59a540.118 540.118 0 0 1-3.734 4.887C20.024 275.24 20.024 275.24 19 282c2.03 2.553 2.03 2.553 5.063 4.688l1.634 1.272a296.61 296.61 0 0 0 3.49 2.67c2.417 1.826 4.787 3.709 7.16 5.59a735.241 735.241 0 0 0 5.313 4.147 178.672 178.672 0 0 1 6.274 5.14l2.629 2.243 2.253 1.984c2.124 1.463 2.124 1.463 4.684 1.336 3.461-1.482 4.952-3.892 6.938-6.945.876-1.286 1.756-2.572 2.636-3.855l1.424-2.096c2.661-3.852 5.462-7.601 8.252-11.361a25543.809 25543.809 0 0 0 5.436-7.357c2.942-3.982 5.878-7.97 8.814-11.956l3.492-4.738c2.361-3.205 4.72-6.41 7.078-9.617 5.446-7.405 10.905-14.8 16.43-22.145a2308.75 2308.75 0 0 0 18.483-24.937 499.069 499.069 0 0 1 3.994-5.348l1.96-2.653 1.622-2.152c1.13-1.85 1.13-1.85.696-3.85-.901-2.46-1.851-3.328-3.896-4.943l-1.977-1.584-2.132-1.658-2.175-1.729a1011.994 1011.994 0 0 0-16.708-12.927c-1.498-1.16-2.99-2.332-4.39-3.61-3.073-2.799-3.073-2.799-6.97-3.966-2.55.128-2.55.128-4.138 1.8Zm323.287.14-2.498 1.124-2.658 1.246-2.768 1.26c-2.916 1.334-5.824 2.685-8.732 4.037-1.958.896-3.916 1.79-5.875 2.684-1.875.86-3.75 1.72-5.625 2.582l-2.658 1.222c-4.086 1.9-8.038 3.828-11.842 6.262.582 4.216 1.57 7.846 3.17 11.785l1.372 3.403 1.497 3.66 1.554 3.84c1.384 3.42 2.775 6.836 4.168 10.252 1.447 3.555 2.888 7.112 4.329 10.668 2.545 6.28 5.096 12.556 7.649 18.832 2.225 5.47 4.444 10.942 6.66 16.415 1.768 4.37 3.536 8.738 5.311 13.103a4879.424 4879.424 0 0 1 8.707 21.555c1.577 3.932 3.158 7.863 4.739 11.794.765 1.905 1.528 3.81 2.29 5.717a2968.53 2968.53 0 0 0 3.167 7.894l.951 2.396c1.667 4.187 1.667 4.187 4.436 7.686 4.151-.387 7.73-2.042 11.523-3.695l1.877-.814c1.994-.867 3.984-1.741 5.975-2.616l4.084-1.782C475.37 320.198 484.24 316.226 493 312c.326-4.952-.757-8.636-2.691-13.113l-.886-2.124a871.355 871.355 0 0 0-1.944-4.62c-1.843-4.347-3.65-8.71-5.463-13.069l-1.202-2.879c-4.645-11.149-9.153-22.353-13.661-33.558a7760.58 7760.58 0 0 0-4.409-10.916c-4.351-10.764-8.685-21.534-12.917-32.346-1.732-4.42-3.477-8.835-5.223-13.25a947.887 947.887 0 0 1-2.422-6.223 897.045 897.045 0 0 0-3.346-8.527l-.96-2.551-.93-2.3-.778-2.003c-1.119-1.745-1.119-1.745-3.518-2.34-2.926-.2-4.35.188-6.994 1.402Zm-209.281 57.98C210.768 227.292 205.099 232.797 199 238c-6.523 5.288-6.523 5.288-10.773 12.277-.158 3.248.425 5.292 2.46 7.813 2.662 2.198 4.9 3.073 8.188 4.098l3.055.98c15.987 4.332 30.362.41 44.757-6.856 10.45-5.215 19.749-6.972 31.22-3.636 10.123 4.333 18.563 12.422 26.823 19.547 3.285 2.817 6.667 5.495 10.082 8.152A832.59 832.59 0 0 1 330 292.5a961.065 961.065 0 0 0 16.772 13.395 512.041 512.041 0 0 1 9.083 7.246c14.63 11.944 29.206 21.448 48.965 19.594 6.748-.763 13.468-1.709 20.18-2.735-2.094-7.665-4.902-14.878-8-22.188a3625.15 3625.15 0 0 1-3.23-7.73l-.886-2.122c-3.725-8.949-7.347-17.94-10.974-26.93l-3.672-9.09a8782.61 8782.61 0 0 1-10.61-26.356c-1.382-3.45-2.768-6.9-4.155-10.347-.643-1.603-1.284-3.206-1.923-4.81-.876-2.2-1.759-4.398-2.644-6.595l-.764-1.938c-1.353-3.337-2.825-6.13-5.142-8.894l-2.781 1.46c-12.184 6.312-21.778 8.58-35.417 6.438l-2.354-.354c-1.674-.253-3.348-.509-5.021-.766-2.663-.41-5.327-.811-7.992-1.21a7788.388 7788.388 0 0 1-22.709-3.441c-4.644-.71-9.289-1.408-13.935-2.1-1.755-.265-3.51-.532-5.264-.805-27.371-4.247-41.306-1.043-61.152 19.34ZM149 212c-1.317 1.447-1.317 1.447-2.617 3.375l-1.57 2.21-1.688 2.415a687659362.48 687659362.48 0 0 1-5.375 7.56c-2.51 3.499-5.09 6.942-7.688 10.377-6.157 8.167-12.222 16.4-18.28 24.64-2.344 3.187-4.692 6.373-7.04 9.558a9342.04 9342.04 0 0 0-3.465 4.706 3195.096 3195.096 0 0 1-9.199 12.436l-1.941 2.618c-1.23 1.656-2.461 3.311-3.696 4.964l-1.675 2.262-1.476 1.982c-1.293 1.9-2.312 3.82-3.29 5.897l1.574.996c7.434 5.07 10.934 10.77 12.739 19.567.244 1.476.48 2.955.687 4.437l2.344-1.46c10.466-6.348 19.365-9.331 31.676-6.958 8.865 2.492 15.323 7.238 20.64 14.77 3.627 6.492 4.571 13.328 5.34 20.648l2.93.078c10.525.459 19.516 1.726 27.539 9.219 5.95 6.617 8.614 13.718 9.156 22.578l.227 3.492L195 397l2.492.043c9.45.404 17.236 2.08 23.883 9.207 4.97 6.486 7.197 13.803 8.625 21.75l3.148.227c9.794.858 17.496 2.349 24.684 9.628 6.23 7.594 7.668 15.39 7.477 25.051-.412 4.131-1.714 7.28-3.309 11.094.195 2.132.195 2.132 1 4 4.005 2.427 8.44 2.68 13 2 6.36-2.135 10.11-5.408 13.25-11.375 1.64-5.741 1.104-10.388-1.758-15.54-5.412-7.565-13.748-12.872-21.158-18.342-6.501-4.81-12.76-9.894-19.006-15.028-4.19-4.01-4.19-4.01-9.328-5.715-1.32-7.2-1.32-7.2 0-10.5 3.06-2.295 5.253-1.88 9-1.5 2.385 1.466 4.233 2.812 6.313 4.625 1.229 1.018 2.46 2.035 3.69 3.05l1.962 1.644c3.53 2.916 7.162 5.697 10.785 8.493 4.725 3.66 9.44 7.332 14.117 11.051l2.415 1.91a743.27 743.27 0 0 1 4.53 3.61c7.624 6.029 7.624 6.029 16.727 8.93 5.658-.848 9.942-2.221 13.715-6.852 2.982-4.551 3.343-8.089 2.746-13.461-2.92-8.94-12.52-14.232-20-19.188-6.933-4.663-13.7-9.474-20.328-14.562-3.107-2.373-6.223-4.649-9.52-6.754l-1.836-1.188a336.291 336.291 0 0 0-4.937-3.078C265 378 265 378 264.059 374.395 264 371 264 371 265.5 368.5c3.619-2.171 5.428-1.505 9.5-.5 2.971 1.66 5.618 3.678 8.313 5.75l4.796 3.574 2.46 1.853c3.795 2.845 7.643 5.615 11.493 8.385.736.531 1.471 1.062 2.23 1.608a1056336372.75 1056336372.75 0 0 1 9.054 6.518c2.297 1.65 4.6 3.295 6.904 4.937l2.094 1.506c7.443 5.282 13.338 8.283 22.656 6.869 6.23-2.519 10.567-6.703 13.25-12.875 1.44-6.001 1.234-10.644-1.75-16.031-5.555-7.753-14.025-13.042-21.746-18.442-3.877-2.718-7.663-5.549-11.442-8.402a1161.875 1161.875 0 0 0-16.055-11.933 2399.78 2399.78 0 0 0-5.05-3.685l-2.32-1.698-2.056-1.499c-4.727-3.705-4.727-3.705-5.331-7.935.5-3.5.5-3.5 2.625-5.563 3.788-1.235 5.22-.45 8.875 1.063a102.951 102.951 0 0 1 6.375 4.375l1.827 1.333c1.94 1.42 3.87 2.854 5.798 4.292l1.9 1.417c3.28 2.45 6.553 4.91 9.823 7.372 7.712 5.8 15.49 11.511 23.277 17.211l2.123 1.56a1311.98 1311.98 0 0 0 5.752 4.19l1.674 1.231c5.578 4.015 10.509 6.018 17.451 5.019 5.832-1.7 9.175-4.626 12.098-9.91 1.963-4.546 2.228-8.397.902-13.09l-2.938-.594c-17.289-3.745-29.829-11.368-43.161-22.8-2.88-2.434-5.856-4.737-8.839-7.043-6.006-4.68-11.879-9.513-17.743-14.37a655.045 655.045 0 0 0-15.07-12.069c-3.868-3.016-7.675-6.1-11.465-9.214-13.452-11.951-13.452-11.951-30.143-16.226-4.341.52-7.798 2.32-11.641 4.316-18.6 9.286-37.798 12.366-57.855 6.129-8.269-2.969-14.338-6.276-18.29-14.516-1.863-5.693-1.433-11.607.208-17.3 4.593-7.854 11.495-13.978 17.937-20.313l4-4-3.086-.044c-3.81-.059-7.619-.136-11.428-.218a789.966 789.966 0 0 0-4.929-.084 775.87 775.87 0 0 1-7.12-.142l-2.194-.02c-6.947-.196-12.76-2.063-18.243-6.492h-2Zm-34.25 125.125-2.203.633c-6.646 3.241-11.024 8.777-15.234 14.68-4.578 6.28-9.305 12.385-14.304 18.337-5.51 6.715-8.784 12.708-8.38 21.55.743 5.354 2.33 9.015 6.57 12.464 6.54 4.444 10.848 5.985 18.801 5.211 12.622-3.073 21.327-19.185 28.566-29.06a350.97 350.97 0 0 1 4.125-5.456l2.434-3.171 2.133-2.762c3.876-5.675 4.563-10.817 3.742-17.551-1.782-5.833-4.889-9.624-10-13-5.697-2.42-10.195-3.717-16.25-1.875Zm18.678 59.992c-1.547 2.04-3.107 4.07-4.666 6.102a8792.789 8792.789 0 0 0-3.262 4.281l-1.565 2.031c-4.189 5.536-6.482 10.068-6.318 17.125.868 5.314 4.075 9.101 7.883 12.719 5.027 3.267 9.485 4.475 15.5 3.625 11.857-3.28 19.444-16.908 26.6-26.189 1.41-1.824 2.83-3.64 4.252-5.456l2.71-3.48 2.442-3.133c4.323-5.939 4.652-10.471 3.996-17.742-2.02-6.299-6.786-10.14-12.375-13.375-17.522-4.172-25.9 11.2-35.197 23.492ZM179 425c-3.738 4.611-7.384 9.293-11 14l-1.758 2.227c-2.92 4.17-2.812 8.891-2.242 13.773 1.624 4.931 4.761 8.269 9.078 11.055 4.67 2.297 8.588 2.352 13.61.82 7.124-4.033 11.51-10.828 16.375-17.25.707-.92 1.414-1.84 2.142-2.79 8.042-10.134 8.042-10.134 10.182-22.472-.793-4.845-3.445-7.533-7.012-10.675-12.232-8.692-21.742 2.195-29.375 11.312Zm40.098 26.383c-8.585 10.012-8.585 10.012-11.371 22.43.585 4.683 2.51 8.568 5.992 11.765 4.993 3.682 8.971 4.94 15.281 4.422 7.222-2.1 10.976-6.923 15-13l1.957-2.938c3.639-5.81 6.721-11.036 6.043-18.062-1.642-6.055-4.916-9.557-10-13-10.19-3.397-16.41.752-22.902 8.383Z"></path><path d="M305.438 23.938A206.797 206.797 0 0 1 310 28l2.29 2.012c14.479 13.46 23.044 32.543 24.03 52.207.726 24.18-6.292 44.482-22.886 62.336-15.486 15.56-34.948 23.601-56.809 23.757-23.722.053-42.713-8.914-59.625-25.312-13.501-13.447-21.092-32.547-21.38-51.512C175.66 69.591 180.894 50.463 196 34l2.012-2.29C206.982 22.06 218.562 15.2 231 11l2.793-.965c24.29-6.963 51.775-1.483 71.644 13.902ZM209 42l-2.11 2.012c-11.492 11.692-16.726 27.747-17.327 43.863.52 19.355 8.541 35.9 22.437 49.125 12.943 11.836 29.31 17.41 46.691 17.215 18.63-1.21 34.379-9.29 47.18-22.688C317.687 117.5 323.186 100.264 322 82c-2.72-18.993-11.201-34.658-26-47-27.602-18.958-63.293-17.328-87 7Z"></path><path d="M288 62c1.938 2.188 1.938 2.188 3 5-.325 4.771-1.435 7.064-4.782 10.429l-2.428 2.476-2.645 2.615-2.71 2.724c-1.894 1.897-3.791 3.788-5.698 5.67a852.377 852.377 0 0 0-7.259 7.278c-2.307 2.33-4.634 4.64-6.958 6.953l-2.615 2.645-2.476 2.428-2.158 2.146c-2.786 2.007-4.87 2.394-8.271 2.636-5.277-2.123-9.27-6.865-13.25-10.813l-2.219-2.119c-5.269-5.215-5.269-5.215-6.566-9.435.038-2.845.403-4.314 2.035-6.633 3.497-1.749 6.316-2.155 10-1 4.052 3.344 7.527 7.068 11 11 4.815-4.005 9.32-8.205 13.703-12.676l3.719-3.756a3934.42 3934.42 0 0 0 5.773-5.86c1.874-1.903 3.753-3.8 5.633-5.696l1.743-1.784C279.06 61.71 281.705 60.164 288 62Z"></path></svg>