<svg xmlns="http://www.w3.org/2000/svg" viewBox="0.23 13.44 511.33 484.83"><path d="M112.5 14c-21.1 2-41 8.9-57.7 20-8.5 5.8-25.3 22.8-31.3 31.9C3.2 96.7-4.4 135.8 3 171.9c5.8 28.5 18.6 51.3 42.9 76.3 22.6 23.3 39.3 35.6 92.5 68.4 55.4 34.1 73.7 46.9 90.3 62.9l8.4 8-4.4 5.5c-6.3 7.8-18.6 26.5-21.8 33-11.8 23.8-11.7 52 .3 63.8 17.1 17 41.9 8 64-23.3 14.5-20.4 18.1-43.3 10.3-64.1-1.5-3.8-2.9-7.6-3.1-8.4-.8-2.5 17.1-17.6 68.1-57.5 57.3-44.8 83.3-67.4 104.4-90.9 13.8-15.3 18.5-21.2 26.7-33.6 13.7-20.9 23.5-43.5 28.1-65 2.8-13.3 2.4-35.6-1-48.2-4.9-18.4-13.7-33.9-26.3-46.4C461 31.2 431.4 20 397 20c-26.2 0-48.1 5.9-69.3 18.6C309.7 49.4 289 68.8 276 87c-3.4 4.7-6.3 8.5-6.5 8.5-.1 0-3.5-4.2-7.4-9.3C224.7 37.9 165 9 112.5 14m21.8 35c23.6 2.3 42.6 9.1 63.2 22.8 18.7 12.3 33.5 27.6 45.8 47.2 12.7 20.1 20.7 28 28.7 28 6.2 0 9.7-3.3 16.3-15.5 14.9-27.4 30.6-45.7 50.7-58.9 28.2-18.6 62.9-23.7 90.8-13.4 14.7 5.4 31.5 19.2 39.1 32.1 19.7 33.5 9 75.5-31.1 122.2-12.9 14.9-42.1 43.3-60.3 58.5-8.3 6.9-30.3 24.4-48.9 39-18.7 14.6-40.8 32.2-49.2 39.2-8.4 6.9-15.8 12.9-16.4 13.3-.7.4-4.7-2.7-9.8-7.7-20.9-20.2-44-36.7-91.2-65.3-47.8-29-66-41.8-84.8-59.9C43.8 198.4 31 166.1 36 126.1c5.4-42.5 36.3-73 78.3-77 4.5-.5 8.4-.9 8.7-1 .3 0 5.4.4 11.3.9m119.1 385.3c-2.2 6.9-10.7 20.7-12.7 20.7-1 0 .5-7.3 3-14.5 1.3-3.8 4.2-10.1 6.6-13.9l4.2-7.1.3 4.8c.2 2.7-.4 7.2-1.4 10"></path></svg>