<svg xmlns="http://www.w3.org/2000/svg" viewBox="15 16.76 481.99 478.46"><path d="M478.7 388.9c-10.62-10.58-24.13-16.55-38.02-17.91v-31.36c0-17.28-16.3-31.34-36.33-31.34H262v-25.9h7.3c8.1 0 14.69-6.58 14.69-14.66V246.7c0-1.21.69-2.15 1.85-2.53 4.74-1.55 9.4-3.48 13.87-5.74 1.09-.55 2.27-.37 3.13.5l14.92 14.88c5.72 5.71 15.04 5.71 20.76 0l20.68-20.62c2.77-2.77 4.3-6.45 4.3-10.38s-1.53-7.61-4.3-10.38l-14.92-14.88c-.85-.85-1.04-2-.49-3.07 2.26-4.45 4.2-9.1 5.75-13.83.38-1.15 1.34-1.84 2.56-1.84h21.09c8.1 0 14.69-6.58 14.69-14.66V135c0-8.09-6.59-14.66-14.69-14.66H352.1c-1.22 0-2.18-.69-2.56-1.84a99 99 0 0 0-5.76-13.83c-.54-1.07-.36-2.22.49-3.07l14.92-14.88c2.77-2.77 4.3-6.45 4.3-10.38s-1.53-7.61-4.3-10.38l-20.68-20.62c-5.72-5.71-15.04-5.71-20.76 0l-14.92 14.88c-.87.86-2.04 1.05-3.13.5a99 99 0 0 0-13.87-5.73c-1.16-.38-1.85-1.32-1.85-2.53V31.42c0-8.09-6.59-14.66-14.69-14.66h-29.25c-8.1 0-14.69 6.58-14.69 14.66v21.03c0 1.21-.69 2.15-1.85 2.53-4.74 1.55-9.4 3.48-13.87 5.74-1.1.55-2.27.37-3.13-.5l-14.9-14.88c-5.73-5.71-15.04-5.71-20.76 0l-20.68 20.62c-2.77 2.77-4.3 6.45-4.3 10.38s1.53 7.61 4.3 10.38l14.92 14.88c.87.86 1.05 1.98.49 3.07a100 100 0 0 0-5.76 13.83c-.38 1.15-1.33 1.84-2.56 1.84h-21.09c-8.1 0-14.69 6.58-14.69 14.66v29.16c0 8.09 6.59 14.66 14.69 14.66h21.09c1.22 0 2.18.69 2.56 1.84 1.56 4.73 3.49 9.38 5.76 13.83.54 1.07.36 2.22-.5 3.07l-14.92 14.88c-2.77 2.77-4.3 6.45-4.3 10.38s1.53 7.61 4.3 10.38l20.68 20.62c5.72 5.71 15.04 5.71 20.76 0l14.92-14.88c.87-.86 2.04-1.05 3.13-.5a100 100 0 0 0 13.87 5.73c1.16.38 1.85 1.32 1.85 2.53v21.03c0 8.09 6.59 14.66 14.69 14.66H250v25.9H107.66c-20.03 0-36.33 14.06-36.33 31.34v31.36c-13.89 1.36-27.41 7.32-38.02 17.91C21.5 400.66 15 416.31 15 432.95s6.5 32.29 18.3 44.06c12.18 12.14 28.17 18.21 44.16 18.21s31.99-6.07 44.16-18.21c11.8-11.77 18.3-27.41 18.3-44.06 0-16.64-6.5-32.29-18.3-44.05-10.69-10.65-24.32-16.63-38.3-17.93v-31.33c0-10.48 11.14-19.34 24.33-19.34H250v50.92c-13.22 1.69-26 7.58-36.13 17.68-11.8 11.77-18.3 27.41-18.3 44.05s6.5 32.29 18.3 44.06c12.18 12.14 28.17 18.21 44.16 18.21s31.99-6.07 44.16-18.21c11.8-11.77 18.3-27.41 18.3-44.06 0-16.64-6.5-32.29-18.3-44.05-11.17-11.13-25.55-17.15-40.19-18.07v-50.54h142.34c13.19 0 24.33 8.86 24.33 19.34v31.33c-13.99 1.3-27.62 7.28-38.3 17.93-11.8 11.77-18.3 27.41-18.3 44.05s6.5 32.29 18.3 44.06c12.18 12.14 28.17 18.21 44.16 18.21s31.99-6.07 44.16-18.21c11.8-11.77 18.3-27.41 18.3-44.06.01-16.63-6.49-32.28-18.29-44.04M237.36 267.73V246.7c0-6.35-4.06-11.95-10.11-13.93a87 87 0 0 1-12.19-5.04 14.725 14.725 0 0 0-17.02 2.71l-14.92 14.88c-1.03 1.03-2.78 1.03-3.82 0l-20.68-20.62a2.64 2.64 0 0 1-.77-1.88c0-.41.1-1.21.77-1.88l14.92-14.88a14.62 14.62 0 0 0 2.72-17.01c-1.99-3.91-3.69-8-5.06-12.15a14.66 14.66 0 0 0-13.95-10.08h-21.09c-1.48 0-2.69-1.2-2.69-2.66V135c0-1.47 1.21-2.66 2.69-2.66h21.09c6.36 0 11.97-4.05 13.95-10.08 1.37-4.16 3.07-8.25 5.06-12.15a14.62 14.62 0 0 0-2.72-17.01l-14.92-14.88c-.67-.67-.77-1.46-.77-1.88s.1-1.21.77-1.88l20.68-20.62c1.03-1.03 2.78-1.03 3.82 0l14.92 14.88c4.5 4.49 11.34 5.58 17.01 2.71a88 88 0 0 1 12.19-5.04 14.63 14.63 0 0 0 10.11-13.93V31.42c0-1.47 1.21-2.66 2.69-2.66h29.25c1.48 0 2.69 1.2 2.69 2.66v21.03c0 6.35 4.06 11.95 10.11 13.93 4.17 1.37 8.27 3.06 12.19 5.04a14.665 14.665 0 0 0 17.01-2.71l14.92-14.88c1.03-1.03 2.78-1.03 3.82 0l20.68 20.62c.67.67.77 1.46.77 1.88s-.1 1.21-.77 1.88l-14.92 14.88a14.62 14.62 0 0 0-2.72 17.01c1.99 3.91 3.69 8 5.06 12.15 2.02 6.12 7.5 10.08 13.95 10.08h21.09c1.48 0 2.69 1.2 2.69 2.66v29.16c0 1.47-1.21 2.66-2.69 2.66H352.1c-6.46 0-11.94 3.96-13.95 10.08a87 87 0 0 1-5.06 12.15 14.62 14.62 0 0 0 2.72 17.01l14.92 14.88c.67.67.77 1.46.77 1.88 0 .41-.1 1.21-.78 1.88l-20.68 20.62c-1.04 1.03-2.78 1.03-3.82 0l-14.92-14.88a14.67 14.67 0 0 0-17.01-2.71 87.4 87.4 0 0 1-12.19 5.04 14.63 14.63 0 0 0-10.11 13.93v21.03c0 1.47-1.21 2.66-2.69 2.66h-29.25c-1.48.01-2.69-1.18-2.69-2.65M47.88 473.69c2.94-11.04 13.06-19.02 24.79-19.02h9.6c11.73 0 21.84 7.98 24.79 19.02-8.79 6.35-19.19 9.53-29.59 9.53s-20.8-3.18-29.59-9.53m29.59-32.98c-7.9 0-14.32-6.4-14.32-14.26s6.43-14.26 14.32-14.26c7.9 0 14.32 6.4 14.32 14.26s-6.43 14.26-14.32 14.26m50.46-7.76c0 11.73-4 22.85-11.36 31.8-4.09-8.96-11.57-15.98-20.72-19.53 4.89-4.77 7.94-11.42 7.94-18.77 0-14.48-11.81-26.26-26.32-26.26s-26.32 11.78-26.32 26.26c0 7.35 3.05 14 7.94 18.77-9.14 3.55-16.63 10.57-20.72 19.53C31 455.79 27 444.68 27 432.95c0-13.43 5.25-26.06 14.77-35.56 9.84-9.81 22.77-14.71 35.69-14.71 12.93 0 25.85 4.9 35.69 14.71 9.53 9.5 14.78 22.13 14.78 35.56m100.51 40.74c2.94-11.04 13.06-19.02 24.79-19.02h9.6c11.73 0 21.84 7.98 24.79 19.02-8.79 6.35-19.19 9.53-29.59 9.53s-20.8-3.18-29.59-9.53m29.59-32.98c-7.9 0-14.32-6.4-14.32-14.26s6.43-14.26 14.32-14.26c7.9 0 14.32 6.4 14.32 14.26s-6.42 14.26-14.32 14.26m50.46-7.76c0 11.73-4 22.85-11.36 31.8-4.09-8.96-11.57-15.98-20.72-19.53 4.89-4.77 7.94-11.42 7.94-18.77 0-14.48-11.81-26.26-26.32-26.26s-26.32 11.78-26.32 26.26c0 7.35 3.05 14 7.94 18.77-9.14 3.55-16.63 10.57-20.72 19.53-7.36-8.96-11.36-20.07-11.36-31.8 0-13.43 5.25-26.06 14.77-35.56 9.84-9.81 22.77-14.71 35.69-14.71 12.93 0 25.85 4.9 35.69 14.71 9.53 9.5 14.77 22.13 14.77 35.56m96.46 40.74c2.94-11.04 13.06-19.02 24.79-19.02h9.6c11.73 0 21.84 7.98 24.79 19.02-8.79 6.35-19.19 9.53-29.59 9.53s-20.8-3.18-29.59-9.53m29.58-32.98c-7.9 0-14.32-6.4-14.32-14.26s6.43-14.26 14.32-14.26 14.32 6.4 14.32 14.26c.01 7.86-6.42 14.26-14.32 14.26m39.11 24.04c-4.09-8.96-11.57-15.98-20.72-19.53 4.89-4.77 7.94-11.42 7.94-18.77 0-14.48-11.81-26.26-26.32-26.26s-26.32 11.78-26.32 26.26c0 7.35 3.05 14 7.94 18.77-9.14 3.55-16.63 10.57-20.72 19.53-7.36-8.96-11.36-20.07-11.36-31.8 0-13.43 5.25-26.06 14.77-35.56 9.84-9.81 22.77-14.71 35.69-14.71 12.93 0 25.85 4.9 35.69 14.71 9.53 9.5 14.77 22.13 14.77 35.56 0 11.73-4 22.84-11.36 31.8M324.68 149.58c0-38.49-31.4-69.8-70-69.8s-70 31.31-70 69.8 31.4 69.8 70 69.8 70-31.32 70-69.8m-70 57.8c-31.98 0-58-25.93-58-57.8s26.02-57.8 58-57.8 58 25.93 58 57.8-26.02 57.8-58 57.8m38.79-86.77c-6-6-15.76-6-21.76 0l-25.1 25.1-8.96-8.96c-6-6-15.76-6-21.76 0-2.9 2.9-4.5 6.76-4.5 10.88s1.6 7.98 4.5 10.88l20.14 20.14c2.82 2.82 6.58 4.38 10.58 4.38s7.76-1.55 10.58-4.38l36.28-36.28c6-5.99 6-15.76 0-21.76m-8.48 13.28-36.28 36.28a2.97 2.97 0 0 1-4.2 0l-20.14-20.14c-.63-.63-.98-1.48-.98-2.4s.35-1.76.98-2.4c.65-.65 1.52-.97 2.4-.97s1.75.32 2.4.97l13.2 13.2c1.12 1.12 2.65 1.76 4.24 1.76s3.12-.63 4.24-1.76l29.34-29.34c1.3-1.3 3.49-1.3 4.79 0 1.3 1.31 1.3 3.5.01 4.8"></path></svg>