<svg xmlns="http://www.w3.org/2000/svg" version="1.0" viewBox="60.57 0 390.95 511.42"><path d="M184.1 2.7c-3.7 3.6-42.8 62.2-43.6 65.5-.5 2 .1 3.4 2.5 6.1 1.7 2 23.6 22.6 48.6 45.8 29.8 27.7 45 42.5 44.2 43-.7.3-3.5 1-6.3 1.4-2.7.3-9 1.8-13.8 3.1-27.5 7.7-48.3 19.9-68.7 40.4-25 25-39.2 54-44 89.7-1.7 12.7-.8 36.9 2 49.7 13.6 63.5 63.3 110.8 127.5 121.2 11.6 1.9 35.4 1.9 47 0 64.2-10.4 114-57.8 127.5-121.1 2.8-12.9 3.7-37 2-49.8-4.8-35.7-19-64.7-44-89.7-20.4-20.5-41.2-32.7-68.7-40.4-4.8-1.3-11-2.8-13.8-3.1-2.7-.4-5.6-1.1-6.3-1.4-.8-.5 14.4-15.3 44.2-43 25-23.2 46.9-43.8 48.6-45.8 2.4-2.7 3-4.1 2.5-6.1-.8-3.3-39.9-61.9-43.6-65.5L325 0H187l-2.9 2.7zm58.7 13.1c-.1.4-4.8 9-10.2 19.1-6.4 11.9-10.1 17.9-10.6 17-.4-.8-4.9-9-9.9-18.2-5-9.3-9.1-17.3-9.1-17.8s8.3-.9 20.1-.9c11 0 19.9.4 19.7.8zm66.2.2c0 .8-18.3 35.3-19.5 36.7-.1.3-4.7-7.9-16-29l-4.7-8.7h20.1c13 0 20.1.4 20.1 1zM199.5 42.3c5.3 9.9 9.5 18.1 9.2 18.3-.2.2-10.6.3-23.1.2l-22.6-.3 12.6-18.9c6.9-10.3 12.9-18.4 13.4-18 .4.5 5.1 8.9 10.5 18.7zm137-.6L349 60.5l-22.6.3c-12.5.1-22.9.1-23.1-.2-.4-.4 19.6-37.6 20.3-37.6.2 0 6 8.4 12.9 18.7zm-70 1.3 9.4 17.5-9.9.3c-5.5.1-14.5.1-19.9 0l-10-.3 9.6-17.8c5.3-9.8 10-17.6 10.5-17.5.5.2 5.1 8.2 10.3 17.8zm-38.4 66.9c6 17.9 10.8 32.6 10.6 32.7-.1.1-12.8-11.5-28.2-25.8-15.4-14.4-31.4-29.2-35.5-33l-7.4-6.8 24.9.2 24.8.3 10.8 32.4zm39.6.6c-6.2 18.4-11.4 33.5-11.7 33.5-.5 0-22-64.9-22-66.4 0-.3 10.1-.6 22.4-.6h22.4l-11.1 33.5zm69.2-26.6c-4.1 3.7-20 18.5-35.4 32.9-15.4 14.3-28.1 25.9-28.2 25.8-.2-.2 19.2-59.2 21.2-64.4.3-.9 6.3-1.2 25.2-1.2h24.7l-7.5 6.9zM267 178c34.5 3.1 63.8 16.8 87.8 41.1 10.8 11 19.1 22.8 25.7 36.4 6.4 13.3 8.8 20.1 11.4 33.1 10.5 51.8-9 104.7-50.4 136.8-25.6 19.9-53.6 29.6-85.5 29.6s-59.9-9.7-85.5-29.6c-41.4-32.1-60.9-85-50.4-136.8 2.6-13 5-19.8 11.4-33.1 14.8-30.8 42.7-56.6 73.9-68.5 14.3-5.5 26.2-7.9 48.6-9.9.8 0 6.7.4 13 .9z"></path><path d="M167.9 141.8c-47.9 24.3-84.8 68.3-99.3 118.6-19.9 68.6-2.3 140.4 46.9 191.5 29.9 31 66.4 50 111 57.8 13.8 2.3 45.2 2.3 59 0 36.6-6.4 66.3-19.6 94-42 48.7-39.3 76.2-102.6 71.5-164.6-4.6-61.3-35-114.3-85-148.4-12-8.2-32.1-18.7-35.7-18.7-5.8 0-9.4 5-7.2 10.2.9 2.1 3.1 3.8 8.8 6.5 39 18.7 69.2 48.8 87.2 86.8 23.2 49.3 22.6 108.3-1.7 156.7-21.2 42.3-57.4 74.3-101.9 90.2-32.1 11.4-70.1 13.1-104 4.5-63.2-16-114-66.7-130-129.9-4.4-17.7-5.8-30.7-5.2-50.5.4-14 1.1-20.7 3.1-30.3 11.7-55.4 46.4-100.3 96.8-125.4 6.5-3.2 12.2-6.7 12.8-7.8 2.7-5-.9-11-6.7-11-1.7 0-7.9 2.5-14.4 5.8z"></path></svg>