<svg xmlns="http://www.w3.org/2000/svg" viewBox="4.81 4.8 118.39 118.4"><path d="M16.569 64.513a2.5 2.5 0 0 0 1.914-2.972 24 24 0 0 1-.153-3.831v-4.575a15.3 15.3 0 0 1 .238-3.994 15.6 15.6 0 0 1 3.666-1.532q.061-.018.121-.039l.523-.182c3.407-1.182 3.943-1.7 5.213-5.044l.215-.562q.385-1.009.789-1.9l.241-.54c1.457-3.257 1.445-4-.116-7.218l-.247-.511a2 2 0 0 0-.07-.133 15 15 0 0 1-1.5-3.661 15.7 15.7 0 0 1 2.722-3.054L33.4 21.5c1.231-1.232 2.627-2.628 2.982-2.628a16.6 16.6 0 0 1 3.758 1.564l.537.259c3.215 1.555 3.958 1.564 7.229.091l.489-.219a48 48 0 0 1 1.919-.79l.568-.215a8.3 8.3 0 0 0 3.305-1.789 8.3 8.3 0 0 0 1.736-3.43l.219-.629a15.6 15.6 0 0 1 1.533-3.674 15.2 15.2 0 0 1 4-.238h4.755a15 15 0 0 1 3.9.238 15.2 15.2 0 0 1 1.532 3.67l.223.64c1.182 3.407 1.7 3.943 5.045 5.213l.559.213c.647.248 1.284.515 1.892.778l.508.228a8.6 8.6 0 0 0 3.594 1.09 8.2 8.2 0 0 0 3.66-1.184l.612-.3c1.617-.78 3.28-1.593 3.7-1.517A15.7 15.7 0 0 1 94.7 21.6l3.269 3.269C99.2 26.1 100.6 27.5 100.6 27.85a16.6 16.6 0 0 1-1.564 3.758l-.258.536c-1.556 3.215-1.565 3.959-.092 7.231l.22.488c.276.636.542 1.273.789 1.92l.209.55c1.271 3.353 1.8 3.872 5.192 5.046l.549.191q.058.02.118.037a15.6 15.6 0 0 1 3.667 1.533 15.8 15.8 0 0 1 .238 4.089v4.48a24 24 0 0 1-.153 3.831 2.5 2.5 0 1 0 4.885 1.06 24.5 24.5 0 0 0 .267-4.889v-4.576c0-6.99-.678-7.947-7.255-10.247l-.11-.038-.121-.039-.45-.156a16 16 0 0 1-1.533-.578 16 16 0 0 1-.622-1.516l-.211-.561a53 53 0 0 0-.883-2.148l-.236-.528a16 16 0 0 1-.636-1.519 16 16 0 0 1 .669-1.482l.276-.573c1.318-2.727 2.045-4.23 2.045-5.9 0-2.426-1.454-3.88-4.093-6.518L98.176 18c-4.939-4.951-6.1-5.148-12.482-2.073l-.537.261a16 16 0 0 1-1.487.673 15 15 0 0 1-1.528-.64l-.549-.246c-.7-.305-1.406-.6-2.118-.871l-.573-.218a15 15 0 0 1-1.507-.62 15 15 0 0 1-.589-1.559l-.227-.648C74.282 5.478 73.333 4.8 66.43 4.8h-4.766c-6.989 0-7.947.68-10.245 7.265l-.223.642c-.243.7-.493 1.425-.551 1.538a12.5 12.5 0 0 1-1.536.638l-.583.222c-.713.273-1.417.566-2.147.883l-.528.237a16 16 0 0 1-1.518.635 16 16 0 0 1-1.481-.668l-.575-.278c-2.727-1.318-4.229-2.044-5.9-2.044-2.425 0-3.879 1.453-6.517 4.092l-3.331 3.33c-4.952 4.94-5.15 6.1-2.074 12.483q.032.068.071.136l.192.4A15 15 0 0 1 25.4 35.8a15 15 0 0 1-.623 1.5l-.238.532c-.3.667-.606 1.395-.9 2.161l-.218.572a15 15 0 0 1-.621 1.508 16 16 0 0 1-1.558.589l-.42.146-.124.04-.11.038c-6.577 2.3-7.255 3.257-7.255 10.342v4.48A24.5 24.5 0 0 0 13.6 62.6a2.5 2.5 0 0 0 2.969 1.913"></path><path d="M83.867 54.4a2.5 2.5 0 0 0 2.465-2.935 22.686 22.686 0 0 0-44.664 0 2.5 2.5 0 0 0 4.924.87 17.685 17.685 0 0 1 34.816 0 2.5 2.5 0 0 0 2.459 2.065M30.067 69.3a12.528 12.528 0 1 0 12.527 12.528A12.54 12.54 0 0 0 30.067 69.3m0 20.055a7.528 7.528 0 1 1 7.527-7.527 7.536 7.536 0 0 1-7.527 7.527M98.1 94.355a12.528 12.528 0 1 0-12.523-12.527A12.54 12.54 0 0 0 98.1 94.355m0-20.055a7.528 7.528 0 1 1-7.527 7.528A7.536 7.536 0 0 1 98.1 74.3"></path><path d="m122.472 116.017-.158-.425c-5.934-15.916-6.828-16.552-23.763-16.552H97.5c-3.031 0-5.547 0-7.658.114-4.341-6.815-9.714-7.121-25.085-7.121h-1.505c-15.372 0-20.75.307-25.093 7.12-2.107-.112-4.626-.115-7.65-.113h-1.05c-16.932 0-17.829.636-23.762 16.523l-.168.451c-.464 1.24-1.328 3.548-.066 5.368s3.723 1.818 5.047 1.818h106.98c1.323 0 3.785 0 5.048-1.823s.397-4.128-.066-5.36M44.812 99.13c3.025-2.1 8.24-2.107 18.547-2.1h1.292c10.348 0 15.514 0 18.538 2.1a10.85 10.85 0 0 1 3.12 3.765q.02.038.042.077c1.548 2.784 3.082 6.887 5.286 12.791l.226.605a13.5 13.5 0 0 1 .547 1.735 13 13 0 0 1-1.818.1H37.4a13 13 0 0 1-1.809-.094 13 13 0 0 1 .544-1.727l.226-.606c2.212-5.925 3.75-10.037 5.3-12.823l.018-.034a10.9 10.9 0 0 1 3.133-3.789m-34.754 19.064q.065-.19.154-.429l.169-.453c2.514-6.732 3.9-10.44 5.941-11.856s5.976-1.411 13.2-1.416h.99c1.9 0 3.6 0 5.093.028-1.188 2.679-2.433 5.953-3.927 9.955l-.226.605a13 13 0 0 0-.905 3.572H10.51q-.253.002-.452-.006m107.432.006H97.454a13 13 0 0 0-.907-3.582l-.225-.6c-1.493-4-2.737-7.269-3.923-9.945 1.5-.028 3.195-.029 5.1-.029h.99c7.168-.006 11.154 0 13.2 1.418s3.428 5.135 5.943 11.88l.161.431q.088.237.153.425-.204.002-.456.002M64 56.194a16.2 16.2 0 1 0 16.2 16.2 16.216 16.216 0 0 0-16.2-16.2m0 27.395a11.2 11.2 0 1 1 11.2-11.2 11.21 11.21 0 0 1-11.2 11.2"></path></svg>