<svg xmlns="http://www.w3.org/2000/svg" viewBox="25.99 123.23 459.51 265.27"><path d="M115.8 124.9c-7.3 2.4-11.2 4.9-16.9 10.8-9.2 9.6-11.9 17.5-11.9 34.6 0 14.8 2.2 18.7 10.4 18.7 2.5 0 4.5-.9 6.8-2.9l3.2-2.8.5-12.8.6-12.8 57.2 48.9c31.4 26.9 57.2 49.1 57.2 49.4s-25.8 22.5-57.2 49.4l-57.2 48.9-.6-12.8-.5-12.8-3.2-2.8c-2.3-2-4.3-2.9-6.8-2.9-8.2 0-10.4 3.9-10.4 18.7 0 12.2 1.7 20.2 5.6 26.8 3.8 6.5 13.4 15 20.1 17.7l5.8 2.3h337l6.5-3.1c9.5-4.6 15.3-10.1 19.7-19.2l3.8-7.6V153.5l-3.2-6.7c-4.4-9.3-10-15.1-19.1-19.6l-7.6-3.7-167-.2c-159.1-.2-167.4-.1-172.8 1.6m332.5 18.8c.8 1.3-155.8 134.7-159.2 135.7-2.4.7-4 .5-6.4-.7-1.8-.8-21.2-17-43.2-35.9-22.1-18.9-56.8-48.6-77.3-66.2-20.5-17.5-37.2-32.2-37.2-32.7 0-1.1 322.7-1.2 323.3-.2M466 256c0 52.5-.4 96-.8 96.7-.8 1.2-113.7-94.7-113.7-96.7 0-1.9 112.9-97.9 113.7-96.7.4.7.8 44.2.8 96.7m-211.5 26.7c18.5 16.2 21.4 17.8 32 17.8 11 0 14.1-1.7 31.5-16.9 8-7 15.1-13 15.7-13.3 1.4-.6 115.4 96.8 114.6 97.9-.6 1.1-323.3 1-323.3-.1 0-1 112.9-98.1 114.1-98.1.5 0 7.4 5.7 15.4 12.7"></path><path d="M61.4 221.9c-7 4.3-6.3 14.6 1.2 17.7 3 1.3 8.9 1.5 36.6 1.2l33-.3 2.9-3.3c3.9-4.4 3.9-9 0-13.4l-2.9-3.3-33.9-.3c-32-.2-34-.1-36.9 1.7M33 271.7c-.8.3-2.7 1.7-4.2 3.1-5.3 4.9-2.7 15 4.4 16.7 1.2.3 24 .4 50.6.3l48.4-.3 2.9-3.3c3.9-4.4 3.9-9 0-13.4l-2.9-3.3-48.9-.2c-26.8-.1-49.5.1-50.3.4"></path></svg>