<svg xmlns="http://www.w3.org/2000/svg" viewBox="16.17 16 479.46 463.5"><path d="M314.5 18.5C312 20.9 312 21.1 312 40s0 19.1 2.5 21.5c1.3 1.4 3.1 2.5 4 2.5 1.3 0 1.5 2 1.5 14 0 7.7-.3 14-.6 14s-14.1-9.9-30.7-22.1c-25.9-18.9-30.6-22-33.2-21.7-4.4.5-214.3 154.1-215.1 157.4-1.3 5.1.3 6.9 16.1 18.8L72 236v147.8l-4.7.7c-6 .8-15.6 5.9-18.9 9.8-3.9 4.6-7.5 12.4-8.1 17.5-.5 4.6-.7 4.8-7.2 8.3-23.2 12.4-22.4 45.1 1.4 56.9l5 2.5h433l5-2.5c6.4-3.2 12.4-9.2 15.5-15.5 3.5-7.3 3.5-19.9 0-27-3.2-6.5-9.4-12.6-15.7-15.5-4.9-2.2-5.1-2.4-5.7-7.3-.8-5.5-4.1-12.8-8-17.4-3.3-3.9-12.9-9-18.8-9.8l-4.8-.7V236l15.5-11.6c15.8-11.9 17.4-13.7 16.1-18.8-.4-1.8-10.4-9.6-36.1-28.3l-35.4-25.8-.1-43.8c0-38.8.2-43.7 1.5-43.7.9 0 2.7-1.1 4-2.5 2.5-2.4 2.5-2.6 2.5-21.5s0-19.1-2.5-21.5l-2.4-2.5h-86.2zM392 40v8h-64V32h64zm-8 61.6c0 29.7-.3 37.4-1.2 36.8-.7-.4-11.5-8.2-24-17.3L336 104.5V64h48zM353.4 137c53.1 38.8 96.5 70.7 96.6 71 0 .3-4 3.6-9 7.3l-9 6.7-86.7-63.1c-76-55.2-87.2-63-89.8-62.7-2.1.3-30 20-89.2 63.1l-86.2 62.8-9.1-6.8c-4.9-3.7-9-7-9-7.3.1-.8 193.4-141.9 194.2-141.7.3.1 44.1 31.9 97.2 70.7m-13.3 38.1 83.9 61V464h-32V276.9l-2.5-2.4-2.4-2.5H268.9l-2.4 2.5-2.5 2.4V464H88V236.1l83.8-61c46-33.5 83.8-61 84-61 .2-.1 38.1 27.4 84.3 61M376 376v88h-96V288h96zM72 432.1v32l-14.8-.3c-14.6-.3-14.9-.3-18.6-3.2-12-9.1-6.6-27 8.6-28.4 3.5-.3 6.1-1.2 7.6-2.6 2.2-1.9 2.3-2.6 1.7-9.1-.9-10 1.9-15.9 9-19.1 6.9-3.1 6.5-4.9 6.5 30.7m374.4-30.7c1.8.8 4.6 3.1 6.2 5.2 2.7 3.6 2.9 4.3 2.7 12.4-.2 7.9 0 8.9 2 10.7 1.4 1.3 4.1 2.2 7.5 2.5 9.4.9 14.7 6.6 14.7 15.8 0 6.3-1.6 9.5-6.9 13.4-2.4 1.9-4.4 2.1-17.7 2.4l-14.9.3v-32c0-35.5-.4-33.5 6.4-30.7"></path><path d="m122.5 274.5-2.5 2.4v118.2l2.5 2.4 2.4 2.5h102.2l2.4-2.5 2.5-2.4V276.9l-2.5-2.4-2.4-2.5H124.9zM168 308v20h-32v-40h32zm48 0v20h-32v-40h32zm-48 56v20h-32v-40h32zm48 0v20h-32v-40h32zM298.5 362.5c-5 4.9-1.5 13.5 5.5 13.5 4.1 0 8-3.9 8-8s-3.9-8-8-8c-1.9 0-4 .9-5.5 2.5"></path></svg>