<svg xmlns="http://www.w3.org/2000/svg" viewBox="-0.05 0.22 479.49 479.06"><path d="M478.637 221.766c.277-.75.437-1.536.472-2.336 0-.844-.136-1.684-.398-2.485l-.617-1.746a239.27 239.27 0 0 0-87.121-161.086c-3.52-2.867-7.2-5.457-10.88-8.113-.183-.152-.28-.367-.48-.512s-.36-.129-.527-.234A240.46 240.46 0 0 0 239.438.23c-2.063 0-4.137 0-5.68.16a234.4 234.4 0 0 0-78.176 15.04C133.898-1.484 104.465-4.55 79.758 7.53c-24.707 12.082-40.36 37.2-40.32 64.7a76 76 0 0 0 6.28 26.519 240.5 240.5 0 0 0-21.48 35.395c-.12.19-.191.398-.297.597-56.718 117.278-9.523 258.39 106.34 317.946C246.141 512.246 388.36 468.5 450.72 354.12a236.3 236.3 0 0 0 28.383-102.16c.25-3.86.336-7.793.336-11.73 0-6.2-.32-12.344-.801-18.465M455.39 180.71c-1.016-.902-1.954-1.945-3.016-2.777a105.4 105.4 0 0 0-34.93-17.446 75.2 75.2 0 0 0-35.078-.367 69.2 69.2 0 0 1-29.883.149c-19.125-4.176-34.238-7.47-42.254-20.27-11.48-18.402-6.097-44.266 6.016-53.367a18.26 18.26 0 0 1 13.688-2.922 51.14 51.14 0 0 0 24.8-4.176 64.3 64.3 0 0 0 21.602-16.45c1.512 1.169 3.11 2.22 4.59 3.427A223.7 223.7 0 0 1 455.39 180.71M111.438 16.23c30.91.05 55.953 25.093 56 56 0 23.93-35.942 78.714-56 106.488A502.8 502.8 0 0 1 62.086 96.71a66.7 66.7 0 0 1-6.648-24.48c.035-30.915 25.085-55.965 56-56m-96 224a226.5 226.5 0 0 1 4.488-44.391c.855 11.12 2.304 21.015 3.601 29.597 4.957 32.801 9.641 63.723 33.817 92 10.11 11.915 27.039 31.833 53.215 34.778 26.175 2.945 58.953-12.113 68.421-16.8l3.633-1.833a35.2 35.2 0 0 1 16.715-5.352 39.46 39.46 0 0 1 26.176 13.368c13.652 15.113 17.117 40.347 7.414 54a24.57 24.57 0 0 1-12.29 8.539 37.37 37.37 0 0 0-20.062 16 49.4 49.4 0 0 0-3.457 40C91.75 439.723 15.602 347.55 15.438 240.23m224 224c-7.731 0-15.454-.399-23.145-1.192a28 28 0 0 1-1.824-2.625 34.04 34.04 0 0 1-.153-32.094 22.07 22.07 0 0 1 12.563-9.449 39.86 39.86 0 0 0 19.078-14.008c13.914-19.566 9.977-53.465-8.559-73.968a54.94 54.94 0 0 0-37.894-18.665h-.356a48.5 48.5 0 0 0-23.832 7.098l-3.414 1.727c-17.48 8.617-42.351 17.136-59.566 15.199-19.867-2.223-33.664-18.48-42.816-29.246-21.22-24.801-25.372-52.242-30.168-84a230 230 0 0 1-.61-82.281 224 224 0 0 1 14.496-25.122c.266.532.559 1.075.801 1.602a95 95 0 0 0 1.598 3.04q1.2 2.263 2.402 4.546.825 1.533 1.68 3.078 1.271 2.28 2.566 4.559c.578 1.007 1.153 2.02 1.738 3.027.891 1.52 1.782 3.031 2.68 4.543.59.992 1.176 1.977 1.774 2.96.945 1.599 1.898 3.095 2.851 4.638.543.875 1.078 1.761 1.598 2.625 1.183 1.898 2.36 3.738 3.535 5.601.312.48.625.985.93 1.457a774 774 0 0 0 4.343 6.645c.543.8 1.07 1.601 1.602 2.402.879 1.32 1.758 2.64 2.613 3.902l1.899 2.778a324 324 0 0 0 2.054 3l1.918 2.758c.594.859 1.188 1.699 1.754 2.504.567.808 1.207 1.722 1.801 2.546.59.825.992 1.399 1.465 2.063l1.597 2.207 1.305 1.809 1.274 1.753 1.039 1.407.976 1.328.582.8c.715.97 1.258 1.696 1.41 1.895a7.99 7.99 0 0 0 12.797 0c6.715-8.902 65.618-87.871 65.618-124.848 0-2.335-.145-4.656-.368-6.96-.07-.711-.183-1.422-.273-2.133-.207-1.602-.453-3.203-.797-4.801-.152-.8-.32-1.55-.496-2.32q-.556-2.401-1.29-4.801c-.198-.64-.366-1.29-.577-1.918a71 71 0 0 0-2.446-6.328c-.175-.395-.386-.801-.57-1.16-.8-1.664-1.598-3.313-2.52-4.922-.398-.719-.84-1.414-1.269-2.121a89 89 0 0 0-2.402-3.727 88 88 0 0 0-1.52-2.121c-.273-.352-.504-.727-.8-1.07a218.5 218.5 0 0 1 51.41-10.657c-12.473 23.543-16.547 45.32-11.891 64.801a83.4 83.4 0 0 0 19.203 35c7.527 9.32 12.941 16.04 12.606 27.008-.688 23.2-26.887 42.512-36.801 49.809a137.8 137.8 0 0 1-42.957 20.75c-14.532 4.746-27.067 8.84-31.86 23.144-4.738 18.89 3.043 38.711 19.371 49.328a40.41 40.41 0 0 0 31.88 2.817 98.4 98.4 0 0 1 35.304-1.688c15.2 2.152 28.305 4 34.52 12.703 3.687 5.2 3.496 10.574 2.777 20.434a96.9 96.9 0 0 0 4.148 41.46c3.649 10.946 9.16 27.473 22.403 29.38.859.136 1.73.207 2.597.207 9.371 0 15.106-8.274 21.137-16.977 2.664-3.847 5.602-8 9.121-12.168 16.465 26.602 33.192 48.801 33.969 49.856a8 8 0 0 0 12.8 0 665 665 0 0 0 47.352-72.91 105.1 105.1 0 0 1 27.781 12.664c-40.027 69-113.773 111.457-193.542 111.421m149.32-217.704a55.86 55.86 0 0 1 18.68 41.703c0 5.754-2.336 17.16-13.43 38.825a596 596 0 0 1-42.57 67.632c-7.528-10.488-20.481-29.105-32.07-48.671a296 296 0 0 1-17.282-33.305 66.7 66.7 0 0 1-6.649-24.48c.036-30.915 25.086-55.965 56-56q2.595 0 5.153.234a55.5 55.5 0 0 1 32.168 14.062m74.398 4.61a220.4 220.4 0 0 1-22.527 87.558 121.7 121.7 0 0 0-28.094-13.09 94.8 94.8 0 0 0 10.903-37.375c-.067-27.453-15.676-52.5-40.297-64.656l-.504-.222a78 78 0 0 0-5.461-2.399c-1.274-.496-2.594-.883-3.899-1.297-.8-.242-1.52-.543-2.297-.8a70 70 0 0 0-6.27-1.458h-.105c-1.277-.238-2.574-.367-3.87-.535a71.495 71.495 0 0 0-81.298 71.367 82.4 82.4 0 0 0 7.922 30.747 295 295 0 0 0 15.153 29.796 147.5 147.5 0 0 0-13.7 17.473 41.6 41.6 0 0 1-8.23 10.074c-1.602-.242-4.566-3.656-9.602-18.625a82.1 82.1 0 0 1-3.367-35.246 42.8 42.8 0 0 0-5.71-30.875c-10.215-14.285-28.048-16.8-45.4-19.262a112.7 112.7 0 0 0-40.464 1.817c-10.234 1.957-14.984 2.687-20.418-.7a30.32 30.32 0 0 1-12.64-30.663c2.136-6.399 8.539-8.711 21.601-13a153.6 153.6 0 0 0 47.527-23.094c11.657-8.55 42.403-31.242 43.329-62.2.511-16.937-7.961-27.386-16.153-37.488a69.2 69.2 0 0 1-16.062-28.601c-4.25-17.824 1.015-38.727 15.297-62.153h.918a224.53 224.53 0 0 1 123.8 37.426 48.1 48.1 0 0 1-15.097 11.29 35.8 35.8 0 0 1-17.727 2.773 33.55 33.55 0 0 0-23.777 6.113c-18.14 13.656-26.27 48.48-9.965 74.633 11.605 18.535 31.43 22.855 53.078 27.574a83.8 83.8 0 0 0 35.328-.152 60.35 60.35 0 0 1 28.39.09 89.1 89.1 0 0 1 29.044 14.535 65.5 65.5 0 0 1 19.863 28.367c.656 7.066 1.063 14.152 1.063 21.351 0 3.579-.07 7.2-.313 10.907zm0 0"></path><path d="M111.438 96.23c17.671 0 32-14.324 32-32 0-17.671-14.329-32-32-32s-32 14.329-32 32c0 17.676 14.328 32 32 32m0-48c8.835 0 16 7.165 16 16s-7.165 16-16 16-16-7.164-16-16 7.164-16 16-16M319.438 280.23c0 17.676 14.328 32 32 32s32-14.324 32-32c0-17.671-14.329-32-32-32s-32 14.329-32 32m48 0c0 8.836-7.165 16-16 16s-16-7.164-16-16 7.164-16 16-16 16 7.165 16 16m0 0"></path></svg>