<svg xmlns="http://www.w3.org/2000/svg" viewBox="0.15 0.36 511.7 511.34"><path d="M242.8 1c-15.2 2.4-31.4 8.9-43.2 17.4-8.8 6.3-21.2 19.9-27 29.5-12.2 20.3-17.8 47.2-14.7 70.5.7 4.8 1 9 .8 9.3-.3.2-2.9-.8-5.7-2.2-2.9-1.5-9.8-4.2-15.4-6C76.1 99.4 12 138.8 1.5 203.1c-3.6 22.4 0 44.9 10.7 66.4 15.4 30.9 44.8 52.1 79 57l4.8.7-6.7 7.2c-55.6 59.8-27.9 154.2 51.4 174.7 11.6 3 32 3.3 43.3.6 20.3-4.9 38.2-15.5 52.6-31 6-6.5 16-21 18.3-26.5.7-1.8 1.7-3.2 2-3.2.4 0 1.5 1.7 2.5 3.8 6.2 13 20.1 29.6 32.8 39.2 35.7 26.9 81.4 26.2 118.3-1.8 39.2-29.7 52.4-83.4 31.4-127.8-4.3-9.1-11.8-20.1-19.2-28l-6.7-7.2 4.8-.7c34.2-4.9 63.6-26.1 79-57 10.7-21.5 14.3-44 10.7-66.4-8-49.2-47.9-85.5-97.4-88.7-16.8-1.1-35.3 2.5-52 10.2-4.1 1.9-7.6 3.2-7.8 3-.3-.2 0-3.9.6-8.1 7.5-53.7-24.5-104.7-73-116.5-9.6-2.4-29.3-3.4-38.1-2m28 30.6c12.5 2.5 23.2 8.3 32.1 17.3 11.7 11.7 18.2 25 21.1 42.3 3.3 20.4-1.7 44.3-14.4 69-3.4 6.8-6.6 13.6-7 15.3-.8 3.1-14.3 27.2-15.7 28.1-.5.3-4-.5-7.9-1.7l-7-2.1v-32.1c0-28.7-.2-32.6-1.8-35.7-5.3-10.7-21.1-10.7-26.4 0-1.6 3.1-1.8 7-1.8 35.6v32.1l-7.5 2.5-7.5 2.6-9-14.8c-4.9-8.1-9-15.2-9-15.8s-2.9-6.7-6.5-13.7c-16.1-31.5-19.5-59.4-10.2-84.7 3.7-10.3 8.4-17.5 16.9-26 16.1-16 39-22.8 61.6-18.2M118.2 145.4c14.6 2.8 28.4 9.5 43.3 21.1 12 9.3 15.9 14.1 28.9 35.8l11.9 19.8-2.2 2.7c-1.2 1.5-3.4 4.6-4.9 6.9s-3.2 4.3-3.9 4.3c-.6 0-14.3-4.3-30.4-9.5S130 217 128.1 217c-10.8 0-17.8 13.3-12 22.7 3.1 5-.2 3.7 58.9 22.9l7.5 2.4-.2 8.7-.1 8.7-18.4 6.4c-21.6 7.5-30.5 9.2-49.3 9.2-18.5 0-29.7-2.3-42.4-8.6-26.1-12.9-44-44.9-41.8-74.9.8-11 2.9-18.4 8.4-29.5 3.9-8 6-10.9 13.7-18.5 11.8-11.8 22.8-17.8 38.6-21 8.7-1.8 18.3-1.8 27.2-.1m307.3 1c3.3.9 10.3 3.7 15.5 6.3 8 3.9 10.9 6.1 18.6 13.7 7.6 7.7 9.8 10.6 13.7 18.6 2.6 5.2 5.4 12.2 6.2 15.5 6.8 26.3-1.5 55.4-21.5 75.5-15.1 15.1-29.5 20.8-55.3 21.7-21.5.8-29.5-.5-52-8.5l-18.8-6.6.3-8.9.3-9 28.7-9.3c15.7-5.1 30-10 31.7-10.9 5.1-2.6 7.3-7 6.8-13.7-.2-4.4-.9-6.4-2.8-8.4-3.3-3.5-7.1-5.4-11.2-5.4-1.9 0-16.5 4.3-32.4 9.5-16 5.2-29.5 9.5-30.1 9.5-.9 0-11.2-13.2-11.2-14.5 0-.3 5.4-10 12.1-21.5 9.8-17 13.2-21.9 17.7-26.1 16-14.7 34.5-25 51.1-28.5 8.1-1.7 24.2-1.2 32.6 1M276 233.1c34.3 16.5 34.3 64.3 0 80.8-7.3 3.5-7.8 3.6-19.1 3.6-11.2 0-11.7-.1-19-3.7-28.5-14.1-34.4-51-11.5-72.6 9.6-9.1 17.9-12.2 32.1-11.9 9.2.2 10.6.5 17.5 3.8m-80.5 82.6c1.7 2.5 3.6 5.6 4.4 6.8 1.4 2.1.5 3.5-15.6 25.6-9.4 12.9-18 25-19.2 26.9-6.9 11.5 4 25.7 16.9 21.9 2.1-.7 5-2.4 6.3-3.8 1.7-1.8 33.8-45.7 37.2-50.9.1-.1 3.9 1 8.4 2.4l8.1 2.7v20.8c0 29.1-2.5 43.9-10.6 63.2-14.6 34.9-45 54.5-77.2 49.8-45.6-6.6-74.4-53.2-60.2-97.3 9.2-28.7 36.8-51.5 81.5-67.4 8.2-2.9 15.5-5.3 16-5.3.6 0 2.4 2 4 4.6m140.6.2c45.6 16.5 73.2 39.6 82.3 69 8.5 27.2.8 56.3-20 76-9.7 9.1-16.4 13.3-28.1 17.4-7.9 2.8-10 3.1-20.3 3.1-8.2 0-13.2-.5-17.4-1.8-24.7-7.4-44.2-28.7-54-58.9-5.2-15.9-5.8-20.8-6.3-47.8l-.5-25.5 8.2-2.7c4.6-1.5 8.4-2.6 8.5-2.5.1.2 8.7 11.9 19 26.2 16.8 23.1 19.3 26.1 23.2 27.8 4.6 2 8.3 1.8 13.5-.8 6-3.1 8.7-12.9 5.3-19.4-.9-1.7-9.4-13.8-19.1-27.1-9.6-13.2-17.3-24.6-17.1-25.3.5-1.1 8.8-12.6 9.1-12.6.1 0 6.3 2.2 13.7 4.9"></path></svg>