<svg xmlns="http://www.w3.org/2000/svg" viewBox="0 26.22 512 459.78"><path d="M166.5 27.8c-12 4.2-20.5 11.7-25.8 23l-3.2 6.7-.3 22.2-.3 22.3H82.1c-34.8 0-56.9.4-60.6 1.1-9.8 1.8-16.7 7.6-20 16.8-1.3 3.8-1.5 17.3-1.5 103 0 108.6-.3 103.7 6.1 111.4 1.7 2.1 4.8 4.7 7 5.7l3.9 2v60.6c0 39.3.4 62 1.1 64.7 1.6 6.5 6.9 13 13 16.1l5.3 2.6h439.2l5.3-2.6c6.1-3.1 11.4-9.6 13-16.1.7-2.7 1.1-25.4 1.1-64.7V342l3.9-2c2.2-1 5.3-3.6 7-5.7 6.4-7.7 6.1-2.8 6.1-111.4 0-85.7-.2-99.2-1.5-103-3.3-9.2-10.2-15-20-16.8-3.7-.7-25.8-1.1-60.6-1.1h-54.8l-.3-22.3-.3-22.3-3.7-7.5c-4.6-9.3-11.2-15.8-20.6-20.2l-6.7-3.2-86-.2c-79.6-.2-86.4-.1-91 1.5M343 45.1c6 2.7 9.8 6.4 12.6 12.4 2.3 4.7 2.4 6.1 2.4 24.7V102h-17V83.5c0-18.4 0-18.6-2.5-21l-2.4-2.5H175.9l-2.4 2.5c-2.5 2.4-2.5 2.6-2.5 21V102h-17V82.2c0-17.7.3-20.2 2.1-24.2 2.7-6 6.4-9.8 12.4-12.6l5-2.4H256c80.8 0 82.6.1 87 2.1m-19 44.4V102H188V77h136zm164.2 30.6c7.2 1.9 6.8-4.2 6.8 102.9s.4 101-6.8 103c-3.9 1.1-192.1 27-195.9 27-2.2 0-2.3-.4-2.3-7.9 0-12.6-4-20.7-12.9-25.9-4.5-2.6-5-2.7-21.1-2.7s-16.6.1-21.1 2.7c-8.9 5.2-12.9 13.3-12.9 25.9 0 7.5-.1 7.9-2.2 7.9-3.9 0-192.1-25.9-196-27-7.2-2-6.8 4.1-6.8-103 0-106.2-.3-101 6.3-102.9 4.7-1.3 460.1-1.4 464.9 0M270.4 335.6l2.6 2.7v27.8c0 29.5-.3 31.8-4.7 33.8-3.1 1.4-21.5 1.4-24.6 0-4.4-2-4.7-4.3-4.7-33.8v-27.8l2.6-2.7c2.6-2.5 3.1-2.6 14.4-2.6s11.8.1 14.4 2.6M128.5 358c48.4 6.6 89.2 12.3 90.7 12.6l2.7.5.3 14.2c.3 15.7 1.4 19.2 7.3 25.2 6.3 6.2 9.3 7 26.5 7s20.2-.8 26.5-7c5.9-6 7-9.5 7.3-25.2l.3-14.2 2.7-.5c1.5-.3 42.3-6 90.7-12.6s89.5-12.3 91.3-12.6l3.2-.6v58.7c0 60.2-.1 61.3-3.9 64.2-2.3 1.8-433.9 1.8-436.2 0-3.8-2.9-3.9-4-3.9-64.2v-58.7l3.3.6c1.7.3 42.8 6 91.2 12.6"></path></svg>