<svg xmlns="http://www.w3.org/2000/svg" viewBox="22.16 0.01 467.69 511.98"><path d="m484.33 198.44-38.72-12.6A193 193 0 0 0 424 133.73l18.51-36.29c1.57-3.09.98-6.84-1.47-9.29l-39.37-39.34a8.01 8.01 0 0 0-9.29-1.47l-36.28 18.5a193.4 193.4 0 0 0-52.09-21.59L291.42 5.54a8 8 0 0 0-7.6-5.53h-55.64c-3.46 0-6.53 2.23-7.6 5.52l-12.6 38.72a194 194 0 0 0-52.11 21.58l-36.29-18.49a7.99 7.99 0 0 0-9.28 1.47L70.96 88.16a7.995 7.995 0 0 0-1.47 9.28l18.49 36.29c-9.72 16.29-16.97 33.78-21.58 52.11l-38.72 12.6a7.995 7.995 0 0 0-5.52 7.6v55.64c0 3.46 2.23 6.53 5.53 7.6l38.71 12.59c4.62 18.32 11.86 35.8 21.59 52.09L69.5 370.24a7.99 7.99 0 0 0 1.47 9.29l39.34 39.37a7.99 7.99 0 0 0 9.29 1.47l36.29-18.49c8.23 4.9 16.79 9.19 25.54 12.8.03.35.04.71.07 1.07.05.72.1 1.43.13 2.15.05 1.27.08 2.56.08 3.86v25.99c0 2.53.16 5.03.45 7.49.02.38.07.76.14 1.12 4.22 31.36 31.14 55.63 63.64 55.63h20.15c32.5 0 59.42-24.27 63.64-55.63.08-.36.12-.74.14-1.12.29-2.46.45-4.95.45-7.49v-25.99c0-1.3.03-2.58.08-3.85.04-1.08.11-2.16.2-3.23 8.81-3.64 17.36-7.93 25.52-12.82l36.28 18.51c1.15.59 2.4.87 3.63.87 2.08 0 4.12-.81 5.66-2.35l19.66-19.69 19.7-19.67a7.99 7.99 0 0 0 1.47-9.29L424 333.96c9.75-16.32 17-33.8 21.61-52.08l38.71-12.59a8 8 0 0 0 5.53-7.6v-55.64c-.01-3.47-2.23-6.54-5.52-7.61M197.68 446.73v-24.97c0-1.43-.03-2.86-.09-4.28-.05-1.25-.13-2.48-.21-3.71-.01-.11-.01-.23-.02-.34h117.28c0 .06-.01.13-.01.19-.09 1.28-.17 2.57-.22 3.87-.06 1.42-.09 2.85-.09 4.28v24.97H197.68zm58.31-174.96c-5.72 0-10.37-4.67-10.37-10.4s4.65-10.4 10.37-10.4c5.74 0 10.4 4.67 10.4 10.4s-4.67 10.4-10.4 10.4m61.13 125.66h-20.37v-54.31h18.54c4.42 0 7.99-3.58 7.99-7.99V309.6c10.66-3.39 18.4-13.37 18.4-25.12 0-14.55-11.84-26.39-26.39-26.39s-26.39 11.84-26.39 26.39c0 11.75 7.74 21.73 18.4 25.12v17.54h-18.54c-4.42 0-7.99 3.58-7.99 7.99v62.31h-16.78V286.52c10.66-3.39 18.4-13.38 18.4-25.15 0-14.55-11.84-26.39-26.39-26.39-14.54 0-26.36 11.84-26.36 26.39 0 11.76 7.73 21.75 18.37 25.15v110.92h-16.78v-62.31c0-4.42-3.58-7.99-7.99-7.99h-18.51V309.6c10.64-3.39 18.37-13.37 18.37-25.12 0-14.55-11.83-26.39-26.36-26.39-14.55 0-26.39 11.84-26.39 26.39 0 11.75 7.74 21.73 18.4 25.12v25.53c0 4.42 3.58 7.99 7.99 7.99h18.51v54.31H194.9c-3.58-14.86-10.6-28.37-21.25-40.85-4-4.68-7.99-9.14-11.85-13.46-24.29-27.15-43.47-48.59-43.47-98.51 0-75.92 61.76-137.68 137.68-137.68 75.93 0 137.71 61.76 137.71 137.68 0 49.92-19.18 71.36-43.47 98.51-3.86 4.31-7.85 8.77-11.84 13.45-10.69 12.47-17.72 25.98-21.29 40.86m-1.83-102.58c-5.74 0-10.4-4.65-10.4-10.37 0-5.74 4.67-10.4 10.4-10.4s10.4 4.67 10.4 10.4c0 5.72-4.67 10.37-10.4 10.37m-118.58 0c-5.74 0-10.4-4.65-10.4-10.37 0-5.74 4.67-10.4 10.4-10.4 5.72 0 10.38 4.67 10.38 10.4 0 5.72-4.66 10.37-10.38 10.37M266.08 496h-20.15c-21.38 0-39.54-13.98-45.86-33.28h111.87c-6.32 19.29-24.48 33.28-45.86 33.28m207.78-240.12-37.46 12.18c-2.68.87-4.7 3.09-5.32 5.83-4.45 19.61-12.2 38.26-23.01 55.46a7.99 7.99 0 0 0-.35 7.89l17.91 35.1-31.16 31.16-35.1-17.91a8.01 8.01 0 0 0-7.9.36c-5.53 3.49-11.28 6.67-17.18 9.54 3.31-10.24 8.7-19.69 16.25-28.52 3.88-4.54 7.8-8.93 11.6-13.18 24.45-27.33 47.54-53.15 47.54-109.17 0-84.73-68.95-153.67-153.7-153.67-84.73 0-153.67 68.93-153.67 153.67 0 56.02 23.09 81.84 47.54 109.17 3.8 4.25 7.72 8.63 11.6 13.18 7.55 8.84 12.93 18.29 16.24 28.53a185 185 0 0 1-17.23-9.53 8 8 0 0 0-7.87-.35l-35.1 17.88-31.13-31.15 17.89-35.12a8 8 0 0 0-.36-7.88c-10.78-17.14-18.52-35.8-22.98-55.46a7.99 7.99 0 0 0-5.32-5.83l-37.46-12.18v-44.03l37.44-12.17a8 8 0 0 0 5.33-5.84c4.46-19.67 12.19-38.33 22.98-55.48a8 8 0 0 0 .36-7.88L86.37 95.36l31.13-31.13 35.11 17.89a7.98 7.98 0 0 0 7.88-.36c17.15-10.79 35.81-18.52 55.48-22.98a8 8 0 0 0 5.84-5.33L233.98 16h44.03l12.18 37.46c.87 2.67 3.09 4.7 5.83 5.32 19.7 4.48 38.36 12.21 55.45 22.98a7.98 7.98 0 0 0 7.88.36l35.12-17.89 31.15 31.13-17.91 35.09a7.99 7.99 0 0 0 .36 7.9c10.8 17.12 18.54 35.79 23 55.47a8 8 0 0 0 5.33 5.84l37.44 12.17v44.05z"></path></svg>