<svg xmlns="http://www.w3.org/2000/svg" viewBox="0 0 512 512"><path d="M476 280.74v-53.117c0-5.267-2.59-10.194-6.929-13.18s-9.867-3.646-14.785-1.764L330.522 260H260c-16.349 0-29.864 12.326-31.763 28.171C205.732 290.088 188 309.006 188 332c0 22.993 17.732 41.911 40.237 43.828 1.678 13.999 12.424 25.243 26.181 27.674l38.195 93.751c3.649 8.958 12.259 14.747 21.933 14.747h17.797a23.66 23.66 0 0 0 19.609-10.403 23.65 23.65 0 0 0 2.382-22.068L324.146 404h6.376l123.765 47.322a16 16 0 0 0 14.785-1.765 16 16 0 0 0 6.928-13.18v-53.119c20.454-3.773 36-21.729 36-43.258v-16c0-21.53-15.546-39.486-36-43.26M204 332c0-14.081 10.449-25.764 24-27.711v55.409c-13.55-1.947-24-13.618-24-27.698m40 40v-80c0-8.822 7.178-16 16-16h64v112h-64c-8.822 0-16-7.178-16-16m95.477 113.466c.961 2.405.68 5.015-.772 7.159-1.453 2.145-3.772 3.375-6.362 3.375h-17.797a7.65 7.65 0 0 1-7.115-4.784L271.898 404h35.018zM460 436.377l-120-45.883V273.506l120-45.882zM496 340c0 12.66-8.447 23.383-20 26.833V297.17c11.553 3.45 20 14.17 20 26.83z"></path><path d="M372 228a8 8 0 0 0 8-8V31.134C380 13.967 366.034 0 348.867 0H83.134C65.966 0 52 13.966 52 31.134V368c0 8.822 7.178 16 16 16h112a8 8 0 0 0 0-16H68V104h296v116a8 8 0 0 0 8 8M68 88V31.134C68 22.789 74.789 16 83.134 16h265.733C357.212 16 364 22.789 364 31.134V88z"></path><path d="M328 40c-6.617 0-12 5.383-12 12s5.383 12 12 12 12-5.383 12-12-5.383-12-12-12m0 16c-2.206 0-4-1.794-4-4s1.794-4 4-4 4 1.794 4 4-1.794 4-4 4M276 40c-6.617 0-12 5.383-12 12s5.383 12 12 12 12-5.383 12-12-5.383-12-12-12m0 16c-2.206 0-4-1.794-4-4s1.794-4 4-4 4 1.794 4 4-1.794 4-4 4M228 44H100a8 8 0 0 0 0 16h128a8 8 0 0 0 0-16M189.923 143.314a8 8 0 0 0-3.399-1.034c-6.937-.499-14.448 2.181-19.606 6.984-4.46 4.153-6.917 9.627-6.917 15.414v86.644c0 7.212 3.724 13.679 9.961 17.298 3.139 1.822 6.587 2.733 10.037 2.733 3.406 0 6.814-.889 9.924-2.666l75.814-43.322c5.395-3.082 8.884-8.229 9.827-14.491 1.159-7.696-1.816-16.205-7.958-22.761a8 8 0 0 0-1.87-1.477zm69.819 65.177c-.276 1.835-1.242 2.581-1.944 2.982l-75.814 43.322c-1.805 1.031-3.393.334-3.992-.014s-1.992-1.38-1.992-3.459v-86.644c0-.497 0-2.009 1.82-3.704 1.55-1.444 3.872-2.455 6.039-2.698l72.795 41.597c2.721 3.283 3.399 6.555 3.088 8.618M32 436h108v60h-32a8 8 0 0 0 0 16h156a8 8 0 0 0 0-16H156v-60h80a8 8 0 0 0 0-16H32c-8.822 0-16-7.178-16-16V120c0-8.822 7.178-16 16-16a8 8 0 0 0 0-16c-17.645 0-32 14.355-32 32v284c0 17.644 14.355 32 32 32M424 208a8 8 0 0 0 8-8v-80c0-17.645-14.355-32-32-32a8 8 0 0 0 0 16c8.822 0 16 7.178 16 16v80a8 8 0 0 0 8 8"></path></svg>