<svg xmlns="http://www.w3.org/2000/svg" xml:space="preserve" style="fill-rule:evenodd;clip-rule:evenodd;stroke-linejoin:round;stroke-miterlimit:2" viewBox="6 6 52 52"><path d="M9.779 45.5 6.05 56.685a1.001 1.001 0 0 0 1.265 1.265L18.5 54.22A25.859 25.859 0 0 0 32 58c14.35 0 26-11.65 26-26S46.35 6 32 6 6 17.65 6 32c0 4.943 1.382 9.565 3.779 13.5zm2.046.187a1 1 0 0 0-.104-.852A23.873 23.873 0 0 1 8 32C8 18.754 18.754 8 32 8s24 10.754 24 24c0 13.247-10.754 24-24 24a23.873 23.873 0 0 1-12.834-3.72 1 1 0 0 0-.852-.104L8.58 55.42l3.244-9.733z" style="stroke-width:1;fill:#000"></path><path d="M22 17a1 1 0 0 0-1 1v28a1 1 0 0 0 1 1h11.5c5.244 0 9.5-4.256 9.5-9.5 0-2.048-.65-3.946-1.754-5.5A9.454 9.454 0 0 0 43 26.5c0-5.243-4.257-9.5-9.5-9.5H22zm1 2h10.5c4.14 0 7.5 3.361 7.5 7.5 0 1.85-.67 3.544-1.782 4.852a1 1 0 0 0 0 1.297A7.466 7.466 0 0 1 41 37.5c0 4.139-3.361 7.5-7.5 7.5H23zm5 15a1 1 0 0 0-1 1v5a1 1 0 0 0 1 1h5.5c1.933 0 3.5-1.567 3.5-3.5 0-1.931-1.567-3.5-3.5-3.5zm1 2h4.5a1.5 1.5 0 0 1 0 3H29Zm8-9.5c0-1.932-1.567-3.5-3.5-3.5H28a.997.997 0 0 0-1 1v5a1 1 0 0 0 1 1h5.5c1.933 0 3.5-1.568 3.5-3.5zm-2 0a1.5 1.5 0 0 1-1.5 1.5H29v-3h4.5a1.5 1.5 0 0 1 1.5 1.5z" style="stroke-width:1;fill:#000"></path></svg>