<svg xmlns="http://www.w3.org/2000/svg" width="28" height="28"><path fill-rule="evenodd" clip-rule="evenodd" d="M4.82 9.434h-.067c-.843 0-1.531.678-1.531 1.503v6.542c0 .829.688 1.505 1.531 1.505h.067c.843 0 1.531-.678 1.531-1.505v-6.542c0-.826-.689-1.503-1.531-1.503zm12.893-6.025l1.194-1.81a.246.246 0 00-.075-.345.257.257 0 00-.352.074L17.242 3.2a8.22 8.22 0 00-3.063-.583 8.23 8.23 0 00-3.064.583L9.879 1.328a.256.256 0 00-.353-.073.247.247 0 00-.075.345l1.196 1.81C8.491 4.446 7.038 6.4 7.038 8.64c0 .139.008.273.021.408h14.245a5 5 0 00.019-.408c-.001-2.241-1.456-4.195-3.61-5.231zm-6.836 3.239a.678.678 0 01-.686-.672c0-.371.307-.671.686-.671.38 0 .686.3.686.671a.677.677 0 01-.686.672zm6.604 0a.678.678 0 01-.686-.672c0-.371.308-.671.686-.671.38 0 .685.3.685.671a.676.676 0 01-.685.672zM7.084 20.003c0 .761.633 1.38 1.408 1.38h1.504v3.534c0 .831.69 1.506 1.532 1.506h.065c.844 0 1.534-.676 1.534-1.506v-3.534h2.102v3.534c0 .831.691 1.506 1.534 1.506h.064c.845 0 1.533-.676 1.533-1.506v-3.534h1.505c.773 0 1.407-.619 1.407-1.38V9.674H7.084v10.329zm16.52-10.569h-.064c-.843 0-1.534.678-1.534 1.503v6.542c0 .829.691 1.505 1.534 1.505h.064c.845 0 1.532-.678 1.532-1.505v-6.542c.001-.826-.689-1.503-1.532-1.503z"/></svg>