<svg xmlns="http://www.w3.org/2000/svg" xml:space="preserve" width="241" height="77"><ellipse cx="63.996" cy="65.919" fill="#122248" fill-rule="evenodd" clip-rule="evenodd" opacity=".102" rx="33.066" ry="10.478"/><path fill="#4385F3" fill-rule="evenodd" d="M94.525 27.487c-.449-1.054-1.14-1.885-2.07-2.49s-1.877-.908-2.839-.908c-1.191 0-2.348.433-3.466 1.3-1.119.866-1.679 2.051-1.679 3.554 0 .501.063.991.188 1.471.083.293.397 1.034.941 2.224.522 1.169.815 1.889.878 2.16.146.669.22 1.42.22 2.254 0 2.526-1.061 5.329-3.182 8.408-2.121 3.078-4.331 4.617-6.631 4.617-.773 0-1.401-.234-1.882-.704-.481-.469-.722-1.027-.722-1.675 0-.522.104-1.253.313-2.191L79.052 25.5h-9.944l-.675 3.412c-1.013 5.135-2.194 9.288-3.545 12.461-1.35 3.172-2.897 5.562-4.642 7.169-1.05.981-2.025 1.472-2.925 1.472-.582 0-1.051-.17-1.407-.513-.356-.341-.534-.801-.534-1.375 0-.342.138-1.097.412-2.265L60.917.968h-2.936c-2.063.84-4.235 1.5-6.517 1.982s-4.3.734-6.057.755l-1.443 6.04h4.925l-3.033 36.199c-.137.522-.272 1.346-.408 2.472-.137.855-.204 1.46-.204 1.814 0 1.998.745 3.71 2.234 5.136 1.49 1.426 3.441 2.139 5.854 2.139 1.5 0 2.939-.256 4.317-.769 1.378-.512 2.717-1.311 4.014-2.397s2.564-2.528 3.801-4.326c.183 1.422.517 2.561 1.003 3.417a7.582 7.582 0 0 0 3.041 3.041c1.297.71 2.959 1.065 4.986 1.065 3.183 0 6.233-1.033 9.152-3.101 3.405-2.442 6.182-5.757 8.331-9.943 2.148-4.186 3.223-8.42 3.223-12.7 0-1.815-.224-3.251-.675-4.305zm-68.46 12.4c2.253.192 3.844.354 4.771.483 1.919.277 3.518.557 4.796.839 1.059.234 1.773.366 2.145.394.372.027.746.005 1.122-.068.667-.13 1.18-.47 1.538-1.021.358-.55.469-1.183.329-1.897a2.964 2.964 0 0 0-1.3-1.926 3.218 3.218 0 0 0-1.159-.473c-.423-.083-1.189-.066-2.299.05l-5.466.584c-1.217.137-2.889.228-5.016.271 0 0-10.194.429-10.093.948.156.8 10.632 1.816 10.632 1.816zm14.73 9.01a4.738 4.738 0 0 0-1.349-1.334 5.067 5.067 0 0 0-1.826-.744c-.665-.131-1.871-.104-3.619.078l-8.604.919c-1.916.216-4.547.357-7.895.427 0 0-16.049.675-15.889 1.494.246 1.26 16.738 2.858 16.738 2.858 3.547.303 6.051.557 7.511.761 3.021.437 5.537.877 7.55 1.321 1.666.369 2.791.575 3.376.619a6.592 6.592 0 0 0 1.767-.107c1.049-.204 1.855-.74 2.421-1.606.564-.867.737-1.863.518-2.987a4.679 4.679 0 0 0-.699-1.699zm.764-20.829a3.024 3.024 0 0 0-.857-.848c-.352-.232-.738-.39-1.16-.473s-1.188-.067-2.299.05l-5.465.583c-1.217.138-2.889.228-5.016.271 0 0-10.195.43-10.093.949.156.801 10.632 1.815 10.632 1.815 2.254.192 3.844.354 4.771.483 1.919.277 3.518.557 4.796.839 1.059.235 1.773.366 2.145.395.371.027.745.005 1.122-.068.667-.131 1.179-.471 1.538-1.021.358-.551.468-1.184.329-1.897a2.974 2.974 0 0 0-.443-1.078z" clip-rule="evenodd"/><path fill="#EBB703" fill-rule="evenodd" d="M51.755 59.638a5.472 5.472 0 0 0-5.473 5.47c0 3.02 2.45 5.469 5.473 5.469s5.473-2.449 5.473-5.469a5.472 5.472 0 0 0-5.473-5.47zm23.318 0a5.472 5.472 0 0 0-5.473 5.47c0 3.02 2.45 5.469 5.473 5.469s5.473-2.449 5.473-5.469c0-3.021-2.45-5.47-5.473-5.47z" clip-rule="evenodd"/><path fill="#E84D40" fill-rule="evenodd" d="m78.788 1.171.004-.026-.78-.138-.782-.138-.005.026C71.309.25 65.81 4.099 64.395 9.876l-.027-.005-.138.781-.138.78.027.005c-.646 5.912 3.205 11.407 8.986 12.821l-.005.028.781.137.781.138.005-.027c5.917.646 11.415-3.202 12.83-8.979l.027.005.138-.781.138-.78-.027-.005c.647-5.914-3.204-11.409-8.985-12.823zm6.681 7.588-2.337-.412c-.205-1.514-.609-2.88-1.189-4.016a10.354 10.354 0 0 1 3.526 4.428zm-6.97-5.952c1.529.71 2.609 2.678 3.02 5.256l-3.827-.674.807-4.582zM77.416 8.95l4.266.751c.05 1.012.002 2.087-.145 3.194l-4.672-.823.551-3.122zm3.846 5.506a17.639 17.639 0 0 1-.957 3.052l-4.266-.752.551-3.122 4.672.822zM76.937 2.531l-.808 4.583-3.828-.675c1.268-2.283 2.955-3.762 4.636-3.908zm-1.083 6.144-.551 3.123-4.671-.823c.239-1.091.563-2.117.955-3.051l4.267.751zm-2.675-5.888c-.931.869-1.779 2.016-2.488 3.369l-2.34-.412a10.372 10.372 0 0 1 4.828-2.957zm-7.495 8.926 3.11.548a18.92 18.92 0 0 0-.166 3.189l-2.746-.483a10.17 10.17 0 0 1-.198-3.254zm.74 4.959 2.339.412c.203 1.514.607 2.88 1.187 4.017a10.362 10.362 0 0 1-3.526-4.429zm2.645-5.973-3.11-.548a10.173 10.173 0 0 1 1.3-2.989l2.746.482a19.007 19.007 0 0 0-.936 3.055zm4.325 11.925c-1.53-.711-2.609-2.679-3.02-5.256l3.828.674-.808 4.582zm1.083-6.144-4.266-.751a17.626 17.626 0 0 1 .146-3.193l4.671.822-.551 3.122zm.479 6.419.808-4.582 3.828.674c-1.268 2.282-2.955 3.763-4.636 3.908zm3.758-.255c.932-.87 1.78-2.017 2.49-3.369l2.338.412a10.366 10.366 0 0 1-4.828 2.957zm5.921-4.374-2.746-.484c.383-.949.7-1.973.935-3.054l3.109.547a10.257 10.257 0 0 1-1.298 2.991zm1.573-4.552-3.109-.548c.149-1.095.201-2.167.166-3.19l2.746.484c.234 1.044.308 2.14.197 3.254z" clip-rule="evenodd"/><path fill="#4385F3" fill-rule="evenodd" d="M111.184 44.462h24.646v-28.93h-24.646v28.93zm69.087-28.93v28.93h24.645v-28.93h-24.645z" clip-rule="evenodd"/><path fill="#FDBD06" fill-rule="evenodd" d="M157.242 15.532h24.645v28.93h-24.645z" clip-rule="evenodd"/><path fill="#ED4230" fill-rule="evenodd" d="M134.213 15.532h24.646v28.93h-24.646z" clip-rule="evenodd"/><path fill="#32AC54" fill-rule="evenodd" d="M204.622 15.452h25.39v29.015h-25.39z" clip-rule="evenodd"/><path fill="#FFF" fill-rule="evenodd" d="M175.338 35.346c-.07-.219-.105-.584-.105-1.093v-.584c0-.205.007-.421.021-.647 0-.48-.025-.905-.074-1.273s-.144-.687-.283-.955c-.21-.41-.482-.722-.818-.934.294-.227.553-.488.776-.786.224-.297.399-.622.525-.976.182-.467.272-.977.272-1.528 0-.765-.182-1.485-.546-2.165a3.936 3.936 0 0 0-1.554-1.592c-.755-.424-1.63-.637-2.623-.637h-7.411v14.772h3.632v-5.434h2.666c.728 0 1.193.103 1.396.308.202.205.304.612.304 1.221 0 .425.004.842.011 1.252.007.411.045.835.115 1.273.042.382.147.842.315 1.38h3.926V35.76c-.293-.057-.476-.195-.545-.414zm-3.758-7.397c-.238.24-.65.36-1.238.36h-3.191v-2.844h3.233c.321 0 .569.025.745.074.175.05.325.145.451.286.252.298.378.658.378 1.083 0 .411-.126.758-.378 1.041zm-46.006 5.295c-.455.418-1.067.627-1.837.627-.938 0-1.662-.403-2.173-1.21s-.766-1.84-.766-3.1c0-1.329.279-2.401.839-3.215s1.337-1.221 2.33-1.221c.672 0 1.222.194 1.648.584.427.389.745 1.008.955 1.856l3.694.255c-.168-1.542-.511-2.702-1.028-3.48-.574-.82-1.326-1.461-2.257-1.921s-1.97-.69-3.117-.69c-1.05 0-1.97.167-2.761.5a5.88 5.88 0 0 0-2.099 1.507c-.609.672-1.081 1.468-1.417 2.388s-.504 1.952-.504 3.099c0 1.981.286 3.552.86 4.712.518 1.061 1.336 1.889 2.456 2.483.979.58 2.134.87 3.464.87 1.203 0 2.246-.24 3.128-.722s1.588-1.146 2.12-1.995c.279-.438.514-.877.703-1.316.189-.438.354-1.012.493-1.719l-3.736-.276c-.208.906-.541 1.567-.995 1.984zm19.261-10.941-5.29 14.794h3.946l.966-2.865h4.45l.861 2.865h4.072l-5.06-14.794h-3.945zm.63 8.703 1.196-3.8 1.155 3.8h-2.351zm41.335-5.519h4.136v11.461h3.778V25.487h4.136v-3.312H186.8v3.312zm32.19 9.575v.095c.062.276.227.504.494.685.268.18.638.27 1.112.27.205 0 .427-.021.664-.063.236-.042.499-.096.787-.159.351-.127.639-.232.865-.317.309-.148.587-.286.834-.414 1.07-.636 2.039-1.573 2.903-2.813.865-1.24 1.298-2.889 1.298-4.944 0-2.459-.987-4.483-2.961-6.073-1.028-.848-2.093-1.5-3.192-1.956-1.101-.455-2.206-.684-3.316-.684h-.524c-.35 0-.699.021-1.049.063-.35.043-.734.106-1.156.191s-.869.207-1.342.365c-.473.159-.884.313-1.233.462-1.543.721-2.931 1.822-4.165 3.307-.678.806-1.208 1.738-1.588 2.798s-.57 2.236-.57 3.529v.445c0 2.988 1.097 5.532 3.29 7.631 2.192 2.099 4.792 3.148 7.799 3.148l1.421-.128 1.483-.286a10.886 10.886 0 0 0 3.197-1.494 7.278 7.278 0 0 0 2.362-2.639l-2.872.031a6.02 6.02 0 0 1-2.502 1.399 9.647 9.647 0 0 1-2.873.413 7.905 7.905 0 0 1-3.059-.588 9.517 9.517 0 0 1-2.625-1.638c-1.545-1.399-2.317-3.413-2.317-6.041 0-2.269.669-4.208 2.008-5.819 1.339-1.61 3.264-2.416 5.776-2.416 1.792 0 3.439.562 4.942 1.685.804.594 1.405 1.299 1.808 2.114.401.816.603 1.766.603 2.846v.923l-.189 1.081a6.958 6.958 0 0 1-.821 1.972c-.357.572-.831.858-1.42.858a.376.376 0 0 1-.363-.223.943.943 0 0 1-.11-.414l-.03-.127v-.35l.03-.223.031-.096 1.328-7.345h-2.718l-.217 1.686c-.33-.487-.813-.922-1.452-1.304a3.957 3.957 0 0 0-2.069-.572h-.186c-.7 0-1.358.158-1.977.477s-1.246.806-1.885 1.463c-1.174 1.251-1.761 2.819-1.761 4.706v.89a6.714 6.714 0 0 0 1.433 3.212c.769.954 1.849 1.431 3.239 1.431a3.73 3.73 0 0 0 1.37-.254 6.125 6.125 0 0 0 1.215-.827l.156-.127.155-.159-.031.159-.03.158zm-.108-3.038c-.381.393-.911.589-1.591.589a3.265 3.265 0 0 1-1.575-.382c-.474-.297-.711-.858-.711-1.686l.093-.159v-.636l.125-.413c.187-.509.502-.959.948-1.352a2.298 2.298 0 0 1 1.569-.588c.622 0 1.124.196 1.508.588.384.393.606.812.669 1.256v.668l-.093.413-.124.414a3.518 3.518 0 0 1-.818 1.288z" clip-rule="evenodd"/><path fill="#142247" fill-rule="evenodd" d="m127.298 58.469-3.185-10.147h-2.249l-3.407 10.147-3.519-10.147h-3.184l5.121 13.976h3.029l3.028-8.901 2.939 8.901h2.895l5.345-13.976h-3.096l-3.717 10.147zm13.739-1.758h8.328V53.93h-8.328v-2.805h8.373v-2.781h-11.156v13.953h11.179v-2.782h-8.396v-2.804zm25.663-1.313c.472-.134.799-.34.983-.621.184-.281.275-.71.275-1.287v-2.352c0-.932-.213-1.63-.641-2.096-.427-.466-1.119-.699-2.076-.699h-11.156v13.953h11.156c1.017 0 1.724-.245 2.121-.734.397-.49.604-1.225.618-2.203l.045-2.025c0-.593-.104-1.038-.31-1.335s-.543-.497-1.015-.601zm-1.458 4.117h-8.372v-2.981h8.372v2.981zm0-5.564h-8.372v-2.826h8.372v2.826zm10.488-5.63h-2.783v13.976h11.156v-2.782h-8.373V48.321zm12.649 13.976h2.784V48.321h-2.784v13.976zm19.106-4.874-8.841-9.102h-2.36v13.976h2.828v-9.479l9.438 9.479h1.718V48.321h-2.783v9.102zm13.583-2.315 8.084-6.787h-4.231l-6.77 5.764v-5.764h-2.783v13.976h2.783v-6.098l6.948 6.098h4.275l-8.306-7.189z" clip-rule="evenodd"/></svg>