<svg xmlns="http://www.w3.org/2000/svg" width="78" height="78"><path fill-rule="evenodd" clip-rule="evenodd" fill="#66CC62" d="M17.744 27.491l-.459.579a25.18 25.18 0 00-1.617 3.548l-.29 1.353c-.072.359-.001.817-.169 1.086-.103.229-.449.169-.772.169-.405 0-1.983-.08-2.197.049-.174.145-.115 1.689-.048 1.883.714.156 2.507-.15 3.018.145.154.399.082.902.193 1.376.145.613.282 1.253.483 1.859.698 2.104 2.146 4.151 3.693 5.432.229.189.427.457.676.627.722.495 1.478.938 2.245 1.401.307.184.659.187.99.361.506.268 1.194.491 1.811.628.479.105 1.617.152 1.955.362.004.751-.134 2.228.048 2.921.367.103 1.632.164 1.979 0l.024-2.897.097-.12c.767-.147 1.434-.089 2.124-.313 3.29-1.071 5.741-2.643 7.483-5.239.396-.59.916-1.26 1.184-1.955.344-.897.656-1.808.917-2.801.132-.499.021-1.205.266-1.617.031-.072.05-.072.097-.121h2.197c.295 0 .654.068.748-.145.142-.283.014-1.676-.097-1.835h-2.825c-.039-.032-.08-.063-.12-.097-.265-1.146-.338-2.348-.749-3.355-1.384-3.399-3.704-6.133-7.048-7.556-.938-.399-1.958-.617-3.018-.918-.385-.108-.932-.011-1.231-.192l-.024-2.873-.097-.121c-.464-.091-1.57-.12-1.907.073-.155.419-.055 1.752-.048 2.316.002.195.055.395-.024.556-.076.168-1.257.264-1.497.338-.102.032-.256.079-.362.024l-.072-.024-.024-3.838c0-.435-.097-1.169.073-1.473.321-.118 1.005-.024 1.448-.024h14.461l.12-.097c.065-.339.05-1.672-.072-1.883-.237-.082-.779-.024-1.135-.024H26.483c-.305 0-.911.079-1.086-.023-.238-.198-.135-1.16-.072-1.497.221-1.185.976-2.049 2.028-2.39.575-.187 1.374-.121 2.1-.121h16.754c1.872 0 5.257-.31 6.108.651.291.02 1.311-1.072 1.399-1.351.064-.21-.295-.334-.435-.436-.462-.336-1.053-.671-1.738-.772V9H27.207c-.047.272-.373.178-.604.265-.598.227-1.14.585-1.617.942-.673.503-1.195 1.428-1.521 2.269l-.217 1.111-.024.361v9.125c-.101.223-.575.268-.797.387a26.5 26.5 0 00-1.497.894c-1.23.775-2.373 1.936-3.186 3.137zm15.595 17.55c-.077.183-.548.286-.748.362-.598.228-1.291.504-1.979.675-.336.085-.755.012-1.014.17a.438.438 0 01-.241-.049c-.08-.365.059-1.461-.073-1.738-.015-.12-.025-.131-.121-.168-.254-.127-1.695-.023-1.859.072-.067.344.034 1.757-.145 1.858-.083.048-.866-.108-1.038-.146-1.083-.222-1.975-.588-2.849-.989-.123-.465-.113-1.399-.024-1.906.093-.53.042-.931.193-1.4.474-1.479 1.593-2.628 2.969-3.211.289-.122.629-.206.917-.266.233-.017.467-.032.7-.048 2.247-.005 3.514.889 4.418 2.221.119.175.328.404.41.604.16.386.268.794.386 1.207l.097.676v2.076zm-7.99-12.626c.313-1.007 1.029-1.728 1.979-2.1l.748-.121c1.7-.012 2.688.853 3.114 2.1l.073.677c.289 1.589-1.13 2.916-2.27 3.187-1.815.431-3.033-.778-3.5-1.907-.177-.43-.328-1.245-.144-1.836zm-2.632-6.808c.414-.273.874-.365 1.328-.604.688-.361 1.44-.468 2.317-.676.28-.066.623-.192.869-.072.094.483-.117 1.414.121 1.835.264.101 1.649.11 1.907 0 .092-.395-.085-1.54.097-1.835l.048-.072.072-.024c.978.229 1.963.361 2.824.7 2.822 1.106 4.75 3.109 6.036 5.77.361.748.628 1.637.869 2.534.061.227.143.809.024.99-.247.246-1.419-.063-1.738.072a.298.298 0 00-.145.193c-.038.154.02 1.646.048 1.689l.048.097h1.713l.121.097c-.002.587-.139 1.017-.241 1.449-.463 1.956-1.189 3.165-2.221 4.514-.301.393-.644.717-.99 1.063-.093.093-.28.324-.435.266h-.048c-.014-3.447-1.634-5.165-3.718-6.543.036-.311.377-.441.531-.651.348-.476.686-1.003.917-1.593.314-.802.307-2.002.072-2.825-.595-2.085-1.865-3.316-4.032-3.814-.706-.161-1.629.027-2.125.169-1.733.498-2.729 1.465-3.379 3.042-.213.516-.522 1.406-.362 2.221.302 1.54.816 2.451 1.714 3.356-.052.286-.473.359-.676.507-.494.356-1.203.929-1.545 1.424-.457.661-.902 1.4-1.183 2.221l-.265 1.135-.048.87-.024.53a1.012 1.012 0 01-.072.024c-1.3-1.187-2.333-2.459-3.114-4.177-.16-.352-.183-.659-.314-1.038-.139-.401-.603-1.725-.386-2.221.438-.154 1.403.142 1.835-.097.095-.254.057-1.701-.048-1.883-.072-.03-.141-.063-.217-.024-.34.009-1.504.075-1.593-.12-.135-.282.057-.8.121-1.015l.121-.748c.166-.525.424-1.117.628-1.594.981-2.3 2.564-3.839 4.538-5.142zM9.367 22.76c.347.448 1.181.361 1.979.361h8.039c.757 0 1.328.02 1.642-.411.385-.527.217-2.934.217-3.909v-3.646c0-.668.05-1.348-.217-1.738-.403-.59-1.903-.387-2.873-.387H9.922c-.265.17-.574.275-.7.579-.21.506-.097 1.438-.097 2.1v4.516c0 .846-.137 2.043.242 2.535zm1.883-7.702l7.822.024c.238.127.121.936.121 1.328v3.308c0 .339.101 1.052-.024 1.255-.11.203-1.457.12-1.835.12h-4.37c-.505 0-1.423.132-1.786-.072-.128-.342-.048-.972-.048-1.399V16.58c-.001-.498-.08-1.213.12-1.522zm32.252-1.449c-.193.47-.072 1.973-.072 2.632v7.242c0 .705-.143 2.64.072 3.114.256.563.926.555 1.763.555h21.51c.323-.079.595-.323.748-.579.204-.343.097-1.162.097-1.665v-9.561c0-.783.109-1.735-.338-2.076-.407-.311-1.182-.241-1.907-.241H44.203c-.264.17-.576.277-.701.579zm2.028 1.449h18.443c.343 0 1.284-.083 1.497.049.055.041.068.049.096.12l.025 7.436v1.642c0 .226.046.557-.025.676-.127.237-.781.146-1.134.146H46.689c-.326 0-.957.092-1.184-.048-.134-.118-.096-.403-.096-.651v-7.171c.001-.642-.151-1.778.121-2.199zm-29.427 4.031c.336 0 .808.084 1.014-.048.141-.133.152-1.694.048-1.931-.307-.116-.8-.049-1.231-.049l-2.559-.024-.193.121c-.004.587-.126 1.553.097 1.907.625.149 2.03.024 2.824.024zm32.325 0h2.92l.121-.096.024-.097v-1.738c-.091-.195-.669-.097-.942-.097l-2.896-.024c-.023.017-.048.033-.072.049-.124.059-.21 1.59-.096 1.811.056.326.571.193.941.192zm7.508 0h7.508l.096-.048c.109-.48.129-1.479 0-1.955-.222-.057-.575-.024-.893-.024h-2.028l-6.808-.024-.289.073c-.124.322-.094 1.71.047 1.955.642.122 1.605.023 2.367.023zm-8.282 1.98l-.072.049c-.143.067-.199 1.714-.072 1.906.123.196.601.097.918.097h14.121c.37 0 .81.058 1.015-.072l.024-1.835-.097-.121-15.837-.024zm21.123 9.101c-.439-.566-1.257-.85-2.1-1.014-.335-.065-.715.053-.941.121l-.508.096c-.809.404-1.301 1.062-1.979 1.57-1.18.883-2.175 1.965-3.332 2.872l-.941.894c-.673.515-1.244 1.124-1.883 1.665-.471.399-.957.758-1.376 1.207-.123-.011-.122-.026-.193-.072v-5.986c0-.407.081-2.062-.048-2.27l-.024-.072h-1.835l-.096.048c-.188.925-.049 2.303-.049 3.332v6.566l.193.192-.024.072c-.082.139-.284.24-.411.339-.371.291-.709.646-1.086.94-.941.738-1.752 1.652-2.703 2.391-.396.306-.933 1.012-1.377 1.207-.39.171-.916.078-1.352.218-1.334.424-2.676 1.085-3.452 2.075-.924 1.18-1.474 2.148-1.835 3.935-.188.929.123 2.17-.048 3.066-.131.688-.567 1.432-1.087 1.738-.282.167-.6.285-.771.556-.295.465-.028 1.135.289 1.352.508.348 2.074.193 2.922.193 1.81-.009 3.621-.017 5.432-.024.852-.167 1.613-.361 2.316-.652 1.584-.652 3.002-2.35 3.621-3.982.229-.601.203-1.758.556-2.221.703-.925 1.597-1.712 2.317-2.632.233-.241.467-.482.7-.725 1.931-2.468 4.254-4.602 6.181-7.073.445-.572 1-1.056 1.448-1.642.237-.311.572-.566.821-.869l1.762-2.052c.518-.66 1.112-1.131 1.496-1.955h.121V31.16c-.165-.026-.593-.823-.724-.99zM52.338 51.438c-.24.72-.339 1.146-.725 1.689-.74 1.044-1.718 1.838-3.162 2.173-.814.188-2.014.072-2.945.072-.645 0-2.164.144-2.583-.096.028-.307.226-.548.313-.797l.17-1.015c.194-1.049-.105-2.319.12-3.283.327-1.397 1.493-2.877 2.704-3.38.412-.17 1.032-.258 1.424-.458h.41a4431.37 4431.37 0 013.066 3.066c.295.294 1.158.988 1.304 1.327.107.225-.044.548-.096.702zM67.57 32.753c-.209.453-.625.763-.917 1.135l-1.642 1.907-1.352 1.473c-.516.666-1.156 1.225-1.666 1.883-1.708 2.207-3.785 4.102-5.504 6.301-.664.851-1.479 1.583-2.148 2.438-.231.295-.548.516-.748.845H53.4c-.283-.051-.739-.69-.941-.894-.818-.816-1.689-1.576-2.438-2.462.021-.263.784-.805.989-.966 1.043-.816 1.936-1.82 2.994-2.631l1.955-1.786c2.41-1.844 4.461-4.121 6.855-5.987l.363-.387c1.008-.781 1.842-1.697 2.92-2.413.262-.005.609-.037.797.047.372.167.972.858.676 1.497zM32.687 64.378c.752-.321.652-1.173.652-2.245v-5.432c0-1.067.101-2.007-.676-2.293-.447-.166-1.227-.049-1.762-.049H26.99c-.496 0-1.291.114-1.689-.048-.056-.265-.024-.761-.024-1.135v-2.414c0-.414.086-1.09-.072-1.376-.42-.16-1.223-.054-1.738-.049-.11.063-.166.044-.217.169l-.024 4.731-.048.098-9.946.023c-1.121 0-3.161-.207-3.79.29-.35.275-.314.94-.314 1.568v6.494c0 .484-.034 1.017.169 1.304.34.481 1.001.459 1.835.459h19.844c.556.002 1.303.08 1.711-.095zm-21.558-3.357v-3.234c0-.474-.065-1.106.121-1.399h18.371c.502 0 1.304-.1 1.642.096l.048.121v4.394c0 .375.123 1.28-.145 1.4v.023h-19.94c-.154-.072-.097-1.115-.097-1.401zm42.488-5.648l-.121.097-.023 2.729c0 .44.064.936-.097 1.183l-13.205.024h-3.283c-.504 0-1.17-.074-1.497.071-.059.253-.146 1.589-.024 1.835.126.233.749.121 1.111.121h15.716c.402 0 .969-.059 1.255.072.122.331.024 1.042.024 1.497 0 1.682.057 2.357-.676 3.331l-.193.289c-.358.288-.804.623-1.304.749-.521.132-1.153.097-1.786.097H29.646c-.786 0-1.695.086-2.317-.121-.703-.233-1.243-.754-1.618-1.327-.413.022-1.377.73-1.738.941.035.366.417.63.604.869.563.722 1.595 1.396 2.704 1.545v.121h24.261c.032-.188.907-.399 1.111-.483.522-.215 1.381-.865 1.689-1.304a6.673 6.673 0 001.158-2.68l.024-6.325v-2.316c0-.273.065-.758-.048-.942-.144-.147-1.533-.083-1.859-.073zM13.35 58.391l-.072.049-.097.048c-.047.26-.048 1.688.048 1.835.163.206.78.12 1.135.12l3.718-.023c.173-.091.181-1.778.072-2.004-1.601-.009-3.202-.018-4.804-.025zm15.426 0h-8.353c-.032.008-.064.017-.097.024l-.097.072c-.095.481-.112 1.586.097 1.907.623.139 1.512.048 2.221.048h4.346c.509 0 2.05.117 2.317-.048.045-.041.061-.094.097-.146v-1.762c-.061-.13-.338-.095-.531-.095zm11.515 7.048l.098-.048c.064-.326.09-1.672-.049-1.883-.145-.146-1.467-.078-1.811-.072l-.145.097c-.041.301-.1 1.668 0 1.834.081.098 1.701.178 1.907.072z"/></svg>