<svg xmlns="http://www.w3.org/2000/svg" width="78" height="78"><path fill-rule="evenodd" clip-rule="evenodd" fill="#62CB5E" d="M69.322 55.146c-.354-.964-1.445-.635-2.479-.891-1.156-.285-1.942-.807-2.741-1.418l-.457-.361c-.54-.685-1.013-1.325-1.396-2.188-.176-.398-.18-.8-.288-1.275-.214-.94-.05-2.151.24-2.886.729-1.847 1.793-3.056 3.536-3.872.519-.243 1.128-.312 1.756-.433.402-.079.822.025 1.154-.121.234-.104.496-.363.625-.577.07-.116.012-.229.145-.288v-6.734c0-.163.044-.376-.072-.434-.026-1.888-1.617-3.457-2.959-4.064l-1.178-.337-.602-.048h-9.645c-.192-.089-.234-.531-.313-.746-.238-.649-.496-1.705-.289-2.622.38-1.675 1.01-3.031 2.165-3.92.519-.399 1.921-.989 1.731-1.996-.167-.891-.84-1.589-1.227-2.309-.455-.848-.975-1.648-1.419-2.478-.511-.95-1.032-1.938-1.876-2.55-.467-.339-1.027-.604-1.611-.818l-.938-.168c-.104-.022-.06.019-.097-.072h-.385v.072c-2.012.019-3.174 1.015-4.449 1.805-.586.362-1.2.615-1.779.986-1.526.976-3.157 1.863-4.715 2.789-6.783 4.033-13.731 7.789-20.444 11.905-1.116.685-2.25 1.281-3.391 1.925-.979.554-1.944 1.22-2.934 1.756-1.069.578-2.218 1.161-2.935 2.092-.34.442-.61 1.003-.818 1.564l-.168.793c-.009.113.022.085-.069.122v1.37c.135.241.137.553.24.866.082.247.234.56.361.817.641 1.302 1.504 2.542 2.213 3.8.398.707.945 2.157 1.732 2.406.705.224 1.255-.255 1.684-.481.438-.231 1.025-.362 1.539-.48.708-.164 1.735-.092 2.333.096l.722.145c1.569.539 2.824 1.72 3.56 3.103.572 1.074.246 1.557-.313 2.429-.811 1.267-1.89 2.17-3.439 2.694-.834.282-2.313.075-2.79.721-.489.664-.289 2.656-.289 3.801 0 1.333-.171 3.323.12 4.426.348 1.32 1.135 2.46 2.165 3.103.489.305 1.074.495 1.66.697l.698.072c.122-.001.131-.02.168.072h42.644c.182 0 .538.056.602-.072 2.15-.05 3.809-1.521 4.449-3.078.155-.376.111-.781.289-1.154-.005-.126-.021-.155.072-.193V57.53c-.002-.753.117-1.797-.098-2.384zM25.932 28.16a104.705 104.705 0 015.243-3.055c1.181-.64 2.366-1.39 3.512-2.092 1.117-.686 2.25-1.279 3.392-1.925 2.097-1.188 4.166-2.453 6.277-3.656 1.21-.688 2.393-1.442 3.633-2.115.519-.282 1.018-.694 1.563-.938.266-.119.577-.131.866-.265 1.853-.013 2.319 1.005 2.958 2.188.388.718.873 1.431 1.275 2.141.219.386.373.822.648 1.154-.072.329-.878.792-1.105 1.083-.717.914-1.393 1.812-1.877 2.982-.311.754-.691 2.652-.48 3.775.049.263.332 1.657.313 1.708a1.515 1.515 0 00-.023.072l-27.876-.024h-.024c.165-.297 1.345-.809 1.705-1.033zm-2.838 16.645c-.066.046-.422-.229-.505-.289a6.709 6.709 0 00-1.66-.891c-1.98-.705-4.587-.766-6.446.12-.443-.439-.693-1.147-1.01-1.707-.607-1.071-1.391-2.112-1.852-3.295-.143-.366-.15-1.069-.024-1.467.123-.389.373-.742.601-1.035.237-.303.63-.436.962-.649.738-.472 1.532-.919 2.285-1.37.308-.185.791-.327 1.01-.602h.12a.51.51 0 00.024.023c-.07 1.684-.048 3.556-.048 5.316 0 .68-.129 1.711.144 2.164.494.82 1.123.513 2.165.746.431.096.871.212 1.274.36.697.257 1.768.951 2.189 1.491.193.248.574.835.793 1.011-.006.025-.014.049-.022.074zm42.98 19.001c-.877.685-1.8.625-3.367.625H34.326a3.601 3.601 0 00-.144-.024c-.284-1.596.52-2.929-1.034-3.367-.239-.067-.582-.04-.794.072-.718.378-.697 1.174-.697 2.284l-.024.986v.049H23.72c-1.3 0-2.719.107-3.512-.385-1.391-.864-1.154-2.698-1.154-4.907 0-.726-.121-1.697.048-2.333.84-.203 1.636-.328 2.333-.673 2.116-1.049 3.836-2.703 4.666-5.027.642-1.797.633-4.262 0-6.061-.94-2.674-3.753-5.321-6.999-5.677-.161-.386-.048-1.832-.048-2.381 0-1.77-.19-3.712.745-4.546.257-.229.632-.489.986-.602l.625-.12h10.222l.024.024c-.008.78-.137 2.886.12 3.367.351.658 1.307.884 1.972.385.275-.206.25-.503.409-.842l.024-2.91c7.8-.009 15.602-.016 23.402-.024h5.051c1.544 0 2.512-.056 3.392.602 1.139.851.89 3.094.89 5.075 0 .445.115 1.648-.048 1.948-.214.135-.548.099-.817.168l-1.131.361c-1.553.612-2.975 1.703-3.872 2.981-.591.844-1.024 1.791-1.396 2.863-.402 1.167-.386 3.155-.048 4.353.797 2.819 2.153 4.521 4.45 5.82.535.304 1.203.542 1.828.722.335.097.738.09 1.01.241l.023 2.092c.001 1.898.228 4.027-.841 4.861zM41.229 46.224c.365.256 1.197.729 1.9.601 1.865-.34 2.837-1.454 3.367-3.103.877-2.722-.361-5.785-2.188-6.662-.411-.197-.889-.293-1.491-.288l-.457.047-.938.361c-1.098.693-1.75 1.844-2.093 3.295-.58 2.461.546 4.795 1.9 5.749zm1.66-6.952c.53.002.752.414.938.77.604 1.155.555 3.938-.745 4.257-.597.147-1.027-.879-1.154-1.299-.483-1.594-.11-2.981.961-3.728zm12.507-2.501c-.152.047-.305.095-.456.144-.523.294-1.424 1.736-1.805 2.285-.643.924-1.385 1.793-2.045 2.718l-8.73 11.593-1.996 2.718c-.305.385-.609.771-.914 1.154-.355.609-.236 1.498.313 1.828.42.253 1.052.246 1.443-.023.395-.271.648-.82.938-1.203.753-.997 1.506-2.001 2.262-3.007 3.408-4.535 6.852-9.065 10.246-13.613l1.347-1.852c.257-.351.651-.703.794-1.154.299-.956-.576-1.579-1.397-1.588zm-23.138 8.875c.152.095.445.286.722.24.507-.084.936-.376 1.106-.794.158-.388.072-1.085.072-1.588 0-1.457.089-2.659-1.371-2.645-.1.06-.231.02-.361.072-.246.099-.574.426-.673.673-.16.399-.096 1.052-.096 1.587 0 1.168-.14 1.99.601 2.455zm20.66 3.704c-.168.086-.385.017-.602.072-.193.051-.414.155-.625.241-.934.377-1.75 1.629-2.092 2.621-.853 2.474.04 5.327 1.587 6.446.386.278 1.202.764 1.9.697 2.321-.225 3.169-1.943 3.68-3.993.167-.67.032-1.824-.097-2.381-.43-1.868-1.476-3.722-3.751-3.703zm.361 7.48c-.07.044-.252.072-.337.024-.397-.037-.619-.495-.77-.794-.586-1.166-.497-3.685.673-4.137l.121-.049c.056.008.111.017.168.024.434.023.671.515.818.842.527 1.173.482 3.637-.673 4.09zm-20.516-5.892l-.337.072c-.242.101-.529.377-.649.601-.199.369-.12 1.075-.12 1.612 0 1.17-.141 1.984.577 2.477.164.112.424.294.746.241.544-.09.964-.364 1.13-.818.146-.398.048-1.081.048-1.563 0-1.473.096-2.644-1.395-2.622z"/></svg>