<svg xmlns="http://www.w3.org/2000/svg" width="78" height="78"><path fill-rule="evenodd" clip-rule="evenodd" fill="#62CB5E" d="M60.16 59.901V19.539c-.169-.669-.918-1.148-1.355-1.585a5455.85 5455.85 0 00-3.402-3.402l-4.885-4.886c-.758-.757-1.671-1.915-2.584-2.455H18.826c-.059.121-.227.107-.333.179-.198.134-.573.744-.64.768v51.438c0 1.226-.244 3.034.486 3.556.686.49 3.425.281 4.655.281l14.963.025c.026.009.051.018.077.025v4.938c0 .616-.125 1.73.051 2.225.06.167.248.436.384.537.123.093.378.126.435.281 1.131.003 1.57-.531 2.251-.972.801-.518 1.615-.998 2.405-1.509.354-.229.766-.389 1.073-.666.517.015.937.525 1.305.743a67.266 67.266 0 012.608 1.637c.216.141 1.182.594 1.254.767.889.017 1.292-.235 1.561-.818.018-.102.034-.204.051-.307.009-2.293.018-4.588.025-6.881l6.037-.025c.955 0 1.987.104 2.404-.435.459-.593.282-2.078.282-3.097zM48.854 11.61h.103l6.829 6.854a3.854 3.854 0 00-.025.103c-2.284-.009-4.57-.018-6.854-.025h-.052V11.61zm.026 56.247c-.394-.033-.784-.452-1.074-.641-.499-.323-1-.586-1.509-.896-.379-.229-.754-.592-1.203-.74-.37-.124-.85.022-1.073.153l-3.325 2.123a8.246 8.246 0 00-.154-.026V57.65c0-.309-.055-.777.052-.998l.308-.025.869.025c.354.117.661.504.946.717.521.389 1.041.641 1.815.793 1.033.201 2.111-.729 2.635-1.126.225-.169.828-.661 1.381-.384.154-.003.271.006.359.051-.011 3.719-.018 7.437-.027 11.154zm1.944-16.626c-.91.703-.907 1.772-1.406 2.864-.184.069-.526.054-.742.025-.621-.081-1.395-.012-1.842.153-.786.289-1.379 1.136-2.072 1.355-.248.052-.586-.352-.768-.485-.557-.414-1.097-.821-1.893-.997l-1.943-.026c-.267-.051-.563-1.469-.691-1.79-.391-.979-1.472-1.547-2.276-2.123.029-.614.372-1.106.511-1.638.259-.982-.132-2.549-.511-3.223.022-.379 1.208-1.018 1.509-1.253.485-.379.787-1.039.998-1.688.116-.357.121-.755.307-1.049.197-.227 1.721-.036 2.148-.128.936-.198 1.451-.757 2.098-1.228l.41-.256c.607.086 1.26.919 1.79 1.202.729.389 1.804.319 2.89.308l.129.102c.472 2.207 1.203 2.745 2.787 3.812-.016.59-.332 1.075-.485 1.561-.28.884.003 1.792.229 2.48.094.285.111.58.256.818-.019.418-1.122.964-1.433 1.204zm6.804 9.694l-6.139-.025-.077-.025v-5.192l.461-.87.409-1.458c.147-.287.549-.439.818-.613.447-.29.987-.683 1.278-1.126.936-1.426-.015-2.552-.229-3.862-.044-.269.165-.597.229-.793.243-.723.625-1.821.256-2.686-.242-.568-.719-1.075-1.201-1.406-.35-.239-.951-.444-1.151-.818-.17-.318-.177-.707-.282-1.075-.254-.894-.76-1.59-1.508-1.995-.222-.12-1.176-.308-1.51-.255-.367.057-.99.126-1.33 0-.378-.142-.68-.548-.998-.768-.52-.36-1.044-.593-1.79-.742-.202-.04-.396.045-.537.077-.725.162-1.171.392-1.663.768-.267.203-.537.542-.869.665-.342.125-.961.057-1.33 0-.342-.054-1.275.135-1.509.255-.749.385-1.193 1.076-1.483 1.918-.141.408-.126.909-.358 1.229-.241.331-.756.51-1.1.742-.488.329-.965.856-1.202 1.432-.361.876.033 1.96.256 2.66.061.191.276.527.23.793-.164.943-.886 1.829-.563 3.069.235.902.919 1.471 1.611 1.919.231.149.54.258.716.46.192.222.174.523.281.845.19.568.378 1.184.69 1.637l-.025 5.218-.051.025-17.572-.025V10.817c0-.314-.078-.883.051-1.101 8.619.009 17.241.018 25.86.025l.025 7.725c0 .802-.156 2.439.103 2.892.135.234.403.537.665.639l.409.077h9.259c.283 0 .697-.045.896.051l-.026 39.8zm-32.74-39.903c.388.105.92.052 1.381.052h14.427c.414 0 .881.046 1.201-.077.425-.162.715-.613.793-1.125.039-.246-.145-.55-.229-.691-.536-.887-2.395-.613-3.786-.613H25.22c-.331.184-.679.126-.896.409-.538.704-.243 1.826.564 2.045zm28.596 6.268c.369-.197.624-.57.69-1.075.073-.56-.372-1.04-.716-1.202-.432-.203-1.273-.103-1.867-.102h-26.5c-.406.229-.723.262-.946.665-.411.739.148 1.582.716 1.765.584.188 1.538.077 2.251.076h24.454c.623 0 1.487.103 1.918-.127zm-4.757 4.297c-.111-.085-.238-.237-.384-.281-.45-.135-1.081-.077-1.637-.077H25.22c-.361.205-.667.12-.921.46-.514.688-.196 1.761.537 1.996.491.157 1.263.051 1.842.051H46.68c.524 0 1.194.085 1.637-.051.409-.127.731-.539.818-.998a1.111 1.111 0 00-.408-1.1zm4.169-.358c-.122.066-.246.024-.41.077-.265.085-.6.424-.716.665-.378.784.384 1.929 1.253 1.765.699-.133 1.459-.801 1.074-1.714-.201-.479-.618-.68-1.201-.793z"/></svg>