<svg xmlns="http://www.w3.org/2000/svg" width="78" height="78"><path fill-rule="evenodd" clip-rule="evenodd" fill="#66CC62" d="M63.953 38.506c-.635 0-1.264-.004-1.785-.097l-.449-.043c-.563-.141-1.227-.23-1.723-.46-.342-.158-.713-.271-1.048-.449-.624-.331-1.187-.723-1.732-1.123-.349-.256-.665-.544-1.005-.802-.094-.067-.186-.136-.279-.203-.09-.136-.031-.538-.031-.738v-3.904c0-.317.036-.692-.032-.962-.312-1.224-1.063-2.018-2.353-2.257l-1.241-.011a1.375 1.375 0 01-.054-.054v-1.754c.195-.112 1.014.002 1.305-.054.926-.176 1.605-.662 2.012-1.358.518-.888.363-2.592.363-3.989v-3.519c0-.729.038-1.53-.118-2.097-.228-.827-1.138-1.734-2.075-1.85l-.01-.075H13.899v.064c-1.09.263-1.954 1.004-2.15 2.149h-.064v8.481h.064c.15 1.165 1.144 1.875 2.192 2.172.386.108.953.047 1.401.042.059.11.032.352.032.514l-.011 1.294c-.237.127-1.091-.017-1.412.064-1.113.283-2 .991-2.203 2.171h-.064v8.481h.064c.15 1.166 1.144 1.875 2.192 2.172.386.108.953.047 1.401.042.059.11.032.352.032.514l-.011 1.295c-.237.127-1.091-.018-1.412.063-1.113.283-2 .991-2.203 2.171h-.064v8.482h.064c.151 1.165 1.143 1.874 2.192 2.171.386.109.953.047 1.401.043.059.109.032.351.032.513l-.011 1.295c-.237.127-1.091-.018-1.412.063-1.113.283-2 .991-2.203 2.172h-.064v3.326h39.916c.212.064.519.322.716.438.627.365 1.234.744 1.883 1.069.148.074.656.491.834.449.129-.03.246-.164.354-.225.273-.153.531-.309.791-.46.783-.457 1.586-.877 2.332-1.369.499-.328.98-.633 1.465-.963.426-.289.781-.687 1.177-1.005 1.3-1.045 2.313-2.453 3.241-3.872.396-.607.744-1.313 1.048-1.989.111-.247.155-.49.278-.738.459-.925.654-2.002.909-3.134.128-.568.267-1.251.267-1.914h.064V38.506h-3.004zm-49.99-14.867c-.596-.345-.428-1.467-.428-2.396v-4.375c0-.621-.107-1.479.128-1.882.148-.253.385-.308.674-.428h36.92c.82 0 2.208-.157 2.567.299.344.438.235 1.43.235 2.203l-.011 5.979c-.204.917-1.272.728-2.364.728h-35.23c-.665.001-2.08.11-2.491-.128zm36.408 2.492v1.294c-.153.082-.516.032-.729.032h-8.074l-24.322-.011c-.097-.167-.035-1.471-.032-1.786l.032-.043h33.091c.067.106.034.335.034.514zM13.963 38.377c-.596-.344-.428-1.467-.428-2.396v-4.375c0-.621-.107-1.479.128-1.882.148-.254.385-.307.674-.428h36.45c.883 0 2.462-.145 2.963.225.357.263.311.861.311 1.486v4.246c-.045.178-.709.61-.877.738-.267.201-.52.445-.791.642a9.305 9.305 0 01-2.963 1.423c-.38.104-.827.233-1.241.32l-.855.107-.877.021H16.658c-.695.002-2.269.119-2.695-.127zM43.13 49.501l-.032.053-5.829.011h-1.882l-.898-.021c-.515-.15-.938-.831-.546-1.411.145-.215.356-.296.61-.407h8.429c.065.106.018.277.042.439l.106 1.336zm-.128-8.632v1.295c-.123.064-.4.031-.578.031h-6.278l-18.899-.011c-.097-.167-.035-1.471-.032-1.786l.032-.043h25.722c.066.106.033.335.033.514zM13.931 53.094c-.563-.403-.396-1.448-.396-2.396v-4.363c0-.619-.106-1.471.128-1.872.148-.253.385-.308.674-.428l28.643.011c.056.104.021.336.021.503v1.294c-.162.092-.578.032-.803.032h-6.064c-.779 0-1.666-.059-2.268.128-1.079.334-1.726 1.219-1.915 2.46-.109.72.27 1.445.545 1.808.334.438.774.813 1.348 1.006.631.213 1.621.128 2.439.128h4.684l2.461.011c.147.072.117.32.17.492.079.252.136.544.236.802.053.137.165.338.171.503-.11.057-.341.032-.503.032H15.931c-.602-.001-1.646.103-2-.151zm30.846 2.011c.119.06.143.27.213.385l.567.994c.052.096.259.287.235.396-.057.087-.289.053-.428.053H39.01l-21.765-.011c-.097-.167-.035-1.471-.032-1.786l.032-.042 27.532.011zm4.203 5.476c-.141.084-.521.032-.749.032H13.567c-.07-.109-.032-.369-.032-.557 0-.886.15-1.016.802-1.283h32.868c.596.581 1.086 1.278 1.775 1.765v.043zm16.129-19.68v6.363c0 3.696-1.083 6.446-2.546 8.707-.341.526-.761.997-1.134 1.486a12.315 12.315 0 01-2.92 2.706c-.316.207-.632.473-.963.663-.498.286-.994.546-1.486.845-.229.139-.813.569-1.059.609-.157.04-.939-.543-1.135-.631-.324-.146-.628-.36-.919-.545-.415-.265-.841-.466-1.241-.738-.445-.304-.85-.683-1.272-1.006-1.493-1.138-2.978-3.036-3.851-4.791-.333-.671-.59-1.391-.898-2.097l-.16-.609c-.217-.724-.385-1.549-.545-2.363l-.043-.664c-.104-.555-.086-1.252-.086-1.914v-6.535c.152-.089 1.207-.032 1.486-.032.826 0 1.613-.056 2.289-.214l.396-.053c1.051-.295 1.985-.601 2.887-1.017 1.143-.527 2.076-1.374 3.027-2.107.245.007.682.481.866.621.638.483 1.294.991 2.032 1.369.959.489 2.02.891 3.197 1.155.485.108 1.006.13 1.509.214l.888.021 1.646.011c.072.109.035.362.035.546zM18.284 21.928c1.276-.205 2.135-.811 2.492-1.915.628-1.941-.931-3.641-2.706-3.615l-.342.021a3.574 3.574 0 00-.449.107c-.847.287-1.478.936-1.775 1.775-.575 1.623.547 2.972 1.615 3.412.285.118.717.287 1.165.215zm-1.048-3.017c.127-.377.378-.502.727-.663 1.349-.022 1.411 1.547.396 1.818-.637.171-1.347-.491-1.123-1.155zm7.251 2.803c.286.117.718.286 1.166.214 1.276-.205 2.135-.811 2.492-1.915.628-1.941-.931-3.641-2.706-3.615l-.342.021a3.574 3.574 0 00-.449.107 2.843 2.843 0 00-1.776 1.775c-.575 1.624.547 2.972 1.615 3.413zm.118-2.803c.127-.377.378-.502.727-.663 1.349-.022 1.411 1.547.396 1.818-.637.171-1.346-.491-1.123-1.155zm8.728 2.652c.254.151.581.254.898.332.404.1.975.032 1.433.032H48.51c.639 0 1.284.012 1.775-.118.972-.256 1.676-1.163 1.903-2.182.079-.354.024-.831-.063-1.112-.301-.949-.693-1.415-1.487-1.861-.468-.263-1.14-.257-1.872-.257H34.595l-.203.011-.535.118c-.583.175-1.087.604-1.412 1.048a2.543 2.543 0 00-.375.749c-.399 1.509.329 2.688 1.263 3.24zm.599-2.898c.143-.226.364-.298.62-.417h12.214l2.91.011c.375.106.806.491.695 1.069-.069.358-.344.607-.653.728-.25.098-.708.032-1.016.032h-2.235l-11.926-.011c-.548-.109-.984-.82-.609-1.412zM18.284 36.666c1.276-.205 2.135-.811 2.492-1.915.628-1.941-.931-3.641-2.706-3.614l-.342.021a3.397 3.397 0 00-.449.106c-.847.287-1.478.937-1.775 1.775-.575 1.623.547 2.972 1.615 3.412.285.119.717.287 1.165.215zm-1.048-3.017c.127-.377.378-.502.727-.663 1.349-.022 1.411 1.547.396 1.818-.637.172-1.347-.49-1.123-1.155zm7.251 2.803c.286.118.718.286 1.166.214 1.276-.205 2.135-.811 2.492-1.915.628-1.941-.931-3.641-2.706-3.614l-.342.021a3.397 3.397 0 00-.449.106 2.845 2.845 0 00-1.776 1.775c-.575 1.624.547 2.973 1.615 3.413zm.118-2.803c.127-.377.378-.502.727-.663 1.349-.022 1.411 1.547.396 1.818-.637.172-1.346-.49-1.123-1.155zm8.728 2.654c.254.15.581.253.898.331.404.1.975.032 1.433.032H48.51c.639 0 1.284.012 1.775-.118.972-.256 1.676-1.163 1.903-2.182.079-.354.024-.831-.063-1.112-.301-.949-.693-1.415-1.487-1.861-.468-.263-1.14-.256-1.872-.256H34.595l-.203.011-.535.117c-.583.175-1.087.604-1.412 1.048a2.543 2.543 0 00-.375.749c-.399 1.509.329 2.687 1.263 3.241zm.599-2.9c.143-.226.364-.298.62-.417h12.214l2.91.011c.375.106.806.491.695 1.069-.069.358-.344.607-.653.728-.25.098-.708.032-1.016.032h-2.235l-11.926-.011c-.548-.108-.984-.82-.609-1.412zm28.064 10.803c-1.26-2.012-3.783-3.891-7.08-3.861l-.781.043c-.699.142-1.391.191-1.979.449-2.473 1.085-3.965 2.457-4.984 4.995-.164.41-.277.903-.363 1.358-.256 1.358-.084 3.011.321 4.064.169.441.294.828.491 1.229.83 1.687 2.367 3.021 4.14 3.775.503.215 1.075.396 1.669.535l.791.097c.232.041.743.086 1.006.042l.566-.031c.566-.108 1.127-.173 1.637-.332 2.532-.79 4.195-2.516 5.24-4.803.732-1.603.796-4.338.075-6-.243-.557-.444-1.073-.749-1.56zm-.695 5.755c-.078.386-.208.77-.342 1.122-.6 1.583-1.98 2.877-3.519 3.53-.56.237-1.192.343-1.872.46l-.588.011a6.168 6.168 0 01-2.3-.439c-1.64-.628-2.834-1.758-3.562-3.294-.123-.258-.16-.516-.278-.791-.251-.589-.448-1.93-.257-2.749.112-.476.147-.943.321-1.358.792-1.891 1.984-3.088 3.872-3.882.4-.169.862-.227 1.326-.321.168-.018.335-.035.502-.054.651-.001 1.253-.013 1.775.139 2.305.669 3.748 1.916 4.61 4.021.389.945.563 2.374.312 3.605zm-2.705-4.397l-4.482 4.471-.106.011-1.283-1.283c-.179-.178-.365-.455-.589-.577-.171.019-.283.22-.385.32l-.898.888v.107l3.155 3.154.097.011 4.225-4.235c.363-.398.773-.772 1.154-1.155.121-.119.37-.261.418-.438l-.909-.92c-.11-.108-.235-.311-.397-.354zM17.118 51.19c.286.118.718.286 1.166.214 1.276-.205 2.135-.81 2.492-1.914.628-1.941-.931-3.642-2.706-3.615l-.342.021c-.132.025-.302.057-.449.106-.847.287-1.478.937-1.775 1.775-.576 1.625.546 2.973 1.614 3.413zm.118-2.801c.127-.378.378-.503.727-.664 1.349-.022 1.411 1.547.396 1.818-.637.171-1.347-.49-1.123-1.154zm7.251 2.801c.286.118.718.286 1.166.214 1.276-.205 2.135-.81 2.492-1.914.628-1.941-.931-3.642-2.706-3.615l-.342.021c-.132.025-.302.057-.449.106a2.845 2.845 0 00-1.776 1.775c-.575 1.625.547 2.973 1.615 3.413zm.118-2.801c.127-.378.378-.503.727-.664 1.349-.022 1.411 1.547.396 1.818-.637.171-1.346-.49-1.123-1.154z"/></svg>