<svg xmlns="http://www.w3.org/2000/svg" width="78" height="78"><path fill-rule="evenodd" clip-rule="evenodd" fill="#66CC62" d="M70.527 50.494l-.599-.104-.599-.196c-.408-.097-.889-.095-1.141-.347-.186-.185-.168-.558-.311-.786-.095-.151-.434-.834-.381-1.041.034-.133.146-.188.207-.289.293-.487.535-.955.818-1.446.109-.188.446-.444.299-.763l-5.275-5.285c-.041-.03-.123-.095-.207-.069-.041.012-.445.3-.507.347l-1.44.855c-.15.078-.301.287-.541.221-.08-.055-.161-.108-.242-.162l-.311-.093-.254-.162c-.34-.129-.834-.163-.944-.509-.068-.214-.069-.433-.126-.671l-.186-.555c-.072-.262-.103-.548-.172-.764-.061-.187-.074-.56-.266-.612l-5.667.011h-1.348c-.169 0-.417-.051-.53.023-.266.176-.247.702-.334 1.064l-.161.451c-.107.374-.099.89-.288 1.179-.076.117-.353.236-.483.289l-.392.093-.3.186-.276.081c-.105.062-.259.22-.449.15-.166-.062-.43-.295-.588-.394-.367-.229-.742-.388-1.105-.624-.123-.081-.499-.422-.691-.382-.188.039-.308.251-.426.369l-.968.972-3.985 3.99c-.206.336.375.575.287.948-.133.063-1.148-.14-1.358-.186-.361-.077-.741-.079-1.141-.161-.795-.165-1.713-.319-2.522-.463-.403-.071-1.398-.102-1.544-.37.045-.28.503-.344.714-.475a20.928 20.928 0 002.154-1.491l.68-.671c.389-.315.775-.763 1.071-1.168.165-.226.397-.515.53-.74.09-.151.228-.501.357-.59.14-.096.898-.035 1.141-.035.758 0 1.311-.052 1.83-.277.717-.311 1.211-.96 1.556-1.653.113-.227.138-1.008.312-1.122l1.105-.267c.558-.248 1.107-.711 1.417-1.214.574-.934.483-2.313.483-3.827 0-1.45.078-2.613-.449-3.539-.246-.435-.701-.771-1.094-1.064-.26-.194-.439-.063-.53-.475l.012-2.439c0-1.43-.093-2.758-.334-3.909l-.081-.602c-1.699-6.058-5.503-10.083-11.369-11.946l-.426-.069c-.722-.214-1.546-.329-2.373-.463l-1.221-.034a3.341 3.341 0 00-.91 0l-1.198.034c-.4.064-.785.119-1.129.196l-.668.082a20.87 20.87 0 00-1.405.416l-.553.139c-.616.265-1.328.49-1.866.844-.126.051-.253.101-.38.15a43.281 43.281 0 00-2.558 1.712l-1.301 1.203c-.167.135-.294.336-.473.463-.149.038-.299.077-.449.114-.32.141-.66.322-.979.486-.199.103-.388.297-.564.429a6.424 6.424 0 00-2.35 3.388c-.262.89-.23 2-.23 3.146v6.685c-.067.38-.182.252-.438.405-.123.073-.256.177-.38.266-.375.271-.697.702-.933 1.11l-.092.358c-.042.129-.125.269-.161.417-.102.421-.035.939-.035 1.41v2.544c0 .404-.054.83.023 1.215.036.18.124.329.173.486l.058.288.173.231.115.267c.324.458.83.864 1.359 1.109.303.142.8.173 1.163.231h2.477c.304 0 .773-.066.956.059.217.148.187.457.276.74.062.196.153.346.219.589.04.148.159.257.208.382.234.611.49 1.143.817 1.666.628 1.003 1.438 1.971 2.35 2.694l.737.671c.486.359 1.027.645 1.532.982.245.165.537.151.679.417l-.011.069c-.091.189-.449.159-.668.22-.283.077-.611.077-.945.139l-.991.208-.542.046c-1.241.244-2.619.448-3.858.694l-.634.058c-.272.073-.545.146-.818.221-.134.019-.269.037-.403.057l-.207.128-.392.104c-.265.107-.53.289-.76.429l-.219.068a6.872 6.872 0 00-2.684 3.03l-.162.243c-.331.878-.642 1.792-.991 2.648-.027.123-.053.247-.081.37l-.184.358-.081.37c-.111.271-.273.657-.392.925l-.092.405-.173.335-.092.405-.173.323-.081.37c-.374.921-.705 1.894-1.044 2.858a.306.306 0 01-.15.024v.347l23.948.012h9.572c.358 0 .829-.049 1.129.034.163.23-.079.542-.208.741-.387.598-.756 1.246-1.151 1.839.026.3.964 1.021 1.175 1.283l2.385 2.417.645.625c.25.311.566.628.876.879.124.1.172.271.356.312.305.066.502-.245.68-.335.439-.224.813-.499 1.222-.74.077-.026.153-.054.229-.081.085-.058.145-.163.254-.196.254-.077.902.309 1.094.405.26.128.607.114.772.334.208.278.204.681.3 1.076.064.2.131.4.195.602l.069.474c.067.2.166.36.161.625h7.799c0-.38.139-.608.219-.902l.046-.382.208-.647c.075-.297.05-.595.207-.798.171-.222.84-.434 1.151-.532.233-.074.415-.344.749-.254.201.054.512.327.691.439.529.331 1.074.61 1.59.948.323-.045 1.227-1.093 1.485-1.354l2.477-2.498.749-.74c.291-.293.588-.543.818-.902-.031-.224-.24-.404-.346-.566l-.059-.185-.184-.231c-.145-.227-.227-.453-.369-.683-.099-.159-.367-.485-.426-.647-.106-.296.113-.458.184-.612.061-.132.089-.29.15-.405.171-.32.191-.738.473-.948.195-.146.504-.104.783-.173l.576-.197.609-.115c.213-.067.416-.167.715-.162v-7.83c-.199-.005-.322-.087-.471-.131zM42.076 37.622c-.251.334-.813.6-1.43.405l-.022-.034c-.028-.157.042-.253.081-.371.059-.176.037-.4.161-.508.224-.195.785.034 1.095-.081.1-.001.152.014.219.034.163.228.014.397-.104.555zm2.752-8.719c.287.174.436.436.53.81l.012 1.329v2.001c0 .515.032 1.056-.127 1.411-.112.251-.454.505-.817.439-.139-.198-.092-.566-.092-.914v-2.081c0-.201.045-.848-.023-.938-.078-.137-.293-.115-.508-.115-.449 0-1.125-.088-1.474.058-.107.187-.046.632-.046.925v2.151c0 .383.031.77-.127.983-.156.039-.762.07-.853-.034-.126-.146-.046-.862-.046-1.157v-4.822c.023-.065.086-.1.139-.14h2.373c.358.001.829-.047 1.059.094zm-28.209 6.048c-.41.093-.986.023-1.44.023-1.274 0-2.259.183-2.604-.799-.096-.271-.023-.9-.023-1.26v-3.192c.035-.188.123-.376.219-.521.073-.11.296-.304.426-.347.104-.016.208-.03.311-.047h2.235c.262 0 .708-.059.875.059.115.08.057 1.102.057 1.399v3.365c.001.436.14 1.043-.056 1.32zm1.07-10.269c-.279.044-.713-.094-.898.034-.233.162-.061 1.607-.161 1.955-.323.217-1.064.018-1.532.093-.171.027-.395-.021-.449-.116-.096-.168-.035-.501-.034-.74v-5.296c0-1.524-.023-2.833.415-3.887l.161-.22c.472-.817.994-1.34 1.843-1.781l.219-.149c.333-.137.718-.146 1.002-.336l.53-.531 1.244-1.157c.68-.534 1.389-1.054 2.154-1.504.155-.091.322-.201.472-.266l.253-.069.242-.161.265-.082.265-.173.426-.093c.31-.148.701-.315 1.048-.416.154-.023.307-.047.461-.069l.61-.197.599-.058.875-.174.933-.034c.652 0 1.405-.06 2.004.046 1.124.199 2.189.425 3.191.729.119.036.233.123.334.173l.403.104.253.161.253.07c.108.068.215.139.323.208.75.324 1.382.744 1.993 1.202.612.46 1.204.902 1.74 1.435 1.01 1.003 1.824 2.199 2.568 3.469l.092.29c.124.247.338.551.438.809l.093.394c.05.089.101.178.149.267l.069.323c.602 1.51.772 3.321.772 5.459 0 .652.098 1.767-.059 2.289-.16.108-.413.07-.68.07-.293 0-1.181.063-1.267-.07-.233-.361.165-1.734-.173-2h-.853c-.773-.122-1.663-.018-2.384-.196-.647-.162-1.299-.258-1.924-.463-1.591-.523-3.008-1.356-4.216-2.278-.486-.372-.899-.82-1.371-1.203-.272-.221-.475-.528-.749-.751-.146-.119-.494-.663-.771-.579l-1.498 1.516c-1.237 1.049-2.492 2.096-4.089 2.786-1.115.483-2.333.799-3.686 1.042-.63.04-1.264.082-1.898.125zm4.712 17.173l-.449-.44c-1.246-1.032-2.432-3.013-2.903-4.821-.351-1.346-.323-2.998-.322-4.719v-3.48c0-.392-.078-1.255.023-1.562.095-.29.681-.189 1.014-.243l.518-.046a46.911 46.911 0 002.039-.486l.415-.174.553-.139.184-.127c.315-.135.575-.186.887-.323l.311-.209c1.19-.456 2.221-1.308 3.179-2.024.341-.323.684-.646 1.025-.971.344.005.47.303.668.463.496.399.952.863 1.486 1.226.957.65 2.001 1.296 3.133 1.758l.38.093.185.127c.225.102.545.191.76.266.242.084.502.114.703.197.193.08.402.068.645.115l.818.209.507.046c.286.045.913-.004 1.024.185.108.183.047.567.047.845v5.446c0 .644.061 1.319-.047 1.909l-.16.786-.046.463-.196.555-.069.405-.184.358c-.047.15-.043.296-.127.404-.175.226-.93.127-1.313.127h-3.974c-.41-.075-.468-.59-.68-.867-.332-.435-.858-.818-1.394-1.041-.519-.215-1.353-.161-2.05-.161-.728 0-1.501-.053-2.062.15-1.165.42-2.324 1.764-1.993 3.492.234 1.222 1.149 2.208 2.327 2.463.624.136 1.455.047 2.154.047.843 0 1.366-.043 1.935-.29.349-.15.887-.62 1.095-.925.092-.135.377-.761.483-.798.254-.088.67-.023.991-.023h2.166c.32 0 .929-.134.933.197-.472.488-.906 1.046-1.44 1.469-.895.709-1.887 1.357-3.029 1.815l-.369.069-.392.174-1.267.277-.818.058a3.974 3.974 0 01-1.106.012c-.396-.022-.791-.047-1.187-.069-.557-.104-1.152-.238-1.624-.428l-.392-.093c-.179-.077-.527-.198-.691-.301l-.138-.116-.403-.138c-.596-.404-1.199-.766-1.763-1.192zm8.57-2.405c-.321.808-1.178.67-2.27.67-.319 0-.816.074-1.071-.034-.449-.19-.971-.869-.576-1.516.096-.155.311-.373.495-.438l.323-.059h1.67c.292 0 .633-.031.852.059.176.071.307.237.415.382.139.183.303.582.162.936zm-3.053 19.116c-.238.167-1.799.081-2.292.081H17.77c-.284 0-.579.053-.737-.058-.076-.339.096-.601.173-.855l.092-.59c.079-.252.144-.468.208-.787.029-.146.129-.316.081-.497-.078-.166-.285-.136-.484-.185-.281-.07-1.249-.47-1.463-.186-.136.181-.107.485-.173.74-.12.463-.307 1.05-.426 1.515-.069.271-.051.572-.184.775-.146.221-.746.127-1.106.127h-2.672c-.341 0-.86.075-1.048-.058-.084-.351.165-.553.23-.845.093-.414.303-.822.449-1.19l.092-.405.115-.173.15-.544.126-.208.081-.37.185-.358.081-.382.173-.324.092-.404c.113-.271.281-.653.392-.926l.081-.37.196-.335.081-.278c.589-.943 1.318-1.796 2.35-2.289.489-.233 1.206-.398 1.797-.509l.633-.058c1.21-.271 2.573-.43 3.79-.683l.703-.069.887-.197c.294-.055.604-.012.83-.127.466-.003.373.562.449.938.128.635.474 1.362.806 1.815a5.865 5.865 0 001.797 1.584l.208.058.38.221c.269.075.57.062.714.254.139.186.058 1.162.058 1.55v3.088c-.004.491.072 1.112-.039 1.514zm-.241-8.43c-.643-.277-1.177-.898-1.475-1.538-.252-.544-.299-1.049-.299-1.861 0-.202-.061-.57 0-.694.042-.085.171-.147.322-.116l.473.162.645.069c.945.162 2.17.17 3.122.012.494-.082.926-.062 1.29-.255.1 0 .153.015.219.035.093.151.058.488.058.729 0 .442.041.911-.046 1.307-.037.169-.134.297-.185.439-.506 1.434-2.284 2.506-4.124 1.711zm11.589.254c-.345.079-.859.072-1.026.324-.075.113-.035.416-.035.59v1.469l.012 5.574c.073.077.331.175.357.243v.012c-.184.107-.46.046-.726.046h-1.625l-6.093.012c-.25-.225-.138-1.062-.138-1.515v-4.604c.077-.333.475-.297.795-.393l.276-.174.288-.093c.252-.143.522-.322.76-.497.624-.457 1.063-1.104 1.417-1.839l.196-.301.069-.37.184-.463c.058-.265.052-.585.115-.809l.081-.059c.229.002.396.058.587.093l.53.046c.28.063.561.124.841.186l.691.069c.797.16 1.714.319 2.523.462l.449.036.887.195c.244.049.59-.016.715.15.029.171-.084.278-.127.417-.076.244-.129.52-.289.683-.239.245-.924.229-1.301.358-.138.052-.276.102-.413.152zm28.981 6.581l-.622.196c-.355.094-.65.095-.945.22-.215.092-.175.385-.264.602a9.98 9.98 0 00-.115.196l-.139.532-.115.197-.08.369c-.125.312-.373.639-.473.96-.064.209-.42.567-.346.845.053.198.229.339.322.497.204.347.357.676.564 1.018.085.141.219.231.254.428.031.178-.326.474-.427.556-.468.382-.821.908-1.29 1.295l-1.002 1.006c-.115.116-.258.348-.438.382-.221.043-.387-.202-.519-.277a12.124 12.124 0 01-.737-.462l-.288-.116c-.121-.088-.348-.342-.564-.301-.261.049-.456.226-.657.335-.247.136-.452.191-.725.302l-.289.185-.391.092c-.275.1-.655.26-.934.37l-.414.093c-.189.083-.223.37-.289.578-.064.211-.082.492-.148.718-.051.139-.101.277-.15.416-.051.214-.022.462-.127.625-.143.221-.732.127-1.082.127h-3.353c-.248-.054-.185-.333-.253-.567-.121-.409-.252-.951-.381-1.364l-.115-.451c-.078-.108-1.008-.307-1.221-.382l-.23-.139-.369-.092-.311-.197c-.279-.125-.485-.197-.771-.323-.19-.084-.383-.241-.588-.324-.188-.075-.523.239-.633.313-.354.234-.725.394-1.084.612-.119.073-.231.273-.46.22-.276-.064-.632-.596-.841-.786l-1.141-1.122-.381-.404c-.266-.217-.627-.523-.794-.833.032-.336.404-.744.564-.994.147-.231.22-.466.368-.694.066-.102.174-.172.207-.313.069-.277-.119-.447-.207-.577l-.115-.313-.172-.243c-.133-.309-.203-.524-.323-.855-.062-.127-.122-.255-.185-.382a51.876 51.876 0 00-.08-.382l-.173-.358c-.046-.15-.022-.351-.104-.463-.207-.284-.66-.258-1.047-.37l-.611-.196c-.369-.077-.699 0-.771-.382l.012-4.268c.072-.194.361-.133.564-.196.399-.126.944-.254 1.348-.382.215-.067.466-.063.541-.267l.058-.393c.038-.141.14-.26.185-.382l.092-.416.173-.358.081-.336c.105-.229.279-.521.402-.739l.093-.277c.085-.148.214-.258.253-.463.055-.277-.188-.426-.275-.578-.121-.206-.19-.387-.312-.59l-.173-.208-.08-.22c-.09-.136-.258-.278-.301-.451-.059-.243.548-.724.68-.856.542-.543 1.082-1.088 1.625-1.63.268-.269.512-.622.863-.799.259.01.404.22.576.324.337.203.656.354.99.555.14.084.24.219.416.267.256.069.445-.14.587-.231l.265-.093c.613-.357 1.371-.622 2.074-.891l.645-.162c.262-.19.316-1.043.426-1.434.055-.146.107-.293.162-.439.054-.206-.004-.473.184-.544l4.09-.023c.564.003.441.352.553.799l.161.439c.132.438.082 1.034.438 1.237l.449.081c.329.11.749.299 1.071.428.127.031.254.063.381.092.119.05.225.155.356.209l.208.069c.158.105.77.516 1.024.463.163-.034.238-.147.357-.22.351-.215.693-.412 1.06-.602.188-.097.341-.291.588-.335.353.18.639.57.898.855l1.555 1.55c.148.126.734.628.703.867-.032.244-.385.589-.496.798-.124.232-.197.422-.334.647-.064.108-.354.417-.334.578.029.233.254.439.334.625l.104.301.139.173.092.324c.045.103.141.195.185.312.03.132.062.263.093.394.039.097.114.178.149.289l.058.301.172.358.059.382c.066.18.326.164.518.22.422.122.975.277 1.395.394.193.053.455.015.529.185l.023 4.244c-.076.364-.376.311-.727.4zM22.689 28.81c-.092.017-.185.031-.276.047-.247.094-.538.45-.611.717-.195.714.526 1.444 1.279 1.261 1.04-.254 1.041-2.053-.392-2.025zm12.683 2.024c1.089-.271 1.028-2.052-.38-2.024l-.299.059c-.261.101-.476.415-.564.693-.218.683.465 1.464 1.243 1.272zm28.612 19.521l-.219-.358-.068-.243c-1.074-1.788-2.224-3.086-4.032-4.14-.198-.115-.429-.296-.646-.394l-.334-.104-.368-.197c-.119-.026-.238-.054-.356-.081-.944-.395-2.208-.636-3.537-.613-.276.021-.553.039-.829.059-.351.065-.812.057-1.175.162l-.393.15c-.188.034-.375.068-.564.104-2.328.869-4.111 2.223-5.413 4.117l-.093.231c-.12.184-.299.393-.402.59-.287.543-.497 1.157-.738 1.734-.037.204-.076.408-.115.613-.461 1.398-.49 3.689 0 5.088l.07.463c.033.125.126.242.172.347l.104.428c1.237 2.609 2.901 4.614 5.645 5.702.291.115.672.276.968.394l.599.104.416.139c.438.116.908.034 1.404.115l.656.035 1.037-.058c.645-.109 1.165-.164 1.751-.335 3.099-.906 5.526-3.343 6.67-6.223l.081-.358.16-.335.104-.602c.576-2.04.24-4.585-.46-6.211l-.095-.323zm-1.22 4.476l-.034.845a8.824 8.824 0 01-.427 1.572l-.127.463c-1.223 2.652-3.272 4.413-6.565 4.996l-.461.012c-.546.091-1.47.039-1.958-.069-.207-.059-.414-.116-.622-.174-2.212-.466-3.827-1.93-4.884-3.573-.371-.579-.771-1.251-.934-2.024-.048-.229-.141-.422-.195-.625-.023-.223-.047-.446-.069-.67-.177-.981-.075-2.305.196-3.1l.127-.612c.229-.518.456-1.051.713-1.538.109-.206.313-.409.438-.603.909-1.399 2.349-2.396 4.021-3.029l.38-.069c.298-.078.544-.172.898-.231l1.071-.093c.477-.001.929.01 1.336.081l.668.069c.483.14 1.027.287 1.486.475l.334.208c1.837.747 3.488 2.636 4.123 4.603.063.128.123.255.186.382l.057.404c.066.259.15.53.208.821l.034.845v.634zm-2.235-1.815a46.58 46.58 0 01-.058-.394l-.185-.358c-.059-.149-.057-.297-.139-.416-.168-.246-.274-.555-.449-.798-1.029-1.437-2.698-2.714-5.184-2.684l-.852.046c-.318.056-.556.14-.818.22-.131.027-.261.055-.392.081-1.979.769-3.4 2.386-3.917 4.626-.122.532-.123 1.914.012 2.429.051.131.1.263.15.394l.092.451a6.705 6.705 0 002.338 3.03c.078.03.154.061.23.092l.3.22.196.059c.424.273 1.99.86 2.672.636.104-.152.059-.478.059-.74 0-.246.062-1.017-.023-1.145-.115-.174-.434-.105-.656-.174-.434-.133-.909-.215-1.268-.428-.718-.426-1.6-1.281-1.878-2.128l-.081-.382c-.182-.479-.295-1.471-.092-2.059.141-.405.262-.838.473-1.18.605-.983 1.436-1.503 2.615-1.92.377-.134 1.08-.116 1.508-.047 1.226.2 2.164.835 2.754 1.678.31.443.512.948.668 1.55.059.226.043.694.219.81.122.08.814.022 1.049.022.207 0 .607.063.748-.011.184-.094.137-.521.092-.764-.044-.254-.123-.494-.183-.716z"/></svg>