<svg xmlns="http://www.w3.org/2000/svg" width="78" height="78"><path fill-rule="evenodd" clip-rule="evenodd" fill="#64CC60" d="M23.719 35.237l1.92 1.944 8.993 8.969 2.324 2.323c.381.382.714.88 1.339 1.011.713.149 1.116-.384 1.415-.683l2.729-2.728c3.225-3.216 6.449-6.434 9.674-9.649l2.098-2.147c.242-.443.146-1.108-.102-1.465-.269-.387-.607-.32-1.035-.531l-7.957-.024c-.009-4.472-.018-8.942-.025-13.413-.009-1.433-.018-2.863-.025-4.295a3.241 3.241 0 00-.582-1.162c-.75-.971-2.113-.96-3.864-.96h-6.416v.076c-1.188.099-2.032.997-2.273 2.046l-.025 3.057v10.66l-.025 3.94-.025.075h-6.391c-1.072 0-2.137-.098-2.577.531-.25.356-.344 1.021-.101 1.465.197.369.638.667.931.96zm3.536-.278h4.825c.937 0 1.788.037 2.172-.505.482-.68.278-3.357.278-4.572l.025-14.701v-.052h7.882l.025 14.071v3.435c0 .745-.031 1.401.277 1.819.373.505 1.104.505 1.996.505h4.926c.08.029.031-.009.075.051v.025l-11.19 11.216c-.332-.06-.644-.567-.859-.783l-2.122-2.122-5.608-5.583-1.844-1.844c-.274-.274-.526-.623-.859-.834v-.126zm42.893 7.048c-.067-1.119-.552-2.027-1.036-2.753-1.227-1.838-3.014-3.007-6.088-3.007h-3.46c-.586 0-1.302-.07-1.744.102-.284.11-.62.448-.732.732-.305.777.212 1.538.732 1.743.613.241 1.719.101 2.502.101 2.611 0 4.906-.251 6.138 1.162.44.506.856 1.14 1.036 1.896.262 1.105.101 2.645.101 3.915v9.094c0 1.611.198 3.832-.228 5.077-.428 1.254-1.514 2.207-2.854 2.552-.968.248-2.336.101-3.461.101H14.246c-.627 0-1.241.034-1.768-.101-1.362-.349-2.395-1.3-2.854-2.552-.393-1.069-.228-2.816-.228-4.219v-8.336c0-2.137-.279-5.132.48-6.543.595-1.104 1.628-1.785 3.082-2.046h4.547c1.058 0 1.854.019 2.273-.605.425-.634.099-1.523-.379-1.844-.431-.29-1.228-.229-1.945-.229h-4.118l-1.111.102c-.458.092-.983.214-1.389.404-1.56.73-2.909 1.91-3.562 3.536-.118.371-.235.741-.354 1.111l-.076.48c-.013.118.02.088-.076.126v16.546c0 .235-.087.955.076 1.035.139 2.396 1.979 4.266 3.688 5.129.431.217.977.381 1.465.505l.404.051c.118.012.088-.021.126.075h51.204c.201 0 .662.066.732-.075 2.385-.142 4.277-1.977 5.127-3.688.21-.422.338-.915.48-1.39l.076-.479c.012-.118-.02-.088.075-.127V43.043c.003-.235.09-.955-.073-1.036z"/></svg>