<svg xmlns="http://www.w3.org/2000/svg" width="78" height="78"><path fill-rule="evenodd" clip-rule="evenodd" fill="#4DCA48" d="M67.9 38.721h-1.059V16.479a5.302 5.302 0 00-5.296-5.295H17.064a5.3 5.3 0 00-5.295 5.295v15.886H10.71a3.177 3.177 0 00-3.177 3.178v27.536a3.177 3.177 0 003.177 3.178h40.246c.585 0 1.059-.474 1.059-1.06a5.301 5.301 0 00-5.295-5.295h-3.178v-6.354H56.25v9.531a3.178 3.178 0 003.178 3.178H67.9a3.178 3.178 0 003.178-3.178V41.897a3.177 3.177 0 00-3.178-3.176zM30.833 63.079a1.06 1.06 0 01-1.059 1.06H10.709a1.06 1.06 0 01-1.059-1.06V62.02h21.182v1.059zm0-3.177H9.65V35.543a1.06 1.06 0 011.059-1.059h19.064a1.06 1.06 0 011.059 1.059v24.359zm15.886 2.119a3.184 3.184 0 012.996 2.118H32.756c.125-.339.191-.697.195-1.06V62.02h13.768zm-13.768-2.119v-6.354h2.118v6.354h-2.118zm4.236 0v-6.354h4.237v6.354h-4.237zM56.25 51.43H32.951v-6.354H56.25v6.354zm0-9.533v1.06H32.951v-7.414a3.134 3.134 0 00-.362-1.441c.016-.015.037-.019.052-.034l10.485-10.485a1.06 1.06 0 00-1.498-1.497L31.143 32.569c-.025.026-.036.061-.058.088a3.158 3.158 0 00-1.311-.292H13.887V16.479a3.178 3.178 0 013.177-3.178h44.482a3.177 3.177 0 013.177 3.178V38.72h-5.295a3.179 3.179 0 00-3.178 3.177zm12.709 21.182a1.06 1.06 0 01-1.059 1.06h-8.473a1.06 1.06 0 01-1.059-1.06V62.02h10.59v1.059zm0-3.177h-10.59V41.897c0-.585.474-1.059 1.059-1.059H67.9c.585 0 1.059.474 1.059 1.059v18.005zM20.188 45.258a1.059 1.059 0 00-1.498 0l-4.493 4.492a1.059 1.059 0 101.472 1.523l.026-.026 4.493-4.492c.188-.328-.191-.951 0-1.497zm4.856 0l-4.493 4.492a1.058 1.058 0 101.472 1.523l.026-.026 4.493-4.492a1.058 1.058 0 00-1.498-1.497zm23.044-23.172L37.603 32.57a1.06 1.06 0 001.471 1.523c.01-.008.018-.017.026-.025l10.485-10.486a1.057 1.057 0 00-1.497-1.496zm16.325 26.038l-2.995 2.996a1.056 1.056 0 00-.026 1.496 1.057 1.057 0 001.498.026l.026-.026 2.994-2.994a1.06 1.06 0 00-.025-1.498 1.06 1.06 0 00-1.472 0zm-25.087 1.188a1.059 1.059 0 000-2.119h-.01a1.06 1.06 0 10.01 2.119zm2.098-33.891h-4.237a1.059 1.059 0 100 2.118h4.237a1.06 1.06 0 000-2.118z"/></svg>