<svg xmlns="http://www.w3.org/2000/svg" width="47" height="50"><circle fill-rule="evenodd" clip-rule="evenodd" fill="#86E182" cx="23.313" cy="26.749" r="22.75" opacity=".6"/><path fill-rule="evenodd" clip-rule="evenodd" fill="#222" d="M34.06 20.819c-.077-1.707-1.369-3.066-2.875-3.333a3.824 3.824 0 00-1.411.008c-.094.02-.504.191-.577.162-.057-.022-.159-.416-.192-.502-.119-.315-.367-.572-.547-.828l-.111-.163c-.472-.439-.947-.781-1.67-.982-.248-.069-.693-.205-1.042-.147l-.709.088c-.147.047-.327.146-.503.148-.102-.147-.11-.352-.199-.518-.248-.462-.538-.933-.939-1.242.003-.16.153-.307.222-.421.189-.313.359-.696.488-1.049.204-.562.333-1.158.466-1.804l.081-1.064-.044-.71c-.059-.366-.04-.656-.111-.997-.092-.437-.249-.877-.377-1.264-.667-2.019-2.427-3.914-4.323-4.7l-.266-.148c-.218-.085-.437-.161-.643-.236-.152-.055-.298-.054-.458-.11a4.038 4.038 0 00-.451-.134c-.083-.007-.167-.015-.251-.021-.18-.041-.419-.098-.628-.097L16.979.71h-1.604v.037l-.887.125a9.248 9.248 0 00-1.566.488c-2.232.946-4.087 2.939-4.767 5.44-.268.985-.463 2.433-.222 3.629.124.612.25 1.226.488 1.744.22.48.463.925.702 1.375l.147.185c.259.397.549.729.857 1.071.189.21.396.442.621.613.396.301.794.585 1.22.865.143.093.553.226.628.354l.008 6.74-.037.015c-.257-.141-.418-.44-.643-.621-.401-.321-.823-.717-1.367-.887-.269-.084-.528-.167-.798-.222-.688-.14-1.603-.025-2.114.192l-.163.029c-.27.1-.553.252-.783.406-.922.618-1.815 1.78-1.833 3.289h-.044v.384h.044c.08 2.002 1.336 2.896 2.38 3.939l3.636 3.645 1.899 1.892c.076.115.112.255.163.392.079.215.213.44.303.65.384.896.736 1.778 1.138 2.668.146.324.334.671.458 1.006.18.483.47 1.205 1.064 1.248v.045h14.848v-.045c.559-.043.827-.594.969-1.078.135-.464.305-.957.457-1.412.086-.257.1-.502.186-.762.323-.981.494-2.087.761-3.126.102-.396.104-.768.192-1.168.165-.756.252-1.616.385-2.409.057-.346.036-.669.096-1.027l.133-1.167.022-.651c.108-.708.109-1.529.104-2.305h.044v-5.478h-.044zm-21.751-7.234a3.887 3.887 0 01-.739-.755c-.268-.356-.59-.736-.769-1.175-.14-.343-.26-.694-.392-1.057-.07-.193-.057-.383-.104-.599-.066-.309-.131-.801-.074-1.168v-.272l.096-.709c.556-2.103 1.764-3.584 3.658-4.339.351-.14.746-.248 1.146-.325l.562-.073.354-.016c.441 0 .94.013 1.301.11.417.115.814.221 1.19.37 1.541.616 2.898 2.146 3.377 3.828.179.629.294 1.464.177 2.203l-.022.443-.133.466c-.042.166-.038.32-.103.473-.09.21-.21.438-.296.65-.13.322-.325.541-.48.82-.036.065-.051.129-.111.17-.07.052-.25.021-.347.037l-.443.066c-.1.028-.244.107-.362.089-.072-.127-.03-.817-.029-1.035V9.031c-.035-.209-.023-.472-.074-.694-.278-1.204-1.03-2.028-2.018-2.527-.685-.347-1.878-.422-2.646-.111l-.199.044c-.896.372-1.55 1.075-1.958 1.938-.058.121-.06.237-.096.369-.029.105-.084.229-.111.354-.102.479-.059 1.079-.059 1.634v3.747c-.101.037-.226-.147-.296-.2zm19.392 11.824l-.059 1.885c-.055.364-.006.735-.059 1.071-.063.402-.037.827-.097 1.197l-.089 1.094c-.109.689-.174 1.444-.311 2.107-.082.399-.098.759-.177 1.159-.063.321-.15.677-.222.991-.049.212-.048.381-.104.591-.186.741-.369 1.483-.555 2.225a9.948 9.948 0 00-.229.791c-.041.159-.135.336-.156.51-.118.077-.674.029-.871.029h-10.85c-.303 0-.715.052-.976-.021-.089-.151-.134-.32-.2-.488-.119-.303-.271-.603-.399-.917-.251-.612-.542-1.214-.798-1.84-.059-.145-.166-.313-.222-.458-.157-.409-.332-.909-.562-1.257-.16-.242-.417-.439-.621-.643l-1.227-1.227-3.851-3.851-.946-.953c-.271-.271-.577-.532-.746-.902-.253-.551-.134-1.314.155-1.736.43-.627 1.429-1.045 2.328-.577.325.17.533.46.791.695l2.32 2.313c.167.124.354.235.577.303.619.186 1.281-.414 1.382-.813.109-.433.059-1.052.059-1.573V9.933c0-.469-.056-1.059.104-1.382.119-.242.357-.486.613-.591.129-.053.253-.035.392-.089.615-.003 1.042.325 1.205.769.095.259.074.62.074.969v10.982c0 .235-.032.521.029.717.111.355.357.646.68.79.695.31 1.423-.166 1.604-.68.09-.256.074-.602.074-.945v-3.326c0-.601-.045-1.232.192-1.589.195-.293.632-.614 1.175-.518.256.046.439.17.606.303.514.413.414 1.198.414 2.106v2.58c0 1.081-.061 1.727.71 2.068.48.214.945.033 1.249-.206.145-.114.287-.288.355-.474.093-.256.073-.608.073-.953V19.06l.015-.694c.07-.372.325-.646.621-.798.178-.093.435-.194.732-.141.532.096.881.466.997.982.048.212.022.495.022.739v1.448c0 .228-.031.491.021.688.068.254.234.51.422.65.684.515 1.618.167 1.869-.518.076-.206.042-.426.09-.672.025-.14.104-.306.177-.414.347-.522 1.163-.712 1.737-.267.506.394.457.997.457 1.885v3.461z"/></svg>