<svg xmlns="http://www.w3.org/2000/svg" width="50" height="50"><circle fill-rule="evenodd" clip-rule="evenodd" fill="#86E182" cx="24.813" cy="26.749" r="22.75" opacity=".6"/><path fill-rule="evenodd" clip-rule="evenodd" d="M41.956 8.032c-.147-.704-.366-1.412-.565-2.09-.106-.358-.15-.694-.262-1.052-.279-.898-.516-1.858-.762-2.765-.24-.885-.254-1.804-1.117-2.083v-.044h-.689v.044c-.566.183-1.189.337-1.764.493-.261.07-.507.092-.762.182-.305.106-.666.182-.973.283l-.189.029c-.27.095-.571.132-.855.232-.409.145-.887.259-1.307.37-.942.251-1.957.28-2.126 1.32-.113.695.595 1.434 1.276 1.307.443-.082.881-.21 1.285-.341l.203-.029c.303-.104.658-.181.965-.283.15-.034.301-.067.45-.102.415-.124.873-.23 1.284-.362.178-.058.34-.063.508-.123h.051a.064.064 0 01.008.014c-.02.162-.215.396-.297.522-.221.337-.424.68-.639 1.009-.688 1.054-1.457 2.013-2.214 2.99l-.747.849c-.326.418-.716.77-1.053 1.176l-.609.603a8.53 8.53 0 01-1.11 1.073l-.458.443c-.373.316-.725.652-1.109.958l-.711.616c-.984.742-1.932 1.512-2.969 2.207-.518.346-1.029.761-1.575 1.073-.748.429-1.484.879-2.228 1.321-.52.309-1.095.526-1.604.849-.137.087-.287.127-.436.196-.209.097-.413.211-.638.305-.188.079-.395.203-.581.29-.36.168-.732.306-1.082.472-.176.084-.346.103-.522.189-.471.229-1.013.4-1.509.595-.429.168-.85.257-1.292.413-1.541.545-3.23.867-4.971 1.227-.806.167-1.65.188-2.489.319l-1.437.087-.704.015c-.326.05-.611-.023-.871.072a1.172 1.172 0 00-.718.82H2v.573h.043c.092.438.454.781.9.864.343.063.765 0 1.117 0 .446-.002.888-.002 1.285-.065l.37-.015c.82-.127 1.667-.13 2.431-.298l.355-.036c.536-.114 1.087-.178 1.625-.305 1.489-.353 2.946-.688 4.318-1.168.827-.291 1.66-.61 2.453-.922.233-.092.45-.147.675-.254.403-.191.823-.362 1.241-.545.243-.105.5-.262.74-.37.479-.217.958-.43 1.394-.696.226-.139.472-.209.696-.349.354-.22.73-.406 1.096-.616.308-.178.601-.377.921-.545.279-.146.542-.369.813-.529.785-.466 1.502-.999 2.25-1.503l.464-.362c.644-.471 1.256-.958 1.887-1.437.321-.243.606-.53.929-.776l.922-.835c.391-.313.721-.683 1.088-1.017.299-.27.586-.552.857-.849.356-.392.76-.738 1.096-1.153l.428-.45c.576-.723 1.198-1.396 1.756-2.141l.378-.473c.315-.463.641-.909.958-1.378l.297-.422c.227-.407.48-.807.733-1.204a.567.567 0 00.036.007c.064.097.061.204.102.335.088.275.141.571.232.862.223.714.428 1.482.609 2.207.111.447.184 1.023.486 1.284.131.112.271.229.442.297.71.287 1.429-.277 1.531-.826H42v-.579h-.044zm-.943 29.63l-1.407-.007c-.051-.081-.029-.272-.029-.399V16.407c0-.568.039-1.225-.08-1.677-.188-.71-.854-1.233-1.633-1.364l-1.437-.007h-1.524c-.242 0-.529-.029-.74.021-.408.099-.829.277-1.059.559-.182.223-.381.47-.473.776-.132.44-.087 1.092-.087 1.654v20.915c0 .121.021.284-.015.363h-2.307c-.062-.115-.022-.752-.022-.944v-13.09c0-.267.035-.597-.022-.827-.184-.747-.617-1.297-1.313-1.524-.488-.159-1.247-.095-1.873-.095h-1.32c-.416 0-.823-.007-1.139.088-.489.146-.865.504-1.11.899-.258.415-.254 1.014-.254 1.698v13.78c-.132.071-.46.022-.638.022l-1.684-.007c-.055-.104-.015-.547-.015-.719V27.8l-.015-.638c-.127-.686-.559-1.312-1.139-1.531-.542-.206-1.267-.16-2.018-.16l-2.177.007c-.541.098-1.022.369-1.284.748-.17.245-.294.513-.377.85-.06.24-.021.585-.021.862v1.691l-.007 8.004c-.132.071-.461.022-.639.022l-1.684-.007c-.061-.122-.015-.448-.015-.625v-5.37c0-.663.071-1.479-.087-2.01-.147-.495-.5-.856-.893-1.11-.51-.331-1.455-.254-2.293-.254h-1.43c-.235 0-.506-.027-.711.021-.506.121-.926.355-1.197.712-.198.26-.344.577-.414.964l-.007 1.75-.007 5.906c-.079.046-.268.022-.385.022H3.06c-.505.082-.927.394-1.016.885H2v.573h.043c.102.396.333.595.639.784l.188.059c.023.015.018.007.022.043h38.215v-.043c.426-.074.768-.431.849-.85H42v-.559h-.044c-.083-.465-.481-.794-.943-.884zm-31.901-6.48v1.328l-.007 5.123c-.114.066-.415.022-.573.022l-1.734-.007c-.063-.042-.029-.286-.029-.399v-1.19l.007-5.406.022-.029 2.293.008c.06.113.021.392.021.55zm9.375-2.649v1.828l-.007 7.271c-.132.071-.46.022-.638.022l-1.684-.007c-.06-.119-.015-.438-.015-.61V28.46c0-.181-.049-.533.021-.646h2.293c.07.11.03.542.03.719zm9.368 9.1c-.132.071-.46.022-.639.022l-1.683-.007c-.072-.136-.022-.658-.022-.857V24.44c0-.152-.031-.823.016-.899.01-.016.016-.018.028-.029h2.265l.035.043v14.078zm9.363.015l-2.301.007c-.054-.085-.028-.289-.028-.421v-4.869l.007-16.626.021-.036 2.286.007c.059.039.029.21.029.312V37.22c0 .135.026.338-.014.428z"/></svg>