<svg xmlns="http://www.w3.org/2000/svg" width="50" height="50"><circle fill-rule="evenodd" clip-rule="evenodd" fill="#86E182" cx="26.75" cy="26.749" r="22.75" opacity=".6"/><path fill-rule="evenodd" clip-rule="evenodd" d="M41.964 14.778l-.051-.45-.167-.79c-.232-.698-.326-1.445-.545-2.163-.119-.392-.193-.801-.305-1.212-.396-1.475-.718-3.012-1.146-4.477-.121-.418-.18-.844-.313-1.241-.049-.15-.055-.283-.115-.421-.375-.843-.943-1.477-1.836-1.799-.201-.074-.427-.166-.689-.182a.573.573 0 00-.008-.044H7.196v.044c-.723.018-1.609.604-1.945 1.022a4.496 4.496 0 00-.581.93c-.097.209-.115.433-.181.675-.138.505-.245 1.031-.392 1.553-.487 1.725-.885 3.489-1.321 5.246-.152.615-.306 1.243-.472 1.873-.104.396-.261.851-.261 1.328L2 14.677v1.43h.043c.008.348.093.691.174.979.111.395.179.763.341 1.11.198.426.419.834.617 1.248l.559.871c.069.098.203.207.232.334v17.519c0 .474-.029.961.072 1.349.239.918.749 1.614 1.495 2.025.321.177.704.396 1.175.414l.007.043h30.566v-.043c1.329-.104 2.454-1.292 2.685-2.504.074-.388.058-.843.058-1.299V28.015c0-.467.059-1.054-.064-1.422-.176-.524-.605-.843-1.212-.943a1.238 1.238 0 00-.784.159c-.34.203-.586.441-.719.85-.066.208-.035.512-.035.77v10.508c0 .33.051.765-.029 1.045-.034.118-.126.241-.24.275l-1.894.007-6.865-.007c-.067-.104-.028-.533-.028-.704v-8.498c0-1.083.139-2.171-.473-2.663-.498-.401-.961-.348-1.843-.348h-7.344c-1.184 0-1.913-.117-2.417.609-.366.526-.239 1.786-.239 2.671v6.371l-.007 2.532c-.05.078-.379.036-.5.036H7.544c-.207 0-.456.023-.581-.058-.238-.153-.182-.642-.182-1.03V35.36l.007-12.7.007-.021c.149-.026.285.099.406.138.166.053.337.106.494.152.404.119.853.158 1.299.232l.646.021.522-.015.406-.028c.444-.082.892-.133 1.27-.269.281-.102.539-.146.798-.261.833-.371 1.509-.841 2.17-1.372.311-.251.61-.585.856-.9.089-.113.166-.234.269-.334l.022.008.203.275.53.609.341.32.421.377c.348.243.695.5 1.074.712.545.304 1.166.498 1.821.688.328.096.691.107 1.045.167l.544.015c.387.006.81-.009 1.139-.072.355-.069.661-.075.98-.182a11.3 11.3 0 001.931-.856c.376-.208.695-.521 1.03-.776.276-.212.634-.621.849-.9.09-.116.162-.271.275-.362.147.062.254.28.35.399.242.304.527.593.819.849.781.685 1.685 1.165 2.758 1.567.425.159.896.196 1.378.29.256.05.533.041.828.044.818.008 1.551-.094 2.177-.298 1.917-.623 3.278-1.664 4.289-3.186.161-.244.272-.501.421-.763.34-.597.515-1.26.697-2.031.043-.183.103-.434.102-.653l.043-.007v-1.459h-.034zm-23.288 15.11l.08-.029h6.038c.139 0 .405-.038.501.021.08.052.036.396.036.537v8.796l-.022.035c-.147.031-.357.015-.529.015h-5.544c-.152 0-.416.041-.537-.015l-.037-.028v-8.36c0-.281-.049-.753.014-.972zM14.417 16.73c-.313 1.296-1.242 2.439-2.293 3.005-.381.204-.785.408-1.256.537-.208.057-.379.051-.609.094-.244.045-.597.092-.885.044-.41-.069-.788-.106-1.146-.211-1.29-.376-2.565-1.546-3.026-2.75-.062-.162-.155-.351-.218-.522-.204-.56-.292-1.532-.16-2.235.116-.61.301-1.208.45-1.793.292-1.141.559-2.28.856-3.403.304-1.146.582-2.299.863-3.433.082-.328.173-1.084.399-1.24.067-.047.127-.052.21-.087h6.335c.186 0 .479-.041.624.021l.007 5.472v3.896c.001.925.026 1.871-.151 2.605zm12.177.197c-.41 1.373-1.271 2.353-2.438 2.976-.197.104-.437.232-.667.297l-.61.152-.631.065c-.255.042-.547-.015-.755-.051-.821-.144-1.333-.313-1.901-.696a4.903 4.903 0 01-2.032-2.809c-.208-.746-.174-1.733-.174-2.692V5.163c0-.107-.032-.322.014-.399a.342.342 0 01.022-.028h8.542c.207 0 .652-.047.805.021l.008 5.544v4.035c-.002.934.03 1.878-.183 2.591zm12.584-.69c-.367 1.846-1.412 3.113-2.939 3.795-.316.142-.682.23-1.045.313-.803.18-1.783.015-2.388-.211-1.681-.626-2.796-1.807-3.215-3.687-.142-.636-.08-1.472-.08-2.221v-3.934l.007-5.521c.014-.023.023-.022.044-.036h6.408c.257 0 .489-.015.631.094.208.16.251.717.334 1.017.285 1.021.489 2.076.784 3.112.301 1.063.538 2.181.834 3.244.104.369.148.715.254 1.081.227.785.574 1.93.371 2.954z"/></svg>